<svg xmlns="http://www.w3.org/2000/svg" width="30" height="30"><g fill="none" fill-rule="evenodd"><path stroke="#4C4C4C" d="M23.182 6.5A1.314 1.314 0 0 1 24.5 7.818v10.938a1.314 1.314 0 0 1-1.318 1.318l-9.5-.001-1.81 3.217-2.112-3.217H6.818A1.314 1.314 0 0 1 5.5 18.757V7.818A1.314 1.314 0 0 1 6.818 6.5Z"/><path fill="#4C4C4C" d="M11.364 12.384a.91.91 0 0 1 .909.912.91.91 0 0 1-.91.912.91.91 0 0 1-.908-.912.91.91 0 0 1 .909-.912Zm3.636 0a.91.91 0 0 1 .91.912.91.91 0 0 1-.91.912.91.91 0 0 1-.91-.912.91.91 0 0 1 .91-.912Zm3.636 0a.91.91 0 0 1 .91.912.91.91 0 0 1-.91.912.91.91 0 0 1-.909-.912.91.91 0 0 1 .91-.912Z"/></g></svg>