<svg xmlns="http://www.w3.org/2000/svg" width="36" height="36"><g fill="none" fill-rule="evenodd" stroke="#4C4C4C"><path d="M18.5 15.5a2.99 2.99 0 0 1 2.121.879A2.99 2.99 0 0 1 21.5 18.5a2.99 2.99 0 0 1-.879 2.121 2.99 2.99 0 0 1-2.121.879 2.99 2.99 0 0 1-2.121-.879A2.99 2.99 0 0 1 15.5 18.5c0-.828.336-1.578.879-2.121A2.99 2.99 0 0 1 18.5 15.5Z"/><path d="M18.5 9.5c.707 0 1.395.076 2.058.219l.721 1.829c.77.284 1.48.682 2.11 1.173l2.006-.313a8.905 8.905 0 0 1 2.046 3.396l-1.283 1.514c.062.387.1.78.1 1.182 0 .403-.038.795-.1 1.182l1.283 1.514a8.905 8.905 0 0 1-2.046 3.396l-2.007-.313c-.629.491-1.34.89-2.109 1.173l-.721 1.83a9.768 9.768 0 0 1-4.115 0l-.722-1.83a7.815 7.815 0 0 1-2.109-1.173l-2.007.313a8.911 8.911 0 0 1-2.046-3.396l1.283-1.514c-.062-.386-.099-.78-.099-1.182 0-.403.037-.796.1-1.182l-1.284-1.514a8.911 8.911 0 0 1 2.046-3.396l2.007.313a7.815 7.815 0 0 1 2.11-1.173l.72-1.83A9.753 9.753 0 0 1 18.5 9.5Z"/></g></svg>