<svg xmlns="http://www.w3.org/2000/svg" width="30" height="30"><g fill="none" fill-rule="evenodd"><path stroke="#4C4C4C" d="M24 5.5c.414 0 .79.168 1.06.44.272.27.44.646.44 1.06v16c0 .414-.168.79-.44 1.06-.27.272-.646.44-1.06.44H8c-.414 0-.79-.168-1.06-.44A1.495 1.495 0 0 1 6.5 23V7c0-.414.168-.79.44-1.06.27-.272.646-.44 1.06-.44Z"/><g stroke="#4C4C4C" transform="translate(11 10)"><path d="M10 11c0-2.03-1.914-3-5.004-3C1.914 8 0 8.97 0 11"/><circle cx="5" cy="3" r="2.5"/></g><path fill="#4C4C4C" d="M6 19v1H4v-1h2Zm0-5v1H4v-1h2Zm0-5v1H4V9h2Z"/></g></svg>