<svg xmlns="http://www.w3.org/2000/svg" width="36" height="18"><g fill="none" fill-rule="evenodd"><path fill="#FF5A5A" d="M28.028 16.066A8.03 8.03 0 0 1 20 8.033 8.03 8.03 0 0 1 28.028 0a8.03 8.03 0 0 1 8.029 8.033 8.03 8.03 0 0 1-8.029 8.033"/><path fill="#FFF" d="M31.758 7.61h-2.881V4.708h-1.134v2.9h-2.88v1.099h2.88v2.9h1.134v-2.9h2.88z"/><path fill="#000" d="M9 0C4.412 0 .692 3.526.692 7.875c0 3.212 1.312 4.745 3.11 6.143v3.765c0 .178.198.28.337.174l3.136-2.385c.553.11 1.127.17 1.715.17 4.584 0 8.3-3.52 8.308-7.862l.01-.005C17.308 3.525 13.588 0 9 0"/><path fill="#FFF" d="M6.721 4.267h4.558v-.825H6.72zM12.282 10.493a.482.482 0 0 1-.476.487H6.194a.482.482 0 0 1-.476-.487v-4.28h6.564v4.28Zm.403-5.106h-7.37a.408.408 0 0 0-.403.413v4.693c0 .723.575 1.312 1.282 1.312h5.612c.707 0 1.282-.589 1.282-1.312V5.8a.408.408 0 0 0-.403-.413Z"/><path fill="#FFF" d="M7.786 8.157h2.428v-.825H7.786z"/></g></svg>