<svg width="24" height="24" viewBox="0 0 24 24" fill="none" xmlns="http://www.w3.org/2000/svg">
<path d="M9.44937 19H6.20917C4.16273 19 2.5 17.3319 2.5 15.2748C2.5 13.2177 4.16273 11.5443 6.20917 11.5443C6.27313 11.5443 6.32642 11.5443 6.39037 11.5443H6.45432V11.4804C6.42235 11.2246 6.40103 10.9581 6.40103 10.7023C6.39037 7.55805 8.9271 5 12.0394 5C14.9918 5 17.422 7.29159 17.6671 10.2014V10.244H17.7097C19.8841 10.4892 21.5681 12.3544 21.5681 14.6034C21.5681 17.0228 19.6176 19 17.2088 19H9.44937Z" stroke="#FF5A5A" stroke-width="1.2" stroke-linejoin="round"/>
<path d="M9.38574 13.6261L11.4659 15.8053L15.1062 11.9917" stroke="#FF5A5A" stroke-width="1.2" stroke-linecap="round" stroke-linejoin="round"/>
</svg>
