<svg width="50" height="50" viewBox="0 0 50 50" fill="none" xmlns="http://www.w3.org/2000/svg">
<path fill-rule="evenodd" clip-rule="evenodd" d="M16.5273 16C16.2339 16 15.9961 16.2378 15.9961 16.5313V22.7927V33.414C15.9961 33.7074 16.2339 33.9453 16.5273 33.9453H34.4028C34.6962 33.9453 34.9341 33.7074 34.9341 33.414V18.7818C34.9341 18.4884 34.6962 18.2506 34.4028 18.2506H25.6742L23.1922 16.1275C23.096 16.0452 22.9735 16 22.8469 16H16.5273ZM17.0586 22.7927V17.0625H22.6507L25.1326 19.1855C25.2288 19.2678 25.3513 19.3131 25.4779 19.3131H33.8716V32.8828H17.0586V22.7927ZM25.478 22.6356C24.5585 22.6356 23.8128 23.3809 23.8128 24.3009C23.8128 25.2205 24.5586 25.9663 25.478 25.9663C26.3975 25.9663 27.1433 25.2205 27.1433 24.3009C27.1433 23.3809 26.3976 22.6356 25.478 22.6356ZM22.8944 24.3009C22.8944 22.8736 24.0514 21.7172 25.478 21.7172C26.9046 21.7172 28.0617 22.8736 28.0617 24.3009C28.0617 25.7277 26.9047 26.8847 25.478 26.8847C24.0513 26.8847 22.8944 25.7277 22.8944 24.3009ZM22.1098 28.8602C22.9487 28.3246 24.1109 28.0906 25.4615 28.0906C26.8155 28.0906 27.9794 28.3246 28.8193 28.86C29.6882 29.414 30.1732 30.2692 30.1732 31.3826H29.2548C29.2548 30.5787 28.9264 30.0175 28.3256 29.6344C27.6956 29.2328 26.7333 29.009 25.4615 29.009C24.1935 29.009 23.233 29.2327 22.6039 29.6343C22.0038 30.0173 21.6754 30.5786 21.6754 31.3826H20.757C20.757 30.2693 21.2419 29.4142 22.1098 28.8602Z" fill="#404040"/>
</svg>
