<svg xmlns="http://www.w3.org/2000/svg" xmlns:xlink="http://www.w3.org/1999/xlink" width="182" height="32"><defs><path id="a" d="M0 0h29.593v31.346H0z"/></defs><g fill="none" fill-rule="evenodd"><path fill="#FF5A5A" d="M45.053 27.312c-7.354 0-13.316-5.962-13.316-13.316C31.737 6.64 37.699.679 45.053.679c7.355 0 13.317 5.962 13.317 13.317 0 7.354-5.962 13.316-13.317 13.316"/><path fill="#FFF" d="M50.772 13.085h-4.779V8.278h-1.88v4.807h-4.778v1.821h4.778v4.808h1.88v-4.808h4.78z"/><g transform="translate(0 .471)"><mask id="b" fill="#fff"><use xlink:href="#a"/></mask><path fill="#000" d="M14.796 0C6.624 0 0 6.14 0 13.714c0 5.593 2.337 8.263 5.538 10.698v6.557c0 .31.353.487.6.302l5.586-4.153c.986.192 2.007.295 3.055.295 8.163 0 14.782-6.127 14.796-13.69l.018-.009C29.593 6.14 22.969 0 14.796 0" mask="url(#b)"/></g><path fill="#FFF" d="M10.738 7.902h8.117V6.465h-8.117zM20.642 18.744c0 .468-.38.848-.848.848H9.8a.848.848 0 0 1-.847-.848V11.29h11.69v7.455Zm.718-8.891H8.233a.718.718 0 0 0-.718.718v8.173A2.286 2.286 0 0 0 9.8 21.03h9.995a2.287 2.287 0 0 0 2.285-2.285v-8.173a.719.719 0 0 0-.719-.718Z"/><path fill="#FFF" d="M12.635 14.677h4.324V13.24h-4.324z"/><g fill="#000"><path d="M67.722 20.005h10.967v4.123h1.94v-5.802H67.722zM75.405 13.921h5.424v-1.68H69.94V10.9h10.587V9.28H69.941V7.997H80.63V6.338H68v7.583h5.424v1.523H65.78v1.659h17.07v-1.66h-7.445zM97.852 11.641H93.99v1.74h3.863v10.647h1.94V5.938h-1.94z"/><path d="M91.266 11.29V7.078h-2.02v4.172c0 4.889-3.705 7.527-5.298 8.434l-.145.082 1.309 1.356.088-.056c2.4-1.505 4.244-3.493 5.105-5.494.97 1.942 2.841 3.845 4.951 5.017l.098.054 1.102-1.429-.135-.072c-2.443-1.307-5.055-4.056-5.055-7.852M107.066 16.325v2.181h8.088v-2.181h1.939v7.483h-11.967v-7.483h1.94Zm8.088 3.8h-8.088v2.024h8.088v-2.024ZM114.341 14.86l.11-.016v-1.638l-.145.017c-2.12.258-4.957.28-7.45.28h-1.691V11.58h6.985V6.558h-8.925v1.66h6.985V9.96h-6.985v5.222h3.632c2.69 0 5.486-.025 7.484-.322M117.133 5.937h-1.94v9.765h1.94V11.36h2.441v-1.7h-2.441zM125.964 15.362h17.07v-1.64h-17.07zM137.086 8.077l-.11 2.844h-4.975l-.091-2.844h5.176Zm4.486 2.844h-2.676l.11-2.844h2.166v-1.62h-13.347v1.62h2.165l.093 2.844h-2.659v1.64h14.148v-1.64ZM130.124 20.966h10.688v-4.341h-12.627v1.64h10.687v1.101h-10.687v4.462h13.027v-1.66h-11.088zM157.625 12.642h-3.342v1.74h3.342v9.646h1.94V5.938h-1.94z"/><path d="M148.949 18.926h-1.553v-4.325h6.265V7.28h-8.204v1.678h6.264v3.985h-6.264v7.683h3.492c2.447 0 5.018-.053 7.227-.441l.107-.02v-1.659l-.148.023c-2.351.35-4.843.398-7.186.398M164.191 16.877c2.971-.984 5.506-2.847 6.684-4.899 1.178 2.052 3.714 3.915 6.684 4.899l.09.03 1.123-1.545-.174-.053c-3.264-.995-6.733-3.648-6.733-6.6V6.757h-1.98v1.95c0 2.953-3.469 5.606-6.733 6.601l-.174.053 1.124 1.544.089-.03ZM162.34 22.046h17.07v-1.699h-17.07z"/></g></g></svg>