<svg xmlns="http://www.w3.org/2000/svg" xmlns:xlink="http://www.w3.org/1999/xlink" width="220" height="32"><defs><path id="a" d="M0 0h30.21v32H0z"/><path id="c" d="M0 0h7.687v15.573H0z"/><path id="e" d="M0 22.459h146.918V0H0z"/><path id="g" d="M0 22.459h146.918V0H0z"/><path id="i" d="M0 22.459h146.918V0H0z"/><path id="k" d="M0 22.459h146.918V0H0z"/><path id="m" d="M0 22.459h146.918V0H0z"/><path id="o" d="M0 22.459h146.918V0H0z"/><path id="q" d="M0 22.459h146.918V0H0z"/><path id="s" d="M0 22.459h146.918V0H0z"/><path id="u" d="M0 22.459h146.918V0H0z"/><path id="w" d="M0 22.459h146.918V0H0z"/><path id="y" d="M0 22.459h147.003V0H0z"/></defs><g fill="none" fill-rule="evenodd"><path fill="#FF5A5A" fill-rule="nonzero" d="M45.993 27.4c-7.508 0-13.595-6.086-13.595-13.594C32.398 6.3 38.485.212 45.993.212 53.5.212 59.587 6.3 59.587 13.806c0 7.508-6.087 13.595-13.594 13.595"/><path fill="#FFF" fill-rule="nonzero" d="M51.83 12.877h-4.878V7.969h-1.919v4.908h-4.878v1.859h4.878v4.908h1.92v-4.908h4.878z"/><mask id="b" fill="#fff"><use xlink:href="#a"/></mask><path fill="#000" fill-rule="nonzero" d="M15.105 0C6.763 0 0 6.268 0 14c0 5.71 2.386 8.436 5.654 10.92v6.695c0 .316.36.497.613.308l5.702-4.239c1.006.196 2.049.3 3.118.3 8.334 0 15.09-6.254 15.105-13.976L30.21 14c0-7.732-6.762-14-15.105-14" mask="url(#b)"/><path fill="#FFF" fill-rule="nonzero" d="M10.962 7.585h8.286V6.12h-8.286zM21.072 18.654a.867.867 0 0 1-.865.866H10.003a.866.866 0 0 1-.865-.866v-7.61h11.934v7.61Zm.733-9.077h-13.4a.733.733 0 0 0-.733.733v8.344a2.334 2.334 0 0 0 2.331 2.332h10.204a2.335 2.335 0 0 0 2.332-2.332V10.31a.734.734 0 0 0-.734-.733Z"/><path fill="#FFF" fill-rule="nonzero" d="M12.898 14.502h4.414v-1.466h-4.414z"/><g transform="translate(67.376 6.797)"><mask id="d" fill="#fff"><use xlink:href="#c"/></mask><path fill="#000" fill-rule="nonzero" d="M4.482 5.41v6.544c0 1.835 1.06 1.714 3.205 1.618v1.883c-3.614.483-5.301-.483-5.301-3.501V5.409H0V3.381h2.386V.628L4.482 0v3.38h3.205v2.03H4.482Z" mask="url(#d)"/></g><path fill="#000" fill-rule="nonzero" d="M87.452 16.215c0-2.463-1.856-4.323-4.29-4.323-2.41 0-4.265 1.86-4.265 4.323s1.855 4.322 4.265 4.322c2.434 0 4.29-1.86 4.29-4.322Zm2.096-6.038v12.075h-2.096v-2.077c-.964 1.473-2.507 2.39-4.555 2.39-3.35 0-6.097-2.776-6.097-6.35s2.747-6.351 6.097-6.351c2.048 0 3.59.917 4.555 2.39v-2.077h2.096Z"/><g transform="translate(67.376 4.623)"><mask id="f" fill="#fff"><use xlink:href="#e"/></mask><path fill="#000" fill-rule="nonzero" d="M25.331 17.629h2.097V0H25.33z" mask="url(#f)"/></g><g transform="translate(67.376 4.623)"><mask id="h" fill="#fff"><use xlink:href="#g"/></mask><path fill="#000" fill-rule="nonzero" d="m38.152 17.629-5.495-5.724v5.724h-2.096V.724h2.096v10.167l5.206-5.337h2.699l-5.76 5.844 5.952 6.23z" mask="url(#h)"/></g><g transform="translate(67.376 4.623)"><mask id="j" fill="#fff"><use xlink:href="#i"/></mask><path fill="#000" fill-rule="nonzero" d="M56.083 11.591c0-2.463-1.855-4.322-4.29-4.322-2.41 0-4.265 1.86-4.265 4.322 0 2.464 1.856 4.323 4.266 4.323 2.434 0 4.29-1.86 4.29-4.323ZM58.18.724V17.63h-2.097v-2.077c-.964 1.473-2.506 2.39-4.554 2.39-3.35 0-6.097-2.776-6.097-6.35 0-3.575 2.747-6.352 6.097-6.352 2.048 0 3.59.918 4.554 2.391V.724h2.097Z" mask="url(#j)"/></g><g transform="translate(67.376 4.623)"><mask id="l" fill="#fff"><use xlink:href="#k"/></mask><path fill="#000" fill-rule="nonzero" d="M67.22 5.337v2.197c-1.808-.072-3.76.846-3.76 3.695v6.4h-2.096V5.554h2.096v2.029c.771-1.69 2.241-2.246 3.76-2.246" mask="url(#l)"/></g><g transform="translate(67.376 4.623)"><mask id="n" fill="#fff"><use xlink:href="#m"/></mask><path fill="#000" fill-rule="nonzero" d="M69.269 17.628h2.096V5.554h-2.096v12.074Zm-.362-15.672c0-.773.627-1.425 1.422-1.425.77 0 1.398.652 1.398 1.425a1.4 1.4 0 0 1-1.398 1.4 1.406 1.406 0 0 1-1.422-1.4Z" mask="url(#n)"/></g><g transform="translate(67.376 4.623)"><mask id="p" fill="#fff"><use xlink:href="#o"/></mask><path fill="#000" fill-rule="nonzero" d="M85.27 5.554 80.452 17.63h-2.458l-4.82-12.075h2.265l3.784 9.829 3.783-9.829z" mask="url(#p)"/></g><g transform="translate(67.376 4.623)"><mask id="r" fill="#fff"><use xlink:href="#q"/></mask><path fill="#000" fill-rule="nonzero" d="M88.043 10.722h8.05c-.362-2.39-2.073-3.502-3.88-3.502-2.266 0-3.832 1.401-4.17 3.502m4.362 5.24c1.663 0 2.868-.773 3.47-1.762l1.783 1.014c-1.06 1.642-2.891 2.728-5.3 2.728-3.881 0-6.46-2.728-6.46-6.35 0-3.574 2.555-6.351 6.315-6.351 3.638 0 6 2.994 6 6.374 0 .314-.024.628-.072.942H88.043c.41 2.174 2.12 3.405 4.362 3.405" mask="url(#r)"/></g><g transform="translate(67.376 4.623)"><mask id="t" fill="#fff"><use xlink:href="#s"/></mask><path fill="#000" fill-rule="nonzero" d="M113.663 14.683c.82-.845 1.23-1.86 1.23-3.091 0-1.232-.41-2.246-1.23-3.067-.819-.845-1.831-1.256-3.036-1.256-1.23 0-2.241.41-3.06 1.256-.82.82-1.23 1.835-1.23 3.067 0 1.232.41 2.246 1.23 3.09.819.822 1.83 1.233 3.06 1.233 1.205 0 2.217-.41 3.036-1.232m1.543-7.583c1.18 1.231 1.783 2.728 1.783 4.492 0 1.763-.602 3.284-1.783 4.515-1.181 1.232-2.628 1.836-4.314 1.836-2 0-3.519-.797-4.555-2.391v6.907h-2.097V5.554h2.097v2.077c1.036-1.593 2.555-2.39 4.555-2.39 1.686 0 3.133.627 4.314 1.859" mask="url(#t)"/></g><g transform="translate(67.376 4.623)"><mask id="v" fill="#fff"><use xlink:href="#u"/></mask><path fill="#000" fill-rule="nonzero" d="M119.495 17.63h2.096V0h-2.096z" mask="url(#v)"/></g><g transform="translate(67.376 4.623)"><mask id="x" fill="#fff"><use xlink:href="#w"/></mask><path fill="#000" fill-rule="nonzero" d="M133.11 5.554h2.096V17.63h-2.096V15.89c-.844 1.377-2.145 2.053-3.904 2.053-2.82 0-4.675-1.908-4.675-4.974V5.554h2.096v7.293c0 1.956 1.133 3.091 2.988 3.091 2.097 0 3.495-1.28 3.495-3.984v-6.4Z" mask="url(#x)"/></g><g transform="translate(67.376 4.623)"><mask id="z" fill="#fff"><use xlink:href="#y"/></mask><path fill="#000" fill-rule="nonzero" d="M142.556 10.626c1.88.41 4.386 1.11 4.362 3.695 0 1.086-.434 1.98-1.278 2.632-.843.652-1.904.99-3.228.99-2.338 0-4.098-1.111-4.796-2.825l1.807-1.039c.385 1.16 1.518 1.883 2.989 1.883 1.373 0 2.385-.506 2.385-1.641 0-.942-1.06-1.473-2.385-1.787-1.905-.508-4.362-1.135-4.362-3.695 0-1.04.409-1.908 1.204-2.584.82-.677 1.832-1.015 3.06-1.015 1.953 0 3.567.943 4.34 2.512l-1.76.99c-.434-1.038-1.302-1.545-2.58-1.545-1.18 0-2.144.58-2.144 1.617 0 .943 1.06 1.45 2.386 1.812" mask="url(#z)"/></g></g></svg>