<svg xmlns="http://www.w3.org/2000/svg" xmlns:xlink="http://www.w3.org/1999/xlink" width="93" height="32"><defs><path id="a" d="M0 0h29.763v31.526H0z"/></defs><g fill="none" fill-rule="evenodd"><g transform="translate(0 .474)"><mask id="b" fill="#fff"><use xlink:href="#a"/></mask><path fill="#000" d="M14.881 0C6.662 0 0 6.175 0 13.793c0 5.625 2.35 8.31 5.57 10.759v6.594c0 .312.355.49.604.304l5.617-4.176c.992.193 2.019.296 3.073.296 8.21 0 14.866-6.162 14.88-13.77l.019-.007C29.763 6.175 23.1 0 14.88 0" mask="url(#b)"/><path fill="#FFF" d="M10.8 7.473h8.163V6.028H10.8zM20.76 18.378c0 .47-.383.852-.852.852H9.855a.853.853 0 0 1-.852-.852V10.88H20.76v7.498Zm.722-8.943H8.28a.722.722 0 0 0-.722.723v8.22a2.3 2.3 0 0 0 2.297 2.297h10.053a2.3 2.3 0 0 0 2.297-2.297v-8.22a.723.723 0 0 0-.723-.723Z" mask="url(#b)"/><path fill="#FFF" d="M12.707 14.287h4.348v-1.444h-4.348z" mask="url(#b)"/></g><g fill="#000"><path d="M39.279 20.12h11.03v4.146h1.951v-5.835H39.279zM47.006 14h5.455v-1.688h-10.95v-1.35H52.16V9.333H41.511v-1.29H52.26V6.373h-12.7v7.627h5.455v1.531h-7.69v1.67h17.17v-1.67h-7.489zM69.582 11.708h-3.885v1.75h3.885v10.708h1.95V5.97h-1.95z"/><path d="M62.958 11.355V7.119h-2.031v4.196c0 4.916-3.727 7.57-5.329 8.482l-.145.083 1.316 1.363.089-.056c2.413-1.513 4.268-3.513 5.134-5.526.975 1.954 2.857 3.867 4.98 5.046l.098.055 1.108-1.438-.136-.073c-2.457-1.314-5.084-4.079-5.084-7.896M78.849 16.418v2.194h8.134v-2.194h1.95v7.526H76.898v-7.526h1.95Zm8.134 3.823h-8.134v2.035h8.134v-2.035ZM86.166 14.945l.11-.016V13.28l-.145.018c-2.134.26-4.986.281-7.492.281h-1.702v-1.934h7.025v-5.05h-8.976v1.668h7.025v1.753h-7.025v5.252h3.653c2.706 0 5.517-.025 7.527-.324M88.973 5.971h-1.95v9.821h1.95v-4.368h2.456V9.715h-2.456z"/></g></g></svg>