<svg xmlns="http://www.w3.org/2000/svg" xmlns:xlink="http://www.w3.org/1999/xlink" width="144" height="32"><defs><path id="a" d="M0 0h29.763v31.526H0z"/><path id="c" d="M0 0h29.763v31.526H0z"/><path id="e" d="M0 0h29.763v31.526H0z"/><path id="g" d="M0 0h29.763v31.526H0z"/><path id="i" d="M0 0h7.749v15.634H0z"/><path id="k" d="M0 0h12.826v12.753H0z"/><path id="m" d="M0 18h99.708V0H0z"/><path id="o" d="M0 18h99.708V0H0z"/><path id="q" d="M0 18h99.708V0H0z"/><path id="s" d="M0 18h99.708V0H0z"/><path id="u" d="M0 18h99.708V0H0z"/><path id="w" d="M0 18h99.708V0H0z"/><path id="y" d="M0 18h99.708V0H0z"/><path id="A" d="M0 18h99.708V0H0z"/></defs><g fill="none" fill-rule="evenodd"><g><mask id="b" fill="#fff"><use xlink:href="#a"/></mask><path fill="#000" fill-rule="nonzero" d="M14.881 0C6.662 0 0 6.175 0 13.793c0 5.625 2.35 8.31 5.57 10.759v6.594c0 .312.355.49.604.304l5.617-4.176c.992.193 2.019.296 3.073.296 8.21 0 14.866-6.162 14.88-13.77l.019-.007C29.763 6.175 23.1 0 14.88 0" mask="url(#b)"/></g><g><mask id="d" fill="#fff"><use xlink:href="#c"/></mask><path fill="#FFF" fill-rule="nonzero" d="M10.8 7.473h8.163V6.028H10.8z" mask="url(#d)"/></g><g><mask id="f" fill="#fff"><use xlink:href="#e"/></mask><path fill="#FFF" fill-rule="nonzero" d="M20.76 18.378c0 .47-.383.852-.852.852H9.855a.853.853 0 0 1-.852-.852V10.88H20.76v7.498Zm.722-8.943H8.28a.722.722 0 0 0-.722.723v8.22a2.3 2.3 0 0 0 2.297 2.297h10.053a2.3 2.3 0 0 0 2.297-2.297v-8.22a.723.723 0 0 0-.723-.723Z" mask="url(#f)"/></g><g><mask id="h" fill="#fff"><use xlink:href="#g"/></mask><path fill="#FFF" fill-rule="nonzero" d="M12.707 14.287h4.348v-1.444h-4.348z" mask="url(#h)"/></g><g transform="translate(37 6.695)"><mask id="j" fill="#fff"><use xlink:href="#i"/></mask><path fill="#000" fill-rule="nonzero" d="M4.534 0 2.407.636 2.393.64V3.39H0V5.46h2.393v6.532c0 1.332.326 2.264.995 2.851.605.532 1.49.791 2.728.791.484 0 1.021-.039 1.617-.118l.016-.002v-1.921H7.73l-.306.015c-1.242.058-2.063.096-2.506-.326-.262-.25-.384-.66-.384-1.29V5.46h3.215V3.39H4.534V0Z" mask="url(#j)"/></g><g transform="translate(46.597 9.773)"><mask id="l" fill="#fff"><use xlink:href="#k"/></mask><path fill="#000" fill-rule="nonzero" d="M6.401 10.685c-1.198 0-2.218-.413-3.033-1.227-.826-.85-1.227-1.858-1.227-3.081 0-1.231.4-2.232 1.227-3.058.807-.83 1.827-1.25 3.033-1.25 1.239 0 2.239.408 3.057 1.25.826.826 1.227 1.827 1.227 3.058 0 1.223-.401 2.23-1.227 3.08-.826.826-1.826 1.228-3.057 1.228Zm4.284-8.336C9.648.79 8.117 0 6.135 0c-1.69 0-3.151.628-4.34 1.867C.602 3.106 0 4.623 0 6.377 0 8.146.603 9.67 1.794 10.91c1.175 1.223 2.636 1.844 4.34 1.844 1.983 0 3.513-.79 4.551-2.35v2.035h2.141V.314h-2.14v2.035Z" mask="url(#l)"/></g><g transform="translate(37 4.526)"><mask id="n" fill="#fff"><use xlink:href="#m"/></mask><path fill="#000" fill-rule="nonzero" d="M25.698 17.686h2.14V0h-2.14z" mask="url(#n)"/></g><g transform="translate(37 4.526)"><mask id="p" fill="#fff"><use xlink:href="#o"/></mask><path fill="#000" fill-rule="nonzero" d="m41.202 5.592.031-.032h-2.76l-5.195 5.316V.726h-2.14v16.96h2.14v-5.703l5.48 5.697.005.006h2.663l-5.99-6.256z" mask="url(#p)"/></g><g transform="translate(37 4.526)"><mask id="r" fill="#fff"><use xlink:href="#q"/></mask><path fill="#000" fill-rule="nonzero" d="M52.403 15.932c-1.198 0-2.218-.413-3.033-1.227-.826-.85-1.227-1.859-1.227-3.082 0-1.23.401-2.231 1.227-3.057.807-.83 1.827-1.251 3.033-1.251 1.24 0 2.239.409 3.057 1.251.826.826 1.228 1.826 1.228 3.057 0 1.223-.402 2.231-1.228 3.082-.826.825-1.826 1.227-3.057 1.227Zm4.285-8.336c-1.038-1.56-2.57-2.35-4.551-2.35-1.69 0-3.15.629-4.34 1.867-1.191 1.24-1.795 2.757-1.795 4.51 0 1.77.604 3.295 1.794 4.534C48.971 17.38 50.432 18 52.137 18c1.982 0 3.513-.79 4.55-2.35v2.036h2.141V.726h-2.14v6.87Z" mask="url(#r)"/></g><g transform="translate(37 4.526)"><mask id="t" fill="#fff"><use xlink:href="#s"/></mask><path fill="#000" fill-rule="nonzero" d="M64.244 5.56h-2.142v12.126h2.142V11.26c0-1.326.36-2.262 1.104-2.862.743-.599 1.609-.866 2.647-.817h.02V5.343h-.02c-1.781 0-3.044.735-3.751 2.185V5.56Z" mask="url(#t)"/></g><g transform="translate(37 4.526)"><mask id="v" fill="#fff"><use xlink:href="#u"/></mask><path fill="#000" fill-rule="nonzero" d="M71.236.532c-.798 0-1.446.648-1.446 1.445 0 .783.648 1.42 1.446 1.42.783 0 1.42-.637 1.42-1.42 0-.797-.637-1.445-1.42-1.445" mask="url(#v)"/></g><g transform="translate(37 4.526)"><mask id="x" fill="#fff"><use xlink:href="#w"/></mask><path fill="#000" fill-rule="nonzero" d="M70.153 17.686h2.14V5.561h-2.14z" mask="url(#x)"/></g><g transform="translate(37 4.526)"><mask id="z" fill="#fff"><use xlink:href="#y"/></mask><path fill="#000" fill-rule="nonzero" d="m80.277 15.367-3.779-9.795-.004-.011H74.18l4.845 12.113.005.012h2.49l4.84-12.1.01-.025H84.06z" mask="url(#z)"/></g><g transform="translate(37 4.526)"><mask id="B" fill="#fff"><use xlink:href="#A"/></mask><path fill="#000" fill-rule="nonzero" d="M93.67 7.266c2.042 0 3.524 1.328 3.87 3.468h-8.031c.374-2.14 1.967-3.468 4.16-3.468m4.342-.127c-1.11-1.256-2.571-1.893-4.341-1.893-1.859 0-3.4.612-4.583 1.82-1.175 1.197-1.77 2.73-1.77 4.557 0 1.825.603 3.367 1.794 4.583C90.327 17.396 91.91 18 93.815 18c2.35 0 4.146-.922 5.334-2.74l.01-.017-1.806-1.025-.015-.009-.01.015c-.713 1.166-1.88 1.756-3.465 1.756-2.315 0-3.94-1.26-4.354-3.371h10.124l.002-.016c.049-.314.073-.632.073-.946 0-1.77-.571-3.287-1.697-4.508" mask="url(#B)"/></g></g></svg>