<svg xmlns="http://www.w3.org/2000/svg" width="144" height="36"><g fill="none" fill-rule="evenodd"><path fill="#FF5442" d="M22.818 10C25.676 10 28 12.346 28 15.23c0 1.468-.614 2.971-1.604 3.93l-7 7.435a1.19 1.19 0 0 1-1.79.002l-7.041-7.421C9.585 18.238 9 16.763 9 15.23 9 12.346 11.324 10 14.182 10c1.801 0 3.394.928 4.318 2.36A5.125 5.125 0 0 1 22.818 10Z" opacity=".3"/><g transform="translate(36)"><circle cx="18" cy="18" r="18" fill="#000" fill-opacity=".04"/><path fill="#FF5442" d="M22.818 10C25.676 10 28 12.346 28 15.23c0 1.468-.614 2.971-1.604 3.93l-7 7.435a1.19 1.19 0 0 1-1.79.002l-7.041-7.421C9.585 18.238 9 16.763 9 15.23 9 12.346 11.324 10 14.182 10c1.801 0 3.394.928 4.318 2.36A5.125 5.125 0 0 1 22.818 10Z" opacity=".3"/></g><path fill="#FF5442" d="M94.818 10c2.858 0 5.182 2.346 5.182 5.23 0 1.468-.614 2.971-1.604 3.93l-7 7.435a1.19 1.19 0 0 1-1.79.002l-7.041-7.421C81.585 18.238 81 16.763 81 15.23 81 12.346 83.324 10 86.182 10c1.801 0 3.394.928 4.318 2.36A5.125 5.125 0 0 1 94.818 10Z" opacity=".1"/><g transform="translate(108)"><circle cx="18" cy="18" r="18" fill="#000" opacity=".02"/><path fill="#FF5442" d="M22.818 10C25.676 10 28 12.346 28 15.23c0 1.468-.614 2.971-1.604 3.93l-7 7.435a1.19 1.19 0 0 1-1.79.002l-7.041-7.421C9.585 18.238 9 16.763 9 15.23 9 12.346 11.324 10 14.182 10c1.801 0 3.394.928 4.318 2.36A5.125 5.125 0 0 1 22.818 10Z" opacity=".3"/></g></g></svg>