<svg xmlns="http://www.w3.org/2000/svg" width="144" height="36"><g fill="#000" fill-rule="evenodd"><path d="M22.818 10a5.125 5.125 0 0 0-4.318 2.36A5.125 5.125 0 0 0 14.182 10C11.324 10 9 12.346 9 15.23c0 1.533.585 3.008 1.565 3.946l7.041 7.421a1.192 1.192 0 0 0 1.79-.002l7-7.436c.99-.958 1.604-2.461 1.604-3.928C28 12.346 25.676 10 22.818 10m-.068 1c2.347 0 4.25 1.92 4.25 4.286 0 1.224-.514 2.476-1.33 3.257l-6.918 7.34A.325.325 0 0 1 18.5 26a.325.325 0 0 1-.252-.117l-6.973-7.34C10.459 17.762 10 16.51 10 15.286 10 12.919 11.903 11 14.25 11c2.205 0 3.996 1.699 4.208 3.866a.33.33 0 0 1 .084 0C18.754 12.699 20.545 11 22.75 11"/><g transform="translate(36)"><circle cx="18" cy="18" r="18" fill-opacity=".04"/><path d="M22.818 10a5.125 5.125 0 0 0-4.318 2.36A5.125 5.125 0 0 0 14.182 10C11.324 10 9 12.346 9 15.23c0 1.533.585 3.008 1.565 3.946l7.041 7.421a1.192 1.192 0 0 0 1.79-.002l7-7.436c.99-.958 1.604-2.461 1.604-3.928C28 12.346 25.676 10 22.818 10m-.068 1c2.347 0 4.25 1.92 4.25 4.286 0 1.224-.514 2.476-1.33 3.257l-6.918 7.34A.325.325 0 0 1 18.5 26a.325.325 0 0 1-.252-.117l-6.973-7.34C10.459 17.762 10 16.51 10 15.286 10 12.919 11.903 11 14.25 11c2.205 0 3.996 1.699 4.208 3.866a.33.33 0 0 1 .084 0C18.754 12.699 20.545 11 22.75 11"/></g><path d="M94.818 10a5.125 5.125 0 0 0-4.318 2.36A5.125 5.125 0 0 0 86.182 10C83.324 10 81 12.346 81 15.23c0 1.533.585 3.008 1.565 3.946l7.041 7.421a1.192 1.192 0 0 0 1.79-.002l7-7.436c.99-.958 1.604-2.461 1.604-3.928C100 12.346 97.676 10 94.818 10m-.068 1c2.347 0 4.25 1.92 4.25 4.286 0 1.224-.514 2.476-1.33 3.257l-6.918 7.34A.325.325 0 0 1 90.5 26a.325.325 0 0 1-.252-.117l-6.973-7.34C82.459 17.762 82 16.51 82 15.286 82 12.919 83.903 11 86.25 11c2.205 0 3.996 1.699 4.208 3.866a.33.33 0 0 1 .084 0C90.754 12.699 92.545 11 94.75 11" opacity=".3"/><g transform="translate(108)"><circle cx="18" cy="18" r="18" opacity=".02"/><path d="M22.818 10a5.125 5.125 0 0 0-4.318 2.36A5.125 5.125 0 0 0 14.182 10C11.324 10 9 12.346 9 15.23c0 1.533.585 3.008 1.565 3.946l7.041 7.421a1.192 1.192 0 0 0 1.79-.002l7-7.436c.99-.958 1.604-2.461 1.604-3.928C28 12.346 25.676 10 22.818 10m-.068 1c2.347 0 4.25 1.92 4.25 4.286 0 1.224-.514 2.476-1.33 3.257l-6.918 7.34A.325.325 0 0 1 18.5 26a.325.325 0 0 1-.252-.117l-6.973-7.34C10.459 17.762 10 16.51 10 15.286 10 12.919 11.903 11 14.25 11c2.205 0 3.996 1.699 4.208 3.866a.33.33 0 0 1 .084 0C18.754 12.699 20.545 11 22.75 11"/></g></g></svg>