<svg xmlns="http://www.w3.org/2000/svg" width="144" height="36"><g fill="none" fill-rule="evenodd"><g opacity=".3"><path fill="#000" d="M18 11h1v12h-1z"/><path fill="#000" d="m18.51 9.99-6.364 6.364.707.707 6.364-6.364z"/><path fill="#000" d="m18.322 9.99 6.364 6.364-.707.707-6.364-6.364z"/><path stroke="#000" d="M10.5 22v4.5h16V22"/></g><g transform="translate(36)"><circle cx="18" cy="18" r="18" fill="#000" fill-opacity=".04"/><g opacity=".3"><path fill="#000" d="M18 11h1v12h-1z"/><path fill="#000" d="m18.51 9.99-6.364 6.364.707.707 6.364-6.364z"/><path fill="#000" d="m18.322 9.99 6.364 6.364-.707.707-6.364-6.364z"/><path stroke="#000" d="M10.5 22v4.5h16V22"/></g></g><g opacity=".1"><path fill="#000" d="M90 11h1v12h-1z"/><path fill="#000" d="m90.51 9.99-6.364 6.364.707.707 6.364-6.364z"/><path fill="#000" d="m90.322 9.99 6.364 6.364-.707.707-6.364-6.364z"/><path stroke="#000" d="M82.5 22v4.5h16V22"/></g><g transform="translate(108)"><circle cx="18" cy="18" r="18" fill="#000" opacity=".02"/><g opacity=".3"><path fill="#000" d="M18 11h1v12h-1z"/><path fill="#000" d="m18.51 9.99-6.364 6.364.707.707 6.364-6.364z"/><path fill="#000" d="m18.322 9.99 6.364 6.364-.707.707-6.364-6.364z"/><path stroke="#000" d="M10.5 22v4.5h16V22"/></g></g></g></svg>