<svg xmlns="http://www.w3.org/2000/svg" width="178" height="119"><g fill="none" fill-rule="evenodd"><path d="M0 0h178v119H0z"/><path fill="#EE9F3F" d="M105.782 79.28c-2.193 1.792-5.133 4.195-10.435 3.858-5.63-.359-9.81-4.012-12.841-7.394-2.97-3.315-2.596-7.216-.395-9.552 2.432-2.582 6.22-1.97 8.952.27 3.02 2.476 4.748 4.154 5.528 4.217 1.075-.19 2.029-1.74 5.23-4.632 3.856-3.484 6.09-3.842 9.252-3.842 3.71 0 7.773 3.407 10.232 8.292 2.543 5.051 3.834 10.206 3.834 17.036 0 4.237-.817 7.21-2.006 9.78-1.855 4.006-5.167 6.663-10.246 8.134-4.272 1.237-6.719 1.481-11.68 2.615-4.462 1.02-11.035 1.469-12.104-3.354-.614-2.77.618-5.504 3.282-7.057 4.087-2.38 6.989-3.224 12.554-4.331"/><path fill="#EE9F3F" d="M86.202 68.218s-9.428 4.175-12.621 12.577c-1.791 4.713-1.27 8.693 2.322 9.94 3.652 1.268 6.722-.058 9.149-4.513 2.65-4.864 5.982-8.079 10.538-9.784"/><path stroke="#0F1216" stroke-linecap="round" stroke-linejoin="round" stroke-width="1.89" d="M86.202 68.218s-9.428 4.175-12.621 12.577c-1.791 4.713-1.27 8.693 2.322 9.94 3.652 1.268 6.722-.058 9.149-4.513 2.65-4.864 5.982-8.079 10.538-9.784"/><path fill="#FFFFFE" d="M104.776 93.563s-3.712.94-5.406 1.402c-3.59.98-8.738-.922-9.269-9.274-.531-8.353 8.604-8.341 11.566-8.341 2.077 0 5.153 2.56 5.609 7.618.304 3.378-.474 6.406-2.5 8.595"/><path fill="#F4C5C4" d="M51.262 90.332s-.019 5.72-.02 7.501c0 2.502.24 4.694 2.743 6.273 2.622 1.653 7.907 3.771 18.18 4.026 9.446.234 17.717-.255 21.014-3.602 1.96-1.99 2.742-3.503 2.749-5.468.014-4.355.084-8.73.084-8.73h-44.75Z"/><path stroke="#0F1216" stroke-linecap="round" stroke-linejoin="round" stroke-width="1.89" d="M51.262 90.332s-.019 5.72-.02 7.501c0 2.502.24 4.694 2.743 6.273 2.622 1.653 7.907 3.771 18.18 4.026 9.446.234 17.717-.255 21.014-3.602 1.96-1.99 2.742-3.503 2.749-5.468.014-4.355.084-8.73.084-8.73h-44.75Z"/><path fill="#FFFFFE" d="M49.602 94.785c1.075.744 2.457.942 3.902.187 1.704-.89 2.053-2.842 3.897-2.931 1.779-.086 2.173 1.111 2.89 2.426.716 1.314 2.918 2.19 4.645 1.031 1.173-.787 2.345-.85 3.835.524 1.68 1.55 2.857 2.794 5.831 2.634 2.534-.136 4.49-1.785 6.664-2.498.579-.19 1.417-.29 2.017-.282 4.31.063 4.722 3.651 9.38 3.651 5.26 0 5.872-5.6 6.02-7.775.19-2.801-.538-8.058-6.369-10.293-5.83-2.235-9.057-1.024-12.226-1.118-3.169-.094-6.43-2.258-12.743-.949-6.781 1.406-8.651-.213-13.145 1.586-3.234 1.294-6.153 3.975-6.641 7.627-.372 2.775.4 5.043 2.043 6.18"/><path stroke="#040605" stroke-linecap="round" stroke-linejoin="round" stroke-width="1.89" d="M49.602 94.785c1.075.744 2.457.942 3.902.187 1.704-.89 2.053-2.842 3.897-2.931 1.779-.086 2.173 1.111 2.89 2.426.716 1.314 2.918 2.19 4.645 1.031 1.173-.787 2.345-.85 3.835.524 1.68 1.55 2.857 2.794 5.831 2.634 2.534-.136 4.49-1.785 6.664-2.498.579-.19 1.417-.29 2.017-.282 4.31.063 4.722 3.651 9.38 3.651 5.26 0 5.872-5.6 6.02-7.775.19-2.801-.538-8.058-6.369-10.293-5.83-2.235-9.057-1.024-12.226-1.118-3.169-.094-6.43-2.258-12.743-.949-6.781 1.406-8.651-.213-13.145 1.586-3.234 1.294-6.153 3.975-6.641 7.627-.372 2.775.4 5.043 2.043 6.18Z"/><path fill="#F4C5C4" d="M72.818 79.88c0 1.07-1.167 1.91-2.448 1.785-1.035-.102-1.94-.7-1.862-1.929.066-1.068.942-1.845 2.256-1.845 1.15 0 2.054.918 2.054 1.988"/><path stroke="#0F1216" stroke-linecap="round" stroke-linejoin="round" stroke-width="1.89" d="M72.818 79.88c0 1.07-1.167 1.91-2.448 1.785-1.035-.102-1.94-.7-1.862-1.929.066-1.068.942-1.845 2.256-1.845 1.15 0 2.054.918 2.054 1.988Z"/><path fill="#F4C5C4" d="M81.988 86.878c0 1.068-.921 1.945-2.08 1.82-.938-.103-1.796-.702-1.686-1.925.078-.871.688-1.742 1.818-1.842 1.17-.103 1.948.741 1.948 1.947"/><path stroke="#0F1216" stroke-linecap="round" stroke-linejoin="round" stroke-width="1.89" d="M81.988 86.878c0 1.068-.921 1.945-2.08 1.82-.938-.103-1.796-.702-1.686-1.925.078-.871.688-1.742 1.818-1.842 1.17-.103 1.948.741 1.948 1.947Z"/><path fill="#F4C5C4" d="M93.855 92.277c0 1.067-.93 2.004-2.082 1.817-1.057-.17-1.808-1.038-1.68-2.065.117-.926.875-1.697 1.813-1.697 1.175 0 1.949.863 1.949 1.945"/><path stroke="#0F1216" stroke-linecap="round" stroke-linejoin="round" stroke-width="1.89" d="M93.855 92.277c0 1.067-.93 2.004-2.082 1.817-1.057-.17-1.808-1.038-1.68-2.065.117-.926.875-1.697 1.813-1.697 1.175 0 1.949.863 1.949 1.945Z"/><path fill="#F4C5C4" d="M64.188 87.947c0 1.067-.924 2.014-2.086 1.818-.884-.148-1.695-.69-1.69-1.923.004-.826.675-1.756 1.629-1.831 1.085-.086 2.147.73 2.147 1.936"/><path stroke="#0F1216" stroke-linecap="round" stroke-linejoin="round" stroke-width="1.89" d="M64.188 87.947c0 1.067-.924 2.014-2.086 1.818-.884-.148-1.695-.69-1.69-1.923.004-.826.675-1.756 1.629-1.831 1.085-.086 2.147.73 2.147 1.936Z"/><path fill="#86B2CB" d="M112.194 24.567c.02 1.728-4.112 2.874-9.793.896-6.022-2.096-9.501-4.626-9.046-5.849.409-1.097 13.955-13.18 15.107-14.072 1.153-.89 1.857-1.127 2.345.725.488 1.85 1.306 11.216 1.387 18.3"/><path fill="#FFFFFE" d="M112.194 15.31c0 2.554 0 3.635-.118 5.245-1.423-2.905-6.125-7.606-9.591-9.982 1.055-.89 2.076-1.736 2.973-2.46 3.29 2.388 5.594 4.63 6.736 7.198M108.958 23.8c-1.59-.275-3.2-.578-4.746-.888-2.183-3.338-4.886-5.779-7.121-7.42.853-.76 1.828-1.623 2.841-2.51 3.013 2.315 6.573 5.844 9.026 10.818"/><path stroke="#0F1216" stroke-linecap="round" stroke-linejoin="round" stroke-width="1.89" d="M112.194 27.313c.02 1.713-4.112.484-9.793-1.477-6.022-2.08-9.501-4.588-9.046-5.802.409-1.087 13.955-13.073 15.107-13.956 1.153-.883 1.857-1.118 2.345.718.488 1.836 1.306 13.491 1.387 20.517Z"/><path fill="#FFFFFE" d="M113.002 3.464c-.624-1.526-2.336-2.247-3.827-1.61-1.49.639-2.283 2.304-1.57 3.92.664 1.507 2.513 2.225 3.981 1.535 1.597-.75 2.039-2.319 1.416-3.845"/><path stroke="#0F1216" stroke-linecap="round" stroke-linejoin="round" stroke-width="1.89" d="M113.002 3.464c-.624-1.526-2.336-2.247-3.827-1.61-1.49.639-2.283 2.304-1.57 3.92.664 1.507 2.513 2.225 3.981 1.535 1.597-.75 2.039-2.319 1.416-3.845Z"/><path fill="#EE9F3F" d="M66.56 35.64c-2.967-.962-6.698-6.782-2.174-10.913 3.612-3.297 9.461-1.31 10.72 1.113"/><path stroke="#0F1216" stroke-linecap="round" stroke-linejoin="round" stroke-width="1.89" d="M66.56 35.64c-2.967-.962-6.698-6.782-2.174-10.913 3.612-3.297 9.461-1.31 10.72 1.113"/><path fill="#EE9F3F" d="M90.533 19.032c-9.916.694-16.66 4.744-21.472 11.012-3.855 5.02-5.413 11.015-5.413 16.946 0 4.848 2.067 10.592 5.31 14.704 5.027 6.38 14.248 10.04 23.596 9.682 8.773-.336 13.265-2.238 19.855-7.953 7.452-6.462 8.514-18.012 6.335-25.632-1.465-5.124-4.337-10.112-9.048-13.748-3.715-2.867-9.562-5.683-19.163-5.01"/><path stroke="#0F1216" stroke-linecap="round" stroke-linejoin="round" stroke-width="1.89" d="M90.533 19.032c-9.916.694-16.66 4.744-21.472 11.012-3.855 5.02-5.413 11.015-5.413 16.946 0 4.848 2.067 10.592 5.31 14.704 5.027 6.38 14.248 10.04 23.596 9.682 8.773-.336 13.265-2.238 19.855-7.953 7.452-6.462 8.514-18.012 6.335-25.632-1.465-5.124-4.337-10.112-9.048-13.748-3.715-2.867-9.562-5.683-19.163-5.01Z"/><path fill="#0F1216" d="M103.513 40.947a1.887 1.887 0 1 1-3.675.865 1.887 1.887 0 1 1 3.675-.865M81.938 45.815a1.888 1.888 0 1 1-3.675.865 1.887 1.887 0 1 1 3.675-.865M96.415 35.906s4.157-1.073 9.114-1.95"/><path stroke="#040605" stroke-linecap="round" stroke-linejoin="round" stroke-width="2.43" d="M96.415 35.906s4.157-1.073 9.114-1.95"/><path fill="#FFFFFE" d="M90.958 49.741c-3.919-.41-6.168 2.305-5.854 4.758.256 2.002 2.425 3.55 4.55 3.246 2.294-.327 3.466-1.83 3.7-3.298.77 1.275 2.147 2.042 4.398 1.49 2.083-.51 3.516-2.208 3.097-4.63-.421-2.437-3.656-4.678-7.523-2.024l-1.075.785"/><path stroke="#040605" stroke-linecap="round" stroke-linejoin="round" stroke-width="1.89" d="M90.958 49.741c-3.919-.41-6.168 2.305-5.854 4.758.256 2.002 2.425 3.55 4.55 3.246 2.294-.327 3.466-1.83 3.7-3.298.77 1.275 2.147 2.042 4.398 1.49 2.083-.51 3.516-2.208 3.097-4.63-.421-2.437-3.656-4.678-7.523-2.024l-1.075.785"/><path fill="#0F1216" d="M73.181 41.336s4.157-1.288 9.114-2.34"/><path stroke="#040605" stroke-linecap="round" stroke-linejoin="round" stroke-width="2.43" d="M73.181 41.336s4.157-1.288 9.114-2.34"/><path fill="#0F1216" d="M89.544 49.157c.06.918 1.822 2.478 3.01 2.196 1.067-.253 1.96-2.076 1.827-3.324-.157-1.457-5.006-1.42-4.837 1.128"/><path fill="#FFFFFE" d="M105.666 51.967c-1.498-.243-2.47.66-2.618 1.832-.272 2.15 1.86 2.928 3.293 2.175 1.559-.819 1.26-3.693-.675-4.007"/><path stroke="#040605" stroke-linecap="round" stroke-linejoin="round" stroke-width="1.89" d="M105.666 51.967c-1.498-.243-2.47.66-2.618 1.832-.272 2.15 1.86 2.928 3.293 2.175 1.559-.819 1.26-3.693-.675-4.007Z"/><path fill="#FFFFFE" d="M101.142 57.367c-.43.092-.754.453-.81.974a1.059 1.059 0 0 0 1.16 1.156c.747-.054 1.182-.82.913-1.49-.212-.528-.706-.76-1.263-.64"/><path stroke="#040605" stroke-linecap="round" stroke-linejoin="round" stroke-width="1.89" d="M101.142 57.367c-.43.092-.754.453-.81.974a1.059 1.059 0 0 0 1.16 1.156c.747-.054 1.182-.82.913-1.49-.212-.528-.706-.76-1.263-.64Z"/><path fill="#FFFFFE" d="M79.509 54.09c-.561 0-1.13.392-1.266 1.049-.189.91.516 1.606 1.315 1.654.788.046 1.413-.563 1.346-1.442-.064-.833-.719-1.26-1.395-1.26"/><path stroke="#040605" stroke-linecap="round" stroke-linejoin="round" stroke-width="1.89" d="M79.509 54.09c-.561 0-1.13.392-1.266 1.049-.189.91.516 1.606 1.315 1.654.788.046 1.413-.563 1.346-1.442-.064-.833-.719-1.26-1.395-1.26Z"/><path fill="#EE9F3F" d="M124.06 78.664c-.637-2.914-1.614-5.526-2.925-8.147-2.449-4.897-6.494-8.312-10.19-8.312-3.148 0-5.373.359-9.213 3.85-3.188 2.9-4.138 4.454-5.209 4.644-.776-.064-2.497-1.745-5.505-4.228-2.72-2.244-6.492-2.858-8.914-.27-2.192 2.342-2.564 6.252.393 9.574 3.018 3.39 7.181 7.053 12.788 7.412 5.28.338 8.208-2.07 10.392-3.867l4.429 5.603"/><path fill="#EE9F3F" d="m111.409 87.026-6.441 6.431c-5.558 1.097-8.455 1.934-12.536 4.293-2.66 1.539-3.89 4.249-3.277 6.994 1.067 4.78 7.63 4.335 12.087 3.325 4.953-1.125 7.397-1.366 11.663-2.593 5.072-1.457 8.379-4.091 10.23-8.062 1.188-2.547 2.004-5.493 2.004-9.692 0-3.686-.382-6.879-1.14-9.831"/><path stroke="#040605" stroke-linecap="round" stroke-linejoin="round" stroke-width="1.89" d="M105.782 79.28c-2.193 1.792-5.133 4.195-10.435 3.858-5.63-.359-9.81-4.012-12.841-7.394-2.97-3.315-2.596-7.216-.395-9.552 2.432-2.582 6.22-1.97 8.952.27 3.02 2.476 4.748 4.154 5.528 4.217 1.075-.19 2.029-1.74 5.23-4.632 3.856-3.484 6.09-3.842 9.252-3.842 3.71 0 7.773 3.407 10.232 8.292 2.543 5.051 3.834 10.206 3.834 17.036 0 4.237-.817 7.21-2.006 9.78-1.855 4.006-5.167 6.663-10.246 8.134-4.272 1.237-6.719 1.481-11.68 2.615-4.462 1.02-11.035 1.469-12.104-3.354-.614-2.77.618-5.504 3.282-7.057 4.087-2.38 6.989-3.224 12.554-4.331"/><path fill="#FFFFFE" d="M82.379 61.422c-2.376 1.02-4.437 4.027-4.659 7.073-.153 2.11.061 3.606.7 4.915.64 1.307 1.543 2.035 2.152 3.543.353.873.764 1.982 1.63 2.62.909.67 2.582.778 3.256-.574.652-1.31-.374-2.552.061-3.835.171-.504.62-.887 1.145-.993.782-.158 1.47.054 2.274-.07 1.402-.215 2.525-1.222 2.24-3.56-.301-2.457 1.512-1.816 2.33-3.43.708-1.398.49-3.155-2.16-4.858-3.084-1.981-5.954-2.125-8.97-.83"/><path stroke="#040605" stroke-linecap="round" stroke-linejoin="round" stroke-width="1.89" d="M82.379 61.422c-2.376 1.02-4.437 4.027-4.659 7.073-.153 2.11.061 3.606.7 4.915.64 1.307 1.543 2.035 2.152 3.543.353.873.764 1.982 1.63 2.62.909.67 2.582.778 3.256-.574.652-1.31-.374-2.552.061-3.835.171-.504.62-.887 1.145-.993.782-.158 1.47.054 2.274-.07 1.402-.215 2.525-1.222 2.24-3.56-.301-2.457 1.512-1.816 2.33-3.43.708-1.398.49-3.155-2.16-4.858-3.084-1.981-5.954-2.125-8.97-.83Z"/><path fill="#E3D374" d="M58.279 75.918a1.42 1.42 0 0 1 .418-.818c.417-.416 1.134-.747 2.115-.892 1.088-.16 1.692-.116 2.176.004.495.124.782.398.948.727.199.396.146.773.09.999-.093.374-.313.598-.334 1-.034.642.352 3.128.48 4.071.101.755-.223 1.38-2.354 1.693-1.108.162-2.222.03-2.34-1.062-.123-1.14-.386-3.358-.52-3.848-.08-.296-.365-.507-.545-.877a1.632 1.632 0 0 1-.134-.997"/><path fill="#FFFFFE" d="M63.648 77.161c-.077-.1-.06-.618-.016-1.434-.484.7-2.136 1.995-4.838 2.542 0 0 .144.761.21 1.245 1.242-.176 3.177-.635 4.644-2.353M64.188 78.933c0-.28-.068-.637-.167-1.042-.33.335-2.27 2.225-5.227 2.626 0 0 .046.71.11 1.16 1.18-.164 4.068-.955 5.284-2.744"/><path stroke="#0F1216" stroke-linecap="round" stroke-linejoin="round" stroke-width="1.89" d="M58.279 75.918a1.42 1.42 0 0 1 .418-.818c.417-.416 1.134-.747 2.115-.892 1.088-.16 1.692-.116 2.176.004.495.124.782.398.948.727.199.396.146.773.09.999-.093.374-.313.598-.334 1-.034.642.352 3.128.48 4.071.101.755-.223 1.38-2.354 1.693-1.108.162-2.222.03-2.34-1.062-.123-1.14-.386-3.358-.52-3.848-.08-.296-.365-.507-.545-.877a1.632 1.632 0 0 1-.134-.997Z"/><path fill="#AD292E" d="M59.626 66.532s-2.256 2.853-1.865 5.466c.356 2.383 1.906 2.739 2.915 2.63 1.01-.109 2.71-1.057 2.395-3.176-.385-2.581-3.445-4.92-3.445-4.92"/><path stroke="#0F1216" stroke-linecap="round" stroke-linejoin="round" stroke-width="1.89" d="M59.626 66.532s-2.256 2.853-1.865 5.466c.356 2.383 1.906 2.739 2.915 2.63 1.01-.109 2.71-1.057 2.395-3.176-.385-2.581-3.445-4.92-3.445-4.92Z"/><path fill="#F3B229" d="M60.437 70.318s-.671 1.136-.55 2.182c.112.954.577 1.099.88 1.057.302-.04.81-.416.711-1.264-.12-1.033-1.041-1.975-1.041-1.975"/><path fill="#FFFFFE" d="M69.582 68.155c-1.1 0-2.158.694-2.158 2.124 0 1.611 1.167 2.197 2.21 2.203.776.004 2.21-.479 2.1-2.29-.071-1.165-1.118-2.037-2.152-2.037"/><path stroke="#040605" stroke-linecap="round" stroke-linejoin="round" stroke-width="1.89" d="M69.582 68.155c-1.1 0-2.158.694-2.158 2.124 0 1.611 1.167 2.197 2.21 2.203.776.004 2.21-.479 2.1-2.29-.071-1.165-1.118-2.037-2.152-2.037Z"/><path fill="#FFFFFE" d="M52.204 61.664c-1.17 0-1.96.707-2.2 1.456-.31.976 0 1.404-.205 2.016-.229.68-.325 1.688.303 2.585.74 1.055 2.297 2.47 4.312 1.942 1.79-.469 2.827-2.575 1.841-4.496-.986-1.92-2.218-3.503-4.051-3.503"/><path stroke="#040605" stroke-linecap="round" stroke-linejoin="round" stroke-width="1.89" d="M52.204 61.664c-1.17 0-1.96.707-2.2 1.456-.31.976 0 1.404-.205 2.016-.229.68-.325 1.688.303 2.585.74 1.055 2.297 2.47 4.312 1.942 1.79-.469 2.827-2.575 1.841-4.496-.986-1.92-2.218-3.503-4.051-3.503Z"/><path fill="#FFFFFE" d="M48.587 54.642c-.97.097-1.615.819-1.658 1.777-.063 1.452 1.294 2.11 2.222 1.984.986-.135 1.88-1.228 1.434-2.522-.267-.776-1.058-1.332-1.998-1.239"/><path stroke="#040605" stroke-linecap="round" stroke-linejoin="round" stroke-width="1.89" d="M48.587 54.642c-.97.097-1.615.819-1.658 1.777-.063 1.452 1.294 2.11 2.222 1.984.986-.135 1.88-1.228 1.434-2.522-.267-.776-1.058-1.332-1.998-1.239Z"/></g></svg>