<svg xmlns="http://www.w3.org/2000/svg" width="17" height="16"><path fill="#000" fill-rule="evenodd" d="M12.3 7.173c.216 0 .467.036.683.071-.54.46-.935.813-1.042.919-.108.035-.18.106-.18.212s.108.212.216.212c.107 0 .18-.07.215-.142a17.18 17.18 0 0 1 1.15-1.13c.576.141 1.115.459 1.546.883-1.222.565-2.588 1.307-2.804 1.413-.107 0-.18.071-.215.177-.036.106.036.212.144.248.071.035.18 0 .215-.071.79-.53 1.941-1.13 2.876-1.555.287.283.503.636.683 1.025-1.115.353-2.193.742-2.337.777-.108 0-.215.036-.251.142-.072.106 0 .247.107.282.108.036.18.036.252-.035.647-.318 1.51-.636 2.337-.883.143.388.215.812.215 1.272 0 2.084-1.725 3.78-3.81 3.78-.252 0-.503-.035-.755-.07-.827.318-1.402.495-1.402.495v-.036c-.503.248-1.042.424-1.653.424-.575 0-1.15-.176-1.654-.424v.036s-.575-.212-1.401-.495c-.252.035-.504.07-.755.07a3.787 3.787 0 0 1-3.81-3.78c0-.46.072-.884.215-1.272.827.247 1.69.565 2.337.883.072.035.18.07.251.035.108-.035.144-.176.108-.282-.036-.106-.144-.177-.251-.142-.144-.07-1.223-.424-2.337-.777.18-.389.396-.707.683-1.025.97.46 2.12 1.025 2.876 1.555.036.07.144.106.215.07.108 0 .18-.14.144-.247-.036-.106-.108-.177-.215-.177a51.552 51.552 0 0 0-2.804-1.413 3.916 3.916 0 0 1 1.545-.883c.432.388.827.777 1.15 1.13.037.071.109.142.216.142.108 0 .216-.106.216-.212s-.072-.177-.18-.212a29.11 29.11 0 0 0-1.042-.919c.216-.035.431-.07.683-.07.719 0 1.402.211 1.977.565a.532.532 0 0 0-.36.494c0 .318.252.566.54.566l.179.048c.802.247 1.122.821 1.222 1.118.036.035.036.07.036.106l.001.013c.009.099.055.759-.145 1.118-.215.353-1.006 1.06-1.94 1.024a21.29 21.29 0 0 1-1.762-.141h-.072l-.06.025c-.073.04-.12.102-.12.187 0 .106.108.212.216.212h.036c.083.017.72.14 1.797.106.97-.035 1.941-.6 2.265-.954.323.389 1.258.919 2.264.954 1.15.035 1.798-.106 1.798-.106h.036c.107 0 .215-.106.215-.212s-.072-.212-.18-.212h-.071c-.252.035-.97.106-1.762.141-.934.036-1.725-.636-1.94-1.024-.216-.39-.144-1.131-.144-1.131l.025-.035c.01-.024.01-.048.01-.071.144-.283.468-.919 1.402-1.166l.085-.008a.592.592 0 0 0 .455-.558.532.532 0 0 0-.36-.494 3.786 3.786 0 0 1 1.977-.566ZM8.49.141c3.235.036 5.823 2.65 5.823 5.866v.177l-.036.353c0 .177-.036.354-.072.53-.108-.07-.251-.106-.36-.176l-.287-.106a3.907 3.907 0 0 0-.97-.212c.071-.071.143-.318.143-.849 0-.989-.43-2.19-1.401-2.473-1.007-.283-1.294-.035-1.294-.035s-1.079.636-1.043 1.978c.072 1.343.575 1.838.575 1.838s.36.283.54.247l-.183.14a4.269 4.269 0 0 0-.5.496c-.252.036-.576.106-.935.142-.36-.036-.683-.071-.935-.142a3.822 3.822 0 0 0-.683-.636l.066.01c.19-.006.474-.257.474-.257s.539-.495.575-1.838c.036-1.342-1.043-1.978-1.043-1.978s-.323-.248-1.294.035c-.97.283-1.366 1.449-1.402 2.473 0 .53.072.743.144.849a4.777 4.777 0 0 0-.97.212l-.288.106a1.691 1.691 0 0 0-.36.176c-.035-.176-.035-.353-.071-.53l-.036-.353v-.177C2.667 2.792 5.29.177 8.49.141ZM6.26 4.806c.655 0 1.187.522 1.187 1.166 0 .644-.532 1.166-1.187 1.166a1.176 1.176 0 0 1-1.186-1.166c0-.644.531-1.166 1.186-1.166Zm4.457 0c.656 0 1.187.522 1.187 1.166 0 .644-.531 1.166-1.187 1.166a1.176 1.176 0 0 1-1.186-1.166c0-.644.531-1.166 1.186-1.166ZM16.83.036c.216.07.18.14.144.635-.072.424-.144 1.52-.072 2.439.072.883-.467 1.908-1.006 2.473a6.456 6.456 0 0 1-1.187.954s.108-1.908-.575-3.286c.108-.283.288-.742.54-1.025 1.078-1.201 1.545-1.484 1.76-1.52.216-.035.288.495.288.495s.216-1.766-2.228.707c-.324.318-.54.636-.683.813-.611-.99-1.366-1.555-1.366-1.555s3.882-1.06 4.385-1.13ZM.187 0C.69.106 4.572 1.13 4.572 1.13l-.029.024c-.14.116-.766.659-1.337 1.532a5.322 5.322 0 0 0-.683-.813C.19-.522.281 1.01.293 1.156l.001.007.012-.063C.33.979.392.73.516.68L.581.67c.216.036.683.318 1.761 1.52.288.283.432.742.54 1.025-.492 1.017-.574 2.273-.581 2.897v.183c.001.131.005.206.005.206s-.647-.389-1.186-.954C.582 4.982.043 3.993.115 3.004.187 2.12.115.989.043.565-.029.141-.029.035.187 0Z"/></svg>