<svg xmlns="http://www.w3.org/2000/svg" width="20" height="18"><path fill="#000" fill-rule="evenodd" d="M19.065 6.166c-.072-.037-.108-.073-.145-.109-.144-.144-.325-.252-.506-.36-1.266-1.048-2.026-2.492-2.315-3.105-.326-1.3-1.556-2.274-3.003-2.274A3.101 3.101 0 0 0 10.6 1.58c-.724.108-1.375.397-1.881.866a3.427 3.427 0 0 0-1.484-.324h-.18a3.086 3.086 0 0 0-1.81-.578c-1.663 0-3.038 1.3-3.11 2.888-.037.505-.29 2.455-1.484 4.223A3.026 3.026 0 0 0 0 10.533c0 1.192.687 2.202 1.7 2.708-.108-.47-.18-1.372-.18-2.635 0-1.841 1.953-2.744 1.953-2.744s.398-.902.434-1.408c.29.65.181 1.48.181 1.48s-1.52.47-2.062 2.275c-.543 1.84.868 3.284.868 3.284l.109.073c.18.144.361.288.542.397 0 0 3.075 2.202 4.16 2.671.037 0 .037.036.037.036a4.025 4.025 0 0 0 2.062.578c.796 0 1.483-.18 2.062-.578l4.016-2.418c1.338-.47 2.279-1.733 2.279-3.177v-.072s.18-2.058-2.207-3.14a272.546 272.546 0 0 0-1.447-3.394s.072-.47.326.036c.542.975 1.519 3.068 1.519 3.068s1.483.397 2.134 1.877c.217.506.362.867.434 1.083a2.917 2.917 0 0 0 .977-2.202 2.853 2.853 0 0 0-.832-2.165ZM11.794 4c.904 0 1.664.722 1.664 1.624 0 .903-.76 1.624-1.664 1.624-.905 0-1.664-.721-1.664-1.624 0-.902.723-1.624 1.664-1.624ZM7.56 5.047c.977 0 1.773.541 1.773 1.227S8.538 7.5 7.56 7.5c-.977 0-1.773 0-1.773-1.227 0-.686.796-1.227 1.773-1.227Zm7.344 7.869c.253 0 .47.216.47.47a.49.49 0 0 1-.217.396c-.18.253-.506.578-1.194.614-1.085.108-1.23.036-2.279.253-.651.144-1.194.036-1.52-.217-.325.253-.868.361-1.519.217-1.085-.253-1.88-.18-2.966-.253-.868-.072-1.194-.578-1.303-.794a.52.52 0 0 1-.072-.253c0-.253.217-.47.47-.47.217 0 .434.181.47.362.11.144.29.433.47.397.254-.036 1.52.144 2.895.433 1.085.217 1.23-.072 1.23-.18v-.759a1.609 1.609 0 0 1-.94-.577c-.507-.361-.977-.794-1.194-1.047-.58-.289-.977-.83-.977-1.516 0-.83.579-1.48 1.375-1.66.144-.109.687-.325 1.736-.362.109-.036.253-.036.362-.036.108 0 .253 0 .362.036 1.193.037 1.772.325 1.953.434.724.216 1.23.83 1.23 1.624 0 .686-.398 1.263-1.013 1.516-.253.253-.76.758-1.302 1.083a1.957 1.957 0 0 1-.977.505V13.854c0 .145.109.506 1.23.29 1.375-.29 1.99-.542 2.207-.542.253.036.543-.506.543-.506a.714.714 0 0 1 .47-.18ZM8.212 5.263a.759.759 0 1 1 .002 1.518.759.759 0 0 1-.002-1.518Zm3.184-.47a.94.94 0 1 1 .002 1.88.94.94 0 0 1-.002-1.88Z"/></svg>