<svg xmlns="http://www.w3.org/2000/svg" width="96" height="96"><g fill="none" fill-rule="nonzero"><path d="M0 0h96v96H0z"/><path fill="#B48632" d="M30.932 61.876c-10.133-18.942-7.615-34.936 1.014-43.389 1.007-.986.718-1.536.718-1.536s.166-2.456.535-2.37c.41.094 2.487-2.024 2.865-.918l3.43 1.265c7.01-1.138 13.235-2.774 20.395.063l1.063.38s.63-1.752.935-2.031c.533-.488.834.769 1.889.38l4.862 6.898c1.07 1.596 1.763 3.125 2.536 4.768 8.07 17.163-4.11 36.731-4.11 36.731l-1.259 3.008-5.412 1.485-27.634-1.422-1.827-3.312z"/><path fill="#0F141B" d="M32.446 18.327a.71.71 0 0 1-.013 1.004c-9.11 8.872-10.14 24.68-1.162 41.717l.275.517 1.633 2.943 27.096 1.387 4.965-1.355 1.124-2.667c.007-.019.016-.037.025-.055l.042-.07.06-.097c.061-.099.132-.217.213-.353l.178-.306c.184-.319.382-.674.591-1.065.8-1.492 1.599-3.18 2.346-5.031 3.271-8.106 4.47-16.43 2.395-24.167a27.65 27.65 0 0 0-1.639-4.513l-.622-1.332a45.67 45.67 0 0 0-.32-.66l-.027-.056c-.551-1.115-1.057-2.018-1.606-2.833a.71.71 0 0 1 1.179-.794c.54.802 1.034 1.672 1.557 2.71l.347.704c.167.346.34.716.78 1.662a29.073 29.073 0 0 1 1.723 4.744c2.167 8.082.927 16.7-2.45 25.067a53.21 53.21 0 0 1-2.41 5.17l-.213.392c-.174.317-.34.609-.494.874l-.213.359-.157.256-1.235 2.931a.71.71 0 0 1-.398.387l-.07.023-5.406 1.476a.83.83 0 0 1-.148.024h-.076l-27.603-1.413a.71.71 0 0 1-.55-.308l-.034-.057-1.83-3.296c-9.556-17.76-8.556-34.487 1.143-43.932a.71.71 0 0 1 1.004.013zm19.775 32.71c.266.039.519.087.757.147a.71.71 0 0 1-.346 1.377 5.985 5.985 0 0 0-.611-.117 10.716 10.716 0 0 0-1.74-.088l-.342.014-.096.006a.71.71 0 1 1-.113-1.416l.182-.011.064-.004c.71-.032 1.493-.014 2.245.093z"/><path fill="#0F141B" d="M55.27 39.75c-.084 1.058.833 1.985 3.294 2.157 2.412.168 3.512-.618 3.596-1.677.09-1.158-1.032-1.999-3.295-2.157-2.136-.149-3.513.619-3.595 1.677"/><path fill="#0F141B" d="M54.258 39.835c-.13 1.661 1.342 2.739 3.953 2.921 2.576.18 4.224-.684 4.353-2.329.132-1.695-1.413-2.744-3.953-2.921-2.346-.164-4.156.7-4.343 2.237l-.01.092zm4.254-.912c1.857.13 2.69.695 2.636 1.393-.054.69-.942 1.156-2.838 1.023-1.875-.13-2.65-.667-2.638-1.34l.003-.053c.047-.616 1.12-1.143 2.837-1.023z"/><path fill="#B48632" d="M59.453 14.89c-.007.02.363-2.126 1.984-3.174 4.433-2.862 8.405-.163 10.813 4.39 3.096 5.854 2.129 8.617-.987 9.33-3.096.707-4.615-1.002-5.205-3.165-.612-2.253-1.878-3.576-1.878-3.576"/><path fill="#0F141B" d="m60.262 14.907-.023.106.007-.052v-.063l-.003.068a.826.826 0 0 1-.024.136l-.026.081-.05.103-.115.155-1.007.118-.343-.488-.018-.105-.002-.031.002-.117.013-.092.018-.09a6.987 6.987 0 0 1 .415-1.255c.426-.962 1.043-1.78 1.899-2.334 4.542-2.933 9.066-.763 11.949 4.687 3.106 5.874 2.51 9.557-1.514 10.477-3.174.726-5.284-.755-6.11-3.593l-.04-.139a8.754 8.754 0 0 0-.712-1.797 8.154 8.154 0 0 0-.898-1.352l-.075-.084a.797.797 0 0 1 1.15-1.101c.323.337.78.942 1.23 1.791.308.583.57 1.208.77 1.874l.071.251c.588 2.157 1.931 3.13 4.26 2.598 2.716-.62 3.138-3.044.552-8.006l-.092-.174c-2.496-4.721-6.06-6.43-9.677-4.095-.562.364-.996.94-1.307 1.641a5.202 5.202 0 0 0-.262.736c-.015.053-.027.102-.038.146z"/><path fill="#FFF" d="M38.142 36.21s9.967-.597 15.957.264c0 0-.281-6.888-7.978-6.888-6.763 0-7.839 5.511-7.979 6.623"/><path fill="#0F141B" d="M46.121 28.875c-3.227 0-5.546 1.175-7.042 3.18a8.688 8.688 0 0 0-1.641 4.065.71.71 0 0 0 .687.8l.208-.01.432-.023c.469-.023 1-.047 1.583-.069a124.8 124.8 0 0 1 7.958-.063l.689.022c1.923.07 3.61.2 5.003.4a.71.71 0 0 0 .81-.732l-.008-.141a7.859 7.859 0 0 0-.173-1.064 8.779 8.779 0 0 0-1.022-2.575c-1.417-2.364-3.864-3.79-7.484-3.79zm0 1.42c3.114 0 5.102 1.159 6.266 3.1l.119.207c.345.624.585 1.288.736 1.953l.02.096-.193-.022c-1.38-.15-2.966-.245-4.723-.294a126.2 126.2 0 0 0-8.051.064l-.728.03-.558.024.004-.016a7.303 7.303 0 0 1 1.204-2.532c1.23-1.647 3.128-2.61 5.904-2.61z"/><path fill="#FFF" d="M61.43 36.5s8.13.17 11.213.835c0-1.746-.336-6.027-5.444-6.027-4.264 0-5.672 3.848-5.769 5.193"/><path fill="#0F141B" d="M67.199 30.597c-2.116 0-3.784.855-4.961 2.309-.868 1.071-1.412 2.436-1.51 3.47l-.006.066a.71.71 0 0 0 .693.769l.964.026c.226.006.463.014.71.023l.25.009c1.237.044 2.475.102 3.65.174l.583.037c2.187.145 3.897.329 4.921.55a.712.712 0 0 0 .86-.695c0-1.493-.229-2.824-.897-4.016-.97-1.73-2.704-2.722-5.257-2.722zm0 1.42c2.044 0 3.302.72 4.018 1.997l.084.157c.325.637.506 1.353.584 2.141l.014.167-.1-.015-.39-.055a56.52 56.52 0 0 0-3.451-.327l-.292-.02c-1.167-.077-2.405-.14-3.652-.19l-.876-.032-.875-.028.022-.086c.523-1.917 2.286-3.708 4.914-3.708zm-16.551.152a.43.43 0 1 0-.864 0 .43.43 0 0 0 .865 0"/><path fill="#0F141B" d="M50.218 31.13a1.039 1.039 0 1 0-.002 2.08 1.039 1.039 0 0 0 .002-2.081zm0 .86a.178.178 0 0 1-.001.357.178.178 0 0 1-.177-.178c0-.1.08-.179.177-.179zm19.837 1.04a.431.431 0 1 0-.862 0 .431.431 0 0 0 .862 0"/><path fill="#0F141B" d="M69.624 31.99a1.04 1.04 0 1 0 .001 2.081 1.04 1.04 0 0 0-.001-2.081zm0 .861c.098 0 .177.08.177.179a.177.177 0 1 1-.354 0c0-.1.08-.179.177-.179zM35.185 12.446c.401-.054.778.025 1.059.258l.036.031 2.715.352.046-.006c1.089-.133 1.945-.143 3.511-.085l.678.025c1.567.054 2.403.033 3.494-.127l.138-.02c4.02-.617 8.979-.275 12.9.818l.587.17.194.062c.223.073.447.158.762.29a.794.794 0 1 1-.612 1.468l-.218-.088a7.05 7.05 0 0 0-.428-.158l-.41-.124c-3.644-1.07-8.366-1.442-12.206-.912l-.64.093c-1.07.147-1.938.172-3.377.127l-1.303-.047c-1.309-.04-2.053-.02-3.016.105-.045.006-.09.008-.136.006l-.068-.006-3.14-.405a.796.796 0 0 1-.43-.198l-.028-.028-.051.016a3.353 3.353 0 0 0-.39.16l-.167.081-.673.357a7.927 7.927 0 0 1-.265.136c-.385.188-.61.263-.924.204a.795.795 0 0 1 .086-1.577h.012l.086-.038.142-.07.554-.296c.13-.068.242-.126.35-.18.438-.215.793-.347 1.132-.394z"/><path fill="#B48632" d="M31.417 18.562s-1.7-4.586 2.282-7.644c5.399-4.148 10.484-2.252 13.357 1.426 3.963 5.074 4.402 8.618.128 10.874-3.203 1.69-7.431.955-9.233-3.682-.993-2.556-2.757-3.782-2.757-3.782l-2.658 2.313-1.12.496z"/><path fill="#0F141B" d="M33.214 10.287c5.245-4.03 10.893-3.012 14.47 1.567l.257.335c4.131 5.438 4.19 9.318-.385 11.733-3.947 2.083-8.41.656-10.284-3.94l-.063-.157a8.536 8.536 0 0 0-.958-1.798 8.028 8.028 0 0 0-1.068-1.244l-.132-.12a4.355 4.355 0 0 0-.249-.21l-.062-.045a.797.797 0 0 1 .908-1.308l.104.075c.133.102.311.251.522.449.439.413.875.91 1.282 1.491.4.572.748 1.197 1.033 1.876l.104.257c1.479 3.805 4.944 4.942 8.12 3.266 3.547-1.872 3.475-4.68-.261-9.522l-.123-.158c-3.061-3.917-7.724-4.757-12.245-1.285-.831.639-1.42 1.373-1.8 2.189-.604 1.298-.654 2.701-.37 4l.039.168c.025.103.05.19.07.259l.04.12a.797.797 0 0 1-1.493.554l-.04-.118a6.449 6.449 0 0 1-.171-.643c-.352-1.61-.29-3.354.483-5.013.488-1.047 1.238-1.984 2.272-2.778z"/><path fill="#B48632" d="M70.488 87.348s4.11-20.445-5.626-20.363L46.84 65.19l-15.37.66s-4.453 3.918-7.008 1.305c-1.598-1.635-1.523-5.836 6.107-10.663 0 0 1.196.521 2.127-.147.503-.362.882-1.539.446-2.244 0 0 1.003-.162 1.528-.878.18-.244.565-.775.152-1.255.46.187 1.138.24 1.584-.348.446-.59.467-2.646-2.184-3.95-1.87-.921-4.19-.244-6.052.832-3.853 2.224-9.433 6.065-11.566 13.986-1.396 5.185.554 9.852 3.91 11.95 3.884 2.428 8.244 1.928 12.127-.04 0 0 .457 9.756.88 12.773 0 0 4.882 1.827 16.126 1.827 13.408 0 20.841-1.65 20.841-1.65"/><path fill="#0F141B" d="M63.064 73.655a.711.711 0 0 1 .784.55l.014.084.017.14c.015.127.032.277.05.448l.038.378c.032.325.063.678.094 1.056l.018.23c.283 3.686.321 7.698-.045 11.66a.71.71 0 1 1-1.414-.13c.357-3.873.32-7.81.042-11.422l-.04-.504c-.028-.326-.056-.63-.085-.912l-.046-.439-.04-.343a.71.71 0 0 1 .613-.796zM35.463 50.689c.566.763.587 1.823.173 2.721-.232.505-.624.877-1.113 1.136-.276.145-.546.24-.788.3a2.538 2.538 0 0 1-.486 1.077 2.448 2.448 0 0 1-1.362.888 3.208 3.208 0 0 1-1.452.007l-.1-.024-.062.043c-5.694 3.898-7.107 7.597-5.312 9.577l.058.062c.556.579 1.207.742 2.024.56.82-.182 1.75-.707 2.703-1.47a14.754 14.754 0 0 0 1.511-1.398l.182-.199c.005-.006.01-.01.013-.015a.796.796 0 1 1 1.205 1.041l-.13.146a16.108 16.108 0 0 1-1.787 1.669c-1.126.9-2.251 1.535-3.351 1.78-1.334.297-2.556-.009-3.519-1.012-1.224-1.277-1.546-3.189-.754-5.248.883-2.299 3.083-4.7 6.645-7.068a.797.797 0 0 1 .664-.1l.12.041.08.024.053.013c.285.071.577.088.822.027a.85.85 0 0 0 .49-.32c.34-.437.254-1.075-.395-1.328l-.078-.027a.795.795 0 1 1 .485-1.516c.723.23 1.217.663 1.497 1.178.097-.03.192-.07.28-.116.202-.107.34-.237.41-.393.19-.41.18-.859-.003-1.107-.325-.435-.767-.617-1.624-.59a.796.796 0 1 1-.052-1.59c1.347-.044 2.294.345 2.953 1.23z"/><path fill="#0F141B" d="M28.876 47.353c2.389-1.225 5.037-1.306 7.156.243 1.482 1.083 2.095 3.395 1.198 4.474-.718.866-1.7.98-2.618.536a.797.797 0 0 1 .692-1.434c.309.15.497.128.702-.119.238-.287-.105-1.581-.913-2.171-1.57-1.148-3.59-1.087-5.49-.112-6.098 3.128-10.718 7.819-12.232 13.865-1.256 5.015.309 9.18 4.06 11.418 2.932 1.75 7.732 1.642 10.873-.344a.796.796 0 0 1 .85 1.345c-3.642 2.304-9.087 2.426-12.539.366-4.374-2.61-6.21-7.496-4.789-13.172 1.644-6.563 6.582-11.576 13.05-14.895zM65.48 66.89a.71.71 0 0 1 .844-.543c3.466.75 5.02 4.7 5.27 10.73.102 2.472-.027 5.111-.304 7.706l-.065.58a60.58 60.58 0 0 1-.1.812l-.088.646-.087.571a.71.71 0 1 1-1.401-.233l.027-.173a53.688 53.688 0 0 0 .301-2.354c.27-2.53.396-5.103.297-7.496-.225-5.43-1.567-8.842-4.15-9.401a.71.71 0 0 1-.544-.844z"/><path fill="#9E9E9F" d="M49.355 72.853c0-1.934-1.124-4.09-4.313-4.09-2.381 0-4.313 1.601-4.313 3.86 0 3.117 1.932 4.32 4.313 4.32 2.888 0 4.313-1.831 4.313-4.09"/><path fill="#C8C9CA" d="M40.298 72.356c.38-.247 6.755-2.732 6.755-2.732l1.44 1.483-7.695 3.253-.5-2.004zm.431 3.154c-.003-.118 8.067-3.303 8.067-3.303l.128 1.356-6.146 2.95-2.049-1.003z"/><path fill="#15181B" d="M45.042 67.967c-2.85 0-5.109 1.976-5.109 4.656 0 3.327 2.023 5.116 5.11 5.116 3.157 0 5.108-2.013 5.108-4.886 0-2.783-1.83-4.886-5.109-4.886zm0 1.592c2.346 0 3.517 1.344 3.517 3.294 0 2.005-1.25 3.294-3.517 3.294-2.248 0-3.517-1.122-3.517-3.524 0-1.75 1.503-3.064 3.517-3.064z"/><path fill="#BF1A21" d="M30.514 61.478c9.911 2.691 22.638 3.018 36.533.334.677-.132 1.283.549 1.283 1.438 0 .625-.093 1.687-.19 2.215-.084.456-.663 1.647-1.676 1.79-15.331 2.175-24.61 2.03-36.084-.65-.64-.15-1.022-.738-1.127-1.395-.118-.746-.162-2-.168-2.537-.007-.714.707-1.39 1.429-1.195"/><path fill="#0F141B" d="M31.741 72.263c-.05-1.031 1.457-1.135 1.583-.156l.007.072.862 15.051c.058 1.023-1.454 1.163-1.584.147-.436-3.392-.845-9.537-.839-13.286l.002-.29a28.43 28.43 0 0 0-.007-.74l-.02-.692-.004-.106zm-3.452-9.583c-.012-1.245 1.202-2.304 2.434-1.97 10.09 2.74 22.77 2.91 36.172.32 1.234-.239 2.231.879 2.231 2.22 0 .667-.096 1.778-.203 2.358-.19 1.038-1.116 2.26-2.348 2.436l-.98.136c-14.9 2.05-24.107 1.838-35.397-.8-.949-.223-1.571-1.04-1.731-2.046-.105-.666-.168-1.789-.178-2.654zm2.016-.433c-.165-.045-.426.183-.424.417l.006.33c.02.735.074 1.597.152 2.09.067.418.272.687.522.746 11.327 2.646 20.493 2.807 35.79.637.224-.031.455-.193.664-.47.18-.237.315-.532.342-.677.09-.483.177-1.498.177-2.07 0-.24-.075-.448-.185-.572-.067-.074-.113-.092-.151-.085-13.464 2.602-26.24 2.464-36.513-.245l-.38-.101z"/></g></svg>