<svg xmlns="http://www.w3.org/2000/svg" width="16" height="16"><g fill="none" fill-rule="evenodd"><circle cx="8" cy="8" r="8" fill="gray"/><path fill="#FFF" d="M7.252 10.464H8.68v1.333H7.25v-1.333ZM5.556 6.603c0-.391.058-.747.176-1.067.117-.32.288-.594.512-.821.224-.228.494-.404.81-.528.317-.125.67-.187 1.062-.187.327 0 .63.048.912.144a2.2 2.2 0 0 1 .736.416c.21.181.375.407.496.677.12.27.18.576.18.918 0 .249-.026.464-.08.645a1.68 1.68 0 0 1-.212.47c-.09.13-.19.248-.304.351-.114.103-.228.205-.342.304a9.39 9.39 0 0 0-.373.331 1.92 1.92 0 0 0-.299.357 1.575 1.575 0 0 0-.197.464c-.046.178-.07.395-.07.651H7.413c0-.313.016-.578.048-.795.032-.217.083-.407.154-.57.071-.164.158-.308.262-.432.103-.125.225-.247.368-.368.113-.1.222-.192.325-.278.103-.085.195-.18.277-.282a1.22 1.22 0 0 0 .192-.347c.046-.128.07-.28.07-.459a1.24 1.24 0 0 0-.112-.549 1.141 1.141 0 0 0-.272-.368 1.058 1.058 0 0 0-.342-.203.98.98 0 0 0-.32-.064c-.44 0-.766.144-.976.432-.21.288-.314.674-.314 1.158H5.556Z"/></g></svg>