<svg xmlns="http://www.w3.org/2000/svg" width="14" height="14"><g fill="#000" fill-rule="evenodd" opacity=".2"><path d="M6.5 1.5A2.5 2.5 0 0 1 8.792 5H9a2 2 0 0 1 1.984 1.75c-.459-.162-.96-.25-1.484-.25-2.21 0-4 1.567-4 3.5 0 .744.265 1.434.718 2H3a2 2 0 0 1-2-2V7a2 2 0 0 1 2-2h.208A2.5 2.5 0 0 1 5.5 1.5h1Zm0 1.4h-1A1.1 1.1 0 0 0 5.042 5h1.916A1.1 1.1 0 0 0 6.5 2.9Z"/><path d="M9.51 7.5c-1.656 0-3.01 1.172-3.01 2.629 0 1.065.47 1.58 1.129 2.042v1.261c0 .054.075.09.112.054l1.148-.8.019.018c.188.036.395.053.583.053 1.655 0 3.009-1.172 3.009-2.628 0-1.457-1.317-2.629-2.99-2.629Z"/></g></svg>