<svg xmlns="http://www.w3.org/2000/svg" width="44" height="44" fill="none"><clipPath id="a"><path d="M0 0h44v44H0z"/></clipPath><clipPath id="b"><path d="M12.6 12.6h18.782v18.782H12.6z"/></clipPath><g clip-path="url(#a)"><path fill="#9da4ad" d="M0 0h44v44H0z"/><g clip-path="url(#b)"><path fill="#fff" d="M20.962 14.338a6.372 6.372 0 0 0-.67 2.854c0 3.526 2.85 6.384 6.362 6.384a6.309 6.309 0 0 0 2.964-.734c.92-.486 1.98.348 1.724 1.356a9.527 9.527 0 0 1-9.226 7.186C16.86 31.382 12.6 27.11 12.6 21.84a9.542 9.542 0 0 1 6.968-9.194c1.002-.278 1.86.762 1.396 1.692zm-1.074-.536A8.343 8.343 0 0 0 13.8 21.84c0 4.606 3.724 8.342 8.318 8.342 3.884 0 7.148-2.67 8.062-6.28a7.5 7.5 0 0 1-3.526.872c-4.176 0-7.562-3.396-7.562-7.584 0-1.218.286-2.37.796-3.39z"/></g></g></svg>