<svg xmlns="http://www.w3.org/2000/svg" width="9" height="9"><path fill="#FFF" fill-rule="nonzero" d="M4.48 9c.391 0 .725-.022 1.002-.065.276-.043.485-.096.627-.16v-.939a2.619 2.619 0 0 1-.647.169c-.271.041-.573.062-.907.062h-.058c-.441 0-.865-.066-1.27-.197a3.105 3.105 0 0 1-1.085-.61 2.855 2.855 0 0 1-.754-1.062c-.185-.433-.277-.948-.277-1.543v-.203c0-.712.145-1.33.435-1.852.29-.523.696-.929 1.218-1.217.522-.289 1.13-.433 1.825-.433h.052c.676 0 1.258.135 1.748.405A2.877 2.877 0 0 1 7.912 3.94v.151c0 .416-.042.757-.124 1.02-.083.265-.187.459-.314.583a.573.573 0 0 1-.676.123.466.466 0 0 1-.196-.182.567.567 0 0 1-.072-.296V2.524H5.338v.73h-.04a1.034 1.034 0 0 0-.202-.376 1.151 1.151 0 0 0-.409-.309 1.493 1.493 0 0 0-.645-.124c-.514 0-.92.164-1.215.492-.295.328-.443.764-.443 1.307v.68c0 .57.15 1.02.449 1.35.3.33.703.494 1.21.494.207 0 .402-.032.587-.095.184-.064.342-.158.475-.281a.963.963 0 0 0 .273-.45h.058a.93.93 0 0 0 .302.455c.148.124.325.218.533.281.207.064.42.096.639.096.445 0 .822-.113 1.131-.337.31-.225.546-.534.711-.928A3.43 3.43 0 0 0 9 4.171v-.27a3.84 3.84 0 0 0-.288-1.475 3.716 3.716 0 0 0-.846-1.248 3.984 3.984 0 0 0-1.37-.863C5.953.105 5.333 0 4.635 0h-.047C3.687 0 2.891.183 2.2.548a4.007 4.007 0 0 0-1.617 1.54C.194 2.75 0 3.525 0 4.413v.275c0 .697.11 1.315.331 1.853.22.537.53.988.93 1.352.4.363.869.639 1.408.826.54.187 1.124.281 1.753.281h.058Zm-.035-3.238a.71.71 0 0 1-.558-.233c-.138-.156-.208-.42-.208-.796v-.292c0-.352.07-.61.208-.773a.682.682 0 0 1 .547-.245c.13 0 .253.03.368.09.115.06.209.157.28.29.07.133.106.31.106.531v.472c0 .244-.033.435-.1.574a.624.624 0 0 1-.268.295.797.797 0 0 1-.375.087Z"/></svg>