<svg xmlns="http://www.w3.org/2000/svg" width="40" height="40"><g fill="none" fill-rule="evenodd"><path fill="#ff5e6d" d="M0 0h40v40H0z"/><g stroke="#fff" stroke-linecap="round" stroke-linejoin="round" stroke-width="1.2"><path d="M11.654 22.768v4.216c0 .916.743 1.658 1.658 1.658h13.214c.915 0 1.657-.742 1.657-1.658v-4.216"/><path d="M29 19.516c0-.719-.377-1.335-.913-1.598a1.26 1.26 0 0 0-.269-.097c-.1-.024-15.326-.038-15.326-.038-.823 0-1.492.775-1.492 1.733v1.809-.473c.002 1.413.961 2.17 2.187 2.226.06.003.338 0 .338 0 .622-.012 1.222-.172 1.703-.63.843-.77 2.031-.77 2.875 0 .48.458 1.318.63 1.97.63.73 0 1.613-.453 1.947-.764.769-.714 1.924-.588 2.715.135.481.457 1.081.617 1.703.629h.193c1.258.058 2.318-.629 2.368-2.09.002-.034.001-1.472.001-1.472zM15.757 15.63v1.753M20.094 15.63v1.753M24.295 15.63v1.753"/></g><path fill="#fff" d="M15.753 13.824a1.075 1.075 0 0 1-1.131-1.014l-.002-.035v-.006c0-.458.36-1.769 1.133-1.769.772 0 1.13 1.311 1.13 1.769v.006a1.074 1.074 0 0 1-1.097 1.05h-.033m4.291 0a1.075 1.075 0 0 1-1.131-1.015l-.002-.035v-.006c0-.458.36-1.769 1.133-1.769s1.13 1.311 1.13 1.769v.006a1.074 1.074 0 0 1-1.097 1.05h-.033m4.268 0a1.075 1.075 0 0 1-1.131-1.015l-.002-.035v-.006c0-.458.36-1.769 1.133-1.769s1.13 1.311 1.13 1.769v.006a1.074 1.074 0 0 1-1.097 1.05h-.033"/></g></svg>