<svg xmlns="http://www.w3.org/2000/svg" xmlns:xlink="http://www.w3.org/1999/xlink" width="16.005" height="13"><defs><linearGradient id="c" x1="100%" x2="0%" y1="50%" y2="50%"><stop offset="0%" stop-color="#FFCF54"/><stop offset="100%" stop-color="#FFE54E"/></linearGradient><linearGradient id="d" x1="100%" x2="0%" y1="-46.661%" y2="-46.661%"><stop offset="0%" stop-color="#FFCF54"/><stop offset="100%" stop-color="#FFE54E"/></linearGradient><linearGradient id="e" x1="100%" x2="0%" y1="-46.661%" y2="-46.661%"><stop offset="0%" stop-color="#FFCF54"/><stop offset="100%" stop-color="#FFE54E"/></linearGradient><linearGradient id="f" x1="0%" x2="99.963%" y1="50%" y2="50%"><stop offset="0%" stop-color="#FF435A"/><stop offset="23%" stop-color="#FF4B5F"/><stop offset="50%" stop-color="#FF5A6B"/><stop offset="68%" stop-color="#FF5063"/><stop offset="100%" stop-color="#FF435A"/></linearGradient><linearGradient id="g" x1="0%" x2="99.967%" y1="50.09%" y2="50.09%"><stop offset="0%" stop-color="#EFD8D3"/><stop offset="5%" stop-color="#F2E0DC"/><stop offset="17%" stop-color="#F7EFEC"/><stop offset="31%" stop-color="#FAF8F6"/><stop offset="50%" stop-color="#FBFBF9"/><stop offset="68%" stop-color="#FAF9F6"/><stop offset="80%" stop-color="#F7F3ED"/><stop offset="91%" stop-color="#F3E9DE"/><stop offset="100%" stop-color="#EEDCC9"/></linearGradient><path id="a" d="M0 0h20v20H0z"/></defs><g fill="none" fill-rule="evenodd" transform="translate(-2 -3)"><mask id="b" fill="#fff"><use xlink:href="#a"/></mask><g mask="url(#b)"><path fill="url(#c)" stroke="#F5C852" stroke-width=".5" d="M3.91 3.041c.216 0 .413.079.555.209.133.122.218.29.218.476v4.111a.645.645 0 0 1-.218.477.822.822 0 0 1-.556.208.822.822 0 0 1-.555-.208.645.645 0 0 1-.219-.477v-4.11c0-.188.085-.355.219-.477a.822.822 0 0 1 .555-.209Z" transform="translate(2 3)"/><path fill="url(#d)" stroke="#F5C852" stroke-width=".5" d="M8.037 3.041c.217 0 .414.079.556.209.133.122.218.29.218.476v4.111a.645.645 0 0 1-.218.477.822.822 0 0 1-.556.208.822.822 0 0 1-.555-.208.645.645 0 0 1-.219-.477v-4.11c0-.188.085-.355.219-.477a.822.822 0 0 1 .555-.209Z" transform="translate(2 3)"/><path fill="#FF435A" d="M5.92 5.216c-.507.025-.944-.331-.97-.794v-.029c0-.365.309-1.393.97-1.393s.97 1.028.97 1.388c-.01.473-.431.838-.943.828H5.92ZM10.048 5.216c-.507.025-.944-.331-.97-.794v-.029c0-.365.309-1.393.97-1.393s.97 1.028.97 1.388c-.01.473-.431.838-.943.828h-.027Z"/><path fill="url(#e)" stroke="#F5C852" stroke-width=".5" d="M12.181 3.041c.217 0 .414.079.556.209.133.122.218.29.218.476v4.111a.645.645 0 0 1-.218.477.822.822 0 0 1-.556.208.822.822 0 0 1-.555-.208.645.645 0 0 1-.219-.477v-4.11c0-.188.085-.355.219-.477a.822.822 0 0 1 .555-.209Z" transform="translate(2 3)"/><path fill="#FF435A" d="M14.192 5.216c-.507.025-.944-.331-.97-.794v-.029c0-.365.309-1.393.97-1.393s.97 1.028.97 1.388c-.01.473-.431.838-.943.828h-.027Z"/><path fill="url(#f)" fill-rule="nonzero" stroke="#000" stroke-opacity=".07" stroke-width=".5" d="M13.61 6.022a1.26 1.26 0 0 1 1.26 1.25v4.656c0 .305-.044.52-.187.648-.16.142-.415.174-.758.174H2.043c-.345 0-.604-.032-.765-.176-.145-.129-.19-.342-.19-.646V7.272c0-.345.14-.657.368-.883a1.26 1.26 0 0 1 .89-.367Z" transform="translate(2 3)"/><path fill="url(#g)" stroke="#000" stroke-opacity=".07" stroke-width=".5" d="M14.634 4.712c.4.125.68.277.862.458.181.18.254.388.254.613l.005 1.114c-.02.443-.205.776-.498.998-.345.26-.826.37-1.357.35-.654-.005-1.141-.103-1.533-.425a2.335 2.335 0 0 0-2.866.003c-.382.31-.776.422-1.357.422-.528 0-1.28-.1-1.675-.425a2.335 2.335 0 0 0-2.866.003c-.382.31-.861.412-1.356.422-.642-.021-1.162-.158-1.515-.425C.418 7.584.25 7.24.25 6.8V5.782a1.078 1.078 0 0 1 1.078-1.07Z" transform="translate(2 3)"/></g></g></svg>