<svg xmlns="http://www.w3.org/2000/svg" width="15" height="15" fill="none"><g opacity=".92"><rect width="15" height="15" fill="#000" fill-opacity=".28" rx="3"/><path stroke="#fff" stroke-linejoin="round" stroke-width="1.1" d="M11.424 6.469v4.955H6.47"/><path fill="#fff" fill-rule="evenodd" d="M3 4a1 1 0 0 1 1-1h5.047a1 1 0 0 1 1 1v5.047a1 1 0 0 1-1 1H4a1 1 0 0 1-1-1V4Zm5.078.675a.715.715 0 1 1-1.43 0 .715.715 0 0 1 1.43 0ZM3.705 7.377v1.406L5.684 7.21l1.852 1.438 1.806-1.356V5.914L7.547 7.262 5.677 5.81 3.705 7.377Z" clip-rule="evenodd"/></g></svg>