<svg xmlns="http://www.w3.org/2000/svg" width="24" height="24"><g fill="none" fill-rule="evenodd"><path d="M0 0h24v24H0z" opacity=".1"/><path fill="#000" fill-rule="nonzero" d="M15.679 6.839v3.563a3.84 3.84 0 0 1-6.487 2.781l6.442-6.934c.03.192.045.39.045.59ZM11.838 3c1.329 0 2.5.674 3.19 1.7l-6.714 7.225A3.829 3.829 0 0 1 8 10.402V6.839A3.837 3.837 0 0 1 11.838 3Z"/><path stroke="#000" stroke-linecap="round" stroke-width="1.5" d="M17.435 11.868a4.645 4.645 0 0 1-4.603 4.685l-2.088.018a4.625 4.625 0 0 1-2.78-.894m-1.753-2.57a4.652 4.652 0 0 1-.151-1.139"/><path stroke="#000" stroke-linecap="round" stroke-linejoin="round" stroke-width="1.5" d="M12 17v2m-4 1h8"/><path fill="#000" fill-rule="nonzero" d="M5.512 16.944 18.58 2.948a.725.725 0 0 1 1.042-.018.776.776 0 0 1 .019 1.079L6.573 18.004a.725.725 0 0 1-1.043.018.776.776 0 0 1-.018-1.078Z"/></g></svg>