<svg xmlns="http://www.w3.org/2000/svg" width="60" height="60" fill="none"><path fill="#000" d="M0 30c0 16.569 13.431 30 30 30 16.569 0 30-13.431 30-30C60 13.431 46.569 0 30 0 13.431 0 0 13.431 0 30Z" opacity=".6"/><path fill="#333" fill-rule="evenodd" d="M18.742 23.5c-3.59 6.218-1.46 14.169 4.758 17.758 6.218 3.59 14.169 1.46 17.758-4.758 3.59-6.218 1.46-14.169-4.758-17.758-6.218-3.59-14.168-1.46-17.758 4.758ZM22.5 42.99c-7.174-4.142-9.632-13.316-5.49-20.49 4.142-7.174 13.316-9.633 20.49-5.49 7.175 4.142 9.633 13.316 5.49 20.49-4.142 7.174-13.316 9.633-20.49 5.49Z" clip-rule="evenodd"/><path fill="#fff" fill-rule="evenodd" d="M42.99 37.5c-4.142 7.174-13.315 9.633-20.49 5.49l1-1.732c6.218 3.59 14.169 1.46 17.759-4.758l1.732 1Z" clip-rule="evenodd"/></svg>