<svg xmlns="http://www.w3.org/2000/svg" width="60" height="60" fill="none"><path fill="#000" d="M0 30c0 16.569 13.431 30 30 30 16.569 0 30-13.431 30-30C60 13.431 46.569 0 30 0 13.431 0 0 13.431 0 30Z" opacity=".6"/><path fill="#333" fill-rule="evenodd" d="M43 30c0-7.18-5.82-13-13-13s-13 5.82-13 13 5.82 13 13 13 13-5.82 13-13ZM30 15c8.284 0 15 6.716 15 15 0 8.284-6.716 15-15 15-8.284 0-15-6.716-15-15 0-8.284 6.716-15 15-15Z" clip-rule="evenodd"/><path fill="#fff" fill-rule="evenodd" d="M15 30c0-8.284 6.716-15 15-15v2c-7.18 0-13 5.82-13 13h-2Z" clip-rule="evenodd"/></svg>