<svg xmlns="http://www.w3.org/2000/svg" width="60" height="60" fill="none"><path fill="#000" d="M30 60c16.569 0 30-13.431 30-30C60 13.431 46.569 0 30 0 13.431 0 0 13.431 0 30c0 16.569 13.431 30 30 30Z" opacity=".6"/><path fill="#333" fill-rule="evenodd" d="M33.365 17.443C26.429 15.585 19.3 19.7 17.443 26.635 15.585 33.57 19.7 40.7 26.635 42.557 33.57 44.415 40.7 40.3 42.557 33.365c1.858-6.936-2.257-14.064-9.192-15.922ZM15.51 26.118c2.144-8.002 10.37-12.751 18.371-10.607 8.002 2.144 12.75 10.37 10.607 18.371-2.144 8.002-10.37 12.751-18.371 10.607-8.002-2.144-12.751-10.37-10.607-18.371Z" clip-rule="evenodd"/><path fill="#fff" fill-rule="evenodd" d="M26.118 44.489c-8.002-2.144-12.751-10.37-10.607-18.371l1.932.517C15.585 33.57 19.7 40.7 26.635 42.557l-.517 1.932Z" clip-rule="evenodd"/></svg>