<svg xmlns="http://www.w3.org/2000/svg" width="60" height="60" fill="none"><path fill="#000" d="M30 60c16.569 0 30-13.431 30-30C60 13.431 46.569 0 30 0 13.431 0 0 13.431 0 30c0 16.569 13.431 30 30 30Z" opacity=".6"/><path fill="#333" fill-rule="evenodd" d="M39.192 20.808c-5.076-5.077-13.308-5.077-18.384 0-5.077 5.076-5.077 13.307 0 18.384 5.076 5.077 13.308 5.077 18.384 0 5.077-5.077 5.077-13.308 0-18.384Zm-19.799-1.415c5.858-5.857 15.356-5.857 21.214 0 5.858 5.858 5.858 15.356 0 21.213-5.858 5.858-15.356 5.858-21.214 0-5.857-5.857-5.857-15.355 0-21.213Z" clip-rule="evenodd"/><path fill="#fff" fill-rule="evenodd" d="M19.393 40.606c-5.858-5.857-5.858-15.355 0-21.213l1.415 1.415c-5.077 5.076-5.077 13.307 0 18.384l-1.415 1.414Z" clip-rule="evenodd"/></svg>