<svg xmlns="http://www.w3.org/2000/svg" width="60" height="60" fill="none"><path fill="#000" d="M0 30c0 16.569 13.431 30 30 30 16.569 0 30-13.431 30-30C60 13.431 46.569 0 30 0 13.431 0 0 13.431 0 30Z" opacity=".6"/><path fill="#333" fill-rule="evenodd" d="M23.5 18.742c-6.218 3.59-8.348 11.54-4.758 17.758 3.59 6.218 11.54 8.348 17.758 4.758 6.218-3.59 8.348-11.54 4.758-17.758-3.59-6.218-11.54-8.348-17.758-4.758ZM17.01 37.5c-4.142-7.174-1.684-16.348 5.49-20.49 7.174-4.143 16.348-1.684 20.49 5.49 4.143 7.174 1.684 16.348-5.49 20.49-7.174 4.142-16.348 1.684-20.49-5.49Z" clip-rule="evenodd"/><path fill="#fff" fill-rule="evenodd" d="M37.5 42.99c-7.174 4.142-16.348 1.684-20.49-5.49l1.732-1c3.59 6.218 11.54 8.348 17.758 4.758l1 1.732Z" clip-rule="evenodd"/></svg>