<svg xmlns="http://www.w3.org/2000/svg" width="60" height="60" fill="none"><path fill="#000" d="M30 60c16.569 0 30-13.431 30-30C60 13.431 46.569 0 30 0 13.431 0 0 13.431 0 30c0 16.569 13.431 30 30 30Z" opacity=".6"/><path fill="#333" fill-rule="evenodd" d="M42.557 26.635c-1.858-6.935-8.986-11.05-15.922-9.192-6.935 1.858-11.05 8.986-9.192 15.922 1.858 6.935 8.987 11.05 15.922 9.192 6.935-1.858 11.05-8.987 9.192-15.922Zm-16.44-11.124c8.003-2.144 16.228 2.605 18.372 10.607 2.144 8.002-2.605 16.227-10.607 18.37-8.002 2.145-16.227-2.604-18.37-10.606-2.145-8.002 2.604-16.227 10.606-18.37Z" clip-rule="evenodd"/><path fill="#fff" fill-rule="evenodd" d="M15.511 33.882c-2.144-8.002 2.605-16.227 10.607-18.37l.518 1.931c-6.935 1.858-11.051 8.987-9.193 15.922l-1.932.517Z" clip-rule="evenodd"/></svg>