<svg xmlns="http://www.w3.org/2000/svg" width="12" height="14"><g fill="#000" fill-rule="evenodd" opacity=".5"><path d="M1.188 12.775h9.624V1.225H1.188v11.55ZM12 1.077C12 .482 11.512 0 10.91 0H1.09C.489 0 0 .482 0 1.077v11.846C0 13.518.488 14 1.09 14h9.82c.602 0 1.09-.482 1.09-1.077V1.077Z"/><path d="M3.295 5.09h5.39c.248 0 .45-.269.45-.6 0-.33-.202-.6-.45-.6h-5.39c-.248 0-.45.27-.45.6 0 .331.202.6.45.6M3.295 7.6h5.39c.248 0 .45-.269.45-.6 0-.332-.202-.6-.45-.6h-5.39c-.248 0-.45.268-.45.6 0 .331.202.6.45.6M3.265 10.11h3.354c.231 0 .419-.269.419-.6 0-.331-.188-.6-.42-.6H3.266c-.232 0-.42.269-.42.6 0 .331.188.6.42.6"/></g></svg>