<svg width="24" height="24" viewBox="0 0 24 24" fill="none" xmlns="http://www.w3.org/2000/svg">
<path fill-rule="evenodd" clip-rule="evenodd" d="M2.06665 2.66665C2.06665 2.33528 2.33528 2.06665 2.66665 2.06665H21.3333C21.6647 2.06665 21.9333 2.33528 21.9333 2.66665V21.3147C21.9333 21.646 21.6647 21.9147 21.3333 21.9147H2.66665C2.33528 21.9147 2.06665 21.646 2.06665 21.3147V2.66665ZM3.26665 3.26665V20.7147H20.7333V3.26665H3.26665Z" fill="black" fill-opacity="0.16"/>
<path fill-rule="evenodd" clip-rule="evenodd" d="M10.221 10.4247C10.3801 10.4248 10.5327 10.488 10.6452 10.6005L14.3416 14.2975L17.486 11.1525L18.3346 12.001L14.7659 15.5703C14.6534 15.6828 14.5007 15.7461 14.3416 15.7461C14.1824 15.7461 14.0298 15.6829 13.9173 15.5703L10.2209 11.8733L6.46852 15.6257L5.62 14.7771L9.79666 10.6005C9.90919 10.488 10.0618 10.4247 10.221 10.4247Z" fill="black" fill-opacity="0.16"/>
<path fill-rule="evenodd" clip-rule="evenodd" d="M15.8353 8.63886C15.8353 9.21886 15.3653 9.68952 14.7847 9.68952C14.2047 9.68952 13.734 9.21886 13.734 8.63886C13.734 8.05819 14.2047 7.58752 14.7847 7.58752C15.3653 7.58752 15.8353 8.05819 15.8353 8.63886Z" fill="black" fill-opacity="0.16"/>
</svg>
