<svg xmlns="http://www.w3.org/2000/svg" xmlns:xlink="http://www.w3.org/1999/xlink" width="120" height="68"><defs><linearGradient id="b" x1="85.37%" x2="43.947%" y1="33.036%" y2="53.427%"><stop offset="0%" stop-opacity=".242"/><stop offset="100%" stop-opacity=".135"/></linearGradient><linearGradient id="e" x1="93.252%" x2="-4.481%" y1="46.051%" y2="46.051%"><stop offset="0%" stop-color="#EAEAEA"/><stop offset="100%" stop-color="#FFF"/></linearGradient><linearGradient id="f" x1="31.5%" x2="53.499%" y1="51.841%" y2="57.67%"><stop offset="0%" stop-color="#FFF"/><stop offset="7.34%" stop-color="#E1E1E1"/><stop offset="25.369%" stop-color="#D1D1D1"/><stop offset="44.578%" stop-color="#D7D7D7"/><stop offset="55.064%" stop-color="#DCDCDC"/><stop offset="100%" stop-color="#FFF"/></linearGradient><linearGradient id="g" x1="44.653%" x2="55.61%" y1="24.728%" y2="96.961%"><stop offset="0%" stop-color="#FFF"/><stop offset="100%" stop-color="#DDD"/></linearGradient><linearGradient id="h" x1="50%" x2="50.889%" y1="25.717%" y2="85.453%"><stop offset="0%" stop-color="#DDD"/><stop offset="100%" stop-color="#FFF"/></linearGradient><linearGradient id="i" x1="61.568%" x2="30.99%" y1="52.951%" y2="59.076%"><stop offset="0%" stop-color="#FAFAFA"/><stop offset="100%" stop-color="#C6C6C6"/></linearGradient><linearGradient id="j" x1="25.788%" x2="56.161%" y1="63.026%" y2="56.306%"><stop offset="0%" stop-color="#E1E1E1"/><stop offset=".422%" stop-color="#C6C6C6"/><stop offset="14.627%" stop-color="#CBCBCB"/><stop offset="32.197%" stop-color="#D7D7D7"/><stop offset="100%" stop-color="#FFF"/></linearGradient><linearGradient id="k" x1="72.335%" x2="19.504%" y1="46.051%" y2="36.619%"><stop offset="0%" stop-color="#F0EFEF"/><stop offset="100%" stop-color="#FFF"/></linearGradient><linearGradient id="l" x1="19.391%" x2="57.823%" y1="30.027%" y2="54.339%"><stop offset="0%" stop-color="#FFF"/><stop offset="10.656%" stop-color="#E1E1E1"/><stop offset="15.351%" stop-color="#D1D1D1"/><stop offset="27.881%" stop-color="#D6D6D6"/><stop offset="40.594%" stop-color="#E4E4E4"/><stop offset="59.245%" stop-color="#EFEFEF"/><stop offset="100%" stop-color="#FFF"/></linearGradient><filter id="c" width="108.6%" height="116.3%" x="-4.3%" y="-8.2%" filterUnits="objectBoundingBox"><feGaussianBlur in="SourceGraphic" stdDeviation="1.5"/></filter><path id="a" d="M0 0h107.022v56H0z"/></defs><g fill="none" fill-rule="evenodd" transform="translate(6 6)"><mask id="d" fill="#fff"><use xlink:href="#a"/></mask><path fill="url(#b)" d="m52.718 4.872.785 1.664.152-.763c.759 1.013.872 2.83.882 3.648v.275l-.004.145c.38-.403 3.144-2.276 3.144-2.276l-.207.788c.675-.338 3.55-.939 3.55-.939l-1.529 3.433.764.152C58.935 13.28 56.732 15 56.732 15c1.264.1 2.642 1.632 2.854 1.876l.028.033c-2.042 1.416-3.89.992-3.89.992l.889.427c-2.52.506-4.92-.258-6.46-.466-1.06-.144-2.822 1.569-3.818 2.65 4.595.247 8.945.44 11.587.45h.496c.632-.003 1.14-.02 1.499-.05 4.531-.398 7.825-1.058 7.825-1.058l.749-.873c-.34-1.793-.761-5.5.814-8.198 2.152-3.684 3.6-3.838 4.33-3.43.728.41.704.86.46 1.333-.325.631-5.108 2.016-4.978 8.868a10.68 10.68 0 0 1 .228-1.734c.15-1.503.608-3.42 1.882-4.725l.044-.056c1.09-1.415 3.011-2.33 3.691-2.226.507-.312.906-.427 1.11-.255.314.264.301.566.147.85a.04.04 0 0 1 .007.007h.098c.093-.002.189 0 .288.007 1.006-.57 2.273-1.075 3.048-.602.568.347-.107.985-.742 1.441.1.071.2.149.299.232 1.108-.246 2.6-.432 2.343.436-.19.644-.63 1.07-.968 1.314l.001.05a.245.245 0 0 1-.037.115c.809-.178 2.574-.478 2.643.253.08.842-1.277 1.357-1.589 1.464.455-.11 3.205-.78 3.26-.084.044.552-1.324 1.46-2.071 1.913.01.062.015.12.015.176 1.112-.212 3.693-.584 3.094.644-.533 1.095-1.815 1.68-2.529 1.93l-.03.01.114-.03c.912-.244 2.59-.578 2.777.205.23.965-1.424 1.817-1.424 1.817s1.654.01 1.25 1.313c-.405 1.304-2.15 1.467-2.15 1.467s.914.089 1.332.6c.42.512.363 1.558-1.181 1.858 0 0 1.837-.188.887.65-.742.655-1.949.888-2.438.958l-.03.003.082-.008c.586-.06 1.914-.15 1.74.31-.223.585-2.05 1.835-3.413 1.792-1.362-.044 1.605.084 1.443.68-.161.597-2.887 1.258-4.27.962l.029.01.077.028c.375.142 1.58.651.772 1.046-.47.23-1.767.074-3.165-.559a.51.51 0 0 1-.01.25c-.15.45-1.177-.017-2.343-1.213-1.942 1.065-4.728 1.66-8.439.312l-2.409.857c5.63 1.836 10.81 3.446 12.557 3.753 4.48.788 7.832 1.003 7.832 1.003l1.898-1.023.008-.033s.05-.19.152-.524c-1.655-3.854.038-8.775 1.397-10.544.489-.638 1.281-.997 1.93-.526.546.396.767 1.139-.528 2.53-1.125 1.207-1.572 3.34-1.718 5.367l-.021.317.18-.4c.31-.682.675-1.408 1.098-2.137l.1-.17c2.97-5.694 6.544-7.273 7.48-6.257.506.549-.292 1.54-1.218 2.395l-.1.09.033-.02c2.316-1.508 3.979-1.382 4.54-.488l.045.078c.188.354-.143.849-.703 1.371.081.35-.07.743-.382 1.156 1.462-.507 2.877-.828 3.174-.314.137.239.01.576-.276.96l-.087.11c1.491-.288 2.482-.141 2.344.83-.12.848-1.018 1.665-2.3 2.416l-.196.15-.256.19c-.985.721-2.008 1.351-2.008 1.351s5.901-3.034 6.443-1.718c.514 1.25-4.51 3.254-5.015 3.452l-.04.016s5.685-1.715 6.367-.154c.682 1.56-5.759 2.245-5.759 2.245s7.093.73 6.655 1.853c-.374.958-5.23.314-6.643.105l-.04-.006c1.293.21 5.778 1.006 5.182 1.91-.45.683-2.768.344-4.341.022l-.148-.032.083.022c1.833.457 4.766 1.289 4.594 1.897l-.029.062c-.579.878-3.932.049-3.932.049 3.57 1.3 2.691 2.787 1.791 3.58-.717.63-2.986-.116-3.878-.445 1.007.864 1.523 1.623 1.046 2.078.222.598.151 1.054-.676.94-1.987-.275-4.324-2.395-4.613-2.663l-.02-.019.014.016c.301.336 3.714 4.17 1.978 4.266h-.126c-1.565-.061-3.069-1.623-3.74-2.425l.055.088c.247.407.481.995.313 1.61l-.05.155c-.42 1.092-1.343.591-1.488.504l-.02-.012c-4.44-2.805-6.163-6.094-6.743-8.797-.455 3.4.166 7.097 1.421 8.065 1.088.84.067 5.243-2.552-.092-1.782-3.628-.44-7.856.6-10.19l-1.547-1.863-7.98-.957-23.57-7.367c.763 1.397 1.987 3.308 3.032 3.441 1.66.213 4.37.088 6.85 1.317l-1.043.196s2.04.074 3.77 2.114c0 0-2.07 1.45-3.53 1.18 0 0 1.783 2.362 2.533 5.072l3.734 2.085 2.354.3.106-.055c.19-.1.453-.237.769-.397l.402-.201c1.908-.944 5.06-2.355 5.834-1.795.512.371-.333.882-1.41 1.33 1.193-.28 2.215-.44 2.478-.256.264.185.083.433-.255.673 1.196-.028 2.11.094 2.049.542-.05.373-.63.608-1.418.755.837.212 1.65.473 1.939.74.296.275.094.529-.225.728.464.178.777.37.84.573.068.217-.236.309-.761.318.796.415 1.729 1.084 1.66 1.91-.116 1.394-3.476.487-3.476.487s3.113 1.13 2.683 2.558c-.202.674-2.272.044-2.272.044s1.476 1.18 1.604 2.04c.127.86-2.964-.38-2.964-.38s1.142.828 1.313 1.651c.171.824-2.691-.72-2.691-.72s1.137 1.353.796 2.01c-.17.33-1.207-.439-2.201-1.29l-.009-.006a.467.467 0 0 1-.149.103c-.225.101-.479.065-.747-.07.705 1.355 1.379 3.015.585 3.227-.575.153-1.49-.857-2.36-2.08-.097.442-.384.68-.952.577a1.502 1.502 0 0 1-.777-.421c-.095.675-.424 1.067-1.194.733-.677-.293-1.02-1.236-1.165-2.428-.217.541-.503.87-.88.794-1.534-.314.902-8.76.902-8.76l-.693-2.028-.028-.016-.085-.048c-.416-.238-1.952-1.116-4.006-2.282l.485 3.058s-2.822-1.425-3.431-1.964l-.004.876s-2.352-2.716-2.636-3.24c0 0-.634 2.873-2.046 3.981l.054-.835-1.28 1.51s-2.204-3.225-2.18-6.638c.008-.927.149-1.865.35-2.74-2.48-1.36-4.494-2.432-5.245-2.748-.91-.382-5.591-2.27-11.203-4.528l.333 1.058s2.356-.168 4.394 1.459c2.039 1.626 2.493 3.618 2.493 3.618-.889.044-1.667-.396-1.97-.594l-.024-.018.083.06c1.627 1.185 2.252 2.654 2.296 2.76l-.408-.08a15.153 15.153 0 0 1 1.446 2.506c-2.162.1-3.61-1.107-3.61-1.107.65 4.607-.745 5.48-.864 5.546-2.02-2.612-2.7-4.997-2.7-4.997-.315 1.267-1.438 1.887-1.438 1.887l-.21-.735-.963 1.055s-.472-.467-.604-2.052c-.132-1.586.739-3.526.739-3.526L32.472 38.7l.08-.91-1.132.965.114-1.22c.02-4.358 2.614-4.69 2.858-5.395.157-.452-.079-1.172-.267-1.628-1.038-.416-2.102-.844-3.175-1.276l-.778-.313-.983-.395-1.832-.736-.91-.366c-5.441-2.186-10.495-4.214-12.873-5.168-4.37.355-8.295.651-9.185.65-1.536-1.073-1.914-1.616-1.134-1.627.384-.005 2.93-.2 6.24-.466L1.843 18.3l1.152-1.206 1.875.64-1.01-1.461.023.004c.359.07 4.658.895 9.247 1.783l.641.124.774.15.772.15c2.509.487 4.93.96 6.669 1.304l4.197-.351.647-.054.353-.03.263-.022.057-.005c.009 0 6.848.484 14.3.926l.76.044.38.023 1.366.078.865.049c1.354-1.582 3.227-2.909 3.812-3.306l.175-.116c.007-.005-.693-3.459.105-6.53.798-3.07 3.452-5.623 3.452-5.623Zm-30.47 16.661c-1.481.127-3.162.269-4.887.413l-.657.054 30.073 12.252 4.923 2.747a20.575 20.575 0 0 1 1.163-2.996l.053-.107c.004-.006-1.914-2.121-3.089-4.459l-6.034-1.887-.024-.007c-.342-.1-4.283-1.25-8.468-2.464l-.732-.213-.183-.053-.915-.265c-3.77-1.093-7.344-2.124-8.263-2.37-.351-.095-1.448-.33-2.96-.645Zm5.264-.454-.153.014c1.719.481 4.02 1.129 6.368 1.791l1.008.284.3.085.6.17c4.483 1.265 8.612 2.434 8.612 2.434s6.883 2.377 14.216 4.81l.864.286 1.3.429 1.307.429-.294-.262 2.782-.91s3.152-.978 6.212-4.23a13.609 13.609 0 0 1-.792-3.118c-.155-.45-.275-.822-.36-1.093l-1.643-.928-7.955 1.142-32.372-1.333Zm-20.48-2.606 6.015 2.053 3.03-.248-.397-.08-.762-.154-2.992-.598-.715-.143c-1.631-.325-3.095-.615-4.18-.83Z" filter="url(#c)" mask="url(#d)" transform="rotate(-15 54.034 32.48)"/><path fill="#4A4C45" d="M63.362 16.973s4.625 3.388 5.883 10.558l.89-1.735s2.094 3.29 1.848 4.018c-.247.728 1.75-4.252.972-6.53l1.219.693s-1.316-7.466-10.104-7.318l-2.242-1.787-.8.334 2.334 1.767Z" mask="url(#d)" transform="matrix(1 0 0 -1 0 44.758)"/><g mask="url(#d)"><path fill="url(#e)" d="M.563 11.568s.718-3.766 2.256-5.863C4.357 3.608 10.786.47 11.391 1.522c.605 1.052-1.586 1.433-1.586 1.433s3.814-1.28 4.868.04c.695.87-2.156 1.315-2.156 1.315s4.061.178 3.22 1.317c-.689.933-1.859.998-1.859.998s3.047.266 2.807 1.19c-.24.925-2.06.83-2.06.83s3.361.305 3.158 1.038c-.203.734-3.14 1.187-3.14 1.187s4.425.534 3.18 1.737c-1.243 1.203-3.557.92-3.557.92s3.274.076 3.147 1.18c-.115.986-1.96 1.221-1.96 1.221s1.55.575.725 1.661c-.826 1.087-2.521.643-2.521.643s.828.397 1.046 1.02c.22.625-.192 1.588-1.746 1.342 0 0 1.79.451.612.914-1.178.462-2.832.017-2.832.017s2.202.473 1.793.948c-.41.475-2.554 1.024-3.82.517-1.265-.507 1.479.629 1.123 1.134-.356.505-3.143.194-4.34-.558 0 0 1.503 1.209.453 1.32-1.05.11-4.713-2.396-5.175-6.196-.462-3.8-.208-7.122-.208-7.122" transform="rotate(-27 40.208 -123.223)"/><path fill="#D9D9D9" d="M65.808 12.824s-1.489-4.303.783-8.142c1.335-2.255 4.574-3.659 3.428-1.797 0 0 2.296-1.359 4.77.555 2.475 1.914.51 1.768-.28 1.564-.79-.205 1.496-.101 2.208.663.713.765.544.982.367 1.368-.176.386.916-.24 1.407.74.49.979-.119 1.514-.119 1.514s.93-.681 1.026.472c.095 1.153-.716 2.303-.716 2.303s.658-.965.929-.532c.271.434.79 1.836-.027 3.14 0 0 .56-.358.595.486.036.844-1.117 1.52-1.117 1.52s1.025.62.8 1.606c-.223.986-1.356 1.202-1.356 1.202s1.315-.247.589.64c-.727.885-2.464.806-2.464.806s1.93.624.998 1.233c-.932.608-4.356 2.673-7.144-.748-2.788-3.42-4.677-8.593-4.677-8.593"/><path fill="url(#f)" d="M9.339.446c.545.634.367 1.049-.023 1.41-.538.497-5.81.125-7.915 7.272 0 0 .145-.297.42-.763.478-1.376 1.75-4.294 4.195-5.325 1.16-.489 1.438-.24 1.438-.24l.016.011c.026.021.083.068.152.138a5.594 5.594 0 0 1 2.08-.292s1.265-.186 1.415.805c.15.99-1.256.967-1.813 1.039-.243.031-1.472.313-2.92.997a3.642 3.642 0 0 0-.882 1.078c1.75-1.169 3.877-2.007 6.031-1.455 0 0 1.505.532 1.279 1.503-.227.971-1.07.756-2.193.389-.703-.23-3.124-.14-5.382.915l-.132.89c1.35-.657 2.978-1.181 4.629-1.085 0 0 3.06 0 2.982 1.541-.078 1.542-2.405.356-3.38.255-.64-.067-2.326-.04-4.295.62.944-.028 6.618-.162 6.771.617.112.567-.275.932-1.16 1.095l-.665.112-.624.105-4.351.73-.021.003.723.194c1.312.174 2.814.118 4.27-.501 0 0 2.353-.672 2.622.613.128.607-.078 1.314-1.422 1.548.457.267.722.579.499.913-.68 1.018-5.14-.317-5.14-.317s.953.64 2.05 1.101c.47.008.968-.034 1.494-.135 0 0 2.139-.492 2.532.638.306.877-.662 1.338-1.6 1.404a.93.93 0 0 1-.31.124c-.847.167-3.017-.233-4.599-1.194 0 0 1.592 1.24 2.364 1.904.324.081.709.139 1.013.073.661-.141 2.127.178 2.11.997-.02 1.003-1.744 1.08-2.923.709l-.023-.008-.062.026a2.812 2.812 0 0 1-1.118.116L7.3 21c1.255.475 1.728.558 1.977 1.347.323 1.024-1.566 1.029-2.417.48-.851-.548-4.618-2.29-5.363-6.336v.045c-.005.396.062 3.296 2.816 5.154 2.513 1.696.689 1.842-.002 1.4-1.022-.655-1.758-1.51-2.27-2.289l-.053-.082c.638 1.439 1.289 3.2.907 3.681-.672.847-3.995-4.34-2.52-10.487l.016-3.224s.425-5.773 3.708-8.5C7.38-.538 8.794-.187 9.338.446ZM1.032 18.728l.009.028c.048.156.309.947.893 1.879l.053.083-.088-.198a37.288 37.288 0 0 0-.861-1.781l-.006-.01Z" transform="rotate(-27 40.208 -123.223)"/><path fill="#5B5B51" d="m46 5.03 1.189 1.404-.05-.777c1.31 1.03 1.9 3.703 1.9 3.703.264-.488 2.447-3.013 2.447-3.013l.004.815c.565-.5 3.186-1.825 3.186-1.825l-.587 3.711.777-.05c-.685 2.545-2.368 4.776-2.368 4.776 1.247-.23 2.974.892 3.243 1.074l.035.024c-1.606 1.896-3.5 1.965-3.5 1.965l.969.182c-2.303 1.141-4.82 1.025-6.36 1.222-1.078.138-2.36 2.312-3.034 3.608 5.989-1.263 11.54-2.51 13.254-3.135 4.274-1.557 7.284-3.047 7.284-3.047l1.06-2.206c1.31 1.076 1.923 2.47 1.84 4.179l-2.439-.63-7.389 3.162-31.613 7.09s-19.727 7.18-21.862 7.752c-1.762-.64-2.267-1.066-1.517-1.279 1.175-.332 22.925-8.165 22.925-8.165s7.722-1.494 15.609-3.127l.893-.186.818-.17c1.073-2.276 3-4.404 3-4.404s-1.57-3.155-1.593-6.328C44.096 8.182 46 5.03 46 5.03Z"/></g><g mask="url(#d)"><path fill="url(#g)" d="M3 17.075S.86 24.587 4.847 28.994c3.988 4.406 3.756-.109 2.48-.615-1.979-.786-4.216-6.62-3.658-10.742.559-4.121-.667-.562-.667-.562" transform="rotate(1 -635.237 4776.854)"/><path fill="url(#h)" d="M1.007 3.53C-.083 5.918-.64 12.663 3.631 15.717c0 0-2.704-7.26-.806-10.552.949-1.646.566-2.32-.055-2.583-.738-.313-1.43.216-1.763.946" transform="rotate(-2 384.316 -2358.576)"/><path fill="url(#i)" d="M2.537 15.765s-.664 8.65 10.03 11.977c0 0 1.195.4 1.328-.865.133-1.264-1.262-2.063-1.262-2.063s2.657 2.196 4.716 1.73c2.058-.465-2.923-3.66-2.923-3.66s3.055 1.664 5.18 1.398c2.126-.266-1.527-2.861-1.527-2.861s3.587.466 4.25-.533c.665-.998 1.13-2.661-2.656-2.994 0 0 3.454-.066 3.786-1.064.332-.999-6.376-.666-6.376-.666s5.313 0 5.712-1.198c.398-1.198-5.845-.465-5.845-.465s6.642-.666 6.775-1.864c.133-1.197-6.908-.066-6.908-.066s6.044-2.33 4.982-3.66c-1.063-1.33-6.11 1.797-6.11 1.797s4.848-3.527 3.984-4.658c-.863-1.132-5.778 3.327-5.778 3.327s4.716-4.991 2.059-4.126c-2.657.865-4.317 3.194-4.317 3.194s4.317-4.658 3.387-5.59c-.93-.931-6.11 3.527-6.11 3.527s4.45-4.125 3.52-5.123C11.504.26 9.113.926 6.655 4.785c0 0 3.321-3.859 2.06-4.658C7.451-.67 3.998 2.257 2.802 9.71l-.266 6.056Z" transform="translate(82.864 11.903)"/><path fill="#C7CDB8" d="M90.449 23.427s2.52 0 3.543 4.055c1.022 4.054-.34 5.814-.886 5.89-.545.077-3.475-.229-3.952-3.06-.477-2.83 1.295-6.885 1.295-6.885"/><path fill="url(#j)" d="M6.746 1.724c4.355-3.77-.066 3.128-1.66 6.322C4.014 10.193 9.133.934 11.728 2.39c2.594 1.455-6.025 8.442-6.025 8.442S17.015.747 17.429 4.178c.416 3.43-11.519 9.669-11.519 9.669s7.628-4.429 8.25-2.141c.623 2.287-7.938 3.804-7.938 3.804s11-3.535 9.962-1.247c-1.038 2.287-9.132 3.015-9.132 3.015s11.311-.104 9.755 1.352c-1.557 1.455-8.359-.07-8.359-.07s12.906 2.578 11.557 4.657c-1.349 2.08-13.783-3.86-13.783-3.86s9.028 4.471 6.745 5.823c-2.283 1.351-8.51-2.911-9.651-5.823-1.142-2.91-1.133-4.7-1.133-4.7S2.107 5.74 6.746 1.724Z" transform="translate(82.864 11.903)"/><path fill="#5B5B51" d="M85.393 26.268c.909.947 1.068 2.564.48 4.85l-2.297-1.628-7.956 1.142-24.673-1.016c1.099 1.152 2.776 2.68 3.82 2.539 1.658-.224 4.243-1.046 6.956-.5l-.956.458s1.99-.456 4.188 1.067c0 0-1.624 1.936-3.103 2.053 0 0 2.372 1.85 3.793 4.303l-.822.163 1.645 3.692s-.955-.2-1.929-.439l-.388-.097c-.642-.165-1.236-.339-1.505-.473l.223.847s-2.976-2.014-3.386-2.448c0 0 .132 2.94-.945 4.375l-.164-.82-.845 1.789s-2.964-2.544-3.823-5.847c-.86-3.303 0-7.218 0-7.218s-2.4-1.546-4.14-3.5l-6.317-.26s-4.772-.106-9.604-.206l-1.143-.023c-3.926-.08-7.643-.15-8.595-.151h-.077c-1.027.016-5.765.305-10.414.603l-.774.05c-4.757.305-9.197.602-9.197.602l-1.688-1.432s5.22-.377 10.462-.747l.786-.055c4.71-.332 9.228-.641 9.768-.649H23c2.484.004 20.25.254 20.25.254.317.023 9.224.651 17.705 1.123l.907.05c6.179.336 11.956.574 13.792.412 4.53-.398 7.824-1.057 7.824-1.057Z"/></g><g mask="url(#d)"><path fill="url(#k)" d="M1.303 6.785s-.887 8.903 1.534 9.708c2.421.806.202-4.713.202-4.713s3.833 5.922 5.165 5.439c1.331-.484-2.058-4.875-2.058-4.875s4.116 3.384 4.398 2.7c.283-.686-.968-1.934-.968-1.934s2.986 1.289 2.744.483c-.242-.806-1.453-1.53-1.453-1.53s3.188.966 2.986.12c-.201-.846-1.775-1.893-1.775-1.893s2.117.447 2.26-.242c.303-1.459-2.896-2.314-2.896-2.314s3.426.61 3.42-.788c-.006-1.432-2.946-2.135-2.946-2.135s1.857-.685 1.13-1.249c-.726-.564-4.317-.846-4.317-.846s2.542-1.208 1.775-1.651C9.737.622 3.483 3.28 3.483 3.28l-2.18 3.505Z" transform="rotate(-10 249.082 -376.279)"/><path fill="#CDDCA8" d="M77.565 42.139s1.258 1.653 1.074 2.436c-.185.782-.623 3.164-1.762 3.097-1.14-.067-2.85-.944-2.381-2.849.47-1.904 2.065-3.204 2.065-3.204l1.004.52Z"/><path fill="url(#l)" d="M.793 6.238s-1.69 8.626-.135 8.805c1.555.18 1.033-6.238 1.033-6.238s.618 6.974 3.083 7.205c2.75.258-1.588-6.727-1.588-6.727s3.41 5.613 4.905 4.777c1.495-.836-4.666-6.09-4.666-6.09s5.442 5.006 6.101 4c.977-1.491-4.137-4.225-4.137-4.225s4.98 2.8 5.638 1.367c.658-1.433-5.15-2.934-5.15-2.934s7.209 2.055 7.688.682c.478-1.373-7.867-2.175-7.867-2.175s8.493 1.135 8.075.12C13.354 3.79 6.296 3.61 6.296 3.61s6.041-.24 6.101-1.493c.06-1.254-7.177.656-7.177.656S10.543.804 9.347.088C8.15-.63 2.272 3.28 2.272 3.28L.793 6.238Z" transform="rotate(-10 249.082 -376.279)"/><path fill="#4E4E48" d="m1.135 29.76 10.853.73L47.866 35l21.892 5.524 2.496-.339s-.033.852-.196 1.859c-.163 1.006-1.07 1.497-1.07 1.497l-1.194-1.778-.125-.033-.153-.04c-.03-.009-.063-.017-.098-.026l-.373-.099c-1.68-.441-5.939-1.557-10.253-2.655l-.74-.188-.737-.187c-4.416-1.116-8.585-2.13-9.759-2.29-.325-.045-1.097-.142-2.203-.28l-.58-.071c-2.056-.254-5.018-.615-8.342-1.019l1.396 1.897s2.14-.676 4.53.368c2.236.977 3.215 2.62 3.332 2.829l.012.021c-.86.277-1.739.042-2.07-.069l.082.03c1.806.696 2.785 1.885 2.92 2.057l.016.021-.419.023c1.164.942 2.045 2.046 2.045 2.046-2.062.655-3.773-.135-3.773-.135 1.78 4.187.747 5.43.608 5.572l-.013.013c-2.621-2.004-3.897-4.133-3.897-4.133.025 1.306-.9 2.195-.9 2.195l-.392-.655-.657 1.268s-.577-.329-1.115-1.826c-.538-1.498-.199-3.596-.199-3.596l-1.161 1.36-.16-.899-.842 1.225-.205-1.208c-1.109-4.215 1.31-5.208 1.364-5.95.042-.589-.985-1.804-1.415-2.285l-.114-.126a7.207 7.207 0 0 0-.071-.077l.179-.077-5.065-.614-1.052-.127-1.577-.19-1.046-.127c-8.168-.987-15.608-1.882-15.608-1.882l-10.83-.601.801-1.463Z"/></g></g></svg>