<svg xmlns="http://www.w3.org/2000/svg" width="76" height="76" fill="none"><g clip-path="url(#a)"><path stroke="#FEE500" stroke-width="3" d="M38 71.012c18.233 0 33.013-14.78 33.013-33.012 0-18.233-14.78-33.013-33.013-33.013C19.768 4.987 4.988 19.767 4.988 38c0 18.232 14.78 33.012 33.012 33.012z"/><path stroke="#FEE500" stroke-linecap="round" stroke-linejoin="round" stroke-width="3" d="m23.75 36.08 10.53 10.53 17.161-17.16"/><path fill="#FEE500" fill-rule="evenodd" d="M38 70.8c18.115 0 32.8-14.685 32.8-32.8C70.8 19.885 56.115 5.2 38 5.2 19.885 5.2 5.2 19.885 5.2 38c0 18.115 14.685 32.8 32.8 32.8zm0 5.2c20.987 0 38-17.013 38-38S58.987 0 38 0 0 17.013 0 38s17.013 38 38 38z" clip-rule="evenodd"/><path fill="#FEE500" fill-rule="evenodd" d="M53.987 27.161a2.6 2.6 0 0 1 0 3.677L35.923 48.902a2.6 2.6 0 0 1-3.677 0L21.161 37.817a2.6 2.6 0 0 1 3.677-3.677l9.247 9.247L50.31 27.16a2.6 2.6 0 0 1 3.677 0z" clip-rule="evenodd"/></g><defs><clipPath id="a"><path fill="#fff" d="M0 0h76v76H0z"/></clipPath></defs></svg>