<svg xmlns="http://www.w3.org/2000/svg" width="46" height="38"><g fill="#ccc" fill-rule="evenodd" transform="translate(7 6)"><path d="M30.805 0c.824 0 1.493.669 1.493 1.491v5.014l-1.47 1.402.001-1.263V1.505h-1.026l-.186-.001-2.562-.001h-.317l-4.468-.001h-.415l-7.498-.001h-.446L1.471 1.5v10.484l-.001.405v6.264l-.001.355v5.487h1.026l.186.001 2.562.001h.317l4.468.001h4.604L13.216 26H1.493A1.493 1.493 0 0 1 0 24.509V1.49C0 .668.675 0 1.493 0zM18.387 24.499l12.43.001h.01v-4.14l.001-7.154V10.74l1.47-1.407v15.176c0 .823-.675 1.491-1.493 1.491h-14.82l1.462-1.501z"/><path d="m23.309 14.164-4.55 4.55-.085-.085-.378.38-6.172-6.173-6.296 6.296-1.038-1.038 7.28-7.281.085.083.075-.074 6.172 6.171 3.87-3.868zm4.132 4.02-1.038 1.039-1.753-1.708 1.038-1.038 1.753 1.708z"/><ellipse cx="21.287" cy="8.75" rx="1.713" ry="1.75"/><path d="m35.967 4.75 1.038 1.06-24.222 24.75-1.038-1.061z"/></g></svg>