<svg xmlns="http://www.w3.org/2000/svg" width="46" height="38" fill="none"><g fill="#000" fill-rule="evenodd" clip-rule="evenodd" opacity=".16"><path d="M37.805 6.066c.824 0 1.493.67 1.493 1.491v5.014l-1.47 1.402.001-1.263V7.571h-1.212l-2.562-.002h-5.2l-7.498-.002H8.471V18.05l-.001.405v6.264l-.001.355v5.487h1.026l.186.001 2.562.001h.317l4.468.001h4.604l-1.416 1.502H8.493A1.493 1.493 0 0 1 7 30.576V7.555c0-.822.675-1.49 1.493-1.49h29.312Zm-12.418 24.5h12.44v-4.14l.001-7.154v-2.466l1.47-1.407v15.176c0 .823-.675 1.491-1.493 1.491h-14.82l1.462-1.5h.94Z"/><path d="M27.082 19.639c.43-.298.43-.782.001-1.083l-6.243-4.38c-.429-.3-.776-.077-.776.5v8.776c0 .577.347.804.777.506l6.24-4.32ZM42.967 10.75l1.038 1.06-24.222 24.75-1.038-1.061L42.967 10.75Z"/></g></svg>