<svg xmlns="http://www.w3.org/2000/svg" width="46" height="38" fill="none"><path fill="#000" fill-opacity=".16" fill-rule="evenodd" d="M37.805 6c.824 0 1.493.669 1.493 1.491V30.51c0 .823-.675 1.491-1.493 1.491H8.493A1.493 1.493 0 0 1 7 30.51V7.49C7 6.668 7.675 6 8.493 6h29.312ZM20.911 7.501 8.471 7.5v10.484l-.001.405v6.264l-.001.355v5.487h1.026l.186.001 2.562.001h.317l4.468.001h.415l7.498.001h.446l12.43.001h.01v-4.14l.001-7.154V18.8l.001-6.156V7.505h-1.026l-.186-.001-2.562-.001h-.317l-4.468-.001h-.415l-7.498-.001h-.446Z" clip-rule="evenodd"/><path fill="#000" fill-opacity=".16" fill-rule="evenodd" d="m34.441 24.185-1.038 1.038-4.096-4.059-3.549 3.55-.084-.085-.378.38-6.172-6.173-6.296 6.296-1.038-1.038 7.28-7.281.085.083.075-.074 6.172 6.171 3.87-3.868.163.165.033-.033 4.973 4.928Z" clip-rule="evenodd"/><path fill="#000" fill-opacity=".16" d="M28.287 16.5c.946 0 1.713-.784 1.713-1.75S29.233 13 28.287 13c-.946 0-1.713.784-1.713 1.75s.767 1.75 1.713 1.75Z"/></svg>