<svg xmlns="http://www.w3.org/2000/svg" width="46" height="38" fill="none"><g fill="#000" opacity=".16"><path fill-rule="evenodd" d="M37.805 6c.824 0 1.493.669 1.493 1.491v5.014l-1.47 1.402.001-1.263V7.505h-1.026l-.186-.001-2.562-.001h-.317l-4.468-.001h-.415l-7.498-.001h-.446L8.471 7.5v10.484l-.001.405v6.264l-.001.355v5.487h1.026l.186.001 2.562.001h.317l4.468.001h4.604L20.216 32H8.493A1.493 1.493 0 0 1 7 30.509V7.49C7 6.668 7.675 6 8.493 6h29.312ZM25.387 30.499l12.43.001h.01v-4.14l.001-7.154V16.74l1.47-1.407v15.176c0 .823-.675 1.491-1.493 1.491h-14.82l1.462-1.501h.94Z" clip-rule="evenodd"/><path fill-rule="evenodd" d="m30.309 20.164-4.55 4.55-.085-.085-.378.38-6.172-6.173-6.296 6.296-1.038-1.038 7.28-7.281.085.083.075-.074 6.172 6.171 3.87-3.868 1.037 1.039Zm4.132 4.02-1.038 1.039-1.753-1.708 1.038-1.038 1.753 1.707Z" clip-rule="evenodd"/><path d="M28.287 16.5c.946 0 1.713-.784 1.713-1.75S29.233 13 28.287 13c-.946 0-1.713.784-1.713 1.75s.767 1.75 1.713 1.75Z"/><path fill-rule="evenodd" d="m42.967 10.75 1.038 1.06-24.222 24.75-1.038-1.061L42.967 10.75Z" clip-rule="evenodd"/></g></svg>