<svg xmlns="http://www.w3.org/2000/svg" width="33" height="33"><path fill="#343740" fill-rule="evenodd" d="M9.478 14.195c.3.13.562.31.79.537.227.228.407.49.537.793.13.297.195.625.195.975 0 .352-.065.677-.195.977a2.559 2.559 0 0 1-1.327 1.328c-.3.13-.624.195-.977.195-.35 0-.674-.065-.977-.195-.3-.13-.562-.31-.792-.538A2.474 2.474 0 0 1 6 16.5c0-.35.07-.678.197-.975.13-.303.31-.565.535-.793.23-.227.492-.407.792-.537.303-.13.627-.195.977-.195.353 0 .677.065.977.195ZM16.501 14c.353 0 .677.065.977.195.3.13.562.31.79.537.227.228.407.49.537.793.13.297.195.625.195.975 0 .352-.065.677-.195.977a2.559 2.559 0 0 1-1.327 1.328c-.3.13-.624.195-.977.195-.35 0-.674-.065-.977-.195-.3-.13-.562-.31-.792-.538A2.474 2.474 0 0 1 14 16.5c0-.35.07-.678.197-.975.13-.303.31-.565.535-.793.23-.227.492-.407.792-.537.303-.13.627-.195.977-.195Zm8 0c.353 0 .677.065.977.195.3.13.562.31.79.537.227.228.407.49.537.793.13.297.195.625.195.975 0 .352-.065.677-.195.977a2.559 2.559 0 0 1-1.327 1.328c-.3.13-.624.195-.977.195-.35 0-.674-.065-.977-.195-.3-.13-.562-.31-.792-.538A2.474 2.474 0 0 1 22 16.5c0-.35.07-.678.197-.975.13-.303.31-.565.535-.793.23-.227.492-.407.792-.537.303-.13.627-.195.977-.195Z"/></svg>