<svg xmlns="http://www.w3.org/2000/svg" width="21" height="21"><path fill-rule="evenodd" d="M8.217 5c1.13 0 2.122.583 2.693 1.464.02.032.055.047.088.047a.104.104 0 0 0 .089-.047 3.204 3.204 0 0 1 2.841-1.46c1.604.072 2.93 1.355 3.05 2.954.067.906.008 1.74-.54 2.36l-5.008 5.5a.579.579 0 0 1-.845 0l-4.996-5.5c-.548-.62-.637-1.453-.57-2.36.119-1.598 1.446-2.882 3.05-2.955L8.216 5Zm5.514 1.319c-.655 0-1.26.342-1.617.914a1.312 1.312 0 0 1-1.116.628c-.452 0-.87-.235-1.115-.628a1.904 1.904 0 0 0-1.708-.912c-.955.045-1.758.853-1.828 1.84a2.034 2.034 0 0 0 .505 1.51l4.154 4.562 4.139-4.562.03-.037c.346-.406.514-.93.475-1.474-.07-.986-.873-1.794-1.829-1.839a1.944 1.944 0 0 0-.09-.002Z" opacity=".75"/></svg>