<svg xmlns="http://www.w3.org/2000/svg" width="40" height="33"><g fill="#FF6229" fill-rule="nonzero"><path d="M20.197 22.935a1.056 1.056 0 0 1 0 2.112h-.394a1.056 1.056 0 1 1 0-2.112h.394ZM20 12.887c.636 0 1.152.516 1.152 1.152v.024l-.132 6.469a1.016 1.016 0 0 1-2.033 0l-.138-6.47a1.151 1.151 0 0 1 1.126-1.175H20Z"/><path d="M21.286.715a2.5 2.5 0 0 1 .858.858l16.584 27.64A2.5 2.5 0 0 1 36.584 33H3.415a2.5 2.5 0 0 1-2.143-3.786L17.856 1.573a2.5 2.5 0 0 1 3.43-.858ZM20.257 2.43a.5.5 0 0 0-.633.099l-.053.073-16.584 27.64a.5.5 0 0 0 .338.75l.09.008h33.17a.5.5 0 0 0 .467-.676l-.039-.081L20.43 2.602a.5.5 0 0 0-.106-.124l-.066-.048Z"/></g></svg>