<svg xmlns="http://www.w3.org/2000/svg" width="19" height="15"><g fill="#191919" fill-rule="nonzero"><path d="M6.67 0C3.003 0 0 2.784 0 6.243c0 2.531 1.042 3.755 2.502 4.851v2.995c0 .127.166.211.25.127l2.543-1.898.042.042a6.71 6.71 0 0 0 1.292.126c3.67 0 6.671-2.784 6.671-6.243C13.3 2.784 10.382 0 6.67 0ZM4.462 7.846c.667 0 1.21-.38 1.376-1.012h.959c-.25 1.181-1.126 1.94-2.335 1.94-1.417 0-2.501-1.054-2.501-2.53 0-1.477 1.125-2.532 2.501-2.532 1.21 0 2.126.802 2.377 1.983h-.96A1.393 1.393 0 0 0 4.504 4.64c-.96 0-1.585.675-1.585 1.603 0 .928.668 1.603 1.543 1.603Zm6.38.844h-.876V6.665c0-.464-.25-.717-.668-.717-.458 0-.75.295-.75.844v1.856h-.876V3.712h.876v1.856c.208-.337.542-.506 1.042-.506.376 0 .667.127.918.38.25.253.375.59.375 1.054V8.69h-.042ZM17.173 3.8v1.827H19v1.096h-1.828l.001 1.827h-1.096V6.722l-1.827.001V5.627h1.827V3.8z" opacity=".9"/></g></svg>