<svg xmlns="http://www.w3.org/2000/svg" width="24" height="15" fill="none"><rect width="24" height="15" fill="#000" fill-opacity=".28" rx="3"/><path fill="#fff" d="M10.402 7.23h-2.68v1.15h1.28v1.46c-.19.07-.54.12-.92.12-1.2 0-1.89-.77-1.89-2.5 0-1.83.8-2.42 1.96-2.42.66 0 1.3.17 1.77.39l.49-1.04c-.54-.31-1.41-.57-2.33-.57-2.05 0-3.42 1.16-3.42 3.64 0 2.64 1.39 3.74 3.33 3.74.95 0 1.95-.27 2.41-.58V7.23Zm2.945-3.26h-1.47v7.08h1.47V3.97Zm5.707 3.05h-2.68V5.14h2.92V3.97h-4.39v7.08h1.47V8.17h2.68V7.02Z"/></svg>