<svg width="36" height="34" viewBox="0 0 36 34" fill="none" xmlns="http://www.w3.org/2000/svg">
<g id="AI" filter="url(#filter0_d_1570_13298)">
<path d="M19.2043 21.5336L18.6445 20.0622H13.8782L13.3184 21.5656C13.0998 22.1521 12.9132 22.5493 12.7586 22.7572C12.604 22.9598 12.3507 23.0611 11.9989 23.0611C11.7003 23.0611 11.4364 22.9518 11.2072 22.7332C10.9779 22.5146 10.8633 22.2667 10.8633 21.9895C10.8633 21.8295 10.8899 21.6642 10.9433 21.4936C10.9966 21.323 11.0845 21.0858 11.2072 20.7819L14.2061 13.1687C14.2914 12.9501 14.3927 12.6889 14.51 12.385C14.6326 12.0758 14.7605 11.8198 14.8938 11.6173C15.0324 11.4147 15.211 11.2521 15.4296 11.1294C15.6536 11.0015 15.9281 10.9375 16.2533 10.9375C16.5839 10.9375 16.8585 11.0015 17.077 11.1294C17.301 11.2521 17.4796 11.412 17.6128 11.6093C17.7515 11.8065 17.8661 12.0198 17.9567 12.249C18.0527 12.4729 18.1726 12.7742 18.3166 13.1527L21.3795 20.7179C21.6194 21.2937 21.7394 21.7122 21.7394 21.9735C21.7394 22.2454 21.6247 22.4959 21.3955 22.7252C21.1716 22.9491 20.8997 23.0611 20.5798 23.0611C20.3932 23.0611 20.2332 23.0264 20.0999 22.9571C19.9667 22.8931 19.8547 22.8052 19.7641 22.6932C19.6734 22.5759 19.5748 22.4 19.4682 22.1654C19.3669 21.9255 19.2789 21.7149 19.2043 21.5336ZM14.502 18.2788H18.0047L16.2373 13.4406L14.502 18.2788Z" fill="url(#paint0_linear_1570_13298)"/>
<path d="M23.5867 21.6136V12.377C23.5867 11.8971 23.696 11.5373 23.9146 11.2974C24.1332 11.0575 24.4157 10.9375 24.7623 10.9375C25.1195 10.9375 25.4074 11.0575 25.626 11.2974C25.8499 11.5319 25.9618 11.8918 25.9618 12.377V21.6136C25.9618 22.0987 25.8499 22.4613 25.626 22.7012C25.4074 22.9411 25.1195 23.0611 24.7623 23.0611C24.4211 23.0611 24.1385 22.9411 23.9146 22.7012C23.696 22.456 23.5867 22.0934 23.5867 21.6136Z" fill="url(#paint1_linear_1570_13298)"/>
</g>
<defs>
<filter id="filter0_d_1570_13298" x="0.863281" y="0.9375" width="35.0985" height="32.1235" filterUnits="userSpaceOnUse" color-interpolation-filters="sRGB">
<feFlood flood-opacity="0" result="BackgroundImageFix"/>
<feColorMatrix in="SourceAlpha" type="matrix" values="0 0 0 0 0 0 0 0 0 0 0 0 0 0 0 0 0 0 127 0" result="hardAlpha"/>
<feOffset/>
<feGaussianBlur stdDeviation="5"/>
<feComposite in2="hardAlpha" operator="out"/>
<feColorMatrix type="matrix" values="0 0 0 0 0 0 0 0 0 0 0 0 0 0 0 0 0 0 0.6 0"/>
<feBlend mode="normal" in2="BackgroundImageFix" result="effect1_dropShadow_1570_13298"/>
<feBlend mode="normal" in="SourceGraphic" in2="effect1_dropShadow_1570_13298" result="shape"/>
</filter>
<linearGradient id="paint0_linear_1570_13298" x1="18.8844" y1="8.99477" x2="18.8844" y2="25.0506" gradientUnits="userSpaceOnUse">
<stop stop-color="white"/>
<stop offset="1" stop-color="#F5F5F5"/>
</linearGradient>
<linearGradient id="paint1_linear_1570_13298" x1="18.8844" y1="8.99477" x2="18.8844" y2="25.0506" gradientUnits="userSpaceOnUse">
<stop stop-color="white"/>
<stop offset="1" stop-color="#F5F5F5"/>
</linearGradient>
</defs>
</svg>
