<svg width="126" height="15" viewBox="0 0 126 15" fill="none" xmlns="http://www.w3.org/2000/svg">
<g clip-path="url(#clip0_2354_13688)">
<path d="M59.0752 12.0698H57.9104V2.19839L59.0752 1.94299V12.0698ZM62.1889 4.90585L63.1009 5.57013L60.8604 8.40529L63.4556 11.5474L62.5565 12.2504L59.4944 8.46978L62.1902 4.90714L62.1889 4.90585Z" fill="#808080"/>
<path d="M64.4864 10.1932C64.4864 9.48637 64.7212 8.9472 65.1894 8.57701C65.6576 8.20681 66.3387 8.02107 67.2325 8.02107H68.5753V7.57348C68.5753 6.49256 68.1019 5.9521 67.1577 5.9521C66.8546 5.9521 66.536 5.99467 66.2019 6.0798C65.8679 6.16493 65.5622 6.2707 65.2835 6.3984L64.9417 5.56772C65.2874 5.37166 65.6615 5.22074 66.0626 5.11368C66.4625 5.00791 66.8533 4.95374 67.2325 4.95374C68.8694 4.95374 69.6885 5.83472 69.6885 7.59799V12.0674H68.8281L68.6888 11.3012C68.3431 11.5824 67.9729 11.7991 67.5808 11.9526C67.1887 12.1061 66.8159 12.1822 66.4599 12.1822C65.8446 12.1822 65.3609 12.0055 65.0114 11.6521C64.6605 11.2987 64.4851 10.8111 64.4851 10.1906M66.6702 11.238C66.8301 11.238 66.9952 11.2174 67.1681 11.1735C67.3396 11.131 67.5125 11.0755 67.6853 11.0071C67.8569 10.9388 68.0194 10.8549 68.1703 10.7582C68.3225 10.6602 68.4566 10.5557 68.574 10.4448V8.81048H67.3641C66.7514 8.81048 66.3038 8.91625 66.0214 9.12908C65.7402 9.34191 65.5996 9.67857 65.5996 10.1378C65.5996 10.8704 65.9569 11.2355 66.6715 11.2355" fill="#808080"/>
<path d="M72.9246 12.0698H71.7599V2.19839L72.9246 1.94299V12.0698ZM76.0371 4.90585L76.9491 5.57013L74.7098 8.40529L77.3038 11.5474L76.406 12.2504L73.3439 8.46978L76.0384 4.90714L76.0371 4.90585Z" fill="#808080"/>
<path d="M78.3357 10.1932C78.3357 9.48637 78.5705 8.9472 79.0374 8.57701C79.5056 8.20681 80.1867 8.02107 81.0818 8.02107H82.4233V7.57348C82.4233 6.49256 81.9512 5.9521 81.0057 5.9521C80.7013 5.9521 80.384 5.99467 80.0499 6.0798C79.7159 6.16493 79.4102 6.2707 79.1328 6.3984L78.791 5.56772C79.1367 5.37166 79.5108 5.22074 79.9106 5.11368C80.3105 5.00791 80.7013 4.95374 81.0818 4.95374C82.7187 4.95374 83.5378 5.83472 83.5378 7.59799V12.0674H82.6761L82.5368 11.3012C82.1911 11.5824 81.8222 11.7991 81.4301 11.9526C81.038 12.1061 80.6652 12.1822 80.3105 12.1822C79.6939 12.1822 79.2115 12.0055 78.8607 11.6521C78.5111 11.2987 78.3357 10.8111 78.3357 10.1906M80.5207 11.238C80.6794 11.238 80.8458 11.2174 81.0186 11.1735C81.1902 11.131 81.363 11.0755 81.5359 11.0071C81.7074 10.9388 81.87 10.8549 82.0209 10.7582C82.1718 10.6602 82.3059 10.5557 82.4233 10.4448V8.81048H81.2134C80.5994 8.81048 80.1518 8.91625 79.8707 9.12908C79.5882 9.34191 79.4489 9.67857 79.4489 10.1378C79.4489 10.8704 79.8062 11.2355 80.5207 11.2355" fill="#808080"/>
<path d="M88.2215 4.96997C89.1838 4.96997 89.9383 5.2847 90.4865 5.91545C91.036 6.5462 91.3095 7.44783 91.3095 8.62291C91.3095 9.79799 91.0373 10.6712 90.493 11.2917C89.9487 11.9134 89.1915 12.2243 88.2215 12.2243C87.2515 12.2243 86.5047 11.9134 85.9565 11.2917C85.4083 10.67 85.1335 9.77993 85.1335 8.62291C85.1335 7.46589 85.4096 6.54491 85.9629 5.91545C86.5163 5.28599 87.2696 4.96997 88.2228 4.96997M88.2228 5.91545C87.6153 5.91545 87.1496 6.14505 86.8246 6.60554C86.4995 7.06474 86.337 7.73805 86.337 8.6242C86.337 9.51035 86.4995 10.163 86.8246 10.6093C87.1496 11.0569 87.6153 11.2801 88.2228 11.2801C88.8303 11.2801 89.3089 11.0569 89.6339 10.6093C89.959 10.163 90.1215 9.50132 90.1215 8.6242C90.1215 7.74708 89.959 7.06603 89.6339 6.60554C89.3089 6.14505 88.8381 5.91545 88.2228 5.91545Z" fill="#808080"/>
<path d="M93.4728 11.8352V2.18694L95.2438 1.86963V5.31877C95.6669 5.05434 96.2215 4.86989 96.8303 4.86989C98.7071 4.86989 99.5791 6.15203 99.5791 8.3861C99.5791 10.8046 98.2569 12.2454 96.0629 12.2454C95.0451 12.2454 93.9616 12.0468 93.4728 11.8352ZM95.2438 6.45515V10.8704C95.5211 10.9104 95.7069 10.9104 95.8784 10.9104C96.989 10.9104 97.7823 10.21 97.7823 8.4248C97.7823 7.07688 97.4521 6.2965 96.1957 6.2965C95.7997 6.2965 95.4553 6.38937 95.2438 6.45515Z" fill="#808080"/>
<path d="M102.632 6.78737V12.0475H100.861V5.08215H102.13L102.407 5.84833C103.002 5.22661 103.835 4.87061 104.588 4.87061C104.813 4.87061 105.012 4.8835 105.183 4.93639L104.997 6.65451C104.72 6.58873 104.429 6.53584 103.98 6.53584C103.504 6.53584 103.028 6.64161 102.632 6.78737Z" fill="#808080"/>
<path d="M108.647 7.80508H109.757V7.56774C109.757 6.80156 109.519 6.36429 108.475 6.36429C107.828 6.36429 107.233 6.49585 106.598 6.82735L106.11 5.611C106.784 5.14793 107.775 4.87061 108.687 4.87061C110.471 4.87061 111.41 5.74256 111.41 7.55356V12.0475H110.168L109.969 11.4529C109.256 12.0075 108.488 12.2332 107.868 12.2332C106.506 12.2332 105.752 11.4271 105.752 10.0392C105.752 8.57256 106.757 7.80508 108.647 7.80508ZM109.757 10.3036V8.94147H108.805C107.854 8.94147 107.352 9.32456 107.352 10.025C107.352 10.5267 107.643 10.8582 108.224 10.8582C108.804 10.8582 109.44 10.5809 109.757 10.3036Z" fill="#808080"/>
<path d="M112.771 2.80794L114.066 1.5L115.361 2.80794L114.066 4.10298L112.771 2.80794ZM114.952 12.0473H113.181V5.082H114.952V12.0473Z" fill="#808080"/>
<path d="M116.776 5.08215H118.031L118.295 5.78255C118.917 5.2279 119.776 4.87061 120.516 4.87061C122.076 4.87061 122.856 5.83544 122.856 7.58064V12.0488H121.085V7.52776C121.085 6.74738 120.795 6.41717 119.856 6.41717C119.486 6.41717 118.957 6.52294 118.548 6.6816V12.0475H116.777V5.08215H116.776Z" fill="#808080"/>
<path d="M0 4.77307H2.4598C4.16889 4.77307 4.93379 5.7895 4.93379 7.0768C4.93379 8.3641 4.17018 9.39471 2.47399 9.39471H0.880987V12.0532H0V4.77307ZM2.44561 8.61175C3.61553 8.61175 4.06699 7.95005 4.06699 7.0768C4.06699 6.20355 3.61553 5.55603 2.43142 5.55603H0.880987V8.61304H2.44432L2.44561 8.61175Z" fill="#808080"/>
<path d="M5.92859 9.35104C5.92859 7.64453 6.92438 6.52234 8.40258 6.52234C9.88078 6.52234 10.8766 7.64582 10.8766 9.35104C10.8766 11.0563 9.88078 12.1656 8.40258 12.1656C6.92438 12.1656 5.92859 11.0421 5.92859 9.35104ZM10.0369 9.35104C10.0369 8.25594 9.52477 7.27563 8.40129 7.27563C7.2778 7.27563 6.76701 8.25723 6.76701 9.35104C6.76701 10.4449 7.27909 11.4123 8.40129 11.4123C9.52348 11.4123 10.0369 10.4449 10.0369 9.35104Z" fill="#808080"/>
<path d="M11.5433 6.59424H12.4256L13.6059 10.7734H13.6626L14.8274 6.59424H15.7238L16.8757 10.7593H16.9325L18.1127 6.59424H18.9937L17.3297 12.053H16.5055L15.3111 7.85961H15.2259L14.0315 12.053H13.2073L11.5433 6.59424Z" fill="#808080"/>
<path d="M19.6616 9.36523C19.6616 7.6871 20.6432 6.52234 22.1214 6.52234C23.2591 6.52234 24.4677 7.21887 24.4677 9.25172V9.60773H20.5052C20.5439 10.7777 21.2237 11.4136 22.2078 11.4136C22.8657 11.4136 23.3597 11.1298 23.5725 10.561L24.3826 10.788C24.1272 11.6122 23.3159 12.1669 22.2078 12.1669C20.6303 12.1669 19.6629 11.0434 19.6629 9.36652M23.6151 8.88282C23.6151 7.95926 23.0321 7.27692 22.1227 7.27692C21.163 7.27692 20.562 8.03408 20.5052 8.88282H23.6151Z" fill="#808080"/>
<path d="M25.746 6.5938H26.556V7.41803H26.6128C26.8114 6.87757 27.3802 6.50867 28.0342 6.50867C28.158 6.50867 28.3786 6.51512 28.4754 6.52286V7.37547C28.4186 7.36128 28.1877 7.31871 27.9633 7.31871C27.1674 7.31871 26.5844 7.85917 26.5844 8.59827V12.0526H25.746V6.5938Z" fill="#808080"/>
<path d="M29.0442 9.36523C29.0442 7.6871 30.0258 6.52234 31.504 6.52234C32.6417 6.52234 33.8503 7.21887 33.8503 9.25172V9.60773H29.8878C29.9265 10.7777 30.6062 11.4136 31.5904 11.4136C32.2483 11.4136 32.7423 11.1298 32.9551 10.561L33.7651 10.788C33.5098 11.6122 32.6984 12.1669 31.5904 12.1669C30.0129 12.1669 29.0455 11.0434 29.0455 9.36652M32.9977 8.88282C32.9977 7.95926 32.4146 7.27692 31.5053 7.27692C30.5456 7.27692 29.9445 8.03408 29.8878 8.88282H32.9977Z" fill="#808080"/>
<path d="M34.8733 9.33667C34.8733 7.61597 35.8265 6.52215 37.2054 6.52215C38.2721 6.52215 38.5985 7.17612 38.7829 7.45989H38.8539V4.77307H39.6923V12.0519H38.8822V11.2134H38.7829C38.5985 11.5114 38.2425 12.1667 37.1912 12.1667C35.8265 12.1667 34.8733 11.0716 34.8733 9.33796M38.868 9.32377C38.868 8.10096 38.3276 7.27673 37.3047 7.27673C36.2818 7.27673 35.713 8.17191 35.713 9.32377C35.713 10.4756 36.2535 11.4134 37.3047 11.4134C38.356 11.4134 38.868 10.5608 38.868 9.32377Z" fill="#808080"/>
<path d="M44.27 4.77307H45.1084V7.45989H45.1794C45.3638 7.17612 45.6915 6.52215 46.7569 6.52215C48.1358 6.52215 49.089 7.61726 49.089 9.33667C49.089 11.0561 48.1358 12.1654 46.7711 12.1654C45.7186 12.1654 45.3638 11.5114 45.1794 11.2134H45.0801V12.0519H44.27V4.77307ZM46.6589 11.4121C47.7114 11.4121 48.2506 10.4885 48.2506 9.32248C48.2506 8.15643 47.7243 7.27544 46.6589 7.27544C45.5934 7.27544 45.0955 8.09967 45.0955 9.32248C45.0955 10.5453 45.6502 11.4121 46.6589 11.4121Z" fill="#808080"/>
<path d="M50.0992 14.0008L50.312 13.2617C50.9234 13.4178 51.3 13.3404 51.6057 12.5084L51.7618 12.0815L49.7432 6.59302H50.6525L52.1591 10.9438H52.2159L53.7224 6.59302H54.6318L52.3139 12.8489C51.9979 13.699 51.4639 14.1001 50.708 14.1001C50.4242 14.1001 50.1817 14.0434 50.0966 14.0008" fill="#808080"/>
</g>
<defs>
<clipPath id="clip0_2354_13688">
<rect width="126" height="14" fill="white" transform="translate(0 0.5)"/>
</clipPath>
</defs>
</svg>
