<svg xmlns="http://www.w3.org/2000/svg" width="25" height="9"><path fill="#000" fill-rule="nonzero" d="M3.245 8.217c.36 0 .72-.042 1.083-.127.363-.084.692-.22.985-.406.293-.188.534-.43.72-.727.188-.296.281-.654.281-1.072 0-.389-.072-.711-.215-.968a1.91 1.91 0 0 0-.572-.638 3.03 3.03 0 0 0-.808-.401c-.3-.1-.607-.186-.919-.259a35.286 35.286 0 0 0-.918-.204 4.81 4.81 0 0 1-.808-.236 1.59 1.59 0 0 1-.572-.368.819.819 0 0 1-.215-.589c0-.257.05-.471.149-.643.099-.173.23-.31.395-.413.165-.103.354-.176.567-.22.213-.044.429-.066.649-.066.543 0 .988.126 1.336.38.349.252.552.661.611 1.226h.99c-.015-.433-.097-.805-.247-1.117A2.175 2.175 0 0 0 5.12.594a2.54 2.54 0 0 0-.907-.451A4.197 4.197 0 0 0 3.091 0c-.36 0-.71.046-1.05.138a2.888 2.888 0 0 0-.913.417 2.116 2.116 0 0 0-.644.715C.323 1.56.242 1.903.242 2.3c0 .36.072.658.215.897.143.238.333.432.571.583.239.15.508.27.809.362.3.092.607.173.919.242l.918.204c.3.066.57.152.808.259.239.106.43.243.572.412.143.169.215.389.215.66 0 .286-.059.52-.176.704a1.28 1.28 0 0 1-.462.434 2.09 2.09 0 0 1-.644.226 3.901 3.901 0 0 1-.709.066c-.293 0-.58-.037-.858-.11a2.135 2.135 0 0 1-.732-.341 1.75 1.75 0 0 1-.505-.588 1.774 1.774 0 0 1-.193-.853H0c0 .477.086.89.259 1.237.172.349.406.635.704.859.297.223.641.39 1.034.5.392.11.808.165 1.248.165Zm6.6-.055c.645 0 1.18-.161 1.606-.484.425-.323.7-.803.825-1.441h-.924c-.08.374-.248.653-.5.836-.254.183-.578.275-.974.275-.308 0-.576-.051-.803-.154a1.574 1.574 0 0 1-.561-.412 1.607 1.607 0 0 1-.319-.595 2.257 2.257 0 0 1-.088-.709h4.257a4.528 4.528 0 0 0-.094-1.089 3.152 3.152 0 0 0-.418-1.056 2.49 2.49 0 0 0-.803-.798c-.333-.209-.753-.313-1.259-.313a2.52 2.52 0 0 0-1.92.836 2.84 2.84 0 0 0-.555.935c-.132.36-.198.755-.198 1.188.015.433.079.832.192 1.199.114.367.285.682.512.946.227.264.508.47.841.616.334.147.728.22 1.183.22Zm1.529-3.509H8.107c.015-.22.062-.427.143-.621.08-.195.19-.365.33-.512.14-.147.306-.262.5-.346.195-.085.413-.127.655-.127a1.6 1.6 0 0 1 1.15.467c.143.144.256.314.34.512.085.198.134.407.149.627Zm2.893 3.388V4.829c0-.257.035-.493.104-.71.07-.216.175-.405.314-.566.14-.161.313-.286.522-.374.21-.088.457-.132.743-.132.36 0 .642.103.847.308.205.205.308.484.308.836v3.85h.935v-3.74a3.52 3.52 0 0 0-.093-.842 1.594 1.594 0 0 0-.325-.654 1.537 1.537 0 0 0-.605-.429c-.25-.103-.561-.154-.935-.154-.843 0-1.46.345-1.848 1.034h-.022v-.902h-.88v5.687h.935Zm7.491.121c.396 0 .759-.07 1.089-.209.33-.14.572-.367.726-.682h.022v.77h.935V.187h-.935v2.926h-.022a1.506 1.506 0 0 0-.38-.424 2.156 2.156 0 0 0-.478-.275 2.402 2.402 0 0 0-.506-.148 2.77 2.77 0 0 0-.473-.044c-.433 0-.812.079-1.139.236-.326.158-.597.37-.814.638a2.693 2.693 0 0 0-.484.941c-.106.36-.159.74-.159 1.144 0 .403.055.785.165 1.144.11.36.273.675.49.946.216.271.487.488.813.649.327.161.71.242 1.15.242Zm.132-.814c-.3 0-.563-.059-.787-.176a1.563 1.563 0 0 1-.55-.473 2.093 2.093 0 0 1-.319-.676 2.908 2.908 0 0 1-.104-.776c0-.279.03-.55.088-.814.059-.264.154-.499.286-.704.132-.205.308-.37.528-.495.22-.125.488-.187.803-.187.323 0 .598.06.825.181.227.121.413.281.555.479a2 2 0 0 1 .314.688 3.298 3.298 0 0 1 .006 1.59 2.047 2.047 0 0 1-.303.686 1.61 1.61 0 0 1-.539.49c-.22.125-.488.187-.803.187Z" opacity=".7"/></svg>