<svg xmlns="http://www.w3.org/2000/svg" width="22" height="11"><path fill="#000" fill-rule="nonzero" d="m2.171 2.379.559-.715C2.236 1.235 1.625.793 1.014.338l-.52.624c.546.403 1.118.858 1.677 1.417Zm1.196 6.916C4.836 8.58 5.785 7.67 6.292 6.227A6.324 6.324 0 0 0 9.49 9.165l.481-.754c-1.443-.559-2.431-1.43-3.055-2.6h2.795v-.767H6.565c.078-.416.117-.897.13-1.417h1.859v-.689c.325.299.676.598 1.105.871l.494-.741C8.996 2.379 8.177 1.495 7.722.429H5.577v.741h1.612a6.948 6.948 0 0 0 1.313 1.716H4.277a9.885 9.885 0 0 0 1.17-1.729L4.719.754c-.286.65-1.157 1.885-2.08 2.574l.559.637a9.514 9.514 0 0 0 1.04-1.014v.676h1.586a10.778 10.778 0 0 1-.13 1.417H3.055v.767h2.47C5.161 7.072 4.381 7.904 2.886 8.58l.481.715ZM1.846 4.888l.585-.702A19.227 19.227 0 0 0 .637 2.821l-.494.65c.52.351 1.105.845 1.703 1.417ZM.455 10.803a16.79 16.79 0 0 0 1.56-1.443c.312.468.78.897 1.43 1.079.819.234 1.963.299 3.211.299h.468c.975 0 1.924-.026 2.821-.065l.247-.923c-1.105.104-2.301.195-3.484.195-1.157 0-2.405-.026-3.159-.273-.533-.182-.897-.559-1.196-1.105V5.85H.169v.806h1.313v2.093C1.014 9.204.52 9.581 0 9.971l.455.832Zm13.065.247V3.133c.377-.845.715-1.768 1.014-2.834L13.702 0c-.429 1.781-1.326 3.835-2.47 5.187l.416.949c.364-.416.689-.871 1.001-1.339-.026.481-.039.988-.039 1.443v4.81h.91Zm7.007-9.802V.507h-5.356v.741h5.356Zm.858 1.677v-.767h-7.137v.767h7.137Zm-.832 1.677v-.767h-5.447v.767h5.447Zm0 1.638v-.741h-5.447v.741h5.447Zm-4.745 4.784v-.598h3.978v.494h.884V7.163h-5.746v3.861h.884Zm3.978-1.326h-3.978V7.904h3.978v1.794Z" opacity=".7"/></svg>