<svg xmlns="http://www.w3.org/2000/svg" width="21" height="11"><path fill="#000" fill-rule="nonzero" d="M8.357 7.37V0h-.8v2.616H5.135v.72h2.422v4.033h.8ZM.58 6.106c.476-.269.96-.69 1.45-1.265s.836-1.1 1.037-1.576c.19.408.513.86.97 1.356.456.496.94.901 1.452 1.216l.537-.58c-.662-.311-1.26-.815-1.794-1.512-.533-.696-.8-1.388-.8-2.076v-.38h2.25V.558H.35v.73h2.299v.381c0 .752-.257 1.494-.77 2.227C1.362 4.629.737 5.18 0 5.554l.58.553Zm8.051 3.915V9.32H2.782V6.633h-.805v3.39H8.63Zm10.925-6.305.42-.65c-1.093-.086-2.017-.398-2.772-.937-.756-.54-1.134-1.07-1.134-1.593V.231h-.795v.306c0 .512-.377 1.037-1.133 1.574-.755.537-1.68.852-2.771.945l.472.65a6.385 6.385 0 0 0 2.323-.819c.743-.432 1.249-.859 1.518-1.281.29.455.8.89 1.53 1.305.73.415 1.511.684 2.342.806Zm.924 1.837v-.725h-4.399v-1.52h-.816v1.52h-4.4v.725h9.615Zm-4.807 4.7c1.074 0 1.896-.172 2.465-.516.57-.344.854-.818.854-1.424 0-.59-.285-1.057-.857-1.399-.57-.342-1.392-.513-2.462-.513-1.07 0-1.892.171-2.463.513-.57.342-.856.809-.856 1.4 0 .605.284 1.079.854 1.423.569.344 1.39.515 2.465.515Zm0-.683c-.81 0-1.426-.11-1.85-.333-.425-.222-.637-.53-.637-.924 0-.386.209-.688.626-.905.417-.216 1.037-.325 1.86-.325.82 0 1.44.109 1.86.325.418.217.628.519.628.905 0 .394-.213.702-.64.924-.426.222-1.041.333-1.847.333Z" opacity=".7"/></svg>