<svg xmlns="http://www.w3.org/2000/svg" width="20" height="20"><g fill="none" fill-rule="evenodd"><path d="M0 0h20v20H0z"/><path fill="#262626" d="M10.922 13.021h2.06v-2.057h-2.06zm4.985 0h2.06v-2.057h-2.06zm0 4.979h2.06v-2.056h-2.06zm-4.985 0h2.059v-2.056h-2.06zm2.493-2.49h2.06v-2.057h-2.06zM8.495 2H2.533A.534.534 0 0 0 2 2.533v5.953c0 .295.24.533.534.533h5.96a.534.534 0 0 0 .534-.533V2.533A.534.534 0 0 0 8.494 2zM7.96 3.067v4.886H3.068V3.067zM17.466 2h-5.96a.534.534 0 0 0-.534.533v5.953c0 .295.239.533.534.533h5.96A.534.534 0 0 0 18 8.486V2.533A.534.534 0 0 0 17.466 2zm-.534 1.067v4.886H12.04V3.067zm-8.438 7.895h-5.96a.534.534 0 0 0-.534.533v5.953c0 .295.24.533.534.533h5.96a.534.534 0 0 0 .534-.533v-5.953a.534.534 0 0 0-.534-.533zm-.534 1.066v4.887H3.068v-4.887z"/></g></svg>