<svg xmlns="http://www.w3.org/2000/svg" width="20" height="20" fill="none"><g clip-path="url(#a)"><path fill="#000" fill-rule="evenodd" d="m2.072 9.656.291-.683c.4-.942 1.239-2.31 2.494-3.454C6.121 4.368 7.848 3.409 10 3.409c2.152 0 3.88.959 5.143 2.11 1.256 1.143 2.094 2.512 2.494 3.454l.296.695a.846.846 0 0 1-.005.672l-.291.684c-.4.941-1.239 2.31-2.494 3.454-1.264 1.15-2.992 2.108-5.143 2.108-2.152 0-3.88-.957-5.143-2.108-1.256-1.144-2.094-2.513-2.494-3.454l-.296-.695a.846.846 0 0 1 .005-.673ZM13.7 10a3.7 3.7 0 1 1-7.4 0 3.7 3.7 0 0 1 7.4 0ZM10 12.5a2.5 2.5 0 1 0 0-5 2.5 2.5 0 0 0 0 5Z" clip-rule="evenodd"/></g><defs><clipPath id="a"><path fill="#fff" d="M0 0h20v20H0z"/></clipPath></defs></svg>