<svg xmlns="http://www.w3.org/2000/svg" width="20" height="20" fill="none"><g clip-path="url(#a)"><path fill="#000" fill-rule="evenodd" d="m2.072 9.656.291-.683c.4-.942 1.239-2.31 2.494-3.454C6.121 4.368 7.848 3.409 10 3.409c2.103 0 3.8.915 5.056 2.031l1.519-1.518 1.235 1.237L5.435 17.533 4.2 16.297l1.29-1.29a9.293 9.293 0 0 1-.633-.528c-1.256-1.144-2.094-2.513-2.494-3.454l-.296-.695a.846.846 0 0 1 .005-.673Zm5.572 3.197.854-.855a2.5 2.5 0 1 1 3.5-3.5l.855-.855a3.7 3.7 0 1 0-5.21 5.21Zm.891 3.58 8.543-8.542c.236.393.423.762.56 1.082l.295.695a.846.846 0 0 1-.005.672l-.291.684c-.4.941-1.239 2.31-2.494 3.454-1.264 1.15-2.992 2.108-5.143 2.108-.513 0-1-.054-1.465-.152Z" clip-rule="evenodd"/></g><defs><clipPath id="a"><path fill="#fff" d="M0 0h20v20H0z"/></clipPath></defs></svg>