<svg xmlns="http://www.w3.org/2000/svg" width="59" height="69"><g fill="none" fill-rule="nonzero"><path fill="#3961E1" d="M29.814.12a1.978 1.978 0 0 0-.708-.12c-.242 0-.483.034-.708.12L4.091 8.853l-.086.034A6.303 6.303 0 0 0 0 14.705v22.11c0 7.301 3.211 14.535 8.355 19.704 3.678 3.702 9.633 7.42 13.414 9.826 2.676 1.706 4.247 2.508 7.32 2.559h.034c3.194-.034 4.558-.836 7.096-2.422 4.626-2.866 9.943-6.278 13.638-9.98 5.161-5.17 8.355-12.403 8.355-19.704v-22.11c-.017-2.695-1.744-4.981-4.16-5.851l-.363-.137L29.814.12z"/><path fill="#FEE500" d="M29.106 17.82c-8.846 0-16.038 6.755-16.038 15.07 0 6.149 2.54 9.076 6 11.76h.016v7.207a.4.4 0 0 0 .648.329l6.085-4.59.136.052c1.023.19 2.08.294 3.153.294 8.846 0 16.038-6.755 16.038-15.07 0-8.314-7.175-15.052-16.038-15.052z"/></g></svg>