<svg xmlns="http://www.w3.org/2000/svg" width="144" height="36"><g fill="none" fill-rule="evenodd"><circle cx="54" cy="18" r="18" fill="#000" fill-opacity=".04"/><circle cx="126" cy="18" r="18" fill="#000" fill-opacity=".02"/><g opacity=".3"><path d="M0 0h36v36H0z"/><path fill="#000" fill-rule="nonzero" d="M11.5 20a1.5 1.5 0 1 0 0-3 1.5 1.5 0 0 0 0 3zm6 0a1.5 1.5 0 1 0 0-3 1.5 1.5 0 0 0 0 3zm6 0a1.5 1.5 0 1 0 0-3 1.5 1.5 0 0 0 0 3z"/></g><g opacity=".3"><path d="M36 0h36v36H36z"/><path fill="#000" fill-rule="nonzero" d="M47.5 20a1.5 1.5 0 1 0 0-3 1.5 1.5 0 0 0 0 3zm6 0a1.5 1.5 0 1 0 0-3 1.5 1.5 0 0 0 0 3zm6 0a1.5 1.5 0 1 0 0-3 1.5 1.5 0 0 0 0 3z"/></g><g opacity=".1"><path d="M72 0h36v36H72z"/><path fill="#000" fill-rule="nonzero" d="M83.5 20a1.5 1.5 0 1 0 0-3 1.5 1.5 0 0 0 0 3zm6 0a1.5 1.5 0 1 0 0-3 1.5 1.5 0 0 0 0 3zm6 0a1.5 1.5 0 1 0 0-3 1.5 1.5 0 0 0 0 3z"/></g><g opacity=".3"><path d="M108 0h36v36h-36z"/><path fill="#000" fill-rule="nonzero" d="M119.5 20a1.5 1.5 0 1 0 0-3 1.5 1.5 0 0 0 0 3zm6 0a1.5 1.5 0 1 0 0-3 1.5 1.5 0 0 0 0 3zm6 0a1.5 1.5 0 1 0 0-3 1.5 1.5 0 0 0 0 3z"/></g></g></svg>