<svg xmlns="http://www.w3.org/2000/svg" width="40" height="40"><g fill="none" fill-rule="nonzero"><path fill="#EBEBEB" d="M20 0c11.046 0 20 8.954 20 20s-8.954 20-20 20S0 31.046 0 20 8.954 0 20 0Zm0 2.5C10.335 2.5 2.5 10.335 2.5 20S10.335 37.5 20 37.5 37.5 29.665 37.5 20 29.665 2.5 20 2.5Z"/><path fill="#E9E9E9" d="M26.15 23.727a1.252 1.252 0 0 1 1.506-.733c.664.19 1.048.88.856 1.543-.953 3.308-4.385 5.615-8.341 5.615-3.955 0-7.385-2.305-8.34-5.612a1.25 1.25 0 0 1 2.404-.69c.635 2.203 3.132 3.808 5.936 3.808 2.805 0 5.302-1.607 5.938-3.81Zm-6.431-6.814a1.151 1.151 0 0 1 .516 2.241c-.366.105-.681.59-.681 1.176 0 .587.316 1.072.682 1.176a1.15 1.15 0 0 1-.32 2.258c-.107 0-.214-.015-.319-.045-1.387-.397-2.352-1.791-2.352-3.389 0-1.596.964-2.99 2.35-3.388Zm8.576-3.552c.875 0 1.59.712 1.59 1.585v1.866c0 .872-.715 1.585-1.59 1.585h-.348a1.593 1.593 0 0 1-1.59-1.585v-1.866c0-.873.715-1.585 1.59-1.585Zm-16.157 0c.875 0 1.591.712 1.591 1.585v1.866c0 .872-.716 1.585-1.591 1.585h-.348a1.593 1.593 0 0 1-1.59-1.585v-1.866c0-.873.715-1.585 1.59-1.585Z"/></g></svg>