<svg xmlns="http://www.w3.org/2000/svg" width="68" height="78"><g fill="none" fill-rule="evenodd"><path fill="#009A3E" d="M55.382 50.062 34.564 61.361 20.418 49.342V31.068l36.384-1.43z"/><path fill="#009A3E" d="M56.8 15.411s4.726-1.062 8.393 4.334c3.666 5.396 1.625 21.257-9.452 23.056l-6.097.858L56.8 15.411Z"/><path fill="#0F141B" fill-rule="nonzero" d="M56.962 14.517c2.029-.25 4.428.28 6.699 2.212A12.566 12.566 0 0 1 65.9 19.26c2.025 2.981 2.398 8.587.916 13.605-1.713 5.8-5.518 9.902-10.939 10.782a.858.858 0 0 1-.273-1.695c4.697-.762 8.03-4.356 9.571-9.575 1.349-4.565 1.01-9.648-.69-12.15-.597-.88-1.244-1.605-1.93-2.19-1.868-1.587-3.794-2.013-5.384-1.817l-.102.014-.082.014a.859.859 0 0 1-.374-1.675l.11-.022c.064-.012.145-.024.24-.035Z"/><path fill="#009A3E" d="M25.267 4.782C32.029.367 46.94-.859 54.11 7.644c7.17 8.503 4.237 20.277 2.118 22.893l-24.99.582 1.966 4.14L21.52 37.65s-6.275 1.002-12.549.654c-4.81-.266-3.34-6.132-1.792-6.622-.132-.034-2.995-.823-3.015-5.274-.027-6.01 11.366-6.623 11.978-7.317 0 0 1.917-9.603 9.126-14.309Z"/><path fill="#0F141B" fill-rule="nonzero" d="M24.8 4.063C28.44 1.687 34.077.306 39.568.51c6.245.233 11.697 2.43 15.196 6.578 3.376 4.005 4.868 8.99 4.745 14.23-.096 4.072-1.243 8.064-2.616 9.76a.854.854 0 0 1-1.203.124.86.86 0 0 1-.125-1.207c1.102-1.36 2.146-4.994 2.233-8.718.114-4.845-1.255-9.42-4.34-13.08-3.155-3.741-8.154-5.754-13.954-5.971-5.155-.193-10.444 1.103-13.77 3.275-2.119 1.383-3.9 3.301-5.368 5.625-1.126 1.782-2.005 3.696-2.663 5.611-.23.67-.417 1.291-.562 1.847l-.069.272-.093.402a.86.86 0 0 1-.304.505l-.057.046c-.282.21-.413.269-1.54.518l-1.41.307c-1.326.293-2.252.532-3.24.854-3.505 1.144-5.42 2.716-5.41 4.915.008 1.764.485 2.96 1.257 3.733a3.073 3.073 0 0 0 .98.666l.075.028.047.016a.859.859 0 0 1-.399 1.67 3.257 3.257 0 0 1-.65-.25 4.776 4.776 0 0 1-1.263-.915c-1.097-1.1-1.748-2.732-1.758-4.94-.014-3.127 2.374-5.139 6.39-6.489l.203-.067c1.06-.346 3-.809 4.317-1.111l1.185-.268.084-.328c.156-.596.354-1.258.6-1.97.698-2.034 1.632-4.068 2.835-5.972 1.593-2.519 3.54-4.617 5.88-6.144Z"/><path fill="#0F141B" fill-rule="nonzero" d="M21.79 28.912a.859.859 0 0 1-.617.982l-.227.044-3.386.62-5.555 1.034c-2.635.498-4.335.834-4.57.908-.353.112-.92 1.374-.89 2.555.035 1.387.751 2.251 2.338 2.383l.134.01c3.035.167 6.297.035 9.483-.288a67.768 67.768 0 0 0 1.873-.215l.604-.082.407-.06a.858.858 0 0 1 .269 1.696l-.556.08-.259.036c-.645.086-1.372.173-2.165.253-3.064.31-6.197.45-9.158.323l-.59-.03c-2.617-.144-4.032-1.78-4.091-4.062-.048-1.858.845-3.843 2.086-4.236l.12-.033c.545-.14 2.309-.485 5.127-1.015l3.713-.692 4.915-.902a.856.856 0 0 1 .995.691Z"/><path fill="#009A3E" d="M55.333 41.984s.326 16.843-.651 24.365c-.978 7.521-.827 9.491-3.586 10.22-2.525.666-5.622-.491-5.785-4.334-.163-3.843 0-5.56-1.06-5.805-1.058-.245-7.251-.572-7.577.736-.326 1.308.163 7.604-1.63 8.83-2.008 1.374-8.718 2.944-8.473-7.44.078-3.33.105-5.583.106-7.108"/><path fill="#0F141B" fill-rule="nonzero" d="M55.317 41.125a.857.857 0 0 1 .867.772l.005.106.026 1.784c.045 3.934.038 8.183-.056 12.177l-.019.75c-.102 3.834-.283 7.003-.556 9.31l-.676 5.375-.023.169c-.547 3.928-1.247 5.217-3.571 5.83-3.452.912-6.687-1.088-6.858-5.126l-.034-.907-.056-1.703c-.073-1.896-.186-2.368-.307-2.396-.54-.125-2.372-.236-3.846-.192l-.399.015c-.713.036-1.32.106-1.774.212a2.544 2.544 0 0 0-.52.17l-.04.02-.015.125a11.79 11.79 0 0 0-.05.71l-.03.754c-.052 1.493-.066 1.827-.119 2.549l-.034.423c-.213 2.418-.665 3.942-1.706 4.653-1.535 1.05-3.949 1.524-5.87.781-2.625-1.014-4.058-3.97-3.94-8.95l.046-2.16c.04-2.026.059-3.657.06-4.929 0-.474.383-.858.856-.858.472 0 .855.385.855.86l-.006 1.187a386.29 386.29 0 0 1-.101 5.94c-.102 4.326.997 6.594 2.844 7.308 1.345.52 3.188.159 4.292-.597.482-.33.842-1.679.998-3.785l.045-.693c.013-.255.025-.542.04-.963l.045-1.258c.035-.887.07-1.297.154-1.63.294-1.181 1.774-1.525 4.319-1.6 1.607-.048 3.571.071 4.281.235.749.174 1.182.717 1.394 1.553l.027.116c.122.549.17 1.155.216 2.457l.059 1.818.026.662c.121 2.869 2.255 4.188 4.712 3.54l.156-.044c1.289-.384 1.683-1.113 2.107-4.014l.05-.35c.104-.752.532-4.248.642-5.094.304-2.335.501-5.743.606-9.942l.01-.372c.085-3.61.098-7.433.066-11.041L54.478 42a.857.857 0 0 1 .839-.875Z"/><path fill="#009A3E" d="M21.03 38.378s-2.033 4.587-1.956 9.738c.082 5.507.928 8.895 4.97 11.937 3.585 2.698 7.984 2.362 7.299-2.38-.686-4.742-3.714-4.324-2.736-11.683"/><path fill="#0F141B" fill-rule="nonzero" d="M20.248 38.029a.854.854 0 0 1 1.129-.436.86.86 0 0 1 .434 1.133l-.074.178-.123.307-.089.236a26.042 26.042 0 0 0-.651 2.003c-.619 2.192-.977 4.456-.945 6.653.088 5.869 1.138 8.636 4.629 11.263 1.593 1.199 3.346 1.729 4.544 1.45 1.116-.258 1.656-1.21 1.394-3.02-.184-1.274-.486-2.057-1.173-3.278l-.257-.448c-1.427-2.482-1.827-4.28-1.307-8.193a.856.856 0 1 1 1.696.227l-.057.457c-.372 3.119-.055 4.516 1.069 6.507l.22.385c.87 1.514 1.271 2.499 1.502 4.097.382 2.64-.653 4.464-2.701 4.94-1.75.406-3.993-.273-5.957-1.75-3.978-2.994-5.218-6.26-5.313-12.611-.035-2.382.349-4.806 1.01-7.147.193-.684.398-1.318.605-1.893l.09-.243c.143-.386.257-.664.325-.817Z"/><path fill="#FED800" d="M24.296 20.098s.633-9.351 8.658-10.502c9.488-1.36 13.327 6.837 13.327 6.837s-2.032 6.007-10.164 6.838c-8.132.831-10.541-1.737-11.821-3.173"/><path fill="#0F141B" fill-rule="nonzero" d="M32.833 8.746c-3.607.518-6.138 2.579-7.734 5.646a15.58 15.58 0 0 0-1.377 3.863l-.064.307c-.13.645-.194 1.155-.216 1.478a.86.86 0 0 0 .216.63c1.128 1.266 2.057 2.014 3.66 2.661 2.18.88 5.068 1.184 8.886.794 3.52-.36 6.255-1.66 8.28-3.605a11.51 11.51 0 0 0 2.02-2.576c.309-.538.497-.968.587-1.235a.861.861 0 0 0-.035-.64l-.063-.13c-.13-.256-.34-.624-.634-1.071a14.985 14.985 0 0 0-2.119-2.549c-2.912-2.804-6.71-4.246-11.407-3.573Zm10.223 4.812c.745.718 1.37 1.488 1.875 2.256l.103.158c.099.155.187.303.266.44l.036.065-.08.172a8.076 8.076 0 0 1-.235.44 9.803 9.803 0 0 1-1.721 2.19c-1.753 1.685-4.134 2.818-7.27 3.138-3.559.364-6.172.089-8.074-.679l-.176-.073c-1.028-.437-1.699-.93-2.447-1.706l-.146-.155.006-.05c.045-.34.11-.72.2-1.131a13.886 13.886 0 0 1 1.222-3.436c1.358-2.61 3.444-4.309 6.46-4.74 4.142-.595 7.428.653 9.98 3.111Z"/><path fill="#0F141B" fill-rule="nonzero" d="M33.85 8.758a1.223 1.223 0 0 1 1.358.977l.013.08 1.672 12.842a1.223 1.223 0 0 1-2.41.397l-.014-.08-1.672-12.841a1.226 1.226 0 0 1 1.053-1.375Z"/><path fill="#FEFEFE" d="M14.511 29.637s.326-4.741 1.711-4.987c1.385-.245 3.667 4.006 3.667 4.006"/><path fill="#0F141B" fill-rule="nonzero" d="M16.073 23.805c.713-.126 1.372.23 2.06.899.392.382.792.871 1.2 1.446.328.46.641.95.932 1.439l.145.247.232.413a.86.86 0 0 1-.347 1.163.854.854 0 0 1-1.122-.285l-.125-.222a19.837 19.837 0 0 0-.184-.32l-.068-.116a19.646 19.646 0 0 0-.856-1.323c-.353-.497-.692-.911-.999-1.21a2.685 2.685 0 0 0-.433-.355l-.083-.047-.042-.02c-.056.059-.12.152-.185.277l-.04.08c-.17.35-.324.849-.454 1.45-.112.517-.2 1.077-.266 1.637l-.032.283-.04.432-.001.024a.857.857 0 1 1-1.707-.119l.019-.232.027-.282.034-.308c.072-.611.169-1.223.294-1.8.396-1.827.943-2.956 2.041-3.151Z"/><path fill="#FEFEFE" d="M4.652 51.713S.089 54.33 1.718 57.6c1.63 3.27 5.46-.409 5.46-.409"/><path fill="#0F141B" fill-rule="nonzero" d="M4.227 50.968a.854.854 0 0 1 1.167.319.86.86 0 0 1-.318 1.171l-.074.045a8.706 8.706 0 0 0-1.4 1.092c-1.253 1.209-1.717 2.42-1.118 3.62.37.743.816.961 1.47.857.483-.076 1.046-.333 1.627-.716.264-.174.512-.362.737-.55l.147-.125.121-.11a.853.853 0 0 1 1.21.026.86.86 0 0 1-.027 1.214 9.126 9.126 0 0 1-1.248.979c-.766.506-1.536.857-2.3.978-1.375.219-2.557-.358-3.268-1.784-1.008-2.023-.268-3.957 1.463-5.627a9.666 9.666 0 0 1 1.811-1.39Z"/><path fill="#FEFEFE" d="M10.518 59.725s-4.83 4.415-.896 6.378c3.159 1.575 4.89-3.189 4.89-3.189"/><path fill="#0F141B" fill-rule="nonzero" d="M9.942 59.09a.854.854 0 0 1 1.209.057.86.86 0 0 1-.057 1.213l-.093.089a10.61 10.61 0 0 0-1.021 1.16c-.523.692-.88 1.363-1.001 1.942-.162.775.096 1.32 1.024 1.783 1.085.541 2.003.09 2.876-1.159.239-.341.448-.712.624-1.082l.102-.224a4.39 4.39 0 0 0 .102-.249.855.855 0 1 1 1.608.588 8.798 8.798 0 0 1-1.035 1.953c-1.302 1.862-3.032 2.712-5.039 1.71-1.63-.813-2.257-2.138-1.937-3.672.182-.872.65-1.751 1.313-2.628.288-.381.595-.737.902-1.06l.192-.197c.096-.096.175-.172.231-.223Z"/></g></svg>