<svg xmlns="http://www.w3.org/2000/svg" width="54" height="54" fill="none"><path fill="#E7E7E7" d="M27 10c9.389 0 17 7.611 17 17s-7.611 17-17 17-17-7.611-17-17 7.611-17 17-17Zm0 2.125c-8.215 0-14.875 6.66-14.875 14.875S18.785 41.875 27 41.875 41.875 35.215 41.875 27 35.215 12.125 27 12.125Z"/><path fill="#E5E5E5" d="M32.228 30.168a1.064 1.064 0 0 1 2.008.688c-.811 2.812-3.728 4.773-7.09 4.773-3.362 0-6.278-1.96-7.09-4.77a1.063 1.063 0 0 1 2.043-.587c.54 1.873 2.663 3.237 5.046 3.237 2.385 0 4.507-1.365 5.047-3.239l.036-.102Zm-5.467-5.792a.979.979 0 0 1 .439 1.905c-.311.09-.58.501-.58 1 0 .498.27.91.58 1a.977.977 0 0 1-.27 1.919.98.98 0 0 1-.272-.039c-1.18-.338-2-1.523-2-2.88s.82-2.542 1.998-2.88l.105-.025Zm7.29-3.02c.744 0 1.352.606 1.352 1.348v1.586c0 .741-.609 1.348-1.352 1.348h-.296a1.354 1.354 0 0 1-1.352-1.348v-1.586c0-.742.608-1.348 1.352-1.348h.295Zm-13.734 0c.744 0 1.353.606 1.353 1.348v1.586c0 .741-.609 1.348-1.353 1.348h-.295a1.354 1.354 0 0 1-1.353-1.348v-1.586c0-.742.609-1.348 1.353-1.348h.295Z"/></svg>