<svg xmlns="http://www.w3.org/2000/svg" width="44" height="44" fill="none"><g fill="#000" opacity=".14"><path d="M22 7c8.284 0 15 6.716 15 15 0 8.284-6.716 15-15 15-8.284 0-15-6.716-15-15 0-8.284 6.716-15 15-15Zm0 1.875C14.751 8.875 8.875 14.751 8.875 22S14.751 35.125 22 35.125 35.125 29.249 35.125 22 29.249 8.875 22 8.875Z"/><path d="M26.613 24.795a.939.939 0 0 1 1.771.607c-.715 2.482-3.289 4.212-6.256 4.212-2.966 0-5.539-1.729-6.255-4.209a.938.938 0 0 1 1.803-.518c.477 1.652 2.349 2.857 4.452 2.857 2.104 0 3.977-1.206 4.453-2.859l.032-.09Zm-4.824-5.11a.864.864 0 0 1 .387 1.68c-.274.08-.51.443-.51.882 0 .44.236.804.51.883a.862.862 0 0 1-.238 1.693.864.864 0 0 1-.24-.034c-1.04-.298-1.765-1.343-1.765-2.542 0-1.197.724-2.242 1.764-2.54l.092-.022Zm6.432-2.665c.657 0 1.193.535 1.193 1.19v1.399c0 .654-.537 1.189-1.193 1.189h-.26a1.195 1.195 0 0 1-1.194-1.19V18.21c0-.654.537-1.189 1.194-1.189h.26Zm-12.117 0c.656 0 1.193.535 1.193 1.19v1.399c0 .654-.537 1.189-1.194 1.189h-.26a1.195 1.195 0 0 1-1.194-1.19V18.21c0-.654.537-1.189 1.194-1.189h.26Z"/></g></svg>