<svg xmlns="http://www.w3.org/2000/svg" width="26" height="26"><g fill="#c8c8c8" fill-rule="evenodd"><path fill="none" d="M0 0h26v26H0z"/><g fill-rule="nonzero"><path d="M7.07 4.164C4.728 5.766 3.417 7.923 4.229 10.78a15.278 15.278 0 0 0 1.89 4.122 17.088 17.088 0 0 0 2.134 2.67l.292.292c1.763 1.738 3.959 3.24 6.819 4.051 2.56.727 4.608-.28 6.196-2.27.556-.7.395-1.73-.342-2.241l-3.256-2.265-.081-.05a.948.948 0 0 0-1.115.144l-1.667 1.597-.095-.022a4.557 4.557 0 0 1-.747-.278c-.82-.38-1.722-1.016-2.674-1.968-.953-.953-1.588-1.854-1.97-2.675a4.556 4.556 0 0 1-.277-.747l-.023-.095 1.598-1.667a.948.948 0 0 0 .094-1.196L8.378 4.409a.943.943 0 0 0-1.307-.245zM21.096 4.006l.943.943-2.667 2.667 2.667 2.667-.943.943-2.667-2.667-2.667 2.667-.943-.943 2.667-2.667-2.667-2.667.943-.943 2.667 2.667z"/></g></g></svg>