<svg xmlns="http://www.w3.org/2000/svg" width="26" height="26"><g fill="none" fill-rule="evenodd"><path d="M0 0h26v26H0z"/><path fill="#4c4c4c" fill-rule="nonzero" d="m7.153 4.114-.082.05c-2.344 1.602-3.654 3.759-2.843 6.617.471 1.657 1.23 3.182 2.189 4.567.649.938 1.264 1.65 1.91 2.3l.167.167c.65.646 1.362 1.261 2.3 1.91 1.387.96 2.912 1.72 4.57 2.19 2.56.728 4.608-.279 6.195-2.27a1.556 1.556 0 0 0-.342-2.24l-3.256-2.265-.08-.05a.947.947 0 0 0-1.116.145l-1.667 1.596-.094-.022a4.557 4.557 0 0 1-.747-.278c-.821-.38-1.723-1.016-2.675-1.968-.952-.952-1.588-1.854-1.969-2.675a4.556 4.556 0 0 1-.277-.747l-.024-.095 1.598-1.667a.948.948 0 0 0 .094-1.196L8.38 4.408a.945.945 0 0 0-1.226-.294z"/></g></svg>