<svg xmlns="http://www.w3.org/2000/svg" width="144" height="36"><g fill="none" fill-rule="evenodd"><circle cx="18" cy="18" r="18" fill="#F7F7F7"/><path fill="#30363D" d="M20.8 13c.11 0 .2.09.2.2v9.6a.2.2 0 0 1-.2.2h-8a1.8 1.8 0 0 1-1.8-1.8v-6.4a1.8 1.8 0 0 1 1.8-1.8h8Zm4.884.001.078.016a.38.38 0 0 1 .238.328v9.31c0 .13-.086.285-.215.328a.331.331 0 0 1-.358-.099l-3.72-4.464a.3.3 0 0 1-.07-.191v-.458a.3.3 0 0 1 .07-.19l3.698-4.464a.33.33 0 0 1 .357-.1Z" opacity=".9"/><g transform="translate(36)"><circle cx="18" cy="18" r="18" fill="#E0E0E0"/><path fill="#30363D" d="M20.8 13c.11 0 .2.09.2.2v9.6a.2.2 0 0 1-.2.2h-8a1.8 1.8 0 0 1-1.8-1.8v-6.4a1.8 1.8 0 0 1 1.8-1.8h8Zm4.884.001.078.016a.38.38 0 0 1 .238.328v9.31c0 .13-.086.285-.215.328a.331.331 0 0 1-.358-.099l-3.72-4.464a.3.3 0 0 1-.07-.191v-.458a.3.3 0 0 1 .07-.19l3.698-4.464a.33.33 0 0 1 .357-.1Z" opacity=".9"/></g><g transform="translate(72)"><circle cx="18" cy="18" r="18" fill="#F7F7F7"/><path fill="#9C9FA2" d="M20.8 13c.11 0 .2.09.2.2v9.6a.2.2 0 0 1-.2.2h-8a1.8 1.8 0 0 1-1.8-1.8v-6.4a1.8 1.8 0 0 1 1.8-1.8h8Zm4.884.001.078.016a.38.38 0 0 1 .238.328v9.31c0 .13-.086.285-.215.328a.331.331 0 0 1-.358-.099l-3.72-4.464a.3.3 0 0 1-.07-.191v-.458a.3.3 0 0 1 .07-.19l3.698-4.464a.33.33 0 0 1 .357-.1Z"/></g><g transform="translate(108)"><circle cx="18" cy="18" r="18" fill="#EDEDED"/><path fill="#30363D" d="M20.8 13c.11 0 .2.09.2.2v9.6a.2.2 0 0 1-.2.2h-8a1.8 1.8 0 0 1-1.8-1.8v-6.4a1.8 1.8 0 0 1 1.8-1.8h8Zm4.884.001.078.016a.38.38 0 0 1 .238.328v9.31c0 .13-.086.285-.215.328a.331.331 0 0 1-.358-.099l-3.72-4.464a.3.3 0 0 1-.07-.191v-.458a.3.3 0 0 1 .07-.19l3.698-4.464a.33.33 0 0 1 .357-.1Z" opacity=".9"/></g></g></svg>