<svg xmlns="http://www.w3.org/2000/svg" width="144" height="36"><g fill="none" fill-rule="evenodd"><circle cx="18" cy="18" r="18" fill="#F7F7F7"/><path fill="#30363D" d="m13.107 12.445 1.99 2.846a.536.536 0 0 1-.066.69l-1.08 1.06a.53.53 0 0 0-.105.621c.499.953 1.166 1.834 1.919 2.63.728.77 1.594 1.511 2.518 2.063a.53.53 0 0 0 .627-.069l1.12-1.02a.536.536 0 0 1 .692-.025l2.73 2.145c.242.19.272.545.068.776-1.248 1.41-1.804 1.794-3.362 1.414-2.282-.557-4.192-1.856-5.745-3.49l-.255-.275c-1.67-1.694-2.971-3.764-3.423-6.201-.292-1.577.123-2.11 1.602-3.277a.535.535 0 0 1 .77.112Zm4.164 1.196a4.533 4.533 0 0 1 4.528 4.529c0 .141-.099.26-.23.29l-.07.008h-.596a.298.298 0 0 1-.299-.298 3.338 3.338 0 0 0-3.333-3.335.298.298 0 0 1-.291-.23l-.008-.068v-.597c0-.166.134-.299.299-.299Zm.34-3.103c4.02 0 7.29 3.271 7.29 7.292 0 .14-.096.255-.226.285l-.067.008h-.587a.293.293 0 0 1-.293-.293 6.125 6.125 0 0 0-6.118-6.118.293.293 0 0 1-.285-.226l-.008-.068v-.586c0-.163.131-.294.293-.294Z" opacity=".9"/><g transform="translate(36)"><circle cx="18" cy="18" r="18" fill="#E0E0E0"/><path fill="#30363D" d="m13.107 12.445 1.99 2.846a.536.536 0 0 1-.066.69l-1.08 1.06a.53.53 0 0 0-.105.621c.499.953 1.166 1.834 1.919 2.63.728.77 1.594 1.511 2.518 2.063a.53.53 0 0 0 .627-.069l1.12-1.02a.536.536 0 0 1 .692-.025l2.73 2.145c.242.19.272.545.068.776-1.248 1.41-1.804 1.794-3.362 1.414-2.282-.557-4.192-1.856-5.745-3.49l-.255-.275c-1.67-1.694-2.971-3.764-3.423-6.201-.292-1.577.123-2.11 1.602-3.277a.535.535 0 0 1 .77.112Zm4.164 1.196a4.533 4.533 0 0 1 4.528 4.529c0 .141-.099.26-.23.29l-.07.008h-.596a.298.298 0 0 1-.299-.298 3.338 3.338 0 0 0-3.333-3.335.298.298 0 0 1-.291-.23l-.008-.068v-.597c0-.166.134-.299.299-.299Zm.34-3.103c4.02 0 7.29 3.271 7.29 7.292 0 .14-.096.255-.226.285l-.067.008h-.587a.293.293 0 0 1-.293-.293 6.125 6.125 0 0 0-6.118-6.118.293.293 0 0 1-.285-.226l-.008-.068v-.586c0-.163.131-.294.293-.294Z" opacity=".9"/></g><g transform="translate(72)"><circle cx="18" cy="18" r="18" fill="#F7F7F7"/><path fill="#9C9FA2" d="m13.107 12.445 1.99 2.846a.536.536 0 0 1-.066.69l-1.08 1.06a.53.53 0 0 0-.105.621c.499.953 1.166 1.834 1.919 2.63.728.77 1.594 1.511 2.518 2.063a.53.53 0 0 0 .627-.069l1.12-1.02a.536.536 0 0 1 .692-.025l2.73 2.145c.242.19.272.545.068.776-1.248 1.41-1.804 1.794-3.362 1.414-2.282-.557-4.192-1.856-5.745-3.49l-.255-.275c-1.67-1.694-2.971-3.764-3.423-6.201-.292-1.577.123-2.11 1.602-3.277a.535.535 0 0 1 .77.112Zm4.164 1.196a4.533 4.533 0 0 1 4.528 4.529c0 .141-.099.26-.23.29l-.07.008h-.596a.298.298 0 0 1-.299-.298 3.338 3.338 0 0 0-3.333-3.335.298.298 0 0 1-.291-.23l-.008-.068v-.597c0-.166.134-.299.299-.299Zm.34-3.103c4.02 0 7.29 3.271 7.29 7.292 0 .14-.096.255-.226.285l-.067.008h-.587a.293.293 0 0 1-.293-.293 6.125 6.125 0 0 0-6.118-6.118.293.293 0 0 1-.285-.226l-.008-.068v-.586c0-.163.131-.294.293-.294Z"/></g><g transform="translate(108)"><circle cx="18" cy="18" r="18" fill="#EDEDED"/><path fill="#30363D" d="m13.107 12.445 1.99 2.846a.536.536 0 0 1-.066.69l-1.08 1.06a.53.53 0 0 0-.105.621c.499.953 1.166 1.834 1.919 2.63.728.77 1.594 1.511 2.518 2.063a.53.53 0 0 0 .627-.069l1.12-1.02a.536.536 0 0 1 .692-.025l2.73 2.145c.242.19.272.545.068.776-1.248 1.41-1.804 1.794-3.362 1.414-2.282-.557-4.192-1.856-5.745-3.49l-.255-.275c-1.67-1.694-2.971-3.764-3.423-6.201-.292-1.577.123-2.11 1.602-3.277a.535.535 0 0 1 .77.112Zm4.164 1.196a4.533 4.533 0 0 1 4.528 4.529c0 .141-.099.26-.23.29l-.07.008h-.596a.298.298 0 0 1-.299-.298 3.338 3.338 0 0 0-3.333-3.335.298.298 0 0 1-.291-.23l-.008-.068v-.597c0-.166.134-.299.299-.299Zm.34-3.103c4.02 0 7.29 3.271 7.29 7.292 0 .14-.096.255-.226.285l-.067.008h-.587a.293.293 0 0 1-.293-.293 6.125 6.125 0 0 0-6.118-6.118.293.293 0 0 1-.285-.226l-.008-.068v-.586c0-.163.131-.294.293-.294Z" opacity=".9"/></g></g></svg>