<svg xmlns="http://www.w3.org/2000/svg" width="26" height="26"><g fill="#c8c8c8" fill-rule="evenodd"><path fill="none" d="M0 0h26v26H0z"/><path d="m13.947 16.016-.9.9-3.002-3.002-3.002 3.002-.9-.9 3.002-3.003-3.002-3.002.9-.9 3.002 3.003 3.002-3.003.9.9-3.002 3.002zM16.363 6H4.91A1.911 1.911 0 0 0 3 7.91v10.18C3 19.144 3.857 20 4.909 20h11.454a.636.636 0 0 0 .637-.637V6.637A.636.636 0 0 0 16.363 6zm7.224.04a.636.636 0 0 0-.703.177l-4.454 5.091a.635.635 0 0 0-.158.42v1.909a.64.64 0 0 0 .135.39l4.454 5.727a.637.637 0 0 0 1.138-.39V6.637a.636.636 0 0 0-.412-.596"/></g></svg>