<svg xmlns="http://www.w3.org/2000/svg" width="20" height="20"><g fill="none" fill-rule="evenodd"><path d="M0 0h20v20H0z"/><path fill="#FFF" d="m7.086 12.598-4.273-2.035a.627.627 0 0 1 0-1.126l4.273-2.035a.769.769 0 0 0 .368-.375l1.994-4.36a.604.604 0 0 1 1.104 0l1.994 4.36a.769.769 0 0 0 .368.375l4.273 2.035a.627.627 0 0 1 0 1.126l-4.273 2.035a.769.769 0 0 0-.368.375l-1.994 4.36a.604.604 0 0 1-1.104 0l-1.994-4.36a.769.769 0 0 0-.368-.375zm8.412-8.612-1.526-.712a.217.217 0 0 1 0-.394l1.526-.712a.272.272 0 0 0 .131-.132L16.341.51a.217.217 0 0 1 .394 0l.713 1.526a.272.272 0 0 0 .131.132l1.526.712a.217.217 0 0 1 0 .394l-1.526.712a.272.272 0 0 0-.131.132l-.713 1.526a.217.217 0 0 1-.394 0l-.712-1.526a.272.272 0 0 0-.131-.132z"/></g></svg>