<svg xmlns="http://www.w3.org/2000/svg" width="20" height="20"><defs><filter id="a"><feColorMatrix in="SourceGraphic" values="0 0 0 0 1.000000 0 0 0 0 1.000000 0 0 0 0 1.000000 0 0 0 1.000000 0"/></filter></defs><g fill="none" fill-rule="evenodd" filter="url(#a)"><path stroke="#FFF" stroke-width="1.2" d="M10 1.6c2.32 0 4.42.94 5.94 2.46A8.374 8.374 0 0 1 18.4 10c0 2.32-.94 4.42-2.46 5.94A8.374 8.374 0 0 1 10 18.4c-2.32 0-4.42-.94-5.94-2.46A8.374 8.374 0 0 1 1.6 10c0-2.32.94-4.42 2.46-5.94A8.374 8.374 0 0 1 10 1.6z"/><path fill="#FFF" d="M12.686 11.86a.52.52 0 0 1 .997.286c-.424 1.472-1.954 2.5-3.719 2.5-1.764 0-3.293-1.027-3.718-2.498a.518.518 0 0 1 .997-.286c.293 1.014 1.438 1.75 2.721 1.75 1.285 0 2.429-.737 2.722-1.752zM9.717 8.777a.477.477 0 0 1 .59.324.475.475 0 0 1-.326.587c-.165.047-.34.264-.34.574 0 .31.175.526.34.574a.473.473 0 1 1-.263.911c-.606-.174-1.028-.784-1.028-1.485 0-.7.422-1.312 1.027-1.485zm3.911-1.614c.37 0 .673.302.673.67v.842c0 .368-.303.67-.673.67h-.156a.674.674 0 0 1-.673-.67v-.842c0-.368.303-.67.673-.67zm-7.287 0c.37 0 .673.302.673.67v.842c0 .368-.303.67-.673.67h-.156a.674.674 0 0 1-.673-.67v-.842c0-.368.303-.67.673-.67z"/></g></svg>