<svg xmlns="http://www.w3.org/2000/svg" xmlns:xlink="http://www.w3.org/1999/xlink" width="224" height="56"><defs><filter id="a" width="118%" height="118%" x="-9%" y="-9%" filterUnits="objectBoundingBox"><feOffset in="SourceAlpha" result="shadowOffsetOuter1"/><feGaussianBlur in="shadowOffsetOuter1" result="shadowBlurOuter1" stdDeviation="1.5"/><feColorMatrix in="shadowBlurOuter1" values="0 0 0 0 0 0 0 0 0 0 0 0 0 0 0 0 0 0 0.2 0"/></filter><filter id="c" width="143.3%" height="143.3%" x="-21.7%" y="-21.7%" filterUnits="objectBoundingBox"><feOffset in="SourceAlpha" result="shadowOffsetOuter1"/><feGaussianBlur in="shadowOffsetOuter1" result="shadowBlurOuter1" stdDeviation="1.5"/><feColorMatrix in="shadowBlurOuter1" result="shadowMatrixOuter1" values="0 0 0 0 0 0 0 0 0 0 0 0 0 0 0 0 0 0 0.1 0"/><feMerge><feMergeNode in="shadowMatrixOuter1"/><feMergeNode in="SourceGraphic"/></feMerge></filter><filter id="d" width="118%" height="118%" x="-9%" y="-9%" filterUnits="objectBoundingBox"><feOffset in="SourceAlpha" result="shadowOffsetOuter1"/><feGaussianBlur in="shadowOffsetOuter1" result="shadowBlurOuter1" stdDeviation="1.5"/><feColorMatrix in="shadowBlurOuter1" values="0 0 0 0 0 0 0 0 0 0 0 0 0 0 0 0 0 0 0.2 0"/></filter><filter id="f" width="143.3%" height="143.3%" x="-21.7%" y="-21.7%" filterUnits="objectBoundingBox"><feOffset in="SourceAlpha" result="shadowOffsetOuter1"/><feGaussianBlur in="shadowOffsetOuter1" result="shadowBlurOuter1" stdDeviation="1.5"/><feColorMatrix in="shadowBlurOuter1" result="shadowMatrixOuter1" values="0 0 0 0 0 0 0 0 0 0 0 0 0 0 0 0 0 0 0.1 0"/><feMerge><feMergeNode in="shadowMatrixOuter1"/><feMergeNode in="SourceGraphic"/></feMerge></filter><filter id="g" width="118%" height="118%" x="-9%" y="-9%" filterUnits="objectBoundingBox"><feOffset in="SourceAlpha" result="shadowOffsetOuter1"/><feGaussianBlur in="shadowOffsetOuter1" result="shadowBlurOuter1" stdDeviation="1.5"/><feColorMatrix in="shadowBlurOuter1" values="0 0 0 0 0 0 0 0 0 0 0 0 0 0 0 0 0 0 0.2 0"/></filter><filter id="i" width="143.3%" height="143.3%" x="-21.7%" y="-21.7%" filterUnits="objectBoundingBox"><feOffset in="SourceAlpha" result="shadowOffsetOuter1"/><feGaussianBlur in="shadowOffsetOuter1" result="shadowBlurOuter1" stdDeviation="1.5"/><feColorMatrix in="shadowBlurOuter1" result="shadowMatrixOuter1" values="0 0 0 0 0 0 0 0 0 0 0 0 0 0 0 0 0 0 0.1 0"/><feMerge><feMergeNode in="shadowMatrixOuter1"/><feMergeNode in="SourceGraphic"/></feMerge></filter><circle id="b" cx="25" cy="25" r="25"/><circle id="e" cx="25" cy="25" r="25"/><circle id="h" cx="25" cy="25" r="25"/></defs><g fill="none" fill-rule="evenodd"><g transform="translate(3 3)"><use xlink:href="#b" fill="#000" filter="url(#a)"/><use xlink:href="#b" fill="#34C759"/></g><g fill="#FFF" filter="url(#c)" transform="translate(13 13)"><path d="M5.113 9.81c-.377-2.296.158-3.274 2.087-4.993l.435-.38a53.5 53.5 0 0 1 .234-.2c.404-.344.981-.31 1.26.08l3.154 4.398c.238.332.182.814-.133 1.138l-1.816 1.877c-.278.288-.364.71-.195 1.032.781 1.495 1.914 2.776 3.118 3.98 1.166 1.166 2.506 2.358 3.981 3.12.321.166.745.083 1.032-.196l1.877-1.816c.324-.315.806-.371 1.138-.133l4.398 3.153c.39.28.424.857.08 1.26l-.393.457-.368.414c-1.61 1.765-2.598 2.25-4.813 1.886a17.48 17.48 0 0 1-9.874-5.202 17.48 17.48 0 0 1-5.202-9.874Z"/></g><g transform="translate(171 3)"><use xlink:href="#e" fill="#000" filter="url(#d)"/><use xlink:href="#e" fill="#34C759"/><use xlink:href="#e" fill="#000" fill-opacity=".5" style="mix-blend-mode:overlay"/></g><g fill="#FFF" filter="url(#f)" transform="translate(181 13)"><path d="M5.113 9.81c-.377-2.296.158-3.274 2.087-4.993l.435-.38a53.5 53.5 0 0 1 .234-.2c.404-.344.981-.31 1.26.08l3.154 4.398c.238.332.182.814-.133 1.138l-1.816 1.877c-.278.288-.364.71-.195 1.032.781 1.495 1.914 2.776 3.118 3.98 1.166 1.166 2.506 2.358 3.981 3.12.321.166.745.083 1.032-.196l1.877-1.816c.324-.315.806-.371 1.138-.133l4.398 3.153c.39.28.424.857.08 1.26l-.393.457-.368.414c-1.61 1.765-2.598 2.25-4.813 1.886a17.48 17.48 0 0 1-9.874-5.202 17.48 17.48 0 0 1-5.202-9.874Z"/></g><g transform="translate(59 3)"><use xlink:href="#h" fill="#000" filter="url(#g)"/><use xlink:href="#h" fill="#34C759"/><use xlink:href="#h" fill="#000" fill-opacity=".3"/></g><g fill="#FFF" filter="url(#i)" transform="translate(69 13)"><path d="M5.113 9.81c-.377-2.296.158-3.274 2.087-4.993l.435-.38a53.5 53.5 0 0 1 .234-.2c.404-.344.981-.31 1.26.08l3.154 4.398c.238.332.182.814-.133 1.138l-1.816 1.877c-.278.288-.364.71-.195 1.032.781 1.495 1.914 2.776 3.118 3.98 1.166 1.166 2.506 2.358 3.981 3.12.321.166.745.083 1.032-.196l1.877-1.816c.324-.315.806-.371 1.138-.133l4.398 3.153c.39.28.424.857.08 1.26l-.393.457-.368.414c-1.61 1.765-2.598 2.25-4.813 1.886a17.48 17.48 0 0 1-9.874-5.202 17.48 17.48 0 0 1-5.202-9.874Z"/></g></g></svg>