<svg xmlns="http://www.w3.org/2000/svg" width="20" height="20"><g fill="none" fill-rule="evenodd"><path stroke="#FFF" stroke-width="1.2" d="M10 1.6c2.32 0 4.42.94 5.94 2.46A8.374 8.374 0 0 1 18.4 10c0 2.32-.94 4.42-2.46 5.94A8.374 8.374 0 0 1 10 18.4c-2.32 0-4.42-.94-5.94-2.46A8.374 8.374 0 0 1 1.6 10c0-2.32.94-4.42 2.46-5.94A8.374 8.374 0 0 1 10 1.6Z"/><path fill="#FFF" d="M12.686 11.86a.52.52 0 0 1 .997.286c-.424 1.472-1.954 2.5-3.719 2.5-1.764 0-3.293-1.027-3.718-2.498a.52.52 0 0 1 .997-.286c.293 1.014 1.438 1.75 2.721 1.75 1.285 0 2.429-.737 2.722-1.752ZM9.717 8.777a.474.474 0 1 1 .263.911c-.164.047-.34.264-.34.574 0 .31.176.526.341.574a.474.474 0 1 1-.263.91c-.606-.173-1.028-.783-1.028-1.484 0-.7.422-1.312 1.027-1.485Zm3.911-1.614c.37 0 .673.302.673.67v.842c0 .368-.303.67-.673.67h-.156a.673.673 0 0 1-.673-.67v-.842c0-.368.303-.67.673-.67Zm-7.287 0c.37 0 .673.302.673.67v.842c0 .368-.303.67-.673.67h-.156a.673.673 0 0 1-.673-.67v-.842c0-.368.303-.67.673-.67Z"/></g></svg>