<svg xmlns="http://www.w3.org/2000/svg" xmlns:xlink="http://www.w3.org/1999/xlink" width="17" height="17"><defs><filter id="a" width="121.4%" height="121.4%" x="-10.7%" y="-10.7%" filterUnits="objectBoundingBox"><feOffset in="SourceAlpha" result="shadowOffsetOuter1"/><feGaussianBlur in="shadowOffsetOuter1" result="shadowBlurOuter1" stdDeviation=".5"/><feComposite in="shadowBlurOuter1" in2="SourceAlpha" operator="out" result="shadowBlurOuter1"/><feColorMatrix in="shadowBlurOuter1" values="0 0 0 0 0 0 0 0 0 0 0 0 0 0 0 0 0 0 0.3 0"/></filter><path id="b" d="M8.5 1.5a7 7 0 1 1 0 14 7 7 0 0 1 0-14Zm2.865 2-1.159.31.298 1.112A4.1 4.1 0 1 0 12.6 8.5h-1.2l-.005.17a2.9 2.9 0 1 1-1.624-2.777l-.909.245.311 1.159 2.415-.647.092-.033a.6.6 0 0 0 .332-.702L11.365 3.5Z"/></defs><g fill="none" fill-rule="evenodd"><use xlink:href="#b" fill="#000" filter="url(#a)"/><use xlink:href="#b" fill="#FFF" fill-opacity=".85"/></g></svg>