<svg xmlns="http://www.w3.org/2000/svg" width="52" height="52"><g fill="none" fill-rule="evenodd"><path fill="#262626" d="M0 0h52v52H0z"/><path d="M8 8h36v36H8z"/><path fill="#FFF" fill-rule="nonzero" d="M25.994 14.594c6.296 0 11.4 5.104 11.4 11.4 0 6.297-5.104 11.4-11.4 11.4s-11.4-5.103-11.4-11.4c0-6.296 5.104-11.4 11.4-11.4Zm-6.757 13.878 1.414 1.415 3.542-3.538 4.249 4.244 3.877-3.873-1.414-1.415-2.463 2.46-4.25-4.243-4.955 4.95Zm9.042-7.982a1.667 1.667 0 1 0 0 3.335 1.667 1.667 0 0 0 0-3.335Zm11.66-4c.324.323.966.638 1.925.944-.945.262-1.587.56-1.925.899-.338.337-.613.955-.825 1.852-.158-.926-.392-1.543-.702-1.852-.31-.31-.993-.61-2.049-.899 1.027-.29 1.71-.605 2.05-.944.339-.34.572-.942.7-1.806.227.88.502 1.482.826 1.806Zm-4.993-6.366c.26 1.006.574 1.693.944 2.063.37.37 1.103.73 2.2 1.08-1.081.298-1.814.64-2.2 1.027-.386.386-.701 1.091-.944 2.116-.18-1.057-.448-1.762-.802-2.116-.353-.355-1.134-.697-2.34-1.027 1.172-.332 1.953-.692 2.34-1.08.389-.387.655-1.075.802-2.063Z" opacity=".1"/></g></svg>