<svg xmlns="http://www.w3.org/2000/svg" xmlns:xlink="http://www.w3.org/1999/xlink" width="224" height="56"><defs><filter id="a" width="118%" height="118%" x="-9%" y="-9%" filterUnits="objectBoundingBox"><feOffset in="SourceAlpha" result="shadowOffsetOuter1"/><feGaussianBlur in="shadowOffsetOuter1" result="shadowBlurOuter1" stdDeviation="1.5"/><feColorMatrix in="shadowBlurOuter1" values="0 0 0 0 0 0 0 0 0 0 0 0 0 0 0 0 0 0 0.2 0"/></filter><filter id="c" width="143.3%" height="143.3%" x="-21.7%" y="-21.7%" filterUnits="objectBoundingBox"><feOffset in="SourceAlpha" result="shadowOffsetOuter1"/><feGaussianBlur in="shadowOffsetOuter1" result="shadowBlurOuter1" stdDeviation="1.5"/><feColorMatrix in="shadowBlurOuter1" result="shadowMatrixOuter1" values="0 0 0 0 0 0 0 0 0 0 0 0 0 0 0 0 0 0 0.1 0"/><feMerge><feMergeNode in="shadowMatrixOuter1"/><feMergeNode in="SourceGraphic"/></feMerge></filter><filter id="d" width="118%" height="118%" x="-9%" y="-9%" filterUnits="objectBoundingBox"><feOffset in="SourceAlpha" result="shadowOffsetOuter1"/><feGaussianBlur in="shadowOffsetOuter1" result="shadowBlurOuter1" stdDeviation="1.5"/><feColorMatrix in="shadowBlurOuter1" values="0 0 0 0 0 0 0 0 0 0 0 0 0 0 0 0 0 0 0.2 0"/></filter><filter id="f" width="143.3%" height="143.3%" x="-21.7%" y="-21.7%" filterUnits="objectBoundingBox"><feOffset in="SourceAlpha" result="shadowOffsetOuter1"/><feGaussianBlur in="shadowOffsetOuter1" result="shadowBlurOuter1" stdDeviation="1.5"/><feColorMatrix in="shadowBlurOuter1" result="shadowMatrixOuter1" values="0 0 0 0 0 0 0 0 0 0 0 0 0 0 0 0 0 0 0.1 0"/><feMerge><feMergeNode in="shadowMatrixOuter1"/><feMergeNode in="SourceGraphic"/></feMerge></filter><filter id="g" width="118%" height="118%" x="-9%" y="-9%" filterUnits="objectBoundingBox"><feOffset in="SourceAlpha" result="shadowOffsetOuter1"/><feGaussianBlur in="shadowOffsetOuter1" result="shadowBlurOuter1" stdDeviation="1.5"/><feColorMatrix in="shadowBlurOuter1" values="0 0 0 0 0 0 0 0 0 0 0 0 0 0 0 0 0 0 0.2 0"/></filter><filter id="i" width="143.3%" height="143.3%" x="-21.7%" y="-21.7%" filterUnits="objectBoundingBox"><feOffset in="SourceAlpha" result="shadowOffsetOuter1"/><feGaussianBlur in="shadowOffsetOuter1" result="shadowBlurOuter1" stdDeviation="1.5"/><feColorMatrix in="shadowBlurOuter1" result="shadowMatrixOuter1" values="0 0 0 0 0 0 0 0 0 0 0 0 0 0 0 0 0 0 0.1 0"/><feMerge><feMergeNode in="shadowMatrixOuter1"/><feMergeNode in="SourceGraphic"/></feMerge></filter><circle id="b" cx="25" cy="25" r="25"/><circle id="e" cx="25" cy="25" r="25"/><circle id="h" cx="25" cy="25" r="25"/></defs><g fill="none" fill-rule="evenodd"><g transform="translate(3 3)"><use xlink:href="#b" fill="#000" filter="url(#a)"/><use xlink:href="#b" fill="#F05334"/></g><g fill="#FFF" filter="url(#c)" transform="translate(13 13)"><path d="M26.708 11.624c2.299 1.646 2.473 2.906 2.188 6.452-.047.578-.522.998-1.042.913l-5.864-.964c-.442-.073-.773-.489-.78-.985l-.047-2.86c-.008-.437-.269-.83-.65-.95-1.767-.552-3.642-.667-5.513-.667-1.81 0-3.776.115-5.514.667-.378.12-.642.513-.649.95l-.047 2.86c-.007.496-.338.912-.78.985l-5.865.964c-.519.085-.994-.335-1.041-.913-.285-3.546-.11-4.806 2.188-6.452A19.234 19.234 0 0 1 15 8.005a19.234 19.234 0 0 1 11.708 3.619Z"/></g><g transform="translate(171 3)"><use xlink:href="#e" fill="#000" filter="url(#d)"/><use xlink:href="#e" fill="#F05334"/><use xlink:href="#e" fill="#000" fill-opacity=".5" style="mix-blend-mode:soft-light"/></g><g fill="#FFF" filter="url(#f)" transform="translate(181 13)"><path d="M26.708 11.624c2.299 1.646 2.473 2.906 2.188 6.452-.047.578-.522.998-1.042.913l-5.864-.964c-.442-.073-.773-.489-.78-.985l-.047-2.86c-.008-.437-.269-.83-.65-.95-1.767-.552-3.642-.667-5.513-.667-1.81 0-3.776.115-5.514.667-.378.12-.642.513-.649.95l-.047 2.86c-.007.496-.338.912-.78.985l-5.865.964c-.519.085-.994-.335-1.041-.913-.285-3.546-.11-4.806 2.188-6.452A19.234 19.234 0 0 1 15 8.005a19.234 19.234 0 0 1 11.708 3.619Z"/></g><g transform="translate(59 3)"><use xlink:href="#h" fill="#000" filter="url(#g)"/><use xlink:href="#h" fill="#F05334"/><use xlink:href="#h" fill="#000" fill-opacity=".3"/></g><g fill="#FFF" filter="url(#i)" transform="translate(69 13)"><path d="M26.708 11.624c2.299 1.646 2.473 2.906 2.188 6.452-.047.578-.522.998-1.042.913l-5.864-.964c-.442-.073-.773-.489-.78-.985l-.047-2.86c-.008-.437-.269-.83-.65-.95-1.767-.552-3.642-.667-5.513-.667-1.81 0-3.776.115-5.514.667-.378.12-.642.513-.649.95l-.047 2.86c-.007.496-.338.912-.78.985l-5.865.964c-.519.085-.994-.335-1.041-.913-.285-3.546-.11-4.806 2.188-6.452A19.234 19.234 0 0 1 15 8.005a19.234 19.234 0 0 1 11.708 3.619Z"/></g></g></svg>