<svg xmlns="http://www.w3.org/2000/svg" width="20" height="20"><defs><filter id="a"><feColorMatrix in="SourceGraphic" values="0 0 0 0 1.000000 0 0 0 0 1.000000 0 0 0 0 1.000000 0 0 0 1.000000 0"/></filter></defs><g fill="none" fill-rule="evenodd" filter="url(#a)"><path d="M.5.5h19v19H.5z"/><path fill="#FFF" fill-rule="nonzero" d="M8.992 3.006c.383-1.148 1.45-1.225 1.923-.23l.093.23 1.495 4.49 4.49 1.496c1.11.37 1.22 1.377.33 1.873l-.224.104-4.596 1.534-1.495 4.49c-.37 1.11-1.377 1.22-1.873.33l-.104-.224-1.535-4.596-4.49-1.495c-1.109-.37-1.218-1.377-.328-1.873l.223-.104.105-.039 4.49-1.496 1.496-4.49zM15.93.87c.153-.46.58-.49.77-.093l.036.092.599 1.796 1.796.599c.443.148.487.55.131.749l-.089.041-1.838.614-.599 1.796c-.148.444-.55.488-.748.132l-.042-.09-.614-1.838-1.796-.598c-.444-.148-.488-.551-.132-.75l.09-.041.042-.015 1.796-.6L15.93.87z"/></g></svg>