<svg xmlns="http://www.w3.org/2000/svg" xmlns:xlink="http://www.w3.org/1999/xlink" width="448" height="56"><defs><filter id="a" width="118%" height="118%" x="-9%" y="-9%" filterUnits="objectBoundingBox"><feOffset in="SourceAlpha" result="shadowOffsetOuter1"/><feGaussianBlur in="shadowOffsetOuter1" result="shadowBlurOuter1" stdDeviation="1.5"/><feComposite in="shadowBlurOuter1" in2="SourceAlpha" operator="out" result="shadowBlurOuter1"/><feColorMatrix in="shadowBlurOuter1" values="0 0 0 0 0 0 0 0 0 0 0 0 0 0 0 0 0 0 0.2 0"/></filter><filter id="c" width="143.3%" height="143.3%" x="-21.7%" y="-21.7%" filterUnits="objectBoundingBox"><feOffset in="SourceAlpha" result="shadowOffsetOuter1"/><feGaussianBlur in="shadowOffsetOuter1" result="shadowBlurOuter1" stdDeviation="1.5"/><feColorMatrix in="shadowBlurOuter1" result="shadowMatrixOuter1" values="0 0 0 0 0 0 0 0 0 0 0 0 0 0 0 0 0 0 0.2 0"/><feMerge><feMergeNode in="shadowMatrixOuter1"/><feMergeNode in="SourceGraphic"/></feMerge></filter><filter id="d" width="118%" height="118%" x="-9%" y="-9%" filterUnits="objectBoundingBox"><feOffset in="SourceAlpha" result="shadowOffsetOuter1"/><feGaussianBlur in="shadowOffsetOuter1" result="shadowBlurOuter1" stdDeviation="1.5"/><feComposite in="shadowBlurOuter1" in2="SourceAlpha" operator="out" result="shadowBlurOuter1"/><feColorMatrix in="shadowBlurOuter1" values="0 0 0 0 0 0 0 0 0 0 0 0 0 0 0 0 0 0 0.2 0"/></filter><filter id="f" width="143.3%" height="143.3%" x="-21.7%" y="-21.7%" filterUnits="objectBoundingBox"><feOffset in="SourceAlpha" result="shadowOffsetOuter1"/><feGaussianBlur in="shadowOffsetOuter1" result="shadowBlurOuter1" stdDeviation="1.5"/><feColorMatrix in="shadowBlurOuter1" result="shadowMatrixOuter1" values="0 0 0 0 0 0 0 0 0 0 0 0 0 0 0 0 0 0 0.2 0"/><feMerge><feMergeNode in="shadowMatrixOuter1"/><feMergeNode in="SourceGraphic"/></feMerge></filter><filter id="g" width="118%" height="118%" x="-9%" y="-9%" filterUnits="objectBoundingBox"><feOffset in="SourceAlpha" result="shadowOffsetOuter1"/><feGaussianBlur in="shadowOffsetOuter1" result="shadowBlurOuter1" stdDeviation="1.5"/><feComposite in="shadowBlurOuter1" in2="SourceAlpha" operator="out" result="shadowBlurOuter1"/><feColorMatrix in="shadowBlurOuter1" values="0 0 0 0 0 0 0 0 0 0 0 0 0 0 0 0 0 0 0.2 0"/></filter><filter id="i" width="143.3%" height="143.3%" x="-21.7%" y="-21.7%" filterUnits="objectBoundingBox"><feOffset in="SourceAlpha" result="shadowOffsetOuter1"/><feGaussianBlur in="shadowOffsetOuter1" result="shadowBlurOuter1" stdDeviation="1.5"/><feColorMatrix in="shadowBlurOuter1" result="shadowMatrixOuter1" values="0 0 0 0 0 0 0 0 0 0 0 0 0 0 0 0 0 0 0.2 0"/><feMerge><feMergeNode in="shadowMatrixOuter1"/><feMergeNode in="SourceGraphic"/></feMerge></filter><filter id="j" width="118%" height="118%" x="-9%" y="-9%" filterUnits="objectBoundingBox"><feOffset in="SourceAlpha" result="shadowOffsetOuter1"/><feGaussianBlur in="shadowOffsetOuter1" result="shadowBlurOuter1" stdDeviation="1.5"/><feComposite in="shadowBlurOuter1" in2="SourceAlpha" operator="out" result="shadowBlurOuter1"/><feColorMatrix in="shadowBlurOuter1" values="0 0 0 0 0 0 0 0 0 0 0 0 0 0 0 0 0 0 0.2 0"/></filter><filter id="l"><feColorMatrix in="SourceGraphic" values="0 0 0 0 0.149020 0 0 0 0 0.149020 0 0 0 0 0.149020 0 0 0 1.000000 0"/></filter><filter id="m" width="118%" height="118%" x="-9%" y="-9%" filterUnits="objectBoundingBox"><feOffset in="SourceAlpha" result="shadowOffsetOuter1"/><feGaussianBlur in="shadowOffsetOuter1" result="shadowBlurOuter1" stdDeviation="1.5"/><feComposite in="shadowBlurOuter1" in2="SourceAlpha" operator="out" result="shadowBlurOuter1"/><feColorMatrix in="shadowBlurOuter1" values="0 0 0 0 0 0 0 0 0 0 0 0 0 0 0 0 0 0 0.2 0"/></filter><filter id="o"><feColorMatrix in="SourceGraphic" values="0 0 0 0 0.000000 0 0 0 0 0.000000 0 0 0 0 0.000000 0 0 0 1.000000 0"/></filter><filter id="p" width="118%" height="118%" x="-9%" y="-9%" filterUnits="objectBoundingBox"><feOffset in="SourceAlpha" result="shadowOffsetOuter1"/><feGaussianBlur in="shadowOffsetOuter1" result="shadowBlurOuter1" stdDeviation="1.5"/><feColorMatrix in="shadowBlurOuter1" values="0 0 0 0 0 0 0 0 0 0 0 0 0 0 0 0 0 0 0.2 0"/></filter><filter id="r"><feColorMatrix in="SourceGraphic" values="0 0 0 0 0.000000 0 0 0 0 0.000000 0 0 0 0 0.000000 0 0 0 1.000000 0"/></filter><circle id="b" cx="25" cy="25" r="25"/><circle id="e" cx="25" cy="25" r="25"/><circle id="h" cx="25" cy="25" r="25"/><circle id="k" cx="25" cy="25" r="25"/><circle id="n" cx="25" cy="25" r="25"/><circle id="q" cx="25" cy="25" r="25"/></defs><g fill="none" fill-rule="evenodd"><g transform="translate(3 3)"><use xlink:href="#b" fill="#000" filter="url(#a)"/><use xlink:href="#b" fill="#FFF" fill-opacity=".15"/></g><g filter="url(#c)" transform="translate(13 13)"><path stroke="#FFF" stroke-width="1.5" d="M6.75 14.25a8.25 8.25 0 1 0 16.5 0M15 22.5V27"/><rect width="8.5" height="15.2" x="10.75" y="3" fill="#FFF" rx="4.25"/></g><g transform="translate(59 3)"><use xlink:href="#e" fill="#000" filter="url(#d)"/><use xlink:href="#e" fill="#FFF" fill-opacity=".05"/></g><g filter="url(#f)" transform="translate(69 13)"><path stroke="#FFF" stroke-width="1.5" d="M6.75 14.25a8.25 8.25 0 1 0 16.5 0M15 22.5V27"/><rect width="8.5" height="15.2" x="10.75" y="3" fill="#FFF" rx="4.25"/></g><g transform="translate(171 3)"><use xlink:href="#h" fill="#000" filter="url(#g)"/><use xlink:href="#h" fill="#FFF" fill-opacity=".25"/></g><g filter="url(#i)" transform="translate(181 13)"><path stroke="#FFF" stroke-width="1.5" d="M6.75 14.25a8.25 8.25 0 1 0 16.5 0M15 22.5V27"/><rect width="8.5" height="15.2" x="10.75" y="3" fill="#FFF" rx="4.25"/></g><g transform="translate(227 3)"><use xlink:href="#k" fill="#000" filter="url(#j)"/><use xlink:href="#k" fill="#FFF" fill-opacity=".85"/></g><g filter="url(#l)" transform="translate(237 13)"><path fill="#FFF" fill-rule="nonzero" d="m24.067 4.94.964.987-5.782 5.781.001 2.242a4.25 4.25 0 0 1-6.079 3.837l-2.552 2.551a7.5 7.5 0 0 0 11.877-5.846l.004-.242H24a9 9 0 0 1-8.25 8.97V27h-1.5v-3.78a8.954 8.954 0 0 1-4.703-1.81l-4.669 4.67-.964-.988L24.067 4.939ZM7.5 14.25c0 1.236.299 2.401.828 3.429l-1.105 1.104a8.952 8.952 0 0 1-1.22-4.268L6 14.25h1.5ZM15 3a4.25 4.25 0 0 1 4.225 3.782l-8.318 8.316a4.254 4.254 0 0 1-.157-1.148v-6.7A4.25 4.25 0 0 1 15 3Z"/></g><g transform="translate(283 3)"><use xlink:href="#n" fill="#000" filter="url(#m)"/><use xlink:href="#n" fill="#FFF" fill-opacity=".6"/></g><g filter="url(#o)" transform="translate(293 13)"><path fill="#FFF" fill-rule="nonzero" d="m24.067 4.94.964.987-5.782 5.781.001 2.242a4.25 4.25 0 0 1-6.079 3.837l-2.552 2.551a7.5 7.5 0 0 0 11.877-5.846l.004-.242H24a9 9 0 0 1-8.25 8.97V27h-1.5v-3.78a8.954 8.954 0 0 1-4.703-1.81l-4.669 4.67-.964-.988L24.067 4.939ZM7.5 14.25c0 1.236.299 2.401.828 3.429l-1.105 1.104a8.952 8.952 0 0 1-1.22-4.268L6 14.25h1.5ZM15 3a4.25 4.25 0 0 1 4.225 3.782l-8.318 8.316a4.254 4.254 0 0 1-.157-1.148v-6.7A4.25 4.25 0 0 1 15 3Z"/></g><g transform="translate(395 3)"><use xlink:href="#q" fill="#000" filter="url(#p)"/><use xlink:href="#q" fill="#FFF"/></g><g filter="url(#r)" transform="translate(405 13)"><path fill="#FFF" fill-rule="nonzero" d="m24.067 4.94.964.987-5.782 5.781.001 2.242a4.25 4.25 0 0 1-6.079 3.837l-2.552 2.551a7.5 7.5 0 0 0 11.877-5.846l.004-.242H24a9 9 0 0 1-8.25 8.97V27h-1.5v-3.78a8.954 8.954 0 0 1-4.703-1.81l-4.669 4.67-.964-.988L24.067 4.939ZM7.5 14.25c0 1.236.299 2.401.828 3.429l-1.105 1.104a8.952 8.952 0 0 1-1.22-4.268L6 14.25h1.5ZM15 3a4.25 4.25 0 0 1 4.225 3.782l-8.318 8.316a4.254 4.254 0 0 1-.157-1.148v-6.7A4.25 4.25 0 0 1 15 3Z"/></g></g></svg>