<svg xmlns="http://www.w3.org/2000/svg" xmlns:xlink="http://www.w3.org/1999/xlink" width="448" height="56"><defs><filter id="b" width="118%" height="118%" x="-9%" y="-9%" filterUnits="objectBoundingBox"><feOffset in="SourceAlpha" result="shadowOffsetOuter1"/><feGaussianBlur in="shadowOffsetOuter1" result="shadowBlurOuter1" stdDeviation="1.5"/><feComposite in="shadowBlurOuter1" in2="SourceAlpha" operator="out" result="shadowBlurOuter1"/><feColorMatrix in="shadowBlurOuter1" values="0 0 0 0 0 0 0 0 0 0 0 0 0 0 0 0 0 0 0.2 0"/></filter><filter id="c" width="143.3%" height="143.3%" x="-21.7%" y="-21.7%" filterUnits="objectBoundingBox"><feOffset in="SourceAlpha" result="shadowOffsetOuter1"/><feGaussianBlur in="shadowOffsetOuter1" result="shadowBlurOuter1" stdDeviation="1.5"/><feColorMatrix in="shadowBlurOuter1" result="shadowMatrixOuter1" values="0 0 0 0 0 0 0 0 0 0 0 0 0 0 0 0 0 0 0.2 0"/><feMerge><feMergeNode in="shadowMatrixOuter1"/><feMergeNode in="SourceGraphic"/></feMerge></filter><filter id="e" width="118%" height="118%" x="-9%" y="-9%" filterUnits="objectBoundingBox"><feOffset in="SourceAlpha" result="shadowOffsetOuter1"/><feGaussianBlur in="shadowOffsetOuter1" result="shadowBlurOuter1" stdDeviation="1.5"/><feComposite in="shadowBlurOuter1" in2="SourceAlpha" operator="out" result="shadowBlurOuter1"/><feColorMatrix in="shadowBlurOuter1" values="0 0 0 0 0 0 0 0 0 0 0 0 0 0 0 0 0 0 0.2 0"/></filter><filter id="f" width="143.3%" height="143.3%" x="-21.7%" y="-21.7%" filterUnits="objectBoundingBox"><feOffset in="SourceAlpha" result="shadowOffsetOuter1"/><feGaussianBlur in="shadowOffsetOuter1" result="shadowBlurOuter1" stdDeviation="1.5"/><feColorMatrix in="shadowBlurOuter1" result="shadowMatrixOuter1" values="0 0 0 0 0 0 0 0 0 0 0 0 0 0 0 0 0 0 0.2 0"/><feMerge><feMergeNode in="shadowMatrixOuter1"/><feMergeNode in="SourceGraphic"/></feMerge></filter><filter id="h" width="118%" height="118%" x="-9%" y="-9%" filterUnits="objectBoundingBox"><feOffset in="SourceAlpha" result="shadowOffsetOuter1"/><feGaussianBlur in="shadowOffsetOuter1" result="shadowBlurOuter1" stdDeviation="1.5"/><feComposite in="shadowBlurOuter1" in2="SourceAlpha" operator="out" result="shadowBlurOuter1"/><feColorMatrix in="shadowBlurOuter1" values="0 0 0 0 0 0 0 0 0 0 0 0 0 0 0 0 0 0 0.2 0"/></filter><filter id="i" width="143.3%" height="143.3%" x="-21.7%" y="-21.7%" filterUnits="objectBoundingBox"><feOffset in="SourceAlpha" result="shadowOffsetOuter1"/><feGaussianBlur in="shadowOffsetOuter1" result="shadowBlurOuter1" stdDeviation="1.5"/><feColorMatrix in="shadowBlurOuter1" result="shadowMatrixOuter1" values="0 0 0 0 0 0 0 0 0 0 0 0 0 0 0 0 0 0 0.2 0"/><feMerge><feMergeNode in="shadowMatrixOuter1"/><feMergeNode in="SourceGraphic"/></feMerge></filter><filter id="k" width="118%" height="118%" x="-9%" y="-9%" filterUnits="objectBoundingBox"><feOffset in="SourceAlpha" result="shadowOffsetOuter1"/><feGaussianBlur in="shadowOffsetOuter1" result="shadowBlurOuter1" stdDeviation="1.5"/><feComposite in="shadowBlurOuter1" in2="SourceAlpha" operator="out" result="shadowBlurOuter1"/><feColorMatrix in="shadowBlurOuter1" values="0 0 0 0 0 0 0 0 0 0 0 0 0 0 0 0 0 0 0.2 0"/></filter><filter id="l"><feColorMatrix in="SourceGraphic" values="0 0 0 0 0.149020 0 0 0 0 0.149020 0 0 0 0 0.149020 0 0 0 1.000000 0"/></filter><filter id="n" width="118%" height="118%" x="-9%" y="-9%" filterUnits="objectBoundingBox"><feOffset in="SourceAlpha" result="shadowOffsetOuter1"/><feGaussianBlur in="shadowOffsetOuter1" result="shadowBlurOuter1" stdDeviation="1.5"/><feColorMatrix in="shadowBlurOuter1" values="0 0 0 0 0 0 0 0 0 0 0 0 0 0 0 0 0 0 0.2 0"/></filter><filter id="o"><feColorMatrix in="SourceGraphic" values="0 0 0 0 0.000000 0 0 0 0 0.000000 0 0 0 0 0.000000 0 0 0 1.000000 0"/></filter><filter id="q" width="118%" height="118%" x="-9%" y="-9%" filterUnits="objectBoundingBox"><feOffset in="SourceAlpha" result="shadowOffsetOuter1"/><feGaussianBlur in="shadowOffsetOuter1" result="shadowBlurOuter1" stdDeviation="1.5"/><feComposite in="shadowBlurOuter1" in2="SourceAlpha" operator="out" result="shadowBlurOuter1"/><feColorMatrix in="shadowBlurOuter1" values="0 0 0 0 0 0 0 0 0 0 0 0 0 0 0 0 0 0 0.2 0"/></filter><filter id="r"><feColorMatrix in="SourceGraphic" values="0 0 0 0 0.000000 0 0 0 0 0.000000 0 0 0 0 0.000000 0 0 0 1.000000 0"/></filter><circle id="a" cx="25" cy="25" r="25"/><circle id="d" cx="25" cy="25" r="25"/><circle id="g" cx="25" cy="25" r="25"/><circle id="j" cx="25" cy="25" r="25"/><circle id="m" cx="25" cy="25" r="25"/><circle id="p" cx="25" cy="25" r="25"/></defs><g fill="none" fill-rule="evenodd"><g transform="translate(3 3)"><use xlink:href="#a" fill="#000" filter="url(#b)"/><use xlink:href="#a" fill="#FFF" fill-opacity=".15"/></g><g fill="#FFF" filter="url(#c)" transform="translate(13 13)"><path d="M19 8v14H7.5A2.5 2.5 0 0 1 5 19.5v-9A2.5 2.5 0 0 1 7.5 8H19Zm6.97 1.5.001.114v.306l.013 4.467.003 1.264.011 4.151v.294l.001.12.001.272v.012l-5-5.024v-.953L25.97 9.5Z"/></g><g transform="translate(171 3)"><use xlink:href="#d" fill="#000" filter="url(#e)"/><use xlink:href="#d" fill="#FFF" fill-opacity=".25"/></g><g fill="#FFF" filter="url(#f)" transform="translate(181 13)"><path d="M19 8v14H7.5A2.5 2.5 0 0 1 5 19.5v-9A2.5 2.5 0 0 1 7.5 8H19Zm6.97 1.5.001.114v.306l.013 4.467.003 1.264.011 4.151v.294l.001.12.001.272v.012l-5-5.024v-.953L25.97 9.5Z"/></g><g transform="translate(59 3)"><use xlink:href="#g" fill="#000" filter="url(#h)"/><use xlink:href="#g" fill="#FFF" fill-opacity=".05"/></g><g fill="#FFF" filter="url(#i)" transform="translate(69 13)"><path d="M19 8v14H7.5A2.5 2.5 0 0 1 5 19.5v-9A2.5 2.5 0 0 1 7.5 8H19Zm6.97 1.5.001.114v.306l.013 4.467.003 1.264.011 4.151v.294l.001.12.001.272v.012l-5-5.024v-.953L25.97 9.5Z"/></g><g transform="translate(227 3)"><use xlink:href="#j" fill="#000" filter="url(#k)"/><use xlink:href="#j" fill="#FFF" fill-opacity=".85"/></g><g filter="url(#l)" transform="translate(237 13)"><path fill="#FFF" d="m22.567 4.94.964.987-4.532 4.53L19 22H7.5l-.04-.003-4.082 4.083-.964-.988L22.567 4.939ZM25.97 9.5V9.92l.013 4.467.003 1.264.011 4.151v.294l.001.062.001.342-5-5.024v-.953L25.97 9.5ZM16.506 8 5 19.506V10.5A2.5 2.5 0 0 1 7.5 8h9.006Z"/></g><g transform="translate(395 3)"><use xlink:href="#m" fill="#000" filter="url(#n)"/><use xlink:href="#m" fill="#FFF"/></g><g filter="url(#o)" transform="translate(405 13)"><path fill="#FFF" d="m22.567 4.94.964.987-4.532 4.53L19 22H7.5l-.04-.003-4.082 4.083-.964-.988L22.567 4.939ZM25.97 9.5V9.92l.013 4.467.003 1.264.011 4.151v.294l.001.062.001.342-5-5.024v-.953L25.97 9.5ZM16.506 8 5 19.506V10.5A2.5 2.5 0 0 1 7.5 8h9.006Z"/></g><g transform="translate(283 3)"><use xlink:href="#p" fill="#000" filter="url(#q)"/><use xlink:href="#p" fill="#FFF" fill-opacity=".6"/></g><g filter="url(#r)" transform="translate(293 13)"><path fill="#FFF" d="m22.567 4.94.964.987-4.532 4.53L19 22H7.5l-.04-.003-4.082 4.083-.964-.988L22.567 4.939ZM25.97 9.5V9.92l.013 4.467.003 1.264.011 4.151v.294l.001.062.001.342-5-5.024v-.953L25.97 9.5ZM16.506 8 5 19.506V10.5A2.5 2.5 0 0 1 7.5 8h9.006Z"/></g></g></svg>