<svg xmlns="http://www.w3.org/2000/svg" width="31" height="30"><defs><filter id="a"><feColorMatrix in="SourceGraphic" values="0 0 0 0 1.000000 0 0 0 0 1.000000 0 0 0 0 1.000000 0 0 0 0.850000 0"/></filter></defs><g fill="none" fill-rule="evenodd" filter="url(#a)" transform="translate(.5)"><path d="M3 3h24v24H3z"/><path fill="#FFF" fill-rule="nonzero" d="M13.727 6.166c.484-1.451 1.83-1.548 2.43-.29l.116.29 1.889 5.67 5.672 1.891c1.401.467 1.54 1.74.415 2.365l-.282.132-5.805 1.938-1.89 5.672c-.466 1.401-1.738 1.54-2.364.415l-.132-.282-1.94-5.805-5.67-1.89c-1.401-.466-1.54-1.738-.415-2.364l.282-.132.133-.049 5.67-1.89 1.891-5.671zm8.763-2.7c.194-.58.733-.619.973-.116l.046.116.756 2.269 2.269.756c.56.187.615.695.166.946l-.113.053-2.322.775-.756 2.269c-.187.56-.695.615-.946.166l-.053-.113-.775-2.322-2.269-.756c-.56-.187-.615-.695-.166-.946l.113-.053.053-.02 2.269-.755.756-2.269z"/></g></svg>