<svg xmlns="http://www.w3.org/2000/svg" width="19" height="19"><defs><filter id="a"><feColorMatrix in="SourceGraphic" values="0 0 0 0 0.600000 0 0 0 0 0.600000 0 0 0 0 0.600000 0 0 0 1.000000 0"/></filter></defs><g fill="none" fill-rule="evenodd" stroke-linejoin="round" filter="url(#a)"><g stroke="#FFF" stroke-width="1.2"><path d="M11.938 9.5a2.439 2.439 0 1 1-4.877-.001 2.439 2.439 0 0 1 4.877.001z"/><path d="M15.15 9.5c0-.24-.018-.474-.05-.705l.9-1.062a6.44 6.44 0 0 0-1.661-2.766l-1.403.218a5.73 5.73 0 0 0-1.271-.707l-.505-1.28a7.077 7.077 0 0 0-3.32.001l-.504 1.279a5.708 5.708 0 0 0-1.271.707l-1.403-.218A6.42 6.42 0 0 0 3 7.733l.9 1.062a5.12 5.12 0 0 0 0 1.41L3 11.267a6.441 6.441 0 0 0 1.662 2.766l1.403-.218c.387.286.814.524 1.27.707l.505 1.28a7.077 7.077 0 0 0 3.32-.001l.505-1.279a5.7 5.7 0 0 0 1.27-.707l1.404.218A6.433 6.433 0 0 0 16 11.267l-.9-1.062c.032-.23.05-.466.05-.705z"/></g></g></svg>