<svg xmlns="http://www.w3.org/2000/svg" width="42" height="42" fill="none"><circle cx="21" cy="21" r="21" fill="#fff" fill-opacity=".15"/><circle cx="21" cy="21" r="20.4" stroke="#fff" stroke-opacity=".6" stroke-width="1.2"/><path fill="#fff" fill-rule="evenodd" d="M28.395 12.236a.445.445 0 0 0-.832-.003l-.638 1.667a.445.445 0 0 1-.274.263l-1.297.438a.444.444 0 0 0-.01.84l1.317.48c.12.043.216.136.262.255l.64 1.634a.444.444 0 0 0 .83-.003l.624-1.628a.446.446 0 0 1 .264-.26l1.327-.478a.445.445 0 0 0-.01-.84l-1.307-.438a.446.446 0 0 1-.276-.266l-.62-1.66ZM29.57 21c0-.802-.11-1.578-.316-2.313a1.644 1.644 0 0 1-2.808-.44v-.001l-.516-1.315-.998-.363a1.645 1.645 0 0 1 .036-3.103h.002l.07-.025A8.57 8.57 0 1 0 29.57 21Zm-11.038-4.12a.981.981 0 1 1-.001 1.963.981.981 0 0 1 .001-1.962Zm7.018 7.756-3.855-3.397-2.753 2.362-.474.407-.458-.424-1.737-1.608v-1.908l2.23 2.064 2.743-2.352.462-.396.457.402 3.562 3.14v1.71h-.177Z" clip-rule="evenodd"/></svg>