<svg width="32" height="32" viewBox="0 0 32 32" fill="none" xmlns="http://www.w3.org/2000/svg">
<rect width="32" height="32" fill="#191919"/>
<path fill-rule="evenodd" clip-rule="evenodd" d="M14.9661 7.49C14.9661 6.83968 15.4932 6.3125 16.1436 6.3125C16.7939 6.3125 17.3211 6.83968 17.3211 7.49V14.8334H17.9492V9.1775C17.9492 8.52718 18.4764 8 19.1267 8C19.777 8 20.3042 8.52718 20.3042 9.1775V14.8334H20.3042V17.3615C21.3158 15.6623 22.5216 14.9897 23.5861 15.1792C23.7069 15.2007 23.8239 15.2364 23.934 15.2854C24.6184 15.5898 24.8959 16.3303 24.5537 16.9393L21.7649 21.9774C20.3839 24.3583 18.0375 25.6244 14.6923 25.6244C11.5486 25.6244 9.00023 23.357 9.00023 20.5601V15.42H9L9.00023 15.3838V14.8334H9.00366L9.02399 11.5751C9.02803 10.9277 9.55401 10.405 10.2014 10.405C10.8546 10.405 11.383 10.9367 11.3789 11.5898L11.3587 14.8334H11.9832V8.74749C11.9832 8.09718 12.5103 7.56999 13.1607 7.56999C13.811 7.56999 14.3382 8.09718 14.3382 8.74749V14.8334H14.9661V7.49Z" fill="white"/>
</svg>
