<svg width="32" height="32" viewBox="0 0 32 32" fill="none" xmlns="http://www.w3.org/2000/svg">
<rect width="32" height="32" fill="#191919"/>
<circle cx="16" cy="16" r="16" fill="white" fill-opacity="0.12"/>
<path fill-rule="evenodd" clip-rule="evenodd" d="M6.80005 15.1243C6.80005 10.5985 11.0206 7.09998 16 7.09998C20.9794 7.09998 25.2 10.5985 25.2 15.1243C25.2 19.6502 20.9794 23.1483 16 23.1483C15.4932 23.1483 14.9958 23.1124 14.5106 23.0435L11.438 25.3214C11.4379 25.3215 11.4379 25.3215 11.4379 25.3215C10.8429 25.7626 9.99516 25.3413 9.9932 24.597C9.9932 24.5969 9.9932 24.5967 9.9932 24.5966L9.98375 21.2019C9.11406 20.5773 8.33792 19.9024 7.77197 19.0064C7.13258 17.9941 6.80005 16.7637 6.80005 15.1243ZM16 8.49998C11.591 8.49998 8.20005 11.56 8.20005 15.1243C8.20005 16.5642 8.48873 17.5196 8.95562 18.2588C9.43146 19.0121 10.1315 19.6055 11.081 20.2623L11.3817 20.4703L11.3827 20.836L11.3905 23.6139L13.9124 21.7442L14.1528 21.566L14.4478 21.6167C14.9493 21.7028 15.4681 21.7483 16 21.7483C20.4092 21.7483 23.8 18.6886 23.8 15.1243C23.8 11.56 20.4091 8.49998 16 8.49998Z" fill="white" fill-opacity="0.7"/>
</svg>
