<svg xmlns="http://www.w3.org/2000/svg" width="46" height="46" fill="none"><path fill="#fff" fill-opacity=".3" fill-rule="evenodd" d="M31.874 12.484a.533.533 0 0 0-.999-.004l-.765 2a.534.534 0 0 1-.328.316l-1.557.525a.534.534 0 0 0-.012 1.008l1.58.575a.534.534 0 0 1 .315.307l.769 1.961a.533.533 0 0 0 .995-.003l.748-1.954a.536.536 0 0 1 .318-.311l1.592-.575a.534.534 0 0 0-.011-1.008l-1.57-.525a.536.536 0 0 1-.33-.32l-.745-1.992ZM33.284 23c0-.962-.132-1.893-.379-2.776a1.973 1.973 0 0 1-3.37-.527v-.002l-.619-1.578-1.197-.435a1.974 1.974 0 0 1 .043-3.724h.002l.085-.03A10.238 10.238 0 0 0 23 12.716c-5.68 0-10.284 4.604-10.284 10.284 0 5.68 4.604 10.284 10.284 10.284 5.68 0 10.284-4.604 10.284-10.284ZM20.04 18.057a1.177 1.177 0 1 1-.002 2.354 1.177 1.177 0 0 1 .002-2.354Zm8.421 9.306-4.626-4.076-3.304 2.835-.568.487-.55-.508-2.085-1.93v-2.29l2.677 2.477 3.291-2.822.555-.475.548.483 4.275 3.767v2.052h-.212Z" clip-rule="evenodd"/></svg>