<svg xmlns="http://www.w3.org/2000/svg" width="42" height="42" fill="none"><circle cx="21" cy="21" r="21" fill="#2DA94D"/><path fill="#fff" d="m15.64 12.854-.075.046c-2.149 1.47-3.35 3.446-2.606 6.066.432 1.52 1.127 2.917 2.006 4.186.595.86 1.159 1.512 1.752 2.11l.152.152a15.074 15.074 0 0 0 2.109 1.751c1.27.88 2.67 1.577 4.188 2.008 2.348.667 4.225-.256 5.68-2.081.51-.64.362-1.585-.313-2.054l-2.985-2.076-.075-.046a.868.868 0 0 0-1.022.132l-1.528 1.464-.086-.02a4.175 4.175 0 0 1-.685-.255c-.753-.349-1.579-.932-2.452-1.804-.873-.873-1.456-1.7-1.805-2.452a4.178 4.178 0 0 1-.254-.685l-.022-.087 1.465-1.528a.869.869 0 0 0 .087-1.096l-2.406-3.46a.866.866 0 0 0-1.125-.27Z"/></svg>