<svg width="32" height="32" viewBox="0 0 32 32" fill="none" xmlns="http://www.w3.org/2000/svg">
<rect width="32" height="32" fill="#191919"/>
<circle cx="16" cy="16" r="16" fill="white" fill-opacity="0.12"/>
<path fill-rule="evenodd" clip-rule="evenodd" d="M9.4 22.6015V9.4H18.0386V22.6015H9.4ZM19.4386 22.6015H22.6015V19.1647H19.4386V22.6015ZM19.4386 17.7647V14.2368H22.6015V17.7647H19.4386ZM19.4386 12.8368H22.6015V9.4H19.4386V12.8368ZM9.22148 8C8.54681 8 8 8.54723 8 9.22172V22.7798C8 23.4543 8.54681 24.0015 9.22148 24.0015H22.78C23.4547 24.0015 24.0015 23.4543 24.0015 22.7798V9.22172C24.0015 8.54723 23.4547 8 22.78 8H9.22148Z" fill="white" fill-opacity="0.7"/>
</svg>
