<svg fill="none" height="32" viewBox="0 0 34 32" width="34" xmlns="http://www.w3.org/2000/svg"><path clip-rule="evenodd" d="m16.3715 10.7682v-2.82386h1.2v2.82386zm-3.0003 2.6238c.0472-.2905.298-.5038.5922-.5038h5.9595c.2928 0 .5429.2114.5916.5002l1.4503 8.5948h1.1457v1.2h-12.2777v-1.2h1.1422zm6.0444.6962 1.3323 7.895h-7.5572l1.2831-7.895zm-10.44343 2.4745h2.80503v-1.2h-2.80503zm1.90853-5.8424 1.8889 1.8889.8485-.8486-1.8889-1.88886zm11.2856 4.6612h2.838v1.2h-2.838zm.0617-5.49087-1.87 1.86997.8485.8486 1.87-1.87z" fill="#fff" fill-rule="evenodd"/></svg>