<svg xmlns="http://www.w3.org/2000/svg" width="42" height="42"><g fill="#fff" fill-rule="evenodd"><circle cx="21" cy="21" r="21" fill-opacity=".25"/><path fill="none" d="M11 11h20v20H11z"/><path fill-rule="nonzero" d="M23.668 14.889h-10c-.92 0-1.667.746-1.667 1.667v8.888c0 .92.746 1.667 1.667 1.667h10a.556.556 0 0 0 .555-.555V15.444a.556.556 0 0 0-.555-.555zm5.693.19-3.89 4.444a.556.556 0 0 0-.137.366v1.667c0 .123.042.243.117.34l3.89 5a.556.556 0 0 0 .993-.34V15.444a.556.556 0 0 0-.973-.365z"/></g></svg>