<svg xmlns="http://www.w3.org/2000/svg" width="42" height="42"><g fill="none" fill-rule="evenodd"><circle cx="21" cy="21" r="21" fill="#fff" fill-opacity=".85"/><g opacity=".85"><path d="M11 11h20v20H11z"/><path fill="#000" d="m28.1 12.34.786.786-17.05 17.05-.786-.786 2.31-2.31a1.667 1.667 0 0 1-1.362-1.635v-8.889c0-.919.748-1.667 1.667-1.667h10c.307 0 .556.25.556.556v.774zm-3.88 6.903v7.313a.556.556 0 0 1-.555.556H16.35zm5.138-4.164a.557.557 0 0 1 .973.366v11.111a.556.556 0 0 1-.994.341l-3.889-5a.557.557 0 0 1-.117-.341v-1.667c0-.134.05-.264.138-.366z"/></g></g></svg>