<svg fill="none" height="23" viewBox="0 0 23 23" width="23" xmlns="http://www.w3.org/2000/svg"><path clip-rule="evenodd" d="m11.7455 4.09525c.2114.09854.3465.31061.3465.54382v13.31843c0 .2332-.1351.4453-.3465.5439-.2113.0985-.4607.0656-.6393-.0843l-4.09814-3.4405h-3.42478c-.33137 0-.6-.2687-.6-.6v-6.15656c0-.33137.26863-.6.6-.6h3.42478l4.09814-3.4405c.1786-.14995.428-.18282.6393-.08429zm-.8535 1.83094-3.27969 2.75338c-.10807.09074-.24467.14047-.38578.14047h-3.04325v4.95656h3.04325c.14111 0 .27771.0497.38578.1404l3.27969 2.7534zm5.7771 6.22071-2.0602 2.0603-.8486-.8485 2.0603-2.0603-2.0603-2.06025.8486-.84852 2.0602 2.06027 2.0603-2.06027.8485.84852-2.0603 2.06025 2.0603 2.0603-.8485.8485z" fill="#fff" fill-opacity=".6" fill-rule="evenodd"/></svg>