<svg xmlns="http://www.w3.org/2000/svg" width="42" height="42"><g fill="#fff" fill-rule="evenodd"><circle cx="21" cy="21" r="21" fill-opacity=".35"/><path fill="none" d="M11 11h20v20H11z"/><path fill-rule="nonzero" d="M23.668 14.889c.307 0 .555.249.555.555v11.112a.556.556 0 0 1-.555.555h-10c-.92 0-1.667-.746-1.667-1.667v-8.888c0-.92.746-1.667 1.667-1.667zm5.693.19a.556.556 0 0 1 .973.365v11.112c0 .529-.669.758-.994.34l-3.889-5a.556.556 0 0 1-.117-.34v-1.667c0-.135.05-.265.138-.366zm-7.804 2.364H16.2v1.114h3.454l-5.048 5.049.788.788 5.048-5.05V22.8h1.115z"/></g></svg>