<svg width="23" height="23" viewBox="0 0 23 23" fill="none" xmlns="http://www.w3.org/2000/svg">
<g opacity="0.6">
<path fill-rule="evenodd" clip-rule="evenodd" d="M12.4386 3.7536C12.4386 3.57274 12.2481 3.30061 11.8489 3.30061C11.4498 3.30061 11.2593 3.57274 11.2593 3.7536V4.27362C11.2597 4.28391 11.26 4.29426 11.26 4.30467V9.81959C11.26 10.1786 10.969 10.4696 10.61 10.4696C10.251 10.4696 9.95998 10.1786 9.95998 9.81959V4.88763C9.9595 4.87734 9.95925 4.86699 9.95925 4.85658C9.95925 4.67572 9.76872 4.4036 9.36956 4.4036C8.9704 4.4036 8.77987 4.67572 8.77987 4.85658V6.47519C8.78052 6.48712 8.78086 6.49915 8.78086 6.51125V9.82021C8.78086 10.1792 8.48984 10.4702 8.13086 10.4702C7.77187 10.4702 7.48086 10.1792 7.48086 9.82021V7.65011C7.4802 7.63817 7.47987 7.62615 7.47987 7.61404C7.47987 7.43319 7.28934 7.16106 6.89018 7.16106C6.49102 7.16106 6.30049 7.43319 6.30049 7.61404V15.3349C6.30049 17.3433 8.15611 19.0969 10.6093 19.0969C13.3324 19.0969 15.1383 18.0845 16.2052 16.249L18.6315 11.8658L18.6315 11.8658L18.6336 11.8622C18.7203 11.7078 18.6885 11.4637 18.3962 11.3337C18.3491 11.3127 18.2978 11.2969 18.2435 11.2872C17.724 11.1948 16.9615 11.4783 16.1265 12.8809C15.9769 13.1323 15.6777 13.2528 15.3956 13.1752C15.1135 13.0976 14.918 12.841 14.918 12.5485V5.40807C14.918 5.22722 14.7275 4.95509 14.3283 4.95509C13.9445 4.95509 13.7536 5.20672 13.7395 5.38685V9.81959C13.7395 10.1786 13.4485 10.4696 13.0895 10.4696C12.7305 10.4696 12.4395 10.1786 12.4395 9.81959V5.4415C12.4389 5.43043 12.4386 5.41928 12.4386 5.40807V3.7536ZM11.8489 2.00061C11.0555 2.00061 10.2959 2.47923 10.0455 3.22116C9.83103 3.14458 9.60175 3.1036 9.36956 3.1036C8.3994 3.1036 7.47987 3.81911 7.47987 4.85658V5.94999C7.29067 5.89187 7.09151 5.86106 6.89018 5.86106C5.92002 5.86106 5.00049 6.57658 5.00049 7.61404V15.3349C5.00049 18.1999 7.5851 20.3969 10.6093 20.3969C13.712 20.3969 15.9934 19.2053 17.333 16.8958L17.3395 16.8845L17.3394 16.8844L19.7669 12.499L19.768 12.497C20.2757 11.5909 19.8242 10.5461 18.9246 10.1459C18.7798 10.0815 18.6273 10.0351 18.4712 10.0073C17.6597 9.8629 16.8985 10.1344 16.218 10.7193V5.40807C16.218 4.37061 15.2985 3.65509 14.3283 3.65509C14.127 3.65509 13.9278 3.68591 13.7386 3.74402C13.733 2.71173 12.8161 2.00061 11.8489 2.00061Z" fill="white"/>
</g>
</svg>
