<svg xmlns="http://www.w3.org/2000/svg" width="56" height="56" fill="none"><path fill="#fff" fill-rule="evenodd" d="M41.558 24.301c.055.055.11.11.219.164.82.82 1.312 1.967 1.257 3.278 0 1.311-.547 2.513-1.476 3.332-.11-.327-.328-.874-.656-1.639-.984-2.24-3.226-2.84-3.226-2.84s-1.477-3.169-2.297-4.644c-.382-.765-.492-.054-.492-.054s1.258 2.895 2.187 5.135c3.61 1.639 3.336 4.753 3.336 4.753v.109c0 2.185-1.422 4.097-3.445 4.807l-6.07 3.66c-.874.601-1.913.874-3.116.874-1.093 0-2.242-.327-3.116-.874 0 0 0-.054-.055-.054-1.64-.71-6.288-4.043-6.288-4.043a7.828 7.828 0 0 1-.82-.6l-.164-.11s-2.133-2.185-1.313-4.971c.82-2.732 3.117-3.442 3.117-3.442s.164-1.256-.273-2.24c-.055.765-.657 2.13-.657 2.13s-2.952 1.367-2.952 4.153c0 1.912.11 3.277.273 3.988-1.53-.765-2.57-2.295-2.57-4.098 0-1.092.383-2.075.985-2.84 1.804-2.677 2.187-5.627 2.241-6.392.11-2.404 2.188-4.37 4.703-4.37a4.66 4.66 0 0 1 2.734.874h.273c.82 0 1.531.164 2.242.491.765-.71 1.75-1.147 2.843-1.31.82-1.148 2.242-1.913 3.773-1.913 2.187 0 4.046 1.475 4.538 3.442.438.929 1.586 3.114 3.5 4.698.273.164.546.328.765.546Zm-8.256-.655c0-1.366-1.149-2.459-2.516-2.459-1.421 0-2.515 1.093-2.515 2.459s1.148 2.458 2.515 2.458c1.367 0 2.516-1.092 2.516-2.458Zm-8.913-.874c1.476 0 2.68.82 2.68 1.857 0 1.038-1.204 1.858-2.68 1.858-1.476 0-2.68 0-2.68-1.858 0-1.038 1.204-1.857 2.68-1.857Zm11.81 12.62a.724.724 0 0 0-.71-.711c-.328 0-.602.164-.711.273 0 0-.438.82-.82.765-.144 0-.404.074-.826.193-.54.153-1.344.381-2.51.626-1.695.328-1.859-.218-1.859-.437V35.01c.547-.11 1.094-.383 1.477-.765.82-.492 1.585-1.257 1.968-1.639a2.443 2.443 0 0 0 1.531-2.294c0-1.202-.765-2.13-1.86-2.459-.272-.164-1.147-.6-2.952-.655-.164-.055-.382-.055-.546-.055-.165 0-.383 0-.547.055-1.586.054-2.406.382-2.625.546-1.203.273-2.078 1.257-2.078 2.513 0 1.038.602 1.857 1.477 2.294.328.383 1.039 1.038 1.804 1.585.328.437.875.765 1.422.874v1.147c0 .164-.219.6-1.86.273-2.077-.437-3.99-.71-4.373-.656-.24.049-.481-.284-.647-.513l-.064-.087c-.055-.273-.383-.547-.711-.547a.724.724 0 0 0-.71.71c0 .164.054.274.108.383.164.328.657 1.093 1.969 1.202.493.033.947.046 1.384.058 1.019.03 1.952.057 3.1.324.984.219 1.804.055 2.296-.328.492.383 1.312.547 2.296.328a12.374 12.374 0 0 1 2.139-.28c.342-.022.74-.046 1.306-.102 1.039-.055 1.531-.547 1.804-.929a.74.74 0 0 0 .328-.6ZM31.608 23.81a1.421 1.421 0 1 1-2.842-.002 1.421 1.421 0 0 1 2.842.002Zm-6.234 1.584a1.148 1.148 0 1 0 .001-2.295 1.148 1.148 0 0 0 0 2.295Z" clip-rule="evenodd"/></svg>