<svg width="23" height="23" viewBox="0 0 23 23" fill="none" xmlns="http://www.w3.org/2000/svg">
<circle opacity="0.7" cx="11.5" cy="11.5" r="11.5" fill="black"/>
<g clip-path="url(#clip0_553_58722)">
<rect opacity="0.01" x="4.5" y="4.5" width="14" height="14" fill="white"/>
<rect opacity="0.01" x="4.92863" y="4.92871" width="13.1429" height="13.1429" fill="white"/>
<path fill-rule="evenodd" clip-rule="evenodd" d="M11.4816 5.39795C10.278 5.39795 9.30228 6.37365 9.30228 7.57725V10.7289C9.30228 10.9764 9.34357 11.2144 9.41964 11.4362L13.6609 7.61736V7.57725C13.6609 6.37365 12.6852 5.39795 11.4816 5.39795ZM7.68967 10.6283C7.68967 11.3224 7.87619 11.973 8.20185 12.5327L7.34568 13.3036C6.8784 12.5827 6.59448 11.7318 6.55999 10.8172L6.55643 10.6283H7.68967ZM9.53481 13.883L8.66316 14.6678C9.31569 15.124 10.0839 15.426 10.9149 15.5212V17.602H12.0482V15.5213C14.5015 15.2403 16.4069 13.1568 16.4069 10.6283H15.2736L15.2693 10.812C15.1734 12.8209 13.5143 14.4203 11.4816 14.4203C10.7699 14.4203 10.1039 14.2241 9.53481 13.883ZM13.6609 10.1679L10.7552 12.7842C10.9824 12.8645 11.2269 12.9082 11.4816 12.9082C12.6852 12.9082 13.6609 11.9324 13.6609 10.7289V10.1679ZM16.8342 7.31034L16.2509 6.66253L5.25717 16.5614L5.84047 17.2092L16.8342 7.31034Z" fill="white"/>
</g>
<defs>
<clipPath id="clip0_553_58722">
<rect width="14" height="14" fill="white" transform="translate(4.5 4.5)"/>
</clipPath>
</defs>
</svg>
