<svg fill="none" height="23" viewBox="0 0 17 23" width="17" xmlns="http://www.w3.org/2000/svg"><path clip-rule="evenodd" d="m8.50163 15.6667c.92047 0 1.66667.7462 1.66667 1.6666 0 .9205-.7462 1.6667-1.66667 1.6667-.92048 0-1.66667-.7462-1.66667-1.6667 0-.9204.74619-1.6666 1.66667-1.6666zm0-5.83337c.92047 0 1.66667.74617 1.66667 1.66667s-.7462 1.6667-1.66667 1.6667c-.92048 0-1.66667-.7462-1.66667-1.6667s.74619-1.66667 1.66667-1.66667zm1.66667-4.16666c0-.92047-.7462-1.66667-1.66667-1.66667-.92048 0-1.66667.7462-1.66667 1.66667s.74619 1.66667 1.66667 1.66667c.92047 0 1.66667-.7462 1.66667-1.66667z" fill="#fff" fill-opacity=".6" fill-rule="evenodd"/></svg>