<svg width="32" height="32" viewBox="0 0 32 32" fill="none" xmlns="http://www.w3.org/2000/svg">
<rect width="32" height="32" fill="#191919"/>
<circle cx="16" cy="16" r="16" fill="white" fill-opacity="0.12"/>
<path fill-rule="evenodd" clip-rule="evenodd" d="M9.4 16.7008V22.6015H15.3008V16.7008H9.4ZM9.4 15.3008H15.3008V9.4H9.4V15.3008ZM16.7008 16.7008V22.6015H22.6015V16.7008H16.7008ZM22.6015 15.3008H16.7008V9.4H22.6015V15.3008ZM8 9.22172C8 8.54724 8.54681 8 9.22148 8H22.78C23.4547 8 24.0015 8.54723 24.0015 9.22172V22.7798C24.0015 23.4543 23.4547 24.0015 22.78 24.0015H9.22148C8.54681 24.0015 8 23.4543 8 22.7798V9.22172Z" fill="white" fill-opacity="0.7"/>
</svg>
