<svg xmlns="http://www.w3.org/2000/svg" width="42" height="42"><g fill="none" fill-rule="evenodd"><circle cx="21" cy="21" r="21" fill="#fff"/><path d="M11 11h20v20H11z"/><path fill="#000" d="M20.857 11.556a3.894 3.894 0 0 1 3.888 3.888v1.251l4.005-4.402.822.748-.027.029-4.8 5.276-4.832 5.311-1.224 1.347-.781.858-4.42 4.857-.761-.693-.06-.054 4.274-4.699a6.65 6.65 0 0 1-2.751-5.384h1.11c0 1.887.949 3.555 2.392 4.56l1.135-1.249a3.886 3.886 0 0 1-1.86-3.311v-4.445a3.893 3.893 0 0 1 3.89-3.888zm6.666 8.333c0 3.488-2.695 6.354-6.111 6.638v3.362H20.3v-3.362a6.611 6.611 0 0 1-1.194-.212l.863-.948c.289.046.584.077.886.077a5.562 5.562 0 0 0 5.556-5.555zm-2.79.242a3.89 3.89 0 0 1-3.27 3.595z"/></g></svg>