<svg xmlns="http://www.w3.org/2000/svg" xmlns:xlink="http://www.w3.org/1999/xlink" width="42" height="42"><defs><circle id="a" cx="21" cy="21" r="21"/></defs><g fill="none" fill-rule="evenodd"><use xlink:href="#a" fill="#f05334"/><use xlink:href="#a" fill="#000" fill-opacity=".1"/><path fill="#fff" fill-rule="nonzero" d="M21.168 15h-.342c-2.548.014-5.237.514-7.918 2.01-2.386 1.33-3.141 3.548-2.848 6.144a1.588 1.588 0 0 0 1.865 1.372l4.012-.72.09-.021a.964.964 0 0 0 .703-.91l.05-2.377.091-.054c.198-.116.446-.232.746-.342.875-.32 1.993-.514 3.378-.514 1.386 0 2.504.194 3.378.514.3.11.548.226.746.342l.09.054.05 2.378c.01.459.342.847.793.93l4.652.834a.961.961 0 0 0 1.118-.765c.537-2.865-.076-5.38-2.739-6.865-2.682-1.496-5.367-1.996-7.915-2.01z"/></g></svg>