<svg xmlns="http://www.w3.org/2000/svg" width="56" height="56" fill="none"><path fill="#fff" fill-rule="evenodd" d="M18.662 26.33c-.21 0-1.254-.588-1.965-1.475-1.028-.823-1.897-2.319-1.966-3.932.3-1.218.185-2.927 0-3.44-.047-.77-.047-.93.491-.983.621.16 6.88 1.71 6.88 1.474 0 .094-.185.288-.46.574-.411.428-1.021 1.064-1.505 1.884-.243-.1-.454-.263-.692-.448a5.848 5.848 0 0 0-.783-.535c-3.704-3.807-3.472-1.325-3.442-1.004l.002.02c-.016-.202.1-1.003.492-.982.303.085 1.056.513 2.948 2.457.31.3.543.994.492 1.474-.877 2.084-.703 4.915-.492 4.915Zm0 0v-.492c0-5.224 4.097-9.283 9.338-9.338 4.805.055 8.846 4.114 8.846 9.338v.491l-.013.086c-.05.33-.09.588.013.897-.05-.026-.099-.049-.144-.07-.254-.122-.407-.196-.347-.422h-.492l-.291-.077c-.507-.133-.91-.238-1.183-.414-.076.027-.064-.107-.04-.362.015-.161.035-.372.04-.62-.012-1.716-.686-3.581-1.966-3.933-1.747-.509-2.225-.166-2.437-.014a1.24 1.24 0 0 1-.02.015c.201-.143-1.482.844-1.475 2.948.136 1.739.714 2.558.915 2.843a.606.606 0 0 1 .068.106c-.017-.056.105.017.288.128.195.117.459.276.695.363-.57.05-.907.38-1.474.983-.148-.15-.58-.072-.895-.015l-.088.015a68.94 68.94 0 0 1-.307-.021c-.629-.045-1.027-.074-1.167.021-.568-.603-.904-.932-1.475-.983.268-.066.57-.262.769-.39.141-.092.23-.15.214-.101a.574.574 0 0 1 .071-.106c.213-.285.824-1.104.912-2.843.008-2.104-1.676-3.091-1.474-2.948l-.01-.007c-.207-.147-.723-.512-2.448.006-1.28.352-1.897 2.162-1.965 3.932.004.25.024.453.04.608.023.243.035.368-.04.375-.245.19-.684.297-1.29.446l-.185.046h-.491c.068.206-.147.316-.474.482l-.018.009c.113-.336.113-.61 0-.983Zm5.898.982c1.085 0 1.966-.77 1.966-1.72s-.88-1.72-1.966-1.72c-1.086 0-1.966.77-1.966 1.72s.88 1.72 1.966 1.72Zm8.846-1.72c0 .95-.88 1.72-1.966 1.72-1.086 0-1.966-.77-1.966-1.72s.88-1.72 1.966-1.72c1.086 0 1.966.77 1.966 1.72Zm1.966 7.617c.25-.09.361-.09.491 0 .983-.681 2.318-1.164 3.44-1.474.38.525.492 1.169.492 1.966 0 3.068-2.67 5.645-5.898 5.406-.39.24-.779.186-.983 0-.751.316-1.352.54-1.772.697-.399.15-.635.237-.685.286-.677.223-1.511.491-2.457.491-.89 0-1.78-.268-2.457-.491-.08-.078-.648-.294-1.598-.655l-.86-.328c-.204.186-.593.24-.983 0-3.282.24-5.897-2.338-5.897-5.406 0-.797.111-1.441.492-1.966 1.122.31 2.457.793 3.44 1.474.13-.144.296-.09.491 0 .084-.198.14-.413 0-.491.028-.244-.139-.351-.491-.492-.031.072-1.186-.285-2.57-.713l-.87-.27a6.115 6.115 0 0 1 .982-1.474c1.586.611 3.366 1.47 4.424 2.458.133-.06.267-.037.397-.015l.094.014c.12-.074.232-.289 0-.491-.436-.388-2.606-1.516-4.423-2.457.593-.508 1.372-.991 2.457-1.475.263.401.547.748.806 1.067.263.321.5.613.668.9.046.014.086.03.123.046.147.06.243.098.369-.047.127.132.25.084.364.04a.595.595 0 0 1 .127-.04c-.148-.301-.26-.409-.491-.491-.041-.053-.165-.172-.348-.348-.271-.26-.672-.646-1.126-1.127.168.035.366.025.591.013a7.51 7.51 0 0 1 .392-.013c1.112 0 2.17.322 2.948.983-.222-.016-.445.306-.491.492.046.62.436.995.983.983 1.344.334 1.9 1.3 1.966 1.966.157-.021.268 1.106 0 1.474-.4.76-1.623 1.834-2.95 1.966a47.345 47.345 0 0 0-1.585-.248c-.624-.09-1.114-.161-1.363-.244a3.373 3.373 0 0 0-.491.492c.041.016.08.036.12.056.15.075.275.138.371-.056.102.243 1.104.458 2.949.491 1.437-.14 2.94-1 3.44-1.474.5.528 1.947 1.334 3.44 1.474 1.845-.033 2.847-.248 2.949-.491.096.194.221.131.372.056.038-.02.078-.04.12-.056a10.967 10.967 0 0 1-.104-.124c-.144-.172-.244-.294-.388-.368-.278.082-.756.152-1.362.24-.464.069-1.004.148-1.587.252-1.326-.133-2.55-1.153-2.949-1.966-.268-.368-.157-1.495 0-1.474.12-.612.622-1.578 1.966-1.966.547.012.937-.417.983-.983-.046-.186-.269-.508-.491-.492.778-.66 1.836-.983 2.948-.983.112 0 .23.006.348.012.233.012.463.024.635-.012-.454.481-.855.867-1.126 1.127a5.414 5.414 0 0 0-.348.348c-.232.082-.343.19-.492.491a.596.596 0 0 1 .128.04c.114.044.237.091.364-.04.126.145.222.106.369.047.037-.015.077-.032.122-.047.168-.286.406-.578.668-.9.26-.317.544-.665.807-1.066 1.029.43 1.864.913 2.457 1.475-1.818.941-3.932 2.069-4.423 2.457-.232.202-.12.364 0 .492a2.55 2.55 0 0 0 .094-.015c.13-.022.263-.045.397.014 1.113-.986 2.893-1.9 4.423-2.457.362.343.696.88.983 1.475-.473.145-.941.295-1.373.433-1.15.367-2.04.652-2.067.55l-.12.065c-.27.145-.396.212-.371.426-.18.072-.1.26-.02.445l.02.046Zm4.094-16.377c-1.885.488-5.077 1.316-5.077 1.142 0 .096.188.294.468.588.407.428 1.008 1.058 1.498 1.87.22-.098.447-.365.682-.641.099-.117.199-.235.3-.342 3.685-3.705 3.53-1.387 3.45-1.018.05-.247-.07-.968-.5-.948-.199.085-.904.513-2.458 2.457-.367.241-.614.739-.83 1.175-.053.105-.103.206-.153.3.992 1.789.983 4.242.981 4.799 0 .075 0 .115.002.115a.866.866 0 0 1 .097-.066c.27-.178 1.059-.697 1.869-1.408.619-.823 1.433-2.372 1.474-3.932-.258-1.164-.15-2.82 0-3.44l.004-.181c.014-.606.016-.704-.495-.802-.138.028-.643.159-1.312.332Zm1.312 1.634Z" clip-rule="evenodd"/></svg>