<svg fill="none" height="32" viewBox="0 0 34 32" width="34" xmlns="http://www.w3.org/2000/svg"><path clip-rule="evenodd" d="m12.3061 8.84261c.114-.13286.2803-.20931.4554-.20931h8.3278c.1751 0 .3414.07646.4554.20932.114.13287.1642.3089.1376.48192l-.3172 2.06156 2.0104-2.01039.8485.84849-13 13-.8485-.8485 2.8757-2.8757h-2.0514c-.2368 0-.4514-.1393-.5479-.3555-.0965-.2163-.0568-.469.1013-.6453l2.4127-2.6886-.9975-6.4861c-.0266-.17302.0237-.34903.1377-.48189zm2.1451 9.45739 5.4791-5.4791.4596-2.9876h-6.9291l.9343 6.0755c.0273.1776-.0264.3581-.1465.4919l-1.7042 1.8993zm5.2734-1.7623 1.0021-1.0021-.0423.2749 2.4131 2.6887c.1581.1762.1979.429.1014.6453-.0965.2162-.3112.3555-.548.3555h-4.0844v3.2666c0 .3314-.2687.6-.6.6h-2.0822c-.3314 0-.6-.2686-.6-.6v-1.7886l1.2-1.2v2.3886h.8822v-3.2666-.0042l.5958-.5958h.0042 3.3397z" fill="#fff" fill-rule="evenodd"/></svg>