<svg width="32" height="32" viewBox="0 0 32 32" fill="none" xmlns="http://www.w3.org/2000/svg">
<rect width="32" height="32" fill="#191919"/>
<circle cx="16" cy="16" r="16" fill="white" fill-opacity="0.12"/>
<path fill-rule="evenodd" clip-rule="evenodd" d="M16.2061 6.41113C15.3931 6.41113 14.6171 6.52682 13.8794 6.71154C13.6697 6.76404 13.4961 6.91045 13.4089 7.10823L12.7392 8.62741C12.3246 8.82358 11.9317 9.05417 11.562 9.31228L9.89726 9.13134C9.68237 9.10799 9.46875 9.18522 9.31847 9.34058C8.24019 10.4554 7.43193 11.8293 6.99357 13.3632C6.93419 13.571 6.97411 13.7946 7.10172 13.969L8.09178 15.3219C8.07241 15.5419 8.06051 15.768 8.06051 16C8.06051 16.2316 8.0724 16.4579 8.09201 16.6784L7.10129 18.0315C6.97358 18.2059 6.93362 18.4295 6.99301 18.6374C7.4312 20.1707 8.23755 21.5454 9.31582 22.6596C9.46611 22.8149 9.67971 22.8921 9.89455 22.8687L11.5676 22.6867C11.9348 22.9433 12.325 23.1739 12.7381 23.3698L13.4117 24.8974C13.499 25.0954 13.6729 25.2419 13.8828 25.2942C14.6214 25.4784 15.3974 25.5889 16.2061 25.5889C17.0142 25.5889 17.7902 25.4784 18.5292 25.2942C18.7393 25.2419 18.9133 25.0953 19.0005 24.8973L19.6736 23.3697C20.0867 23.1738 20.4769 22.9433 20.844 22.6867L22.5176 22.8687C22.7325 22.8921 22.9462 22.8148 23.0965 22.6595C24.174 21.5454 24.9809 20.1709 25.4191 18.6374C25.4785 18.4295 25.4385 18.2058 25.3108 18.0313L24.3197 16.6785C24.3394 16.4584 24.3516 16.232 24.3516 16C24.3516 15.7681 24.3394 15.5416 24.3197 15.3215L25.3108 13.968C25.4386 13.7936 25.4785 13.5699 25.4191 13.362C24.9808 11.8296 24.1739 10.4553 23.0967 9.34031C22.9464 9.18475 22.7326 9.1074 22.5176 9.13079L20.8438 9.31284C20.4767 9.05655 20.0866 8.8261 19.6737 8.63002L19.0005 7.1027C18.9132 6.90466 18.7392 6.75813 18.5292 6.70579C17.7902 6.52162 17.0142 6.41113 16.2061 6.41113ZM13.9122 9.43737L14.5487 7.99322C15.0901 7.87778 15.6417 7.81113 16.2061 7.81113C16.7701 7.81113 17.3219 7.87508 17.8609 7.98845L18.5005 9.43956C18.5719 9.60147 18.7019 9.73035 18.8645 9.80027C19.3499 10.0091 19.8065 10.2802 20.2336 10.5988C20.3754 10.7046 20.552 10.7528 20.7279 10.7337L22.3194 10.5606C23.0521 11.3842 23.6194 12.3554 23.9736 13.4245L23.0308 14.712C22.9262 14.8548 22.8796 15.0319 22.9003 15.2076C22.932 15.4759 22.9516 15.7386 22.9516 16C22.9516 16.2614 22.932 16.5241 22.9003 16.7924C22.8796 16.9682 22.9262 17.1454 23.0308 17.2881L23.9736 18.5751C23.6195 19.6451 23.0522 20.6162 22.3196 21.4389L20.7279 21.2658C20.5518 21.2466 20.375 21.2949 20.2331 21.401C19.8063 21.7199 19.35 21.9908 18.865 22.199C18.7022 22.2689 18.5719 22.3979 18.5005 22.56L17.8609 24.0116C17.3219 24.125 16.7701 24.1889 16.2061 24.1889C15.6415 24.1889 15.0898 24.125 14.5512 24.0116L13.911 22.5598C13.8396 22.3978 13.7093 22.2688 13.5466 22.199C13.0616 21.9908 12.6053 21.7199 12.1784 21.401C12.0366 21.2949 11.8598 21.2466 11.6837 21.2658L10.0924 21.4389C9.35958 20.6163 8.79259 19.6451 8.43847 18.575L9.38085 17.288C9.48539 17.1452 9.53198 16.9682 9.51125 16.7924C9.4797 16.5251 9.46051 16.2622 9.46051 16C9.46051 15.7372 9.47971 15.4746 9.51085 15.2063C9.53119 15.031 9.4846 14.8546 9.38042 14.7122L8.43901 13.4257C8.79324 12.3559 9.36137 11.3848 10.0953 10.5611L11.6782 10.7331C11.8544 10.7523 12.0312 10.7039 12.1731 10.5978C12.5994 10.279 13.059 10.0082 13.5478 9.79822C13.7106 9.72834 13.8407 9.5994 13.9122 9.43737ZM13.7001 16.0567C13.7001 14.7551 14.7554 13.7 16.0573 13.7C17.359 13.7 18.4139 14.755 18.4139 16.0567C18.4139 17.3584 17.359 18.4134 16.0573 18.4134C14.7554 18.4134 13.7001 17.3583 13.7001 16.0567ZM16.0573 12.3C13.9825 12.3 12.3001 13.9816 12.3001 16.0567C12.3001 18.1318 13.9825 19.8134 16.0573 19.8134C18.1322 19.8134 19.8139 18.1316 19.8139 16.0567C19.8139 13.9818 18.1322 12.3 16.0573 12.3Z" fill="white" fill-opacity="0.7"/>
</svg>
