<svg width="32" height="32" viewBox="0 0 32 32" fill="none" xmlns="http://www.w3.org/2000/svg">
<rect width="32" height="32" fill="#191919"/>
<circle cx="16" cy="16" r="16" fill="white" fill-opacity="0.12"/>
<path fill-rule="evenodd" clip-rule="evenodd" d="M8.39976 16.07C8.39976 11.834 11.8337 8.4 16.0697 8.4C20.3058 8.4 23.7397 11.834 23.7397 16.07C23.7397 20.306 20.3058 23.74 16.0697 23.74C11.8337 23.74 8.39976 20.306 8.39976 16.07ZM16.0697 7C11.0605 7 6.99976 11.0608 6.99976 16.07C6.99976 21.0792 11.0605 25.14 16.0697 25.14C21.079 25.14 25.1397 21.0792 25.1397 16.07C25.1397 11.0608 21.079 7 16.0697 7ZM17.0324 14.7048C17.1503 15.0438 16.9711 15.4143 16.632 15.5322C16.4311 15.6021 16.3126 15.7718 16.3126 15.9537C16.3126 16.1351 16.4313 16.3053 16.632 16.3751C16.9711 16.493 17.1503 16.8635 17.0324 17.2025C16.9145 17.5416 16.544 17.7208 16.2049 17.6029C15.5335 17.3694 15.0126 16.7416 15.0126 15.9537C15.0126 15.165 15.5337 14.5379 16.2049 14.3044C16.544 14.1865 16.9145 14.3657 17.0324 14.7048ZM12.2633 17.5599C12.5842 17.3989 12.9748 17.5286 13.1357 17.8495C13.7122 18.9987 14.8577 19.766 16.1627 19.766C17.467 19.766 18.612 18.9988 19.1885 17.8495C19.3495 17.5286 19.7401 17.3989 20.0609 17.5599C20.3818 17.7208 20.5115 18.1114 20.3505 18.4323C19.5714 19.9856 17.9975 21.066 16.1627 21.066C14.3275 21.066 12.7529 19.9858 11.9737 18.4323C11.8128 18.1114 11.9424 17.7208 12.2633 17.5599ZM12.4788 13.0124C12.8378 13.0124 13.1288 13.3035 13.1288 13.6624V14.4476C13.1288 14.8066 12.8378 15.0976 12.4788 15.0976C12.1198 15.0976 11.8288 14.8066 11.8288 14.4476V13.6624C11.8288 13.3035 12.1198 13.0124 12.4788 13.0124ZM20.4467 13.6629C20.4467 13.3039 20.1556 13.0129 19.7967 13.0129C19.4377 13.0129 19.1467 13.3039 19.1467 13.6629V14.4481C19.1467 14.8071 19.4377 15.0981 19.7967 15.0981C20.1556 15.0981 20.4467 14.8071 20.4467 14.4481V13.6629Z" fill="white" fill-opacity="0.7"/>
</svg>
