<svg width="23" height="23" viewBox="0 0 23 23" fill="none" xmlns="http://www.w3.org/2000/svg">
<g opacity="0.6">
<path fill-rule="evenodd" clip-rule="evenodd" d="M7.90058 6.9999C7.90058 5.01168 9.51236 3.3999 11.5006 3.3999C13.3509 3.3999 14.8752 4.79585 15.0777 6.59205L17.9448 3.41777L18.8353 4.22212L4.83535 19.7221L3.94482 18.9178L7.19422 15.3202C6.08623 14.2158 5.40058 12.6879 5.40058 10.9999H6.60058C6.60058 12.3346 7.13422 13.5447 7.99977 14.4284L8.87337 13.4612C8.27004 12.8174 7.90058 11.9518 7.90058 10.9999V6.9999ZM9.68192 12.566L13.9006 7.89533V6.9999C13.9006 5.67442 12.8261 4.5999 11.5006 4.5999C10.1751 4.5999 9.10058 5.67442 9.10058 6.9999V10.9999C9.10058 11.5984 9.31963 12.1457 9.68192 12.566ZM11.5627 14.5994L15.1006 10.6824V10.9999C15.1006 12.9674 13.5223 14.5662 11.5627 14.5994ZM10.4835 15.7942L9.58216 16.7921C10.0032 16.9315 10.4445 17.0262 10.9006 17.0708V19.9999H12.1006V17.0708C15.1879 16.7694 17.6006 14.1664 17.6006 10.9999H16.4006C16.4006 13.7061 14.2068 15.8999 11.5006 15.8999C11.1518 15.8999 10.8116 15.8635 10.4835 15.7942Z" fill="white"/>
</g>
</svg>
