<svg width="32" height="32" viewBox="0 0 32 32" fill="none" xmlns="http://www.w3.org/2000/svg">
<rect width="32" height="32" fill="#191919"/>
<circle cx="16" cy="16" r="16" fill="white" fill-opacity="0.12"/>
<path fill-rule="evenodd" clip-rule="evenodd" d="M12.6739 12.2244C12.6739 10.4005 14.1522 8.92222 15.9762 8.92222C17.8001 8.92222 19.2784 10.4005 19.2784 12.2244C19.2784 14.0484 17.8001 15.5267 15.9762 15.5267C14.1522 15.5267 12.6739 14.0484 12.6739 12.2244ZM15.9762 7.52222C13.379 7.52222 11.2739 9.62728 11.2739 12.2244C11.2739 14.8216 13.379 16.9267 15.9762 16.9267C18.5733 16.9267 20.6784 14.8216 20.6784 12.2244C20.6784 9.62728 18.5733 7.52222 15.9762 7.52222ZM15.9694 17.6623C13.5071 17.6623 11.4052 18.135 9.90023 19.1967C8.35744 20.2851 7.52222 21.9367 7.52222 24.0756H8.92222C8.92222 22.3473 9.57116 21.1422 10.7073 20.3407C11.8812 19.5126 13.6529 19.0623 15.9694 19.0623C18.293 19.0623 20.0681 19.5127 21.2436 20.341C22.3811 21.1424 23.03 22.3474 23.03 24.0756H24.43C24.43 21.9366 23.5947 20.2849 22.05 19.1965C20.5433 18.1349 18.4381 17.6623 15.9694 17.6623Z" fill="white" fill-opacity="0.7"/>
</svg>
