<svg width="32" height="32" viewBox="0 0 32 32" fill="none" xmlns="http://www.w3.org/2000/svg">
<rect width="32" height="32" fill="#191919"/>
<path fill-rule="evenodd" clip-rule="evenodd" d="M16.7308 8.16134C16.7308 7.98123 16.5389 7.70005 16.1255 7.70005C15.7121 7.70005 15.5203 7.98123 15.5203 8.16134V8.70744C15.5208 8.71872 15.5211 8.73008 15.5211 8.7415V14.548C15.5211 14.9346 15.2077 15.248 14.8211 15.248C14.4345 15.248 14.1211 14.9346 14.1211 14.548V9.3567C14.1206 9.34541 14.1203 9.33405 14.1203 9.32263C14.1203 9.14252 13.9285 8.86134 13.5151 8.86134C13.1017 8.86134 12.9099 9.14252 12.9099 9.32263V11.0288C12.9105 11.0407 12.9108 11.0527 12.9108 11.0647V14.5486C12.9108 14.9352 12.5974 15.2486 12.2108 15.2486C11.8242 15.2486 11.5108 14.9352 11.5108 14.5486V12.2618C11.5102 12.2499 11.5099 12.2379 11.5099 12.2259C11.5099 12.0457 11.318 11.7646 10.9046 11.7646C10.4912 11.7646 10.2994 12.0457 10.2994 12.2259V20.3549C10.2994 22.4591 12.2444 24.3001 14.8203 24.3001C17.6828 24.3001 19.5784 23.2363 20.6985 21.3096L23.253 16.6948L23.2529 16.6948L23.2551 16.6909C23.3083 16.5963 23.3112 16.5027 23.2788 16.4162C23.2453 16.3265 23.1641 16.2238 23.0125 16.1564C22.9642 16.1349 22.9113 16.1185 22.8553 16.1086C22.3182 16.013 21.5207 16.3043 20.6427 17.7792C20.4815 18.0499 20.1593 18.1796 19.8555 18.096C19.5517 18.0124 19.3412 17.7362 19.3412 17.4211V9.90327C19.3412 9.72316 19.1494 9.44198 18.736 9.44198C18.3372 9.44198 18.1446 9.70365 18.1315 9.88382V14.548C18.1315 14.9346 17.8181 15.248 17.4315 15.248C17.0449 15.248 16.7315 14.9346 16.7315 14.548V9.93531C16.731 9.92469 16.7308 9.91401 16.7308 9.90327V8.16134ZM16.1255 6.30005C15.2898 6.30005 14.488 6.80117 14.217 7.58078C13.9938 7.50293 13.7558 7.46134 13.5151 7.46134C12.4868 7.46134 11.5099 8.22002 11.5099 9.32263V10.4528C11.3152 10.3951 11.1109 10.3646 10.9046 10.3646C9.87632 10.3646 8.89941 11.1232 8.89941 12.2259V20.3549C8.89941 23.3816 11.6294 25.7001 14.8203 25.7001C18.0916 25.7001 20.4994 24.4434 21.913 22.0061L21.92 21.9939L21.9199 21.9939L24.4756 17.3767L24.4769 17.3745C25.0164 16.4115 24.536 15.3018 23.5816 14.8772C23.4279 14.8089 23.2661 14.7597 23.1006 14.7302C22.2505 14.579 21.4538 14.8584 20.7412 15.4614V9.90327C20.7412 8.80066 19.7643 8.04198 18.736 8.04198C18.5296 8.04198 18.3253 8.07255 18.1305 8.13032C18.1124 7.04452 17.1442 6.30005 16.1255 6.30005Z" fill="white" fill-opacity="0.7"/>
</svg>
