<svg width="14" height="14" viewBox="0 0 14 14" fill="none" xmlns="http://www.w3.org/2000/svg">
<path fill-rule="evenodd" clip-rule="evenodd" d="M3.65829 2.12442C3.72605 2.04545 3.82492 2 3.92899 2H10.0744C10.1784 2 10.2773 2.04545 10.3451 2.12443C10.4128 2.20341 10.4427 2.30805 10.4269 2.4109L9.68428 7.2374L11.4922 9.25177C11.5862 9.35653 11.6098 9.50678 11.5525 9.63533C11.4951 9.76388 11.3675 9.84667 11.2267 9.84667H8.1266V12.3433C8.1266 12.5403 7.96691 12.7 7.76993 12.7H6.23341C6.03643 12.7 5.87674 12.5403 5.87674 12.3433V9.84667H2.7766C2.63584 9.84667 2.50825 9.76388 2.45089 9.63535C2.39353 9.50681 2.41713 9.35656 2.51114 9.25179L4.31871 7.23741L3.57646 2.41088C3.56065 2.30803 3.59054 2.2034 3.65829 2.12442Z" fill="white" fill-opacity="0.5"/>
</svg>
