<svg xmlns="http://www.w3.org/2000/svg" width="24" height="24" fill="none"><path fill="#fff" fill-rule="evenodd" d="M19.395 3.236a.445.445 0 0 0-.832-.003L17.924 4.9a.445.445 0 0 1-.274.263l-1.297.438a.445.445 0 0 0-.01.84l1.317.48a.44.44 0 0 1 .262.255l.64 1.634a.444.444 0 0 0 .83-.003l.624-1.628a.446.446 0 0 1 .264-.26l1.327-.478a.445.445 0 0 0-.01-.84l-1.307-.438a.447.447 0 0 1-.276-.266l-.62-1.66zM20.57 12a8.56 8.56 0 0 0-.316-2.313 1.644 1.644 0 0 1-2.808-.44v-.001L16.93 7.93l-.998-.363a1.645 1.645 0 0 1 .036-3.103h.002l.07-.025A8.57 8.57 0 1 0 20.57 12zM9.532 7.88a.981.981 0 1 1-.001 1.963.981.981 0 0 1 .001-1.962zm7.018 7.756-3.855-3.397L9.941 14.6l-.473.406-.458-.423-1.737-1.608v-1.908l2.23 2.064 2.743-2.352.462-.396.457.402 3.562 3.14v1.71h-.177z" clip-rule="evenodd"/></svg>