<svg xmlns="http://www.w3.org/2000/svg" width="24" height="24"><g fill="none" fill-rule="evenodd"><path d="M0 0h24v24H0z"/><path stroke="#000" stroke-width="1.1" d="M12 3.85c2.25 0 4.288.912 5.763 2.387S20.15 9.75 20.15 12c0 2.25-.912 4.288-2.387 5.763S14.25 20.15 12 20.15c-2.25 0-4.288-.912-5.763-2.387S3.85 14.25 3.85 12c0-2.25.912-4.288 2.387-5.763S9.75 3.85 12 3.85z"/><path fill="#000" d="M14.931 13.16a.571.571 0 0 1 .394.707c-.39 1.35-1.79 2.294-3.404 2.294-1.614 0-3.013-.943-3.404-2.293a.575.575 0 0 1 1.104-.316c.246.849 1.213 1.465 2.3 1.465 1.087 0 2.054-.617 2.3-1.466a.575.575 0 0 1 .71-.392zm-2.597-2.202a.533.533 0 0 1-.367.66c-.107.03-.218.188-.218.398 0 .21.111.367.218.397a.533.533 0 1 1-.296 1.026c-.585-.167-.994-.752-.994-1.423 0-.67.408-1.256.993-1.423a.537.537 0 0 1 .664.365zm-3.64-1.975c.422 0 .766.343.766.762v.697c0 .42-.344.763-.766.763H8.67a.766.766 0 0 1-.766-.763v-.697c0-.42.344-.762.766-.762zm6.435 0c.421 0 .766.343.766.762v.697c0 .42-.345.763-.766.763h-.026a.766.766 0 0 1-.766-.763v-.697c0-.42.345-.762.766-.762z"/></g></svg>