<svg xmlns="http://www.w3.org/2000/svg" width="24" height="24"><path d="M15.011 12.02c0 1.648-.261 3.068-.785 4.26-.523 1.19-1.258 2.122-2.203 2.794l3.047 2.39-1.535 1.419-3.598-2.86a7.32 7.32 0 0 1-1.781.211c-1.344 0-2.535-.33-3.574-.99-1.04-.66-1.846-1.602-2.42-2.824-.574-1.223-.87-2.639-.885-4.248v-1.23c0-1.641.285-3.09.855-4.348s1.377-2.221 2.42-2.889c1.043-.668 2.237-1.002 3.58-1.002 1.375 0 2.584.332 3.627.996 1.043.664 1.846 1.62 2.409 2.865.562 1.246.843 2.702.843 4.366zm-2.25-1.102c0-2.008-.4-3.557-1.2-4.647-.802-1.09-1.944-1.634-3.429-1.634-1.414 0-2.529.54-3.345 1.623-.817 1.082-1.237 2.584-1.26 4.505v1.254c0 1.954.408 3.493 1.225 4.618.816 1.125 1.95 1.687 3.404 1.687s2.578-.53 3.375-1.588c.797-1.058 1.207-2.576 1.23-4.553zm5.426 7.945c0-.375.111-.687.334-.937.223-.25.557-.375 1.002-.375.445 0 .783.125 1.014.375.23.25.345.562.345.937 0 .36-.115.66-.345.902-.23.243-.569.364-1.014.364-.445 0-.78-.121-1.002-.364a1.283 1.283 0 0 1-.334-.902z" opacity=".85"/></svg>