<svg xmlns="http://www.w3.org/2000/svg" width="24" height="24"><g fill="none" fill-rule="evenodd"><path d="M0 0h24v24H0z"/><path stroke="#000" stroke-width="1.1" d="M18.999 5.76a.45.45 0 0 1 .451.45V19a.449.449 0 0 1-.45.45H5a.449.449 0 0 1-.45-.45V6.2c0-.125.05-.237.131-.318z"/><g fill="#000"><path d="M8.392 12.996H9.4v-1.008H8.392zM11.503 12.996h1.007v-1.008h-1.007zM14.613 12.996h1.008v-1.008h-1.008zM8.392 16.355H9.4v-1.008H8.392zM11.503 16.355h1.007v-1.008h-1.007zM14.613 16.355h1.008v-1.008h-1.008z"/></g><g stroke="#000" stroke-linejoin="round" stroke-width="1.1"><path d="M4.4 8.8h15.2M16.8 3.6v2M7.2 3.6v2"/></g></g></svg>