<svg xmlns="http://www.w3.org/2000/svg" width="24" height="24" fill="none"><path fill="#fff" fill-opacity=".01" d="M0 0h24v24H0z"/><path stroke="#000" stroke-linejoin="round" stroke-width="1.1" d="M19 19.45H5a.45.45 0 0 1-.45-.45V5A.45.45 0 0 1 5 4.55h14a.45.45 0 0 1 .45.45v14a.45.45 0 0 1-.45.45Z"/><path stroke="#000" stroke-linejoin="round" stroke-width="1.1" d="m6.895 14.755 3.58-3.584 3.532 3.536 3.059-3.062"/><path fill="#000" fill-rule="evenodd" d="M15.287 9.124a.9.9 0 1 1-1.801.001.9.9 0 0 1 1.801 0" clip-rule="evenodd"/></svg>