<svg xmlns="http://www.w3.org/2000/svg" width="40" height="40"><g fill="none" fill-rule="evenodd" opacity=".85"><path fill="#000" fill-opacity=".1" d="M0 0h40v40H0z"/><path fill="#000" fill-opacity=".25" stroke="#fff" stroke-width="1.1" d="M28.5 20a8.5 8.5 0 1 1-17 0 8.5 8.5 0 0 1 17 0z"/><path stroke="#fff" stroke-linejoin="round" d="m23.375 20-5.062-2.812v5.625z"/><path fill="#fff" d="m23.375 20-5.062-2.812v5.625z"/></g></svg><svg width="40" height="40" viewBox="0 0 40 40" fill="none" xmlns="http://www.w3.org/2000/svg"><rect width="40" height="40" fill="black" fill-opacity="0.2"/><path fill-rule="evenodd" clip-rule="evenodd" d="M28.5 20C28.5 24.6941 24.6947 28.5 20 28.5C15.3059 28.5 11.5 24.6941 11.5 20C11.5 15.3053 15.3059 11.5 20 11.5C24.6947 11.5 28.5 15.3053 28.5 20Z" fill="black" fill-opacity="0.25" stroke="white" stroke-width="1.1"/><path fill-rule="evenodd" clip-rule="evenodd" d="M23.375 20L18.3125 17.1875V22.8125L23.375 20Z" stroke="white" stroke-linejoin="round"/><path fill-rule="evenodd" clip-rule="evenodd" d="M23.375 20L18.3125 17.1875V22.8125L23.375 20Z" fill="white"/></svg>
