<svg xmlns="http://www.w3.org/2000/svg" width="60" height="60"><g fill="#FFF" fill-rule="evenodd" opacity=".6"><path d="M50.003 14a1 1 0 0 1 .997.993l-.001 4.533L49 21.525V16H11v28h15.525l-2 2H9.997A1 1 0 0 1 9 45.007V14.993c0-.549.443-.993.997-.993h40.006ZM51 23.77 51 45.007a.993.993 0 0 1-.997.993H28.77l2-2H49V25.769l1.999-1.999Z"/><path d="M35.56 30.684c.586-.355.587-.934.003-1.293l-8.506-5.231c-.584-.36-1.057-.093-1.057.597v10.482c0 .69.473.96 1.06.604l8.5-5.16ZM56.234 18l1.414 1.414-33.234 33.234L23 51.234z"/></g></svg>