<svg xmlns="http://www.w3.org/2000/svg" width="14" height="18" viewBox="0 0 28 34"><path fill="#FFF" fill-rule="nonzero" d="m9.955 10.77-7.52-1.348C3.062 7.026 4.263 5.19 6.04 3.914 7.817 2.638 10.333 2 13.59 2c3.736 0 6.438.697 8.105 2.09 1.666 1.393 2.5 3.144 2.5 5.254a5.869 5.869 0 0 1-1.016 3.36c-.677 1.002-1.7 1.88-3.066 2.636 1.106.273 1.953.592 2.539.957a6.194 6.194 0 0 1 2.217 2.314c.527.957.79 2.1.79 3.428 0 1.667-.436 3.265-1.308 4.795-.872 1.53-2.129 2.708-3.77 3.535-1.64.827-3.795 1.24-6.464 1.24-2.605 0-4.659-.306-6.162-.918-1.504-.612-2.741-1.507-3.711-2.685-.97-1.179-1.716-2.66-2.237-4.444l7.95-1.054c.312 1.601.797 2.711 1.455 3.33.657.618 1.494.928 2.51.928 1.067 0 1.956-.391 2.665-1.172.71-.782 1.065-1.823 1.065-3.125 0-1.328-.342-2.357-1.026-3.086-.683-.73-1.61-1.094-2.783-1.094-.625 0-1.484.156-2.578.469l.41-5.684c.443.065.788.098 1.035.098 1.042 0 1.911-.332 2.608-.996.696-.664 1.045-1.452 1.045-2.364 0-.872-.26-1.569-.782-2.09-.52-.52-1.237-.78-2.148-.78-.937 0-1.7.283-2.285.849-.586.566-.983 1.56-1.192 2.979Z"/></svg>