<svg xmlns="http://www.w3.org/2000/svg" width="8" height="12" viewBox="0 0 16 24"><path fill="#FFF" fill-rule="nonzero" d="M13.788 7.86a7.35 7.35 0 0 1-.378 2.282c-.252.775-.62 1.647-1.106 2.618L7.768 22H4.716L9 13.432c-.485.205-1.083.308-1.792.308-1.475 0-2.711-.527-3.71-1.582C2.499 11.103 2 9.708 2 7.972c0-1.83.546-3.3 1.638-4.41C4.73 2.452 6.144 1.896 7.88 1.896c1.755 0 3.178.537 4.27 1.61 1.092 1.073 1.638 2.525 1.638 4.354Zm-2.856.056c0-1.045-.28-1.885-.84-2.52-.56-.635-1.297-.952-2.212-.952-.915 0-1.647.313-2.198.938-.55.625-.826 1.47-.826 2.534 0 1.027.266 1.857.798 2.492s1.274.952 2.226.952c.915 0 1.652-.308 2.212-.924.56-.616.84-1.456.84-2.52Z"/></svg>