<svg xmlns="http://www.w3.org/2000/svg" width="14" height="20" viewBox="0 0 28 40"><path fill="#FFF" fill-rule="nonzero" d="M8.244 28.272c.245 1.779.958 3.22 2.139 4.324 1.18 1.104 2.706 1.656 4.577 1.656 1.901 0 3.427-.475 4.577-1.426 1.15-.95 2.047-2.147 2.691-3.588a16.545 16.545 0 0 0 1.288-4.669 37.11 37.11 0 0 0 .322-4.715h-.092c-.767 1.595-1.924 2.883-3.473 3.864a9.31 9.31 0 0 1-5.083 1.472c-1.595 0-3.051-.268-4.37-.805s-2.438-1.28-3.358-2.231c-.92-.95-1.633-2.085-2.139-3.404-.506-1.319-.759-2.76-.759-4.324s.268-3.013.805-4.347a10.2 10.2 0 0 1 2.254-3.45c.966-.966 2.116-1.725 3.45-2.277s2.798-.828 4.393-.828c1.963 0 3.65.299 5.06.897 1.41.598 2.576 1.58 3.496 2.944.92 1.365 1.602 3.136 2.047 5.313.445 2.177.667 4.83.667 7.958 0 .644-.038 1.487-.115 2.53a21.69 21.69 0 0 1-.529 3.335 22.748 22.748 0 0 1-1.173 3.588 11.908 11.908 0 0 1-2.024 3.266c-.843.966-1.894 1.756-3.151 2.369-1.257.613-2.76.92-4.508.92-2.883 0-5.167-.682-6.854-2.047-1.687-1.365-2.699-3.473-3.036-6.325h2.898Zm6.992-5.52c1.257 0 2.384-.222 3.381-.667a7.424 7.424 0 0 0 2.53-1.817 7.718 7.718 0 0 0 1.564-2.691c.353-1.027.529-2.139.529-3.335 0-1.165-.153-2.246-.46-3.243a7.08 7.08 0 0 0-1.449-2.622c-.66-.751-1.495-1.342-2.507-1.771-1.012-.43-2.223-.644-3.634-.644-1.135 0-2.177.222-3.128.667a7.778 7.778 0 0 0-2.461 1.794 7.807 7.807 0 0 0-1.587 2.645 9.215 9.215 0 0 0-.552 3.174c0 1.165.176 2.27.529 3.312.353 1.043.859 1.947 1.518 2.714a7.063 7.063 0 0 0 2.438 1.817c.966.445 2.062.667 3.289.667Z"/></svg>