<svg xmlns="http://www.w3.org/2000/svg" width="14" height="18" viewBox="0 0 28 34"><path fill="#FFF" fill-rule="nonzero" d="M25.522 31.121H1.655c.273-2.357 1.103-4.573 2.49-6.65 1.387-2.077 3.988-4.528 7.803-7.354 2.33-1.732 3.821-3.047 4.472-3.945.651-.899.977-1.751.977-2.559 0-.872-.322-1.618-.967-2.236-.644-.619-1.455-.928-2.432-.928-1.015 0-1.845.32-2.49.957-.644.638-1.077 1.765-1.299 3.38l-7.968-.645c.312-2.24.885-3.988 1.718-5.245.834-1.256 2.009-2.22 3.526-2.89C9.002 2.336 11.1 2 13.784 2c2.8 0 4.977.319 6.533.957 1.556.638 2.78 1.618 3.672 2.94.892 1.321 1.338 2.802 1.338 4.443 0 1.745-.512 3.411-1.534 5-1.022 1.588-2.88 3.333-5.576 5.234-1.601 1.107-2.672 1.882-3.213 2.324a29.43 29.43 0 0 0-1.904 1.739h12.422v6.484Z"/></svg>