<svg xmlns="http://www.w3.org/2000/svg" width="14" height="20" viewBox="0 0 28 40"><path fill="#FFF" fill-rule="nonzero" d="M7.876 25.742c-.061 1.288.084 2.453.437 3.496.353 1.043.874 1.932 1.564 2.668.69.736 1.549 1.311 2.576 1.725 1.027.414 2.185.621 3.473.621 1.073 0 2.1-.153 3.082-.46a7.949 7.949 0 0 0 2.622-1.38 6.925 6.925 0 0 0 1.84-2.254c.46-.89.69-1.901.69-3.036 0-1.165-.2-2.17-.598-3.013a5.924 5.924 0 0 0-1.656-2.116 7.072 7.072 0 0 0-2.461-1.265 10.6 10.6 0 0 0-3.013-.414h-2.438v-2.438h2.438c.736 0 1.495-.115 2.277-.345a6.531 6.531 0 0 0 2.116-1.058 5.563 5.563 0 0 0 1.541-1.817c.399-.736.598-1.61.598-2.622 0-1.073-.184-1.986-.552-2.737a5.366 5.366 0 0 0-1.518-1.886 6.212 6.212 0 0 0-2.231-1.104 10.372 10.372 0 0 0-2.737-.345c-1.196 0-2.254.2-3.174.598a6.424 6.424 0 0 0-2.323 1.679c-.629.72-1.096 1.58-1.403 2.576-.307.997-.445 2.093-.414 3.289H5.714c0-1.533.238-2.944.713-4.232.475-1.288 1.15-2.4 2.024-3.335.874-.935 1.94-1.671 3.197-2.208 1.257-.537 2.668-.805 4.232-.805 1.257 0 2.484.161 3.68.483 1.196.322 2.262.813 3.197 1.472a7.463 7.463 0 0 1 2.254 2.53c.567 1.027.851 2.262.851 3.703 0 1.748-.468 3.266-1.403 4.554-.935 1.288-2.277 2.147-4.025 2.576v.092c2.116.337 3.749 1.219 4.899 2.645s1.725 3.197 1.725 5.313c0 1.595-.299 2.998-.897 4.209a9.107 9.107 0 0 1-2.415 3.059c-1.012.828-2.193 1.449-3.542 1.863-1.35.414-2.76.621-4.232.621-1.656 0-3.182-.245-4.577-.736-1.395-.49-2.591-1.196-3.588-2.116-.997-.92-1.748-2.055-2.254-3.404-.506-1.35-.698-2.898-.575-4.646h2.898Z"/></svg>