<svg xmlns="http://www.w3.org/2000/svg" width="10" height="24" viewBox="0 0 20 48"><path fill="#FF7581" fill-rule="nonzero" d="M12.128 32.281c0 .39-.156.635-.469.733a3.128 3.128 0 0 1-.937.146c-.88 0-1.577-.151-2.095-.454-.518-.303-.776-.952-.776-1.948v-5.801c-.625.04-1.255.059-1.89.059H4.042c-.234 0-.469-.054-.703-.162-.234-.107-.352-.307-.352-.6 0-.547.186-.967.557-1.26a3.29 3.29 0 0 1 1.333-.615 8.656 8.656 0 0 1 1.611-.205c.557-.02 1.03-.049 1.421-.088.02-.45.025-1.016.015-1.7a145.64 145.64 0 0 1-.015-2.08c0-.702.015-1.381.044-2.035.03-.655.093-1.177.19-1.568.06-.273.157-.469.294-.586.136-.117.351-.176.644-.176.684 0 1.196.147 1.538.44.342.293.576.659.703 1.098.127.44.19.923.19 1.45 0 .528.01 1.036.03 1.524l.059 3.399a161.66 161.66 0 0 1 2.314-.162 37.1 37.1 0 0 1 2.315-.073c.332 0 .63.049.893.147.264.097.396.341.396.732 0 .274-.069.571-.205.894-.137.322-.284.59-.44.805-.273.39-.625.606-1.055.645-.43.039-.84.058-1.23.058l-2.93.059c0 1.113.01 2.236.03 3.37.019 1.132.146 2.255.38 3.368 0 .098.01.19.03.279.02.088.029.19.029.307Z"/></svg>