<svg xmlns="http://www.w3.org/2000/svg" width="11" height="24" viewBox="0 0 22 48"><path fill="#FF7581" fill-rule="nonzero" d="M19.83 30.172c0 1.016-.064 2.085-.191 3.208a23.12 23.12 0 0 1-.63 3.34 19.525 19.525 0 0 1-1.143 3.178 10.237 10.237 0 0 1-1.772 2.681 8.215 8.215 0 0 1-2.505 1.846c-.957.459-2.06.688-3.31.688-.821 0-1.617-.107-2.388-.322a7.305 7.305 0 0 1-2.183-1.025 6.97 6.97 0 0 1-1.362-1.23 9.078 9.078 0 0 1-1.831-3.385 6.64 6.64 0 0 1-.264-1.83c0-.821.43-1.231 1.29-1.231.35 0 .785.044 1.303.132.517.088.942.22 1.274.395.293.156.513.337.66.542.146.205.263.425.35.66.089.234.167.488.235.761.069.274.161.537.279.791a4.04 4.04 0 0 0 1.054 1.48c.47.42 1.016.63 1.641.63.664 0 1.26-.225 1.787-.674.527-.45.982-1.03 1.362-1.744.381-.712.703-1.513.967-2.402a26.82 26.82 0 0 0 .996-5.127 22.28 22.28 0 0 0 .103-1.89c0-.722-.054-1.508-.161-2.358a8.642 8.642 0 0 0-.63-2.358 4.695 4.695 0 0 0-1.319-1.787c-.566-.47-1.308-.684-2.226-.645h-.352a9.011 9.011 0 0 0-.454.571c-.166.225-.342.44-.527.645a2.939 2.939 0 0 1-.6.513c-.216.136-.43.205-.645.205a1.77 1.77 0 0 1-.88-.25 3.328 3.328 0 0 1-1.362-1.48 2.134 2.134 0 0 1-.22-.907v-.264c0-.078.02-.146.06-.205a6.55 6.55 0 0 1 1.2-1.655c.508-.518.967-1.04 1.378-1.567.43-.586.874-1.236 1.333-1.949.459-.713.869-1.455 1.23-2.226.361-.772.66-1.558.894-2.359a8.23 8.23 0 0 0 .351-2.314c0-.488-.054-.942-.161-1.362a3.234 3.234 0 0 0-.513-1.114 2.439 2.439 0 0 0-.923-.761c-.38-.186-.844-.279-1.391-.279-.45 0-.845.093-1.187.279a2.988 2.988 0 0 0-.879.717c-.244.293-.44.63-.586 1.011-.146.381-.258.767-.336 1.157-.098.293-.147.591-.147.894 0 .303-.049.59-.146.864-.098.274-.215.46-.352.557-.137.097-.352.146-.645.146-.332 0-.664-.049-.996-.146a2.827 2.827 0 0 1-.893-.44 2.572 2.572 0 0 1-.66-.717 1.822 1.822 0 0 1-.263-.982c0-.586.122-1.21.366-1.875.244-.664.532-1.25.864-1.758a6.133 6.133 0 0 1 2.564-2.329A7.703 7.703 0 0 1 9.75 2.34c1.074 0 2.056.161 2.944.483a6.6 6.6 0 0 1 2.3 1.392 6.156 6.156 0 0 1 1.494 2.212c.352.869.528 1.85.528 2.944 0 .918-.103 1.816-.308 2.695a16.198 16.198 0 0 1-.835 2.579c-.352.84-.757 1.66-1.216 2.46-.459.801-.942 1.563-1.45 2.286 1.29.273 2.358.766 3.208 1.48a8.133 8.133 0 0 1 2.036 2.563c.508.996.864 2.08 1.07 3.252.205 1.171.307 2.334.307 3.486Z"/></svg>