<svg xmlns="http://www.w3.org/2000/svg" width="12" height="24" viewBox="0 0 24 48"><path fill="#FF7581" fill-rule="nonzero" d="M10.769 28.367a578.655 578.655 0 0 1-.323-5.244 492.167 492.167 0 0 0-.322-5.186c-.508 1.68-1.04 3.414-1.597 5.2-.556 1.788-1.253 3.55-1.585 5.289h2.42c.47 0 .938-.02 1.407-.059Zm5.097 15.586c0 .41-.058.708-.176.894-.117.185-.41.278-.878.278-.274 0-.552-.03-.835-.088a3.536 3.536 0 0 1-.82-.278 2.944 2.944 0 0 1-.704-.469 1.668 1.668 0 0 1-.454-.688c-.078-.137-.151-.489-.22-1.055a64.694 64.694 0 0 1-.205-2.007c-.068-.771-.136-1.602-.205-2.49-.068-.889-.127-1.738-.176-2.549-.048-.81-.092-1.528-.131-2.153a24.727 24.727 0 0 1-.06-1.29c-.41 0-.82.01-1.23.03-.41.02-.82.03-1.23.03-.45 0-1.268-.015-1.951-.045a10.309 10.309 0 0 1-1.992-.278c-.645-.156-1.197-.41-1.656-.762-.459-.351-.688-.85-.688-1.494 0-.684.102-1.367.308-2.05.205-.684.395-1.348.57-1.993a235.094 235.094 0 0 1 2.93-9.521c1.036-3.125 2.303-6.28 3.3-9.463-.06-.567-.123-1.133-.191-1.7a14.169 14.169 0 0 1-.103-1.699c0-.468.152-.771.454-.908.303-.137.66-.205 1.07-.205.332 0 .703.049 1.113.146.41.098.791.245 1.143.44.351.195.649.444.893.747s.366.66.366 1.07a.86.86 0 0 1-.058.322.86.86 0 0 0-.059.322c0 1.113.034 2.236.103 3.369.068 1.133.132 2.256.19 3.37l.82 16.171c.625-.059 1.25-.142 1.875-.249.625-.107 2.979-.161 3.565-.161.39 0 .703.083.937.249.235.166.352.454.352.864 0 .781-.137 1.372-.41 1.773a2.39 2.39 0 0 1-1.084.879c-.45.185-2.71.297-3.286.336-.576.04-1.167.079-1.773.118l.352 6.62c.039.919.088 1.842.146 2.77.059.927.088 1.86.088 2.797Z"/></svg>