<svg xmlns="http://www.w3.org/2000/svg" width="10" height="12" viewBox="0 0 20 24"><path fill="#000" fill-rule="nonzero" d="M5.493 11.56c0-.56.14-1.01.42-1.349.28-.338.866-.507 1.755-.507.097 0 .27.005.522.014l.812.03c.29.01.56.014.812.014h.522c.619-.058 1.121-.275 1.508-.652.387-.378.58-.982.58-1.813 0-.696-.261-1.252-.783-1.667-.522-.416-1.315-.624-2.378-.624-.735 0-1.339.072-1.813.217-.473.146-.884.3-1.232.465-.348.164-.672.318-.971.464-.3.145-.653.217-1.059.217-.193 0-.396-.043-.609-.13a1.85 1.85 0 0 1-1-.986 2.111 2.111 0 0 1-.16-.856c0-.445.106-.793.319-1.044.213-.251.57-.522 1.073-.812.58-.348 1.33-.657 2.248-.928.918-.27 1.947-.406 3.088-.406 2.533 0 4.456.532 5.771 1.595 1.315 1.063 1.972 2.484 1.972 4.263 0 1.025-.251 1.943-.754 2.755-.503.812-1.228 1.363-2.175 1.653 1.025.329 1.827.87 2.407 1.624.58.754.87 1.682.87 2.784 0 1.16-.198 2.16-.595 3.002a5.434 5.434 0 0 1-1.682 2.073c-.725.541-1.604.938-2.639 1.189-1.034.251-2.189.377-3.465.377-1.044 0-2.054-.087-3.03-.261-.977-.174-1.745-.387-2.306-.638-.58-.251-.981-.517-1.204-.797-.222-.28-.333-.643-.333-1.088 0-.754.184-1.315.551-1.682.367-.367.793-.551 1.276-.551.29 0 .604.058.942.174.339.116.711.237 1.117.363.406.125.865.246 1.377.362a7.836 7.836 0 0 0 1.726.174c1.392 0 2.383-.246 2.972-.74.59-.493.885-1.174.885-2.044 0-.909-.314-1.532-.943-1.87-.628-.339-1.483-.508-2.566-.508H8.77c-.135 0-.27.005-.406.014-.135.01-.27.015-.406.015h-.493c-1.315 0-1.972-.628-1.972-1.885Z"/></svg>