<svg xmlns="http://www.w3.org/2000/svg" width="8" height="12" viewBox="0 0 16 24"><path fill="#FFF" fill-rule="nonzero" d="M14.292 16.372c0 1.755-.583 3.16-1.75 4.214-1.167 1.055-2.637 1.582-4.41 1.582-1.755 0-3.201-.513-4.34-1.54C2.597 19.545 2 18.127 2 16.372c0-1.101.28-2.072.84-2.912.467-.69 1.101-1.279 1.904-1.764-.71-.43-1.27-.97-1.68-1.624-.485-.784-.728-1.67-.728-2.66 0-1.624.55-2.95 1.652-3.976 1.101-1.027 2.483-1.54 4.144-1.54 1.643 0 3.024.513 4.144 1.54 1.12 1.027 1.68 2.352 1.68 3.976 0 1.008-.22 1.862-.658 2.562a5.324 5.324 0 0 1-1.75 1.722c.821.504 1.456 1.083 1.904 1.736.56.84.84 1.82.84 2.94ZM11.1 7.496c0-.896-.275-1.629-.826-2.198-.55-.57-1.265-.854-2.142-.854s-1.587.29-2.128.868c-.541.579-.812 1.307-.812 2.184 0 .896.27 1.624.812 2.184.541.56 1.25.84 2.128.84.877 0 1.591-.285 2.142-.854.55-.57.826-1.293.826-2.17Zm.308 8.82c0-.933-.313-1.722-.938-2.366-.625-.644-1.405-.966-2.338-.966s-1.713.322-2.338.966c-.625.644-.938 1.433-.938 2.366s.308 1.717.924 2.352c.616.635 1.4.952 2.352.952.915 0 1.69-.317 2.324-.952.635-.635.952-1.419.952-2.352Z"/></svg>