<svg xmlns="http://www.w3.org/2000/svg" width="10" height="12" viewBox="0 0 20 24"><path fill="#000" fill-rule="nonzero" d="M14.715 18.462c.58 0 1.058.029 1.436.087.377.058.676.16.898.305.223.145.377.347.465.608.087.262.13.605.13 1.03 0 .387-.048.71-.145.971a1.199 1.199 0 0 1-.537.624c-.26.155-.608.261-1.043.319-.436.058-1.001.087-1.697.087h-2.697c-.638 0-1.32-.005-2.045-.014l-2.073-.03a80.085 80.085 0 0 1-1.769-.043 9.965 9.965 0 0 1-1.131-.087c-.812-.097-1.416-.377-1.812-.841a2.385 2.385 0 0 1-.595-1.595c0-.445.053-.836.16-1.174.106-.339.26-.648.464-.928.203-.28.444-.537.724-.769.28-.232.585-.474.914-.725a415.874 415.874 0 0 1 3.451-2.537 29.539 29.539 0 0 0 2.61-2.103c.715-.657 1.261-1.29 1.639-1.9a3.606 3.606 0 0 0 .565-1.928c0-.831-.242-1.493-.725-1.987-.483-.493-1.257-.739-2.32-.739-.696 0-1.286.082-1.769.247a7.899 7.899 0 0 0-1.276.55c-.367.204-.715.387-1.044.551a2.365 2.365 0 0 1-1.073.247 1.98 1.98 0 0 1-.652-.116 1.686 1.686 0 0 1-.61-.377 2.01 2.01 0 0 1-.449-.652c-.116-.262-.174-.576-.174-.943 0-.406.111-.773.333-1.102.223-.329.624-.657 1.204-.986.58-.329 1.373-.633 2.378-.913 1.005-.28 2.059-.421 3.161-.421 1.276 0 2.392.174 3.35.522.957.348 1.744.812 2.363 1.392a5.743 5.743 0 0 1 1.392 1.972c.31.735.464 1.479.464 2.233 0 1.237-.237 2.344-.71 3.32-.474.977-1.122 1.9-1.943 2.77-.822.87-1.798 1.72-2.93 2.552-1.13.831-2.363 1.72-3.697 2.668.657 0 1.348-.01 2.073-.029l2.045-.058c.638-.02 1.203-.034 1.696-.043.494-.01.827-.015 1.001-.015Z"/></svg>