<svg xmlns="http://www.w3.org/2000/svg" width="45" height="20" viewBox="0 0 90 40"><path fill="#FFF" fill-rule="nonzero" d="M5.312 3.156h11.362c4.999.123 8.763 1.526 11.293 4.209 2.53 2.683 3.795 6.754 3.795 12.213s-1.265 9.53-3.795 12.213c-2.53 2.683-6.294 4.086-11.293 4.209H5.312V3.156ZM8.44 33.332h6.67c2.361 0 4.393-.253 6.095-.759s3.105-1.311 4.209-2.415c1.104-1.104 1.917-2.53 2.438-4.278.521-1.748.782-3.849.782-6.302 0-2.453-.26-4.554-.782-6.302-.521-1.748-1.334-3.174-2.438-4.278-1.104-1.104-2.507-1.909-4.209-2.415-1.702-.506-3.734-.759-6.095-.759H8.44v27.508ZM42.235 23.12H55.16L48.813 6.284 42.235 23.12Zm4.968-19.964h3.496L63.579 36H60.22l-4.002-10.212h-14.95L37.313 36H34L47.203 3.156Zm25.882 19.32-12.88-19.32h3.68l10.81 16.652L85.46 3.156h3.726l-12.972 19.32V36h-3.128V22.476Z"/></svg>