<svg xmlns="http://www.w3.org/2000/svg" width="14" height="18" viewBox="0 0 28 34"><path fill="#FFF" fill-rule="nonzero" d="M7.026 15.73c-1.25-.664-2.162-1.406-2.735-2.226-.78-1.12-1.171-2.409-1.171-3.867 0-2.396 1.126-4.356 3.378-5.88C8.256 2.587 10.58 2 13.471 2c3.828 0 6.657.73 8.486 2.188 1.83 1.458 2.745 3.294 2.745 5.507 0 1.29-.365 2.494-1.094 3.614-.547.833-1.406 1.64-2.578 2.421 1.55.743 2.705 1.726 3.466 2.95.762 1.224 1.143 2.578 1.143 4.062 0 1.432-.329 2.77-.986 4.014-.658 1.243-1.465 2.204-2.422 2.88-.957.678-2.149 1.176-3.574 1.495a20.85 20.85 0 0 1-4.56.478c-3.035 0-5.352-.358-6.954-1.074-1.602-.716-2.819-1.77-3.652-3.164-.834-1.393-1.25-2.95-1.25-4.668 0-1.68.39-3.102 1.171-4.267.782-1.166 1.986-2.068 3.614-2.706Zm3.574-5.625c0 .99.31 1.788.928 2.393.618.606 1.442.908 2.47.908.912 0 1.66-.3 2.247-.898.585-.6.878-1.374.878-2.324 0-.99-.306-1.794-.918-2.413-.612-.618-1.393-.927-2.343-.927-.964 0-1.748.302-2.354.908-.605.605-.908 1.39-.908 2.353Zm-.43 12.325c0 1.263.384 2.295 1.153 3.095.768.801 1.647 1.202 2.636 1.202.95 0 1.804-.407 2.559-1.221.755-.814 1.133-1.846 1.133-3.096 0-1.263-.381-2.298-1.143-3.105-.762-.808-1.644-1.211-2.646-1.211-.99 0-1.852.39-2.588 1.172-.736.78-1.104 1.836-1.104 3.164Z"/></svg>