<svg xmlns="http://www.w3.org/2000/svg" width="8" height="12" viewBox="0 0 16 24"><path fill="#000" fill-rule="nonzero" d="M10.043 1.4c.715 0 1.29.193 1.726.58.435.387.652 1.131.652 2.233 0 .213-.01.594-.029 1.146-.02.55-.034 1.217-.043 2-.01.784-.025 1.658-.044 2.625a150.992 150.992 0 0 0-.014 5.075c.01.735.014 1.43.014 2.088 0 .657.005 1.228.014 1.711.01.483.015.812.015.986 0 .58-.048 1.04-.145 1.377-.097.339-.232.6-.406.784a1.25 1.25 0 0 1-.652.362 4.247 4.247 0 0 1-.914.087c-.464 0-.836-.043-1.117-.13a1.512 1.512 0 0 1-.666-.392 1.35 1.35 0 0 1-.334-.623 7.618 7.618 0 0 1-.145-.827c-.039-.425-.068-1-.087-1.726a159.577 159.577 0 0 1-.058-4.364v-1.508c0-1.14.005-2.315.014-3.524.01-1.208.025-2.257.044-3.146a37.52 37.52 0 0 1-1.885.986c-.56.27-1.034.406-1.421.406-.329 0-.614-.068-.856-.203a2.083 2.083 0 0 1-.608-.507 2.282 2.282 0 0 1-.377-.667 2.017 2.017 0 0 1-.131-.682c0-.483.111-.846.334-1.087.222-.242.604-.508 1.145-.798 1.47-.773 2.658-1.344 3.567-1.711.909-.367 1.711-.551 2.407-.551Z"/></svg>