<svg xmlns="http://www.w3.org/2000/svg" width="20" height="28" viewBox="0 0 41 56"><path fill="#FFF" fill-rule="nonzero" d="M0 4.162h15.678c4.288 0 7.85.67 10.686 2.01 2.837 1.34 5.104 3.127 6.801 5.36 1.697 2.233 2.892 4.78 3.584 7.638a37.44 37.44 0 0 1 1.039 8.844c0 3.395-.435 6.555-1.306 9.48-.872 2.926-2.223 5.461-4.054 7.605-1.831 2.144-4.143 3.83-6.934 5.059C22.702 51.386 19.385 52 15.544 52H0V4.162Zm15.812 45.292c2.233 0 4.478-.346 6.734-1.038 2.255-.693 4.299-1.854 6.13-3.484 1.831-1.63 3.316-3.82 4.456-6.567 1.139-2.747 1.708-6.197 1.708-10.351 0-3.26-.324-6.052-.972-8.375-.647-2.323-1.496-4.277-2.546-5.862-1.05-1.586-2.255-2.837-3.617-3.752a17.77 17.77 0 0 0-4.221-2.111 20.356 20.356 0 0 0-4.356-.971 36.953 36.953 0 0 0-3.919-.235H2.948v42.746h12.864Z"/></svg>