<svg xmlns="http://www.w3.org/2000/svg" width="10" height="24" viewBox="0 0 20 48"><path fill="#FF7581" fill-rule="nonzero" d="M9.969 22.32a9.658 9.658 0 0 1-.469.44 9.658 9.658 0 0 0-.469.44c-.488.546-.888 1.235-1.2 2.065-.313.83-.562 1.704-.748 2.622a24.353 24.353 0 0 0-.396 2.739 28.554 28.554 0 0 0-.117 2.417c0 .293.01.718.03 1.274a27.36 27.36 0 0 0 .424 3.868 11.8 11.8 0 0 0 .498 1.89c.206.566.455 1.03.748 1.39.293.362.644.543 1.054.543.645 0 1.206-.195 1.685-.586.478-.39.884-.894 1.216-1.509.332-.615.6-1.313.805-2.095.205-.78.362-1.557.469-2.329.107-.771.18-1.509.22-2.212.039-.703.058-1.289.058-1.757 0-.743-.01-1.514-.029-2.315-.02-.8-.102-1.582-.249-2.344a10.918 10.918 0 0 0-.674-2.212 6.272 6.272 0 0 0-1.274-1.919c-.254-.312-.528-.527-.82-.644l-.762.234Zm-2.227-3.515a3.867 3.867 0 0 1 1.582-.352c.352-.41.66-.908.923-1.494.264-.586.483-1.201.66-1.846.175-.644.307-1.289.395-1.933.088-.645.132-1.23.132-1.758 0-.371-.03-.81-.088-1.318a12.439 12.439 0 0 0-.279-1.539 8.17 8.17 0 0 0-.498-1.45c-.205-.449-.444-.81-.717-1.084a2.085 2.085 0 0 0-.323.484 3.064 3.064 0 0 1-.249.44.98.98 0 0 1-.351.307c-.147.078-.347.117-.6.117-.157 0-.313-.025-.47-.073a8.87 8.87 0 0 1-.468-.161c-.41.859-.708 1.83-.894 2.915a17.888 17.888 0 0 0-.278 3.002c0 .372.029.835.088 1.392.058.557.146 1.118.263 1.685.118.566.274 1.093.47 1.582.194.488.429.85.702 1.084Zm10.313 12.597c0 .957-.044 1.968-.132 3.033a23.14 23.14 0 0 1-.484 3.164 17.933 17.933 0 0 1-.952 3.003 9.143 9.143 0 0 1-1.567 2.534 7.121 7.121 0 0 1-2.33 1.743c-.907.43-1.977.644-3.207.644-1.074 0-1.997-.19-2.769-.57a6.023 6.023 0 0 1-1.977-1.554 8.41 8.41 0 0 1-1.333-2.24c-.342-.84-.61-1.72-.806-2.638a20.543 20.543 0 0 1-.395-2.768A35.424 35.424 0 0 1 2 33.16c0-1.015.04-2.046.117-3.09.078-1.046.22-2.071.425-3.077a18.17 18.17 0 0 1 .864-2.944 12.67 12.67 0 0 1 1.465-2.725 5.852 5.852 0 0 1-1.406-1.611 9.09 9.09 0 0 1-.88-1.992 12.39 12.39 0 0 1-.453-2.168A18.2 18.2 0 0 1 2 13.414c0-.8.054-1.63.161-2.49.108-.86.278-1.71.513-2.549.234-.84.537-1.646.908-2.417.371-.771.82-1.47 1.348-2.095a3.32 3.32 0 0 1 .337-.41 4.99 4.99 0 0 1 .468-.44 3.42 3.42 0 0 1 .513-.35 1.03 1.03 0 0 1 .498-.147c.313 0 .547.078.703.234a7.322 7.322 0 0 1 1.157-.454c.42-.127.835-.19 1.246-.19 1.152 0 2.119.302 2.9.908a6.704 6.704 0 0 1 1.875 2.285c.469.918.806 1.914 1.01 2.988a16.14 16.14 0 0 1 .308 3.018c0 .703-.049 1.425-.146 2.168a15.875 15.875 0 0 1-1.216 4.336c-.303.683-.65 1.308-1.04 1.875a7.828 7.828 0 0 1 2.314 2.285c.586.898 1.04 1.87 1.363 2.915a16.99 16.99 0 0 1 .659 3.252c.117 1.123.176 2.212.176 3.266Z"/></svg>