<svg xmlns="http://www.w3.org/2000/svg" width="14" height="18" viewBox="0 0 28 34"><path fill="#FFF" fill-rule="nonzero" d="m1.992 24.695 7.91-.996c.209 1.107.56 1.888 1.055 2.344.495.456 1.1.684 1.816.684 1.276 0 2.273-.645 2.989-1.934.52-.95.911-2.962 1.172-6.035-.95.976-1.927 1.693-2.93 2.148-1.003.456-2.162.684-3.477.684-2.565 0-4.73-.912-6.494-2.735-1.764-1.822-2.646-4.127-2.646-6.914 0-1.9.449-3.632 1.347-5.195.899-1.562 2.136-2.744 3.711-3.545C8.021 2.401 10 2 12.383 2c2.864 0 5.163.492 6.894 1.475 1.732.983 3.116 2.545 4.15 4.687 1.036 2.142 1.553 4.97 1.553 8.486 0 5.17-1.087 8.956-3.261 11.358-2.175 2.402-5.189 3.603-9.043 3.603-2.279 0-4.076-.263-5.39-.79-1.316-.528-2.41-1.3-3.282-2.315-.872-1.016-1.543-2.285-2.012-3.809Zm14.649-12.773c0-1.55-.391-2.764-1.172-3.643-.782-.879-1.732-1.318-2.852-1.318-1.055 0-1.93.397-2.627 1.191-.696.795-1.045 1.986-1.045 3.575 0 1.601.362 2.825 1.084 3.671.723.847 1.625 1.27 2.705 1.27 1.12 0 2.051-.41 2.793-1.23.743-.82 1.114-1.993 1.114-3.516Z"/></svg>