<svg xmlns="http://www.w3.org/2000/svg" width="18" height="28" viewBox="0 0 34 56"><path fill="#FFF" fill-rule="nonzero" d="M3.142 52c.134-2.144.625-4.076 1.474-5.795a19.36 19.36 0 0 1 3.25-4.69 32.59 32.59 0 0 1 4.421-3.92 110.692 110.692 0 0 1 4.992-3.484 269.315 269.315 0 0 0 4.891-3.383 31.84 31.84 0 0 0 4.321-3.652 16.39 16.39 0 0 0 3.049-4.255c.76-1.54 1.139-3.294 1.139-5.259 0-1.563-.313-2.981-.938-4.255a10.384 10.384 0 0 0-2.512-3.283 11.256 11.256 0 0 0-3.619-2.11 12.64 12.64 0 0 0-4.321-.737c-2.1 0-3.93.368-5.494 1.106-1.563.737-2.859 1.741-3.886 3.014-1.027 1.274-1.798 2.77-2.312 4.49-.513 1.72-.77 3.584-.77 5.594H4.281c.268-5.628 1.62-9.77 4.054-12.428 2.434-2.658 5.951-3.987 10.552-3.987 1.965 0 3.819.257 5.561.77 1.742.514 3.26 1.296 4.556 2.346 1.295 1.05 2.323 2.367 3.082 3.952.76 1.586 1.139 3.451 1.139 5.595 0 2.725-.636 5.125-1.91 7.202-1.273 2.078-2.88 3.965-4.824 5.662a56.694 56.694 0 0 1-6.297 4.757 148.926 148.926 0 0 0-6.365 4.389c-1.988 1.451-3.685 2.97-5.093 4.555-1.407 1.586-2.2 3.34-2.378 5.26h27.604V52H3.142Z"/></svg>