<svg xmlns="http://www.w3.org/2000/svg" width="14" height="20" viewBox="0 0 28 40"><path fill="#FFF" fill-rule="nonzero" d="M15.788 17.554c.89.03 1.748-.069 2.576-.299a6.21 6.21 0 0 0 2.185-1.081 5.431 5.431 0 0 0 1.518-1.886c.383-.767.575-1.671.575-2.714 0-.92-.176-1.733-.529-2.438a4.877 4.877 0 0 0-1.449-1.748c-.613-.46-1.334-.813-2.162-1.058-.828-.245-1.733-.368-2.714-.368a9.02 9.02 0 0 0-2.576.368 7.364 7.364 0 0 0-2.208 1.058 5.126 5.126 0 0 0-1.541 1.748c-.383.705-.575 1.518-.575 2.438 0 1.073.2 1.993.598 2.76.399.767.92 1.395 1.564 1.886.644.49 1.38.843 2.208 1.058a8.78 8.78 0 0 0 2.53.276Zm9.752-5.98c0 1.748-.46 3.243-1.38 4.485-.92 1.242-2.208 2.108-3.864 2.599v.092c2.116.43 3.741 1.357 4.876 2.783 1.135 1.426 1.702 3.243 1.702 5.451 0 1.625-.291 3.044-.874 4.255a8.42 8.42 0 0 1-2.392 3.013c-1.012.797-2.185 1.395-3.519 1.794s-2.768.598-4.301.598c-1.503 0-2.929-.2-4.278-.598-1.35-.399-2.53-.997-3.542-1.794a8.42 8.42 0 0 1-2.392-3.013c-.583-1.211-.874-2.63-.874-4.255.061-2.116.66-3.925 1.794-5.428 1.135-1.503 2.714-2.438 4.738-2.806v-.092c-1.687-.521-2.982-1.388-3.887-2.599-.905-1.211-1.357-2.706-1.357-4.485 0-1.38.284-2.576.851-3.588a7.633 7.633 0 0 1 2.231-2.507A9.798 9.798 0 0 1 12.2 4.007a13.24 13.24 0 0 1 7.084 0c1.165.322 2.216.813 3.151 1.472a7.532 7.532 0 0 1 2.254 2.507c.567 1.012.851 2.208.851 3.588Zm-9.752 22.678c1.135 0 2.2-.146 3.197-.437.997-.291 1.863-.736 2.599-1.334.736-.598 1.319-1.357 1.748-2.277.43-.92.644-1.993.644-3.22 0-1.165-.222-2.185-.667-3.059a6.625 6.625 0 0 0-1.794-2.208 7.57 7.57 0 0 0-2.622-1.334 9.982 9.982 0 0 0-3.105-.391 10.638 10.638 0 0 0-3.151.368c-.997.276-1.863.713-2.599 1.311a6.683 6.683 0 0 0-1.771 2.231c-.445.89-.667 1.917-.667 3.082 0 1.196.215 2.254.644 3.174.43.92 1.012 1.679 1.748 2.277.736.598 1.602 1.05 2.599 1.357.997.307 2.062.46 3.197.46Z"/></svg>