<svg xmlns="http://www.w3.org/2000/svg" width="8" height="12" viewBox="0 0 16 24"><path fill="#000" fill-rule="nonzero" d="m6.206 17.71.052-3.718c-.988.017-1.262.026-2.302.026-.745.017-1.27-.1-1.573-.351-.303-.251-.455-.724-.455-1.417 0-.364.065-.663.195-.897.13-.234.308-.412.533-.533.225-.121.494-.208.806-.26.312-.052.65-.078 1.014-.078.624-.017.638-.026 1.522-.026h.26c0-1.057-.009-2.123-.026-3.198-.017-.728.121-1.248.416-1.56.295-.312.789-.468 1.482-.468.399 0 .72.065.962.195.243.13.433.308.572.533.139.225.23.494.273.806.043.312.065.65.065 1.014v2.678h2.165c.797 0-.57.017-.102.052.693.052 1.179.195 1.456.429.277.234.416.68.416 1.339 0 1.144-.607 1.699-1.82 1.664H9.95a61.085 61.085 0 0 0-.026 1.742c-.017.85-.035 1.508-.052 1.976-.052.693-.2 1.179-.442 1.456-.243.277-.72.416-1.43.416-1.196 0-1.794-.607-1.794-1.82Z"/></svg>