<svg xmlns="http://www.w3.org/2000/svg" width="14" height="20" viewBox="0 0 29 40"><path fill="#FFF" fill-rule="nonzero" d="M16.788 3.524c2.361 0 4.27.514 5.727 1.541a10.67 10.67 0 0 1 3.404 3.933c.813 1.595 1.365 3.373 1.656 5.336a39.14 39.14 0 0 1 .437 5.75c0 1.901-.146 3.833-.437 5.796-.291 1.963-.843 3.741-1.656 5.336a10.48 10.48 0 0 1-3.404 3.91c-1.457 1.012-3.366 1.518-5.727 1.518-2.33 0-4.232-.506-5.704-1.518a10.406 10.406 0 0 1-3.427-3.91c-.813-1.595-1.365-3.373-1.656-5.336a39.14 39.14 0 0 1-.437-5.75c0-1.901.146-3.833.437-5.796.291-1.963.843-3.741 1.656-5.336a10.592 10.592 0 0 1 3.427-3.933c1.472-1.027 3.373-1.541 5.704-1.541Zm0 2.438c-1.84 0-3.312.475-4.416 1.426-1.104.95-1.94 2.131-2.507 3.542-.567 1.41-.943 2.944-1.127 4.6a41.494 41.494 0 0 0-.276 4.554c0 1.41.092 2.936.276 4.577.184 1.64.56 3.174 1.127 4.6.567 1.426 1.403 2.614 2.507 3.565 1.104.95 2.576 1.426 4.416 1.426 1.84 0 3.312-.475 4.416-1.426 1.104-.95 1.94-2.139 2.507-3.565.567-1.426.943-2.96 1.127-4.6.184-1.64.276-3.166.276-4.577 0-1.38-.092-2.898-.276-4.554-.184-1.656-.56-3.19-1.127-4.6-.567-1.41-1.403-2.591-2.507-3.542-1.104-.95-2.576-1.426-4.416-1.426Z"/></svg>