<svg xmlns="http://www.w3.org/2000/svg" width="14" height="18" viewBox="0 0 28 34"><path fill="#FFF" fill-rule="nonzero" d="M5.463 2H24.35v6.348H11.557l-.684 4.297c.886-.417 1.762-.73 2.627-.938a10.95 10.95 0 0 1 2.569-.312c2.864 0 5.189.865 6.972 2.597 1.784 1.732 2.676 3.913 2.676 6.543 0 1.85-.459 3.626-1.377 5.332-.918 1.706-2.22 3.008-3.906 3.906-1.686.899-3.844 1.348-6.475 1.348-1.888 0-3.505-.179-4.853-.537-1.348-.358-2.494-.892-3.438-1.602-.944-.71-1.709-1.513-2.295-2.412-.586-.898-1.074-2.018-1.464-3.36l8.046-.878c.196 1.29.652 2.269 1.368 2.94a3.615 3.615 0 0 0 2.558 1.005c1.107 0 2.022-.42 2.744-1.26.723-.84 1.084-2.093 1.084-3.76 0-1.705-.364-2.955-1.093-3.75-.73-.793-1.7-1.19-2.91-1.19-.769 0-1.51.188-2.227.566-.534.273-1.12.768-1.758 1.484l-6.777-.976L5.464 2Z"/></svg>