<svg xmlns="http://www.w3.org/2000/svg" width="18" height="28" viewBox="0 0 35 56"><path fill="#FFF" fill-rule="nonzero" d="M3 38.734c0-3.35.904-6.086 2.713-8.208 1.81-2.121 4.322-3.36 7.538-3.718v-.134c-2.814-.536-4.936-1.708-6.365-3.517-1.43-1.81-2.144-4.01-2.144-6.6 0-2.189.402-4.02 1.206-5.494.804-1.474 1.876-2.658 3.216-3.551 1.34-.893 2.859-1.541 4.556-1.943a22.892 22.892 0 0 1 5.293-.603c1.787 0 3.54.201 5.26.603 1.72.402 3.249 1.05 4.589 1.943 1.34.893 2.412 2.077 3.216 3.551.804 1.474 1.206 3.305 1.206 5.494 0 2.59-.715 4.79-2.144 6.6-1.43 1.809-3.551 2.981-6.365 3.517v.134c3.216.357 5.728 1.597 7.538 3.718 1.809 2.122 2.713 4.858 2.713 8.208 0 2.412-.424 4.5-1.273 6.264-.849 1.765-1.988 3.228-3.417 4.389-1.43 1.161-3.127 2.021-5.092 2.58-1.965.558-4.042.837-6.231.837-2.233 0-4.321-.28-6.265-.837-1.943-.559-3.629-1.419-5.058-2.58-1.43-1.161-2.568-2.624-3.417-4.389C3.424 43.234 3 41.147 3 38.734Zm16.013-12.998c1.474 0 2.914-.167 4.321-.503 1.408-.335 2.658-.87 3.753-1.608a8.512 8.512 0 0 0 2.646-2.847c.67-1.161 1.005-2.568 1.005-4.221 0-1.742-.324-3.216-.971-4.422a8.03 8.03 0 0 0-2.613-2.915c-1.095-.737-2.345-1.261-3.753-1.574a20.174 20.174 0 0 0-4.388-.469c-1.519 0-2.981.156-4.389.469-1.407.313-2.657.837-3.752 1.574a8.03 8.03 0 0 0-2.613 2.915c-.647 1.206-.971 2.68-.971 4.422 0 1.653.335 3.06 1.005 4.221a8.512 8.512 0 0 0 2.647 2.848c1.094.737 2.344 1.272 3.752 1.607 1.407.336 2.847.503 4.321.503ZM5.546 38.734c0 2.055.368 3.83 1.106 5.326.737 1.497 1.72 2.725 2.948 3.685s2.657 1.675 4.287 2.145a18.45 18.45 0 0 0 5.126.703c1.787 0 3.484-.234 5.092-.704 1.608-.469 3.037-1.183 4.288-2.144 1.25-.96 2.244-2.188 2.982-3.684.737-1.497 1.105-3.272 1.105-5.327 0-1.92-.357-3.562-1.072-4.925a9.267 9.267 0 0 0-2.948-3.35c-1.25-.87-2.691-1.507-4.322-1.909a21.337 21.337 0 0 0-5.125-.603c-1.831 0-3.551.201-5.159.603-1.608.402-3.037 1.038-4.288 1.91a9.267 9.267 0 0 0-2.948 3.35c-.715 1.362-1.072 3.003-1.072 4.924Z"/></svg>