<svg xmlns="http://www.w3.org/2000/svg" width="33" height="24" viewBox="0 0 66 48"><path fill="#FF7581" fill-rule="nonzero" d="M22.106 23.023c0 2.09-.185 4.146-.556 6.167a22.151 22.151 0 0 1-1.831 5.67 18.36 18.36 0 0 1-3.355 4.79c-1.386 1.435-3.086 2.612-5.097 3.53-.508.234-1.06.449-1.656.644-.595.196-1.21.362-1.845.498-.635.137-1.265.244-1.89.323a14.215 14.215 0 0 1-2.476.102 3.064 3.064 0 0 1-.747-.117 1.343 1.343 0 0 1-.586-.337c-.156-.156-.234-.371-.234-.645 0-.234.049-.478.147-.732.097-.254.229-.498.395-.732.166-.235.347-.445.542-.63.195-.186.4-.327.615-.425-.097-.156-.19-.596-.278-1.318a47.896 47.896 0 0 1-.234-2.754 200.632 200.632 0 0 1-.19-3.736 463.664 463.664 0 0 1-.162-4.262 332.193 332.193 0 0 1-.117-4.38 950.807 950.807 0 0 1-.117-7.237 164.512 164.512 0 0 1 .073-7.397c.058-1.777.088-3.584.088-5.42-.215 0-.415-.059-.6-.176a.582.582 0 0 1-.28-.527c0-.313.079-.6.235-.864.156-.264.357-.494.6-.689.245-.195.518-.347.821-.454.303-.107.591-.161.864-.161.274 0 .537.024.791.073.254.049.518.103.791.161 2.598.625 4.913 1.573 6.944 2.842 2.031 1.27 3.735 2.813 5.112 4.629 1.377 1.816 2.427 3.867 3.15 6.152.722 2.285 1.083 4.756 1.083 7.412Zm-4.335-.527c0-1.953-.235-3.794-.704-5.522a16.767 16.767 0 0 0-2.094-4.746 15.697 15.697 0 0 0-3.487-3.81C10.09 7.316 8.474 6.403 6.638 5.68v.117c0 5.039.083 10.034.249 14.985.166 4.951.415 9.937.747 14.956.058.762.112 1.519.161 2.27.049.753.132 1.5.249 2.242 1.836-.605 3.379-1.543 4.629-2.813a15.258 15.258 0 0 0 3.003-4.35c.752-1.631 1.289-3.37 1.611-5.215.322-1.846.484-3.638.484-5.376Zm29.703 5.39c0 .41-.146.84-.44 1.29-.292.449-.614.781-.966.996-.098.058-.264.117-.498.176-.234.058-.483.112-.747.16-.264.05-.518.098-.762.147-.244.05-.434.083-.571.103l.703 4.336c.215 1.347.376 2.7.483 4.057.108 1.358.357 2.7.748 4.029.039.117.078.224.117.322.039.098.058.225.058.38 0 .255-.073.45-.22.587-.146.136-.322.239-.527.307a2.818 2.818 0 0 1-.659.132c-.234.02-.45.03-.644.03h-.41c-.606 0-1.07-.05-1.392-.147a1.413 1.413 0 0 1-.747-.498c-.176-.234-.293-.532-.352-.894-.058-.36-.127-.805-.205-1.333a337.797 337.797 0 0 0-1.582-10.722 218.835 218.835 0 0 1-7.324.82l-.938 5.742-.16 1.436a74.56 74.56 0 0 1-.235 1.86 31.983 31.983 0 0 1-.293 1.773c-.108.546-.23.947-.366 1.2-.118.235-.225.401-.323.499-.097.097-.283.146-.556.146-.352 0-.699-.063-1.04-.19a2.995 2.995 0 0 1-.909-.527 2.538 2.538 0 0 1-.63-.806 2.326 2.326 0 0 1-.234-1.055c0-.39.044-.781.132-1.172.088-.39.161-.78.22-1.172.215-1.289.41-2.573.586-3.852.176-1.28.37-2.554.586-3.823a3.771 3.771 0 0 1-.982-.293 1.493 1.493 0 0 1-.425-.293.562.562 0 0 1-.175-.41c0-.196.073-.376.22-.542.146-.166.322-.323.527-.47a4.7 4.7 0 0 1 .63-.38c.214-.107.4-.19.556-.25.41-2.733.801-5.458 1.172-8.173.371-2.715.703-5.459.996-8.232.078-.743.147-1.494.205-2.256a180.1 180.1 0 0 1 .19-2.285c.07-.762.157-1.514.264-2.256.108-.742.26-1.485.454-2.227.176-.703.47-1.27.88-1.699.41-.43 1.015-.644 1.816-.644.234 0 .464.019.688.058.225.04.425.117.6.234.509.254 1.036.948 1.583 2.08.547 1.133 1.094 2.505 1.64 4.117a81.053 81.053 0 0 1 1.568 5.23 195.178 195.178 0 0 1 2.417 10.21c.293 1.415.508 2.465.644 3.149.41-.059.82-.113 1.23-.162a10.4 10.4 0 0 1 1.231-.073c.196 0 .42.01.674.03.254.02.493.073.718.16.225.089.41.216.557.382.146.166.22.385.22.659Zm-9.199-.234a246.251 246.251 0 0 0-1.655-8.247 117.676 117.676 0 0 0-2.095-8.159c-.351 2.95-.732 5.879-1.142 8.79-.41 2.91-.85 5.82-1.319 8.73a99.014 99.014 0 0 0 3.12-.513c1.026-.186 2.056-.386 3.091-.6ZM63.995 2.59c0 .41-.127 1.157-.381 2.241s-.577 1.743-.967 3.179c-.39 1.435-.83 2.959-1.319 4.57a358.279 358.279 0 0 1-1.435 4.629 220.032 220.032 0 0 1-1.29 3.94c-.39 1.153-.683 1.993-.878 2.52.215 1.738.361 3.467.44 5.186.078 1.718.165 3.447.263 5.185.098 1.465.19 2.94.278 4.424.088 1.484.132 2.959.132 4.424 0 .449-.112.796-.337 1.04-.224.244-.561.366-1.01.366-.176 0-.41-.024-.704-.073a7.812 7.812 0 0 1-.893-.205 6.667 6.667 0 0 1-.85-.308c-.263-.117-.444-.234-.542-.352-.234-.273-.38-.532-.44-.776a3.738 3.738 0 0 1-.087-.864c0-3.028-.03-6.035-.088-9.024a460.285 460.285 0 0 1-.088-9.023l-.234-.234a5.503 5.503 0 0 1-.396-.747c-.146-.323-.293-.66-.44-1.011a19.824 19.824 0 0 1-.395-1.026 21.507 21.507 0 0 0-.293-.79 145.7 145.7 0 0 1-1.816-5.391 145.7 145.7 0 0 0-1.816-5.39 18.584 18.584 0 0 0-.47-1.275 62.13 62.13 0 0 1-.644-1.685 42.8 42.8 0 0 1-.571-1.655c-.166-.518-.249-.913-.249-1.187 0-.215.059-.39.176-.527.117-.137.263-.24.44-.308.175-.068.36-.112.556-.131.195-.02.37-.03.527-.03.508 0 .982.025 1.421.073.44.05.884.22 1.333.513.117.078.303.44.557 1.084.254.645.537 1.445.85 2.403.312.957.639 1.992.98 3.105.343 1.113.66 2.187.953 3.223.293 1.035.557 1.953.791 2.754.234.8.4 1.357.498 1.67.645-2.5 1.294-4.981 1.948-7.442.655-2.46 1.216-4.36 1.685-6.9l.132-.776c.048-.283.117-.542.205-.776.088-.234.22-.435.395-.6.176-.167.42-.25.733-.25.254 0 .57.059.952.176.38.117.747.278 1.098.483.352.206.655.44.909.704.254.263.38.551.38.864Z"/></svg>