<svg xmlns="http://www.w3.org/2000/svg" width="32" height="12" viewBox="0 0 62 24"><path fill="#000" fill-rule="nonzero" d="M9.974 1.439c1.856 0 3.451.198 4.785.595 1.334.396 2.431 1.014 3.291 1.856.86.84 1.49 1.923 1.886 3.248.396 1.324.594 2.904.594 4.741 0 3.596-.85 6.225-2.552 7.888-1.701 1.663-4.389 2.494-8.062 2.494-.329 0-.672-.005-1.03-.014l-1.16-.03c-.415-.01-.884-.028-1.406-.057-.522-.03-1.112-.063-1.769-.102-.87-.058-1.484-.246-1.842-.566-.357-.319-.575-.874-.652-1.667a89.598 89.598 0 0 1-.043-1.653l-.03-1.798c-.01-.638-.014-1.334-.014-2.088V7.645c0-.483.005-.928.014-1.334.01-.406.025-.88.044-1.421.077-1.063.295-1.817.652-2.262.358-.445.972-.735 1.842-.87a42.2 42.2 0 0 1 2.508-.232 45.94 45.94 0 0 1 2.944-.087Zm-.638 4.118c-.425 0-.855.01-1.29.029-.436.02-.885.048-1.349.087-.039.85-.063 1.846-.072 2.987a397.052 397.052 0 0 0 0 6.655c.01.996.024 1.88.043 2.654 1.18.116 2.31.174 3.393.174 1.044 0 1.928-.111 2.653-.334.726-.222 1.315-.584 1.77-1.087.454-.503.778-1.155.971-1.958.193-.802.29-1.793.29-2.972 0-1.14-.111-2.107-.333-2.9-.223-.793-.59-1.435-1.103-1.928-.512-.494-1.174-.851-1.986-1.074-.812-.222-1.808-.333-2.987-.333Zm26.25-1.421a542.368 542.368 0 0 1 3.117 7.511c.957 2.359 1.86 4.592 2.711 6.699.406 1.025.61 1.72.61 2.088 0 .29-.078.546-.233.768a2.188 2.188 0 0 1-.609.58 2.709 2.709 0 0 1-.87.363 4.292 4.292 0 0 1-.986.116c-.425 0-.783-.101-1.073-.305-.29-.203-.541-.584-.754-1.145a67.67 67.67 0 0 1-.696-1.841c-.213-.59-.425-1.165-.638-1.726-1.353-.02-2.803-.029-4.35-.029h-4.32l-1.335 3.567c-.213.56-.464.947-.754 1.16a1.67 1.67 0 0 1-1.015.319c-.29 0-.59-.039-.899-.116a2.926 2.926 0 0 1-.855-.363 2.314 2.314 0 0 1-.638-.58 1.259 1.259 0 0 1-.247-.768c0-.232.048-.507.145-.826.097-.32.251-.74.464-1.262.174-.445.401-1.015.682-1.711.28-.696.584-1.464.913-2.306a264.817 264.817 0 0 1 2.19-5.394c.377-.899.734-1.764 1.073-2.595.338-.831.652-1.566.942-2.204.27-.638.532-1.15.783-1.537s.517-.686.798-.899c.28-.213.59-.353.928-.42.338-.068.74-.102 1.203-.102.445 0 .841.034 1.19.102.347.067.661.207.942.42.28.213.546.512.797.899s.512.899.783 1.537Zm-6.613 9.135c.928-.02 1.866-.029 2.813-.029h2.9a742.394 742.394 0 0 0-1.71-4.51c-.465-1.208-.852-2.218-1.16-3.03l-2.843 7.569ZM47.05 5.267a135.978 135.978 0 0 0 1.812 2.61c.261.367.522.725.783 1.073s.547.735.856 1.16c1.411-1.895 2.49-3.417 3.233-4.567.745-1.15 1.31-2.035 1.697-2.654.31-.483.604-.846.884-1.087.28-.242.663-.363 1.146-.363.27 0 .546.048.826.145.28.097.532.232.754.406.223.174.402.382.537.624.135.241.203.497.203.768 0 .193-.048.42-.145.682a7.13 7.13 0 0 1-.493 1c-.232.406-.541.894-.928 1.465-.387.57-.88 1.27-1.479 2.102-.619.85-1.126 1.556-1.523 2.117-.396.56-.734 1.034-1.015 1.421a42.158 42.158 0 0 1-1.407 1.856c.04 1.508.073 2.707.102 3.596.03.89.044 1.556.044 2.001 0 .986-.184 1.672-.551 2.059-.367.387-.918.58-1.653.58-.89 0-1.508-.213-1.856-.638-.348-.425-.56-1.015-.638-1.769a20.61 20.61 0 0 1-.116-2.363c0-.919.01-2.113.029-3.582-.232-.29-.464-.575-.696-.856a53.25 53.25 0 0 1-1.943-2.508L43.917 8.37a82.487 82.487 0 0 1-1.45-2.015 20.783 20.783 0 0 1-.87-1.349c-.213-.367-.358-.672-.435-.913a2.323 2.323 0 0 1-.116-.711c0-.251.068-.493.203-.725a2.41 2.41 0 0 1 1.276-1.058c.29-.107.59-.16.899-.16.31 0 .57.043.783.13.213.088.44.266.681.537.242.27.522.657.841 1.16.32.503.76 1.17 1.32 2.001Z"/></svg>