<svg xmlns="http://www.w3.org/2000/svg" width="8" height="12" viewBox="0 0 16 24"><path fill="#FFF" fill-rule="nonzero" d="M13.648 15.336c0 1.232-.093 2.193-.28 2.884a5.267 5.267 0 0 1-1.4 2.408 5.218 5.218 0 0 1-1.778 1.148c-.7.28-1.507.42-2.422.42-.896 0-1.713-.14-2.45-.42-.737-.28-1.349-.663-1.834-1.148a4.86 4.86 0 0 1-1.106-1.708A5.707 5.707 0 0 1 2 16.848h2.856c.243 1.848 1.213 2.772 2.912 2.772.859 0 1.55-.261 2.072-.784.373-.373.625-.85.756-1.428.13-.579.196-1.27.196-2.072 0-1.307-.196-2.296-.588-2.968-.467-.803-1.241-1.204-2.324-1.204-.765 0-1.386.168-1.862.504a2.477 2.477 0 0 0-.966 1.288H2.448V2.064H13.2v2.548H5.024v5.264c.728-.765 1.83-1.148 3.304-1.148.765 0 1.447.107 2.044.322.597.215 1.11.537 1.54.966.672.672 1.148 1.512 1.428 2.52.205.747.308 1.68.308 2.8Z"/></svg>