<svg xmlns="http://www.w3.org/2000/svg" width="10" height="12" viewBox="0 0 20 24"><path fill="#000" fill-rule="nonzero" d="M13.753 5.325c-.174 0-.473-.005-.899-.014a67.57 67.57 0 0 0-1.508-.015c-.58 0-1.203-.005-1.87-.014-.667-.01-1.653-.015-2.33-.015a65.52 65.52 0 0 0-.101 1.986c-.03.764-.054 1.513-.073 2.248.329-.097 1.05-.184 1.532-.261a9.347 9.347 0 0 1 1.48-.116c2.513 0 4.374.556 5.582 1.667 1.208 1.112 1.812 2.712 1.812 4.8 0 1.18-.193 2.204-.58 3.074a5.711 5.711 0 0 1-1.638 2.16c-.706.57-1.57.996-2.596 1.277-1.024.28-2.175.42-3.45.42-1.025 0-2.316-.092-3.244-.275-.928-.184-1.672-.392-2.233-.624-.58-.251-.971-.517-1.175-.797-.203-.28-.304-.653-.304-1.117 0-.735.184-1.286.551-1.653a1.784 1.784 0 0 1 1.305-.551c.31 0 .619.058.928.174.31.116.652.237 1.03.363.377.125.811.246 1.304.362.494.116 1.393.174 2.07.174 1.314 0 2.247-.27 2.798-.812.55-.541.826-1.266.826-2.175 0-.909-.275-1.595-.826-2.059-.551-.464-1.465-.696-2.74-.696-.445 0-.842.029-1.19.087-.348.058-.986.116-1.286.174l-.913.174c-.31.058-.638.087-.986.087a3.71 3.71 0 0 1-.957-.116 1.388 1.388 0 0 1-.725-.464c-.193-.232-.343-.551-.45-.957-.106-.406-.159-.938-.159-1.595 0-.251.01-.638.029-1.16.02-.522.048-1.078.087-1.668.039-.59.077-1.16.116-1.71.039-.552.077-.991.116-1.32.097-.947.333-1.638.71-2.074.378-.435.982-.7 1.813-.797.348-.058.826-.101 1.436-.13a79.297 79.297 0 0 1 2.199-.058l1.841-.03c.58-.01 1.006-.014 1.276-.014.948 0 1.707.029 2.277.087.57.058 1.005.164 1.305.319.3.155.493.358.58.609.087.251.13.56.13.928 0 .445-.043.802-.13 1.073a1.2 1.2 0 0 1-.464.638c-.222.155-.517.261-.885.319a9.429 9.429 0 0 1-1.42.087Z"/></svg>