<svg xmlns="http://www.w3.org/2000/svg" width="12" height="12" viewBox="0 0 22 24"><path fill="#000" fill-rule="nonzero" d="M9.481 1.439c1.856 0 3.451.198 4.785.595 1.334.396 2.432 1.014 3.292 1.856.86.84 1.489 1.923 1.885 3.248.396 1.324.594 2.904.594 4.741 0 3.596-.85 6.225-2.552 7.888-1.701 1.663-4.388 2.494-8.062 2.494-.328 0-.671-.005-1.03-.014-.357-.01-.19-.02-.607-.03-.415-.01-.884-.028-1.406-.057-.522-.03-1.112-.063-1.769-.102-.87-.058-1.484-.246-1.841-.566-.358-.319-.576-.874-.653-1.667a89.598 89.598 0 0 1-.043-1.653l-.03-1.798c-.01-.638-.014-1.334-.014-2.088V7.645c0-.483.005-.928.015-1.334.01-.406.024-.88.043-1.421.077-1.063.295-1.817.652-2.262.358-.445.972-.735 1.842-.87a42.2 42.2 0 0 1 2.508-.232c.9-.058 1.328-.087 2.391-.087Zm-.638 4.118c-.425 0-.302.01-.738.029-.435.02-.884.048-1.348.087-.039.85-.063 1.846-.072 2.987a397.051 397.051 0 0 0 0 6.655c.01.996.024 1.88.043 2.654 1.18.116 1.758.174 2.84.174 1.044 0 1.929-.111 2.654-.334.725-.222 1.315-.584 1.769-1.087.454-.503.778-1.155.971-1.958.194-.802.29-1.793.29-2.972 0-1.14-.11-2.107-.333-2.9-.222-.793-.59-1.435-1.102-1.928-.512-.494-1.175-.851-1.987-1.074-.812-.222-1.807-.333-2.987-.333Z"/></svg>