<svg xmlns="http://www.w3.org/2000/svg" width="8" height="12" viewBox="0 0 16 24"><path fill="#FFF" fill-rule="nonzero" d="M13.788 16.092c0 1.83-.546 3.3-1.638 4.41-1.092 1.11-2.506 1.666-4.242 1.666-1.755 0-3.178-.537-4.27-1.61C2.546 19.485 2 18.033 2 16.204c0-.747.14-1.55.42-2.408.224-.69.579-1.521 1.064-2.492l4.536-9.24h3.052l-4.284 8.568c.205-.093.48-.168.826-.224a5.91 5.91 0 0 1 .938-.084c1.475 0 2.716.532 3.724 1.596s1.512 2.455 1.512 4.172Zm-2.856.056c0-1.008-.275-1.834-.826-2.478-.55-.644-1.293-.966-2.226-.966-.915 0-1.647.303-2.198.91-.55.607-.826 1.451-.826 2.534 0 1.045.28 1.885.84 2.52.56.635 1.288.952 2.184.952.896 0 1.629-.313 2.198-.938.57-.625.854-1.47.854-2.534Z"/></svg>