<svg xmlns="http://www.w3.org/2000/svg" width="8" height="12" viewBox="0 0 16 24"><path fill="#FFF" fill-rule="nonzero" d="M13.508 16.456c0 1.736-.546 3.122-1.638 4.158-1.092 1.036-2.469 1.554-4.13 1.554-1.643 0-2.996-.504-4.06-1.512C2.56 19.592 2 18.192 2 16.456V7.608c0-1.736.546-3.122 1.638-4.158C4.73 2.414 6.098 1.896 7.74 1.896c1.624 0 2.991.518 4.102 1.554 1.11 1.036 1.666 2.422 1.666 4.158v8.848Zm-2.856-.084v-8.68c0-.99-.257-1.778-.77-2.366-.513-.588-1.227-.882-2.142-.882-.896 0-1.6.294-2.114.882-.513.588-.77 1.377-.77 2.366v8.68c0 .99.257 1.778.77 2.366.513.588 1.218.882 2.114.882.896 0 1.605-.299 2.128-.896.523-.597.784-1.381.784-2.352Z"/></svg>