<svg xmlns="http://www.w3.org/2000/svg" width="60" height="28" viewBox="0 0 120 56"><g fill="#FFF" fill-rule="nonzero"><path d="M3.281 4.162h15.678c4.288 0 7.85.67 10.686 2.01 2.837 1.34 5.104 3.127 6.801 5.36 1.697 2.233 2.892 4.78 3.585 7.638a37.44 37.44 0 0 1 1.038 8.844c0 3.395-.435 6.555-1.306 9.48-.872 2.926-2.223 5.461-4.054 7.605-1.831 2.144-4.143 3.83-6.935 5.059C25.983 51.386 22.666 52 18.825 52H3.281V4.162Zm15.812 45.292c2.233 0 4.478-.346 6.733-1.038 2.256-.693 4.3-1.854 6.131-3.484 1.831-1.63 3.316-3.82 4.456-6.567 1.139-2.747 1.708-6.197 1.708-10.351 0-3.26-.324-6.052-.971-8.375-.648-2.323-1.497-4.277-2.547-5.862-1.05-1.586-2.255-2.837-3.618-3.752a17.77 17.77 0 0 0-4.22-2.111 20.356 20.356 0 0 0-4.355-.971 36.953 36.953 0 0 0-3.92-.235H6.229v42.746h12.864Zm42.31-45.292h3.217L83.513 52h-3.148l-6.03-15.343H51.42L45.323 52h-3.15l19.23-47.838Zm11.994 29.949L63.145 7.043h-.134L52.358 34.111h21.039ZM115.642 4.162h3.283L99.696 31.967V52h-2.948V31.967L77.653 4.162h3.35l17.286 25.326z"/></g></svg>