<svg xmlns="http://www.w3.org/2000/svg" width="9" height="24" viewBox="0 0 18 48"><path fill="#FF7581" fill-rule="nonzero" d="M15.803 5.094c0 .488-.059.996-.176 1.523-.41 2.832-.786 5.645-1.128 8.438-.342 2.793-.65 5.605-.923 8.437-.293 2.91-.566 5.82-.82 8.73s-.527 5.821-.82 8.731l-.176 2.05c-.04.235-.069.48-.088.733-.02.254-.068.484-.147.689a1.071 1.071 0 0 1-.38.498c-.176.127-.42.19-.733.19-.215 0-.493-.044-.835-.132a6.149 6.149 0 0 1-1.025-.366 5.471 5.471 0 0 1-.938-.542c-.283-.205-.464-.425-.542-.659a3.673 3.673 0 0 1-.117-.938c0-.468.054-.947.161-1.435.108-.488.19-.967.25-1.436.097-.683.185-1.357.263-2.021.078-.664.146-1.338.205-2.022.332-2.949.65-5.878.952-8.789.303-2.91.65-5.82 1.04-8.73.274-1.953.552-3.877.835-5.772l.864-5.771c-1.27.098-2.544.18-3.823.249-1.28.068-2.563.103-3.852.103-.157 0-.328-.005-.513-.015a1.708 1.708 0 0 1-.513-.103 1.007 1.007 0 0 1-.395-.263c-.108-.117-.161-.283-.161-.498 0-.743.22-1.304.659-1.685.44-.38 1-.62 1.684-.718a16.797 16.797 0 0 1 1.7-.205c.566-.039 1.132-.088 1.699-.146a32.029 32.029 0 0 0 3.428-.557 16.165 16.165 0 0 1 3.427-.38c.469 0 .762.175.88.527.116.351.175.703.175 1.054 0 .215-.02.42-.059.616-.039.195-.058.4-.058.615Z"/></svg>