<svg xmlns="http://www.w3.org/2000/svg" width="14" height="18" viewBox="0 0 28 34"><path fill="#FFF" fill-rule="nonzero" d="m25.268 8.934-7.91.976c-.209-1.107-.557-1.888-1.045-2.344-.488-.455-1.09-.683-1.807-.683-1.289 0-2.291.65-3.008 1.953-.52.937-.905 2.943-1.152 6.016.95-.964 1.927-1.677 2.93-2.14 1.002-.461 2.161-.692 3.476-.692 2.552 0 4.71.911 6.475 2.734 1.764 1.823 2.646 4.134 2.646 6.934 0 1.888-.446 3.613-1.337 5.175-.892 1.563-2.13 2.744-3.711 3.545-1.582.801-3.565 1.201-5.948 1.201-2.864 0-5.162-.488-6.894-1.464-1.732-.977-3.115-2.536-4.15-4.678C2.796 23.325 2.28 20.49 2.28 16.96c0-5.17 1.087-8.955 3.261-11.357C7.716 3.2 10.731 2 14.584 2c2.279 0 4.08.264 5.4.791 1.322.527 2.42 1.299 3.292 2.314.872 1.016 1.536 2.292 1.992 3.829ZM10.62 21.688c0 1.549.39 2.763 1.171 3.642.782.879 1.739 1.318 2.871 1.318 1.042 0 1.915-.397 2.618-1.191.703-.794 1.054-1.98 1.054-3.555 0-1.614-.364-2.845-1.093-3.691-.73-.846-1.634-1.27-2.715-1.27-1.107 0-2.035.41-2.783 1.23-.75.821-1.123 1.993-1.123 3.517Z"/></svg>