<svg xmlns="http://www.w3.org/2000/svg" width="10" height="24" viewBox="0 0 20 48"><path fill="#FF7581" fill-rule="nonzero" d="M18.075 40.953c0 .274-.03.557-.088.85a3.137 3.137 0 0 1-.263.79c-.137.333-.386.577-.747.733a4.171 4.171 0 0 1-1.202.308c-.439.049-.883.068-1.333.058-.449-.01-.82-.005-1.113.015-.82.059-1.64.127-2.46.205-.821.078-1.641.147-2.462.205-.254.508-.644.762-1.172.762-.156 0-.351-.034-.586-.103a5.857 5.857 0 0 1-1.391-.615c-.205-.127-.347-.259-.425-.395a1.849 1.849 0 0 1-.513-.557 1.412 1.412 0 0 1-.19-.732c0-.45.098-.87.293-1.26.195-.39.371-.791.527-1.201a298.819 298.819 0 0 0 3.135-8.306 338.305 338.305 0 0 0 2.9-8.394c.313-.918.62-1.85.923-2.797.303-.948.572-1.9.806-2.857.234-.957.425-1.924.571-2.9.147-.977.22-1.953.22-2.93 0-.312-.024-.752-.073-1.318a9.974 9.974 0 0 0-.293-1.685 4.6 4.6 0 0 0-.63-1.435c-.274-.4-.645-.601-1.113-.601-.293 0-.596.088-.909.264a5.04 5.04 0 0 0-.893.644 6.021 6.021 0 0 0-.762.82 7.744 7.744 0 0 0-.542.791 11.946 11.946 0 0 0-.879 1.685 16.928 16.928 0 0 0-.644 1.773c-.059.293-.113.58-.161.864a3.718 3.718 0 0 1-.25.835c-.097.215-.21.366-.336.454-.127.088-.308.132-.542.132-.313 0-.63-.054-.953-.161a3.127 3.127 0 0 1-.878-.455 2.572 2.572 0 0 1-.66-.717 1.769 1.769 0 0 1-.263-.952c0-.508.102-1.016.307-1.524.205-.508.396-.996.572-1.465.37-.84.8-1.64 1.289-2.402A10.032 10.032 0 0 1 6.59 5.357a7.686 7.686 0 0 1 2.168-1.391c.8-.342 1.699-.513 2.695-.513 1.25 0 2.285.259 3.106.776a5.803 5.803 0 0 1 1.948 2.007c.478.82.81 1.748.996 2.784.185 1.035.278 2.07.278 3.105 0 1.777-.215 3.677-.644 5.698a66.458 66.458 0 0 1-1.612 6.109 129.426 129.426 0 0 1-2.065 6.05c-.732 1.982-1.401 3.803-2.007 5.463l-1.758 5.098 6.504-.879c.117 0 .225-.01.323-.03.097-.019.205-.029.322-.029.449 0 .766.123.952.367.185.244.278.571.278.981Z"/></svg>