<svg xmlns="http://www.w3.org/2000/svg" width="14" height="18" viewBox="0 0 28 34"><path fill="#FFF" fill-rule="nonzero" d="M1.64 16.688c0-5.443.98-9.252 2.94-11.426C6.54 3.087 9.525 2 13.535 2c1.927 0 3.51.238 4.746.713 1.237.475 2.246 1.094 3.028 1.855.78.762 1.396 1.563 1.845 2.403.45.84.81 1.82 1.084 2.94.534 2.135.801 4.361.801 6.679 0 5.195-.879 8.997-2.637 11.406-1.757 2.409-4.785 3.613-9.082 3.613-2.409 0-4.355-.384-5.84-1.152-1.484-.768-2.701-1.894-3.652-3.379-.69-1.055-1.227-2.497-1.611-4.326-.384-1.83-.576-3.85-.576-6.064Zm7.891.019c0 3.646.323 6.136.967 7.47.645 1.335 1.579 2.003 2.803 2.003.807 0 1.507-.284 2.1-.85.592-.566 1.028-1.462 1.308-2.685.28-1.224.42-3.132.42-5.723 0-3.802-.322-6.358-.967-7.666-.644-1.309-1.611-1.963-2.9-1.963-1.315 0-2.266.667-2.852 2.002-.586 1.335-.879 3.805-.879 7.412Z"/></svg>