<svg xmlns="http://www.w3.org/2000/svg" width="8" height="12" viewBox="0 0 16 24"><path fill="#FFF" fill-rule="nonzero" d="M14.008 16.4c0 1.848-.597 3.295-1.792 4.34-1.12.97-2.557 1.456-4.312 1.456-1.755 0-3.173-.439-4.256-1.316-1.232-.99-1.848-2.417-1.848-4.284h2.856c0 .99.336 1.755 1.008 2.296.597.485 1.344.728 2.24.728.952 0 1.731-.294 2.338-.882.607-.588.91-1.395.91-2.422 0-1.027-.28-1.83-.84-2.408-.56-.579-1.39-.868-2.492-.868h-.476v-2.492h.476c1.027 0 1.787-.261 2.282-.784.495-.523.742-1.27.742-2.24 0-.99-.275-1.75-.826-2.282-.55-.532-1.255-.798-2.114-.798-.896 0-1.62.257-2.17.77-.55.513-.826 1.209-.826 2.086H2.052c0-1.643.56-2.959 1.68-3.948 1.12-.99 2.51-1.484 4.172-1.484 1.699 0 3.09.513 4.172 1.54C13.159 4.435 13.7 5.778 13.7 7.44c0 1.027-.22 1.895-.658 2.604a4.436 4.436 0 0 1-1.834 1.652c.896.392 1.587.97 2.072 1.736.485.765.728 1.755.728 2.968Z"/></svg>