<svg xmlns="http://www.w3.org/2000/svg" width="10" height="24" viewBox="0 0 20 48"><path fill="#FF7581" fill-rule="nonzero" d="M18.067 26.305c0 .937-.029 2.065-.087 3.383a44.504 44.504 0 0 1-.381 4.102 37.697 37.697 0 0 1-.835 4.233c-.362 1.407-.86 2.662-1.494 3.765-.635 1.104-1.416 2.002-2.344 2.695-.928.694-2.046 1.04-3.355 1.04-1.074 0-2.03-.185-2.87-.556-.84-.371-1.09-1.067-1.715-1.711A8.695 8.695 0 0 1 3.42 41c-.42-.86-.728-1.777-.923-2.754a39.842 39.842 0 0 0-.19-1.055 5.514 5.514 0 0 1-.103-1.054c0-.469.093-.86.278-1.172.186-.313.542-.469 1.07-.469.254 0 .556.04.908.117.352.078.688.19 1.01.337.323.147.62.327.894.542.274.215.47.45.586.703.196.41.332.923.41 1.538.079.616.2 1.216.367 1.802.166.586-.064 1.272.278 1.682.342.41.864.615 1.567.615.567 0 1.06-.352 1.48-1.055.42-.703.781-1.601 1.084-2.695.303-1.094.556-2.305.762-3.633.205-1.328.36-2.607.468-3.838.108-1.23.186-2.343.235-3.34.048-.996.073-1.708.073-2.138 0-.43-.015-1.001-.044-1.714a29.184 29.184 0 0 0-.19-2.285 21.831 21.831 0 0 0-.44-2.447 11.74 11.74 0 0 0-.747-2.211c-.303-.655-.679-1.192-1.128-1.612-.45-.42-.986-.63-1.611-.63-.723 0-1.426.215-2.11.645.04.156.069.303.088.44.02.136.03.283.03.439 0 .898-.47 1.347-1.407 1.347-.117 0-.244-.01-.38-.029a2.704 2.704 0 0 0-.381-.03c-.196.099-.435.099-.718 0a3.888 3.888 0 0 1-.835-.41 4.006 4.006 0 0 1-.733-.6c-.214-.224-.351-.434-.41-.63a6.254 6.254 0 0 1-.205-1.816c.02-.625.03-1.23.03-1.817 0-.8-.02-1.591-.06-2.373l-.116-2.373a.546.546 0 0 1-.132-.234A1.015 1.015 0 0 1 2.13 6.5c0-.488.034-.918.102-1.29.069-.37.196-.673.381-.907.186-.235.45-.41.791-.528.342-.117.796-.185 1.363-.205.859-.039 1.699-.083 2.52-.132a47.12 47.12 0 0 0 2.519-.22c.41-.058.81-.121 1.2-.19.392-.068.811-.102 1.26-.102.391 0 .655.117.792.351.136.235.205.528.205.88 0 .39-.044.741-.132 1.054-.088.312-.298.586-.63.82-.156.098-.513.205-1.07.323a41.445 41.445 0 0 1-3.705.6c-.606.068-1.026.112-1.26.132l.469 4.277a7.306 7.306 0 0 1 1.406-.322c.469-.059.937-.088 1.406-.088 1.23 0 2.295.254 3.193.762a7.215 7.215 0 0 1 2.271 2.007 10.59 10.59 0 0 1 1.48 2.841c.37 1.065.659 2.168.864 3.311.205 1.143.342 2.27.41 3.384.068 1.113.102 2.129.102 3.047Z"/></svg>