<svg xmlns="http://www.w3.org/2000/svg" width="9" height="12" viewBox="0 0 18 24"><path fill="#FFF" fill-rule="nonzero" d="M16.168 11.892v1.092c0 1.699-.093 2.977-.28 3.836-.28 1.325-.859 2.427-1.736 3.304-.616.616-1.367 1.083-2.254 1.4-.887.317-1.853.476-2.898.476H2V2.064h7c2.184 0 3.901.625 5.152 1.876.952.952 1.559 2.184 1.82 3.696.13.765.196 2.184.196 4.256Zm-3.024 0c0-1.661-.047-2.819-.14-3.472-.15-1.008-.457-1.773-.924-2.296-.821-.896-1.95-1.344-3.388-1.344H5.024v14.504h3.668c1.437 0 2.567-.448 3.388-1.344.467-.523.775-1.325.924-2.408.093-.71.14-1.923.14-3.64Z"/></svg>