<svg xmlns="http://www.w3.org/2000/svg" width="18" height="28" viewBox="0 0 35 56"><path fill="#FFF" fill-rule="nonzero" d="M19.482 52.804c-3.216 0-5.885-.603-8.006-1.809-2.122-1.206-3.808-2.803-5.059-4.79-1.25-1.988-2.133-4.288-2.646-6.901A42.117 42.117 0 0 1 3 31.163c0-1.876.09-3.83.268-5.863.179-2.032.502-4.02.971-5.963a29.89 29.89 0 0 1 1.91-5.527 16.49 16.49 0 0 1 3.115-4.59c1.274-1.317 2.792-2.356 4.556-3.115 1.765-.76 3.83-1.139 6.198-1.139 3.93 0 7.158 1.05 9.681 3.149 2.524 2.1 4.01 5.114 4.456 9.045h-2.546a13.414 13.414 0 0 0-1.407-4.053 11.25 11.25 0 0 0-2.513-3.15 11.382 11.382 0 0 0-3.45-2.043c-1.295-.491-2.702-.737-4.221-.737-3.171 0-5.717.826-7.638 2.479-1.92 1.653-3.383 3.696-4.389 6.13-1.005 2.435-1.663 5.048-1.976 7.84-.313 2.791-.469 5.326-.469 7.604l.134.134a13.847 13.847 0 0 1 2.144-4.053 15.331 15.331 0 0 1 3.216-3.15 14.306 14.306 0 0 1 8.442-2.713c2.278 0 4.366.402 6.265 1.206 1.898.804 3.528 1.91 4.89 3.317 1.363 1.407 2.424 3.07 3.183 4.991.76 1.92 1.139 4.02 1.139 6.298 0 2.233-.39 4.3-1.173 6.198-.781 1.898-1.853 3.54-3.216 4.924-1.362 1.385-2.992 2.468-4.89 3.25-1.899.781-3.965 1.172-6.198 1.172ZM6.417 37.26c0 1.92.346 3.696 1.038 5.327.693 1.63 1.62 3.037 2.781 4.22a12.544 12.544 0 0 0 4.12 2.781c1.586.67 3.295 1.005 5.126 1.005 1.876 0 3.596-.357 5.159-1.072a13.28 13.28 0 0 0 4.087-2.881 13.044 13.044 0 0 0 2.713-4.221c.648-1.608.972-3.328.972-5.159 0-1.787-.324-3.506-.971-5.159-.648-1.653-1.541-3.104-2.68-4.355a12.705 12.705 0 0 0-4.088-2.981c-1.585-.738-3.316-1.106-5.192-1.106-1.92 0-3.674.357-5.26 1.072a12.904 12.904 0 0 0-4.12 2.914c-1.161 1.229-2.066 2.67-2.714 4.322-.647 1.653-.971 3.417-.971 5.293Z"/></svg>