<svg xmlns="http://www.w3.org/2000/svg" width="130" height="28" viewBox="0 0 260 56"><path fill="#000" fill-rule="evenodd" d="M0 0h25.825c5.09 0 9.203.688 12.336 2.063 3.134 1.375 5.724 3.349 7.77 5.92 2.047 2.573 3.531 5.565 4.452 8.977.921 3.413 1.381 7.03 1.381 10.849 0 5.985-.684 10.626-2.052 13.924-1.37 3.297-3.268 6.06-5.699 8.289-2.43 2.228-5.04 3.712-7.828 4.45C32.374 55.491 28.92 56 25.825 56H0V0Zm17.383 12.682V43.28h4.26c3.632 0 6.215-.401 7.75-1.204 1.535-.802 2.738-2.202 3.607-4.202.87-1.999 1.305-5.24 1.305-9.721 0-5.934-.972-9.996-2.916-12.186-1.945-2.19-5.168-3.285-9.67-3.285h-4.336Zm40.888 8.502h22.717v12.033H58.27V21.184ZM90.104 0h25.825c5.09 0 9.203.688 12.337 2.063 3.133 1.375 5.723 3.349 7.77 5.92 2.046 2.573 3.53 5.565 4.451 8.977.921 3.413 1.382 7.03 1.382 10.849 0 5.985-.685 10.626-2.053 13.924-1.369 3.297-3.268 6.06-5.699 8.289-2.43 2.228-5.04 3.712-7.828 4.45-3.811 1.019-7.265 1.528-10.36 1.528H90.104V0Zm17.383 12.682V43.28h4.26c3.632 0 6.216-.401 7.75-1.204 1.535-.802 2.738-2.202 3.607-4.202.87-1.999 1.305-5.24 1.305-9.721 0-5.934-.972-9.996-2.916-12.186-1.944-2.19-5.168-3.285-9.67-3.285h-4.336Zm74.75 34.074h-19.8L159.711 56h-17.767L163.09 0h18.956l21.143 56h-18.189l-2.763-9.244Zm-3.646-12.11-6.216-20.13-6.178 20.13h12.394ZM196.396 0h19.301l11.358 18.909L238.414 0H257.6l-21.872 32.546V56h-17.421V32.546L196.396 0Z" opacity=".28"/></svg>