<svg xmlns="http://www.w3.org/2000/svg" width="7" height="24" viewBox="0 0 14 48"><path fill="#FF7581" fill-rule="nonzero" d="M10.366 42.887c0 .449-.156.747-.468.893-.313.147-.665.22-1.055.22-.293 0-.645-.04-1.055-.117a5.773 5.773 0 0 1-1.055-.293c-.39-.176-.673-.381-.85-.615a2.097 2.097 0 0 1-.365-.791 4.05 4.05 0 0 1-.103-.923c0-.323-.01-.66-.03-1.011a808.323 808.323 0 0 1-.849-17.93 495.806 495.806 0 0 1-.322-17.93c0-.39.058-.702.176-.937.117-.234.41-.351.879-.351.527 0 1.069.127 1.626.38.556.254.952.635 1.186 1.143.078.156.132.42.161.791.03.371.054.762.073 1.172.02.41.03.815.03 1.216 0 .4.01.708.03.923.155 5.039.331 10.058.526 15.058.196 5 .547 10.02 1.055 15.059.059.683.142 1.357.25 2.021.107.664.16 1.338.16 2.022Z"/></svg>