<svg xmlns="http://www.w3.org/2000/svg" width="12" height="24" viewBox="0 0 24 48"><path fill="#FF7581" fill-rule="nonzero" d="M22.106 23.023c0 2.09-.185 4.146-.556 6.167a22.151 22.151 0 0 1-1.831 5.67 18.36 18.36 0 0 1-3.355 4.79c-1.386 1.435-3.086 2.612-5.097 3.53-.508.234-1.06.449-1.656.644-.595.196-1.21.362-1.845.498-.635.137-1.265.244-1.89.323a14.215 14.215 0 0 1-2.476.102 3.064 3.064 0 0 1-.747-.117 1.343 1.343 0 0 1-.586-.337c-.156-.156-.234-.371-.234-.645 0-.234.049-.478.147-.732.097-.254.229-.498.395-.732.166-.235.347-.445.542-.63.195-.186.4-.327.615-.425-.097-.156-.19-.596-.278-1.318a47.896 47.896 0 0 1-.234-2.754 200.632 200.632 0 0 1-.19-3.736 463.664 463.664 0 0 1-.162-4.262 332.193 332.193 0 0 1-.117-4.38 950.807 950.807 0 0 1-.117-7.237 164.512 164.512 0 0 1 .073-7.397c.058-1.777.088-3.584.088-5.42-.215 0-.415-.059-.6-.176a.582.582 0 0 1-.28-.527c0-.313.079-.6.235-.864.156-.264.357-.494.6-.689.245-.195.518-.347.821-.454.303-.107.591-.161.864-.161.274 0 .537.024.791.073.254.049.518.103.791.161 2.598.625 4.913 1.573 6.944 2.842 2.031 1.27 3.735 2.813 5.112 4.629 1.377 1.816 2.427 3.867 3.15 6.152.722 2.285 1.083 4.756 1.083 7.412Zm-4.335-.527c0-1.953-.235-3.794-.704-5.522a16.767 16.767 0 0 0-2.094-4.746 15.697 15.697 0 0 0-3.487-3.81C10.09 7.316 8.474 6.403 6.638 5.68v.117c0 5.039.083 10.034.249 14.985.166 4.951.415 9.937.747 14.956.058.762.112 1.519.161 2.27.049.753.132 1.5.249 2.242 1.836-.605 3.379-1.543 4.629-2.813a15.258 15.258 0 0 0 3.003-4.35c.752-1.631 1.289-3.37 1.611-5.215.322-1.846.484-3.638.484-5.376Z"/></svg>