<svg xmlns="http://www.w3.org/2000/svg" width="16" height="18" viewBox="0 0 32 34"><path fill="#FFF" fill-rule="nonzero" d="M3.647 2H16.79c2.592 0 4.685.352 6.28 1.055 1.595.703 2.913 1.712 3.955 3.027 1.041 1.315 1.797 2.845 2.265 4.59.47 1.745.704 3.594.704 5.547 0 3.06-.349 5.433-1.045 7.119-.697 1.686-1.664 3.099-2.9 4.238-1.238 1.14-2.566 1.898-3.985 2.276-1.94.52-3.698.78-5.274.78H3.647V2Zm8.848 6.484V24.13h2.168c1.848 0 3.164-.205 3.945-.615.781-.41 1.393-1.127 1.836-2.149.442-1.022.664-2.679.664-4.97 0-3.034-.495-5.111-1.485-6.23-.99-1.12-2.63-1.68-4.921-1.68h-2.207Z"/></svg>