<svg xmlns="http://www.w3.org/2000/svg" width="90" height="8" viewBox="0 0 180 16"><g fill="#FFF" fill-rule="evenodd"><path fill-opacity=".7" d="M1 8h74a1 1 0 0 1 0 2H1a1 1 0 1 1 0-2ZM105 8h74a1 1 0 1 1 0 2h-74a1 1 0 1 1 0-2Z" opacity=".5"/><path fill-rule="nonzero" d="M90.271 1.4c1.044 2.073 1.938 3.549 2.684 4.427.746.878 1.967 1.759 3.66 2.644-1.76 1.018-2.98 1.927-3.66 2.727-.679.8-1.574 2.247-2.684 4.344-.98-1.781-1.82-3.083-2.52-3.906-.699-.822-2.013-1.877-3.943-3.165 2.021-1.318 3.396-2.405 4.125-3.263.728-.858 1.508-2.127 2.338-3.808Z" opacity=".9"/></g></svg>