<svg xmlns="http://www.w3.org/2000/svg" width="18" height="28" viewBox="0 0 37 56"><path fill="#FFF" fill-rule="nonzero" d="M19.686 52.804c-3.35 0-6.097-.726-8.241-2.178C9.301 49.175 7.593 47.3 6.319 45c-1.273-2.3-2.155-4.87-2.646-7.706a49.193 49.193 0 0 1-.737-8.408c0-2.77.246-5.572.737-8.409.491-2.836 1.373-5.404 2.646-7.704 1.274-2.3 2.982-4.177 5.126-5.628 2.144-1.452 4.891-2.178 8.241-2.178 3.35 0 6.097.726 8.241 2.178 2.144 1.451 3.852 3.327 5.126 5.627 1.273 2.3 2.155 4.87 2.646 7.706.491 2.836.737 5.639.737 8.408 0 2.77-.246 5.572-.737 8.409-.491 2.836-1.373 5.404-2.646 7.705-1.274 2.3-2.982 4.176-5.126 5.627-2.144 1.452-4.891 2.178-8.241 2.178Zm0-2.211c2.859 0 5.215-.692 7.069-2.077 1.853-1.385 3.305-3.149 4.355-5.293 1.05-2.144 1.775-4.489 2.177-7.035.402-2.546.603-4.98.603-7.303 0-2.323-.201-4.757-.603-7.303-.402-2.546-1.128-4.891-2.177-7.035-1.05-2.144-2.502-3.908-4.355-5.293-1.854-1.385-4.21-2.077-7.069-2.077-2.903 0-5.27.692-7.102 2.077-1.831 1.385-3.272 3.149-4.322 5.293-1.05 2.144-1.775 4.489-2.177 7.035-.402 2.546-.603 4.98-.603 7.303 0 2.323.201 4.757.603 7.303.402 2.546 1.128 4.891 2.177 7.035 1.05 2.144 2.49 3.908 4.322 5.293 1.831 1.385 4.199 2.077 7.102 2.077Z"/></svg>