<svg xmlns="http://www.w3.org/2000/svg" width="13" height="16" viewBox="0 0 26 33"><path fill="#FFF" fill-rule="nonzero" d="M0 .87h11.115c4.89.12 8.572 1.492 11.048 4.117 2.475 2.626 3.712 6.608 3.712 11.948 0 5.34-1.237 9.322-3.712 11.948-2.476 2.625-6.158 3.997-11.048 4.117H0V.87Zm3.06 29.52h6.525c2.31 0 4.297-.247 5.962-.742 1.666-.496 3.038-1.283 4.118-2.363 1.08-1.08 1.875-2.475 2.385-4.185.51-1.71.765-3.765.765-6.165s-.255-4.455-.765-6.165-1.305-3.105-2.385-4.185c-1.08-1.08-2.452-1.867-4.117-2.362-1.666-.496-3.653-.743-5.963-.743H3.06v26.91Z"/></svg>