<svg xmlns="http://www.w3.org/2000/svg" width="14" height="20" viewBox="0 0 28 40"><path fill="#FFF" fill-rule="nonzero" d="M26.322 36H5.116c.03-1.595.307-3.005.828-4.232a12.298 12.298 0 0 1 2.07-3.312 19.381 19.381 0 0 1 2.898-2.691 64.237 64.237 0 0 1 3.312-2.346 164.033 164.033 0 0 0 3.381-2.3 22.336 22.336 0 0 0 3.013-2.507c.89-.89 1.556-1.802 2.001-2.737.445-.935.667-2.047.667-3.335 0-1.043-.192-1.97-.575-2.783a6.164 6.164 0 0 0-1.564-2.07 6.764 6.764 0 0 0-2.3-1.288 8.744 8.744 0 0 0-2.783-.437c-1.319 0-2.446.245-3.381.736a6.33 6.33 0 0 0-2.277 1.978c-.583.828-1.004 1.779-1.265 2.852a12.963 12.963 0 0 0-.345 3.404H5.898c-.03-1.656.161-3.182.575-4.577.414-1.395 1.05-2.599 1.909-3.611s1.94-1.802 3.243-2.369c1.303-.567 2.829-.851 4.577-.851 1.41 0 2.722.192 3.933.575 1.211.383 2.27.95 3.174 1.702.905.751 1.61 1.694 2.116 2.829.506 1.135.759 2.453.759 3.956 0 1.35-.222 2.576-.667 3.68a11.658 11.658 0 0 1-1.794 3.036c-.751.92-1.61 1.771-2.576 2.553a31.488 31.488 0 0 1-3.059 2.185 59.722 59.722 0 0 1-2.714 1.725 28.59 28.59 0 0 0-3.013 2.093 16.484 16.484 0 0 0-2.553 2.507c-.736.905-1.196 1.894-1.38 2.967h17.894V36Z"/></svg>