<svg xmlns="http://www.w3.org/2000/svg" width="10" height="12" viewBox="0 0 22 24"><path fill="#000" fill-rule="nonzero" d="M18.259 17.772c-.206 0 .322.005-.07.014-.392.01-.886.015-1.185.015 0 .655.005 1.113.014 1.374.01.26.014.467.014.622 0 .54-.037.978-.112 1.316-.075.337-.191.602-.35.795-.159.193-.36.323-.602.39a3.267 3.267 0 0 1-.868.102c-.859 0-1.428-.174-1.708-.52-.28-.348-.448-.83-.504-1.447-.037-.366-.07-.733-.098-1.1a34.457 34.457 0 0 1-.07-1.561H7.698c-.747 0-1.438.005-2.072.014-.635.01-1.139.015-1.512.015-.598.02-1.088-.126-1.47-.434-.383-.309-.574-.83-.574-1.562 0-.405.07-.795.21-1.172.14-.376.34-.747.602-1.113a59.314 59.314 0 0 1 2.044-2.777c.765-.984 1.544-1.957 2.338-2.922.793-.964 1.773-1.932 2.52-2.8.746-.868 1.62-1.567 2.18-2.204.485-.559.943-.935 1.372-1.128.43-.193.868-.289 1.316-.289.803 0 1.395.198 1.778.593.383.395.574 1.085.574 2.068v1.273c0 .636-.005 1.403-.014 2.3-.01.896-.014 1.875-.014 2.935v3.53c.355.019.881.019 1.283 0 .4-.02-.16-.02-.028 0 .56.038.96.187 1.204.448.242.26.364.699.364 1.316 0 .598-.136 1.07-.406 1.417-.271.347-.65.511-1.134.492ZM12.748 7.359c-.224.25-.57.655-1.036 1.215-.467.559-1.396 1.171-1.928 1.836-.532.666-1.05 1.33-1.554 1.996-.504.665-.906 1.23-1.204 1.692h5.694V10.28c0-1.08.01-2.054.028-2.921Z"/></svg>