<svg xmlns="http://www.w3.org/2000/svg" width="10" height="12" viewBox="0 0 20 24"><path fill="#000" fill-rule="nonzero" d="M10.167 1.064c2.395 0 4.244.486 5.548 1.46 1.304.973 1.957 2.462 1.957 4.467 0 1.051-.21 1.947-.628 2.687a4.843 4.843 0 0 1-1.65 1.752 4.76 4.76 0 0 1 1.956 1.941c.468.847.701 1.825.701 2.935s-.214 2.054-.642 2.832a5.596 5.596 0 0 1-1.738 1.928 7.54 7.54 0 0 1-2.51 1.11c-.945.233-1.943.35-2.994.35-1.09 0-2.112-.112-3.066-.336-.954-.224-1.79-.58-2.511-1.066a5.103 5.103 0 0 1-1.694-1.913c-.408-.788-.613-1.756-.613-2.905 0-1.11.229-2.088.686-2.935a4.669 4.669 0 0 1 1.942-1.941 4.726 4.726 0 0 1-1.635-1.752c-.409-.74-.613-1.636-.613-2.687 0-1.966.652-3.445 1.956-4.438 1.304-.993 3.154-1.49 5.548-1.49ZM6.78 16.072c0 .876.273 1.553.818 2.03.545.477 1.401.715 2.57.715 1.148 0 2-.238 2.554-.715.555-.477.832-1.154.832-2.03 0-.915-.287-1.606-.861-2.073-.574-.467-1.416-.7-2.526-.7-2.258 0-3.387.924-3.387 2.773Zm.117-8.847c0 .817.272 1.445.817 1.883.545.438 1.363.657 2.453.657 1.051 0 1.86-.219 2.424-.657.564-.438.847-1.066.847-1.883 0-.818-.263-1.446-.789-1.884-.525-.438-1.343-.657-2.453-.657-1.148 0-1.985.22-2.51.657-.526.438-.79 1.066-.79 1.884Z"/></svg>