<svg xmlns="http://www.w3.org/2000/svg" width="8" height="12" viewBox="0 0 16 24"><path fill="#FFF" fill-rule="nonzero" d="M13.356 22H1.764v-2.548l7.672-9.324c.71-.859 1.064-1.745 1.064-2.66s-.257-1.647-.77-2.198c-.513-.55-1.227-.826-2.142-.826-.84 0-1.521.233-2.044.7-.597.541-.896 1.335-.896 2.38H1.792c0-1.68.537-3.038 1.61-4.074s2.469-1.554 4.186-1.554 3.108.504 4.172 1.512c1.064 1.008 1.596 2.37 1.596 4.088 0 .821-.145 1.54-.434 2.156-.29.616-.77 1.335-1.442 2.156l-6.244 7.644h8.12V22Z"/></svg>