<svg xmlns="http://www.w3.org/2000/svg" width="10" height="12" viewBox="0 0 20 24"><path fill="#000" fill-rule="nonzero" d="M4.655 5.555c-.864 0-1.555-.13-2.073-.389-.519-.259-.778-.82-.778-1.684 0-.692.23-1.205.691-1.541.461-.336 1.258-.504 2.39-.504h7.028c.691 0 1.305.01 1.843.029.538.019.922.038 1.152.057.826.096 1.46.303 1.9.62.442.316.673.84.692 1.569.02.768-.082 1.445-.302 2.03-.221.586-.514 1.263-.879 2.03a182.405 182.405 0 0 0-2.937 6.38 131.82 131.82 0 0 0-2.448 6.005c-.27.672-.533 1.19-.792 1.555-.26.365-.696.547-1.31.547-.327 0-.658-.043-.994-.13a3.339 3.339 0 0 1-.908-.374 2.522 2.522 0 0 1-.676-.59 1.374 1.374 0 0 1-.303-.778c-.038-.269-.005-.58.101-.936.106-.355.235-.696.389-1.022.48-.98.97-2.002 1.469-3.067l1.526-3.255a351.461 351.461 0 0 0 1.54-3.326 593.066 593.066 0 0 1 1.513-3.283c-.672 0-1.421.004-2.247.014l-2.404.029c-.778.01-1.464.014-2.06.014H4.655Z"/></svg>