<svg xmlns="http://www.w3.org/2000/svg" width="10" height="24" viewBox="0 0 20 48"><path fill="#FF7581" fill-rule="nonzero" d="M12.856 16.11a90.21 90.21 0 0 0-.16-1.524 35.915 35.915 0 0 0-.704-4.058 18.93 18.93 0 0 0-.586-2.021 9.3 9.3 0 0 0-.776-1.685c-.293-.488-.625-.85-.996-1.084-.43.059-.791.279-1.084.66-.293.38-.547.864-.762 1.45-.215.586-.386 1.23-.513 1.933a28.097 28.097 0 0 0-.425 3.94c-.019.577-.029 1.021-.029 1.334a44.948 44.948 0 0 0 .205 3.853c.079.83.186 1.679.323 2.548.136.87.307 1.68.512 2.432.205.752.454 1.386.747 1.904s.635.825 1.026.923c.605-.43 1.108-1.05 1.509-1.86.4-.811.722-1.685.966-2.623.245-.937.42-1.88.528-2.827.107-.947.16-1.772.16-2.475v-.44c0-.136.02-.263.06-.38Zm4.688 1.699c0 .566-.01 1.128-.03 1.684-.019.557-.029 1.128-.029 1.714 0 3.809-.415 7.476-1.245 11.001-.83 3.525-2.016 7.026-3.56 10.503a9.578 9.578 0 0 0-.263.586c-.098.234-.22.464-.366.688a3.22 3.22 0 0 1-.484.586.835.835 0 0 1-.586.25c-.273 0-.542-.069-.805-.206a2.513 2.513 0 0 1-.703-.542 3.413 3.413 0 0 1-.513-.732 1.732 1.732 0 0 1-.205-.806c0-.195.068-.503.205-.923a32.198 32.198 0 0 1 1.01-2.68c.186-.43.328-.772.426-1.026a49.527 49.527 0 0 0 1.23-4.101c.352-1.387.664-2.774.938-4.16-.86.546-1.758.82-2.696.82-1.23 0-2.265-.269-3.105-.806a6.95 6.95 0 0 1-2.11-2.124c-.566-.879-1.005-1.885-1.318-3.017a25.917 25.917 0 0 1-.703-3.443 31.91 31.91 0 0 1-.278-3.413c-.03-1.113-.044-2.1-.044-2.959 0-.762.039-1.601.117-2.52.078-.917.215-1.84.41-2.768.195-.928.459-1.821.791-2.68a8.68 8.68 0 0 1 1.304-2.3 6.14 6.14 0 0 1 1.933-1.612c.752-.4 1.636-.6 2.652-.6 1.035 0 1.953.278 2.754.835.8.556 1.499 1.284 2.094 2.182a13.73 13.73 0 0 1 1.494 3.062c.4 1.142.728 2.29.982 3.442.254 1.152.434 2.26.542 3.325.107 1.065.161 1.978.161 2.74Z"/></svg>