<svg xmlns="http://www.w3.org/2000/svg" width="10" height="24" viewBox="0 0 20 48"><path fill="#FF7581" fill-rule="nonzero" d="M7.8 10.133a15.88 15.88 0 0 0-.849 2.724c-.215.977-.38 1.973-.498 2.989a39.981 39.981 0 0 0-.234 3.032 73.782 73.782 0 0 0-.059 2.856c0 .332.015.874.044 1.626.03.752.083 1.621.161 2.608.078.986.176 2.055.293 3.208.117 1.152.254 2.31.41 3.471.157 1.163.337 2.276.542 3.34.205 1.065.44 2.007.703 2.827.264.82.552 1.48.865 1.978.312.498.654.747 1.025.747.254 0 .493-.127.718-.38a4.19 4.19 0 0 0 .6-.909c.176-.352.328-.703.455-1.055.127-.351.22-.625.278-.82a31.512 31.512 0 0 0 1.23-5.61 46.61 46.61 0 0 0 .352-5.757c0-1.446-.034-2.974-.103-4.585a73.154 73.154 0 0 0-.366-4.834 54.277 54.277 0 0 0-.732-4.76 31.32 31.32 0 0 0-1.201-4.395c-.157-.45-.332-.899-.528-1.348a3.53 3.53 0 0 0-.82-1.172c-.04.04-.176.264-.41.674a69.65 69.65 0 0 0-1.48 2.74c-.224.439-.356.707-.395.805Zm10.49 14.883c0 .664-.01 1.46-.03 2.387-.02.928-.064 1.929-.132 3.003a51.165 51.165 0 0 1-.322 3.31 34.097 34.097 0 0 1-.6 3.34 21.348 21.348 0 0 1-.968 3.106c-.39.977-.864 1.831-1.42 2.564a6.585 6.585 0 0 1-1.949 1.743c-.742.43-1.592.644-2.549.644-.918 0-1.728-.19-2.431-.571a6.181 6.181 0 0 1-1.831-1.509 9.779 9.779 0 0 1-1.333-2.138 16.89 16.89 0 0 1-.923-2.49 27.738 27.738 0 0 1-.6-2.564 54.184 54.184 0 0 1-.382-2.33A76.524 76.524 0 0 1 2 22.32c0-1.894.078-3.794.234-5.698a29.12 29.12 0 0 1 .996-5.552 7.641 7.641 0 0 1-.322-.527 1.186 1.186 0 0 1-.146-.586 1.43 1.43 0 0 1 .117-.586c.254-.781.596-1.601 1.025-2.46.43-.86.943-1.646 1.538-2.36A8.077 8.077 0 0 1 7.48 2.795c.761-.459 1.61-.689 2.548-.689.82 0 1.553.157 2.198.47.644.312 1.21.732 1.699 1.259a8.256 8.256 0 0 1 1.26 1.802c.351.674.649 1.382.893 2.124.244.742.45 1.484.615 2.226.166.743.308 1.436.425 2.08a71.802 71.802 0 0 1 1.172 12.95Z"/></svg>