<svg xmlns="http://www.w3.org/2000/svg" width="18" height="28" viewBox="0 0 35 56"><path fill="#FFF" fill-rule="nonzero" d="M5.875 37.863c-.045 1.92.279 3.663.971 5.226a12.069 12.069 0 0 0 2.848 4.02c1.206 1.117 2.624 1.976 4.254 2.58 1.63.603 3.384.904 5.26.904 1.965 0 3.752-.368 5.36-1.106a12.985 12.985 0 0 0 4.154-2.981c1.161-1.25 2.054-2.725 2.68-4.422a15.38 15.38 0 0 0 .938-5.36c0-1.876-.324-3.64-.972-5.293-.647-1.653-1.563-3.082-2.747-4.288a13.465 13.465 0 0 0-4.187-2.881c-1.608-.715-3.35-1.072-5.226-1.072-2.68 0-4.958.547-6.834 1.641-1.876 1.095-3.551 2.714-5.025 4.858H4.736L9.56 5.77h23.383v2.211H11.57L7.617 26.406l.134.134c1.34-1.876 3.004-3.272 4.991-4.188 1.988-.915 4.143-1.373 6.466-1.373 2.278 0 4.377.39 6.298 1.172 1.92.782 3.573 1.865 4.958 3.25 1.384 1.385 2.468 3.048 3.25 4.991.78 1.944 1.172 4.054 1.172 6.332 0 2.278-.38 4.4-1.14 6.365-.759 1.965-1.83 3.674-3.215 5.126-1.385 1.451-3.038 2.579-4.958 3.383-1.921.804-4.043 1.206-6.365 1.206-2.234 0-4.333-.346-6.298-1.038-1.966-.693-3.685-1.675-5.16-2.948-1.473-1.274-2.612-2.837-3.416-4.69-.804-1.854-1.14-3.942-1.005-6.265h2.546Z"/></svg>