<svg xmlns="http://www.w3.org/2000/svg" width="14" height="20" viewBox="0 0 28 40"><path fill="#FFF" fill-rule="nonzero" d="M23.332 11.942c-.245-1.779-.958-3.22-2.139-4.324-1.18-1.104-2.706-1.656-4.577-1.656-1.87 0-3.389.475-4.554 1.426-1.165.95-2.07 2.147-2.714 3.588a16.545 16.545 0 0 0-1.288 4.669 37.11 37.11 0 0 0-.322 4.715h.092c.767-1.595 1.924-2.883 3.473-3.864a9.31 9.31 0 0 1 5.083-1.472c1.625 0 3.09.268 4.393.805s2.415 1.28 3.335 2.231c.92.95 1.633 2.085 2.139 3.404.506 1.319.759 2.76.759 4.324s-.268 3.013-.805 4.347a10.2 10.2 0 0 1-2.254 3.45 10.2 10.2 0 0 1-3.45 2.254c-1.334.537-2.798.805-4.393.805-1.963 0-3.65-.299-5.06-.897-1.41-.598-2.576-1.572-3.496-2.921-.92-1.35-1.602-3.105-2.047-5.267-.445-2.162-.667-4.822-.667-7.981 0-.644.038-1.487.115-2.53a21.69 21.69 0 0 1 .529-3.335c.276-1.18.667-2.377 1.173-3.588a12.266 12.266 0 0 1 2.024-3.289c.843-.981 1.894-1.779 3.151-2.392s2.76-.92 4.508-.92c2.883 0 5.167.69 6.854 2.07 1.687 1.38 2.699 3.496 3.036 6.348h-2.898Zm-6.992 5.52c-1.257 0-2.384.222-3.381.667a7.424 7.424 0 0 0-2.53 1.817 7.718 7.718 0 0 0-1.564 2.691c-.353 1.027-.529 2.139-.529 3.335 0 1.135.153 2.208.46 3.22a7.057 7.057 0 0 0 1.449 2.645c.66.751 1.495 1.342 2.507 1.771 1.012.43 2.223.644 3.634.644 1.165 0 2.216-.222 3.151-.667a7.856 7.856 0 0 0 2.438-1.794 7.807 7.807 0 0 0 1.587-2.645 9.215 9.215 0 0 0 .552-3.174c0-1.165-.176-2.27-.529-3.312-.353-1.043-.859-1.947-1.518-2.714a7.063 7.063 0 0 0-2.438-1.817c-.966-.445-2.062-.667-3.289-.667Z"/></svg>