<svg xmlns="http://www.w3.org/2000/svg" width="10" height="24" viewBox="0 0 20 48"><path fill="#FF7581" fill-rule="nonzero" d="M7.14 30.992c.039.39.092.894.16 1.509.07.615.162 1.28.28 1.992.116.713.258 1.44.424 2.183.166.742.361 1.44.586 2.095.224.654.483 1.225.776 1.713.293.489.625.84.996 1.055.41-.039.767-.254 1.07-.644.302-.391.561-.874.776-1.45.215-.577.386-1.207.513-1.89.127-.684.224-1.363.293-2.036.068-.674.112-1.294.132-1.86.02-.567.029-1.007.029-1.32a47.993 47.993 0 0 0-.205-3.984c-.078-.859-.18-1.748-.308-2.666a21.184 21.184 0 0 0-.498-2.534c-.205-.771-.454-1.43-.747-1.977-.293-.547-.644-.889-1.055-1.026-.605.47-1.108 1.123-1.508 1.963-.4.84-.723 1.743-.967 2.71-.244.967-.42 1.929-.528 2.886a22.933 22.933 0 0 0-.16 2.52v.41c0 .117-.02.234-.06.351Zm10.547 1.29c0 .761-.035 1.606-.103 2.533-.068.928-.195 1.87-.38 2.828-.186.957-.45 1.88-.792 2.768a9.841 9.841 0 0 1-1.304 2.388 6.034 6.034 0 0 1-1.933 1.684c-.762.42-1.66.63-2.695.63-1.055 0-1.983-.288-2.784-.864-.8-.576-1.499-1.333-2.094-2.27a14.79 14.79 0 0 1-1.495-3.165 28.899 28.899 0 0 1-.966-3.544 33.333 33.333 0 0 1-.528-3.428 29.197 29.197 0 0 1-.16-2.783c0-.528.009-1.055.028-1.582.02-.528.03-1.075.03-1.641 0-3.887.405-7.607 1.216-11.162.81-3.555 2.006-7.1 3.588-10.635.06-.156.137-.356.235-.6.098-.245.22-.484.366-.718.147-.235.303-.435.469-.6a.786.786 0 0 1 .571-.25c.254 0 .518.068.791.205.274.137.523.308.747.513.225.205.405.444.542.718.137.273.205.537.205.79 0 .235-.078.596-.234 1.085A42.784 42.784 0 0 1 9.835 8.36c-.215.517-.371.912-.469 1.186a82.436 82.436 0 0 0-1.128 3.867 47.557 47.557 0 0 0-.864 3.926c.41-.293.855-.513 1.333-.66.479-.146.972-.22 1.48-.22 1.191 0 2.207.274 3.046.821a6.898 6.898 0 0 1 2.095 2.154c.557.888.991 1.899 1.304 3.032.312 1.133.547 2.285.703 3.457.156 1.172.254 2.314.293 3.428.039 1.113.059 2.09.059 2.93Z"/></svg>