<svg xmlns="http://www.w3.org/2000/svg" width="8" height="24" viewBox="0 0 16 48"><path fill="#FF7581" fill-rule="nonzero" d="M14.188 21.324c0 .274-.06.528-.176.762-.117.332-.23.605-.337.82-.108.215-.24.381-.396.498-.156.117-.346.2-.571.25a4.188 4.188 0 0 1-.864.073H3.875c-.137 0-.308-.005-.513-.015-.205-.01-.41-.04-.615-.088a1.448 1.448 0 0 1-.527-.234c-.147-.108-.22-.269-.22-.484 0-.469.166-.884.498-1.245.332-.361.732-.59 1.201-.688.39-.059.781-.093 1.172-.103.39-.01.781-.034 1.172-.073a382.6 382.6 0 0 0 3.34-.19 55.447 55.447 0 0 1 3.398-.103c.137 0 .288.005.454.015.166.01.323.039.47.087a.707.707 0 0 1 .35.25c.089.117.133.273.133.468Z"/></svg>