<svg xmlns="http://www.w3.org/2000/svg" width="18" height="28" viewBox="0 0 36 56"><path fill="#FFF" fill-rule="nonzero" d="M6.018 36.724c-.09 2.144.167 4.076.77 5.796.604 1.72 1.486 3.17 2.647 4.354 1.161 1.184 2.59 2.1 4.288 2.747 1.697.648 3.618.972 5.762.972 1.697 0 3.35-.246 4.958-.737s3.026-1.217 4.255-2.178a10.725 10.725 0 0 0 2.947-3.584c.738-1.43 1.106-3.06 1.106-4.891 0-2.189-.447-4.009-1.34-5.46a9.386 9.386 0 0 0-3.551-3.384c-1.474-.804-3.138-1.34-4.991-1.608a26.546 26.546 0 0 0-5.662-.201v-2.211c1.697.09 3.406.011 5.125-.234 1.72-.246 3.272-.737 4.657-1.474a9.256 9.256 0 0 0 3.383-3.049c.872-1.295 1.307-2.948 1.307-4.958 0-1.608-.368-3.015-1.105-4.221a9.085 9.085 0 0 0-2.882-2.948 13.673 13.673 0 0 0-3.953-1.708c-1.451-.38-2.87-.57-4.254-.57-2.01 0-3.774.335-5.293 1.005-1.519.67-2.78 1.586-3.786 2.747-1.005 1.161-1.775 2.546-2.311 4.154s-.849 3.372-.938 5.293H4.611c0-2.278.346-4.366 1.038-6.265.693-1.898 1.687-3.517 2.982-4.857 1.295-1.34 2.859-2.39 4.69-3.149 1.831-.76 3.886-1.139 6.164-1.139 1.876 0 3.696.223 5.46.67 1.765.447 3.328 1.139 4.69 2.077a10.977 10.977 0 0 1 3.317 3.618c.849 1.474 1.273 3.238 1.273 5.293 0 1.385-.212 2.68-.636 3.886a9.983 9.983 0 0 1-1.843 3.216 10.037 10.037 0 0 1-2.881 2.312 10.645 10.645 0 0 1-3.685 1.172v.134c1.563.179 2.97.603 4.221 1.273 1.25.67 2.311 1.53 3.183 2.58a11.438 11.438 0 0 1 2.01 3.618c.469 1.362.703 2.825.703 4.388 0 2.278-.424 4.266-1.273 5.963s-1.988 3.115-3.417 4.255c-1.43 1.139-3.104 1.987-5.025 2.546-1.92.558-3.953.837-6.097.837-2.546 0-4.835-.357-6.867-1.072-2.033-.715-3.752-1.753-5.16-3.115-1.407-1.363-2.456-3.038-3.149-5.025-.692-1.988-.971-4.277-.837-6.868h2.546Z"/></svg>