<svg xmlns="http://www.w3.org/2000/svg" width="10" height="12" viewBox="0 0 20 24"><path fill="#000" fill-rule="nonzero" d="M9.321 14.663c-2.281 0-4.045-.532-5.292-1.595-1.248-1.063-1.871-2.726-1.871-4.988 0-1.237.203-2.291.609-3.161.406-.87.962-1.58 1.667-2.131A6.826 6.826 0 0 1 6.9 1.584a11.67 11.67 0 0 1 3.031-.377c1.257 0 2.378.17 3.364.507a5.942 5.942 0 0 1 2.508 1.639c.687.754 1.204 1.74 1.552 2.958.348 1.218.522 2.716.522 4.495 0 2.34-.232 4.268-.696 5.786-.464 1.517-1.102 2.716-1.914 3.596a6.403 6.403 0 0 1-2.9 1.827c-1.121.338-2.349.507-3.683.507-.831 0-1.62-.077-2.364-.232-.744-.155-1.367-.329-1.87-.522-.541-.213-.942-.46-1.204-.74-.26-.28-.391-.7-.391-1.261 0-.27.039-.541.116-.812.077-.27.188-.512.333-.725.146-.213.334-.387.566-.522.232-.135.512-.203.841-.203.232 0 .478.048.74.145l.898.334c.339.125.73.236 1.175.333.445.097.957.145 1.537.145 2.784 0 4.205-1.663 4.263-4.988-.445.329-.99.609-1.639.841-.647.232-1.435.348-2.363.348Zm.58-3.741a6.14 6.14 0 0 0 1.363-.145 2.867 2.867 0 0 0 1.088-.478c.3-.223.536-.518.71-.885.174-.367.261-.831.261-1.392 0-.58-.082-1.058-.247-1.436a2.284 2.284 0 0 0-.696-.913 2.743 2.743 0 0 0-1.087-.493 6.28 6.28 0 0 0-1.392-.145 6.28 6.28 0 0 0-1.392.145 2.867 2.867 0 0 0-1.088.479c-.3.222-.536.517-.71.884-.174.367-.261.831-.261 1.392 0 .58.082 1.058.247 1.436.164.377.4.681.71.913.31.232.672.396 1.088.493.415.097.884.145 1.406.145Z"/></svg>