<svg xmlns="http://www.w3.org/2000/svg" width="14" height="20" viewBox="0 0 28 40"><path fill="#FFF" fill-rule="nonzero" d="M8.014 26.8c.03 1.104.253 2.116.667 3.036.414.92.974 1.71 1.679 2.369a7.322 7.322 0 0 0 2.484 1.518c.95.353 1.978.529 3.082.529 1.257 0 2.377-.238 3.358-.713a7.836 7.836 0 0 0 2.53-1.932 8.49 8.49 0 0 0 1.61-2.806c.368-1.058.552-2.17.552-3.335 0-1.196-.207-2.3-.621-3.312a8.34 8.34 0 0 0-1.702-2.645 7.744 7.744 0 0 0-2.599-1.771c-1.012-.43-2.116-.644-3.312-.644-1.472 0-2.837.33-4.094.989a8.139 8.139 0 0 0-3.082 2.829H6.082L9.21 4.214h16.1v2.668H11.234l-2.07 10.672.092.092c.797-.95 1.81-1.687 3.036-2.208a9.556 9.556 0 0 1 3.772-.782c1.656 0 3.151.276 4.485.828 1.334.552 2.469 1.319 3.404 2.3.935.981 1.656 2.154 2.162 3.519.506 1.365.759 2.86.759 4.485 0 1.564-.291 3.013-.874 4.347a10.548 10.548 0 0 1-2.392 3.45 10.857 10.857 0 0 1-3.565 2.254 11.77 11.77 0 0 1-4.347.805c-1.503 0-2.89-.222-4.163-.667-1.273-.445-2.377-1.089-3.312-1.932S6.542 32.167 5.99 30.94c-.552-1.227-.843-2.607-.874-4.14h2.898Z"/></svg>