<svg xmlns="http://www.w3.org/2000/svg" width="8" height="12" viewBox="0 0 16 24"><path fill="#000" fill-rule="nonzero" d="M11.897 13.8H9.528c-.226 0-2.198.004-2.367.013a63.77 63.77 0 0 1-1.523.056c-.376.01-.884.015-1.523.015-.808.019-1.363-.136-1.664-.466-.3-.329-.451-.869-.451-1.621 0-.808.244-1.354.733-1.636.489-.282 1.138-.432 1.946-.45a238.23 238.23 0 0 1 1.706-.043c.46-.01 2.654-.014 3.03-.014.376 0 .748.004 1.114.014.367.01.804.033 1.311.07.752.057 1.265.24 1.537.55.273.31.41.823.41 1.537 0 .64-.151 1.133-.452 1.48-.3.349-.78.513-1.438.494Z"/></svg>