<svg xmlns="http://www.w3.org/2000/svg" width="10" height="12" viewBox="0 0 20 24"><path fill="#000" fill-rule="nonzero" d="M10.79 9.155c2.265 0 4.017.523 5.256 1.57 1.238 1.046 1.857 2.702 1.857 4.968 0 1.229-.201 2.275-.605 3.139-.403.864-.955 1.57-1.656 2.117-.7.547-1.521.945-2.462 1.195-.94.25-1.94.374-2.995.374-1.248 0-2.362-.168-3.341-.504a5.9 5.9 0 0 1-2.491-1.627c-.682-.749-1.195-1.728-1.541-2.937-.346-1.21-.518-2.698-.518-4.464 0-2.324.244-4.239.734-5.746.49-1.507 1.147-2.698 1.973-3.571.825-.874 1.79-1.479 2.894-1.815a12.055 12.055 0 0 1 3.528-.504c.826 0 1.608.077 2.347.23.74.154 1.359.327 1.858.52.538.21.936.455 1.195.734.26.278.389.696.389 1.252 0 .538-.149 1.042-.446 1.512-.298.47-.764.706-1.397.706-.23 0-.475-.048-.735-.144l-.892-.331a8.648 8.648 0 0 0-1.167-.331 7.235 7.235 0 0 0-1.526-.144c-1.267 0-2.27.412-3.01 1.238-.739.826-1.147 2.074-1.224 3.744.442-.326.984-.605 1.627-.835.644-.23 1.426-.346 2.348-.346Zm-.576 3.715c-.5 0-.956.048-1.368.144a2.847 2.847 0 0 0-1.066.476c-.298.22-.533.513-.706.878-.172.365-.259.826-.259 1.382 0 1.133.312 1.91.936 2.333.624.423 1.445.634 2.463.634.499 0 .96-.048 1.382-.144a2.847 2.847 0 0 0 1.08-.475c.298-.221.533-.514.706-.879.172-.365.259-.825.259-1.382 0-.576-.082-1.051-.245-1.426a2.216 2.216 0 0 0-.706-.907 2.853 2.853 0 0 0-1.08-.49 6.186 6.186 0 0 0-1.396-.144Z"/></svg>