<svg xmlns="http://www.w3.org/2000/svg" width="18" height="28" viewBox="0 0 35 56"><path fill="#FFF" fill-rule="nonzero" d="M6.291 40.61c.536 2.948 1.82 5.349 3.852 7.203 2.033 1.853 4.612 2.78 7.739 2.78 2.1 0 3.92-.39 5.46-1.173a12.382 12.382 0 0 0 3.92-3.081c1.072-1.274 1.943-2.736 2.613-4.389a29.077 29.077 0 0 0 1.541-5.092c.357-1.742.603-3.462.737-5.159a59.2 59.2 0 0 0 .201-4.623l-.134-.134a16.464 16.464 0 0 1-1.91 3.618 13.83 13.83 0 0 1-2.847 2.982c-1.117.87-2.4 1.552-3.853 2.043-1.451.491-3.07.737-4.857.737-2.323 0-4.444-.39-6.365-1.172-1.92-.782-3.562-1.876-4.925-3.284-1.362-1.407-2.423-3.07-3.182-4.991-.76-1.92-1.139-4.042-1.139-6.365 0-2.278.39-4.366 1.172-6.265.782-1.898 1.865-3.54 3.25-4.924 1.385-1.385 3.026-2.457 4.925-3.216 1.898-.76 3.986-1.139 6.264-1.139 1.161 0 2.378.112 3.651.335 1.274.223 2.502.614 3.686 1.172 1.183.559 2.311 1.352 3.383 2.379s2.01 2.334 2.814 3.92c.804 1.585 1.44 3.517 1.91 5.795.469 2.278.703 4.958.703 8.04 0 1.876-.09 3.83-.268 5.862a40.488 40.488 0 0 1-.971 5.963 29.89 29.89 0 0 1-1.91 5.528 16.49 16.49 0 0 1-3.116 4.59c-1.273 1.317-2.791 2.356-4.556 3.115-1.764.76-3.83 1.139-6.197 1.139-3.93 0-7.158-1.05-9.682-3.149-2.523-2.1-4.008-5.114-4.455-9.045h2.546Zm12.462-6.499c1.92 0 3.674-.357 5.26-1.072a12.904 12.904 0 0 0 4.12-2.915c1.161-1.228 2.066-2.668 2.713-4.321.648-1.653.972-3.417.972-5.293 0-1.831-.335-3.562-1.005-5.193-.67-1.63-1.586-3.048-2.747-4.254a12.72 12.72 0 0 0-4.12-2.848c-1.586-.692-3.317-1.038-5.193-1.038-1.876 0-3.607.357-5.193 1.072a13.167 13.167 0 0 0-4.12 2.881c-1.161 1.206-2.077 2.624-2.747 4.254a13.355 13.355 0 0 0-1.005 5.126c0 1.831.335 3.573 1.005 5.226.67 1.653 1.586 3.093 2.747 4.322a13.355 13.355 0 0 0 4.12 2.947c1.586.738 3.317 1.106 5.193 1.106Z"/></svg>