<svg xmlns="http://www.w3.org/2000/svg" xmlns:xlink="http://www.w3.org/1999/xlink" width="56" height="32" viewBox="0 0 114 64"><defs><path id="a" d="M3.775 8.27h58.212v62.75H3.775z"/><path id="c" d="M.404.673h52.543v36.008H.404z"/></defs><g fill="none" fill-rule="evenodd"><g transform="translate(-2 -8)"><g fill="#FF7581" stroke="#FF7581"><path stroke-width="2.651" d="M51.131 51.172c3.848.896 3.708.155-.26-.77-38.844-9.048 1.867-.623-36.378-8.425-4.566-.93-.472.67 2.052 1.186 37.65 7.68-3.656-.9 34.586 8.009ZM52.016 42.784c3.939.218 5.345-1.51 1.284-1.735-39.765-2.2.053.083-38.906-.99-4.651-.128-.347.743 2.224.814 38.353 1.055-3.751-.254 35.398 1.91ZM16.067 31.048c-.247-.014-6.526 1.007-6.753 1.008-3.383.012 1.663.516 5.47.727 39.764 2.2-.053-.083 38.906.99 4.65.128.516-.07-2.056-.14-38.353-1.056 3.583-.42-35.567-2.585Z"/><path stroke-width="1.767" d="M49.096 56.977c2.164.362.453-.687-.75-.888a219.085 219.085 0 0 0-23.015-2.63c-1.4-.083 1.555 1.025 2.153 1.06a205.569 205.569 0 0 1 21.612 2.458Z"/><path stroke-width="2.651" d="M57.88 27.677c1.796.182 2.147-1.647 1.149-1.747-6.398-.649-13.174-1.914-19.387-3.148-1.553-.309-1.118-2.549-1.103.707 6.017-.136 13.332 3.579 19.34 4.188Z"/><path d="M52.64 64.675c-.164-.54-6.443-2.268-6.608-2.807l-1.454-.305c-2.087-.438-1.044 1.297.494 1.619l1.454.304c2.114.443 1.007-1.207-.494-1.618-8.35-2.287-3.987-1.025-12.362-2.87-2.09-.46-1.039 1.282.494 1.62 8.374 1.843 10.125 1.77 18.476 4.057Z"/></g><mask id="b" fill="#fff"><use xlink:href="#a"/></mask><path fill="#FF7581" d="M52.897 46.599c-.208 1.39-5.466 17.352-5.674 18.33-.082.38-.406.704-.772.96-3.754-2.517-15.696-10.37-20.282-14.673-4.682-4.394-10.375-9.475-13.915-16.34-3.54-6.866-1.875-9.818-.903-10.505.973-.686 4.86-2.746 10.899.756 6.039 3.501 6.178 3.432 7.497 4.462 1.32 1.03 3.68 3.021 3.68 3.021s1.457 2.266 3.123.96c.092-.071.162-.15.225-.233l.007-.004c2.003-1.474 1.59-5.683 3.151-9.39 1.562-3.708 5.572-12.823 8.512-13.389 2.941-.567 7.108.154 7.68 11.328.573 11.175-3.02 23.327-3.228 24.717M53.47 8.66c-2.655-.052-4.738-1.196-9.684 2.356-4.945 3.554-8.07 17.56-8.07 17.56s-.096.65-.16 1.477c-.473-.519-.88-.877-.88-.877s-11.94-11.534-21.034-9.406C4.548 21.9 4.687 24.165 3.646 25.47c-1.041 1.305-3.4 8.719 14.855 25.196C36.758 67.144 45.574 70.92 45.574 70.92s.874.618 2.59 0c0 0 3.12-.738 5.514-9.595.822-3.04 1.947-5.763 2.707-8.6 1.708-6.364 2.933-13.165 4.374-24.458 2.083-16.323-4.634-19.555-7.29-19.606" mask="url(#b)"/><path fill="#FF7581" d="M44.497 14.647c6.37 2.892 10.725 4.57 13.064 5.035 2.339.465 3.134-.191 2.385-1.968l-14.788-5.597-.66 2.53Z" mask="url(#b)"/></g><path fill="#FF9172" d="M99.12 49.18c-2.704 2.003-8.432 4.469-9.837 5.24-1.406.773-4.451 2.252-6.325 2.819-1.875.566-5.467 1.802-6.77 2.368-.32.14-.562.188-.744.183a1.049 1.049 0 0 0-.036-.165c-.139-.344-.555-2.953-1.303-7.123-.748-4.17-1.265-5.51-2.306-14.436-1.041-8.925.694-14.142 2.568-16.477 1.874-2.334 6.04-1.716 8.047 3.983 2.007 5.697 2.269 7.006 2.782 10.435.416 2.78.764 3.027 2.013 3.33.345.084 1.147-.097 1.244-.401 0-.004.604-.47.606-.472.704-.441 1.564-.705 2.454-1.015 1.165-.407 5.592-1.787 8.913-2.388 2.179-.395 7.85.863 6.428 5.185-1.405 4.274-5.03 6.932-7.734 8.934Zm3.934-16.503c-2.582-.589-6.092.206-7.394.67-1.301.463-2.342.978-4.58 1.512-2.24.535-3.385 1.491-3.385 1.491-.556 0-.486-1.03-.486-1.03s-.496-4.905-3.263-11.26c-2.887-6.63-8.033-6.49-11.662-4.737-3.628 1.753-4.234 11.123-4.165 13.526.07 2.403.14 9.406.486 11.259.347 1.854 1.874 10.298 2.36 12.084.486 1.785.486 4.257 2.777 6.728.393.423.697.602.943.627.884.586 3.258-.618 3.274-.627.02-.005 2.94-.749 9.893-3.827a121.316 121.316 0 0 0 17.805-9.732c4.997-3.296 7.34-6.694 6.3-10.607-1.042-3.914-6.322-5.488-8.903-6.077Z"/><g stroke="#FF9172"><path fill="#FFA48A" d="M82.375 25.996c1.528-.622.178-1.922-1.07-1.414-4.959 2.017-6.585 2.386-11.544 4.404-1.527.622-.177 1.922 1.071 1.415 4.959-2.018 6.585-2.387 11.543-4.405Z"/><path fill="#FF9172" d="M108.7 42.375c1.529-.622.178-1.922-1.07-1.414-4.958 2.017-30.256 10.533-35.215 12.55-1.527.622-.177 1.923 1.072 1.415 4.958-2.018 30.256-10.533 35.214-12.55Z"/></g><path fill="#FF9172" stroke="#FF9172" d="M85.382 32.743c1.423-.097.268-1.277-.759-.967-3.253.982-.36-.41-14.618 1.587-1.702.239-1.278 1.578-.337 1.446 14.037-1.968 1.57-1.101 15.714-2.066ZM85.55 36.151c1.39-.316.062-1.302-.903-.837-3.058 1.474-.42-.35-14.187 3.83-1.644.5-1.013 1.757-.105 1.482 13.553-4.118 1.377-1.332 15.194-4.475ZM107.08 37.937c1.39-.316-.95-3.464-1.915-2.999-3.058 1.474-20.053 7.033-33.82 11.214-1.644.5-.91 2.374 0 2.099 12.72-3.215 21.918-7.171 35.735-10.314Z"/></g></svg>