<svg xmlns="http://www.w3.org/2000/svg" xmlns:xlink="http://www.w3.org/1999/xlink" width="24" height="24"><defs><path id="a" d="m0 7.252 3.304 2.873L.077 11.63 0 7.252ZM14.952 2.8l-.305 4-3.26-2.338L14.952 2.8Z"/></defs><g fill="#191919" fill-rule="evenodd" transform="translate(4.524 4.5)"><path fill-rule="nonzero" d="M7.387 15a7.503 7.503 0 0 1-7.23-5.5H1.2a6.503 6.503 0 0 0 12.373 0h1.044a7.503 7.503 0 0 1-7.23 5.5Zm0-15a7.503 7.503 0 0 1 7.23 5.5h-1.044A6.503 6.503 0 0 0 1.2 5.5H.156A7.503 7.503 0 0 1 7.386 0Z"/><use xlink:href="#a"/></g></svg>