<svg xmlns="http://www.w3.org/2000/svg" xmlns:xlink="http://www.w3.org/1999/xlink" width="14" height="14"><defs><path id="a" d="M0 0h12.677v12.677H0z"/></defs><g fill="none" fill-rule="evenodd" transform="translate(.7 .7)"><mask id="b" fill="#fff"><use xlink:href="#a"/></mask><path fill="#FF2073" d="M12.677 6.338A6.338 6.338 0 1 1 0 6.338a6.338 6.338 0 0 1 12.677 0" mask="url(#b)"/><path fill="#FEFEFE" d="M9.924 5.361a1.933 1.933 0 0 0-1.829-1.775 1.921 1.921 0 0 0-1.704.878.064.064 0 0 1-.106 0 1.921 1.921 0 0 0-1.704-.878 1.933 1.933 0 0 0-1.829 1.775c-.04.545.147 1.045.476 1.418h-.003L6.09 9.814c.138.145.37.145.507 0L9.45 6.778H9.45c.329-.373.516-.873.475-1.418"/></g></svg>