<svg xmlns="http://www.w3.org/2000/svg" xmlns:xlink="http://www.w3.org/1999/xlink" width="14" height="14"><defs><linearGradient id="b" x1="0%" x2="100%" y1="50%" y2="50%"><stop offset="0%" stop-color="#8853E1"/><stop offset="100%" stop-color="#7D34FC"/></linearGradient><path id="a" d="M6.297 0a6.297 6.297 0 1 0 0 12.595A6.297 6.297 0 0 0 6.297 0Z"/></defs><g fill="none" fill-rule="evenodd" transform="translate(.7 .7)"><mask id="c" fill="#fff"><use xlink:href="#a"/></mask><path fill="url(#b)" d="M6.297 0a6.297 6.297 0 1 0 0 12.595A6.297 6.297 0 0 0 6.297 0Z" mask="url(#c)"/><path fill="#FFF" d="M4.338 9.131H3.221a.409.409 0 0 1-.408-.408V5.346c0-.226.183-.409.408-.409h1.117c.226 0 .41.183.41.41v3.376a.409.409 0 0 1-.41.408m4.794-4.154H7.664s.278-.313.278-1.194c0-.88-.463-1.364-1.003-1.605-.45-.2-.684.152-.684.446 0 .272-.039 1.483-.903 2.198a.584.584 0 0 0-.216.443L5.14 8.75a.373.373 0 0 0 .373.377h2.312c.482 0 .926-.261 1.163-.682.521-.924.673-2.144.716-2.863a.57.57 0 0 0-.57-.604"/></g></svg>