<svg xmlns="http://www.w3.org/2000/svg" xmlns:xlink="http://www.w3.org/1999/xlink" width="14" height="14"><defs><path id="a" d="M6.29.022a6.29 6.29 0 1 0 0 12.578 6.29 6.29 0 0 0 0-12.578Z"/><path id="d" d="M.014 2.185c0 1.2.889 2.173 1.986 2.173s1.986-.973 1.986-2.173C3.986.985 3.096.013 2 .013.903.013.014.985.014 2.185"/><radialGradient id="b" cx="15.12%" cy="20.47%" r="79.715%" fx="15.12%" fy="20.47%" gradientTransform="matrix(.74153 .67092 -.37467 .4141 .116 .018)"><stop offset="0%" stop-color="#FFE4A7"/><stop offset="100%" stop-color="#FFC346"/></radialGradient><linearGradient id="e" x1="50%" x2="50%" y1="0%" y2="100%"><stop offset="0%" stop-color="#842E13"/><stop offset="100%" stop-color="#521E07"/></linearGradient></defs><g fill="none" fill-rule="evenodd"><g transform="translate(.7 .72)"><mask id="c" fill="#fff"><use xlink:href="#a"/></mask><path fill="url(#b)" d="M6.3-.02a6.3 6.3 0 1 0 0 12.6 6.3 6.3 0 0 0 0-12.6Z" mask="url(#c)"/></g><g transform="translate(5.068 7.02)"><mask id="f" fill="#fff"><use xlink:href="#d"/></mask><path fill="url(#e)" d="M.014 2.185c0 1.2.889 2.173 1.986 2.173s1.986-.973 1.986-2.173C3.986.985 3.096.013 2 .013.903.013.014.985.014 2.185" mask="url(#f)"/></g><path fill="#522718" d="M5.551 5.144a.91.91 0 1 1-1.82 0 .91.91 0 0 1 1.82 0m4.752 0a.91.91 0 1 1-1.82 0 .91.91 0 0 1 1.82 0M4.851 3.052c.006.002-.002.002-.007.002l-.018.001c-.013 0-.027 0-.041.002l-.088.005c-.03.004-.06.004-.09.009-.03.005-.06.007-.09.013a2.194 2.194 0 0 0-.685.237c-.056.026-.107.062-.161.092-.028.015-.053.035-.08.052a1.895 1.895 0 0 1-.081.051l-.053.031a.419.419 0 0 1-.519-.646c.063-.067.126-.135.196-.195.072-.059.144-.119.224-.168.156-.105.33-.184.509-.245l.135-.041.139-.032c.046-.009.093-.015.14-.023.046-.007.093-.01.14-.014.094-.008.189-.007.284-.002.048.005.095.007.144.015l.075.012.04.008.05.012a.42.42 0 1 1-.163.824m4.197 0c-.006.002.002.002.007.002l.018.001c.013 0 .027 0 .042.002l.087.005c.03.004.06.004.09.009.03.005.06.007.09.013a2.193 2.193 0 0 1 .685.237c.056.026.107.062.161.092.028.015.053.035.08.052.026.017.053.035.081.051l.053.031a.419.419 0 0 0 .519-.646c-.063-.067-.125-.135-.196-.195-.072-.059-.144-.119-.224-.168a2.139 2.139 0 0 0-.509-.245l-.135-.041-.138-.032c-.047-.009-.094-.015-.14-.023-.047-.007-.094-.01-.14-.014a2.161 2.161 0 0 0-.285-.002c-.048.005-.095.007-.144.015l-.075.012-.04.008-.05.012a.42.42 0 1 0 .163.824"/></g></svg>