<svg xmlns="http://www.w3.org/2000/svg" xmlns:xlink="http://www.w3.org/1999/xlink" width="14" height="14"><defs><path id="a" d="M6.99.742a6.29 6.29 0 1 0 0 12.578 6.29 6.29 0 0 0 0-12.578Z"/><path id="d" d="M.014.508c-.033 1.156.259 3.674 3.292 4.408 3.015.73 4.53-1.321 5.087-2.358a.485.485 0 0 0-.315-.7L.614.051a.485.485 0 0 0-.6.457"/><path id="g" d="M.04.63c.485.706 1.275 1.33 2.55 1.64 1.317.319 2.348.107 3.138-.32C5.234 1 4.304.444 3.18.17A5.034 5.034 0 0 0 1.999.02C1.284.02.614.206.039.63"/><linearGradient id="e" x1="50%" x2="50%" y1="0%" y2="100%"><stop offset="0%" stop-color="#8A4F35"/><stop offset="100%" stop-color="#522718"/></linearGradient><linearGradient id="h" x1="55.218%" x2="47.84%" y1="42.487%" y2="57.81%"><stop offset="0%" stop-color="#FB702B"/><stop offset="100%" stop-color="#F94A1A"/></linearGradient><radialGradient id="b" cx="15.12%" cy="20.47%" r="79.715%" fx="15.12%" fy="20.47%" gradientTransform="matrix(.74153 .67092 -.37467 .4141 .116 .018)"><stop offset="0%" stop-color="#FFE4A7"/><stop offset="100%" stop-color="#FFC346"/></radialGradient></defs><g fill="none" fill-rule="evenodd"><mask id="c" fill="#fff"><use xlink:href="#a"/></mask><path fill="url(#b)" d="M7 .7a6.3 6.3 0 1 0 0 12.6A6.3 6.3 0 0 0 7 .7Z" mask="url(#c)"/><g mask="url(#c)"><path fill="#522718" d="M3.18 4.306a1.42 1.42 0 0 1 .197-.597c.11-.185.262-.347.441-.473a1.595 1.595 0 0 1 1.268-.247c.216.05.424.143.603.275.18.131.33.3.439.49.109.19.177.4.198.615.02.214-.005.43-.077.624a.377.377 0 0 1-.73-.122l-.002-.042a.944.944 0 0 0-.194-.566.806.806 0 0 0-.457-.29.806.806 0 0 0-.538.068.944.944 0 0 0-.416.429l-.019.037a.377.377 0 0 1-.713-.2m5.303 1.186c.015-.205.082-.412.19-.597.11-.185.26-.347.44-.473a1.586 1.586 0 0 1 .768-.281c.056-.003.112-.007.167-.007.056.003.111.006.167.012.055.008.11.017.164.027l.16.045c.052.019.104.04.155.061.05.024.1.05.149.077a1.586 1.586 0 0 1 .576.582c.108.19.175.402.194.615.02.214-.008.43-.082.622a.367.367 0 0 1-.71-.116v-.044a.965.965 0 0 0-.203-.57.817.817 0 0 0-.46-.288.817.817 0 0 0-.538.065.965.965 0 0 0-.426.43l-.02.038a.367.367 0 0 1-.691-.198"/><g transform="translate(2.716 5.932)"><mask id="f" fill="#fff"><use xlink:href="#d"/></mask><path fill="url(#e)" d="M3.306 4.916c3.015.73 4.53-1.321 5.087-2.358a.485.485 0 0 0-.315-.7L.614.051a.485.485 0 0 0-.6.457c-.033 1.156.259 3.674 3.292 4.408Z" mask="url(#f)"/></g><g transform="translate(3.43 8.578)"><mask id="i" fill="#fff"><use xlink:href="#g"/></mask><path fill="url(#h)" d="M2.59 2.27c1.317.319 2.348.107 3.138-.32C5.234 1 4.304.444 3.18.17A5.034 5.034 0 0 0 1.999.02C1.284.02.614.206.039.63c.486.706 1.276 1.33 2.552 1.64Z" mask="url(#i)"/></g></g></g></svg>