<svg xmlns="http://www.w3.org/2000/svg" xmlns:xlink="http://www.w3.org/1999/xlink" width="14" height="14"><defs><radialGradient id="a" cx="15.12%" cy="20.47%" r="79.715%" fx="15.12%" fy="20.47%" gradientTransform="matrix(.74153 .67092 -.37467 .4141 .116 .018)"><stop offset="0%" stop-color="#FFE4A7"/><stop offset="100%" stop-color="#FFC346"/></radialGradient><linearGradient id="c" x1="50%" x2="50%" y1="0%" y2="100%"><stop offset="0%" stop-color="#69F0FD"/><stop offset="100%" stop-color="#58ABE8"/></linearGradient><path id="b" d="M.011 2.612c-.007.735.311 1.117.632 1.316.2.124.425.187.649.188h.01c.216 0 .433-.06.63-.176.323-.192.649-.568.656-1.303C2.602 1.167 1.325.013 1.325.013s-1.3 1.13-1.314 2.6"/></defs><g fill="none" fill-rule="evenodd"><path fill="url(#a)" d="M7 .7a6.3 6.3 0 1 0 0 12.6A6.3 6.3 0 0 0 7 .7Z"/><path fill="#522718" d="M2.367 6.119c-.002-.003.01-.005.017-.006l.025-.006.053-.012.108-.025c.073-.017.144-.037.213-.057.139-.041.271-.089.391-.149a1.66 1.66 0 0 0 .61-.507l.022-.028a.386.386 0 0 1 .665.365 1.66 1.66 0 0 1-.34.58c-.153.172-.34.311-.54.413A2.041 2.041 0 0 1 2.41 6.9l-.042-.007-.051-.009a.383.383 0 1 1 .051-.764m7.622.764-.051.01-.042.006a1.997 1.997 0 0 1-.56-.008 2.04 2.04 0 0 1-.623-.204 1.852 1.852 0 0 1-.54-.413 1.661 1.661 0 0 1-.34-.58.386.386 0 0 1 .666-.366l.022.029a1.662 1.662 0 0 0 .609.507c.12.06.253.108.391.15.07.02.141.04.213.056l.109.025.052.011.026.007c.006.001.018.003.016.006a.383.383 0 0 1 .052.764M4.825 8.234a.95.95 0 1 1-1.898 0 .95.95 0 0 1 1.898 0m4.74 0a.95.95 0 1 1-1.899 0 .95.95 0 0 1 1.899 0"/><g transform="translate(8.176 9.502)"><mask id="d" fill="#fff"><use xlink:href="#b"/></mask><path fill="url(#c)" d="M.011 2.612c-.007.735.311 1.117.632 1.316.2.124.425.187.649.188h.01c.216 0 .433-.06.63-.176.323-.192.649-.568.656-1.303C2.602 1.167 1.325.013 1.325.013s-1.3 1.13-1.314 2.6" mask="url(#d)"/></g><path fill="#522718" d="M7.347 11.441h-2.01a.338.338 0 0 1-.308-.475c.168-.383.537-.858 1.332-.858.813 0 1.158.496 1.304.883a.336.336 0 0 1-.318.45"/></g></svg>