<svg xmlns="http://www.w3.org/2000/svg" xmlns:xlink="http://www.w3.org/1999/xlink" width="24" height="24"><defs><path id="a" d="M10.781.037C4.827.037 0 4.864 0 10.819 0 16.773 4.827 21.6 10.781 21.6c5.955 0 10.782-4.827 10.782-10.781 0-5.955-4.827-10.782-10.782-10.782Z"/><path id="d" d="M.023 3.747c0 2.057 1.525 3.724 3.405 3.724s3.405-1.667 3.405-3.724C6.833 1.689 5.31.022 3.428.022 1.548.022.023 1.689.023 3.747"/><radialGradient id="b" cx="15.12%" cy="20.47%" r="79.715%" fx="15.12%" fy="20.47%" gradientTransform="matrix(.74153 .67092 -.37467 .4141 .116 .018)"><stop offset="0%" stop-color="#FFE4A7"/><stop offset="100%" stop-color="#FFC346"/></radialGradient><linearGradient id="e" x1="50%" x2="50%" y1="0%" y2="100%"><stop offset="0%" stop-color="#842E13"/><stop offset="100%" stop-color="#521E07"/></linearGradient></defs><g fill="none" fill-rule="evenodd"><g transform="translate(1.2 1.235)"><mask id="c" fill="#fff"><use xlink:href="#a"/></mask><path fill="url(#b)" d="M10.8-.035C4.835-.035 0 4.8 0 10.765c0 5.965 4.835 10.8 10.8 10.8 5.965 0 10.8-4.835 10.8-10.8 0-5.965-4.835-10.8-10.8-10.8Z" mask="url(#c)"/></g><g transform="translate(8.688 12.035)"><mask id="f" fill="#fff"><use xlink:href="#d"/></mask><path fill="url(#e)" d="M.023 3.747c0 2.057 1.525 3.724 3.405 3.724s3.405-1.667 3.405-3.724C6.833 1.689 5.31.022 3.428.022 1.548.022.023 1.689.023 3.747" mask="url(#f)"/></g><g fill="#522718"><path d="M9.517 8.819a1.56 1.56 0 1 1-3.12 0 1.56 1.56 0 0 1 3.12 0M17.662 8.819a1.56 1.56 0 1 1-3.12 0 1.56 1.56 0 0 1 3.12 0M8.317 5.232c.009.004-.005.004-.013.004l-.031.002c-.023 0-.046 0-.071.002l-.15.01c-.052.006-.103.007-.155.015-.052.01-.103.012-.155.022-.205.035-.409.082-.604.153a3.762 3.762 0 0 0-.57.254c-.095.044-.182.106-.275.158-.048.025-.09.059-.136.088a3.25 3.25 0 0 1-.14.088l-.091.054a.718.718 0 0 1-.89-1.109c.108-.115.216-.23.337-.334.124-.1.246-.203.384-.287.268-.18.565-.317.872-.42.077-.024.154-.05.232-.07.079-.02.158-.037.237-.055.08-.016.16-.027.24-.04.079-.013.16-.016.24-.024.162-.013.324-.012.487-.003.083.007.164.012.248.026.041.005.084.012.128.02l.068.014.085.02a.72.72 0 1 1-.277 1.412M15.51 5.232c-.009.004.005.004.013.004l.031.002c.023 0 .046 0 .07.002l.151.01c.052.006.103.007.155.015.051.01.103.012.154.022.206.035.41.082.605.153.194.073.387.149.57.254.095.044.182.106.275.158.048.025.09.059.136.088.046.03.092.06.14.088l.091.054a.718.718 0 0 0 .89-1.109c-.108-.115-.216-.23-.337-.334-.124-.1-.246-.203-.384-.287a3.666 3.666 0 0 0-.872-.42c-.077-.024-.154-.05-.232-.07-.079-.02-.158-.037-.237-.055-.08-.016-.16-.027-.24-.04-.08-.013-.16-.016-.24-.024a3.705 3.705 0 0 0-.487-.003c-.083.007-.164.012-.248.026a2.14 2.14 0 0 0-.128.02l-.068.014-.085.02a.72.72 0 1 0 .277 1.412"/></g></g></svg>