<svg xmlns="http://www.w3.org/2000/svg" xmlns:xlink="http://www.w3.org/1999/xlink" width="24" height="24"><defs><linearGradient id="b" x1="0%" x2="100%" y1="50%" y2="50%"><stop offset="0%" stop-color="#8853E1"/><stop offset="100%" stop-color="#7D34FC"/></linearGradient><path id="a" d="M10.795 0C4.833 0 0 4.833 0 10.795s4.833 10.796 10.795 10.796 10.796-4.834 10.796-10.796S16.757 0 10.795 0Z"/></defs><g fill="none" fill-rule="evenodd"><g transform="translate(1.2 1.2)"><mask id="c" fill="#fff"><use xlink:href="#a"/></mask><path fill="url(#b)" d="M10.795 0C4.833 0 0 4.833 0 10.795s4.833 10.796 10.795 10.796 10.796-4.834 10.796-10.796S16.757 0 10.795 0Z" mask="url(#c)"/></g><g fill="#FFF"><path d="M8.637 16.854H6.722a.7.7 0 0 1-.7-.7v-5.79a.7.7 0 0 1 .7-.7h1.915a.7.7 0 0 1 .7.7v5.79a.7.7 0 0 1-.7.7M16.855 9.732h-2.518s.478-.537.478-2.047c0-1.51-.793-2.338-1.719-2.75-.771-.344-1.174.26-1.174.763 0 .467-.065 2.542-1.548 3.77a1 1 0 0 0-.369.758l.005 5.973a.64.64 0 0 0 .64.645h3.962a2.29 2.29 0 0 0 1.994-1.168C17.5 14.09 17.76 12 17.833 10.767a.978.978 0 0 0-.978-1.035"/></g></g></svg>