<svg xmlns="http://www.w3.org/2000/svg" xmlns:xlink="http://www.w3.org/1999/xlink" width="24" height="24"><defs><path id="a" d="M0 0h21.731v21.731H0z"/></defs><g fill="none" fill-rule="evenodd"><g transform="translate(1.2 1.2)"><mask id="b" fill="#fff"><use xlink:href="#a"/></mask><path fill="#FF2073" d="M21.731 10.866c0 6-4.864 10.865-10.865 10.865S0 16.867 0 10.866 4.865 0 10.866 0c6 0 10.865 4.865 10.865 10.866" mask="url(#b)"/></g><path fill="#FEFEFE" d="M18.213 10.39a3.314 3.314 0 0 0-3.135-3.042 3.293 3.293 0 0 0-2.922 1.504.109.109 0 0 1-.181 0 3.294 3.294 0 0 0-2.922-1.504 3.314 3.314 0 0 0-3.135 3.043c-.069.933.252 1.791.815 2.43H6.73l4.911 5.202c.236.25.633.25.869 0l4.893-5.202h-.004a3.286 3.286 0 0 0 .815-2.43"/></g></svg>