<svg xmlns="http://www.w3.org/2000/svg" xmlns:xlink="http://www.w3.org/1999/xlink" width="24" height="24"><defs><path id="a" d="M11.981 1.272C6.027 1.272 1.2 6.099 1.2 12.053c0 5.955 4.827 10.782 10.781 10.782 5.955 0 10.782-4.827 10.782-10.782 0-5.954-4.827-10.781-10.782-10.781Z"/><path id="d" d="M.024.87c-.056 1.983.444 6.298 5.643 7.557 5.169 1.252 7.766-2.264 8.721-4.043a.83.83 0 0 0-.54-1.198L1.052.087A.831.831 0 0 0 .024.87"/><path id="g" d="M.068 1.079C.9 2.289 2.254 3.361 4.44 3.891c2.258.547 4.024.183 5.378-.547C8.973 1.712 7.379.76 5.45.293A8.63 8.63 0 0 0 3.426.035C2.201.035 1.052.351.068 1.08"/><linearGradient id="e" x1="50%" x2="50%" y1="0%" y2="100%"><stop offset="0%" stop-color="#8A4F35"/><stop offset="100%" stop-color="#522718"/></linearGradient><linearGradient id="h" x1="55.218%" x2="47.84%" y1="42.487%" y2="57.81%"><stop offset="0%" stop-color="#FB702B"/><stop offset="100%" stop-color="#F94A1A"/></linearGradient><radialGradient id="b" cx="15.12%" cy="20.47%" r="79.715%" fx="15.12%" fy="20.47%" gradientTransform="matrix(.74153 .67092 -.37467 .4141 .116 .018)"><stop offset="0%" stop-color="#FFE4A7"/><stop offset="100%" stop-color="#FFC346"/></radialGradient></defs><g fill="none" fill-rule="evenodd"><mask id="c" fill="#fff"><use xlink:href="#a"/></mask><path fill="url(#b)" d="M12 1.2C6.035 1.2 1.2 6.035 1.2 12c0 5.965 4.835 10.8 10.8 10.8 5.965 0 10.8-4.835 10.8-10.8 0-5.965-4.835-10.8-10.8-10.8Z" mask="url(#c)"/><g mask="url(#c)"><g fill="#522718"><path d="M5.452 7.382c.029-.354.15-.707.337-1.025.188-.317.449-.595.756-.81a2.734 2.734 0 0 1 1.038-.438 2.793 2.793 0 0 1 1.136.015c.37.084.727.244 1.034.47.307.226.565.514.752.84.186.325.303.688.339 1.055.034.367-.007.738-.132 1.07A.647.647 0 0 1 9.46 8.35l-.002-.072a1.618 1.618 0 0 0-.332-.97 1.382 1.382 0 0 0-.784-.498 1.382 1.382 0 0 0-.922.116 1.618 1.618 0 0 0-.714.736l-.032.064a.647.647 0 0 1-1.222-.344M14.542 9.417c.026-.352.142-.707.327-1.023.187-.318.445-.596.752-.812a2.72 2.72 0 0 1 1.318-.482c.096-.005.191-.011.287-.011.095.004.19.01.285.02.094.013.188.03.281.046.092.025.184.05.275.078.09.032.178.067.266.104.087.04.17.087.254.132.082.049.16.103.24.157.306.226.563.515.748.84.185.327.3.69.333 1.055a2.39 2.39 0 0 1-.14 1.065.63.63 0 0 1-1.216-.198l-.003-.075a1.654 1.654 0 0 0-.346-.976 1.4 1.4 0 0 0-.788-.496 1.4 1.4 0 0 0-.924.113 1.655 1.655 0 0 0-.73.735l-.034.066a.63.63 0 0 1-1.185-.338"/></g><g transform="translate(4.656 10.169)"><mask id="f" fill="#fff"><use xlink:href="#d"/></mask><path fill="url(#e)" d="M5.667 8.427c5.169 1.252 7.766-2.264 8.721-4.043a.83.83 0 0 0-.54-1.198L1.052.087A.831.831 0 0 0 .024.87c-.056 1.983.444 6.298 5.643 7.557Z" mask="url(#f)"/></g><g transform="translate(5.88 14.705)"><mask id="i" fill="#fff"><use xlink:href="#g"/></mask><path fill="url(#h)" d="M4.441 3.89c2.258.548 4.024.184 5.378-.546C8.973 1.712 7.379.76 5.45.293A8.63 8.63 0 0 0 3.426.035C2.201.035 1.052.351.068 1.08.9 2.289 2.254 3.361 4.44 3.891Z" mask="url(#i)"/></g></g></g></svg>