<svg xmlns="http://www.w3.org/2000/svg" xmlns:xlink="http://www.w3.org/1999/xlink" width="24" height="24"><defs><radialGradient id="a" cx="15.12%" cy="20.47%" r="79.715%" fx="15.12%" fy="20.47%" gradientTransform="matrix(.74153 .67092 -.37467 .4141 .116 .018)"><stop offset="0%" stop-color="#FFE4A7"/><stop offset="100%" stop-color="#FFC346"/></radialGradient><linearGradient id="c" x1="50%" x2="50%" y1="0%" y2="100%"><stop offset="0%" stop-color="#69F0FD"/><stop offset="100%" stop-color="#58ABE8"/></linearGradient><path id="b" d="M.02 4.478c-.013 1.26.533 1.915 1.082 2.255.344.214.728.321 1.113.323h.017c.371-.002.742-.102 1.078-.301.556-.33 1.114-.974 1.127-2.234C4.46 2.001 2.272.023 2.272.023S.044 1.958.019 4.478"/></defs><g fill="none" fill-rule="evenodd"><path fill="url(#a)" d="M12 1.2C6.035 1.2 1.2 6.035 1.2 12c0 5.965 4.835 10.8 10.8 10.8 5.965 0 10.8-4.835 10.8-10.8 0-5.965-4.835-10.8-10.8-10.8Z"/><g fill="#522718"><path d="M4.058 10.489c-.003-.004.018-.007.029-.01l.043-.01.09-.021.186-.042c.124-.029.246-.063.365-.098.238-.071.465-.152.67-.255.208-.101.394-.224.566-.365.173-.143.323-.313.478-.505l.039-.048a.661.661 0 0 1 1.141.626c-.12.358-.32.702-.584.994-.26.295-.583.534-.924.709a3.499 3.499 0 0 1-2.028.362l-.072-.011-.087-.015a.657.657 0 1 1 .088-1.311M17.123 11.8l-.087.015-.072.011a3.423 3.423 0 0 1-.96-.014 3.496 3.496 0 0 1-1.067-.348 3.175 3.175 0 0 1-.925-.71 2.848 2.848 0 0 1-.584-.993.661.661 0 0 1 1.14-.627l.04.05c.155.191.306.361.478.504.173.141.358.264.566.365.206.103.432.184.67.255.12.035.242.07.365.098.062.014.125.03.186.042l.09.02.044.01c.01.004.032.007.028.011a.657.657 0 0 1 .088 1.31M8.272 14.116a1.627 1.627 0 1 1-3.255 0 1.627 1.627 0 0 1 3.255 0M16.397 14.116a1.627 1.627 0 1 1-3.255 0 1.627 1.627 0 0 1 3.255 0"/></g><g transform="translate(14.016 16.289)"><mask id="d" fill="#fff"><use xlink:href="#b"/></mask><path fill="url(#c)" d="M.02 4.478c-.013 1.26.533 1.915 1.082 2.255.344.214.728.321 1.113.323h.017c.371-.002.742-.102 1.078-.301.556-.33 1.114-.974 1.127-2.234C4.46 2.001 2.272.023 2.272.023S.044 1.958.019 4.478" mask="url(#d)"/></g><path fill="#522718" d="M12.595 19.613H9.149a.579.579 0 0 1-.528-.814c.288-.656.92-1.47 2.284-1.47 1.394 0 1.985.85 2.234 1.513a.576.576 0 0 1-.544.771"/></g></svg>