<svg xmlns="http://www.w3.org/2000/svg" width="26" height="24"><path fill="#FFF" fill-rule="nonzero" d="M8.025 23h-2v-2h2v2Zm0-20h-2V1h2v2Zm4 20h-2v-2h2v2Zm0-20h-2V1h2v2Zm4 20h-2v-2h2v2Zm0-20h-2V1h2v2Zm4 20h-2v-2h2v2Zm0-20h-2V1h2v2ZM2.007 7h-2v2l2 .001v-2ZM26 7h-2v2l2 .001v-2ZM2.007 11h-2v2l2 .001v-2ZM26 11h-2v2l2 .001v-2ZM2.007 15h-2v2l2 .001v-2ZM26 15h-2v2l2 .001v-2ZM0 3.391v1.624h2V3.99c0-.528.474-.983 1.006-.983H4V1H2.406a2.4 2.4 0 0 0-2.4 2.234L0 3.391Zm0 17.233V19h2v1.002c0 .528.445 1.005.977 1.005H4v2.008H2.406a2.4 2.4 0 0 1-2.4-2.234L0 20.624ZM26 3.993v1.022h-2V3.993c0-.528-.461-.986-.993-.986H22V1h1.594a2.4 2.4 0 0 1 2.4 2.234l.006.759Zm0 16.63V19h-2v1.002c0 .528-.452 1.005-.983 1.005H22v2.008h1.594a2.4 2.4 0 0 0 2.4-2.234l.006-.157Z" opacity=".5"/></svg>