<svg xmlns="http://www.w3.org/2000/svg" width="26" height="24"><path fill="#FFF" fill-rule="nonzero" d="M8 23H6v-2.5h2V23ZM8 3.5H6V1h2v2.5ZM12 23h-2v-2.5h2V23Zm0-19.5h-2V1h2v2.5ZM16 23h-2v-2.5h2V23Zm0-19.5h-2V1h2v2.5ZM20 23h-2v-2.5h2V23Zm0-19.5h-2V1h2v2.5ZM2.507 7h-2.5v2l2.5.001v-2ZM26 7h-2.5v2l2.5.001v-2ZM2.507 11h-2.5v2l2.5.001v-2ZM26 11h-2.5v2l2.5.001v-2ZM2.507 15h-2.5v2l2.5.001v-2ZM26 15h-2.5v2l2.5.001v-2ZM0 3.391v1.624h2.5V3.99c0-.487.505-.487.506-.487H4V1H2.406a2.4 2.4 0 0 0-2.4 2.234L0 3.391Zm0 17.233V19h2.5v1.002c0 .498.477.498.477.498H4v2.515H2.406a2.4 2.4 0 0 1-2.4-2.234L0 20.624ZM26 3.989v1.018h-2.5V3.99s0-.49-.493-.49H22V1.006h1.594c1.276 0 2.32.983 2.4 2.226L26 3.99Zm0 16.635V19h-2.5v1.002c0 .498-.493.498-.483.498H22v2.515h1.594a2.4 2.4 0 0 0 2.4-2.234l.006-.157Z"/></svg>