<svg xmlns="http://www.w3.org/2000/svg" width="24" height="24"><g fill="none" fill-rule="nonzero" opacity=".5" transform="translate(1 3)"><path fill="#FFF" d="M3.25 3a.75.75 0 0 1 0 1.5H.75a.75.75 0 0 1 0-1.5h2.5Zm18 0a.75.75 0 1 1 0 1.5H9.75a.75.75 0 0 1 0-1.5h11.5ZM12.25 13a.75.75 0 1 1 0 1.5H.75a.75.75 0 1 1 0-1.5h11.5Zm9 0a.75.75 0 1 1 0 1.5h-2.5a.75.75 0 1 1 0-1.5Z"/><circle cx="15.5" cy="13.5" r="2.75" stroke="#FFF" stroke-width="1.5"/><circle cx="6.5" cy="3.5" r="2.75" stroke="#FFF" stroke-width="1.5"/></g></svg>