<svg xmlns="http://www.w3.org/2000/svg" width="17" height="14"><g fill="#4D4D4D" fill-rule="evenodd"><path d="M15.994 0C16.55 0 17 .45 17 1.006v11.988C17 13.55 16.55 14 15.994 14H1.006C.45 14 0 13.55 0 12.994V1.006C0 .45.45 0 1.006 0h14.988ZM16 1H1v12h15V1Z"/><path d="m12.811 4 .055.01a.184.184 0 0 1 .122.174L13 9.815a.184.184 0 0 1-.181.185.18.18 0 0 1-.142-.07l-2.092-2.678a.187.187 0 0 1-.04-.115v-.274c0-.042.014-.082.04-.115l2.08-2.678a.178.178 0 0 1 .201-.06Zm-3.04 0c.1 0 .181.082.181.184v5.627a.183.183 0 0 1-.18.185h-4.98A.8.8 0 0 1 4 9.189V4.812C4 4.364 4.357 4 4.796 4Z"/></g></svg>