<svg xmlns="http://www.w3.org/2000/svg" width="1376" height="352"><path fill-rule="evenodd" d="M325.358 333.564a127.895 127.895 0 0 0 4.196-4.01C362.166 296.942 376 247.984 376 176S362.166 55.058 329.554 22.446a127.98 127.98 0 0 0-3.38-3.259C352.58 6.096 387.355 0 432 0c129.556 0 176 46.444 176 176 0 129.556-46.444 176-176 176-45.106 0-80.137-5.63-106.642-18.436zm256 0a127.895 127.895 0 0 0 4.196-4.01C618.166 296.942 632 247.984 632 176S618.166 55.058 585.554 22.446a127.98 127.98 0 0 0-3.38-3.259C608.58 6.096 643.355 0 688 0c129.556 0 176 46.444 176 176 0 129.556-46.444 176-176 176-45.106 0-80.137-5.63-106.642-18.436zm256 0a127.895 127.895 0 0 0 4.196-4.01C874.166 296.942 888 247.984 888 176S874.166 55.058 841.554 22.446a127.98 127.98 0 0 0-3.38-3.259C864.58 6.096 899.355 0 944 0c129.556 0 176 46.444 176 176 0 129.556-46.444 176-176 176-45.106 0-80.137-5.63-106.642-18.436zm256 0a127.894 127.894 0 0 0 4.196-4.01C1130.166 296.942 1144 247.984 1144 176s-13.834-120.942-46.446-153.554a127.973 127.973 0 0 0-3.38-3.259C1120.58 6.096 1155.355 0 1200 0c129.556 0 176 46.444 176 176 0 129.556-46.444 176-176 176-45.106 0-80.137-5.63-106.642-18.436zM352 176c0 129.556-46.444 176-176 176C46.444 352 0 305.556 0 176 0 51.333 46.444 0 176 0c129.556 0 176 46.444 176 176z"/></svg>