<svg width="132" height="132" viewBox="0 0 132 132" fill="none" xmlns="http://www.w3.org/2000/svg">
<path fill-rule="evenodd" clip-rule="evenodd" d="M13.8418 115.764C14.1966 116.148 14.5584 116.525 14.9274 116.894C25.2883 127.255 41.5295 132 65.8211 132C90.1128 132 106.354 127.255 116.715 116.894C127.076 106.533 131.821 90.2917 131.821 66C131.821 41.7083 127.076 25.4672 116.715 15.1062C106.354 4.7453 90.1128 0 65.8211 0C41.765 0 25.5886 5.08035 15.2081 15.4608C14.8217 15.8472 14.443 16.2413 14.0719 16.6432C20.7129 28.5278 23.8211 44.6273 23.8211 66C23.8211 87.6181 20.6411 103.841 13.8418 115.764Z" fill="black"/>
</svg>
