<svg xmlns="http://www.w3.org/2000/svg" width="384" height="384"><path fill="#000" fill-rule="evenodd" d="M184 92c0 67.722-24.278 92-92 92-67.722 0-92-24.278-92-92C0 26.833 24.278 0 92 0c67.722 0 92 24.278 92 92Zm0 200c0 67.722-24.278 92-92 92-67.722 0-92-24.278-92-92 0-65.167 24.278-92 92-92 67.722 0 92 24.278 92 92ZM384 92c0 67.722-24.278 92-92 92-67.722 0-92-24.278-92-92 0-65.167 24.278-92 92-92 67.722 0 92 24.278 92 92Zm0 200c0 67.722-24.278 92-92 92-67.722 0-92-24.278-92-92 0-65.167 24.278-92 92-92 67.722 0 92 24.278 92 92Z"/></svg>