<svg xmlns="http://www.w3.org/2000/svg" width="384" height="384"><path fill="#000" fill-rule="evenodd" d="M199.488 215.904c40.6-1.065 68.555-11.016 85.91-31.9C357.947 184.337 384 210.856 384 284c0 73.611-26.389 100-100 100s-100-26.389-100-100c0-29.731 4.65-52.122 15.488-68.096Zm-100.887-31.9c16.864 20.292 43.734 30.262 82.487 31.788C172.188 233.309 168 255.903 168 284c0 30.423 4.568 54.188 14.476 72.067C167.15 375.875 140.844 384 100 384 26.389 384 0 357.611 0 284c0-70.383 26.054-99.627 98.601-99.996ZM292 100c0 73.611-26.389 100-100 100S92 173.611 92 100C92 29.167 118.389 0 192 0s100 26.389 100 100Z"/></svg>