<svg width="16" height="16" viewBox="0 0 16 16" fill="none" xmlns="http://www.w3.org/2000/svg">
<path fill-rule="evenodd" clip-rule="evenodd" d="M1.04175 14.999H14.9136V13.9629H1.04175V14.999Z" fill="#4C4C4C"/>
<path d="M8 1C8.76821 1 9.39085 1.63326 9.39085 2.41458C9.39085 3.01943 9.01727 3.53571 8.49183 3.73773L8.49155 4.5769C12.1282 4.83347 15 7.91517 15 11.6791V12.9256H1V11.6791C1 7.92753 3.85298 4.85371 7.47266 4.57952L7.47259 3.7234C6.96612 3.51208 6.60915 3.00561 6.60915 2.41458C6.60915 1.63326 7.23225 1 8 1ZM8 5.59575C4.69664 5.59575 2.01874 8.31934 2.01874 11.6791V11.8887H13.9808L13.9813 11.6791C13.9813 8.3957 11.4237 5.71987 8.22424 5.59994L8 5.59575ZM5.82026 8.17326C6.32699 8.17326 6.73822 8.59104 6.73822 9.10689C6.73822 9.62274 6.32699 10.0405 5.82026 10.0405C5.3126 10.0405 4.90184 9.62274 4.90184 9.10689C4.90184 8.59104 5.3126 8.17326 5.82026 8.17326ZM10.1777 8.17326C10.6845 8.17326 11.0957 8.59104 11.0957 9.10689C11.0957 9.62274 10.6845 10.0405 10.1777 10.0405C9.67055 10.0405 9.25932 9.62274 9.25932 9.10689C9.25932 8.59104 9.67055 8.17326 10.1777 8.17326Z" fill="#4C4C4C"/>
</svg>
