<svg xmlns="http://www.w3.org/2000/svg" width="34" height="50"><g fill="none" fill-rule="evenodd"><path stroke="#000" stroke-width="2" d="M1 9h32v32H1z"/><path fill="#000" fill-rule="nonzero" d="M14.038 29v-8.455H12.28l-2.185 1.517v1.594l2.156-1.488h.035V29h1.752Zm2.965-5.326a.939.939 0 0 0 .943-.944.935.935 0 0 0-.943-.943.935.935 0 0 0-.943.943c0 .522.416.944.943.944Zm0 4.19a.939.939 0 0 0 .943-.944.935.935 0 0 0-.943-.943.935.935 0 0 0-.943.943c0 .521.416.943.943.943ZM23.132 29v-8.455h-1.758l-2.186 1.517v1.594l2.157-1.488h.035V29h1.752Z"/></g></svg>