<svg xmlns="http://www.w3.org/2000/svg" width="30" height="50"><g fill="none" fill-rule="evenodd"><path stroke="#000" stroke-width="2" d="M1 6h28v38H1z"/><path fill="#000" fill-rule="nonzero" d="M9.37 29.188c1.95 0 3.327-1.008 3.327-2.526 0-1.172-.814-1.933-2.074-2.039v-.035c1.037-.188 1.746-.938 1.746-1.975 0-1.353-1.201-2.256-2.959-2.256-1.834 0-3.053 1.02-3.117 2.584h1.629c.047-.738.592-1.224 1.412-1.224.879 0 1.365.451 1.365 1.137 0 .697-.545 1.177-1.353 1.177H8.32v1.278h1.043c.955 0 1.535.468 1.535 1.242 0 .715-.62 1.213-1.505 1.213-.932 0-1.518-.47-1.57-1.184H6.128c.082 1.559 1.33 2.608 3.24 2.608Zm5.525-5.514a.939.939 0 0 0 .943-.944.935.935 0 0 0-.943-.943.935.935 0 0 0-.944.943c0 .522.416.944.944.944Zm0 4.19a.939.939 0 0 0 .943-.944.935.935 0 0 0-.943-.943.935.935 0 0 0-.944.943c0 .521.416.943.944.943ZM22.869 29v-1.506h1.102v-1.418h-1.102v-5.531h-2.496c-1.734 2.555-2.654 4.037-3.393 5.443v1.506h4.207V29h1.682Zm-1.646-2.871h-2.69v-.047c.686-1.324 1.424-2.478 2.654-4.283h.036v4.33Z"/></g></svg>