<svg xmlns="http://www.w3.org/2000/svg" width="36" height="36" fill="none"><path fill="#000" fill-opacity=".7" fill-rule="evenodd" d="M18.935 8.556v4.17h1.3v-4.17h-1.3Zm4.302 8.472h4.176v-1.3h-4.176v1.3Zm-11.475-1.3h4.17v1.3h-4.17v-1.3Zm7.173 4.302v4.17h1.3v-4.17h-1.3Zm-2.368-5.73-2.946-2.947.92-.92 2.946 2.947-.92.92Zm6.087 0 2.947-2.947-.92-.92-2.946 2.947.92.92ZM8.567 26.546l7.999-7.999.919.92-7.999 7.998-.92-.92Zm13.168-7.08 2.947 2.947.919-.92-2.947-2.946-.919.92Z" clip-rule="evenodd"/></svg>