<svg xmlns="http://www.w3.org/2000/svg" width="40" height="50"><g fill-rule="evenodd"><path d="M2 38v2h2v2H0v-4h2Zm8 2v2H6v-2h4Zm6 0v2h-4v-2h4Zm6 0v2h-4v-2h4Zm6 0v2h-4v-2h4Zm6 0v2h-4v-2h4Zm2 2v-2h2v-2h2v4h-4ZM2 32v4H0v-4h2Zm38 0v4h-2v-4h2ZM2 26v4H0v-4h2Zm38 0v4h-2v-4h2ZM2 20v4H0v-4h2Zm38 0v4h-2v-4h2ZM2 14v4H0v-4h2Zm38 0v4h-2v-4h2ZM4 8v2H2v2H0V8h4Zm36 0v4h-2v-2h-2V8h4ZM10 8v2H6V8h4Zm6 0v2h-4V8h4Zm6 0v2h-4V8h4Zm6 0v2h-4V8h4Zm6 0v2h-4V8h4Z"/><path fill-rule="nonzero" d="M18.482 29.869v-4.961h1.397v-1.067h-1.397v-3.773h-1.287v9.801h1.287Zm-7.194-2.068c1.144-.561 2.134-1.87 2.376-2.871.286.946 1.452 2.211 2.354 2.662l.715-.935c-1.474-.814-2.42-2.211-2.42-4.279v-.253h1.914v-1.056h-5.225v1.056h1.98v.264c0 2.057-.858 3.564-2.486 4.455l.792.957Zm13.453-2.937c2.123 0 3.487-.88 3.487-2.178 0-1.287-1.364-2.167-3.487-2.167-2.112 0-3.476.88-3.476 2.167 0 1.298 1.364 2.178 3.476 2.178Zm0-1.034c-1.331 0-2.145-.495-2.145-1.144 0-.649.814-1.133 2.145-1.133 1.32 0 2.145.484 2.145 1.133s-.825 1.144-2.145 1.144Zm-1.045 6.028v-3.267h2.079v3.267h1.287v-3.267h2.123v-1.023H20.33v1.023h2.079v3.267h1.287Z"/></g></svg>