<svg xmlns="http://www.w3.org/2000/svg" width="40" height="50"><g fill="none" fill-rule="evenodd"><path stroke="#000" stroke-width="2" d="M1 11h38v28H1z"/><path fill="#000" fill-rule="nonzero" d="M16.977 29v-1.506h1.101v-1.418h-1.101v-5.531H14.48c-1.734 2.555-2.654 4.037-3.392 5.443v1.506h4.207V29h1.682Zm-1.647-2.871h-2.69v-.047c.686-1.324 1.424-2.478 2.655-4.283h.035v4.33Zm4.781-2.455a.939.939 0 0 0 .944-.944.935.935 0 0 0-.944-.943.935.935 0 0 0-.943.943c0 .522.416.944.943.944Zm0 4.19a.939.939 0 0 0 .944-.944.935.935 0 0 0-.944-.943.935.935 0 0 0-.943.943c0 .521.416.943.943.943Zm5.368 1.323c1.95 0 3.328-1.007 3.328-2.525 0-1.172-.815-1.933-2.075-2.039v-.035c1.038-.188 1.747-.938 1.747-1.975 0-1.353-1.202-2.256-2.96-2.256-1.833 0-3.052 1.02-3.117 2.584h1.63c.046-.738.591-1.224 1.411-1.224.88 0 1.366.451 1.366 1.137 0 .697-.545 1.177-1.354 1.177H24.43v1.278h1.043c.955 0 1.535.468 1.535 1.242 0 .715-.621 1.213-1.506 1.213-.932 0-1.518-.47-1.57-1.184h-1.694c.082 1.559 1.33 2.608 3.24 2.608Z"/></g></svg>