<svg xmlns="http://www.w3.org/2000/svg" width="40" height="50"><g fill-rule="evenodd"><path d="M2 38v2h2v2H0v-4h2Zm8 2v2H6v-2h4Zm6 0v2h-4v-2h4Zm6 0v2h-4v-2h4Zm6 0v2h-4v-2h4Zm6 0v2h-4v-2h4Zm2 2v-2h2v-2h2v4h-4ZM2 32v4H0v-4h2Zm38 0v4h-2v-4h2ZM2 26v4H0v-4h2Zm38 0v4h-2v-4h2ZM2 20v4H0v-4h2Zm38 0v4h-2v-4h2ZM2 14v4H0v-4h2Zm38 0v4h-2v-4h2ZM4 8v2H2v2H0V8h4Zm36 0v4h-2v-2h-2V8h4ZM10 8v2H6V8h4Zm6 0v2h-4V8h4Zm6 0v2h-4V8h4Zm6 0v2h-4V8h4Zm6 0v2h-4V8h4Z"/><path fill-rule="nonzero" d="M11.343 28.549V25.37h2.552v-1.045h-2.552V22.07h3.278v-1.067H9.99v7.546h1.353Zm5.742 0v-4.213c.363-.231.869-.374 1.375-.374.132 0 .319.011.462.033v-1.122a1.288 1.288 0 0 0-.352-.033c-.594 0-1.177.297-1.485.704h-.044v-.66H15.82v5.665h1.265Zm5.368.099c.957 0 1.617-.275 2.002-.528v-.88a3.635 3.635 0 0 1-1.749.418c-1.078 0-1.683-.418-1.76-1.595h3.696v-.528c0-1.804-.726-2.739-2.398-2.739-1.441 0-2.596.935-2.596 2.838v.154c0 1.793.924 2.86 2.805 2.86Zm.902-3.454h-2.409c.088-1.155.693-1.463 1.276-1.463.737 0 1.133.396 1.133 1.463Zm4.939 3.454c.957 0 1.617-.275 2.002-.528v-.88a3.635 3.635 0 0 1-1.749.418c-1.078 0-1.683-.418-1.76-1.595h3.696v-.528c0-1.804-.726-2.739-2.398-2.739-1.441 0-2.596.935-2.596 2.838v.154c0 1.793.924 2.86 2.805 2.86Zm.902-3.454h-2.409c.088-1.155.693-1.463 1.276-1.463.737 0 1.133.396 1.133 1.463Z"/></g></svg>