<svg xmlns="http://www.w3.org/2000/svg" width="36" height="36" fill="none"><g clip-path="url(#a)"><circle cx="18" cy="18" r="18" fill="#000" fill-opacity=".03"/><path stroke="#000" stroke-opacity=".7" stroke-width="1.3" d="M18 8.5a9.47 9.47 0 0 1 6.718 2.783A9.47 9.47 0 0 1 27.5 18a9.47 9.47 0 0 1-2.782 6.718A9.47 9.47 0 0 1 18 27.5a9.47 9.47 0 0 1-6.717-2.782A9.47 9.47 0 0 1 8.5 18a9.47 9.47 0 0 1 2.783-6.717A9.47 9.47 0 0 1 18 8.5Z"/><path fill="#000" fill-opacity=".7" fill-rule="evenodd" d="M21.422 19.353a.667.667 0 0 1 .46.826c-.456 1.577-2.09 2.679-3.975 2.679-1.883 0-3.518-1.101-3.973-2.677a.67.67 0 0 1 1.29-.37c.286.992 1.415 1.711 2.683 1.711 1.27 0 2.399-.72 2.685-1.711a.67.67 0 0 1 .83-.458Zm-3.032-2.57a.623.623 0 0 1-.429.771c-.125.036-.254.22-.254.464 0 .245.13.429.255.465a.623.623 0 1 1-.346 1.197c-.684-.195-1.16-.879-1.16-1.662 0-.782.476-1.466 1.159-1.661a.627.627 0 0 1 .775.426Zm-4.25-2.306c.492 0 .895.4.895.89v.814c0 .49-.403.89-.895.89h-.03a.895.895 0 0 1-.894-.89v-.814c0-.49.403-.89.895-.89h.03Zm7.513 0c.492 0 .894.4.894.89v.814c0 .49-.402.89-.894.89h-.03a.895.895 0 0 1-.894-.89v-.814c0-.49.402-.89.894-.89h.03Z" clip-rule="evenodd"/></g><defs><clipPath id="a"><path fill="#fff" d="M0 0h36v36H0z"/></clipPath></defs></svg>