<svg xmlns="http://www.w3.org/2000/svg" width="16" height="16"><path fill="#000" fill-rule="nonzero" d="m11.544 3 .555.55-4.043 4.004 1.9 1.881c.31-.204.681-.325 1.08-.325 1.08 0 1.964.875 1.964 1.945S12.116 13 11.036 13s-1.965-.875-1.965-1.945c0-.395.123-.762.329-1.07l-1.9-1.88-1.9 1.88c.206.308.329.675.329 1.07 0 1.07-.885 1.945-1.965 1.945S2 12.125 2 11.055 2.884 9.11 3.964 9.11c.399 0 .77.121 1.08.325L11.545 3ZM3.456 3l3.488 3.454-.555.55L2.901 3.55 3.456 3Zm7.58 6.888a1.167 1.167 0 1 0 0 2.334 1.167 1.167 0 1 0 0-2.334Zm-7.072 0a1.167 1.167 0 1 0 0 2.334 1.167 1.167 0 1 0 0-2.334Z"/></svg>