<svg xmlns="http://www.w3.org/2000/svg" width="80" height="20"><g fill="none" fill-rule="evenodd"><g fill="#D8484D" opacity=".5"><path fill-rule="nonzero" d="m12.433 12.55-.327-1.306a2.9 2.9 0 1 0-4.212 0l-.326 1.307a4.1 4.1 0 1 1 4.865 0Zm.884 3.54-.298-1.195a6.4 6.4 0 1 0-6.037 0l-.3 1.195a7.6 7.6 0 1 1 6.634 0Z"/><path d="M9.4 18h1.2V9.5H9.4z"/></g><g fill="#AC393D" opacity=".5"><path fill-rule="nonzero" d="m32.433 12.55-.327-1.306a2.9 2.9 0 1 0-4.212 0l-.326 1.307a4.1 4.1 0 1 1 4.865 0Zm.884 3.54-.298-1.195a6.4 6.4 0 1 0-6.037 0l-.3 1.195a7.6 7.6 0 1 1 6.634 0Z"/><path d="M29.4 18h1.2V9.5h-1.2z"/></g><g fill="#E7494F" opacity=".1"><path fill-rule="nonzero" d="m52.433 12.55-.327-1.306a2.9 2.9 0 1 0-4.212 0l-.326 1.307a4.1 4.1 0 1 1 4.865 0Zm.884 3.54-.298-1.195a6.4 6.4 0 1 0-6.037 0l-.3 1.195a7.6 7.6 0 1 1 6.634 0Z"/><path d="M49.4 18h1.2V9.5h-1.2z"/></g><g fill="#AC393D" opacity=".5"><path d="m72.433 12.55-.327-1.306a2.9 2.9 0 1 0-4.212 0l-.326 1.307a4.1 4.1 0 1 1 4.865 0Zm.884 3.54-.298-1.195a6.4 6.4 0 1 0-6.037 0l-.3 1.195a7.6 7.6 0 1 1 6.634 0Z"/><path d="M69.4 18h1.2V9.5h-1.2z"/></g></g></svg>