<svg xmlns="http://www.w3.org/2000/svg" width="60" height="61"><g fill="none" fill-rule="evenodd" opacity=".8"><path d="M0 1h60v60H0z"/><g fill="#FFF"><path fill-rule="nonzero" d="m35.352 38.181-.803-3a8.5 8.5 0 1 0-9.097 0l-.804 3A11.499 11.499 0 0 1 18.5 28c0-6.351 5.149-11.5 11.5-11.5S41.5 21.649 41.5 28c0 4.419-2.492 8.256-6.148 10.181Zm2.623 9.791-.783-2.922C43.837 42.244 48.5 35.666 48.5 28c0-10.217-8.283-18.5-18.5-18.5S11.5 17.783 11.5 28c0 7.666 4.663 14.244 11.308 17.05l-.783 2.922C14.1 44.805 8.5 37.056 8.5 28 8.5 16.126 18.126 6.5 30 6.5S51.5 16.126 51.5 28c0 9.056-5.6 16.805-13.525 19.972Z"/><path d="M28.5 54h3V29h-3z"/></g></g></svg>