<svg xmlns="http://www.w3.org/2000/svg" width="384" height="48"><g fill="none" fill-rule="evenodd"><g fill-rule="nonzero"><circle cx="24" cy="24" r="24" fill="#FFF" fill-opacity=".9"/><path d="M12 12h24v24H12z"/><g stroke="#444" stroke-width="1.4" transform="translate(16 15.2)"><rect width="7" height="12" x="4.5" rx="3.5"/><path stroke-linecap="round" d="M15.5 8c0 4.418-3.358 8-7.5 8C3.858 16 .5 12.418.5 8M8 16.277v2.6"/></g></g><g fill-rule="nonzero" transform="translate(48)"><circle cx="24" cy="24" r="24" fill="#BCBCBC" fill-opacity=".9"/><path d="M12 12h24v24H12z"/><g stroke="#444" stroke-width="1.4" transform="translate(16 15.2)"><rect width="7" height="12" x="4.5" rx="3.5"/><path stroke-linecap="round" d="M15.5 8c0 4.418-3.358 8-7.5 8C3.858 16 .5 12.418.5 8M8 16.277v2.6"/></g></g><g fill-rule="nonzero" transform="translate(144)"><circle cx="24" cy="24" r="24" fill="#BCBCBC" fill-opacity=".9"/><path d="M12 12h24v24H12z"/><g stroke="#444" stroke-width="1.4" transform="translate(16 15.2)"><rect width="7" height="12" x="4.5" rx="3.5"/><path stroke-linecap="round" d="M15.5 8c0 4.418-3.358 8-7.5 8C3.858 16 .5 12.418.5 8M8 16.277v2.6"/></g></g><g transform="translate(192)"><circle cx="24" cy="24" r="24" fill="#6E6E73" fill-opacity=".9" fill-rule="nonzero"/><g opacity=".8"><path d="M12 12h24v24H12z"/><g fill="#FFF" fill-rule="nonzero"><path d="m18.225 29.377.94-1.044C20.399 29.672 22.112 30.5 24 30.5c3.745 0 6.8-3.259 6.8-7.3a.7.7 0 0 1 1.4 0c0 4.546-3.29 8.292-7.5 8.669v2.208a.7.7 0 0 1-1.4 0v-2.208c-1.976-.177-3.75-1.096-5.075-2.492Zm-.889-1.106A9.027 9.027 0 0 1 15.8 23.2a.7.7 0 0 1 1.4 0 7.65 7.65 0 0 0 1.107 3.993l-.97 1.078Zm10.38-11.529-1.034 1.15a2.801 2.801 0 0 0-5.482.808v5c0 .09.004.179.012.266l-1.128 1.254a4.19 4.19 0 0 1-.284-1.52v-5a4.2 4.2 0 0 1 7.917-1.958Zm.467 1.575c.011.126.017.254.017.383v5a4.2 4.2 0 0 1-7.358 2.77l.947-1.052A2.8 2.8 0 0 0 26.8 23.7v-3.847l1.383-1.536Z"/><path d="M32.587 14.468a.7.7 0 0 1 .052.989l-17.13 19.024a.7.7 0 0 1-1.04-.936l17.13-19.025a.7.7 0 0 1 .988-.052Z"/></g></g></g><g fill-rule="nonzero" transform="translate(240)"><circle cx="24" cy="24" r="24" fill="#4B4B50" fill-opacity=".9"/><g opacity=".8"><path d="M12 12h24v24H12z"/><g fill="#FFF"><path d="m18.225 29.377.94-1.044C20.399 29.672 22.112 30.5 24 30.5c3.745 0 6.8-3.259 6.8-7.3a.7.7 0 0 1 1.4 0c0 4.546-3.29 8.292-7.5 8.669v2.208a.7.7 0 0 1-1.4 0v-2.208c-1.976-.177-3.75-1.096-5.075-2.492Zm-.889-1.106A9.027 9.027 0 0 1 15.8 23.2a.7.7 0 0 1 1.4 0 7.65 7.65 0 0 0 1.107 3.993l-.97 1.078Zm10.38-11.529-1.034 1.15a2.801 2.801 0 0 0-5.482.808v5c0 .09.004.179.012.266l-1.128 1.254a4.19 4.19 0 0 1-.284-1.52v-5a4.2 4.2 0 0 1 7.917-1.958Zm.467 1.575c.011.126.017.254.017.383v5a4.2 4.2 0 0 1-7.358 2.77l.947-1.052A2.8 2.8 0 0 0 26.8 23.7v-3.847l1.383-1.536Z"/><path d="M32.587 14.468a.7.7 0 0 1 .052.989l-17.13 19.024a.7.7 0 0 1-1.04-.936l17.13-19.025a.7.7 0 0 1 .988-.052Z"/></g></g></g><g fill-rule="nonzero" transform="translate(336)"><circle cx="24" cy="24" r="24" fill="#4B4B50" fill-opacity=".9"/><g opacity=".8"><path d="M12 12h24v24H12z"/><g fill="#FFF"><path d="m18.225 29.377.94-1.044C20.399 29.672 22.112 30.5 24 30.5c3.745 0 6.8-3.259 6.8-7.3a.7.7 0 0 1 1.4 0c0 4.546-3.29 8.292-7.5 8.669v2.208a.7.7 0 0 1-1.4 0v-2.208c-1.976-.177-3.75-1.096-5.075-2.492Zm-.889-1.106A9.027 9.027 0 0 1 15.8 23.2a.7.7 0 0 1 1.4 0 7.65 7.65 0 0 0 1.107 3.993l-.97 1.078Zm10.38-11.529-1.034 1.15a2.801 2.801 0 0 0-5.482.808v5c0 .09.004.179.012.266l-1.128 1.254a4.19 4.19 0 0 1-.284-1.52v-5a4.2 4.2 0 0 1 7.917-1.958Zm.467 1.575c.011.126.017.254.017.383v5a4.2 4.2 0 0 1-7.358 2.77l.947-1.052A2.8 2.8 0 0 0 26.8 23.7v-3.847l1.383-1.536Z"/><path d="M32.587 14.468a.7.7 0 0 1 .052.989l-17.13 19.024a.7.7 0 0 1-1.04-.936l17.13-19.025a.7.7 0 0 1 .988-.052Z"/></g></g></g></g></svg>