<svg xmlns="http://www.w3.org/2000/svg" width="112" height="28"><g fill="none" fill-rule="evenodd" stroke="#FFF" stroke-width="1.4"><g opacity=".6"><path stroke-linecap="round" d="M5 20.3h18"/><path stroke-linejoin="round" d="M8 20.5 9.863 9.138a1 1 0 0 1 .986-.838h6.302a1 1 0 0 1 .986.838L20 20.5"/><g stroke-linecap="round"><path d="M2.182 12.448h2.954M22.864 12.448h2.954M5.629 4.127 7.724 6.21M14 .7v2.955M20.275 6.207l2.098-2.08"/></g></g><g opacity=".4"><path stroke-linecap="round" d="M33 20.3h18"/><path stroke-linejoin="round" d="m36 20.5 1.863-11.362a1 1 0 0 1 .986-.838h6.302a1 1 0 0 1 .986.838L48 20.5"/><g stroke-linecap="round"><path d="M30.182 12.448h2.954M50.864 12.448h2.954M33.629 4.127l2.095 2.083M42 .7v2.955M48.275 6.207l2.098-2.08"/></g></g><g opacity=".6"><path stroke-linecap="round" d="M89 20.3h18"/><path stroke-linejoin="round" d="m92 20.5 1.863-11.362a1 1 0 0 1 .986-.838h6.302a1 1 0 0 1 .986.838L104 20.5"/><g stroke-linecap="round"><path d="M86.182 12.448h2.954M106.864 12.448h2.954M89.629 4.127l2.095 2.083M98 .7v2.955M104.275 6.207l2.098-2.08"/></g></g></g></svg>