<svg xmlns="http://www.w3.org/2000/svg" width="384" height="48"><g fill="none" fill-rule="evenodd"><g fill-rule="nonzero"><circle cx="24" cy="24" r="24" fill="#FFF" fill-opacity=".9"/><g stroke="#444" stroke-linecap="round" stroke-linejoin="round" stroke-width="1.4"><path d="M22.003 16.544 19 19.704h-5.3v8.6h5.296l3.006 3.158a1 1 0 0 0 1.725-.69v-13.54a1 1 0 0 0-1.725-.688ZM28.3 19.682a6.171 6.171 0 0 1 0 8.727M31.573 17.5a9.257 9.257 0 0 1 0 13.09"/></g></g><g fill-rule="nonzero" transform="translate(48)"><circle cx="24" cy="24" r="24" fill="#BCBCBC" fill-opacity=".9"/><g stroke="#444" stroke-linecap="round" stroke-linejoin="round" stroke-width="1.4"><path d="M22.003 16.544 19 19.704h-5.3v8.6h5.296l3.006 3.158a1 1 0 0 0 1.725-.69v-13.54a1 1 0 0 0-1.725-.688ZM28.3 19.682a6.171 6.171 0 0 1 0 8.727M31.573 17.5a9.257 9.257 0 0 1 0 13.09"/></g></g><g fill-rule="nonzero" transform="translate(144)"><circle cx="24" cy="24" r="24" fill="#BCBCBC" fill-opacity=".9"/><g stroke="#444" stroke-linecap="round" stroke-linejoin="round" stroke-width="1.4"><path d="M22.003 16.544 19 19.704h-5.3v8.6h5.296l3.006 3.158a1 1 0 0 0 1.725-.69v-13.54a1 1 0 0 0-1.725-.688ZM28.3 19.682a6.171 6.171 0 0 1 0 8.727M31.573 17.5a9.257 9.257 0 0 1 0 13.09"/></g></g><g fill-rule="nonzero" transform="translate(192)"><circle cx="24" cy="24" r="24" fill="#6E6E73" fill-opacity=".9"/><g stroke="#FFF" stroke-linecap="round" stroke-linejoin="round" stroke-width="1.4" opacity=".8"><path d="M22.003 16.544 19 19.704h-5.3v8.6h5.296l3.006 3.158a1 1 0 0 0 1.725-.69v-13.54a1 1 0 0 0-1.725-.688ZM27.7 20.7l6.6 6.6M27.7 27.3l6.6-6.6"/></g></g><g fill-rule="nonzero" transform="translate(240)"><circle cx="24" cy="24" r="24" fill="#4B4B50" fill-opacity=".9"/><g stroke="#FFF" stroke-linecap="round" stroke-linejoin="round" stroke-width="1.4" opacity=".8"><path d="M22.003 16.544 19 19.704h-5.3v8.6h5.296l3.006 3.158a1 1 0 0 0 1.725-.69v-13.54a1 1 0 0 0-1.725-.688ZM27.7 20.7l6.6 6.6M27.7 27.3l6.6-6.6"/></g></g><g fill-rule="nonzero" transform="translate(336)"><circle cx="24" cy="24" r="24" fill="#4B4B50" fill-opacity=".9"/><g stroke="#FFF" stroke-linecap="round" stroke-linejoin="round" stroke-width="1.4" opacity=".8"><path d="M22.003 16.544 19 19.704h-5.3v8.6h5.296l3.006 3.158a1 1 0 0 0 1.725-.69v-13.54a1 1 0 0 0-1.725-.688ZM27.7 20.7l6.6 6.6M27.7 27.3l6.6-6.6"/></g></g></g></svg>