<svg xmlns="http://www.w3.org/2000/svg" xmlns:xlink="http://www.w3.org/1999/xlink" width="384" height="48"><defs><path id="a" d="M0 0h24v24H0z"/><path id="c" d="M0 0h24v24H0z"/><path id="e" d="M0 0h24v24H0z"/><path id="g" d="M0 0h24v24H0z"/><path id="i" d="M0 0h24v24H0z"/><path id="k" d="M0 0h24v24H0z"/></defs><g fill="none" fill-rule="evenodd"><g><circle cx="24" cy="24" r="24" fill="#FFF" fill-opacity=".9" fill-rule="nonzero"/><g transform="translate(12 12)"><mask id="b" fill="#fff"><use xlink:href="#a"/></mask><g fill-rule="nonzero" stroke="#444" stroke-width="1.4" mask="url(#b)"><g transform="translate(3.5 6)"><rect width="13" height="12" rx="1"/><path stroke-linejoin="round" d="M18.443 10.245 15.26 7.063a1.5 1.5 0 0 1 0-2.121l3.182-3.182v8.485Z"/></g></g></g></g><g transform="translate(48)"><circle cx="24" cy="24" r="24" fill="#BCBCBC" fill-opacity=".9" fill-rule="nonzero"/><g transform="translate(12 12)"><mask id="d" fill="#fff"><use xlink:href="#c"/></mask><g fill-rule="nonzero" stroke="#444" stroke-width="1.4" mask="url(#d)"><g transform="translate(3.5 6)"><rect width="13" height="12" rx="1"/><path stroke-linejoin="round" d="M18.443 10.245 15.26 7.063a1.5 1.5 0 0 1 0-2.121l3.182-3.182v8.485Z"/></g></g></g></g><g transform="translate(144)"><circle cx="24" cy="24" r="24" fill="#BCBCBC" fill-opacity=".9" fill-rule="nonzero"/><g transform="translate(12 12)"><mask id="f" fill="#fff"><use xlink:href="#e"/></mask><g fill-rule="nonzero" stroke="#444" stroke-width="1.4" mask="url(#f)"><g transform="translate(3.5 6)"><rect width="13" height="12" rx="1"/><path stroke-linejoin="round" d="M18.443 10.245 15.26 7.063a1.5 1.5 0 0 1 0-2.121l3.182-3.182v8.485Z"/></g></g></g></g><g transform="translate(192)"><circle cx="24" cy="24" r="24" fill="#6E6E73" fill-opacity=".9" fill-rule="nonzero"/><g opacity=".8" transform="translate(12 12)"><mask id="h" fill="#fff"><use xlink:href="#g"/></mask><g fill="#FFF" fill-rule="nonzero" mask="url(#h)"><path d="m14.715 5.3-1.26 1.4H4.5a.3.3 0 0 0-.3.3v9.978l-1.4 1.555V7a1.7 1.7 0 0 1 1.7-1.7h10.215Zm1.884 0h.601V17a1.7 1.7 0 0 1-1.7 1.7H4.533l1.26-1.4H15.5a.3.3 0 0 0 .3-.3V6.7h-.462l1.26-1.4Zm6.042 10.945a.7.7 0 0 1-1.195.495l-3.182-3.182a2.2 2.2 0 0 1 0-3.112l3.182-3.182a.7.7 0 0 1 1.195.495v8.486Zm-1.4-6.796-1.987 1.987a.8.8 0 0 0 0 1.132l1.987 1.987V9.449Z"/><path d="M20.087 2.468a.7.7 0 0 1 .052.989L3.009 22.481a.7.7 0 0 1-1.04-.936L19.098 2.52a.7.7 0 0 1 .988-.052Z"/></g></g></g><g transform="translate(240)"><circle cx="24" cy="24" r="24" fill="#4B4B50" fill-opacity=".9" fill-rule="nonzero"/><g opacity=".8" transform="translate(12 12)"><mask id="j" fill="#fff"><use xlink:href="#i"/></mask><g fill="#FFF" fill-rule="nonzero" mask="url(#j)"><path d="m14.715 5.3-1.26 1.4H4.5a.3.3 0 0 0-.3.3v9.978l-1.4 1.555V7a1.7 1.7 0 0 1 1.7-1.7h10.215Zm1.884 0h.601V17a1.7 1.7 0 0 1-1.7 1.7H4.533l1.26-1.4H15.5a.3.3 0 0 0 .3-.3V6.7h-.462l1.26-1.4Zm6.042 10.945a.7.7 0 0 1-1.195.495l-3.182-3.182a2.2 2.2 0 0 1 0-3.112l3.182-3.182a.7.7 0 0 1 1.195.495v8.486Zm-1.4-6.796-1.987 1.987a.8.8 0 0 0 0 1.132l1.987 1.987V9.449Z"/><path d="M20.087 2.468a.7.7 0 0 1 .052.989L3.009 22.481a.7.7 0 0 1-1.04-.936L19.098 2.52a.7.7 0 0 1 .988-.052Z"/></g></g></g><g transform="translate(336)"><circle cx="24" cy="24" r="24" fill="#4B4B50" fill-opacity=".9" fill-rule="nonzero"/><g opacity=".8" transform="translate(12 12)"><mask id="l" fill="#fff"><use xlink:href="#k"/></mask><g fill="#FFF" fill-rule="nonzero" mask="url(#l)"><path d="m14.715 5.3-1.26 1.4H4.5a.3.3 0 0 0-.3.3v9.978l-1.4 1.555V7a1.7 1.7 0 0 1 1.7-1.7h10.215Zm1.884 0h.601V17a1.7 1.7 0 0 1-1.7 1.7H4.533l1.26-1.4H15.5a.3.3 0 0 0 .3-.3V6.7h-.462l1.26-1.4Zm6.042 10.945a.7.7 0 0 1-1.195.495l-3.182-3.182a2.2 2.2 0 0 1 0-3.112l3.182-3.182a.7.7 0 0 1 1.195.495v8.486Zm-1.4-6.796-1.987 1.987a.8.8 0 0 0 0 1.132l1.987 1.987V9.449Z"/><path d="M20.087 2.468a.7.7 0 0 1 .052.989L3.009 22.481a.7.7 0 0 1-1.04-.936L19.098 2.52a.7.7 0 0 1 .988-.052Z"/></g></g></g></g></svg>