<svg xmlns="http://www.w3.org/2000/svg" width="28" height="28"><path fill="#FFF" fill-rule="nonzero" d="M4.842 15.14c0 5.058 4.1 9.158 9.158 9.158a.7.7 0 0 1 0 1.4c-5.162 0-9.459-3.704-10.377-8.6l-.03-.167-.965 1.195a.7.7 0 0 1-.9.163l-.085-.059a.701.701 0 0 1-.163-.9l.059-.084L3.597 14.7c.415-.513 1.245-.22 1.245.44zM14 2.3c5.162 0 9.459 3.704 10.377 8.6l.029.167.966-1.195a.702.702 0 0 1 .9-.163l.085.06c.273.22.336.604.163.898l-.059.086-2.058 2.545c-.415.514-1.245.22-1.245-.44C23.158 7.8 19.058 3.7 14 3.7a.7.7 0 1 1 0-1.4zM18 9a1 1 0 0 1 1 1v8a1 1 0 0 1-1 1h-8a1 1 0 0 1-1-1v-8a1 1 0 0 1 1-1h8zm-.4 1.4h-7.2v7.2h7.2v-7.2z"/></svg>