<svg xmlns="http://www.w3.org/2000/svg" width="20" height="20"><g fill="none" fill-rule="evenodd"><path d="M0 0h20v20H0z"/><path fill="#FAC916" fill-rule="nonzero" d="m9.033 3.032-1.777 3.6a.35.35 0 0 1-.263.192l-3.973.577a1.078 1.078 0 0 0-.598 1.838l2.876 2.803a.35.35 0 0 1 .1.309l-.679 3.957c-.15.881.775 1.552 1.565 1.136l3.554-1.868a.349.349 0 0 1 .325 0l3.553 1.869a1.078 1.078 0 0 0 1.565-1.136l-.658-3.833a.59.59 0 0 1 .17-.522l2.784-2.714c.64-.625.287-1.71-.597-1.84l-3.974-.576a.349.349 0 0 1-.262-.191l-1.777-3.601a1.078 1.078 0 0 0-1.934 0Z"/></g></svg>