<svg xmlns="http://www.w3.org/2000/svg" width="13" height="15"><g fill="#262626" fill-rule="evenodd"><path d="m12.938 7.09-1.203-.1v-.107A5.403 5.403 0 0 0 7.8 1.9L8.05.724a6.603 6.603 0 0 1 4.89 6.366ZM9.941 6.6c0 .082-.003.163-.01.243l-1.196-.1A1.9 1.9 0 0 0 7.2 4.733l.25-1.173A3.101 3.101 0 0 1 9.94 6.6ZM3.787 4.655l.931-.582c.428-.278.579-.835.302-1.24L3.51.527c-.276-.405-.905-.633-1.408-.48l-.805.404c-2.24 1.14-1.334 5.19.855 8.558 2.189 3.368 5.71 6.077 7.95 4.938l.78-.405c.402-.33.503-.912.226-1.342l-1.51-2.304c-.276-.406-.88-.583-1.383-.38l-1.031.43c-.478.203-1.107.026-1.384-.38l-2.315-3.67c-.276-.406-.125-.988.302-1.242Z"/></g></svg>