<svg xmlns="http://www.w3.org/2000/svg" width="20" height="20"><g fill="none" fill-rule="evenodd"><path d="M0 0h20v20H0z"/><path fill="#000" fill-rule="nonzero" d="m9.078 3.054-1.777 3.6a.4.4 0 0 1-.301.22l-3.972.576a1.028 1.028 0 0 0-.57 1.753l2.875 2.803a.4.4 0 0 1 .115.353l-.68 3.957c-.142.84.74 1.48 1.493 1.084l3.554-1.868a.399.399 0 0 1 .372 0L13.74 17.4a1.028 1.028 0 0 0 1.492-1.082l-.658-3.834a.64.64 0 0 1 .183-.565l2.785-2.715a1.028 1.028 0 0 0-.57-1.754L13 6.873a.399.399 0 0 1-.3-.218l-1.777-3.601a1.028 1.028 0 0 0-1.844 0Z" opacity=".3"/></g></svg>