<svg xmlns="http://www.w3.org/2000/svg" xmlns:xlink="http://www.w3.org/1999/xlink" width="24" height="24"><defs><path id="a" d="M0 0h12.187v15.234H0z"/><path id="c" d="M0 0h8.84v8.84H0z"/></defs><g fill="none" fill-rule="evenodd"><g transform="translate(5 3.631)"><mask id="b" fill="#fff"><use xlink:href="#a"/></mask><path fill="#000" fill-opacity=".55" d="M4.57 4.09c0-.978.698-1.805 1.524-1.805.825 0 1.523.827 1.523 1.805v1.242H4.57V4.09Zm6.284 3.07c.193 0 1.145-.019 1.333 0V5.331H9.902V4.09C9.902 1.835 8.194 0 6.094 0c-2.1 0-3.809 1.835-3.809 4.09v1.242H0v9.251c0 .36.283.651.632.651h5.78c-.66-1.05-.788-1.798-.788-3.225 0-2.303 2.755-4.85 5.23-4.85Z" mask="url(#b)"/></g><g transform="translate(12.005 12.16)"><mask id="d" fill="#fff"><use xlink:href="#c"/></mask><path fill="#000" fill-opacity=".55" d="M4.42 0C1.983 0 0 1.723 0 3.84c0 1.5.574 2.229 1.57 2.937l.004 1.733a.332.332 0 0 0 .53.265l1.552-1.152c.252.039.508.058.764.058 2.437 0 4.42-1.723 4.42-3.84C8.84 1.723 6.857 0 4.42 0" mask="url(#d)"/></g></g></svg>