<svg xmlns="http://www.w3.org/2000/svg" width="24" height="24" fill="none"><path stroke="#000" stroke-linejoin="round" stroke-width="1.1" d="M14.47 12a2.47 2.47 0 1 1-4.94 0 2.47 2.47 0 0 1 4.94 0Z" clip-rule="evenodd"/><path stroke="#000" stroke-linejoin="round" stroke-width="1.1" d="M18.084 12c0-.258-.019-.51-.052-.76L19 10.098a6.93 6.93 0 0 0-1.79-2.98l-1.51.236a6.133 6.133 0 0 0-1.369-.762l-.543-1.378a7.547 7.547 0 0 0-3.575 0l-.544 1.378a6.127 6.127 0 0 0-1.368.762L6.79 7.118A6.934 6.934 0 0 0 5 10.098l.969 1.142a5.686 5.686 0 0 0-.053.76c0 .258.02.51.053.76L5 13.902a6.935 6.935 0 0 0 1.79 2.98l1.51-.236a6.13 6.13 0 0 0 1.37.762l.543 1.378a7.567 7.567 0 0 0 3.575 0l.543-1.378a6.129 6.129 0 0 0 1.369-.762l1.51.236a6.93 6.93 0 0 0 1.79-2.98l-.968-1.142c.033-.25.052-.502.052-.76Z" clip-rule="evenodd"/></svg>