<svg xmlns="http://www.w3.org/2000/svg" width="24" height="24"><g fill="none" fill-rule="evenodd"><path stroke="#000" stroke-width="1.1" d="M12 4.05c2.195 0 4.183.89 5.621 2.329A7.925 7.925 0 0 1 19.95 12c0 2.195-.89 4.183-2.329 5.621A7.925 7.925 0 0 1 12 19.95a7.925 7.925 0 0 1-5.621-2.329A7.925 7.925 0 0 1 4.05 12c0-2.195.89-4.183 2.329-5.621A7.925 7.925 0 0 1 12 4.05Z"/><path fill="#000" d="M14.864 13.133c.298.085.47.394.384.69-.38 1.32-1.748 2.242-3.325 2.242-1.577 0-2.944-.921-3.326-2.24a.561.561 0 0 1 1.079-.31c.24.83 1.185 1.433 2.247 1.433 1.062 0 2.007-.603 2.246-1.433a.561.561 0 0 1 .695-.382Zm-2.538-2.151a.521.521 0 0 1-.358.645c-.105.03-.213.183-.213.388 0 .206.108.359.213.389a.521.521 0 1 1-.29 1.002c-.571-.163-.97-.735-.97-1.39 0-.656.398-1.227.97-1.391.278-.08.568.08.648.357ZM8.77 9.052c.412 0 .749.335.749.745v.681c0 .41-.337.745-.749.745h-.025a.749.749 0 0 1-.748-.745v-.681c0-.41.337-.745.748-.745h.025Zm6.287 0c.412 0 .748.335.748.745v.681c0 .41-.336.745-.748.745h-.025a.749.749 0 0 1-.748-.745v-.681c0-.41.336-.745.748-.745h.025Z"/></g></svg>