<svg xmlns="http://www.w3.org/2000/svg" width="16" height="16"><g fill="none" fill-rule="evenodd" stroke="#4C4C4C" stroke-linejoin="round" stroke-width="1.1"><path d="M5.42 5.464c-2.245 0-4.066 1.525-4.066 3.406 0 1.09.614 2.057 1.564 2.68v2.037l1.808-1.365c.226.033.457.053.694.053 2.246 0 4.066-1.524 4.066-3.405 0-1.881-1.82-3.406-4.066-3.406Z"/><path d="M4.923 5.565c.872-1.368 2.593-2.3 4.574-2.3 2.86 0 5.18 1.943 5.18 4.339 0 1.388-.782 2.62-1.992 3.414v2.595l-2.304-1.739a6.082 6.082 0 0 1-2.683-.2"/></g></svg>