<svg xmlns="http://www.w3.org/2000/svg" width="24" height="24" fill="none"><path fill="#000" fill-rule="evenodd" stroke="#000" stroke-width="1.1" d="m12.68 5.907 1.58 3.079c.11.214.323.364.57.399l3.52.5c.622.087.87.824.42 1.247l-2.543 2.402a.716.716 0 0 0-.218.646l.596 3.387c.105.597-.544 1.052-1.1.771l-3.153-1.594a.783.783 0 0 0-.704 0l-3.153 1.594c-.556.28-1.205-.174-1.1-.771l.596-3.387a.715.715 0 0 0-.217-.646l-2.545-2.402c-.449-.423-.201-1.16.42-1.248l3.521-.499a.759.759 0 0 0 .57-.4l1.58-3.078c.279-.543 1.08-.543 1.36 0Z" clip-rule="evenodd"/></svg>