<svg xmlns="http://www.w3.org/2000/svg" width="24" height="24" fill="none"><path fill="#000" fill-rule="evenodd" d="M12 5.143a5.143 5.143 0 0 0-5.143 5.143v2.411c0 .579-.048 1.158-.158 1.725-.124.64-.339 1.438-.699 2.07h6V5.142Zm0 0a5.143 5.143 0 0 1 5.143 5.143v2.411c0 .579.048 1.158.158 1.725.124.64.339 1.438.699 2.07h-6V5.142Zm2.143 11.571v-.222H9.857v.222a2.143 2.143 0 0 0 4.286 0Z" clip-rule="evenodd"/><path fill="#000" d="m6.699 14.422.54.105-.54-.105ZM6 16.492l-.478-.272a.55.55 0 0 0 .478.822v-.55Zm6 0v.55a.55.55 0 0 0 .55-.55H12Zm5.301-2.07-.54.105.54-.105Zm.699 2.07v.55a.55.55 0 0 0 .478-.822l-.478.272Zm-6 0h-.55c0 .304.247.55.55.55v-.55Zm2.143 0h.55a.55.55 0 0 0-.55-.55v.55Zm-4.286 0v-.55a.55.55 0 0 0-.55.55h.55Zm-2.45-6.206A4.593 4.593 0 0 1 12 5.693v-1.1a5.693 5.693 0 0 0-5.693 5.693h1.1Zm0 2.411v-2.411h-1.1v2.411h1.1Zm-.168 1.83a9.607 9.607 0 0 0 .168-1.83h-1.1a8.51 8.51 0 0 1-.148 1.62l1.08.21Zm-.761 2.237c.404-.71.633-1.577.76-2.237l-1.079-.21c-.12.62-.321 1.348-.637 1.903l.956.544Zm5.521-.822H6v1.1h6v-1.1Zm-.549-10.8v11.35h1.1V5.142h-1.1Zm6.243 5.144A5.693 5.693 0 0 0 12 4.593v1.1a4.593 4.593 0 0 1 4.593 4.593h1.1Zm0 2.411v-2.411h-1.1v2.411h1.1Zm.148 1.62a8.508 8.508 0 0 1-.148-1.62h-1.1c0 .609.05 1.223.168 1.83l1.08-.21Zm.637 1.903c-.316-.555-.517-1.283-.637-1.903l-1.08.21c.128.66.357 1.527.761 2.237l.956-.544ZM12 17.042h6v-1.1h-6v1.1Zm-.55-11.9v11.35h1.1V5.142h-1.1Zm2.143 11.35v.222h1.1v-.222h-1.1Zm-3.736.55h4.286v-1.1H9.857v1.1Zm.55-.328v-.222h-1.1v.222h1.1ZM12 18.307c-.88 0-1.593-.713-1.593-1.593h-1.1A2.693 2.693 0 0 0 12 19.407v-1.1Zm1.593-1.593c0 .88-.713 1.593-1.593 1.593v1.1a2.693 2.693 0 0 0 2.693-2.693h-1.1Z"/></svg>