<svg xmlns="http://www.w3.org/2000/svg" width="24" height="24" fill="none"><path stroke="#000" stroke-miterlimit="5" stroke-width="1.1" d="M5 5.55h5a.45.45 0 0 1 .45.45v5a.45.45 0 0 1-.45.45H5a.45.45 0 0 1-.45-.45V6A.45.45 0 0 1 5 5.55Zm8 0h5a.45.45 0 0 1 .45.45v5a.45.45 0 0 1-.45.45h-5a.45.45 0 0 1-.45-.45V6a.45.45 0 0 1 .45-.45Zm-8 8h5a.45.45 0 0 1 .45.45v5a.45.45 0 0 1-.45.45H5a.45.45 0 0 1-.45-.45v-5a.45.45 0 0 1 .45-.45Zm8 0h5a.45.45 0 0 1 .45.45v5a.45.45 0 0 1-.45.45h-5a.45.45 0 0 1-.45-.45v-5a.45.45 0 0 1 .45-.45Z"/></svg>