<svg xmlns="http://www.w3.org/2000/svg" width="24" height="24" fill="none"><path fill="#000" fill-rule="evenodd" d="M6.38 10.306a5.602 5.602 0 0 1 5.602-5.602.55.55 0 1 1 0 1.1 4.502 4.502 0 0 0-4.502 4.502v2.369c0 .598-.05 1.202-.165 1.8-.086.442-.218.98-.42 1.499a.549.549 0 0 1-.344.979H6.087a.55.55 0 0 1-.478-.822c.31-.544.506-1.258.625-1.866m.145-3.96v2.37Zm0 2.37c0 .538-.045 1.07-.145 1.59Zm1.36 3.728a.55.55 0 0 1 .55-.55H11.981a.55.55 0 0 1 0 1.1H8.29a.55.55 0 0 1-.55-.55Z" clip-rule="evenodd"/><path fill="#000" fill-rule="evenodd" d="M11.432 5.254a.55.55 0 0 1 .55-.55c1.586 0 3.02.66 4.038 1.72a.55.55 0 1 1-.793.762 4.487 4.487 0 0 0-3.245-1.382.55.55 0 0 1-.55-.55Zm4.957 2.52a.55.55 0 0 1 .725.282 5.563 5.563 0 0 1 .47 2.25v2.369c0 .538.044 1.071.145 1.59.118.608.315 1.322.625 1.866a.55.55 0 0 1-.478.822h-5.894a.55.55 0 0 1 0-1.1h5.041a9.447 9.447 0 0 1-.54-3.178v-2.37a4.503 4.503 0 0 0-.377-1.806.55.55 0 0 1 .283-.725Z" clip-rule="evenodd"/><path stroke="#000" stroke-linecap="round" stroke-linejoin="round" stroke-width="1.1" d="M14.087 16.403v.218a2.105 2.105 0 1 1-4.21 0v-.218"/><path stroke="#000" stroke-linejoin="round" stroke-width="1.1" d="m3.711 18.666.523-.522L18.24 4.138"/></svg>