<svg xmlns="http://www.w3.org/2000/svg" width="20" height="20" fill="none"><path fill="#000" fill-opacity=".6" fill-rule="evenodd" d="M3.17 15.999h13.616v-1H3.17v1ZM10.482 5.13a1.365 1.365 0 1 0-1-.015v.826a6.872 6.872 0 0 0-6.353 6.853v1.203H16.87v-1.204a6.872 6.872 0 0 0-6.389-6.854v-.81Zm-.262 1.796L10 6.922a5.871 5.871 0 0 0-5.871 5.872v.202H15.87v-.203a5.871 5.871 0 0 0-5.65-5.867Zm-1.459 3.385a.901.901 0 1 1-1.802 0 .901.901 0 0 1 1.802 0Zm4.278 0a.901.901 0 1 1-1.802 0 .901.901 0 0 1 1.802 0Z" clip-rule="evenodd"/></svg>