<svg xmlns="http://www.w3.org/2000/svg" width="90" height="90" fill="none"><g clip-path="url(#a)"><path fill="#404040" fill-opacity=".9" d="M45 90c24.853 0 45-20.147 45-45S69.853 0 45 0 0 20.147 0 45s20.147 45 45 45Z"/><path stroke="#fff" stroke-linejoin="round" stroke-width="2" d="M28 59.659 58.66 29"/><path fill="#fff" fill-rule="evenodd" d="M34.111 54.376c.385-.966.704-2.09.95-3.355.238-1.223.357-2.532.357-3.888v-5.188c0-5.592 4.55-10.142 10.143-10.142 3.17 0 6.003 1.465 7.864 3.75l1.308-1.308c-2.2-2.617-5.494-4.286-9.172-4.286-6.609 0-11.987 5.377-11.987 11.986v5.188a18.7 18.7 0 0 1-.323 3.536c-.33 1.704-.815 3.147-1.399 4.173a.922.922 0 0 0 .801 1.378h.105l1.844-1.844h-.49Z" clip-rule="evenodd"/><mask id="b" width="25" height="27" x="35" y="35" maskUnits="userSpaceOnUse" style="mask-type:alpha"><path fill="#fff" d="M35.366 35.77H59.39v25.537H35.366V35.771Z"/></mask><g mask="url(#b)"><path fill="#fff" fill-rule="evenodd" d="M45.561 59.463c-1.882 0-3.42-1.42-3.643-3.243h7.286c-.223 1.823-1.76 3.243-3.643 3.243Zm12.31-8.794a18.7 18.7 0 0 1-.324-3.536v-5.188c0-2.26-.64-4.368-1.732-6.174l-1.34 1.34a10.079 10.079 0 0 1 1.228 4.834v5.188c0 1.356.12 2.665.358 3.888.245 1.266.564 2.389.95 3.355H37.21l-1.844 1.844h4.685c.228 2.843 2.61 5.088 5.51 5.088s5.282-2.245 5.51-5.088h7.397a.92.92 0 0 0 .801-1.378c-.584-1.025-1.067-2.47-1.399-4.173Z" clip-rule="evenodd"/></g></g><defs><clipPath id="a"><path fill="#fff" d="M0 0h90v90H0z"/></clipPath></defs></svg>