<svg xmlns="http://www.w3.org/2000/svg" width="90" height="90" fill="none"><g clip-path="url(#a)"><path fill="#404040" fill-opacity=".9" d="M45 90c24.853 0 45-20.147 45-45S69.853 0 45 0 0 20.147 0 45s20.147 45 45 45Z"/><path stroke="#fff" stroke-linecap="round" stroke-linejoin="round" stroke-width="2" d="M45.125 30c-6.213 0-11.25 5.037-11.25 11.25v5.275c0 1.266-.105 2.532-.346 3.774-.272 1.399-.741 3.144-1.529 4.528h13.124M45.125 30c6.213 0 11.25 5.037 11.25 11.25v5.275c0 1.266.105 2.532.346 3.774.272 1.399.741 3.144 1.529 4.528H45.126M49.813 54.827v.485a4.688 4.688 0 1 1-9.375 0v-.485"/></g><defs><clipPath id="a"><path fill="#fff" d="M0 0h90v90H0z"/></clipPath></defs></svg>