<svg width="14" height="14" viewBox="0 0 14 14" fill="none" xmlns="http://www.w3.org/2000/svg">
    <path d="M7 1.5c1.519 0 2.894.616 3.89 1.61A5.483 5.483 0 0 1 12.5 7a5.483 5.483 0 0 1-1.61 3.89A5.483 5.483 0 0 1 7 12.5a5.483 5.483 0 0 1-3.89-1.61A5.483 5.483 0 0 1 1.5 7c0-1.519.616-2.894 1.61-3.89A5.483 5.483 0 0 1 7 1.5z" stroke="#000" stroke-width=".84"/>
    <path fill-rule="evenodd" clip-rule="evenodd" d="M8.981 7.783a.386.386 0 0 1 .266.479c-.263.913-1.21 1.55-2.3 1.55-1.091 0-2.037-.637-2.301-1.55a.388.388 0 0 1 .746-.214c.166.575.82.991 1.554.991.735 0 1.389-.417 1.555-.99a.388.388 0 0 1 .48-.266zM7.226 6.295a.36.36 0 0 1-.248.447c-.073.02-.148.127-.148.269 0 .142.075.248.148.268a.36.36 0 1 1-.2.694c-.396-.113-.672-.509-.672-.962 0-.453.276-.85.671-.962a.363.363 0 0 1 .449.246zM4.766 4.96c.284 0 .517.232.517.516v.471a.518.518 0 0 1-.518.515h-.017a.518.518 0 0 1-.518-.515v-.471c0-.284.233-.516.518-.516h.017zm4.349 0c.285 0 .518.232.518.516v.471a.518.518 0 0 1-.518.515h-.017a.518.518 0 0 1-.518-.515v-.471c0-.284.233-.516.518-.516h.017z" fill="#000"/>
</svg>
