<svg xmlns="http://www.w3.org/2000/svg" width="18" height="18"><g fill="none" fill-rule="evenodd"><path d="M0 0h18v18H0z"/><path stroke="#999" stroke-linecap="round" stroke-linejoin="round" stroke-width=".825" d="M9.203 4.037a3.789 3.789 0 0 0-3.789 3.789v1.776c0 .427-.035.853-.116 1.272-.092.47-.25 1.058-.515 1.525h.347m1.304 0h2.769M9.203 4.037c1.073 0 2.042.446 2.731 1.163m.74 1.105a3.761 3.761 0 0 1 .318 1.52v1.777c0 .427.035.853.116 1.272.092.47.25 1.058.515 1.525h-4.42"/><path fill="#999" fill-rule="nonzero" d="M10.782 11.986c.228 0 .412.185.412.413v.163a1.991 1.991 0 1 1-3.982 0v-.163a.412.412 0 1 1 .825 0v.163a1.166 1.166 0 0 0 2.332 0v-.163c0-.228.185-.413.413-.413Z"/><path stroke="#999" stroke-linejoin="round" stroke-width=".825" d="m3 14.096.392-.392L13.896 3.2"/></g></svg>