<svg xmlns="http://www.w3.org/2000/svg" width="36" height="36"><g fill="none" fill-rule="evenodd"><path d="M0 0h36v36H0z"/><g stroke="#000"><path d="M21 18a3 3 0 1 1-6 0 3 3 0 0 1 6 0Z"/><path d="M24.953 18c0-.295-.022-.584-.06-.868L26 15.826a7.918 7.918 0 0 0-2.045-3.406l-1.727.27a6.998 6.998 0 0 0-1.564-.871l-.62-1.575a8.653 8.653 0 0 0-4.087 0l-.62 1.575a7.04 7.04 0 0 0-1.565.87l-1.727-.269A7.928 7.928 0 0 0 10 15.826l1.107 1.306c-.038.284-.06.573-.06.868 0 .295.022.584.06.868L10 20.174a7.918 7.918 0 0 0 2.045 3.406l1.727-.27a7.02 7.02 0 0 0 1.564.871l.621 1.575a8.69 8.69 0 0 0 4.086 0l.621-1.575a7.034 7.034 0 0 0 1.564-.87l1.727.269A7.918 7.918 0 0 0 26 20.174l-1.107-1.306c.038-.284.06-.573.06-.868Z"/></g></g></svg>