<svg xmlns="http://www.w3.org/2000/svg" xmlns:xlink="http://www.w3.org/1999/xlink" width="20" height="20"><defs><path id="a" d="M0 .456v11.087c0 .363.382.58.67.383l8.102-5.543a.47.47 0 0 0 0-.765L.67.074A.416.416 0 0 0 .435 0 .445.445 0 0 0 0 .456Z"/></defs><g fill="none" fill-rule="evenodd"><path d="M0 0h20v20H0z"/><g fill="#000" transform="translate(4 4)"><path d="M10.7 0c-.11 0-.2.224-.2.5v11c0 .276.09.5.2.5h.8c.11 0 .2-.224.2-.5V.5c0-.276-.09-.5-.2-.5h-.8Z"/><use xlink:href="#a"/></g></g></svg>