<svg xmlns="http://www.w3.org/2000/svg" width="40" height="40"><g fill="none" fill-rule="nonzero"><path fill="#000" fill-opacity=".45" d="M20 40C5.278 40 0 34.722 0 20 0 5.833 5.278 0 20 0c14.722 0 20 5.278 20 20 0 14.722-5.278 20-20 20Z"/><path d="M9 9h22v22H9z"/><path fill="#FFF" d="M19.99 11.435a8.572 8.572 0 1 1 0 17.145 8.572 8.572 0 0 1 0-17.145Zm0 1.878a6.695 6.695 0 1 0 0 13.39 6.695 6.695 0 0 0 0-13.39Zm-.003 9.257c.621 0 1.124.448 1.124 1.09 0 .64-.503 1.088-1.124 1.088-.614 0-1.116-.448-1.116-1.089 0-.64.502-1.089 1.116-1.089Zm.217-6.848a1 1 0 0 1 .999 1.043l-.172 3.975a1 1 0 0 1-.999.957h-.098a1 1 0 0 1-.999-.96l-.16-3.975a1 1 0 0 1 .96-1.04h.469Z"/></g></svg>