<svg xmlns="http://www.w3.org/2000/svg" width="40" height="40"><g fill="none" fill-rule="nonzero"><path fill="#000" fill-opacity=".45" d="M20 40C5.278 40 0 34.722 0 20 0 5.833 5.278 0 20 0c14.722 0 20 5.278 20 20 0 14.722-5.278 20-20 20Z"/><path d="M9 9h22v22H9z" opacity=".5"/><path fill="#FFF" d="M19.993 11.735a8.259 8.259 0 1 1 0 16.517 8.259 8.259 0 0 1 0-16.517Zm5.234 4.473-9.066 8.984a6.459 6.459 0 0 0 9.066-8.985Zm-5.234-2.673a6.459 6.459 0 0 0-5.118 10.398l9.104-9.022a6.43 6.43 0 0 0-3.986-1.376Z"/></g></svg>