<svg xmlns="http://www.w3.org/2000/svg" width="40" height="40"><g fill="none" fill-rule="nonzero"><path fill="#000" fill-opacity=".45" d="M20 40C5.278 40 0 34.722 0 20 0 5.833 5.278 0 20 0c14.722 0 20 5.278 20 20 0 14.722-5.278 20-20 20Z"/><path fill="#FFF" d="M20.798 22.897v-.665c0-1.119.41-1.706 1.84-2.548 1.462-.876 2.327-2.084 2.327-3.79 0-2.405-1.973-4.145-4.899-4.145-3.213 0-4.93 1.906-5.03 4.455h2.293c.1-1.419 1.086-2.316 2.616-2.316 1.518 0 2.504.886 2.504 2.105 0 1.12-.476 1.751-1.817 2.56-1.519.909-2.195 1.906-2.14 3.502l.012.842h2.294Zm-1.009 5.23c1.02 0 1.707-.675 1.707-1.684 0-1.03-.687-1.706-1.707-1.706s-1.717.676-1.717 1.706c0 1.009.698 1.685 1.717 1.685Z"/></g></svg>