<svg xmlns="http://www.w3.org/2000/svg" width="20" height="20"><g fill="none" fill-rule="evenodd"><path fill="#F3F3F3" d="M-1027-1438H536V394h-1563z"/><path fill="#FFF" d="M-905-270H408v546H-905z"/><g fill-rule="nonzero"><path fill="#00B222" d="m11.5 8.207-.707-.707 1.504-1.504H6.5a3.5 3.5 0 0 0-3.495 3.309L3 9.497V12H2V9.497a4.499 4.499 0 0 1 4.288-4.495l.212-.005 5.789-.001L10.793 3.5l.707-.707L14.207 5.5 11.5 8.207zM8.5 17.207l-2-2-.707-.707L8.5 11.793l.707.707-1.502 1.504H13.5a3.5 3.5 0 0 0 3.495-3.309l.005-.192V8h1v2.503a4.499 4.499 0 0 1-4.288 4.495l-.212.005-5.788.001L9.207 16.5l-.707.707z"/><circle cx="5" cy="6" r="4" fill="#00B222"/><path fill="#FFF" d="M4.564 8.5V4.577h-.066L3 5.591V4.562L4.567 3.5h1.102v5z"/></g></g></svg>