<svg xmlns="http://www.w3.org/2000/svg" width="20" height="20"><g fill="none" fill-rule="evenodd"><path fill="#F3F3F3" d="M-986-1438H577V394H-986z"/><path fill="#FFF" d="M-864-270H449v546H-864z"/><g fill-rule="nonzero"><path fill="#36C250" d="m11.5 8.207-.707-.707 1.504-1.504H6.5a3.5 3.5 0 0 0-3.495 3.309L3 9.497V12H2V9.497a4.499 4.499 0 0 1 4.288-4.495l.212-.005 5.789-.001L10.793 3.5l.707-.707L14.207 5.5 11.5 8.207z"/><path fill="#19B937" d="m8.5 17.207-2-2-.707-.707L8.5 11.793l.707.707-1.502 1.504H13.5a3.5 3.5 0 0 0 3.495-3.309l.005-.192V8h1v2.503a4.499 4.499 0 0 1-4.288 4.495l-.212.005-5.788.001L9.207 16.5l-.707.707z"/></g></g></svg>