<svg xmlns="http://www.w3.org/2000/svg" width="16" height="16"><g fill="none" fill-rule="evenodd"><path d="M0 0h16v16H0z"/><path fill="#FFF" fill-opacity=".9" d="M8 1.549c.569 0 1.12.069 1.648.197l.5 1.27c.454.18.877.418 1.262.702l1.392-.217a6.387 6.387 0 0 1 1.65 2.746L13.558 7.3c.03.23.048.462.048.7 0 .238-.017.47-.048.7l.892 1.053a6.387 6.387 0 0 1-1.649 2.746l-1.392-.217a5.647 5.647 0 0 1-1.262.702l-.5 1.27a6.972 6.972 0 0 1-3.295 0l-.501-1.27a5.647 5.647 0 0 1-1.261-.702l-1.393.217a6.39 6.39 0 0 1-1.65-2.746L2.443 8.7a5.24 5.24 0 0 1-.049-.7c0-.238.018-.47.049-.7l-.893-1.053A6.39 6.39 0 0 1 3.199 3.5l1.392.217a5.647 5.647 0 0 1 1.26-.702l.502-1.27A6.956 6.956 0 0 1 8 1.549Zm0 3.816a2.635 2.635 0 1 0 0 5.27 2.635 2.635 0 0 0 0-5.27Z"/></g></svg>