<svg xmlns="http://www.w3.org/2000/svg" width="22" height="22"><g fill="none" fill-rule="evenodd"><circle cx="11" cy="11" r="10.5" fill="#F2F2F2" stroke="#DBDBDB"/><path stroke="#262626" stroke-linecap="square" stroke-width="1.2" d="M7.464 7.464A5 5 0 0 1 16 11h0m-1.464 3.536A5 5 0 0 1 6 11h0"/><path fill="#262626" d="m6.341 6.341 2.65 2.65a.2.2 0 0 1-.14.342H6.5a.5.5 0 0 1-.5-.5v-2.35a.2.2 0 0 1 .341-.142Zm6.809 6.326h2.35a.5.5 0 0 1 .5.5v2.35a.2.2 0 0 1-.341.142l-2.65-2.65a.2.2 0 0 1 .14-.342Z"/></g></svg>