<svg xmlns="http://www.w3.org/2000/svg" width="52" height="16"><g fill="none" fill-rule="evenodd"><rect width="50.7" height="14.7" x=".65" y=".65" stroke="#0067ff" stroke-width="1.3" rx="7.35"/><g fill="#0067ff" fill-rule="nonzero"><path d="M6.25 7.85c.06.941.464 1.686 1.139 2.27l.108.09.236.186.097.835.77-.45.26.047c.172.03.347.046.525.046 1.627 0 2.99-1.31 3.149-3.024h1.451c-.149 2.526-2.155 4.476-4.6 4.476-.131 0-.261-.006-.39-.017l-.113-.013-2.23 1.304-.287-2.45a4.886 4.886 0 0 1-1.567-3.158l-.013-.142zM9.385 2.8a2.448 2.448 0 0 1 2.441 2.454v2.404a2.448 2.448 0 0 1-2.441 2.454 2.448 2.448 0 0 1-2.442-2.454V5.254A2.448 2.448 0 0 1 9.385 2.8zm0 1.452a.999.999 0 0 0-.994.927l-.003.075v2.404a1 1 0 0 0 .997 1.002.999.999 0 0 0 .993-.927l.003-.075V5.254a1 1 0 0 0-.996-1.002z"/><path stroke="#0067ff" stroke-width=".2" d="M29.935 4.1v8h-.868v-8zm15.702 4v.66h-3.233v.78h2.28v2.36h-5.417V9.54h2.243v-.78h-3.196V8.1zm-1.856 2.071h-3.63v1.097h3.63zM22.21 4.643V8.63h-2.3v1.793h3.184v.655h-7.209v-.655h3.147V8.63h-2.254V4.661h.867v1.27h3.688V4.643zm-.877 1.917h-3.688v1.415h3.688zm16.713 3.817v.655h-7.208v-.655zM25.608 4.66c.626 0 1.123.276 1.467.751.365.505.56 1.23.56 2.085 0 .847-.195 1.568-.561 2.07-.344.472-.84.748-1.466.748a1.739 1.739 0 0 1-1.46-.747c-.363-.501-.557-1.22-.557-2.07 0-.856.194-1.58.558-2.085a1.735 1.735 0 0 1 1.46-.752zm.504.83c-.146-.104-.303-.177-.997.001a1.296 1.296 0 0 0-.372.46c-.189.365-.302.89-.302 1.545 0 .651.113 1.171.302 1.533.103.2.23.352.372.456a.825.825 0 0 0 .493.163.859.859 0 0 0 .504-.162c.146-.104.276-.256.382-.455.193-.362.31-.883.31-1.535 0-.656-.117-1.182-.31-1.548a1.298 1.298 0 0 0-.382-.458zm8.796-.894c0 1.118.358 1.718.876 2.193a4.6 4.6 0 0 0 2.041 1.053l-.424.654c-1.083-.27-2.423-1.087-2.872-2.117-.59 1.06-1.969 1.892-3.06 2.154l-.397-.686a4.278 4.278 0 0 0 2.035-1.014c.523-.481.878-1.098.878-1.794zm4.36-.497h5.37v1.94h-4.44v.742h4.654v.623h-5.547v-1.96h4.43v-.713h-4.468z"/></g></g></svg>