<svg xmlns="http://www.w3.org/2000/svg" width="26" height="26"><g fill="none" fill-rule="evenodd"><path d="M0 0h26v26H0z"/><path fill="#0067ff" fill-rule="nonzero" d="M6.49 13.231a6.687 6.687 0 0 0 2.507 5.249l.1.078.312.24.1 2.184 2.098-1.24.306.052c.356.061.72.092 1.087.092 3.439 0 6.284-2.736 6.497-6.234.006-.093.01-.186.012-.28l.001-.14h1.69c0 .175-.005.35-.016.523-.267 4.381-3.844 7.821-8.184 7.821-.331 0-.66-.02-.985-.06l-.074-.01-3.991 2.362-.194-4.221-.008-.007a8.378 8.378 0 0 1-2.92-5.705l-.01-.14a8.588 8.588 0 0 1-.016-.375L4.8 13.23zM13 3.5a4.753 4.753 0 0 1 4.753 4.753v4.978a4.753 4.753 0 0 1-9.506 0V8.253A4.753 4.753 0 0 1 13 3.5zm0 1.69a3.063 3.063 0 0 0-3.062 2.978v5.063a3.063 3.063 0 0 0 6.124.085V8.253A3.063 3.063 0 0 0 13 5.19z"/></g></svg>