<svg xmlns="http://www.w3.org/2000/svg" width="16" height="16"><g fill="none" fill-rule="evenodd"><path d="M0 0h16v16H0z"/><g fill="#0067ff" fill-rule="nonzero"><path d="M2.887 7.644a5.253 5.253 0 0 0 1.97 4.123l.078.062.245.188.079 1.716 1.648-.975.24.042c.28.048.566.072.854.072 2.702 0 4.937-2.15 5.104-4.897.005-.073.008-.147.01-.22v-.11h1.328c0 .137-.004.274-.013.41-.21 3.442-3.019 6.145-6.429 6.145a6.39 6.39 0 0 1-.773-.047l-.058-.008L4.034 16l-.152-3.316-.006-.005a6.58 6.58 0 0 1-2.293-4.482l-.009-.11a6.747 6.747 0 0 1-.012-.295l-.002-.148z"/><path d="M8.001 0a3.733 3.733 0 0 1 3.734 3.733v3.911a3.733 3.733 0 1 1-7.467 0v-3.91A3.733 3.733 0 0 1 8.001 0zm0 1.327a2.406 2.406 0 0 0-2.405 2.34v3.977a2.406 2.406 0 0 0 4.81.067l.001-.067v-3.91a2.406 2.406 0 0 0-2.406-2.407z"/></g></g></svg>