<svg xmlns="http://www.w3.org/2000/svg" width="48" height="16"><g fill="none" fill-rule="evenodd"><path stroke="#0067ff" stroke-width="1.4" d="M39 .7c2.016 0 3.84.817 5.162 2.138A7.277 7.277 0 0 1 46.3 8c0 2.016-.817 3.84-2.138 5.162S41.016 15.3 39 15.3H8a7.277 7.277 0 0 1-5.162-2.138A7.277 7.277 0 0 1 .7 8c0-2.016.817-3.84 2.138-5.162A7.277 7.277 0 0 1 8 .7z"/><path fill="#0067ff" fill-rule="nonzero" d="M17.505 11.135h1.9l1.981-6.275h-1.668l-1.254 4.68-1.203-4.68H15.5zm9.733-2.763v-.73c0-1.775-1.019-2.892-2.798-2.892-1.775 0-2.803 1.108-2.803 2.891v.731c0 1.766 1.028 2.878 2.803 2.878 1.78 0 2.798-1.112 2.798-2.878zm-1.544-.749v.754c0 1.09-.507 1.646-1.254 1.646-.751 0-1.258-.557-1.258-1.646v-.754c0-1.09.507-1.646 1.258-1.646.747 0 1.254.557 1.254 1.646zm4.073 3.512V4.86H28.25v6.275zm2.527-3.48c0-1.062.443-1.66 1.199-1.66.659 0 1.07.479 1.101 1.118h1.443v-.175c-.032-1.315-1.092-2.188-2.554-2.188-1.751 0-2.733 1.117-2.733 2.905v.699c0 1.784.973 2.896 2.733 2.896 1.457 0 2.522-.864 2.554-2.151v-.18h-1.443c-.032.626-.433 1.08-1.101 1.08-.76 0-1.199-.583-1.199-1.64zM41 9.935h-2.724V8.53h2.553V7.425h-2.553V6.06H41v-1.2h-4.222v6.275H41zM6.25 7.85c.06.941.464 1.686 1.139 2.27l.108.09.236.186.097.835.77-.45.26.047c.172.03.347.046.525.046 1.627 0 2.99-1.31 3.149-3.024h1.451c-.149 2.526-2.155 4.476-4.6 4.476-.131 0-.261-.006-.39-.017l-.113-.013-2.23 1.304-.287-2.45a4.886 4.886 0 0 1-1.567-3.158l-.013-.142zM9.385 2.8a2.448 2.448 0 0 1 2.441 2.454v2.404a2.448 2.448 0 0 1-2.441 2.454 2.448 2.448 0 0 1-2.442-2.454V5.254A2.448 2.448 0 0 1 9.385 2.8zm0 1.452a.999.999 0 0 0-.994.927l-.003.075v2.404a1 1 0 0 0 .997 1.002.999.999 0 0 0 .993-.927l.003-.075V5.254a1 1 0 0 0-.996-1.002z"/></g></svg>