<svg xmlns="http://www.w3.org/2000/svg" width="56" height="56"><g fill="none" fill-rule="evenodd"><circle cx="28" cy="28" r="25" fill="#fff" fill-opacity=".85"/><path fill="#262626" fill-rule="nonzero" d="M23.63 26.38v-.348c0-2.411-.003-4.822 0-7.233 0-.733.437-1.26 1.124-1.379.677-.115 1.367.337 1.503.997.032.154.039.315.039.473.002 2.376.001 4.751.001 7.126v.36h.78c.005-.103.016-.213.016-.322.001-2.976 0-5.951.002-8.927 0-.686.4-1.195 1.039-1.34.76-.17 1.517.349 1.608 1.109.013.113.012.23.012.344V26.382h.8v-.344c0-2.358-.003-4.715.002-7.073.002-.798.622-1.366 1.428-1.327.642.032 1.2.571 1.22 1.202.016.485.006.971.006 1.456v9.186c0 .132 0 .556.003.688.003.202.142.405.391.176.506-.467.789-.736 1.166-1.196.285-.345.594-.668.926-.968.331-.292 1.011-.733 1.736-.335.607.333.792 1.118.4 1.787a710.79 710.79 0 0 1-3.218 5.458c-1.484 2.483-3.734 4.008-6.597 4.179-5.1.303-6.644-2.148-7.515-4.664-.262-.757-.31-1.62-.318-2.433-.034-3.453-.016-6.905-.014-10.358 0-.872.602-1.48 1.407-1.432.718.043 1.25.597 1.251 1.313.003 1.448 0 2.896 0 4.344v.34z"/></g></svg>