<svg xmlns="http://www.w3.org/2000/svg" width="56" height="56"><g fill="none" fill-rule="evenodd"><circle cx="28" cy="28" r="25" fill="#fff" fill-opacity=".6"/><path fill="#262626" d="m37.067 17.94.964.987-9.099 9.097.001 8.7a.3.3 0 0 1-.483.238l-4.779-3.677-5.793 5.795-.964-.988zm-8.196 1.153a.3.3 0 0 1 .062.183v4.065l-9.327 9.326h-1.373a.5.5 0 0 1-.5-.5v-8.334a.5.5 0 0 1 .5-.5h4.634l5.583-4.295a.3.3 0 0 1 .421.055z"/><path stroke="#262626" stroke-width="1.4" d="M31.96 31.96a5.6 5.6 0 0 0 0-7.92m3.3 11.22c4.009-4.01 4.009-10.51 0-14.52"/></g></svg>