<svg xmlns="http://www.w3.org/2000/svg" width="16" height="16"><path fill="#fff" d="m13.726 1.897.597.601-3.237 3.257V7.17a2.596 2.596 0 0 1-2.589 2.604c-.395 0-.784-.092-1.138-.268l-1.386 1.394c.748.496 1.627.76 2.524.759a4.605 4.605 0 0 0 4.543-3.86l.887.153a5.504 5.504 0 0 1-4.98 4.592V15h-.9v-2.46a5.456 5.456 0 0 1-2.72-.993l-2.54 2.557-.597-.601zm-9.77 5.901c.085.503.252.987.494 1.435l-.66.664a5.567 5.567 0 0 1-.722-1.946zM8.496 1c1.12 0 2.07.716 2.431 1.716L5.966 7.708a2.623 2.623 0 0 1-.056-.54V3.605A2.595 2.595 0 0 1 8.497 1z" opacity=".4"/></svg>