<svg xmlns="http://www.w3.org/2000/svg" width="56" height="56"><g fill="none" fill-rule="evenodd"><circle cx="28" cy="28" r="25" fill="#fff"/><path fill="#262626" fill-rule="nonzero" d="m37.067 17.94.964.987-5.934 5.933.001 2.128a4.098 4.098 0 0 1-5.839 3.71l-2.48 2.481a7.255 7.255 0 0 0 11.472-5.663l.004-.24h1.4a8.656 8.656 0 0 1-7.955 8.628v3.667h-1.4v-3.667a8.611 8.611 0 0 1-4.522-1.724l-4.9 4.9-.964-.988zm-16.322 9.337c0 1.16.272 2.256.756 3.228l-1.035 1.036a8.61 8.61 0 0 1-1.118-4.004l-.003-.26zM28 16.429a4.1 4.1 0 0 1 4.058 3.519l-8.034 8.035a4.107 4.107 0 0 1-.122-.995v-6.461A4.098 4.098 0 0 1 28 16.429z"/></g></svg>