<svg xmlns="http://www.w3.org/2000/svg" width="56" height="56"><g fill="none" fill-rule="evenodd"><circle cx="28" cy="28" r="25" fill="#fff" fill-opacity=".85"/><path fill="#262626" fill-rule="nonzero" d="M26.638 18.292c.012.107.011.215.011.323V27.174h.746v-.322c0-2.208-.003-4.415.002-6.622.001-.748.579-1.278 1.33-1.242.598.03 1.118.534 1.137 1.125.014.454.006.909.006 1.363v9.019c0 .095 0 .18.002.226.003.189.132.38.364.164.472-.437.735-.689 1.086-1.12.266-.322.554-.625.863-.906.308-.273.942-.686 1.618-.313.565.312.737 1.046.372 1.673a675.786 675.786 0 0 1-2.998 5.11c-1.382 2.325-3.48 3.753-6.147 3.912-4.75.284-6.189-2.01-7-4.366-.244-.708-.289-1.517-.297-2.278-.031-3.232-.014-6.465-.012-9.698 0-.817.56-1.386 1.31-1.34.67.04 1.165.558 1.166 1.228.002 1.356 0 2.712 0 4.068v.318h.746v-.327c0-2.257-.001-4.514.001-6.771 0-.686.407-1.18 1.047-1.291.631-.109 1.273.315 1.4.933.03.144.036.295.037.443l.001 3.336v3.672h.726c.005-.096.016-.199.016-.301l.001-8.359c0-.641.372-1.117.968-1.253.709-.16 1.413.326 1.498 1.038zm11.378 1.102 1.04 1.039-2.425 2.424 2.425 2.425-1.04 1.038-2.424-2.424-2.425 2.425-1.039-1.04 2.424-2.424-2.424-2.424 1.04-1.039 2.424 2.424 2.424-2.424z"/></g></svg>