<svg xmlns="http://www.w3.org/2000/svg" xmlns:xlink="http://www.w3.org/1999/xlink" width="18" height="16"><defs><filter id="b" width="146.2%" height="151.1%" x="-23.1%" y="-25.5%" filterUnits="objectBoundingBox"><feOffset in="SourceAlpha" result="shadowOffsetOuter1"/><feGaussianBlur in="shadowOffsetOuter1" result="shadowBlurOuter1" stdDeviation="1"/><feComposite in="shadowBlurOuter1" in2="SourceAlpha" operator="out" result="shadowBlurOuter1"/><feColorMatrix in="shadowBlurOuter1" values="0 0 0 0 0 0 0 0 0 0 0 0 0 0 0 0 0 0 0.3 0"/></filter><path id="a" d="M8 2c2.763 0 5.005 2.237 5.073 5.017l.001.129v1.639a1.888 1.888 0 0 1 1.426 1.83v1.24a1.887 1.887 0 0 1-1.887 1.887h-.887a1 1 0 0 1-1-1V9.728a1 1 0 0 1 1-1l.006-.001V7.146c0-2.107-1.674-3.809-3.732-3.809-2.021 0-3.672 1.642-3.73 3.696l-.002.113-.001 1.581h.007a1 1 0 0 1 1 1v3.015a1 1 0 0 1-1 1h-.887A1.887 1.887 0 0 1 1.5 11.855v-1.24c0-.883.606-1.624 1.425-1.83v-1.64C2.926 4.308 5.196 2 8 2Z"/></defs><g fill="none" fill-rule="evenodd" opacity=".4" transform="translate(1)"><path d="M0 0h16v16H0z"/><use xlink:href="#a" fill="#000" filter="url(#b)"/><path fill="#FFF" stroke="#FFF" stroke-linejoin="square" stroke-opacity=".04" stroke-width=".4" d="M8 2.2c1.324 0 2.524.535 3.402 1.403a4.963 4.963 0 0 1 1.47 3.414l.003 1.93a1.685 1.685 0 0 1 1.418 1.513l.007 1.395a1.682 1.682 0 0 1-1.548 1.681l-1.026.006a.797.797 0 0 1-.793-.696l-.007-3.118a.797.797 0 0 1 .869-.797l.137-1.777a4.034 4.034 0 0 0-1.15-2.841A3.884 3.884 0 0 0 8 3.137a3.882 3.882 0 0 0-2.74 1.134 4.034 4.034 0 0 0-1.19 2.762L4.066 8.95a.819.819 0 0 1 .772.212.795.795 0 0 1 .235.566v3.014a.797.797 0 0 1-.8.8h-.887c-.466 0-.888-.189-1.193-.494a1.682 1.682 0 0 1-.494-1.193v-1.24a1.686 1.686 0 0 1 1.425-1.667V7.146c0-1.366.546-2.603 1.43-3.499A4.823 4.823 0 0 1 8 2.2Z"/></g></svg>