<svg xmlns="http://www.w3.org/2000/svg" width="56" height="56"><g fill="#fff" fill-rule="evenodd"><circle cx="28" cy="28" r="25" fill-opacity=".35"/><path d="M26.638 18.293c.012.106.011.214.011.321v8.56h.746v-.322c0-2.207-.003-4.415.002-6.622.001-.748.579-1.279 1.33-1.242.598.029 1.118.534 1.137 1.125l.007.454-.002.91.001 9.05c0 .08 0 .153.002.194.003.189.132.38.364.164.471-.437.735-.689 1.086-1.12.22-.27.576-.652.863-.906.309-.273.942-.686 1.618-.313.565.312.737 1.047.372 1.673a663.286 663.286 0 0 1-2.998 5.11c-1.383 2.325-3.479 3.753-6.146 3.912-4.75.285-6.19-2.01-7.001-4.366-.244-.708-.29-1.517-.297-2.278-.032-3.232-.014-6.465-.013-9.698 0-.817.561-1.386 1.311-1.34.67.04 1.165.558 1.166 1.228.002 1.356 0 2.712 0 4.068v.318h.746v-.327c0-2.257-.002-4.514 0-6.771.002-.686.408-1.181 1.048-1.291.63-.109 1.273.315 1.4.932.03.145.036.296.037.444l.001 3.336v3.672h.726c.005-.096.016-.198.016-.301l.001-8.359c0-.641.373-1.118.968-1.253.709-.16 1.413.326 1.498 1.038zm11.648 6.278v1.47h-5.878v-1.47zm0-3.918v1.47h-5.878v-1.47z"/></g></svg>