<svg xmlns="http://www.w3.org/2000/svg" width="16" height="16"><g fill="#fff" fill-rule="evenodd" opacity=".4"><path fill="none" d="M0 0h16v16H0z"/><path d="M8.915 2.707a.8.8 0 0 1 .266.265l5.383 8.811A.8.8 0 0 1 13.88 13H3.116a.8.8 0 0 1-.683-1.217l5.383-8.81a.8.8 0 0 1 1.1-.266zM8.498 9.8a.803.803 0 0 0 0 1.604.803.803 0 0 0 0-1.604zm0-4.294-.108.006c-.39.045-.692.331-.692.677l.006.076h-.006l.356 2.656.009.077c.041.173.22.303.435.303.246 0 .445-.17.445-.38l.355-2.656v-.076c0-.377-.358-.683-.8-.683z"/></g></svg>