<svg xmlns="http://www.w3.org/2000/svg" width="40" height="40"><g fill="none" fill-rule="evenodd"><path fill="#000" fill-opacity=".5" d="M40 20c0 14.856-5.144 20-20 20S0 34.856 0 20 5.144 0 20 0s20 5.144 20 20z"/><path fill="#fff" d="M26.111 20.37c.853.356 1.545.757 2.037 1.223-1.506.78-3.26 1.715-3.667 2.037l-.059.06c-.11.14-.028.254.06.347.13-.017.269-.062.407 0 .922-.818 2.398-1.575 3.667-2.037.3.284.576.73.814 1.222-1.437.442-2.82.931-2.851.815-.293.16-.43.205-.408.407-.161.065-.07.244 0 .408.208-.075.3-.075.408 0 .814-.565 1.921-.966 2.851-1.222.316.434.408.969.408 1.63 0 2.543-2.214 4.68-4.89 4.48-.322.2-.645.155-.814 0-1.214.51-1.952.733-2.037.816l-.216.07c-.52.167-1.135.337-1.821.337-.738 0-1.476-.223-2.037-.407l-.024-.018c-.155-.099-.874-.36-2.013-.797-.17.154-.492.198-.815 0-2.721.198-4.889-1.938-4.889-4.482 0-.66.092-1.195.408-1.63.93.257 2.037.658 2.851 1.223.108-.12.246-.075.408 0 .07-.164.115-.343 0-.408.023-.202-.115-.29-.408-.407-.03.072-1.414-.373-2.851-.815.238-.493.515-.893.814-1.222 1.315.507 2.79 1.219 3.667 2.037.138-.062.277-.017.408 0 .1-.062.192-.24 0-.407l-.058-.048c-.467-.359-2.171-1.244-3.61-1.99.493-.42 1.139-.821 2.038-1.222.438.668.945 1.158 1.222 1.63.185.062.277.15.408 0 .146.15.284.017.407 0-.123-.25-.215-.339-.407-.407-.085-.11-.592-.555-1.223-1.223.216.045.492 0 .815 0 .923 0 1.799.267 2.445.815-.185-.014-.37.254-.408.408.039.513.361.825.815.814l.19.055c.977.316 1.389 1.056 1.44 1.575l.025.009c.116.096.183.929-.025 1.213-.33.63-1.346 1.52-2.445 1.63-1.114-.199-2.083-.288-2.444-.408.084.076.038.076 0 0l-.083.07c-.103.09-.19.179-.325.338.17.068.308.202.408 0 .038.202.084.202 0 0l.001.003.02.03c.148.177.884.33 2.175.368l.248.006c1.192-.116 2.437-.828 2.852-1.222.415.438 1.614 1.106 2.852 1.222 1.53-.027 2.36-.205 2.444-.407l-.002.003-.021.057c-.045.122-.02.122.01 0l.013-.06c.1.202.239.068.408 0-.17-.199-.262-.332-.408-.408v.037c-.007.036-.03.024 0-.037l-.019.032c-.03.042-.051.031.02-.032l-.104.028c-.447.107-1.312.197-2.341.38-1.1-.11-2.114-.955-2.445-1.63-.223-.304-.13-1.24 0-1.222l.023-.098c.132-.507.562-1.23 1.607-1.532l.11-.005c.395-.044.67-.38.705-.81-.039-.153-.223-.42-.408-.407.646-.548 1.522-.815 2.445-.815.277 0 .6.045.815 0-.63.668-1.138 1.113-1.223 1.223-.192.068-.284.157-.407.407.123.017.261.15.407 0 .131.15.223.062.408 0 .277-.472.784-.962 1.222-1.63zM20 11c3.905.045 7.202 3.28 7.33 7.487l.003.254v.407c-.046.31-.093.537 0 .815-.248-.126-.422-.176-.418-.34l.01-.067h-.406c-.535-.144-.954-.235-1.223-.408-.051.018-.054-.052-.042-.194l.024-.263a5.65 5.65 0 0 0 .018-.358c-.01-1.422-.568-2.968-1.63-3.259-1.429-.417-1.833-.146-2.012-.017l-.024.016.012-.009c-.065.033-1.136.783-1.228 2.241l-.007.214c.134 1.711.785 2.348.815 2.444-.028-.089.367.214.726.371l.089.036-.15.023c-.387.083-.654.348-1.072.792-.135-.136-.553-.045-.815 0-.669-.045-1.088-.09-1.222 0-.418-.444-.685-.71-1.071-.792l-.151-.023.088-.027c.36-.127.754-.469.726-.38.03-.096.728-.733.815-2.444.006-1.672-1.275-2.493-1.235-2.455l-.013-.008c-.183-.129-.63-.398-2.011.018-1.061.291-1.573 1.792-1.63 3.26.01.532.103.805 0 .814-.194.151-.54.24-1.012.356l-.21.052h-.407c.058.174-.129.265-.408.407.078-.232.09-.428.039-.666l-.039-.149v-.407l.004-.249C12.39 14.282 15.739 11.045 20 11zm2.852 6.111c.9 0 1.63.639 1.63 1.63 0 .584-.73 1.222-1.63 1.222-.9 0-1.63-.638-1.63-1.222 0-.991.73-1.63 1.63-1.63zm-5.704 0c.9 0 1.63.639 1.63 1.63 0 .584-.73 1.222-1.63 1.222-.9 0-1.63-.638-1.63-1.222 0-.991.73-1.63 1.63-1.63zM9.408 11c.514.133 5.703 1.417 5.703 1.222 0 .195-.96.904-1.63 2.037-.388-.16-.676-.513-1.222-.815-3.153-3.241-2.865-.983-2.852-.814-.013-.169.083-.833.408-.815.251.07.876.425 2.444 2.037.258.248.45.824.408 1.222-.727 1.727-.583 4.074-.408 4.074-.175 0-1.04-.487-1.63-1.222-.85-.682-1.572-1.922-1.629-3.26.25-1.009.154-2.426 0-2.851-.039-.638-.039-.77.407-.815zm21.185 0c.463.089.418.177.407.815-.124.514-.214 1.886 0 2.852-.034 1.293-.709 2.577-1.222 3.259-.837.735-1.647 1.222-1.63 1.222l-.001-.008v-.271c-.006-.68-.074-2.46-.814-3.795.213-.398.438-.974.815-1.222 1.288-1.612 1.873-1.966 2.037-2.037.376-.018.466.646.408.815.058-.169.328-2.383-2.852.814-.285.302-.555.7-.815.815-.685-1.133-1.63-1.842-1.63-2.037 0 .195 4.86-1.133 5.297-1.222z"/></g></svg>