<svg xmlns="http://www.w3.org/2000/svg" width="20" height="20"><path fill="#fff" fill-opacity=".7" d="M9.272 2.75c.009.075.008.152.008.227v6.016h.524v-.226c0-1.552-.002-3.103.001-4.655.001-.525.407-.898.935-.873.42.02.786.376.8.791.01.32.003.639.003.958v6.34l.002.158c.002.133.093.267.256.116.331-.307.517-.485.764-.788.186-.226.389-.439.606-.637.217-.191.662-.482 1.137-.22.397.22.518.736.261 1.176-.698 1.2-1.397 2.399-2.106 3.592-.972 1.634-2.446 2.637-4.32 2.75-3.34.2-4.35-1.413-4.921-3.07-.172-.497-.203-1.065-.209-1.6-.022-2.272-.01-4.544-.009-6.816 0-.575.395-.975.922-.943.47.029.818.393.819.864v3.082h.524v-.23l.001-4.759c0-.482.286-.83.736-.907.443-.076.895.221.984.656.02.101.025.207.026.311V8.988h.511c.003-.066.011-.139.011-.211l.001-5.875c0-.45.262-.785.68-.88a.867.867 0 0 1 1.053.729zm7.997.775.73.73-1.703 1.704L18 7.663l-.73.73-1.705-1.704-1.704 1.705-.73-.731 1.704-1.704-1.704-1.704.73-.73 1.704 1.704 1.704-1.704z"/></svg>