<svg xmlns="http://www.w3.org/2000/svg" width="40" height="40"><g fill="none" fill-rule="evenodd"><path fill="#000" fill-opacity=".5" d="M40 20c0 14.856-5.144 20-20 20S0 34.856 0 20 5.144 0 20 0s20 5.144 20 20z"/><path fill="#fff" d="M31.451 17.356a.627.627 0 0 1-.182-.136c-.181-.182-.409-.318-.636-.454-1.59-1.317-2.545-3.133-2.909-3.905C27.315 11.226 25.77 10 23.952 10c-1.272 0-2.454.636-3.136 1.59-.909.135-1.727.499-2.363 1.09a4.3 4.3 0 0 0-1.863-.41h-.228a3.873 3.873 0 0 0-2.272-.726c-2.09 0-3.818 1.635-3.909 3.632-.045.636-.363 3.088-1.863 5.313A3.81 3.81 0 0 0 7.5 22.85c0 1.499.864 2.77 2.136 3.406-.136-.59-.227-1.725-.227-3.315 0-2.316 2.454-3.45 2.454-3.45s.5-1.136.545-1.772c.364.818.228 1.862.228 1.862s-1.91.59-2.59 2.86c-.683 2.317 1.09 4.133 1.09 4.133l.136.09c.227.182.455.364.682.5s3.863 2.77 5.226 3.36c.046 0 .046.046.046.046.727.454 1.682.726 2.59.726 1 0 1.864-.227 2.591-.726l5.045-3.043c1.681-.59 2.863-2.18 2.863-3.995v-.091s.227-2.589-2.772-3.95c-.773-1.862-1.818-4.27-1.818-4.27s.09-.59.409.046c.682 1.226 1.909 3.86 1.909 3.86s1.863.5 2.681 2.361c.273.636.455 1.09.545 1.362a3.671 3.671 0 0 0 1.228-2.77 3.591 3.591 0 0 0-1.046-2.724zm-9.135-2.724c1.136 0 2.09.908 2.09 2.043 0 1.135-.954 2.043-2.09 2.043s-2.09-.908-2.09-2.043c0-1.135.908-2.043 2.09-2.043zM17 15.948c1.227 0 2.227.682 2.227 1.544s-1 1.544-2.227 1.544c-1.227 0-2.227 0-2.227-1.544 0-.862 1-1.544 2.227-1.544zm9.226 9.9c.318 0 .59.272.59.59a.616.616 0 0 1-.272.5c-.227.317-.636.726-1.5.771-1.363.136-1.545.045-2.863.318-.818.182-1.5.045-1.909-.273-.41.318-1.09.455-1.909.273C17 27.709 16 27.8 14.635 27.709c-1.09-.09-1.5-.726-1.636-.999-.045-.09-.09-.182-.09-.318 0-.318.272-.59.59-.59.273 0 .546.227.591.454.136.182.364.545.59.5.319-.046 1.91.181 3.637.544 1.363.273 1.545-.09 1.545-.227v-.953a2.02 2.02 0 0 1-1.182-.727c-.636-.454-1.227-.999-1.5-1.317-.727-.363-1.227-1.044-1.227-1.907 0-1.044.728-1.861 1.727-2.088.182-.137.864-.41 2.182-.455.136-.045.318-.045.454-.045s.319 0 .455.045c1.5.046 2.227.41 2.454.545.91.273 1.545 1.045 1.545 2.044 0 .862-.5 1.589-1.272 1.907-.318.318-.955.953-1.636 1.362a2.458 2.458 0 0 1-1.227.636v.908c0 .182.136.636 1.545.363 1.727-.363 2.5-.68 2.772-.68.318.045.682-.637.682-.637a.896.896 0 0 1 .59-.227zm-8.408-9.627a.954.954 0 1 1 0 1.908.954.954 0 0 1 0-1.908zm4-.59a1.181 1.181 0 1 1 0 2.362 1.181 1.181 0 0 1 0-2.362z"/></g></svg>