<svg xmlns="http://www.w3.org/2000/svg" width="26" height="26"><g fill="none" fill-rule="evenodd"><path d="M0 0h26v26H0z"/><g stroke="#000" stroke-linejoin="round" stroke-width="1.2" opacity=".7"><path d="M16 13a3 3 0 1 1-6 0 3 3 0 0 1 6 0Z"/><path d="M19.953 13c0-.295-.022-.584-.06-.868L21 10.826a7.92 7.92 0 0 0-2.045-3.406l-1.727.27a7.011 7.011 0 0 0-1.564-.871l-.62-1.575a8.626 8.626 0 0 0-4.087 0l-.62 1.575a7.002 7.002 0 0 0-1.565.87L7.045 7.42A7.925 7.925 0 0 0 5 10.826l1.107 1.306c-.038.284-.06.573-.06.868 0 .295.022.584.06.868L5 15.174a7.925 7.925 0 0 0 2.045 3.406l1.727-.27a7.002 7.002 0 0 0 1.564.871l.621 1.575a8.643 8.643 0 0 0 4.086 0l.621-1.575a7.002 7.002 0 0 0 1.564-.87l1.727.269A7.92 7.92 0 0 0 21 15.174l-1.107-1.306c.038-.284.06-.573.06-.868Z"/></g></g></svg>