<svg xmlns="http://www.w3.org/2000/svg" width="28" height="28"><g fill="none" fill-rule="evenodd"><circle cx="14" cy="14" r="13.5" fill="#FFF" stroke="#000" stroke-opacity=".1"/><path fill="#4C4C4C" d="M14.001 17.985a3.802 3.802 0 0 1-2.68-1.1 3.698 3.698 0 0 1-1.11-2.647c0-2.067 1.7-3.744 3.79-3.747 2.091.003 3.79 1.68 3.79 3.747 0 .998-.394 1.94-1.111 2.647a3.8 3.8 0 0 1-2.679 1.1ZM22 9.955a.961.961 0 0 0-.963-.951l-2.766.002-.568-1.188c-.29-.506-.592-.767-1.203-.795-.076-.004-4.921-.004-4.997 0-.612.028-.913.29-1.204.795L9.73 9.006l-2.767-.002c-.53 0-.964.63-.964 1.15v8.895c0 .523.434.953.964.953h14.073a.96.96 0 0 0 .963-.95V9.955Zm-10.1 4.283c0 .553.22 1.074.618 1.468.395.392.92.605 1.478.608a2.11 2.11 0 0 0 1.488-.608c.399-.394.619-.915.619-1.468 0-1.144-.94-2.072-2.097-2.078-1.167.006-2.106.934-2.106 2.078Z"/></g></svg>