<svg xmlns="http://www.w3.org/2000/svg" width="26" height="26"><g fill="none" fill-rule="evenodd"><path d="M0 0h26v26H0z"/><g fill="#4C4C4C" fill-rule="nonzero"><path d="M12.745 5.425c-4.337 0-7.858 3.449-7.858 7.709s3.521 7.71 7.858 7.71c3.428 0 6.424-2.173 7.47-5.309l.073-.23-1.142-.342c-.823 2.755-3.417 4.688-6.4 4.688-3.685 0-6.667-2.92-6.667-6.517 0-3.597 2.982-6.517 6.666-6.517 2.976 0 5.558 1.922 6.39 4.651l.063.223 1.152-.306c-.895-3.37-4.009-5.76-7.605-5.76Z"/><path d="m19.328 7.101.001 3.039h-3.057v1.192h4.248V7.101z"/></g></g></svg>