<svg fill="none" height="32" viewBox="0 0 32 32" width="32" xmlns="http://www.w3.org/2000/svg"><rect fill="#000" fill-opacity=".05" height="32" rx="16" width="32"/><g stroke="#262626" stroke-width="1.2"><path d="m19.4372 22.6458c1.2656 0 2.2916-1.026 2.2916-2.2916 0-1.2657-1.026-2.2917-2.2916-2.2917-1.2657 0-2.2917 1.026-2.2917 2.2917 0 1.2656 1.026 2.2916 2.2917 2.2916z"/><path d="m12.5622 13.9373c1.2656 0 2.2916-1.026 2.2916-2.2916 0-1.2657-1.026-2.2917-2.2916-2.2917-1.2657 0-2.2917 1.026-2.2917 2.2917 0 1.2656 1.026 2.2916 2.2917 2.2916z"/><path d="m14.8545 11.646h9.8542"/><path d="m6.83301 11.646h3.43749"/><path d="m21.7295 20.3542h2.9809"/><path d="m6.83301 20.3542h10.31249"/></g></svg>