<svg width="14" height="14" viewBox="0 0 14 14" fill="none" xmlns="http://www.w3.org/2000/svg">
<path fill-rule="evenodd" clip-rule="evenodd" d="M4.46231 2.69186C5.43 2.12185 6.56142 1.89423 7.67425 2.04568C8.75832 2.19321 9.76325 2.6921 10.5357 3.46463L9 5.00052H13V1.00001L11.2428 2.75748C10.3158 1.83049 9.10995 1.23185 7.80911 1.05481C6.4737 0.873074 5.116 1.14622 3.95477 1.83024C2.79354 2.51425 1.89642 3.5693 1.40795 4.82538C0.919491 6.08146 0.868139 7.46542 1.26217 8.75424C1.65621 10.0431 2.47268 11.1617 3.58002 11.9299C4.68737 12.6981 6.02109 13.0711 7.36629 12.9888C8.71149 12.9065 9.98982 12.3738 10.9953 11.4764C12.0008 10.5789 12.6748 9.36914 12.9088 8.0419L11.924 7.86825C11.729 8.97428 11.1673 9.98245 10.3294 10.7303C9.49152 11.4781 8.42624 11.9221 7.30524 11.9907C6.18424 12.0592 5.0728 11.7484 4.15002 11.1082C3.22723 10.4681 2.54684 9.53589 2.21848 8.46187C1.89012 7.38785 1.93291 6.23455 2.33996 5.18782C2.74701 4.14109 3.49462 3.26188 4.46231 2.69186Z" fill="white"/>
</svg>
