<svg xmlns="http://www.w3.org/2000/svg" width="32" height="32" fill="none"><circle cx="16" cy="16" r="15" fill="#fff" fill-opacity=".9"/><circle cx="16" cy="16" r="15.5" stroke="#000" stroke-opacity=".07"/><path fill="#000" fill-opacity=".85" fill-rule="evenodd" d="M16.892 8.3v3.294h1.2V8.3h-1.2Zm3.496 6.78h3.31v-1.2h-3.31v1.2Zm-9.096-1.2h3.305v1.2h-3.305v-1.2Zm5.6 3.486v3.294h1.2v-3.294h-1.2Zm-1.85-4.466-2.335-2.328.847-.85 2.335 2.328-.847.85Zm4.943 0 2.336-2.328-.847-.85-2.336 2.328.847.85ZM8.7 22.452l6.34-6.32.847.85-6.34 6.32-.847-.85Zm10.438-5.47 2.336 2.329.847-.85-2.336-2.328-.847.85Z" clip-rule="evenodd"/></svg>