<svg xmlns="http://www.w3.org/2000/svg" width="36" height="36" fill="none"><path fill="#fff" fill-rule="evenodd" d="M31.075 9.204c0-.664-.54-1.204-1.205-1.204H6.205C5.545 8 5 8.54 5 9.203V26.82c0 .665.54 1.203 1.205 1.203h9.465l1.143-1.212h-7.58l-2.069-.002h-.978v-8.807l.002-.327V9.211H16.59l6.053.002h4.198l2.069.001.15.001h.828V14.384l1.186-1.132V9.204ZM19.379 26.812l14.658-14.977.838.855-3.8 3.883V26.82c0 .664-.545 1.203-1.205 1.203h-10l-4.55 4.649-.838-.857 3.711-3.792h-.288l1.18-1.211h.294Zm1.676 0H29.887v-2.375l.001-5.776v-.875l-8.833 9.026Zm-.91-3.704 3.673-3.673-.837-.839-3.125 3.123-4.982-4.982-.061.06-.069-.067-5.877 5.878.838.838 5.083-5.083 4.983 4.983.305-.306.069.068Zm1.917-6.378c.832 0 1.506-.69 1.506-1.54 0-.85-.674-1.539-1.506-1.539s-1.507.69-1.507 1.54c0 .85.675 1.539 1.507 1.539Z" clip-rule="evenodd" opacity=".6"/></svg>