<svg xmlns="http://www.w3.org/2000/svg" xmlns:xlink="http://www.w3.org/1999/xlink" width="20" height="20" style="background:#fff"><defs><path id="a" d="M10 20C2.639 20 0 17.361 0 10 0 2.917 2.639 0 10 0c7.361 0 10 2.639 10 10 0 7.361-2.639 10-10 10Z"/></defs><g fill="none" fill-rule="evenodd"><mask id="b" fill="#fff"><use xlink:href="#a"/></mask><use xlink:href="#a" fill="#FF6229"/><g fill-rule="nonzero" mask="url(#b)"><g transform="translate(3.2 4.5)"><path fill="#FFF" d="m9.709 3.766 3.85 6.64H5.857z"/><path fill="#FF6229" d="M14.592 11 9.709 2.58 4.825 11h9.767ZM9.709 3.766l3.85 6.64H5.857l3.852-6.64Z"/><path fill="#FF6229" d="M9.277 6.045h1l-.182 2.045h-.653l-.165-2.045Zm.054 2.527h.827v.743H9.33v-.743Z"/><circle cx="5.238" cy="2.8" r="2.8" fill="#FFE8E0"/><path fill="#FFE8E0" d="M5.238 6.619c-.888 0-5.094.115-5.238 3.79h4.943l2.11-3.604a9.215 9.215 0 0 0-1.815-.186Z"/></g></g></g></svg>