<svg xmlns="http://www.w3.org/2000/svg" width="52" height="16"><g fill="none" fill-rule="evenodd"><rect width="50.6" height="14.6" x=".7" y=".7" stroke="#0053FF" stroke-width="1.4" rx="7.3"/><g transform="translate(3.5 2.5)"><path d="M0 0h11v11H0z"/><rect width="3.387" height="5.806" x="3.807" y="1.548" stroke="#0053FF" stroke-width="1.1" rx="1.693"/><path stroke="#0053FF" stroke-width="1.1" d="M9.128 5.757a3.628 3.628 0 0 1-4.661 3.48l-1.386.826V8.462a3.62 3.62 0 0 1-1.21-2.705"/></g><path fill="#0053FF" fill-rule="nonzero" d="M22.409 11.178v-.855h-3.185V8.73h2.301V4.543h-1.077v1.288H16.96v-1.27h-1.067v4.17h2.254v1.592H15v.855h7.409zm-1.96-3.303H16.96V6.66h3.488v1.215zm9.285 4.325V4h-1.067v8.2h1.067zm-4.426-1.785c1.343 0 2.125-1.206 2.125-2.918 0-1.73-.782-2.936-2.125-2.936-1.335 0-2.117 1.206-2.117 2.936 0 1.721.782 2.918 2.117 2.918zm0-.866c-.617 0-1.068-.763-1.068-2.052 0-1.297.45-2.07 1.068-2.07.635 0 1.095.773 1.095 2.07 0 1.289-.46 2.052-1.095 2.052zm6.294-.901c1.132-.249 2.596-1.123 3.02-2.228.468 1.077 1.886 1.933 3.009 2.19l.543-.837c-1.252-.211-2.982-1.288-2.982-2.733v-.543h-1.123v.543c0 1.454-1.629 2.54-2.973 2.733l.506.875zm6.728 2.484v-.855h-7.409v.855h7.409zm7.188-3.46v-.81h-4.584v-.534h4.372V4.221H39.82v.819h4.399v.506h-4.362v2.126h5.66zm-.166 4.427V9.577h-2.246v-.57h3.185V8.16h-7.409v.847h3.148v.57h-2.21V12.1h5.532zm-1.086-.82h-3.378v-.883h3.378v.884z"/></g></svg>