<svg xmlns="http://www.w3.org/2000/svg" width="46" height="16"><g fill="none" fill-rule="evenodd" transform="translate(.684 .7)"><rect width="44.6" height="14.6" stroke="#0053FF" stroke-width="1.4" rx="7.3"/><g transform="translate(2.8 1.8)"><path d="M0 0h11v11H0z"/><rect width="3.387" height="5.806" x="3.807" y="1.548" stroke="#0053FF" stroke-width="1.1" rx="1.693"/><path stroke="#0053FF" stroke-width="1.1" d="M9.128 5.757a3.628 3.628 0 0 1-4.661 3.48l-1.386.826V8.462a3.62 3.62 0 0 1-1.21-2.705"/></g><path fill="#0053FF" fill-rule="nonzero" d="m17.698 11.194 2.663-7.4h-1.413l-1.88 5.79-1.86-5.79H13.8l2.653 7.4h1.245Zm5.738.106c.529 0 .995-.122 1.399-.365.403-.243.714-.587.93-1.03a3.41 3.41 0 0 0 .326-1.513l-.006-.302c-.039-.82-.299-1.48-.78-1.977-.48-.497-1.107-.746-1.88-.746-.521 0-.983.121-1.385.363a2.433 2.433 0 0 0-.936 1.036c-.222.45-.333.954-.333 1.515v.063c0 .896.243 1.612.727 2.15.485.537 1.131.806 1.938.806Zm0-1.026c-.433 0-.772-.166-1.015-.5-.243-.333-.365-.793-.365-1.382 0-.663.124-1.16.37-1.494.247-.333.58-.5 1-.5.426 0 .764.17 1.012.508.249.338.373.797.373 1.375 0 .652-.12 1.147-.362 1.486-.242.338-.58.507-1.013.507Zm4.354-5.61c.233 0 .413-.064.54-.193a.661.661 0 0 0 .19-.484.677.677 0 0 0-.19-.491c-.127-.13-.307-.196-.54-.196-.233 0-.411.065-.537.196a.682.682 0 0 0-.187.491c0 .194.062.356.187.484.126.129.304.193.537.193Zm.64 6.53v-5.72h-1.285v5.72h1.285Zm3.65.106c.413 0 .797-.09 1.153-.27a2.19 2.19 0 0 0 .846-.732c.208-.308.32-.64.333-.997h-1.21a.957.957 0 0 1-.339.693c-.211.187-.477.28-.798.28-.423 0-.747-.152-.97-.457-.224-.305-.336-.768-.336-1.388v-.206c.003-.614.118-1.071.343-1.372.226-.302.547-.453.963-.453.324 0 .591.106.8.318.21.211.322.48.337.809h1.21c-.02-.645-.245-1.166-.674-1.563-.428-.396-.982-.595-1.663-.595-.803 0-1.438.262-1.903.786-.465.523-.698 1.22-.698 2.09v.133c0 .913.234 1.629.703 2.147.469.518 1.103.777 1.904.777h-.001Zm5.708 0a2.87 2.87 0 0 0 1.288-.283 2.31 2.31 0 0 0 .917-.796l-.693-.66c-.37.475-.85.713-1.438.713-.42 0-.767-.137-1.044-.412-.277-.275-.435-.649-.473-1.121h3.738v-.518c0-.91-.212-1.613-.637-2.11-.425-.497-1.027-.746-1.806-.746-.49 0-.934.126-1.332.376-.399.25-.708.6-.928 1.05-.22.449-.33.96-.33 1.53v.159c0 .853.252 1.536.758 2.049.506.513 1.166.769 1.98.769Zm1.026-3.5h-2.448c.06-.441.198-.785.415-1.031.217-.247.501-.37.854-.37.356 0 .634.11.835.33.201.22.316.545.344.975V7.8Z"/></g></svg>