<svg xmlns="http://www.w3.org/2000/svg" width="20" height="20"><g fill="none" fill-rule="evenodd"><path fill="#ff6229" d="M10 20C2.639 20 0 17.361 0 10 0 2.917 2.639 0 10 0c7.361 0 10 2.639 10 10 0 7.361-2.639 10-10 10z"/><g fill-rule="nonzero"><path fill="#fff" d="M10 4.239a5.761 5.761 0 1 1 0 11.523 5.761 5.761 0 0 1 0-11.523zm2.41 7.923-2.15-.001v3.045c.968-.436 1.754-1.574 2.15-3.044zm-2.672-.001-2.143.001c.395 1.467 1.179 2.603 2.143 3.041zm-2.683.001H5.226a5.252 5.252 0 0 0 3.388 2.892c-.711-.673-1.258-1.692-1.559-2.892zm7.719 0h-1.825c-.3 1.199-.846 2.217-1.555 2.89a5.255 5.255 0 0 0 3.38-2.89zm-7.849-3.7H4.991A5.238 5.238 0 0 0 4.76 10c0 .573.092 1.124.262 1.64h1.919a9.063 9.063 0 0 1-.147-1.637c0-.53.045-1.048.13-1.542zm2.813-.001H7.455a8.542 8.542 0 0 0-.138 1.542c0 .57.055 1.12.156 1.637l2.265-.001zm2.812 0h-2.29v3.178h2.272c.085-.435.138-.895.152-1.369l.004-.266c0-.535-.048-1.053-.138-1.542zm2.46 0h-1.93c.084.494.13 1.011.13 1.542 0 .565-.051 1.115-.147 1.637h1.914c.17-.516.262-1.067.262-1.64 0-.536-.08-1.052-.23-1.539zM8.621 4.944l-.081.023A5.252 5.252 0 0 0 5.18 7.94h1.851c.297-1.247.857-2.306 1.59-2.996zm1.116-.141.142-.059c-1.05.395-1.905 1.61-2.31 3.195h2.168zm1.645.143.095.09c.686.691 1.21 1.711 1.494 2.903h1.846a5.252 5.252 0 0 0-3.435-2.993zM10.26 4.8v3.138h2.175c-.385-1.508-1.179-2.681-2.16-3.132z" opacity=".7"/><path fill="#fff" d="m13.335 9.956 3.38 5.826H9.956z"/><g fill="#ff6229"><path d="m17.62 16.304-4.285-7.388-4.285 7.388zm-4.285-6.348 3.38 5.826H9.956z"/><path d="M12.956 11.956h.79l-.143 1.794h-.515zM13 14.173h.652v.652H13z"/></g></g></g></svg>