<svg width="24" height="24" viewBox="0 0 24 24" fill="none" xmlns="http://www.w3.org/2000/svg">
<g clip-path="url(#clip0_111_465)">
<path fill-rule="evenodd" clip-rule="evenodd" d="M22.0742 24H1.92575C0.862239 24 0 23.1381 0 22.0746V1.92578C0 0.862252 0.862239 0 1.92575 0H22.0742C23.1378 0 24 0.862252 24 1.92578V22.0746C24 23.1381 23.1378 24 22.0742 24Z" fill="#FAE100"/>
<path fill-rule="evenodd" clip-rule="evenodd" d="M12.0254 3.9729C17.1007 3.9729 21.2152 7.22346 21.2152 11.2334C21.2152 15.2434 17.1007 18.494 12.0254 18.494C11.4616 18.494 10.9089 18.4534 10.3728 18.377L6.64722 20.8914C6.59913 20.9298 6.54171 20.9485 6.48358 20.9485C6.41647 20.9485 6.34864 20.9223 6.29768 20.8713C6.22662 20.7999 6.20221 20.6958 6.23451 20.6L7.10049 17.3642C4.53701 16.0761 2.83521 13.8114 2.83521 11.2334C2.83521 7.22346 6.94976 3.9729 12.0254 3.9729ZM10.0996 9.12383C9.75692 9.12383 9.53692 9.3887 9.44541 9.63634L8.16959 13.0165C8.15667 13.0498 8.12904 13.1191 8.12904 13.2096C8.12904 13.4375 8.3196 13.6162 8.56185 13.6162C8.78184 13.6162 8.91606 13.5171 8.98461 13.3039L9.18163 12.7096H11.0184L11.2107 13.3108C11.2789 13.5164 11.4189 13.6162 11.64 13.6162C11.8646 13.6162 12.0408 13.4489 12.0408 13.2357C12.0408 13.202 12.0304 13.1159 11.9909 13.01L10.7542 9.63526C10.6394 9.31046 10.4007 9.12383 10.0996 9.12383ZM15.8363 9.12347C15.5815 9.12347 15.3964 9.30579 15.3964 9.55667V13.1956C15.3964 13.4468 15.5733 13.6158 15.8363 13.6158C16.0868 13.6158 16.276 13.4353 16.276 13.1956V12.0123L16.5914 11.69L17.7467 13.2641C17.916 13.4934 18.0076 13.5954 18.1698 13.6119C18.1927 13.6144 18.2157 13.6155 18.2383 13.6155C18.3327 13.6155 18.6428 13.5911 18.6772 13.2706C18.7006 13.0915 18.5936 12.9515 18.4641 12.7832L17.2123 11.1437L18.2703 10.076C18.3094 10.0315 18.3453 9.99165 18.3779 9.95576C18.5218 9.79677 18.5943 9.71709 18.5943 9.59615C18.5997 9.33774 18.3862 9.19633 18.1737 9.19095C18.0058 9.19095 17.8931 9.28318 17.8242 9.35138L16.276 10.9657V9.55667C16.276 9.2979 16.099 9.12347 15.8363 9.12347ZM8.31027 9.16331H5.58279C5.32727 9.16331 5.18946 9.36968 5.18946 9.56384C5.18946 9.74832 5.29245 9.9633 5.58279 9.9633H6.50726V13.1557C6.50726 13.4396 6.67558 13.6158 6.94653 13.6158C7.21749 13.6158 7.38616 13.4396 7.38616 13.1557V9.9633H8.31027C8.60097 9.9633 8.70432 9.74832 8.70432 9.56384C8.70432 9.36968 8.56615 9.16331 8.31027 9.16331ZM12.9387 9.12347C12.6674 9.12347 12.4988 9.29969 12.4988 9.58287V13.08C12.4988 13.3843 12.6707 13.5663 12.9581 13.5663H14.5968C14.8627 13.5663 15.0116 13.3693 15.017 13.1826C15.0231 13.0725 14.9858 12.9651 14.9137 12.8891C14.8379 12.8087 14.7285 12.7667 14.5968 12.7667H13.3777V9.58287C13.3777 9.29969 13.2097 9.12347 12.9387 9.12347ZM10.0606 9.93017C10.0635 9.9221 10.0752 9.9221 10.0781 9.93017L10.7543 11.9729H9.38553L10.0606 9.93017Z" fill="#3C1E1E"/>
</g>
<defs>
<clipPath id="clip0_111_465">
<rect width="24" height="24" fill="white"/>
</clipPath>
</defs>
</svg>
