<svg xmlns="http://www.w3.org/2000/svg" width="40" height="40"><path fill="none" fill-rule="evenodd" stroke="#E03535" stroke-width="1.2" d="m20.361 17.021-5.443 8.9c-.596.93-1.144 1.079-1.864 1.079-1.15 0-2.054-.91-2.054-2.033 0-.793.465-1.48 1.141-1.815 0 0 .68-.344 1.8-.344H26.06c1.12 0 1.8.344 1.8.344A2.03 2.03 0 0 1 29 24.967C29 26.089 28.068 27 26.919 27c-.72 0-1.261-.245-1.779-1.024l-5.35-8.955-1.491-2.436s-1.138-1.927.492-3.152c0 0 1.209-.974 2.513 0 0 0 1.544 1.082.47 3.152l-1.413 2.436Z"/></svg>