<svg width="22" height="22" viewBox="0 0 22 22" fill="none" xmlns="http://www.w3.org/2000/svg">
<g clip-path="url(#clip0_3330_2276)">
<path d="M18.0145 4.95981L4.31982 18.6547" stroke="#BFBFBF"/>
<circle cx="16.8306" cy="15.6176" r="4.35402" stroke="black" stroke-width="1.2"/>
<path d="M16.6782 13.1576V16.0603H19.2906" stroke="black" stroke-width="1.2"/>
<path fill-rule="evenodd" clip-rule="evenodd" d="M5.54947 2.77934L6.71912 5.14894C6.80999 5.33316 6.98556 5.46051 7.18834 5.49019L9.80336 5.87039C10.0494 5.90562 10.1471 6.20793 9.96966 6.38103L8.07732 8.22576C7.93081 8.36918 7.86342 8.57505 7.89804 8.77782L8.34439 11.3823C8.38643 11.6271 8.12987 11.8138 7.90979 11.6982L5.5711 10.4686C5.38935 10.3728 5.17236 10.3728 4.99061 10.4686L2.65192 11.6982C2.43184 11.8138 2.17467 11.6271 2.2167 11.3823L2.66367 8.77782C2.69829 8.57505 2.6309 8.36918 2.48439 8.22576L0.591433 6.38103C0.414007 6.20793 0.512302 5.90562 0.758349 5.87039L3.37275 5.49019C3.57614 5.46051 3.75172 5.33316 3.84259 5.14894L5.01162 2.77934C5.12167 2.55679 5.43943 2.55679 5.54947 2.77934Z" stroke="black" stroke-width="1.2"/>
</g>
<defs>
<clipPath id="clip0_3330_2276">
<rect width="22" height="22" fill="white"/>
</clipPath>
</defs>
</svg>
