<svg width="22" height="22" viewBox="0 0 22 22" fill="none" xmlns="http://www.w3.org/2000/svg">
<path d="M4.31641 10.5684L4.31683 18.4157H16.7193L16.7189 10.5684" stroke="black" stroke-width="1.1" stroke-linejoin="round"/>
<path fill-rule="evenodd" clip-rule="evenodd" d="M12.6641 4.57963H17.5156V8.71199C17.5156 9.97474 16.4297 10.9991 15.0901 10.9991C13.75 10.9991 12.6641 9.97474 12.6641 8.71199V4.57963Z" stroke="black" stroke-width="1.1" stroke-linejoin="round"/>
<path fill-rule="evenodd" clip-rule="evenodd" d="M8.26562 4.57963H12.748V8.71199C12.748 9.97474 11.7447 10.9991 10.5071 10.9991C9.26892 10.9991 8.26562 9.97474 8.26562 8.71199V4.57963Z" stroke="black" stroke-width="1.1" stroke-linejoin="round"/>
<path fill-rule="evenodd" clip-rule="evenodd" d="M3.49219 4.57963H8.32813V8.71199C8.32813 9.97474 7.2457 10.9991 5.91042 10.9991C4.57461 10.9991 3.49219 9.97474 3.49219 8.71199V4.57963Z" stroke="black" stroke-width="1.1" stroke-linejoin="round"/>
<path d="M12.3535 18.6046V14.2835C12.3535 14.0074 12.1296 13.7835 11.8535 13.7835H9.15234C8.8762 13.7835 8.65234 14.0074 8.65234 14.2835L8.65234 18.6046" stroke="black" stroke-width="1.1" stroke-linejoin="round"/>
</svg>
