<svg xmlns="http://www.w3.org/2000/svg" width="25" height="23"><g fill="none" fill-rule="evenodd"><path d="M0 0h25v23H0z"/><path stroke="#000" stroke-linecap="round" stroke-width="1.28" d="M14.272 3.2A8.723 8.723 0 0 0 9.33 1.68c-4.76 0-8.632 3.783-8.632 8.432 0 2.17.842 4.23 2.371 5.804.174.18.24.443.175.69l-.996 3.72a.447.447 0 0 0 .176.49.451.451 0 0 0 .52.006L6.34 18.53a1.38 1.38 0 0 1 1.067-.197c.628.14 1.275.21 1.923.21 4.14 0 7.608-2.86 8.44-6.665"/><g fill="#000"><path d="M9.3 14.874c-1.864 0-3.48-1.088-3.928-2.648a.548.548 0 1 1 1.054-.303c.309 1.075 1.518 1.855 2.874 1.855 1.357 0 2.566-.78 2.875-1.857a.548.548 0 1 1 1.054.303c-.449 1.56-2.064 2.65-3.929 2.65M5.621 9.37c-.436 0-.793-.375-.793-.833v-.762c0-.458.357-.833.793-.833.436 0 .794.375.794.833v.762c0 .458-.358.833-.794.833M12.786 9.37c-.436 0-.793-.375-.793-.833v-.762c0-.458.357-.833.793-.833.436 0 .793.375.793.833v.762c0 .458-.357.833-.793.833"/><path d="M9.179 11.82a.507.507 0 0 1-.14-.019c-.64-.184-1.086-.831-1.086-1.574 0-.743.447-1.39 1.086-1.574a.502.502 0 1 1 .278.965c-.174.05-.359.28-.359.609 0 .328.185.558.36.608a.502.502 0 0 1-.139.986"/></g><path fill="#000" d="M19.516 2.479a4.032 4.032 0 0 1 .2 8.058l-.2.005a4.032 4.032 0 1 1 0-8.063Zm.516 1.98h-1.024v1.55h-1.549v1.023h1.549v1.55h1.024v-1.55h1.55V6.01h-1.55v-1.55Z"/></g></svg>