<svg width="20" height="20" viewBox="0 0 20 20" fill="none" xmlns="http://www.w3.org/2000/svg">
<g clip-path="url(#clip0_667_2690)">
<path d="M10.0002 0.862091C7.54428 0.862091 5.24095 1.83632 3.53874 3.53853C1.83653 5.24073 0.862305 7.54406 0.862305 10C0.862305 12.456 1.83653 14.7593 3.53874 16.4615C5.24095 18.1637 7.54428 19.1379 10.0002 19.1379C12.4562 19.1379 14.7595 18.1637 16.4617 16.4615C18.1639 14.7593 19.1381 12.456 19.1381 10C19.1381 7.54406 18.1639 5.24073 16.4617 3.53853C14.7595 1.83632 12.4562 0.862091 10.0002 0.862091ZM10.0002 2.16978C12.1058 2.16978 14.0776 3.0038 15.537 4.4632C16.9964 5.9226 17.8305 7.89445 17.8305 10C17.8305 12.1056 16.9964 14.0774 15.537 15.5368C14.0776 16.9962 12.1058 17.8302 10.0002 17.8302C7.89466 17.8302 5.92282 16.9962 4.46342 15.5368C3.00402 14.0774 2.17 12.1056 2.17 10C2.17 7.89445 3.00402 5.9226 4.46342 4.4632C5.92282 3.0038 7.89466 2.16978 10.0002 2.16978Z" fill="#808080"/>
<path d="M9.93519 11.6687C10.1924 11.6687 10.4295 11.5001 10.5039 11.2415C10.5945 10.9283 10.4129 10.6013 10.0987 10.5114C9.89355 10.4526 9.67531 10.1824 9.67531 9.79703C9.67531 9.412 9.89316 9.14187 10.0983 9.08308C10.4125 8.99278 10.5938 8.66578 10.5035 8.35261C10.4129 8.03944 10.0844 7.85884 9.77055 7.94875C9.01713 8.16509 8.49121 8.92515 8.49121 9.79703C8.49121 10.6697 9.01752 11.4297 9.77132 11.6457C9.82607 11.6614 9.88121 11.6687 9.93519 11.6687Z" fill="#808080"/>
<path d="M13.4234 6.65063C12.991 6.65063 12.6372 7.00286 12.6372 7.43375V8.41752C12.6372 8.84805 12.991 9.20063 13.4234 9.20063H13.6066C14.039 9.20063 14.3928 8.84805 14.3928 8.41752V7.43375C14.3928 7.00286 14.039 6.65063 13.6066 6.65063H13.4234Z" fill="#808080"/>
<path d="M6.38639 9.20063C6.81876 9.20063 7.17255 8.84805 7.17255 8.41752V7.43375C7.17255 7.00286 6.81876 6.65063 6.38639 6.65063H6.20316C5.77078 6.65063 5.41699 7.00286 5.41699 7.43375V8.41752C5.41699 8.84805 5.77078 9.20063 6.20316 9.20063H6.38639Z" fill="#808080"/>
<path d="M13.0008 11.4942C12.6779 12.6136 11.4155 13.4262 9.99872 13.4262C8.58261 13.4262 7.32027 12.6143 6.997 11.4955C6.90952 11.1924 6.43426 11.016 6.13047 11.1035C5.82667 11.1907 5.56179 11.5989 5.64927 11.902C6.11812 13.5248 8.05225 14.6596 9.99872 14.6596C11.9459 14.6596 13.8016 13.5258 14.2698 11.902C14.3573 11.5989 14.1608 11.2775 13.8558 11.1035C13.5209 10.9376 13.0883 11.1914 13.0008 11.4942Z" fill="#808080"/>
</g>
<defs>
<clipPath id="clip0_667_2690">
<rect width="20" height="20" fill="white"/>
</clipPath>
</defs>
</svg>
