<svg xmlns="http://www.w3.org/2000/svg" width="18" height="18"><g fill="none" fill-rule="nonzero"><circle cx="9" cy="9" r="8.5" fill="#FFF" stroke="#B3B3B3"/><g fill="#000" opacity=".7"><path d="M8.935 5.204A.3.3 0 0 1 9 5.39v7.229a.3.3 0 0 1-.488.233l-2.587-2.084H4.48a.5.5 0 0 1-.5-.5V7.713a.5.5 0 0 1 .5-.5H5.91l2.604-2.059a.3.3 0 0 1 .421.05ZM10.674 5.934c.867.84 1.366 1.825 1.366 3.057 0 1.008-.334 2.137-.936 2.916l-.156.19-1.021-.882c.49-.567.764-1.459.764-2.224 0-.792-.293-1.365-.81-1.937l-.146-.152.94-.968Z"/><path d="M12.393 4.366c1.36 1.072 1.91 2.565 1.91 4.673 0 1.614-.625 3.232-1.67 4.356l-.19.193-.905-.933c.903-.877 1.466-2.253 1.466-3.616 0-1.648-.367-2.735-1.254-3.517l-.162-.135.805-1.021Z"/></g></g></svg>