<svg width="21" height="20" viewBox="0 0 21 20" fill="none" xmlns="http://www.w3.org/2000/svg">
<g clip-path="url(#clip0_5195_2012)">
<path d="M17.6655 3.17172L3.89893 16.9385" stroke="#CCCCCC"/>
<circle cx="15.6194" cy="14.2922" r="4.23711" stroke="#808080" stroke-width="1.2"/>
<path d="M15.4731 11.7554V14.7231H18.144" stroke="#808080" stroke-width="1.1"/>
<path fill-rule="evenodd" clip-rule="evenodd" d="M6.04784 1.63068L7.16926 3.90256C7.25639 4.07919 7.42472 4.20129 7.61913 4.22974L10.1263 4.59426C10.3622 4.62805 10.4559 4.91788 10.2858 5.08384L8.47146 6.85251C8.33098 6.99002 8.26638 7.1874 8.29957 7.38181L8.72751 9.87892C8.76781 10.1136 8.52184 10.2926 8.31083 10.1818L6.06858 9.00289C5.89432 8.91102 5.68628 8.91102 5.51202 9.00289L3.26977 10.1818C3.05876 10.2926 2.81219 10.1136 2.8525 9.87892L3.28103 7.38181C3.31423 7.1874 3.24962 6.99002 3.10915 6.85251L1.29425 5.08384C1.12414 4.91788 1.21838 4.62805 1.45428 4.59426L3.96088 4.22974C4.15588 4.20129 4.32421 4.07919 4.41134 3.90256L5.53217 1.63068C5.63768 1.4173 5.94233 1.4173 6.04784 1.63068Z" stroke="#808080" stroke-width="1.2"/>
</g>
<defs>
<clipPath id="clip0_5195_2012">
<rect width="20" height="20" fill="white" transform="translate(0.533203)"/>
</clipPath>
</defs>
</svg>
