<svg xmlns="http://www.w3.org/2000/svg" xmlns:xlink="http://www.w3.org/1999/xlink" width="221" height="191"><defs><path id="a" d="M.284.222h115.262v110.576H.284z"/><path id="c" d="M.248.242H33.13v18.176H.248z"/></defs><g fill="none" fill-rule="evenodd"><path fill="#FEFEFE" d="M22.403 55.774s-.918-7.443-9.358-6.342C2.545 50.8-1.051 71.399 4.087 88.83c4.66 15.81 14.753 25.919 31.41 34.35"/><path fill="#0F141B" d="M35.496 124.93c-.266 0-.536-.06-.789-.188-17.769-8.994-27.73-19.916-32.299-35.416C-1.485 76.12-.588 61.345 4.59 53.396c2.154-3.308 5-5.278 8.228-5.7 3.155-.41 5.785.18 7.822 1.757 3.003 2.328 3.481 5.954 3.5 6.106a1.75 1.75 0 0 1-3.473.439c-.08-.591-.972-5.67-7.396-4.831-2.214.288-4.148 1.68-5.749 4.139-4.584 7.04-5.322 20.93-1.756 33.03 4.331 14.693 13.46 24.647 30.523 33.283a1.75 1.75 0 0 1-.792 3.312"/><path fill="#FEFEFE" d="M34.664 121.013S24.509 108.22 29.579 94.09c4.52-12.595 70.4 6.25 72.034 22.817l-19.352 41.7-42.811 3.736-5.315-39.713"/><path fill="#FEFEFE" d="M62.564 160.296c-8.24 10.88.363 9.643 3.96 15.144 3.597 5.501-.002 13.958-9.728 12.37-10.221-1.672-22.174-11.3-18.705-31.345-.445-1.724-.944-3.708-1.325-5.89-2.987-17.124-1.981-32.347-1.981-32.347"/><path fill="#0F141B" d="M59.112 189.754c-.836 0-1.704-.072-2.599-.218-6.384-1.044-12.195-4.66-15.94-9.922-4.29-6.025-5.764-13.997-4.27-23.073-.427-1.662-.897-3.58-1.26-5.666-2.99-17.133-2.046-32.133-2.005-32.763a1.747 1.747 0 0 1 1.862-1.63 1.749 1.749 0 0 1 1.63 1.861c-.009.15-.954 15.23 1.96 31.93.368 2.112.862 4.077 1.295 5.754.062.24.073.492.031.736-1.435 8.291-.188 15.491 3.607 20.822 3.208 4.505 8.185 7.603 13.655 8.497 3.63.594 6.576-.392 8.08-2.705 1.353-2.079 1.314-4.819-.099-6.979-.89-1.363-2.233-2.276-3.53-3.16-1.822-1.24-3.706-2.523-4.104-4.95-.382-2.335.772-5.125 3.744-9.049a1.75 1.75 0 0 1 2.79 2.114c-2.802 3.7-3.22 5.505-3.079 6.368.147.901 1.091 1.584 2.62 2.624 1.432.976 3.216 2.19 4.49 4.138 2.17 3.321 2.211 7.562.101 10.803-1.89 2.905-5.084 4.468-8.979 4.468"/><path fill="#FEFEFE" d="M76.665 149.606c-8.592-2.04-12.763-5.818-19.089-8.515-10.085-4.3-16.139 5.626-10.328 14.16 6.825 10.025 21.572 15.054 35.43 13.046 10.114-1.465 16.304-8.325 17.428-19.5 1.124-11.173 1.506-31.89 1.506-31.89"/><path fill="#0F141B" d="M76.609 170.482c-12.707 0-24.803-5.427-30.808-14.246-3.317-4.872-3.43-10.72-.282-14.548 2.91-3.543 7.676-4.367 12.743-2.207 2.31.985 4.353 2.114 6.328 3.207 3.675 2.03 7.145 3.95 12.479 5.215a1.75 1.75 0 0 1-.807 3.406c-5.801-1.376-9.646-3.503-13.365-5.558-1.986-1.1-3.862-2.136-6.007-3.05-3.61-1.54-6.771-1.1-8.668 1.209-1.791 2.179-2.34 6.226.473 10.356 6.269 9.21 20.14 14.265 33.733 12.299 9.382-1.36 14.893-7.563 15.937-17.942 1.104-10.974 1.494-31.542 1.498-31.748.018-.967.829-1.748 1.782-1.718a1.75 1.75 0 0 1 1.717 1.782c-.003.208-.396 20.917-1.514 32.034-1.206 11.986-7.925 19.464-18.918 21.056a44.153 44.153 0 0 1-6.321.453"/><path fill="#F8D1D3" d="M104.632 38.264c-11.664-10.882-30.2-19.256-37.622-21.49-2.756-.83-3.907 1.03-3.907 1.03-6.136 8.9-17.557 13.003-29.48 21.699-12.52 9.134-23.213 20.148-22.739 38.844.247 9.709 5.055 19.25 13.078 26.084 8.672 7.386 22.038 11.357 42.842 11.673 23.702.36 37.302-4.975 47.411-13.66 7.302-6.272 11.127-16.594 11.237-25.727.174-14.4-7.403-25.934-20.82-38.453"/><path fill="#0F141B" d="M65.658 18.311c-.69 0-1.004.333-1.1.464-4.22 6.123-10.57 9.955-17.921 14.393-3.873 2.338-7.878 4.756-11.982 7.75-11.713 8.544-22.488 18.987-22.021 37.385.234 9.211 4.776 18.25 12.463 24.795 8.664 7.38 21.925 10.955 41.734 11.256 20.95.321 35.216-3.764 46.244-13.237 6.343-5.449 10.515-15.035 10.628-24.422.152-12.646-5.908-23.757-20.264-37.152-11.813-11.02-30.31-19.1-36.933-21.093a2.943 2.943 0 0 0-.848-.139m3.416 99.561c-.758 0-1.522-.006-2.296-.018-20.667-.314-34.633-4.156-43.95-12.092-8.443-7.19-13.434-17.166-13.693-27.37C8.625 58.33 20.707 46.76 32.592 38.09c4.228-3.083 8.299-5.54 12.236-7.917 7.006-4.229 13.056-7.88 16.834-13.362.644-1.043 2.66-2.672 5.853-1.712 6.869 2.067 26.052 10.448 38.31 21.886 15.15 14.135 21.543 26.024 21.378 39.753-.127 10.507-4.667 20.866-11.847 27.035-11.31 9.714-25.651 14.1-46.282 14.1"/><path fill="#EE8584" d="M26.29 81.554c.41 2.782 3.974 3.853 9.807 3.958 6.04.108 10.571-.48 10.628-3.59.04-2.089-3.91-4.267-10.968-4.316-5.832-.04-8.943.594-9.468 3.948M81.983 81.561c.405 2.782 3.933 3.852 9.705 3.956 5.977.107 10.462-.483 10.52-3.592.04-2.089-3.87-4.266-10.855-4.314-5.77-.039-8.85.596-9.37 3.95"/><path fill="#FEFEFE" d="M56.908 64.997c.102-6.341-4.807-12.46-16.71-12.52-15.099-.077-18.472 6.488-18.504 12.832-.032 6.345 5.534 11.91 18.142 11.864 10.008-.035 16.931-3.383 17.072-12.176"/><path fill="#0F141B" d="M39.934 54.226c-6.273 0-10.806 1.2-13.477 3.568-2.011 1.783-2.996 4.244-3.013 7.524-.011 2.251.833 4.292 2.44 5.902 2.769 2.772 7.566 4.2 13.946 4.203 10.202-.036 15.216-3.456 15.328-10.454.042-2.574-.867-4.884-2.626-6.68-2.574-2.63-6.843-4.035-12.344-4.063h-.254m-.25 24.697c-7.232 0-12.857-1.807-16.276-5.23-2.282-2.285-3.48-5.188-3.464-8.393.022-4.272 1.432-7.678 4.19-10.125 3.372-2.989 8.81-4.465 16.072-4.449 6.457.033 11.584 1.801 14.827 5.113 2.393 2.445 3.68 5.707 3.625 9.185-.101 6.31-3.447 13.844-18.816 13.9h-.157"/><path fill="#FEFEFE" d="M110.347 64.997c.101-6.28-4.66-12.33-16.712-12.4-15.219-.088-18.47 6.422-18.501 12.705-.032 6.283 5.534 11.794 18.142 11.751 10.009-.035 16.931-3.348 17.071-12.056"/><path fill="#0F141B" d="M93.33 54.346c-6.298 0-10.833 1.186-13.482 3.526-1.978 1.748-2.948 4.18-2.964 7.439-.011 2.206.82 4.209 2.402 5.795 1.927 1.93 5.946 4.24 13.984 4.198 10.203-.036 15.216-3.416 15.327-10.334v-.001c.042-2.553-.847-4.833-2.57-6.593-2.547-2.604-6.836-3.997-12.403-4.03h-.293m-.2 24.458c-7.266 0-12.907-1.806-16.322-5.226-2.256-2.26-3.441-5.125-3.425-8.284.02-4.253 1.416-7.633 4.147-10.045 3.354-2.963 8.728-4.448 16.114-4.402 6.522.038 11.669 1.794 14.885 5.082 2.39 2.442 3.623 5.588 3.567 9.097-.1 6.256-3.446 13.724-18.815 13.778h-.15"/><path fill="#FEFEFE" d="M64.603 99.58c-7.112 0-11.385-2.858-12.876-4.504-2.011-2.22-3.285-5.3-1.73-7.882 1.519-2.52 4.623-2.738 7.34-1.51 1.237.56 3.67 2.2 7.27 2.233 4.975.044 7.493-1.312 9.293-2.014 2.955-1.161 5.842-.917 7.234 1.793 1.219 2.377.482 6.044-2.51 8.296-3.625 2.719-8.367 3.588-14.021 3.588"/><path fill="#0F141B" d="M54.165 86.71c-1.057 0-2.058.373-2.668 1.387-1.099 1.823.068 4.194 1.526 5.804 1.322 1.46 5.248 3.93 11.58 3.93 5.985 0 9.985-1 12.971-3.239 2.315-1.743 2.837-4.47 2.003-6.098-1.04-2.023-3.314-1.64-5.037-.962-.224.087-.455.183-.7.285-1.814.753-4.557 1.882-9.247 1.85-3.395-.03-5.845-1.297-7.309-2.054a15.33 15.33 0 0 0-.667-.334c-.742-.335-1.615-.569-2.452-.569m10.438 14.62c-7.066 0-12.052-2.737-14.173-5.079-2.939-3.244-3.679-7.06-1.932-9.96 1.848-3.066 5.69-3.949 9.56-2.2.238.106.516.25.833.413 1.264.653 3.173 1.64 5.733 1.663 3.985.028 6.23-.9 7.874-1.582.27-.113.524-.218.766-.313 4.142-1.628 7.757-.624 9.426 2.624 1.735 3.384.44 7.895-3.013 10.494-3.585 2.688-8.374 3.94-15.074 3.94M41.695 64.824a3.028 3.028 0 1 0-6.057.001 3.028 3.028 0 0 0 6.057 0"/><path fill="#FEFEFE" d="M121.475 108.013c48.845 6.287 76.338-24.646 66.237-67.05-7.115-29.87-34.558-41.688-62.754-38.77-14.207 1.471-33.518 8.661-42.667 29.153-5.51 12.34-6.098 28.033.511 43.787"/><g transform="translate(76 -.222)"><mask id="b" fill="#fff"><use xlink:href="#a"/></mask><path fill="#0F141B" d="M57.748 110.798c-4.027 0-8.199-.273-12.497-.827a1.75 1.75 0 1 1 .447-3.471c23.41 3.013 42.816-2.568 54.642-15.717 10.904-12.124 14.338-29.594 9.67-49.193-3.215-13.494-11.039-24.061-22.626-30.56C76.87 5.133 63.285 2.69 49.138 4.156c-9.045.936-31.17 5.552-41.249 28.126-5.656 12.665-5.463 28.118.526 42.397a1.75 1.75 0 0 1-3.227 1.353C-1.174 60.866-1.355 44.4 4.692 30.856 15.516 6.614 39.128 1.674 48.778.675c32.654-3.38 58.028 12.36 64.636 40.103 4.943 20.75 1.224 39.34-10.472 52.345-10.412 11.577-26.184 17.675-45.194 17.675" mask="url(#b)"/></g><path fill="#FEFEFE" d="m114.554 149.738 31.387 8.521 26.634-37.713 1.456-46.41s-65.745 18.741-66.62 18.218c-.877-.522-9.087 27.546-9.087 27.546"/><path fill="#FEFEFE" d="M99.228 108.85s-3.439 23.257.077 41.425c.633 3.275 1.282 5.723 2.23 8.792-2.544 21.816 10.93 27.79 17.33 29.517 7.81 2.107 14.926-3.6 12.27-10.073-2.978-7.252-13.644-6.085-5.44-22.571"/><path fill="#0F141B" d="M122.18 190.778c-1.242 0-2.512-.165-3.77-.504-3.66-.987-8.866-3.136-12.886-7.768-4.902-5.648-6.842-13.477-5.769-23.273-.82-2.681-1.508-5.213-2.168-8.626-3.532-18.251-.232-41.051-.09-42.012a1.75 1.75 0 1 1 3.462.512c-.033.23-3.353 23.18.064 40.835.579 2.993 1.171 5.326 2.184 8.609.072.232.094.477.066.719-.984 8.435-.206 23.239 16.048 27.625 4.082 1.099 7.606-.335 9.29-2.245 1.386-1.574 1.708-3.518.904-5.475-.757-1.846-2.178-3.087-3.683-4.402-3.745-3.273-7.989-6.982-1.705-19.613a1.75 1.75 0 0 1 3.134 1.559c-5.082 10.213-2.453 12.51.875 15.418 1.662 1.453 3.546 3.099 4.617 5.709 1.317 3.207.764 6.53-1.516 9.118-2.171 2.462-5.499 3.814-9.057 3.814"/><path fill="#FEFEFE" d="M172.827 117.428s0 18.153-5.678 30.307c-4.97 10.637-12.703 17.444-24.531 18.96-14.787 1.892-36.989-3.512-45.766-12.98-7.478-8.066-.489-17.565 10.605-13.939 11.204 3.662 21 5.428 31.334 6.854"/><path fill="#0F141B" d="M136.381 168.815c-14.29 0-32.563-5.011-40.812-13.91-3.836-4.136-4.665-9.133-2.163-13.041 2.742-4.28 8.47-5.755 14.595-3.751 11.643 3.806 21.794 5.51 31.028 6.785a1.749 1.749 0 1 1-.478 3.466c-9.396-1.296-19.732-3.032-31.638-6.924-4.559-1.492-8.705-.583-10.559 2.312-1.6 2.5-.919 5.862 1.781 8.774 8.585 9.26 30.448 14.199 44.26 12.433 10.574-1.354 18.153-7.23 23.168-17.964 5.444-11.652 5.514-29.39 5.514-29.567a1.75 1.75 0 0 1 1.75-1.75h.001a1.75 1.75 0 0 1 1.75 1.75c0 .758-.067 18.685-5.844 31.048-5.564 11.909-14.035 18.436-25.895 19.954-2.013.258-4.187.385-6.458.385"/><path fill="#FEFEFE" d="M170.73 94.246c2.467-1.858 10.237-5.2 15.767-25.597 1.682-6.205 2.962-13.822 4.887-17.26 2.772-4.954 6.346-6.417 10.616-5.062 5.658 1.796 8.514 8.544 6.908 22.838-2.25 20.013-11.725 39.102-38.765 53.416"/><path fill="#0F141B" d="M170.145 124.332a1.749 1.749 0 0 1-.82-3.297c23.207-12.285 35.232-28.828 37.844-52.065 1.38-12.28-.537-19.336-5.698-20.974-2.444-.775-5.626-.994-8.56 4.247-1.205 2.154-2.232 6.537-3.225 10.776-.477 2.03-.968 4.13-1.5 6.089-5.147 18.986-12.201 23.706-15.59 25.974-.315.21-.59.393-.814.563a1.75 1.75 0 0 1-2.105-2.796c.269-.203.595-.423.972-.675 3.037-2.032 9.354-6.26 14.16-23.982.515-1.901 1-3.97 1.469-5.972 1.097-4.681 2.133-9.101 3.579-11.686 3.887-6.945 9.036-7.028 12.672-5.874 7.078 2.246 9.734 10.326 8.118 24.7-2.715 24.155-15.696 42.07-39.685 54.768a1.732 1.732 0 0 1-.817.204"/><path fill="#8E2422" d="M123.975 108.013c-10.577-1.362-24.107 1.503-30.423-3.282-2.761-7.337-3.239-17.762-8.25-29.598 0 0 32.696-6.263 33.583-6.263.887 0 45.523.91 45.94 1.222.417.313 9.252 21.681 9.252 21.681l-28.53 18.422"/><path fill="#0F141B" d="M145.548 111.945a1.748 1.748 0 0 1-.95-3.22l27.304-17.631c-2.855-6.889-6.923-16.595-8.193-19.349-6.007-.331-41.703-1.106-44.753-1.124-1.53.187-18.722 3.438-31.23 5.83 2.471 6.368 3.716 12.231 4.826 17.462.786 3.705 1.471 6.934 2.456 9.707 3.67 2.427 10.136 2.347 16.964 2.261 4.097-.052 8.332-.105 12.226.397a1.75 1.75 0 1 1-.447 3.471c-3.65-.471-7.759-.42-11.735-.368-7.705.094-14.979.187-19.52-3.254-.265-.2-.466-.47-.582-.779-1.178-3.13-1.959-6.811-2.786-10.709-1.193-5.62-2.544-11.99-5.437-18.823a1.75 1.75 0 0 1 1.282-2.401c14.99-2.872 33.041-6.295 33.912-6.295.503 0 12.112.234 23.187.494 23.09.544 23.185.615 23.802 1.078.483.362.801.601 9.82 22.413.323.78.042 1.68-.668 2.138l-28.53 18.422a1.74 1.74 0 0 1-.948.28"/><path fill="#FEFEFE" d="M81.116 73.357s-1.248 6.16 1.418 10.482c1.122 1.82 2.966 3.117 5.621 3.753 6.876 1.65 11.676-2.014 11.941-2.58l1.271-12.199"/><path fill="#0F141B" d="M91.694 89.769c-1.24 0-2.561-.142-3.947-.474-3.04-.73-5.295-2.256-6.702-4.537-2.994-4.856-1.7-11.47-1.644-11.748a1.75 1.75 0 0 1 3.431.692c-.011.055-1.07 5.552 1.192 9.219.917 1.486 2.4 2.458 4.539 2.97 5.064 1.214 8.76-.818 9.857-1.67l1.207-11.59a1.75 1.75 0 0 1 3.481.363l-1.271 12.198c-.02.195-.072.384-.155.56-.551 1.179-4.437 4.016-9.988 4.017Z"/><path fill="#FEFEFE" d="M96.602 75.457s-.337 6.95 2.063 10.427c1.066 1.544 2.828 2.63 5.35 2.913 9.913 1.116 11.748-5.64 11.748-5.64l1.13-8.243"/><path fill="#0F141B" d="M106.09 90.668c-.718 0-1.475-.042-2.272-.131-2.884-.325-5.164-1.59-6.593-3.66-2.66-3.851-2.408-10.733-2.37-11.505.046-.965.875-1.691 1.831-1.662a1.75 1.75 0 0 1 1.664 1.83c-.083 1.773.07 6.908 1.755 9.35.848 1.228 2.23 1.958 4.104 2.168 7.704.869 9.587-3.566 9.84-4.286l1.11-8.096a1.756 1.756 0 0 1 1.972-1.496 1.75 1.75 0 0 1 1.496 1.97l-1.13 8.246a2.11 2.11 0 0 1-.045.22c-.703 2.587-3.957 7.052-11.362 7.052"/><path fill="#FEFEFE" d="M113.402 74.525c-.133 4.227-.336 8.305 1.149 10.85 1.007 1.722 3.123 2.998 6.13 3.117 10.91.43 12.375-6.266 12.375-6.266l.637-8.244"/><path fill="#0F141B" d="M121.685 90.262c-.35 0-.706-.007-1.073-.021-3.411-.135-6.171-1.587-7.572-3.984-1.674-2.867-1.543-6.93-1.405-11.231l.018-.556c.03-.966.81-1.73 1.804-1.694a1.75 1.75 0 0 1 1.694 1.804l-.018.559c-.122 3.783-.237 7.356.929 9.352.786 1.345 2.495 2.166 4.688 2.252 8.69.34 10.37-4.131 10.573-4.807l.625-8.09a1.74 1.74 0 0 1 1.879-1.61 1.75 1.75 0 0 1 1.61 1.88l-.636 8.245c-.006.08-.018.16-.035.238-.071.323-1.811 7.663-13.081 7.663"/><path fill="#FEFEFE" d="M129.336 74.213s-.06 7.279 2.254 10.304c1.195 1.562 3.337 2.225 6.857 1.916 8.952-.785 9.143-6.512 9.143-6.512l.554-6.251"/><path fill="#0F141B" d="M136.9 88.255c-3.127 0-5.328-.881-6.7-2.674-2.603-3.404-2.62-10.576-2.613-11.382.007-.966.84-1.757 1.763-1.736a1.752 1.752 0 0 1 1.737 1.763c-.02 2.587.479 7.379 1.894 9.228.302.395 1.22 1.594 5.314 1.236 7.17-.63 7.536-4.685 7.548-4.857l.558-6.318a1.75 1.75 0 1 1 3.487.309l-.554 6.25c-.078 2.422-2.431 7.374-10.733 8.102-.595.053-1.161.079-1.7.079"/><path fill="#FEFEFE" d="M145.489 72.095s0 5.197 2.102 7.825c1.21 1.514 3.55 2.222 5.74 2.066 10.377-.74 7.536-10.776 7.536-10.776"/><path fill="#0F141B" d="M152.707 83.758c-2.665 0-5.101-1.018-6.483-2.745-2.416-3.02-2.485-8.323-2.485-8.918a1.75 1.75 0 0 1 3.5-.002c.003 1.28.317 4.982 1.719 6.734.777.971 2.49 1.54 4.25 1.413 2.496-.178 4.26-.972 5.24-2.36 1.737-2.455.744-6.162.734-6.199a1.752 1.752 0 0 1 1.216-2.153 1.746 1.746 0 0 1 2.153 1.206c.06.215 1.46 5.313-1.227 9.143-1.614 2.301-4.261 3.597-7.867 3.854-.252.018-.502.027-.75.027ZM93.091 29.855a2.374 2.374 0 0 1-1.567-4.16c4.327-3.797 12.333-5.556 19.686-.448a2.375 2.375 0 0 1-2.71 3.901c-5.257-3.653-10.862-2.499-13.844.117-.45.396-1.009.59-1.565.59M162.394 29.98c-.493 0-.991-.146-1.427-.449-8.571-5.97-15.736-.775-16.036-.55a2.506 2.506 0 0 1-3.496-.494 2.494 2.494 0 0 1 .47-3.488c.269-.205 2.728-2.023 6.614-2.888 3.647-.812 9.26-.894 15.307 3.318a2.5 2.5 0 0 1-1.432 4.551M104.829 43.187c-.303 1.775-1.907 3.355-4.221 3.021-1.772-.256-2.903-1.845-2.812-3.643.098-1.965 1.463-3.482 3.68-3.4 1.79.066 3.805 1.371 3.353 4.022M156.904 43.449c-.324 1.897-1.56 3.43-4.033 3.074-1.896-.273-3.656-1.677-3.417-3.586.24-1.91 1.447-3.21 3.35-3.42 2-.221 4.583 1.099 4.1 3.932"/><path fill="#F9BE00" d="M85.97 102.456c-4.115 3.108-4.03 10.548 1.618 13.45 4.63 2.377 24.007 5.121 47.143 1.246 18.544-3.105 30.736-10.61 36.245-15.628 8.443-7.69 10.963-15.453 10.4-23.448-.714-10.18-6.985-18.647-18.521-20.586-8.183-1.398-17.805 1.494-22.931 1.328-.081-7.182-4.504-13.13-13.914-13.834-9.525-.71-15.577 6.38-15.83 13.981-14.716.858-22.44-2.828-28.874-2.879-7.828-.06-11.438 4.09-11.951 8.721-.89 8.026 7.255 10.707 10.605 11.657 9.49 2.69 22.874 3.961 47.83 2.068 20.007-1.506 27.817-6.706 33.578-3.565 6.166 3.36 4.394 11.78-4.607 16.993-11.282 6.495-31.333 9.602-49.65 9.078-7.894-.226-16.575-2.03-21.141 1.418"/><path fill="#0F141B" d="m85.97 102.456 1.055 1.396c-1.515 1.145-2.343 3.174-2.16 5.296.195 2.255 1.479 4.151 3.523 5.201 3.798 1.95 22.445 5.032 46.054 1.077 21.227-3.554 32.428-12.53 35.356-15.196 7.298-6.648 10.423-13.649 9.833-22.03-.717-10.212-7.096-17.308-17.066-18.984-4.877-.834-10.32-.056-15.121.63-2.961.422-5.513.794-7.577.721a1.749 1.749 0 0 1-1.693-1.729c-.08-7.117-4.561-11.53-12.294-12.109-3.794-.28-7.161.79-9.736 3.1-2.56 2.297-4.096 5.65-4.215 9.194a1.749 1.749 0 0 1-1.647 1.69c-9.597.561-16.213-.754-21.528-1.809-2.84-.564-5.291-1.05-7.461-1.068h-.156c-5.88 0-9.537 2.605-10.042 7.164-.516 4.653 2.54 7.852 9.343 9.78 10.759 3.05 25.322 3.668 47.22 2.007 8.78-.66 15.064-2.018 20.114-3.109 6.42-1.387 10.664-2.304 14.434-.248 2.89 1.576 4.506 4.157 4.547 7.268.059 4.59-3.433 9.486-9.114 12.777-10.821 6.228-30.66 9.881-50.577 9.313-1.895-.055-3.836-.198-5.713-.337-5.84-.432-11.358-.84-14.324 1.401l-1.055-1.396Zm25.768 18.38c-12.641 0-21.904-1.81-24.95-3.374-3.137-1.612-5.11-4.532-5.41-8.012-.286-3.31 1.07-6.526 3.537-8.39 4.019-3.036 10.175-2.582 16.692-2.1 1.838.136 3.739.277 5.555.33 19.303.556 38.43-2.92 48.726-8.846 5.48-3.175 7.399-7.093 7.365-9.7-.024-1.817-.965-3.283-2.722-4.24-2.628-1.433-6.163-.67-12.02.596-4.883 1.054-11.57 2.498-20.59 3.177-22.326 1.692-37.264 1.036-48.438-2.13-10.711-3.036-12.366-9.035-11.867-13.533.555-5.015 4.424-10.36 13.704-10.278 2.5.02 5.103.537 8.115 1.135 4.832.96 10.783 2.14 19.129 1.82.509-3.886 2.37-7.49 5.242-10.068 3.3-2.962 7.558-4.342 12.334-3.984 8.838.66 14.61 5.886 15.433 13.793 1.52-.1 3.348-.362 5.376-.65 4.807-.687 10.789-1.542 16.2-.617 11.494 1.932 19.149 10.434 19.973 22.19.662 9.404-2.925 17.538-10.968 24.863-3.106 2.83-14.963 12.347-37.134 16.06a141.87 141.87 0 0 1-23.282 1.957Z"/><path fill="#0F141B" d="M121.801 57.31c-.202 1.453-1.448 2.748-3.303 2.477a2.752 2.752 0 0 1-2.325-2.98c.14-1.46 1.251-2.883 2.863-2.785 1.43.088 3.068 1.12 2.765 3.288M134.02 57.756c-.205 1.478-1.472 2.794-3.358 2.518a2.797 2.797 0 0 1-2.364-3.028c.14-1.487 1.052-2.96 2.91-2.833 1.454.1 3.12 1.137 2.812 3.343"/><path fill="#F9BE00" d="M184.701 172.934c-3.395-.085-7.802.326-11.925 1.653-3.039.98-5.178 2.284-6.008 4.596-1.386 3.858 2.397 8.42 7.791 5.726 1.449 1.58 4.371 2.37 7.468.035 1.553 2.071 5.341 2.647 10.014-.6 3.027-2.103 3.949-3.585 3.799-5.697-.371-5.259-6.303-5.59-11.139-5.713"/><path fill="#0F141B" d="M182.027 183.195a1.752 1.752 0 0 1 1.4.7c1.055 1.405 4.01 1.518 7.616-.987 2.953-2.052 3.129-3.048 3.052-4.137-.23-3.242-3.493-3.938-9.438-4.087-3.81-.093-7.948.476-11.344 1.57-2.88.927-4.345 1.98-4.898 3.52a3.176 3.176 0 0 0 .87 3.422c1.096.974 2.733 1.026 4.492.148a1.75 1.75 0 0 1 2.072.382c.993 1.083 2.965 1.448 5.125-.178a1.75 1.75 0 0 1 1.053-.353m3.842 5.181c-1.622 0-3.001-.463-4.05-1.218-2.9 1.583-5.7 1.125-7.578-.21-2.697.971-5.355.576-7.28-1.136-2.011-1.785-2.75-4.687-1.84-7.22 1.216-3.385 4.443-4.809 7.119-5.67 5.14-1.655 10.04-1.797 12.505-1.737 4.315.108 12.345.31 12.84 7.34.23 3.242-1.65 5.245-4.545 7.256-2.658 1.847-5.11 2.595-7.171 2.595"/><path fill="#0F141B" d="M174.54 186.653c-.451 0-.9-.176-1.24-.528-1.136-1.177-2.64-4.285-.201-7.627a1.75 1.75 0 1 1 2.827 2.062c-1.215 1.666-.375 2.836-.088 3.155.638.71.6 1.812-.098 2.462-.34.317-.77.476-1.2.476M182.027 186.695a1.74 1.74 0 0 1-1.257-.534c-.965-.995-2.261-3.698-.263-6.798a1.75 1.75 0 0 1 2.942 1.897c-1.01 1.565-.173 2.459-.165 2.468a1.748 1.748 0 0 1-1.257 2.966"/><path fill="#F9BE00" d="M208.81 173.906c-4.105-.294-8.813-.21-13.17 1.194-3.211 1.035-5.466 2.973-6.344 5.417-1.464 4.077 2.535 8.898 8.235 6.052 1.53 1.668 4.62 2.503 7.892.036 1.642 2.19 4.895 2.502 8.917.504 2.908-1.444 4.278-4.36 4.01-6.58-.553-4.576-4.292-6.248-9.54-6.623"/><g transform="translate(187 171.778)"><mask id="d" fill="#fff"><use xlink:href="#c"/></mask><path fill="#0F141B" d="M18.423 13.078a1.752 1.752 0 0 1 1.4.7c1.14 1.52 3.66 1.516 6.74-.013 2.223-1.105 3.231-3.3 3.05-4.805-.273-2.254-1.428-4.621-7.928-5.086-4.984-.356-9.075.008-12.508 1.114C6.498 5.85 4.64 7.394 3.943 9.33a3.458 3.458 0 0 0 .947 3.724c1.19 1.056 2.961 1.119 4.86.17a1.748 1.748 0 0 1 2.07.383c1.082 1.178 3.218 1.58 5.55-.177.305-.23.675-.353 1.053-.353m3.987 5.34c-1.636 0-3.077-.453-4.227-1.352-3.059 1.68-6.01 1.188-7.974-.232-2.83 1.037-5.624.63-7.643-1.162C.471 13.812-.299 10.788.65 8.148 1.72 5.166 4.367 2.86 8.104 1.657 11.974.41 16.498-.007 21.935.383c2.536.182 10.255.734 11.152 8.158.333 2.762-1.267 6.52-4.969 8.358-2.046 1.016-3.986 1.519-5.708 1.519" mask="url(#d)"/></g><path fill="#0F141B" d="M197.514 188.313c-.452 0-.902-.176-1.242-.529-1.181-1.222-2.743-4.454-.204-7.933a1.75 1.75 0 0 1 2.827 2.063c-1.331 1.824-.403 3.11-.087 3.46.64.708.604 1.811-.094 2.462-.34.318-.771.477-1.2.477M205.397 188.346c-.448 0-.893-.174-1.231-.523-1-1.033-2.343-3.84-.265-7.062a1.75 1.75 0 1 1 2.941 1.897c-1.002 1.555-.356 2.506-.133 2.76.624.715.58 1.815-.118 2.458a1.76 1.76 0 0 1-1.194.47M207.35 177.058c-2.918 0-5.886-.41-6.973-1.37-.691-.61-.935-1.504-.635-2.335a1.75 1.75 0 0 1 3.193-.225c1.803.555 7.746.639 9.192-.096a1.75 1.75 0 1 1 1.587 3.119c-1.12.57-3.721.907-6.364.907M185.651 176.433c-1.647 0-3.23-.174-4.349-.462-1.634-.422-2.652-1.104-3.112-2.088a1.75 1.75 0 0 1 3.093-1.63c1.264.938 7.5.916 8.83-.052a1.752 1.752 0 0 1 2.06 2.83c-1.378 1.002-4.022 1.402-6.522 1.402"/></g></svg>