<svg xmlns="http://www.w3.org/2000/svg" width="30" height="30" fill="none"><path fill="#000" d="M14.5 4C20.851 4 26 9.149 26 15.5S20.851 27 14.5 27 3 21.851 3 15.5 8.149 4 14.5 4Zm0 1.5c-5.523 0-10 4.477-10 10s4.477 10 10 10 10-4.477 10-10-4.477-10-10-10Zm3.432 12.377a.663.663 0 0 1 1.274.366c-.542 1.88-2.496 3.194-4.752 3.194-2.254 0-4.208-1.313-4.751-3.193a.663.663 0 0 1 1.275-.366c.374 1.297 1.836 2.237 3.476 2.237 1.642 0 3.104-.941 3.478-2.238Zm-3.793-3.94a.606.606 0 1 1 .336 1.164c-.21.06-.434.338-.434.733 0 .396.224.673.435.734a.605.605 0 1 1-.336 1.164c-.774-.222-1.314-1.002-1.314-1.898 0-.895.54-1.675 1.313-1.897Zm4.997-2.062a.86.86 0 0 1 .86.856v1.076a.86.86 0 0 1-.86.856h-.2a.86.86 0 0 1-.86-.856V12.73a.86.86 0 0 1 .86-.856h.2Zm-9.311 0a.86.86 0 0 1 .86.856v1.076a.86.86 0 0 1-.86.856h-.2a.86.86 0 0 1-.86-.856V12.73a.86.86 0 0 1 .86-.856h.2Z"/></svg>