<svg xmlns="http://www.w3.org/2000/svg" width="30" height="24"><g fill="none" fill-rule="evenodd"><path d="M0 0h30v24H0z"/><path fill="#FAE100" d="M18.042 6.424c0-.735.146-1.437.408-2.079a9.471 9.471 0 0 0-6.399-2.47c-5.176 0-9.387 4.114-9.387 9.17a9.02 9.02 0 0 0 2.579 6.313.786.786 0 0 1 .19.748l-1.084 4.047a.486.486 0 0 0 .192.533.493.493 0 0 0 .565.007L8.8 20.2a1.5 1.5 0 0 1 1.162-.215 9.632 9.632 0 0 0 2.09.23c5.018 0 9.13-3.867 9.375-8.71a5.515 5.515 0 0 1-3.384-5.081"/><path fill="#000" d="M12.046 15.761c-1.819 0-3.395-1.063-3.834-2.584a.535.535 0 1 1 1.029-.296c.302 1.049 1.482 1.81 2.805 1.81 1.324 0 2.504-.762 2.806-1.812a.535.535 0 1 1 1.028.296c-.437 1.523-2.014 2.586-3.834 2.586M8.3 10.277a.776.776 0 0 1-.773-.775v-.708c0-.426.348-.774.774-.774.426 0 .774.348.774.774v.708a.776.776 0 0 1-.774.775M15.792 10.277a.776.776 0 0 1-.774-.775v-.708c0-.426.348-.774.774-.774.425 0 .774.348.774.774v.708a.777.777 0 0 1-.774.775"/><path fill="#000" d="M11.928 12.78a.496.496 0 0 1-.135-.018c-.625-.18-1.061-.811-1.061-1.537 0-.725.436-1.356 1.06-1.536a.49.49 0 0 1 .271.943c-.17.049-.35.273-.35.593 0 .32.18.545.35.594a.49.49 0 0 1-.135.962"/><path fill="#FF5A5A" d="M23.549 1.908a4.516 4.516 0 1 0 0 9.032 4.516 4.516 0 0 0 0-9.032"/><path fill="#FFF" d="M25.635 5.983h-1.627V4.337h-.919v1.646h-1.626v.88h1.626v1.646h.92V6.863h1.626z"/></g></svg>