<svg xmlns="http://www.w3.org/2000/svg" width="26" height="26"><g fill="none" fill-rule="nonzero"><path d="M0 0h26v26H0z"/><path fill="#4C4C4C" d="M22 7v1h-2v10.926c0 .677-.338 1.278-.862 1.657l-.122.081v-.018c.005-.663.002-1.57-.019-1.585l-.001.001v-1.819c-.006-4.768-.043-8.803 0-9.243H8.02v10.973c0 .532.418.97.956 1.03l.127.007h8.812c.554 0 1.012-.4 1.074-.916a.154.154 0 0 1 .006-.03l.001-.002v.983l.002.6v.029l-.114.067a2.22 2.22 0 0 1-.887.253l-.161.006H9.164c-1.14 0-2.075-.846-2.158-1.919L7 18.926V8H5V7h17Zm-10 4v6h-1v-6h1Zm4 0v6h-1v-6h1Zm-.591-7c.827 0 1.507.51 1.584 1.164l.007.124V7h-1V5.346c0-.166-.145-.304-.339-.336l-.085-.007h-4.152c-.205 0-.376.117-.415.274L11 5.346V7h-1V5.288c0-.67.631-1.22 1.438-1.282L11.591 4h3.818Z"/></g></svg>