<svg width="22" height="22" viewBox="0 0 22 22" fill="none" xmlns="http://www.w3.org/2000/svg">
<path fill-rule="evenodd" clip-rule="evenodd" d="M7.48436 7.382H4.76962C4.0738 7.382 3.50977 7.93942 3.50977 8.62708V11.9977C3.50977 12.6853 4.0738 13.2427 4.76924 13.2427H7.48436L17.1506 16.6121C17.3759 16.6876 17.6197 16.5661 17.6952 16.3408C17.71 16.2967 17.7175 16.2506 17.7175 16.2041V12.1871V8.4373V4.42063C17.7175 4.183 17.5248 3.99036 17.2872 3.99036C17.2408 3.99036 17.1946 3.99788 17.1506 4.01263L7.48436 7.382Z" stroke="black" stroke-width="1.2"/>
<path d="M7.5332 7.1431L7.5332 16.5693C7.5332 17.7502 8.43867 18.717 9.545 18.717C10.6517 18.717 11.5572 17.7502 11.5572 16.5693V15.0689" stroke="black" stroke-width="1.2"/>
</svg>
