<svg width="20" height="20" viewBox="0 0 20 20" fill="none" xmlns="http://www.w3.org/2000/svg">
<path fill-rule="evenodd" clip-rule="evenodd" d="M14.3143 14.1013L17.8773 17.6625L17.7348 17.805L14.1714 14.2442L14.3143 14.1013Z" stroke="#808080" stroke-width="1.3"/>
<path d="M8.99023 16.2479C12.9986 16.2479 16.248 12.9985 16.248 8.99011C16.248 4.98173 12.9986 1.7323 8.99023 1.7323C4.98186 1.7323 1.73242 4.98173 1.73242 8.99011C1.73242 12.9985 4.98186 16.2479 8.99023 16.2479Z" stroke="#808080" stroke-width="1.35"/>
<path d="M5.8541 8.02518C6.25358 8.02518 6.5778 8.34939 6.5778 8.74887V9.23133C6.5778 9.63081 6.25358 9.95502 5.8541 9.95502H5.37164C4.97216 9.95502 4.64795 9.63081 4.64795 9.23133V8.74887C4.64795 8.34939 4.97216 8.02518 5.37164 8.02518H5.8541ZM9.23134 8.02518C9.63082 8.02518 9.95503 8.34939 9.95503 8.74887V9.23133C9.95503 9.63081 9.63082 9.95502 9.23134 9.95502H8.74888C8.3494 9.95502 8.02518 9.63081 8.02518 9.23133V8.74887C8.02518 8.34939 8.3494 8.02518 8.74888 8.02518H9.23134ZM12.6086 8.02518C13.008 8.02518 13.3323 8.34939 13.3323 8.74887V9.23133C13.3323 9.63081 13.008 9.95502 12.6086 9.95502H12.1261C11.7266 9.95502 11.4024 9.63081 11.4024 9.23133V8.74887C11.4024 8.34939 11.7266 8.02518 12.1261 8.02518H12.6086Z" fill="#808080"/>
</svg>
