<svg width="21" height="20" viewBox="0 0 21 20" fill="none" xmlns="http://www.w3.org/2000/svg">
<path d="M13.4657 2.46283C12.2928 1.78161 10.924 1.39011 9.46336 1.39011C5.13111 1.39011 1.60645 4.83305 1.60645 9.06497C1.60645 11.0402 2.37284 12.9162 3.76476 14.3483C3.92256 14.5111 3.98368 14.7513 3.92356 14.9755L3.01698 18.3623C2.9708 18.5341 3.03259 18.7048 3.1771 18.8081C3.25085 18.8606 3.33456 18.8869 3.41794 18.8869C3.498 18.8869 3.5784 18.8629 3.65049 18.8138L6.74163 16.7276C7.02167 16.5385 7.37613 16.4731 7.71332 16.5482C8.28471 16.6754 8.87337 16.7395 9.46336 16.7395C12.9269 16.7395 15.8739 14.5392 16.9165 11.4943C17.0482 11.2787 17.0706 10.8056 16.9839 10.0749" stroke="#808080" stroke-width="1.3" stroke-linecap="round"/>
<path fill-rule="evenodd" clip-rule="evenodd" d="M9.21075 13.2339C7.60346 13.2339 6.2106 12.2951 5.8239 10.9506C5.75133 10.6995 5.89614 10.4377 6.14719 10.3655C6.39824 10.2929 6.66007 10.438 6.73231 10.6891C6.99905 11.6158 8.04149 12.2885 9.21075 12.2885C10.3803 12.2885 11.4231 11.6155 11.6895 10.6878C11.7618 10.4367 12.0233 10.2919 12.2743 10.3642C12.5254 10.4361 12.6702 10.6982 12.5979 10.949C12.2116 12.2944 10.8187 13.2339 9.21075 13.2339Z" fill="#808080" stroke="#808080" stroke-width="0.17"/>
<path fill-rule="evenodd" clip-rule="evenodd" d="M6.22175 8.48795C5.81195 8.48795 5.47656 8.13619 5.47656 7.70592V6.99006C5.47656 6.56017 5.81195 6.20804 6.22175 6.20804C6.63119 6.20804 6.96657 6.56017 6.96657 6.99006V7.70592C6.96657 8.13619 6.63119 8.48795 6.22175 8.48795Z" fill="#808080" stroke="#808080" stroke-width="0.15"/>
<path fill-rule="evenodd" clip-rule="evenodd" d="M12.1815 8.48794C11.772 8.48794 11.4365 8.1361 11.4365 7.70573V6.9897C11.4365 6.55971 11.772 6.20749 12.1815 6.20749C12.5911 6.20749 12.9265 6.55971 12.9265 6.9897V7.70573C12.9265 8.1361 12.5911 8.48794 12.1815 8.48794Z" fill="#808080" stroke="#808080" stroke-width="0.15"/>
<path fill-rule="evenodd" clip-rule="evenodd" d="M9.19549 10.6009C9.15594 10.6009 9.11573 10.5954 9.07552 10.5839C8.52374 10.4254 8.13867 9.86741 8.13867 9.22671C8.13867 8.58634 8.52342 8.02835 9.0752 7.86981C9.30467 7.80313 9.54493 7.93617 9.61096 8.16597C9.67765 8.3961 9.5446 8.63603 9.3148 8.70206C9.16476 8.74554 9.00524 8.94396 9.00524 9.22671C9.00524 9.50947 9.16476 9.70821 9.3148 9.75103C9.54493 9.81739 9.67797 10.0573 9.61162 10.2871C9.55703 10.4774 9.38378 10.6009 9.19549 10.6009Z" fill="#808080" stroke="#808080" stroke-width="0.15"/>
<path fill-rule="evenodd" clip-rule="evenodd" d="M17.4606 1.95731C19.4043 1.95731 20.9803 3.53296 20.9803 5.477C20.9803 7.42073 19.4043 8.99669 17.4606 8.99669C15.5166 8.99669 13.9409 7.42073 13.9409 5.477C13.9409 3.53296 15.5166 1.95731 17.4606 1.95731ZM17.9839 3.59939H16.9839L16.9838 4.96039L15.5888 4.96136V5.96136L16.9838 5.96039L16.9839 7.40009H17.9839L17.9838 5.96039L19.3895 5.96136V4.96136L17.9838 4.96039L17.9839 3.59939Z" fill="#808080"/>
</svg>
