<svg xmlns="http://www.w3.org/2000/svg" xmlns:xlink="http://www.w3.org/1999/xlink" width="207" height="189"><defs><path id="a" d="M.57.777h19.474v19.845H.57z"/></defs><g fill="none" fill-rule="evenodd"><path fill="#FCC433" d="M23.042 82.026s-1.3 8.931-4.979 8.932c-4.157 0-6.56-8.214-6.56-8.214s-7.999 1.393-9.585-2.052c-1.328-2.888 5.333-8.405 5.333-8.405s-2.986-7.835-.435-9.933c2.561-2.106 9.763 2.798 9.763 2.798s5.84-5.587 8.5-3.802c3.168 2.127 1.14 9.303 1.14 9.303s7.64 4.696 6.586 8.215c-1.125 3.751-9.763 3.158-9.763 3.158"/><path fill="#0E191C" d="M11.504 80.994c.764 0 1.456.502 1.678 1.257.827 2.806 2.95 6.957 4.881 6.957 1.107 0 2.686-3.613 3.248-7.435.132-.903.952-1.562 1.85-1.492 2.961.193 7.504-.37 7.968-1.915.382-1.277-2.762-4.338-5.827-6.222a1.75 1.75 0 0 1-.768-1.967c.673-2.404 1.003-6.412-.43-7.373-.739-.5-3.928 1.33-6.315 3.612a1.75 1.75 0 0 1-2.194.183c-3.092-2.1-6.89-3.533-7.667-2.893-.809.664-.343 4.533.96 7.96.264.7.055 1.491-.52 1.97-3.028 2.512-5.204 5.578-4.86 6.324.658 1.431 4.967 1.535 7.695 1.06.101-.018.201-.026.301-.026m6.56 11.714c-4.21 0-6.744-5.336-7.755-8.036-2.852.296-8.325.348-9.98-3.248-1.514-3.292 2.568-7.599 4.873-9.678-.949-2.863-2.305-8.434.503-10.743 2.818-2.318 8.008.3 10.695 1.951 2.273-1.953 6.662-5.062 9.655-3.057 3.266 2.194 2.656 7.47 2.15 9.963 2.47 1.693 7.43 5.656 6.277 9.51-1.18 3.932-6.926 4.456-9.985 4.454-.64 3.068-2.39 8.883-6.434 8.884"/><path fill="#FCC433" d="M42.704 14.56s-2.249 4.364-4.142 3.714c-2.137-.735-1.92-5.386-1.92-5.386s-4.362-.699-4.568-2.752c-.173-1.72 4.23-3.379 4.23-3.379s-.15-4.559 1.534-5.187c1.69-.63 4.527 3.166 4.527 3.166s3.993-1.84 5.045-.452c1.253 1.655-1.06 4.987-1.06 4.987s3.1 3.768 1.935 5.392c-1.242 1.73-5.58-.103-5.58-.103"/><g transform="translate(30 -.777)"><mask id="b" fill="#fff"><use xlink:href="#a"/></mask><path fill="#0E191C" d="M3.604 10.847c.267.416 1.746 1.087 3.277 1.337.752.123 1.295.79 1.26 1.55-.075 1.683.348 3.57.85 3.871.526-.177 1.676-1.597 2.38-2.956a1.501 1.501 0 0 1 1.915-.694c1.613.676 3.46.905 3.784.606.113-.462-.802-2.25-1.878-3.559a1.501 1.501 0 0 1-.074-1.809c.782-1.136 1.317-2.639 1.142-3.14-.534-.11-2.052.266-3.269.823a1.502 1.502 0 0 1-1.827-.464c-.93-1.242-2.256-2.456-2.836-2.619-.282.4-.574 2.188-.525 3.691a1.503 1.503 0 0 1-.969 1.453c-1.392.527-2.88 1.415-3.23 1.91Zm5.368 9.775c-.292 0-.592-.048-.897-.153-2.308-.793-2.827-3.776-2.924-5.594C3.456 14.42.811 13.35.582 11.063.365 8.905 2.975 7.348 4.804 6.53c.058-1.937.496-4.838 2.51-5.589 2.021-.753 4.212 1.235 5.52 2.76 1.703-.619 4.474-1.26 5.771.454 1.385 1.83.351 4.38-.437 5.802 1.127 1.581 2.723 4.424 1.336 6.357-1.39 1.94-4.356 1.405-6.124.86-.92 1.462-2.52 3.448-4.408 3.448Z" mask="url(#b)"/></g><path fill="#FCC433" d="M194.447 42.85s-4.623 3.293-6.224 1.622c-1.806-1.888.881-6.552.881-6.552s-4.11-3.03-3.235-5.247c.734-1.86 6.138-1.231 6.138-1.231s2.261-4.763 4.323-4.516c2.071.247 2.974 5.652 2.974 5.652s5.078.224 5.423 2.209c.41 2.364-3.73 4.563-3.73 4.563s1.188 5.513-.87 6.564c-2.194 1.12-5.68-3.063-5.68-3.063"/><path fill="#0E191C" d="M194.446 41.351c.43 0 .857.185 1.153.538 1.353 1.616 3.308 2.968 3.846 2.688.438-.305.566-2.68.085-4.912a1.5 1.5 0 0 1 .763-1.64c1.5-.803 3.084-2.249 2.957-2.982-.275-.368-2.276-.887-4.013-.967a1.503 1.503 0 0 1-1.412-1.25c-.333-1.975-1.188-4.167-1.727-4.425-.494.096-1.893 1.915-2.737 3.685a1.502 1.502 0 0 1-1.525.846c-1.907-.218-4.089-.05-4.588.347-.12.614 1.222 2.303 2.749 3.434.61.452.786 1.294.408 1.953-1 1.747-1.683 4.157-1.097 4.768.495.238 2.666-.664 4.27-1.805.262-.187.565-.278.868-.278m4.87 6.254c-1.97 0-3.952-1.638-5.112-2.802-1.912 1.154-5.202 2.65-7.064.706-1.91-1.996-.778-5.354.077-7.195-1.464-1.298-3.696-3.78-2.744-6.192.89-2.25 4.415-2.41 6.661-2.264.984-1.787 2.963-4.7 5.375-4.422 2.402.287 3.544 3.535 4.047 5.74 2.01.234 5.236.982 5.65 3.353.443 2.554-2.034 4.591-3.546 5.575.328 2.143.525 5.931-1.85 7.145-.489.25-.99.356-1.495.356"/><path fill="#F6A723" d="M85.317 33.904c-2.616-6.74-11.232-16.072-23.031-8.874-11.718 7.15-6.431 20.264-1.846 23.787"/><path fill="#0E191C" d="M60.439 50.567c-.372 0-.747-.118-1.065-.362-3.11-2.39-6.24-8.171-5.917-14.18.194-3.612 1.725-8.71 7.918-12.488 4.692-2.863 9.51-3.583 13.939-2.085 5.987 2.026 10.01 7.634 11.634 11.819a1.75 1.75 0 0 1-3.262 1.267c-1.352-3.483-4.65-8.132-9.494-9.771-3.462-1.172-7.161-.581-10.995 1.758-3.928 2.396-6.03 5.655-6.245 9.688-.272 5.056 2.556 9.682 4.554 11.216a1.75 1.75 0 0 1-1.067 3.138"/><path fill="#F6A723" d="M121.871 25.85c-.654-7.2 2.91-19.39 16.68-18.193 13.674 1.19 14.773 15.287 12.234 20.481"/><path fill="#0E191C" d="M150.784 29.889a1.75 1.75 0 0 1-1.571-2.519c1.106-2.263 1.582-7.665-.91-12.072-1.989-3.515-5.32-5.5-9.904-5.898-4.472-.39-8.049.727-10.629 3.317-3.609 3.623-4.495 9.254-4.156 12.975a1.75 1.75 0 0 1-3.486.317c-.406-4.472.702-11.284 5.163-15.762 3.298-3.311 7.938-4.811 13.411-4.333 7.227.628 10.866 4.513 12.646 7.66 2.963 5.239 2.731 11.81 1.01 15.333a1.75 1.75 0 0 1-1.574.982"/><path fill="#F6A723" d="M96.147 183.95s6.237 2.089 15.866 3.346c0 0 13.355-7.991 23.689-9.43 7.709-1.072 23.282 5.773 23.282 5.773 14.175-3.502 20.199-7.146 20.199-7.146l-49.12-4.59"/><path fill="#F6A723" d="M179.183 176.493s-4.977-21.35-11.101-39.001c-3.295-9.5-10.634-17.495-13.107-19.608-10.952-9.363-42.736 7.844-56.938 10.274-4.447.76-13.102-1.261-17.902-2.27-8.917-1.87-9.43 1.089-26.027-9.167-15.821-9.776-28.615 9.983-16.183 23.488 11.755 12.77 52.135 24.975 54.453 31.527 2.748 7.765 3.769 12.215 3.769 12.215"/><path fill="#0E191C" d="M96.145 185.7a1.748 1.748 0 0 1-1.703-1.357c-.011-.044-1.038-4.465-3.713-12.023-.827-2.338-11.556-7.27-20.177-11.232-12.827-5.897-27.367-12.58-33.914-19.694-7.427-8.067-6.501-18.115-1.75-23.871 4.895-5.928 12.798-6.826 20.14-2.291 11.988 7.408 15.202 7.708 19.649 8.124 1.609.15 3.43.32 5.818.82l1.415.3c4.534.97 12.125 2.593 15.832 1.957 4.223-.723 10.285-2.88 16.704-5.164 15.617-5.556 33.316-11.853 41.666-4.715 2.419 2.066 10.113 10.245 13.624 20.364 6.084 17.535 11.1 38.963 11.15 39.178a1.748 1.748 0 1 1-3.407.794c-.05-.212-5.027-21.466-11.05-38.824-3.312-9.55-10.774-17.3-12.591-18.852-6.81-5.822-24.225.375-38.22 5.353-6.564 2.336-12.765 4.542-17.286 5.315-4.366.75-12.063-.894-17.154-1.982l-1.402-.298c-2.192-.46-3.835-.613-5.424-.762-4.736-.442-8.478-.792-21.164-8.63-6.991-4.321-12.645-2.04-15.6 1.54-3.787 4.588-4.445 12.68 1.624 19.274 6.073 6.597 20.274 13.125 32.802 18.884 13.216 6.075 20.755 9.685 22.014 13.245 2.75 7.77 3.782 12.22 3.825 12.407a1.75 1.75 0 0 1-1.708 2.14"/><path fill="#F6A723" d="M178.165 149.937s-43.31 27.821-79.903 15.471l-11.366-65.062 66.72-12.894 24.55 62.485Z"/><path fill="#FEFEFE" d="M139.51 187.315c7.715-1.074 14.162-2.367 19.474-3.679 1.682-6.44.539-18.118-3.717-26.857-4.037-8.288-12.401-10.957-12.401-10.957-3.775 5.713-5.727 8.562-5.727 8.562l-10.606-4.966-6.158 8.528-8.253-5.065c-1.192 1.466-5.01 7.62-5.464 14.005-.406 5.735 1.613 14.76 5.356 20.408 7.542.985 17.163 1.46 27.497.021"/><path fill="#F6A723" d="M133.953 125.927s28.538-14.385 43.91-2.423c14.127 10.993 15.19 31.208 4.08 40.175-11.109 8.968-29.549 18.55-34.362 2.258-4.11-13.91 17.554-21.773 17.554-21.773"/><path fill="#0E191C" d="M158.333 176.512c-1.407 0-2.776-.18-4.08-.587-4.053-1.264-6.862-4.457-8.35-9.492-1.905-6.447.812-12.67 7.86-17.995 5.052-3.819 10.544-5.835 10.775-5.919a1.75 1.75 0 0 1 1.194 3.29c-.2.073-20.067 7.468-16.473 19.632 1.152 3.9 3.127 6.236 6.036 7.142 6.821 2.13 17.673-3.907 25.55-10.265 4.424-3.572 6.927-9.363 6.87-15.888-.074-8.224-4.158-16.278-10.926-21.545-14.316-11.139-41.773 2.466-42.049 2.605a1.75 1.75 0 0 1-1.575-3.125c.3-.15 7.428-3.716 16.583-5.84 12.381-2.87 22.474-1.628 29.19 3.598 7.604 5.917 12.193 14.993 12.276 24.276.068 7.6-2.91 14.395-8.172 18.642-3.633 2.933-15.05 11.471-24.709 11.471"/><path fill="#F6A723" d="M51.501 96.421c-9.009-38.38 15.227-67.846 49.672-75.93 33.352-7.828 69.145 7.04 78.266 45.904 9.154 39.001-17.02 65.115-50.374 72.943-32.822 7.703-68.41-3.916-77.564-42.917"/><path fill="#0E191C" d="M118.462 20.209c-5.56 0-11.229.657-16.89 1.986-16.929 3.973-31.17 13.173-40.097 25.905-9.568 13.642-12.427 30.213-8.27 47.922 6.568 27.986 32.444 51.707 75.461 41.613 16.921-3.971 31.177-12.548 40.142-24.148 9.98-12.914 13.066-29.06 8.928-46.692-4.172-17.779-14.257-31.374-29.166-39.317-9.033-4.812-19.363-7.269-30.108-7.269m-8.36 123.126c-10.616 0-20.696-2.143-29.454-6.365-15.806-7.617-26.474-21.501-30.85-40.149-4.392-18.706-1.345-36.249 8.811-50.731 9.422-13.436 24.396-23.132 42.165-27.302 17.424-4.091 34.985-2.101 49.442 5.601 15.823 8.431 26.517 22.818 30.927 41.606 4.387 18.693 1.08 35.856-9.566 49.631-9.455 12.236-24.41 21.262-42.112 25.416-6.533 1.533-13.043 2.293-19.363 2.293"/><path fill="#0E191C" d="M139.277 72.36a4.398 4.398 0 1 1-8.565 2.011 4.398 4.398 0 1 1 8.565-2.011M87.968 84.402a4.398 4.398 0 1 1-8.565 2.01 4.4 4.4 0 1 1 8.565-2.01M121.722 60.845s9.879-2.748 21.658-4.992"/><path fill="#0E191C" d="M121.72 63.096a2.25 2.25 0 0 1-.602-4.418c.1-.028 10.106-2.798 21.84-5.035a2.25 2.25 0 0 1 .843 4.42c-11.543 2.2-21.378 4.923-21.476 4.95a2.26 2.26 0 0 1-.604.083"/><path fill="#FEFEFE" d="M108.945 93.284c-9.194-.968-14.471 5.435-13.733 11.217.6 4.72 5.688 8.367 10.67 7.653 5.382-.773 8.131-4.313 8.681-7.777 1.81 3.007 5.037 4.815 10.319 3.514 4.886-1.203 8.25-5.205 7.266-10.916-.99-5.744-8.576-11.027-17.647-4.77l-2.525 1.85"/><path fill="#0E191C" d="M107.122 94.936c-3.205 0-5.967 1.045-7.893 3.014-1.71 1.75-2.565 4.117-2.283 6.33.216 1.69 1.231 3.338 2.784 4.52 1.733 1.32 3.88 1.91 5.904 1.621 4.676-.67 6.786-3.704 7.201-6.318a1.751 1.751 0 0 1 3.227-.627c1.69 2.805 4.44 3.694 8.4 2.716 3.477-.855 6.87-3.648 5.961-8.92-.404-2.34-2.198-4.5-4.574-5.5-3.06-1.287-6.739-.623-10.356 1.872l-2.48 1.822a1.75 1.75 0 0 1-2.746-1.035c-.362.416-.916.65-1.506.594a15.563 15.563 0 0 0-1.639-.089m-2.5 19.056c-2.469 0-4.958-.843-7.012-2.407-2.329-1.773-3.798-4.21-4.135-6.862-.422-3.314.763-6.675 3.252-9.22 3.011-3.079 7.41-4.484 12.401-3.96a1.752 1.752 0 0 1 1.526 1.365c.084-.097.18-.184.287-.264l2.524-1.85c6.295-4.341 11.308-3.27 13.741-2.246 3.502 1.472 6.056 4.588 6.666 8.13 1.067 6.198-2.378 11.388-8.573 12.913-4.073 1.003-7.543.386-10.066-1.735-1.453 2.81-4.335 5.346-9.102 6.03-.5.072-1.004.107-1.509.107M67.402 73.723s9.879-2.748 21.658-4.993"/><path fill="#0E191C" d="M67.4 75.973a2.251 2.251 0 0 1-.602-4.418c.1-.028 10.106-2.799 21.84-5.035a2.25 2.25 0 0 1 .843 4.42c-11.543 2.2-21.378 4.923-21.476 4.95a2.26 2.26 0 0 1-.604.083M105.68 92.845c.146 2.23 4.333 6.02 7.157 5.333 2.536-.614 4.66-5.04 4.342-8.072-.373-3.538-11.9-3.447-11.5 2.74"/></g></svg>