<svg width="20" height="20" viewBox="0 0 20 20" fill="none" xmlns="http://www.w3.org/2000/svg">
<path fill-rule="evenodd" clip-rule="evenodd" d="M14.3143 14.1013L17.8773 17.6625L17.7348 17.805L14.1714 14.2442L14.3143 14.1013Z" stroke="black" stroke-width="1.3"/>
<path d="M8.99023 16.2479C12.9986 16.2479 16.248 12.9985 16.248 8.99011C16.248 4.98173 12.9986 1.7323 8.99023 1.7323C4.98186 1.7323 1.73242 4.98173 1.73242 8.99011C1.73242 12.9985 4.98186 16.2479 8.99023 16.2479Z" stroke="black" stroke-width="1.35"/>
<path d="M5.8541 8.52518C5.97744 8.52518 6.0778 8.62553 6.0778 8.74887V9.23133C6.0778 9.35467 5.97744 9.45502 5.8541 9.45502H5.37164C5.24831 9.45502 5.14795 9.35467 5.14795 9.23133V8.74887C5.14795 8.62553 5.24831 8.52518 5.37164 8.52518H5.8541ZM9.23134 8.52518C9.35467 8.52518 9.45503 8.62553 9.45503 8.74887V9.23133C9.45503 9.35467 9.35467 9.45502 9.23134 9.45502H8.74888C8.62554 9.45502 8.52518 9.35467 8.52518 9.23133V8.74887C8.52518 8.62553 8.62554 8.52518 8.74888 8.52518H9.23134ZM12.6086 8.52518C12.7319 8.52518 12.8323 8.62553 12.8323 8.74887V9.23133C12.8323 9.35467 12.7319 9.45502 12.6086 9.45502H12.1261C12.0028 9.45502 11.9024 9.35467 11.9024 9.23133V8.74887C11.9024 8.62553 12.0028 8.52518 12.1261 8.52518H12.6086Z" fill="black" stroke="black"/>
</svg>
