<svg xmlns="http://www.w3.org/2000/svg" width="15" height="15"><g fill="none" fill-rule="evenodd"><path d="M0 0h15v15H0z"/><g fill="#000" fill-rule="nonzero"><path d="M7.895 3.158a.5.5 0 0 1 .077.266v8.09a.5.5 0 0 1-.774.418l-3.603-2.37H1.683a.7.7 0 0 1-.7-.7V6.08a.7.7 0 0 1 .7-.7h1.885v-.087l3.638-2.292a.5.5 0 0 1 .69.157ZM9.12 4.387a.7.7 0 0 1 .99.01c.764.778 1.181 1.895 1.181 3.079 0 1.113-.445 2.282-1.166 3.064a.7.7 0 0 1-1.03-.95c.48-.52.796-1.349.796-2.114 0-.831-.284-1.594-.78-2.099a.7.7 0 0 1 .009-.99Z"/><path d="M11.088 2.831a.7.7 0 0 1 .99-.023c1.214 1.158 1.931 2.953 1.931 4.741 0 1.634-.741 3.33-1.914 4.529a.7.7 0 1 1-1.001-.98c.925-.945 1.515-2.295 1.515-3.549 0-1.417-.57-2.843-1.498-3.728a.7.7 0 0 1-.023-.99Z"/></g></g></svg>