<svg xmlns="http://www.w3.org/2000/svg" width="26" height="26"><g fill="none" fill-rule="evenodd"><path d="M0 0h26v26H0z"/><g stroke="#4C4C4C"><path d="M2.471 13.403s4.081 6.101 10.839 6.101c2.404 0 4.502-.823 6.197-1.865L7.14 9.094c-2.987 1.8-4.669 4.31-4.669 4.31ZM21.057 16.033l2.589-2.63s-4.293-6.1-10.84-6.1c-1.238 0-2.385.206-3.434.542"/><path d="M9.948 11.083a3.576 3.576 0 0 0 3 5.518c1.18 0 2.225-.575 2.876-1.458M16.418 12.724a3.503 3.503 0 0 0-3.496-3.31 3.47 3.47 0 0 0-1.051.168"/></g></g></svg>