<svg xmlns="http://www.w3.org/2000/svg" width="18" height="18"><g fill="none" fill-rule="evenodd" stroke="#000" opacity=".9"><path stroke-linecap="round" stroke-linejoin="round" stroke-width=".8" d="M6.217 6.779v.64m5.838-.64v.64M6.277 10.43c.54 1.101 1.626 1.854 2.878 1.854 1.253 0 2.338-.753 2.878-1.855M9.358 7.803a.894.894 0 0 0-.603.844c0 .395.255.72.603.844"/><path stroke-width=".9" d="M9 1.5a7.3 7.3 0 0 0-7.3 7.301 7.27 7.27 0 0 0 2.339 5.345v2.684L6.3 15.581a7.276 7.276 0 0 0 2.7.522c4.032 0 7.3-3.27 7.3-7.302S13.032 1.5 9 1.5z"/></g></svg>