<svg xmlns="http://www.w3.org/2000/svg" width="18" height="18"><g fill="none" fill-rule="evenodd" opacity=".9"><path fill="none" d="M0 0h18v18H0z"/><path stroke="#000" stroke-linejoin="round" stroke-width=".8" d="M6.052 5.878 2.531 7.685v6.004l6.594 3.509 6.344-3.509V7.685l-3.41-1.746"/><path stroke="#000" stroke-linejoin="round" stroke-width=".8" d="m2.531 7.867 6.594 3.509 6.344-3.509m-6.307 3.186v5.985"/><path stroke="#000" stroke-linejoin="round" stroke-width=".8" d="M9 8.44c.003 0 2.834-1.703 4.088-3.723.772-1.243.473-2.759-.465-3.434C10.869.02 9.238 1.87 9 2.158 8.762 1.87 7.13.02 5.377 1.283c-.938.675-1.237 2.19-.465 3.434C6.166 6.737 8.997 8.44 9 8.441z"/></g></svg>