<svg xmlns="http://www.w3.org/2000/svg" width="34" height="34" fill="none"><g fill="#fff" fill-rule="evenodd" clip-path="url(#a)" clip-rule="evenodd"><path d="M12.566 11.954c-4.175.232-6.709 3.08-6.709 6.376 0 1.883.928 3.424 2.435 4.681v2.206c.012.37.31.668.615.756.305.09.432.03.625-.068.194-.097 2.28-1.462 2.28-1.462.324.068 1.456.159 2.279.043 3.043-.426 5.95-2.623 6.047-6.156.098-3.533-3.398-6.608-7.572-6.376Z"/><path d="M19.014 8.643c-2.397 0-4.736.872-6.19 2.132 5.334 0 8.698 3.202 8.698 7.421 0 2.231-1.54 4.607-3.09 5.964.65 0 1.186.007 1.917-.122l2.813 1.842c.775.388 1.428-.192 1.428-.774v-2.778c1.453-.963 3.062-3.315 3.101-5.64 0-4.206-3.42-8.045-8.677-8.045Z"/></g><defs><clipPath id="a"><path fill="#fff" d="M0 0h34v34H0z"/></clipPath></defs></svg>