<svg xmlns="http://www.w3.org/2000/svg" width="32" height="32"><g fill="none" fill-rule="evenodd"><path d="M0 0h32v32H0z"/><path stroke="#949494" stroke-width="1.641" d="M20.73 3c.22 0 .418.093.562.244a.86.86 0 0 1 .233.596v4.339h-9.05V3.84a.86.86 0 0 1 .234-.595.772.772 0 0 1 .56-.245h7.461Z"/><path stroke="#FFF" stroke-linecap="round" stroke-width=".821" d="M13.16 14.707v9.697m8.084-9.697v9.697"/><path fill="#A7ACB5" fill-rule="nonzero" d="m26.574 8.771-.89 17.698c0 1.397-.95 2.531-2.123 2.531H10.439c-1.172 0-2.122-1.131-2.122-2.531L7.425 8.77"/><path fill="#C3C6CB" fill-rule="nonzero" d="M5.018 7.44c-.126-.828.425-1.5 1.222-1.5h21.52c.8 0 1.347.674 1.222 1.5l-.076.5c-.087.572-.606 1.036-1.159 1.036H6.253c-.554 0-1.072-.461-1.16-1.036l-.075-.5Z"/><path fill="#FFF" fill-opacity=".547" fill-rule="nonzero" d="M16.24 12.988h1.52v12.12h-1.52v-12.12Zm4.563 0h1.521v12.12h-1.521v-12.12Zm-9.127 0h1.52v12.12h-1.52v-12.12Z"/></g></svg>