<svg xmlns="http://www.w3.org/2000/svg" xmlns:xlink="http://www.w3.org/1999/xlink" width="32" height="32"><defs><path id="a" d="M0 0h21.477v23.664H0z"/><path id="c" d="M0 0h26.045v14.937H0z"/><linearGradient id="e" x1="50%" x2="50%" y1="0%" y2="100%"><stop offset="0%" stop-color="#FFF" stop-opacity="0"/><stop offset="100%" stop-color="#FFA100" stop-opacity=".22"/></linearGradient></defs><g fill="none" fill-rule="evenodd"><path d="M0 0h32v32H0z"/><g transform="translate(4.32 4)"><mask id="b" fill="#fff"><use xlink:href="#a"/></mask><path fill="#FBB53D" fill-rule="nonzero" d="M20.524 23.664H.954a.943.943 0 0 1-.675-.285.984.984 0 0 1-.279-.688V.833C0 .613.086.4.239.244A.807.807 0 0 1 .816 0h6.246c.299 0 .574.167.717.435L8.505 1.8a.814.814 0 0 0 .717.436h11.44c.45 0 .815.373.815.833V22.69a.963.963 0 0 1-.953.973" mask="url(#b)"/></g><path fill="#FFC76C" fill-rule="nonzero" d="M22.608 16.507H7.5a.49.49 0 0 1-.35-.148.512.512 0 0 1-.146-.358V6.336c0-.134.052-.263.145-.358a.49.49 0 0 1 .35-.148h15.109a.49.49 0 0 1 .35.148.512.512 0 0 1 .145.358V16a.5.5 0 0 1-.495.506"/><path fill="#FFE39C" fill-rule="nonzero" d="M23.29 18.846H6.817a.522.522 0 0 1-.516-.527V8.697c0-.292.231-.528.516-.528H23.29c.286 0 .517.236.517.528v9.621c0 .14-.054.275-.151.374a.511.511 0 0 1-.366.154"/><path fill="#FFF8E6" fill-rule="nonzero" d="M23.802 21.156H6.305a.538.538 0 0 1-.532-.544v-9.59c0-.3.238-.544.532-.544h17.497c.294 0 .533.244.533.544v9.59c0 .3-.239.544-.533.544"/><g transform="translate(2 12.818)"><mask id="d" fill="#fff"><use xlink:href="#c"/></mask><g mask="url(#d)"><path fill="#FFE76C" fill-rule="nonzero" d="M23.034 14.937H3.099a.895.895 0 0 1-.882-.808L.01.894A.76.76 0 0 1 .75 0h24.546a.76.76 0 0 1 .74.889l-2.12 13.239a.896.896 0 0 1-.882.809"/><path fill="url(#e)" fill-rule="nonzero" d="M23.034 14.937H3.099a.895.895 0 0 1-.882-.808L.01.894A.76.76 0 0 1 .75 0h24.546a.76.76 0 0 1 .74.889l-2.12 13.239a.896.896 0 0 1-.882.809"/></g></g><g fill-rule="nonzero"><path fill="#00CD3C" d="M25.962 30c-2.782 0-5.037-2.303-5.037-5.144s2.255-5.145 5.037-5.145c2.783 0 5.038 2.304 5.038 5.145C31 27.696 28.745 30 25.962 30Z"/><path fill="#FFF" d="m25.186 26.226 2.737-2.795a.346.346 0 0 1 .494 0l.006.006a.353.353 0 0 1 0 .494l-2.737 2.794a.346.346 0 0 1-.494 0l-.006-.005a.353.353 0 0 1 0-.494Z"/><path fill="#FFF" d="m23.813 24.812.006-.005a.354.354 0 0 1 .505 0l1.277 1.304a.36.36 0 0 1 0 .505l-.006.005a.354.354 0 0 1-.505 0l-1.277-1.304a.36.36 0 0 1 0-.505Z"/></g></g></svg>