<svg xmlns="http://www.w3.org/2000/svg" width="100" height="100"><defs><linearGradient id="a" x1="50%" x2="50%" y1="0%" y2="46.902%"><stop offset="0%" stop-color="#FFF" stop-opacity="0"/><stop offset="100%" stop-color="#FFA100" stop-opacity=".22"/></linearGradient><linearGradient id="b" x1="50%" x2="50%" y1="0%" y2="100%"><stop offset="0%" stop-color="#FFF" stop-opacity="0"/><stop offset="100%" stop-color="#FFA100" stop-opacity=".22"/></linearGradient></defs><g fill="none" fill-rule="evenodd"><path d="M0 0h100v100H0z"/><g fill-rule="nonzero"><path fill="#FAD557" d="M85.444 40.89v-10.9c0-3.362-2.776-6.087-6.198-6.087h-34.57l-3.159-5.468c-1.003-1.737-2.88-2.81-4.913-2.81H13.887c-2.492 0-4.512 1.985-4.512 4.432V40.89h76.069Z"/><path fill="url(#a)" d="M76.069 25.265v-10.9c0-3.362-2.776-6.087-6.198-6.087H35.3L32.142 2.81C31.14 1.073 29.262 0 27.23 0H4.512C2.02 0 0 1.985 0 4.432v20.833h76.069Z" transform="translate(9.375 15.625)"/><path fill="#FFF7D7" d="M76.905 51.78H17.914a4.172 4.172 0 0 1-4.167-4.178V32.435a4.172 4.172 0 0 1 4.167-4.177h58.991a4.172 4.172 0 0 1 4.167 4.177v15.167a4.172 4.172 0 0 1-4.167 4.178"/><path fill="#FFE76C" d="M9.375 34.792h76.069v40.075c0 3.369-2.74 6.099-6.12 6.099H15.494c-3.38 0-6.12-2.73-6.12-6.099V34.792Z"/><path fill="url(#b)" d="M0 0h76.069v40.076c0 3.368-2.74 6.098-6.12 6.098H6.12c-3.38 0-6.12-2.73-6.12-6.098V0Z" transform="translate(9.375 34.792)"/><path fill="#F9D34C" d="m84.198 67.538.371-5.127a16.222 16.222 0 0 0-11.266-4.532c-8.988 0-16.713 7.28-16.713 16.262 0 2.051.183 4.146.877 5.954l21.508-.134a5.592 5.592 0 0 0 5.594-5.59l-.371-6.833Z"/><path fill="#FF6229" d="M93.75 71.383c0 8.9-7.242 16.117-16.176 16.117-8.933 0-16.175-7.216-16.175-16.117 0-8.902 7.242-16.118 16.175-16.118 8.934 0 16.176 7.216 16.176 16.118"/><g fill="#FFF"><path d="M83.715 75.882 73.058 65.264c-.472-.47-1.209-.498-1.646-.063-.436.435-.408 1.17.064 1.64l10.656 10.617c.473.47 1.209.5 1.646.064.437-.436.408-1.17-.063-1.64"/><path d="m71.476 75.882 10.656-10.618c.473-.47 1.21-.498 1.646-.063.437.435.408 1.17-.063 1.64L73.058 77.457c-.472.47-1.208.5-1.645.064-.437-.436-.409-1.17.063-1.64"/></g></g></g></svg>