<svg xmlns="http://www.w3.org/2000/svg" width="20" height="20"><g fill="none" fill-rule="evenodd"><path d="M0 0h20v20H0z"/><g fill="#000" fill-rule="nonzero"><path d="M12.701 11.888c.16.333.255.786.255 1.181 0 1.377-1.09 2.431-2.464 2.431-1.374 0-2.464-1.054-2.464-2.431 0-.33.066-.699.18-1.006l.075-.175.902.43a1.93 1.93 0 0 0-.157.751c0 .817.635 1.431 1.464 1.431.828 0 1.464-.614 1.464-1.431 0-.2-.041-.436-.105-.622l-.052-.129.902-.43Z"/><path d="M10.486 3.98a3.89 3.89 0 0 0-2.631 1.022l-.16.155a3.883 3.883 0 0 0-1.09 2.376l-.242 2.677-.12.08c-.13.092-.24.2-.333.322L4.058 13.02h12.857l-1.852-2.408-.106-.123-.123-.116a1.717 1.717 0 0 0-.127-.1l-.1-.063-.239-2.676-.027-.233a3.893 3.893 0 0 0-3.855-3.321Zm0 1a2.89 2.89 0 0 1 1.957.76c.485.443.807 1.038.907 1.696l.024.202.291 3.27.311.103c.092.03.176.084.245.155l.068.079.594.774H6.088l.615-.798a.618.618 0 0 1 .225-.182l.38-.153.292-3.264c.065-.73.398-1.395.93-1.882a2.89 2.89 0 0 1 1.956-.76Z"/></g></g></svg>