<svg xmlns="http://www.w3.org/2000/svg" width="32" height="32"><defs><linearGradient id="a" x1="50%" x2="50%" y1="0%" y2="46.902%"><stop offset="0%" stop-color="#FFF" stop-opacity="0"/><stop offset="100%" stop-color="#FFA100" stop-opacity=".22"/></linearGradient><linearGradient id="b" x1="50%" x2="50%" y1="0%" y2="100%"><stop offset="0%" stop-color="#FFF" stop-opacity="0"/><stop offset="100%" stop-color="#FFA100" stop-opacity=".22"/></linearGradient></defs><g fill="none" fill-rule="evenodd"><path d="M0 0h32v32H0z"/><g fill-rule="nonzero"><path fill="#FAD557" d="M27.342 13.085V9.597c0-1.076-.888-1.948-1.983-1.948H14.296l-1.01-1.75A1.814 1.814 0 0 0 11.712 5h-7.27C3.647 5 3 5.635 3 6.418v6.667h24.342Z"/><path fill="url(#a)" d="M24.342 8.085V4.597c0-1.076-.888-1.948-1.983-1.948H11.296l-1.01-1.75A1.814 1.814 0 0 0 8.712 0h-7.27C.647 0 0 .635 0 1.418v6.667h24.342Z" transform="translate(3 5)"/><path fill="#FFF7D7" d="M24.61 16.57H5.732A1.335 1.335 0 0 1 4.4 15.233v-4.854c0-.738.597-1.337 1.333-1.337H24.61c.736 0 1.333.599 1.333 1.337v4.854c0 .738-.597 1.337-1.333 1.337"/><path fill="#FFE76C" d="M3 11.133h24.342v12.825a1.955 1.955 0 0 1-1.959 1.951H4.96A1.955 1.955 0 0 1 3 23.958V11.133Z"/><path fill="url(#b)" d="M0 0h24.342v12.824a1.955 1.955 0 0 1-1.959 1.952H1.96A1.955 1.955 0 0 1 0 12.824V0Z" transform="translate(3 11.133)"/><path fill="#F9D34C" d="m26.943 21.612.12-1.64a5.191 5.191 0 0 0-3.606-1.45c-2.876 0-5.348 2.329-5.348 5.203 0 .656.058 1.327.28 1.905l6.883-.043c.989 0 1.79-.8 1.79-1.788l-.119-2.187Z"/><path fill="#FF6229" d="M30 22.842C30 25.691 27.683 28 24.824 28s-5.176-2.31-5.176-5.158c0-2.848 2.317-5.157 5.176-5.157S30 19.994 30 22.842"/><g fill="#FFF"><path d="m26.789 24.282-3.41-3.398c-.152-.15-.387-.159-.527-.02-.14.14-.13.374.02.525l3.41 3.398c.151.15.387.16.527.02s.13-.374-.02-.525"/><path d="m22.872 24.282 3.41-3.398c.151-.15.387-.159.527-.02.14.14.13.374-.02.525l-3.41 3.398c-.152.15-.387.16-.527.02s-.13-.374.02-.525"/></g></g></g></svg>