<svg xmlns="http://www.w3.org/2000/svg" xmlns:xlink="http://www.w3.org/1999/xlink" width="100" height="100"><defs><path id="a" d="M0 0h67.116v73.951H0z"/><path id="c" d="M0 0h81.392v46.677H0z"/><linearGradient id="e" x1="50%" x2="50%" y1="0%" y2="100%"><stop offset="0%" stop-color="#FFF" stop-opacity="0"/><stop offset="100%" stop-color="#FFA100" stop-opacity=".22"/></linearGradient></defs><g fill="none" fill-rule="evenodd"><path d="M0 0h100v100H0z"/><g transform="translate(13.5 12.5)"><mask id="b" fill="#fff"><use xlink:href="#a"/></mask><path fill="#FBB53D" fill-rule="nonzero" d="M64.138 73.951H2.978c-.79 0-1.547-.32-2.106-.89A3.075 3.075 0 0 1 0 70.91V2.604C0 1.914.268 1.25.747.763A2.523 2.523 0 0 1 2.549 0h19.519c.934 0 1.794.522 2.24 1.36l2.27 4.265a2.542 2.542 0 0 0 2.24 1.361h35.749c1.408 0 2.55 1.166 2.55 2.604v61.32c0 1.679-1.334 3.04-2.98 3.04" mask="url(#b)"/></g><path fill="#FFC76C" fill-rule="nonzero" d="M70.65 51.585H23.435c-.41 0-.804-.167-1.095-.464a1.6 1.6 0 0 1-.453-1.118V19.799c0-.42.163-.821.453-1.118.29-.297.685-.464 1.095-.464H70.65c.41 0 .805.167 1.095.464.291.296.454.699.454 1.118v30.204c0 .873-.693 1.581-1.549 1.581"/><path fill="#FFE39C" fill-rule="nonzero" d="M72.779 58.895H21.307c-.892 0-1.615-.738-1.615-1.65V27.178c0-.91.724-1.65 1.615-1.65H72.78c.892 0 1.615.74 1.615 1.65v30.068c0 .438-.17.857-.473 1.167-.303.31-.714.483-1.142.483"/><path fill="#FFF8E6" fill-rule="nonzero" d="M74.383 66.112h-54.68c-.918 0-1.663-.76-1.663-1.698v-29.97c0-.939.745-1.699 1.663-1.699h54.68c.918 0 1.663.76 1.663 1.699v29.97c0 .938-.745 1.698-1.663 1.698"/><g transform="translate(6.25 40.056)"><mask id="d" fill="#fff"><use xlink:href="#c"/></mask><g mask="url(#d)"><path fill="#FFE76C" fill-rule="nonzero" d="M71.98 46.677H9.686c-1.415 0-2.603-1.087-2.76-2.523L.035 2.793C-.21 1.333.892 0 2.343 0h76.706c1.445 0 2.545 1.322 2.312 2.777L74.74 44.15c-.155 1.438-1.344 2.527-2.76 2.527"/><path fill="url(#e)" fill-rule="nonzero" d="M71.98 46.677H9.686c-1.415 0-2.603-1.087-2.76-2.523L.035 2.793C-.21 1.333.892 0 2.343 0h76.706c1.445 0 2.545 1.322 2.312 2.777L74.74 44.15c-.155 1.438-1.344 2.527-2.76 2.527"/></g></g><g fill-rule="nonzero"><path fill="#00CD3C" d="M81.133 93.75c-8.694 0-15.743-7.198-15.743-16.076 0-8.879 7.049-16.076 15.743-16.076 8.694 0 15.742 7.197 15.742 16.076 0 8.878-7.048 16.076-15.742 16.076Z"/><path fill="#FFF" d="m78.193 82.48 9.587-9.79a.353.353 0 0 1 .504 0l1.051 1.074a.353.353 0 0 1 0 .494l-9.586 9.79a.353.353 0 0 1-.505 0l-1.051-1.074a.353.353 0 0 1 0-.494Z"/><path fill="#FFF" d="m73.89 78.076 1.075-1.098a.36.36 0 0 1 .516 0l5.047 5.155a.36.36 0 0 1 0 .504l-1.075 1.098a.36.36 0 0 1-.515 0L73.89 78.58a.36.36 0 0 1 0-.504Z"/></g></g></svg>