<svg xmlns="http://www.w3.org/2000/svg" xmlns:xlink="http://www.w3.org/1999/xlink" width="32" height="32"><defs><path id="a" d="m0 1.691.655 10.644h5.557l3.036 3.184 14.39-1.06h5.673l-.63-13.348L.655 0z"/><path id="c" d="m0 1.691.655 10.644h5.557l3.036 3.184 14.39-1.06h5.673l-.63-13.348L.655 0z"/></defs><g fill="none" fill-rule="evenodd"><path d="M0 0h32v32H0z"/><path stroke="#A7ACB5" stroke-width="1.003" d="M26.59 5.314v5.428h-5.263"/><g transform="matrix(-1 0 0 1 29.311 2)"><mask id="b" fill="#fff"><use xlink:href="#a"/></mask><path stroke="#A7ACB5" stroke-linecap="square" stroke-width="1.003" d="M2.096 14.411c0 6.686 5.256 12.106 11.74 12.106 3.242 0 6.176-1.355 8.3-3.546 2.125-2.19 3.439-5.217 3.439-8.56 0-6.686-5.256-12.105-11.74-12.105-3.241 0-6.176 1.355-8.3 3.545" mask="url(#b)"/></g><path stroke="#A7ACB5" stroke-width="1.003" d="m26.58 10.742-2.803-2.891M4.41 27.686v-5.428h5.263"/><g transform="matrix(1 0 0 -1 1.689 31)"><mask id="d" fill="#fff"><use xlink:href="#c"/></mask><path stroke="#A7ACB5" stroke-linecap="square" stroke-width="1.003" d="M2.096 14.411c0 6.686 5.256 12.106 11.74 12.106 3.242 0 6.176-1.355 8.3-3.546 2.125-2.19 3.439-5.217 3.439-8.56 0-6.686-5.256-12.105-11.74-12.105-3.241 0-6.176 1.355-8.3 3.545" mask="url(#d)"/></g><path stroke="#A7ACB5" stroke-width="1.003" d="m4.42 22.258 2.803 2.891"/><g fill-rule="nonzero"><path fill="#FF6229" d="M20.925 16.475a5.456 5.456 0 0 1-5.46 5.452 5.456 5.456 0 0 1-5.459-5.452 5.456 5.456 0 0 1 5.46-5.452 5.456 5.456 0 0 1 5.459 5.452"/><g fill="#FFF"><path d="m17.538 17.997-3.597-3.592c-.159-.159-.408-.168-.555-.021-.147.147-.138.396.021.554l3.597 3.592c.16.16.408.169.555.022.148-.147.138-.396-.021-.555"/><path d="m13.407 17.997 3.597-3.592c.16-.159.408-.168.555-.021.148.147.138.396-.021.554L13.94 18.53c-.159.16-.408.169-.555.022-.147-.147-.138-.396.021-.555"/></g></g></g></svg>