<svg xmlns="http://www.w3.org/2000/svg" width="20" height="20"><g fill="none" fill-rule="evenodd"><path d="M0 0h20v20H0z"/><g fill="#000" fill-rule="nonzero"><path d="m14.359 8.211.166 1.96.108.067.067.05.066.052.128.119.11.128 1.852 2.408-3.894.001v.048c0 1.377-1.09 2.431-2.464 2.431-1.374 0-2.464-1.054-2.464-2.43l.002-.05h-.634l1.429-1h3.599l.277-.132.055.131 2.064.001-.595-.775-.07-.081a.624.624 0 0 0-.164-.119l-.094-.038-.321-.1-.171-2.008.948-.663Zm-2.4 4.784-2.924.002-.001.047c0 .818.635 1.431 1.464 1.431.828 0 1.464-.614 1.464-1.43l-.003-.05Zm-1.656-9.04c.985 0 1.916.37 2.628 1.024l.044.042-.842.59-.042-.035a2.874 2.874 0 0 0-1.788-.62 2.87 2.87 0 0 0-1.951.76 2.874 2.874 0 0 0-.897 1.662l-.027.217-.12 1.394-1.067.747.19-2.226c.071-.823.398-1.587.922-2.197l.163-.178.16-.155a3.87 3.87 0 0 1 2.627-1.025ZM3.471 13.156 15.974 4.4l.58.83-12.502 8.755z"/></g></g></svg>