<svg xmlns="http://www.w3.org/2000/svg" width="16" height="16"><g fill="none" fill-rule="evenodd"><circle cx="8" cy="8" r="7.5" fill="#FAFAFA" stroke="#000" stroke-opacity=".1"/><path fill="#4C4C4C" fill-rule="nonzero" d="M8.52 9.95v-.363c.022-.192.075-.351.159-.479s.18-.24.288-.34c.109-.099.224-.198.346-.297.122-.099.233-.218.333-.359.1-.14.185-.31.252-.507.068-.198.102-.45.102-.757a1.98 1.98 0 0 0-.102-.598 1.716 1.716 0 0 0-.337-.599 1.864 1.864 0 0 0-.622-.464C8.682 5.062 8.36 5 7.976 5c-.298 0-.568.06-.81.177a1.83 1.83 0 0 0-.617.493c-.171.211-.304.46-.399.747a3.192 3.192 0 0 0-.15.948h1.195c0-.172.016-.333.049-.483.032-.15.083-.281.15-.393a.814.814 0 0 1 .26-.268.694.694 0 0 1 .379-.1c.216 0 .386.07.508.21.122.14.183.358.183.651a.892.892 0 0 1-.078.431c-.057.115-.131.22-.223.316s-.193.192-.301.287a2.054 2.054 0 0 0-.565.814 2.257 2.257 0 0 0-.134.69v.43H8.52zM8.585 12v-1.475H7.31V12h1.276z" opacity=".4"/></g></svg>