<svg width="22" height="22" viewBox="0 0 22 22" fill="none" xmlns="http://www.w3.org/2000/svg">
<path fill-rule="evenodd" clip-rule="evenodd" d="M4.125 18.6768H6.5625H15.4375H17.1875C19.8454 18.6768 22 16.5221 22 13.8643C22 11.2071 19.8454 9.05176 17.1875 9.05176V8.36426C17.1875 4.94738 14.4176 2.17676 11 2.17676C7.58244 2.17676 4.8125 4.94738 4.8125 8.36426V10.4268H4.125C1.84731 10.4268 0 12.2741 0 14.5518C0 16.8301 1.84731 18.6768 4.125 18.6768ZM13.5352 11.2341L11.7499 13.0174V7.375H10.2833V13.0567L8.46093 11.2344L7.42384 12.2715L10.4777 15.3254L10.996 15.8436L11.5145 15.3256L14.5718 12.2718L13.5352 11.2341Z" fill="#999999" fill-opacity="0.5"/>
</svg>
