<svg width="22" height="22" viewBox="0 0 22 22" fill="none" xmlns="http://www.w3.org/2000/svg">
<path fill-rule="evenodd" clip-rule="evenodd" d="M11 2.17676C13.1882 2.17676 15.111 3.31264 16.2111 5.02675L2.78398 18.4538C1.16433 17.8973 0 16.3606 0 14.5518C0 12.2741 1.84731 10.4268 4.125 10.4268H4.8125V8.36426C4.8125 4.94738 7.58244 2.17676 11 2.17676ZM17.1551 7.72693L17.4842 7.39778L18.3045 6.57749L20.8324 4.04962L20.0086 3.22583L17.3019 5.93255L16.4455 6.78897L14.5882 8.64627L13.744 9.49045L10.5287 12.7058L9.68448 13.5505L7.66812 15.5669L6.85133 16.3831L3.9873 19.2471L4.81109 20.0709L6.20551 18.6768H6.5625H15.4375H17.1875C19.8454 18.6768 22 16.5221 22 13.8643C22 11.2071 19.8454 9.05176 17.1875 9.05176V8.36426C17.1875 8.14907 17.1765 7.93645 17.1551 7.72693Z" fill="#999999" fill-opacity="0.5"/>
</svg>
