<svg xmlns="http://www.w3.org/2000/svg" width="96" height="96"><g fill="none" fill-rule="evenodd"><path d="M.64 0H96v96H.64z"/><path fill="#009A3E" d="M67.771 59.459 47.997 70.4 34.56 58.761V41.066l34.56-1.386z"/><path fill="#009A3E" d="M68.995 26.322s4.568-1.032 8.112 4.21c3.543 5.241 1.57 20.647-9.135 22.394l-5.892.834 6.915-27.438Z"/><path fill="#0F141B" fill-rule="nonzero" d="M69.169 25.656c1.922-.241 4.195.27 6.347 2.133a12.053 12.053 0 0 1 2.121 2.442c1.92 2.875 2.273 8.28.869 13.12-1.623 5.593-5.229 9.55-10.366 10.398a.813.813 0 0 1-.93-.685.826.826 0 0 1 .671-.95c4.451-.735 7.61-4.2 9.07-9.233 1.278-4.402.957-9.305-.653-11.717a10.414 10.414 0 0 0-1.83-2.112c-1.77-1.53-3.595-1.942-5.102-1.753l-.097.013-.077.014a.81.81 0 0 1-.968-.627.828.828 0 0 1 .613-.989l.104-.02a4.44 4.44 0 0 1 .228-.034Z"/><path fill="#009A3E" d="M39.275 16.132c6.433-4.285 20.617-5.475 27.438 2.777 6.82 8.254 4.03 19.681 2.015 22.22l-11.298.269L39.177 55.68l-3.715-7.913-.023.004c-.409.064-6.13.938-11.852.619-4.435-.247-3.23-5.55-1.811-6.258-.727-.316-2.56-1.469-2.576-5.01-.025-5.833 10.812-6.428 11.394-7.102 0 0 1.824-9.32 8.68-13.888Z"/><path fill="#0F141B" fill-rule="nonzero" d="M39.117 14.944c3.48-2.277 8.872-3.601 14.124-3.405 5.973.224 11.188 2.329 14.534 6.306 3.23 3.838 4.656 8.616 4.538 13.639-.091 3.903-1.188 7.73-2.501 9.355a.815.815 0 0 1-1.151.12.826.826 0 0 1-.12-1.158c1.054-1.304 2.052-4.787 2.136-8.356.11-4.644-1.2-9.03-4.15-12.537-3.019-3.587-7.8-5.516-13.347-5.724-4.93-.185-9.99 1.058-13.17 3.14-2.026 1.324-3.73 3.163-5.134 5.39-1.077 1.708-1.918 3.544-2.547 5.38-.22.642-.399 1.237-.538 1.77l-.066.26-.088.386a.825.825 0 0 1-.291.484l-.055.044c-.27.202-.395.257-1.473.496l-1.349.294c-1.267.282-2.153.51-3.097.82-3.353 1.095-5.184 2.602-5.175 4.71.007 1.69.464 2.837 1.202 3.578a2.94 2.94 0 0 0 .937.639l.072.026.045.016a.823.823 0 0 1-.382 1.6 3.111 3.111 0 0 1-.621-.24 4.568 4.568 0 0 1-1.208-.877c-1.05-1.054-1.672-2.618-1.682-4.734-.013-2.997 2.27-4.926 6.112-6.22l.194-.064c1.014-.332 2.868-.775 4.128-1.065l1.134-.257.08-.314c.15-.572.34-1.207.573-1.89.67-1.948 1.562-3.898 2.713-5.723 1.523-2.414 3.385-4.425 5.623-5.89Z"/><path fill="#0F141B" fill-rule="nonzero" d="M36.544 39.096a.847.847 0 0 1-.608.968l-.223.044-3.336.612-5.471 1.02c-2.596.49-4.27.822-4.502.895-.348.11-.907 1.355-.877 2.52.035 1.368.74 2.22 2.303 2.35l.133.01c2.99.165 6.202.035 9.341-.284.668-.068 1.286-.14 1.844-.212l.596-.081.4-.06a.846.846 0 0 1 .265 1.673l-.547.08-.255.035c-.635.085-1.351.17-2.133.25-3.018.306-6.104.443-9.021.318l-.582-.029c-2.577-.143-3.971-1.757-4.03-4.007-.046-1.832.833-3.79 2.056-4.178l.118-.033c.537-.137 2.274-.478 5.05-1.001l3.658-.682 4.842-.89a.843.843 0 0 1 .98.682Z"/><path fill="#009A3E" d="M68.429 51.2s.319 16.32-.637 23.609c-.955 7.288-.807 9.197-3.503 9.903-2.468.646-5.493-.476-5.652-4.199-.16-3.724 0-5.388-1.035-5.625-1.035-.238-7.086-.554-7.404.713-.318 1.268.16 7.368-1.592 8.556-1.962 1.331-8.518 2.852-8.28-7.21.077-3.225.104-5.409.104-6.887"/><path fill="#0F141B" fill-rule="nonzero" d="M67.588 50.56a.824.824 0 0 1 .837.74l.004.101.025 1.71a338.93 338.93 0 0 1-.054 11.672l-.018.72c-.099 3.675-.273 6.712-.536 8.923l-.652 5.153-.022.161c-.527 3.766-1.203 5.002-3.444 5.59-3.328.873-6.447-1.043-6.612-4.915l-.033-.869-.053-1.632c-.07-1.817-.18-2.27-.296-2.296-.522-.12-2.288-.227-3.709-.185l-.384.015c-.688.034-1.274.102-1.711.203-.219.05-.39.107-.502.162l-.037.019-.016.12c-.018.158-.033.377-.048.682l-.029.722c-.05 1.43-.063 1.751-.114 2.443l-.033.406c-.205 2.317-.642 3.778-1.645 4.46-1.48 1.007-3.807 1.461-5.66.749-2.53-.973-3.913-3.807-3.8-8.58l.046-2.07c.038-1.942.056-3.505.057-4.724a.824.824 0 0 1 1.65 0l-.005 1.14a368.108 368.108 0 0 1-.098 5.693c-.098 4.147.962 6.32 2.742 7.005 1.297.498 3.074.152 4.139-.573.464-.315.811-1.609.961-3.627l.044-.665c.013-.244.024-.52.04-.923l.042-1.206c.034-.85.068-1.243.148-1.563.284-1.131 1.711-1.46 4.165-1.533 1.55-.046 3.443.068 4.128.226.721.166 1.14.687 1.343 1.488l.027.111c.117.526.164 1.107.208 2.355l.057 1.743.025.635c.117 2.75 2.174 4.014 4.544 3.392l.15-.042c1.242-.367 1.622-1.066 2.03-3.846l.05-.337c.1-.72.513-4.071.619-4.882.292-2.238.482-5.506.584-9.53l.009-.357c.082-3.46.095-7.125.064-10.583l-.036-2.762a.824.824 0 0 1 .809-.839Z"/><path fill="#009A3E" d="M34.569 48s-2.003 4.397-1.927 9.334c.081 5.279.915 8.526 4.897 11.442 3.532 2.586 7.867 2.265 7.19-2.28-.675-4.546-3.658-4.146-2.694-11.2"/><path fill="#0F141B" fill-rule="nonzero" d="M33.943 47.854a.813.813 0 0 1 1.08-.422.838.838 0 0 1 .416 1.099l-.072.172-.117.298-.085.228a25.49 25.49 0 0 0-.623 1.942c-.592 2.125-.935 4.32-.903 6.45.083 5.689 1.088 8.372 4.427 10.918 1.523 1.163 3.2 1.676 4.347 1.407 1.067-.251 1.583-1.173 1.333-2.928-.177-1.235-.465-1.995-1.122-3.178l-.246-.435c-1.365-2.406-1.748-4.148-1.25-7.943a.821.821 0 0 1 .92-.715.83.83 0 0 1 .702.935l-.055.444c-.355 3.023-.052 4.378 1.022 6.308l.211.373c.833 1.468 1.216 2.423 1.437 3.972.365 2.558-.624 4.328-2.584 4.789-1.673.393-3.82-.264-5.697-1.697-3.806-2.902-4.991-6.068-5.082-12.225-.034-2.31.333-4.66.965-6.928.185-.664.381-1.279.58-1.836l.085-.235c.137-.375.246-.644.311-.793Z"/><path fill="#FED800" d="M38.4 30.716s.608-8.984 8.318-10.09c9.113-1.307 12.802 6.569 12.802 6.569s-1.953 5.77-9.764 6.57c-7.812.798-10.126-1.67-11.356-3.05"/><path fill="#0F141B" fill-rule="nonzero" d="M46 19.36c-3.411.506-5.803 2.521-7.312 5.52a15.58 15.58 0 0 0-1.301 3.777l-.06.3c-.123.631-.185 1.13-.205 1.445a.86.86 0 0 0 .204.616c1.067 1.238 1.944 1.97 3.46 2.602 2.061.86 4.79 1.158 8.399.777 3.328-.352 5.913-1.624 7.826-3.526a11.21 11.21 0 0 0 1.911-2.518c.291-.526.47-.946.555-1.207a.869.869 0 0 0-.034-.627l-.06-.126c-.122-.25-.32-.61-.598-1.048a14.553 14.553 0 0 0-2.003-2.492c-2.753-2.741-6.342-4.151-10.783-3.493Zm10.067 4.987c.71.711 1.305 1.474 1.787 2.235l.098.157c.094.153.178.3.254.436l.034.064-.077.17a8.11 8.11 0 0 1-.224.436 9.667 9.667 0 0 1-1.64 2.17c-1.67 1.669-3.939 2.79-6.927 3.108-3.391.36-5.88.087-7.693-.673l-.168-.072c-.98-.433-1.619-.92-2.331-1.69l-.14-.154.006-.049c.043-.336.106-.713.191-1.12a14.115 14.115 0 0 1 1.164-3.404c1.294-2.585 3.282-4.268 6.156-4.696 3.947-.588 7.077.648 9.51 3.082Z"/><path fill="#0F141B" fill-rule="nonzero" d="M47.072 19.85c.6-.081 1.15.336 1.266.94l.012.077 1.56 12.36c.082.646-.358 1.238-.982 1.323-.6.081-1.15-.336-1.266-.94l-.012-.077-1.56-12.36c-.082-.646.358-1.238.982-1.323Z"/><path fill="#FEFEFE" d="M28.8 40.32s.31-4.858 1.63-5.11c1.318-.25 3.49 4.105 3.49 4.105"/><path fill="#0F141B" fill-rule="nonzero" d="M30.561 34.584c.708-.12 1.363.218 2.046.857.388.363.787.83 1.192 1.378.324.438.636.905.925 1.37l.144.236.23.394a.803.803 0 0 1-.345 1.108.87.87 0 0 1-1.113-.271l-.125-.212a18.722 18.722 0 0 0-.182-.305l-.069-.11c-.266-.432-.554-.862-.849-1.26a8.677 8.677 0 0 0-.992-1.154 2.648 2.648 0 0 0-.43-.338l-.083-.045-.041-.02a1.251 1.251 0 0 0-.184.265l-.04.075c-.168.334-.321.81-.45 1.383a16.086 16.086 0 0 0-.265 1.56l-.032.27-.039.41-.002.023c-.032.451-.438.791-.906.76-.468-.031-.821-.422-.789-.872l.019-.222.027-.269.034-.293a17.62 17.62 0 0 1 .292-1.715c.393-1.742.936-2.818 2.027-3.003Z"/><path fill="#FEFEFE" d="M19.256 60.8s-4.523 2.544-2.907 5.723c1.615 3.18 5.411-.397 5.411-.397"/><path fill="#0F141B" fill-rule="nonzero" d="M18.845 60.273c.383-.235.87-.092 1.09.32.219.411.086.936-.297 1.171l-.07.045A8.277 8.277 0 0 0 18.26 62.9c-1.171 1.209-1.604 2.42-1.045 3.621.345.743.763.96 1.374.857.45-.077.976-.333 1.52-.717a7.81 7.81 0 0 0 .688-.55l.137-.125c.052-.048.09-.086.113-.11a.76.76 0 0 1 1.13.027.904.904 0 0 1-.025 1.214 8.644 8.644 0 0 1-1.165.979c-.716.506-1.436.857-2.149.978-1.285.219-2.389-.358-3.053-1.785-.942-2.023-.25-3.957 1.367-5.627a9.12 9.12 0 0 1 1.692-1.39Z"/><path fill="#FEFEFE" d="M24.827 69.12s-4.806 4.22-.891 6.095c3.142 1.505 4.864-3.048 4.864-3.048"/><path fill="#0F141B" fill-rule="nonzero" d="M24.324 68.06a.78.78 0 0 1 1.14.057c.3.346.276.882-.053 1.197l-.088.087a10.363 10.363 0 0 0-.963 1.145c-.494.684-.83 1.346-.944 1.917-.153.765.09 1.303.966 1.76 1.023.535 1.888.09 2.712-1.143.225-.337.422-.703.588-1.069l.097-.22c.045-.11.078-.194.096-.246.152-.44.616-.667 1.034-.506.419.16.635.646.482 1.086a8.834 8.834 0 0 1-.976 1.928c-1.227 1.837-2.859 2.676-4.752 1.688-1.538-.803-2.129-2.111-1.827-3.625.172-.86.613-1.728 1.239-2.594.271-.376.56-.727.85-1.045l.18-.195c.092-.096.166-.17.22-.221Z"/></g></svg>