<svg xmlns="http://www.w3.org/2000/svg" width="96" height="96"><g fill="none" fill-rule="evenodd"><path d="M0 0h96v96H0z"/><path fill="#F5AB1A" d="M33.995 64.3c.1-.023.282 19.566.403 21.393 0 0 .928.275 2.475.637-.211-1.84-.147-3.706.286-5.311.841-3.105 3.328-6.253 4.04-6.805l3.545 3.901 3.714-4.018 4.037 4.14s1.535-1.96 3.962-4.112c0 0 3.386 3.205 4.538 6.987.62 2.032.63 4.049.304 5.884 5.5-1.069 8.76-2.525 8.76-2.525s-.518-21.593-4.193-24.039c-.595-.397-1.838-.563-3.498-.563-8.58 0-28.373 4.432-28.373 4.432Z"/><path fill="#FFF" d="m44.744 78.115-3.546-3.9c-.71.55-3.198 3.7-4.039 6.804-.433 1.605-.497 3.472-.286 5.311 3.37.79 9.683 2 15.75 1.706a60.832 60.832 0 0 0 8.676-1.04c.326-1.835.316-3.852-.304-5.884-1.152-3.782-4.538-6.987-4.538-6.987-2.427 2.153-3.962 4.112-3.962 4.112l-4.037-4.14-3.714 4.018Z"/><path fill="#F5AB1A" d="M61.247 72.027c-2.987 3.513 4.401 9.628 7.462 9.145l5.815-6.937c0-8.507-4.466-10.34-4.466-10.34-1.11-.4-2.02-.579-2.773-.579-4.275.002-3.496 5.722-6.038 8.71Z"/><path fill="#000" d="M68.37 82.098c-2.476 0-6.307-2.607-7.935-5.505-1.091-1.944-1.046-3.773.126-5.15.845-.995 1.3-2.423 1.741-3.802.616-1.931 1.253-3.928 3.024-4.801 1.27-.626 2.916-.56 5.037.206.242.099 5.063 2.18 5.063 11.188a.9.9 0 1 1-1.803 0c0-7.71-3.756-9.44-3.917-9.51-1.568-.564-2.79-.658-3.582-.267-1.084.534-1.557 2.016-2.104 3.732-.494 1.55-1.006 3.151-2.086 4.42-.666.785-.642 1.827.073 3.1 1.436 2.555 5.01 4.803 6.561 4.572a.896.896 0 0 1 1.03.749.9.9 0 0 1-.748 1.031 3.053 3.053 0 0 1-.48.037"/><path fill="#000" d="M69.65 85.26a.79.79 0 0 1-.789-.777c-.12-8.188-1.212-21.781-3.635-23.394a.787.787 0 0 1-.22-1.093.79.79 0 0 1 1.094-.22c3.825 2.546 4.285 21.009 4.339 24.684a.789.789 0 0 1-.777.8h-.012Z"/><path fill="#F5AB1A" d="M29.817 11.607c-6.078 1.998-5.075 8.513-3.37 10.6l12.878-4.118c-.398-2.819-2.538-6.932-6.883-6.933-.799 0-1.672.14-2.625.45Z"/><path fill="#000" d="M26.447 22.995a.787.787 0 0 1-.61-.289c-1.153-1.41-1.956-4.357-1.172-7.04.471-1.613 1.705-3.756 4.907-4.808 2.426-.796 4.682-.611 6.525.535 2.494 1.553 3.719 4.518 4.01 6.586a.789.789 0 0 1-1.563.22c-.244-1.731-1.248-4.2-3.28-5.466-1.453-.905-3.202-1.032-5.2-.376-2.047.672-3.353 1.934-3.883 3.75-.665 2.276.13 4.687.877 5.6a.789.789 0 0 1-.61 1.288"/><path fill="#F5AB1A" d="m56.83 18.089 12.878 4.118c1.705-2.087 2.709-8.602-3.37-10.6-.953-.311-1.826-.451-2.625-.451-4.344 0-6.487 4.114-6.883 6.933Z"/><path fill="#000" d="M69.707 22.995a.79.79 0 0 1-.61-1.288c.747-.913 1.542-3.325.878-5.6-.53-1.816-1.836-3.078-3.884-3.75-1.997-.656-3.744-.529-5.199.376-2.032 1.265-3.037 3.735-3.282 5.466a.788.788 0 1 1-1.562-.22c.292-2.068 1.516-5.033 4.01-6.586 1.843-1.146 4.1-1.331 6.526-.535 3.2 1.052 4.434 3.194 4.906 4.806.783 2.684-.018 5.632-1.17 7.042a.79.79 0 0 1-.613.29"/><path fill="#F5AB1A" d="M17.32 42.86c0 18.676 14.914 27.739 30.632 27.739 15.97 0 30.631-9.063 30.631-27.74 0-18.609-14.661-29.17-30.631-29.17-16.495 0-30.633 10.792-30.633 29.17Z"/><path fill="#000" d="M47.951 14.479c-17.572 0-29.843 11.67-29.843 28.38 0 18.617 14.988 26.952 29.843 26.952 14.854 0 29.843-8.335 29.843-26.951 0-18.632-15.013-28.381-29.843-28.381m0 56.91c-8.378 0-16.086-2.502-21.705-7.042-6.357-5.136-9.716-12.566-9.716-21.487 0-17.64 12.92-29.96 31.421-29.96 15.614 0 31.42 10.292 31.42 29.96 0 19.706-15.78 28.529-31.42 28.529"/><path fill="#231F20" d="M58.095 40.594c-1.739 2.286.84 4.869 3.121 3.128 1.34-1.76.116-3.698-1.56-3.698-.5 0-1.04.17-1.561.57Z"/><path fill="#010202" d="M65.483 36.123h-.049c-5.619-.238-10.504-.045-10.552-.043a1.127 1.127 0 1 1-.091-2.252c.048-.002 5.02-.2 10.739.042a1.128 1.128 0 0 1-.047 2.253"/><path fill="#231F20" d="M32.868 40.698c-1.717 2.26.832 4.813 3.088 3.094 1.323-1.741.112-3.656-1.545-3.656-.492 0-1.025.168-1.543.562Z"/><path fill="#FFF" d="m48.037 48.787-1.378.587-1.331-.692c-4.18-1.458-7.341.95-7.631 3.727-.237 2.268 1.738 4.525 4.138 4.738 2.595.227 4.266-1.121 4.9-2.677.513 1.6 1.822 2.796 4.426 2.768 2.41-.027 4.416-1.525 4.583-4.296.132-2.207-1.696-4.73-4.902-4.73-.843 0-1.781.174-2.805.575Z"/><path fill="#000" d="M46.735 53.68a.788.788 0 0 1 .751.547c.48 1.495 1.651 2.222 3.58 2.222l.087-.001c1.736-.02 3.648-.962 3.804-3.553.069-1.152-.54-2.372-1.551-3.107-1.301-.946-3.106-1.04-5.08-.266l-1.359.577a.786.786 0 0 1-1.088-.851.788.788 0 0 1-.81.179c-1.787-.622-3.495-.507-4.807.326-1.017.646-1.666 1.644-1.78 2.739-.086.824.211 1.716.814 2.447.673.816 1.623 1.334 2.61 1.42 2.283.213 3.612-.998 4.098-2.188a.79.79 0 0 1 .73-.49m4.34 4.346c-1.973 0-3.488-.678-4.404-1.942-.972 1.164-2.584 2.047-4.903 1.847-1.405-.125-2.75-.85-3.688-1.988-.883-1.072-1.297-2.356-1.167-3.617.165-1.576 1.077-3 2.504-3.906 1.728-1.098 3.919-1.27 6.173-.484.367.128.58.5.518.871a.8.8 0 0 1 .242-.161l1.38-.586c3.385-1.327 5.59-.287 6.605.45 1.458 1.061 2.3 2.777 2.198 4.478-.18 2.98-2.335 5.003-5.361 5.037h-.098"/><path fill="#231F20" d="m28.098 35.014 10.645.042a142.42 142.42 0 0 0-5.921-.12c-2.82 0-4.724.078-4.724.078Z"/><path fill="#010202" d="M38.745 36.183h-.05a142.753 142.753 0 0 0-10.55-.043 1.127 1.127 0 1 1-.092-2.252c.049-.002 5.02-.2 10.739.042a1.127 1.127 0 0 1-.047 2.253"/><path fill="#000" d="M43.855 48.121c-.177 1.053 1.362 3.28 2.753 3.269 1.249-.01 2.726-1.84 2.908-3.29.12-.949-1.527-1.75-3.082-1.75-1.21 0-2.365.488-2.58 1.771Z"/><path fill="#F5AB1A" d="M58.444 61.381c-2.458 3.377-1.403 8.208-.593 10.934.781 2.62 1.68 5.932 3.913 7.6 2.09 1.557 5.197 1.695 7.655 1.058 2.61-.677 5.036-3.886 5.105-6.738l-2.12-.841c-.076-3.003-.793-7.573-3.143-11.617-1.193-2.053-3.299-2.994-5.41-2.994-2.092 0-4.187.922-5.407 2.598Z"/><path fill="#000" d="M66.592 82.118c-1.823 0-3.757-.422-5.3-1.572-2.344-1.749-3.312-5.02-4.09-7.65l-.106-.356c-1.492-5.016-1.253-8.926.71-11.623 1.404-1.93 3.889-3.05 6.448-2.912 2.441.126 4.515 1.356 5.69 3.376 2.778 4.785 3.197 9.98 3.247 11.992a.79.79 0 0 1-.768.809h-.02a.79.79 0 0 1-.79-.768c-.047-1.892-.438-6.772-3.035-11.24-.9-1.55-2.506-2.496-4.405-2.593-2.023-.118-4.015.785-5.091 2.265-1.658 2.278-1.818 5.724-.473 10.245l.106.356c.712 2.406 1.597 5.4 3.522 6.834 2.011 1.5 5.019 1.437 6.984.928 2.26-.587 4.453-3.5 4.515-5.995a.789.789 0 0 1 1.578.039c-.08 3.22-2.741 6.717-5.697 7.483-.899.233-1.942.382-3.025.382"/><path fill="#F5AB1A" d="M25.797 59.345c-2.733 2.038-3.506 6.26-4.005 9.344-.693 4.268-.413 10.826 3.598 12.862 3.493 1.775 6.644.867 8.681-.639l1.165-7.782s1.493-8.347-.096-11.619c-.965-1.988-3.527-3.182-5.947-3.182-1.25 0-2.464.321-3.396 1.016Z"/><path fill="#000" d="M29.266 83.322c-1.268 0-2.695-.286-4.233-1.068-4.257-2.161-4.827-8.726-4.02-13.691.457-2.823 1.224-7.548 4.313-9.851 1.495-1.115 3.697-1.46 5.894-.925 2.122.517 3.853 1.78 4.63 3.38 1.681 3.462.225 11.75.162 12.102a.788.788 0 1 1-1.553-.278c.402-2.253 1.181-8.644-.028-11.136-.574-1.18-1.914-2.128-3.585-2.536-1.745-.425-3.456-.18-4.577.657-2.577 1.922-3.28 6.252-3.7 8.838-.58 3.576-.563 10.134 3.179 12.033 3.79 1.925 6.755.242 7.854-.57a.79.79 0 0 1 .938 1.268c-.886.657-2.77 1.777-5.274 1.777"/><path fill="#A9DEF7" d="M5.759 38.582s2.557.74 3.438 4.045c0 0 .421-3.8 2.71-4.533 0 0-3.076-.662-3.421-3.402 0 0-.056 2.898-2.727 3.89Z"/><path fill="#000" d="M7.393 38.561a6.366 6.366 0 0 1 1.609 1.685c.27-.687.659-1.406 1.209-1.977a5.32 5.32 0 0 1-1.56-1.258 4.748 4.748 0 0 1-1.258 1.55m1.804 4.854a.789.789 0 0 1-.762-.585c-.748-2.802-2.813-3.465-2.902-3.493a.793.793 0 0 1-.56-.732.786.786 0 0 1 .51-.762c2.12-.788 2.211-3.072 2.214-3.17a.791.791 0 0 1 .75-.766c.41-.028.77.278.822.687.273 2.158 2.778 2.723 2.803 2.728a.789.789 0 0 1 .075 1.522c-1.468.472-2.061 2.954-2.166 3.87a.789.789 0 0 1-.784.701"/><path fill="#A9DEF7" d="M9.103 49.16c2.568.385 3.407 3.451 3.407 3.451.339-2.793 2.655-4.212 2.655-4.212-3.386 0-3.682-3.345-3.682-3.345.17 2.295-2.38 4.107-2.38 4.107Z"/><path fill="#000" d="M10.624 48.854c.749.413 1.309 1.017 1.716 1.61a7.013 7.013 0 0 1 1.079-1.58 4.024 4.024 0 0 1-1.788-1.364 7.246 7.246 0 0 1-1.007 1.334m1.885 4.546a.79.79 0 0 1-.76-.58c-.006-.024-.745-2.576-2.763-2.878a.79.79 0 0 1-.341-1.423c.022-.015 2.186-1.59 2.052-3.407a.788.788 0 0 1 1.572-.127c.026.265.334 2.625 2.896 2.625a.79.79 0 0 1 .415 1.46c-.036.023-2.002 1.284-2.287 3.636a.79.79 0 0 1-.725.693l-.059.001"/><path fill="#A9DEF7" d="M81.245 31.978c3.732.694 4.757 5.532 4.757 5.532.779-5.051 4.073-6.234 4.073-6.234-4.538-.166-5.02-4.43-5.02-4.43-.111 3.507-3.81 5.132-3.81 5.132Z"/><path fill="#000" d="M83.05 31.8c1.35.752 2.248 1.995 2.823 3.115.593-1.52 1.417-2.548 2.156-3.223-1.347-.481-2.263-1.366-2.857-2.299-.567 1.07-1.4 1.865-2.123 2.407ZM86 38.298a.789.789 0 0 1-.77-.623c-.01-.043-.969-4.334-4.13-4.92a.789.789 0 0 1-.173-1.5c.03-.013 3.245-1.479 3.339-4.433a.788.788 0 0 1 .756-.764.815.815 0 0 1 .816.696c.018.149.483 3.595 4.265 3.734a.788.788 0 0 1 .238 1.53c-.111.043-2.87 1.134-3.56 5.612a.79.79 0 0 1-.757.668H86ZM34.216 86.279a.789.789 0 0 1-.786-.736c-.035-.515-.062-2.275-.088-5.706a.79.79 0 0 1 .784-.794c.417.022.791.347.794.782.016 2.11.042 4.988.084 5.612a.789.789 0 0 1-.788.842"/></g></svg>