<svg xmlns="http://www.w3.org/2000/svg" width="150" height="70" fill="none"><path fill="#3961E1" fill-rule="evenodd" d="M96.326 16.087 75.693 8.679a2.05 2.05 0 0 0-1.388 0l-20.632 7.408C51.467 16.88 50 18.949 50 21.264v18.89c0 7.166 1.992 12.32 7.18 16.907 3.708 3.276 8.239 6.54 12.366 8.91 2.186 1.254 3.379 1.587 5.453 1.587 2.074 0 3.267-.333 5.453-1.588 4.127-2.37 8.66-5.633 12.367-8.909 5.188-4.586 7.181-9.74 7.181-16.907v-18.89c0-2.315-1.47-4.384-3.674-5.177Z" clip-rule="evenodd"/><path fill="#FAE100" fill-rule="evenodd" d="M75 23.898c-7.67 0-13.89 5.701-13.89 12.734 0 5.194 2.195 7.673 5.2 9.933v6.088c0 .288.331.453.564.281l5.242-3.856c.926.18 1.885.274 2.867.274 7.663 0 13.876-5.69 13.889-12.712l.018-.008c0-7.033-6.219-12.734-13.89-12.734Z" clip-rule="evenodd"/><path fill="#BEDCF0" fill-rule="evenodd" d="M135.344 0h-32.513c-6.987 0-12.652 5.65-12.652 12.62 0 6.97 5.665 12.619 12.652 12.619h32.513c6.988 0 12.652-5.649 12.652-12.62C147.996 5.652 142.332 0 135.344 0Z" clip-rule="evenodd"/><path fill="#3961E1" fill-rule="evenodd" d="M109.299 9.736a.832.832 0 0 0-1.137-.303l-3.039 1.75V7.681a.831.831 0 0 0-.832-.83.831.831 0 0 0-.833.83v3.502l-3.04-1.75a.832.832 0 0 0-1.137.302.828.828 0 0 0 .306 1.134l3.04 1.751-3.04 1.75a.829.829 0 0 0-.306 1.134.833.833 0 0 0 1.137.304l3.04-1.75v3.5a.832.832 0 0 0 1.665 0v-3.5l3.04 1.75a.833.833 0 0 0 1.136-.304.828.828 0 0 0-.305-1.133l-3.041-1.75 3.041-1.752a.83.83 0 0 0 .305-1.134Zm14.797 0a.831.831 0 0 0-1.136-.303l-3.041 1.75V7.681a.83.83 0 0 0-1.663 0v3.502l-3.042-1.75a.83.83 0 0 0-1.136.302.828.828 0 0 0 .306 1.134l3.04 1.751-3.04 1.75a.828.828 0 0 0-.306 1.134.834.834 0 0 0 1.137.304l3.041-1.75v3.5a.832.832 0 0 0 1.663 0v-3.5l3.041 1.75a.833.833 0 0 0 1.136-.304.828.828 0 0 0-.304-1.133l-3.041-1.75 3.041-1.752a.829.829 0 0 0 .304-1.134Zm14.493 4.635-3.041-1.75 3.041-1.752a.831.831 0 0 0-.831-1.437l-3.041 1.75V7.68a.831.831 0 0 0-1.664 0v3.502l-3.041-1.75a.83.83 0 0 0-.832 1.437l3.041 1.751-3.041 1.75a.828.828 0 0 0-.303 1.134.832.832 0 0 0 1.135.304l3.041-1.75v3.502a.83.83 0 0 0 .831.828c.46 0 .833-.37.833-.828v-3.502l3.041 1.75a.832.832 0 0 0 1.135-.303.828.828 0 0 0-.304-1.134Z" clip-rule="evenodd"/></svg>