<svg xmlns="http://www.w3.org/2000/svg" width="96" height="96"><g fill="none" fill-rule="evenodd"><path d="M0 0h96v96H0z"/><path fill="#00993E" d="M21.036 70.014c-.795 3.533-1.406 8.334-1.174 10.724.366 3.796 1.347 4.785 2.782 4.787 2.036.002 2.046-1.58 2.295-4.081.051-.523.623-.729 1.566-.729.574 0 1.305 0 1.41.939.063.573-.105 3.87 2.088 3.87 1.723 0 2.251-1.272 2.192-4.2-.05-2.596 1.265-4.703 1.286-6.207l.46.075c2.18.157 5.475.908 5.775-1.667.07-.594-.308-1.09-.308-1.09s.83-.68.774-1.622c-.08-1.306-.793-2.21-4.4-2.897 0 0 .142-4.157-5.5-5.393a8.365 8.365 0 0 0-1.796-.203c-4.13 0-6.506 3.495-7.45 7.694Z"/><path fill="#000" d="M28.494 63.001c-4.641 0-6.283 4.885-6.795 7.163-.748 3.326-1.387 8.167-1.16 10.508.402 4.172 1.51 4.172 2.106 4.173h.002c1.172 0 1.333-.528 1.568-2.986l.047-.482c.061-.612.499-1.341 2.243-1.341.523 0 1.914 0 2.085 1.542.01.08.015.205.022.363.08 2.009.509 2.904 1.391 2.904.57 0 .807-.174.935-.305.424-.431.612-1.479.578-3.203-.033-1.62.431-3.064.804-4.224.255-.793.474-1.477.482-2.007a.68.68 0 0 1 .68-.67h.01a.667.667 0 0 1 .324.088.572.572 0 0 1 .174-.01c.305.021.632.055.97.09 2.697.275 3.926.174 4.08-1.158.035-.297-.171-.596-.173-.598a.68.68 0 0 1 .11-.939c.001-.001.56-.48.526-1.055-.043-.693-.094-1.555-3.85-2.27a.68.68 0 0 1-.552-.69c.003-.143.018-3.616-4.965-4.706a7.651 7.651 0 0 0-1.642-.187m-5.847 23.204h-.003c-2.59-.002-3.201-2.731-3.46-5.402-.247-2.57.427-7.554 1.188-10.938 1.371-6.09 5.131-9.083 10.055-8.005 4.814 1.053 5.789 4.177 5.984 5.49 3.123.66 4.34 1.613 4.449 3.424.047.777-.314 1.395-.622 1.776.112.278.2.645.153 1.054-.336 2.888-3.485 2.565-5.57 2.352a44.118 44.118 0 0 0-.743-.07c-.099.51-.272 1.049-.463 1.642-.36 1.12-.767 2.388-.74 3.782.045 2.196-.244 3.447-.965 4.182-.464.473-1.106.713-1.907.713-2.582 0-2.709-3.169-2.75-4.21a4.999 4.999 0 0 0-.014-.266c-.03-.27-.038-.333-.734-.333-.746 0-.906.146-.908.147l-.028.447c-.207 2.167-.404 4.215-2.922 4.215"/><path fill="#FFD800" d="m36.509 77.067 10.075 1.036.1.21c1.81 3.963.808 9.416-2.967 9.38l-.189-.004c-2.421-.079-3.646-1.234-3.505-4.87.094-2.445-2.17-5.056-3.514-5.752Zm8.924-.425 8.585.183.076.232c1.487 4.648.696 10.473-3.595 10.202l-.207-.016c-2.75-.257-2.79-2.06-2.632-5.492.097-2.086-.877-4.414-2.227-5.11Z"/><path fill="#000" d="M45.775 75.981c1.586.817 2.74 3.367 2.627 5.804-.17 3.714.007 4.597 2.143 4.731 1.043.061 1.834-.281 2.43-1.06 1.28-1.672 1.421-5.2.339-8.392a.74.74 0 0 1 .464-.943.741.741 0 0 1 .944.465c1.023 3.015 1.283 7.36-.566 9.774-.83 1.084-1.991 1.651-3.374 1.651-.11 0-.219-.003-.33-.01-1.714-.108-2.632-.734-3.11-1.684l-.071.122c-.814 1.29-2.062 1.997-3.519 1.997h-.042c-1.5-.015-2.541-.38-3.275-1.15-.872-.916-1.24-2.344-1.156-4.497.081-2.1-1.97-4.47-3.113-5.062a.743.743 0 1 1 .684-1.32c1.465.756 4.026 3.556 3.916 6.44-.065 1.7.179 2.816.746 3.412.438.46 1.141.679 2.212.69.934.007 1.737-.43 2.289-1.303 1.101-1.749 1.06-4.85-.098-7.216a.743.743 0 0 1-.067-.441c-.229-.31-.485-.548-.755-.687a.742.742 0 0 1-.32-1 .742.742 0 0 1 1.002-.32Z"/><path fill="#FFF" d="M23.52 34.65c-.952 11.21 1.898 16.883 4.277 24.54 1.422 4.583-1.628 9.926.32 13.774 2.145 4.238 10.111 4.818 19.684 5.324 8.06.425 11.706-1.746 13.593-3.701 2.92-3.028 2.758-6.954 4.946-11.191 3.455-6.693 13.523-12.037 13.523-28.323 0-16.06-9.547-26.863-27.385-26.863-14.445 0-27.58 10.203-28.958 26.44Z"/><path fill="#000" d="M28.78 72.628c2.034 4.016 10.69 4.475 19.06 4.917 6.1.324 10.482-.847 13.018-3.475 1.623-1.68 2.223-3.666 2.917-5.966.487-1.616.992-3.285 1.904-5.05 1.027-1.99 2.614-3.86 4.293-5.842 4.075-4.805 9.146-10.786 9.146-22.14 0-16.354-9.96-26.118-26.641-26.118-15.083 0-26.95 10.833-28.216 25.758-.78 9.181.984 14.44 3.027 20.529.406 1.211.82 2.442 1.22 3.73.728 2.345.376 4.791.036 7.157-.348 2.416-.676 4.698.237 6.5m21.046 6.46a39.4 39.4 0 0 1-2.066-.057c-10.803-.573-18.054-1.28-20.308-5.73-1.125-2.223-.747-4.846-.382-7.385.317-2.201.644-4.48.016-6.504a168.207 168.207 0 0 0-1.21-3.697c-2.007-5.987-3.904-11.64-3.099-21.128 1.334-15.715 13.824-27.12 29.699-27.12 17.614 0 28.129 10.32 28.129 27.606 0 11.898-5.267 18.11-9.5 23.102-1.622 1.914-3.155 3.722-4.106 5.562-.848 1.644-1.332 3.246-1.8 4.797-.72 2.38-1.4 4.63-3.271 6.57-2.58 2.673-6.552 3.984-12.102 3.984"/><path fill="#FFD800" d="M30.558 39.444c0 15.358 10.929 21.623 22.79 22.277 14.275.785 23.114-8.856 23.114-22.277 0-13.838-7.932-21.033-22.847-21.033-11.88 0-23.057 6.71-23.057 21.033Z"/><path fill="#000" d="M53.615 19.155c-11.106 0-22.314 6.273-22.314 20.288 0 6.11 2.153 20.437 22.088 21.534 6.461.367 11.986-1.46 15.99-5.25 4.089-3.869 6.339-9.652 6.339-16.284 0-13.462-7.437-20.288-22.103-20.288m1.352 43.354c-.548 0-1.1-.015-1.659-.046-14.711-.81-23.494-9.416-23.494-23.02 0-15.042 11.953-21.776 23.801-21.776 15.433 0 23.59 7.53 23.59 21.776 0 7.045-2.415 13.212-6.803 17.364-3.958 3.747-9.269 5.702-15.435 5.702"/><path fill="#EE8484" d="M37.445 44.048c-.346 1.21.216 2.198 4.183 2.94 4.25.795 5.253-.012 5.442-.854.256-1.122-.122-2.337-3.808-3.143 0 0-1.41-.353-2.851-.353-1.312 0-2.647.293-2.966 1.41Z"/><path fill="#0F141B" d="M60.775 46.278c2.16.434 3.465 1.762 3.175 3.23a2.181 2.181 0 0 1-.946 1.423c-.486.325-1.108.488-1.856.488-.16 0-.326-.008-.497-.023-.023.173-.04.348-.053.522-.096 1.31.505 2.064 1.838 2.304.506.09.895.026 1.188-.197.47-.356.637-1.081.661-1.331a.704.704 0 0 1 1.401.124l-.003.03-.013.105c-.057.398-.292 1.502-1.186 2.186-.46.353-1.007.53-1.63.53-.214 0-.436-.02-.667-.063-1.272-.23-2.175-.848-2.642-1.773a3.537 3.537 0 0 1-2.46.985 4.24 4.24 0 0 1-.916-.104c-2.982-.656-3.493-2.963-3.346-4.09a.699.699 0 0 1 .788-.607c.385.05.657.402.607.787-.022.2-.153 2.006 2.253 2.536 1.74.387 2.518-.938 2.715-1.352 0-.056.004-.113.008-.171.017-.23.04-.462.07-.688-1.53-.5-2.422-1.696-2.165-2.995a2.265 2.265 0 0 1 .986-1.45c.703-.47 1.66-.614 2.69-.406Z"/><path fill="#FFF" d="M41.151 15.841s2.54 4.174 3.184 11.022c.499 5.316-.989 11.513 1.303 16.079 1.538 3.068 8.068 5.318 10.758 1.386 2.367-3.463 3.306-11.86 2.608-17.873-.851-7.316-3.357-12.23-3.357-12.23L41.15 15.84Z"/><path fill="#000" d="M56.308 13.887c.106.205 2.579 5.118 3.434 12.482.686 5.913-.163 14.621-2.732 18.379-1.077 1.573-2.791 2.423-4.864 2.423-.176 0-.352-.006-.533-.018-2.77-.187-5.625-1.854-6.64-3.878-1.587-3.161-1.46-7.01-1.338-10.73.062-1.882.126-3.828-.041-5.612-.618-6.577-3.055-10.666-3.08-10.706a.744.744 0 0 1 1.272-.774c.107.177 2.637 4.4 3.289 11.34.176 1.878.111 3.872.047 5.8-.115 3.536-.236 7.192 1.181 10.015.785 1.564 3.161 2.908 5.41 3.06 1.25.081 2.968-.153 4.068-1.76 2.3-3.364 3.141-11.696 2.483-17.367-.824-7.102-3.256-11.93-3.28-11.978a.743.743 0 1 1 1.324-.676Zm-1.887 24.185c.41.034.713.392.68.801-.013.153-.324 3.75-1.882 5.531a.743.743 0 0 1-1.05.069.743.743 0 0 1-.069-1.05c1.024-1.169 1.444-3.768 1.518-4.671a.747.747 0 0 1 .803-.68Zm-4.127.244c.01.1.233 2.473-.232 4.889a.744.744 0 0 1-1.46-.283c.422-2.196.214-4.44.212-4.463a.744.744 0 0 1 1.48-.143Z"/><path fill="#FFF" d="M67.595 17.5s1.621 4.637 1.366 9.346c-.745 13.763-3.832 16.808-2 21.07 1.369 3.184 5.012 3.95 7.407 2.747 3.176-1.595 4.61-7.297 5.027-9.434.797-4.064.735-8.742.042-13.016-.754-4.641-2.527-10.061-5.968-11.666l-5.874.954Z"/><path fill="#000" d="M73.783 15.873c4.147 1.934 5.782 8.487 6.387 12.222.747 4.604.732 9.32-.045 13.277-.471 2.41-1.945 8.21-5.423 9.955-.815.41-1.75.617-2.695.617a6.454 6.454 0 0 1-2.203-.386 6.077 6.077 0 0 1-3.526-3.349c-1.062-2.47-.624-4.532.102-7.95.629-2.965 1.49-7.024 1.838-13.453.245-4.51-1.31-9.015-1.326-9.06a.744.744 0 0 1 1.405-.492l.007.019.024.072c.234.697 1.62 5.047 1.376 9.542-.354 6.544-1.23 10.669-1.87 13.68-.687 3.236-1.065 5.019-.19 7.055a4.542 4.542 0 0 0 2.67 2.538c1.233.45 2.622.388 3.72-.162 2.36-1.186 3.94-5.381 4.632-8.912.743-3.79.756-8.319.036-12.753-.45-2.773-1.891-9.407-5.548-11.112a.744.744 0 0 1 .629-1.348ZM71.79 41.895c.41.001.742.335.74.746v.05c-.006.37-.076 2.606-.894 4.875a.745.745 0 0 1-1.4-.505c.733-2.03.8-4.097.806-4.39v-.035a.745.745 0 0 1 .744-.741h.004Zm3.543 1.29c.402.08.664.472.582.875-.435 2.176-1.224 3.428-1.373 3.65l-.024.033a.74.74 0 0 1-1.037.178.745.745 0 0 1-.179-1.034c.008-.011.75-1.097 1.156-3.12a.743.743 0 0 1 .875-.583Z"/><path fill="#FFD800" d="m71.239 46.889.196.004c1.373.063 2.73.79 3.49 2.306l.1.213c1.596 3.64-.233 12.055-3.532 16.377l-.137.177c-2.354 2.996-5.983 5.371-8.546 2.74l-.135-.147c-2.058-2.371 1.16-5.36 2.917-9.098l.173-.387c1.098-2.576 1.112-5.185 1.362-8.45.183-2.366 2.133-3.735 4.112-3.735Zm-20.316-4.675.25.007c1.34.069 2.712.69 3.743 1.896l.133.167c1.98 2.636.743 8.762-1.067 13.36l-.103.258c-1.909 4.75-5.249 10.239-11.135 10.239l-.314-.006c-5.108-.195-9.2-5.09-10.451-7.645l-.092-.195c-1.108-2.485-.261-5.242 2.149-5.723l.189-.03c2.973-.336 6.815 5.144 6.815 5.144l.23-.188c1.655-1.442 2.448-4.323 3.191-7.344l.202-.826c.674-2.76 1.367-5.536 2.692-7.352.848-1.164 2.177-1.762 3.568-1.762Z"/><path fill="#000" d="M34.491 55.27c-.106 0-.21.01-.31.03a2.358 2.358 0 0 0-1.702 1.308c-.487.987-.423 2.35.167 3.556 1.156 2.36 5.146 7.233 10.098 7.233 4.38 0 7.93-3.373 10.546-10.026 1.818-4.62 2.925-10.588 1.06-12.771-.935-1.094-2.251-1.692-3.584-1.64-1.145.044-2.17.574-2.81 1.454-1.263 1.731-1.947 4.535-2.609 7.247-.877 3.596-1.706 6.994-3.858 8.62a.747.747 0 0 1-1.058-.167c-1.365-1.944-4.097-4.843-5.94-4.843m8.253 13.614c-5.451 0-9.906-4.948-11.433-8.067-.802-1.635-.864-3.455-.166-4.868a3.843 3.843 0 0 1 2.744-2.109c2.805-.56 6 3.116 7.256 4.737 1.358-1.533 2.068-4.445 2.757-7.27.696-2.852 1.415-5.801 2.851-7.77.912-1.25 2.353-2.003 3.955-2.064 1.815-.07 3.54.717 4.772 2.16 2.433 2.846 1.087 9.473-.806 14.281-2.863 7.279-6.876 10.97-11.93 10.97M66.264 59.777c-.513 1.091-1.127 2.093-1.722 3.06-1.584 2.576-2.42 4.094-1.199 5.35.642.66 1.357.965 2.205.904 1.61-.096 3.662-1.535 5.354-3.753 3.185-4.174 4.976-12.593 3.36-15.805-.866-1.722-2.546-2.064-3.716-1.833-1.147.226-2.535 1.143-2.677 2.982-.037.489-.07.964-.101 1.425-.191 2.805-.356 5.228-1.504 7.67m-.89 10.808c-1.161 0-2.227-.468-3.096-1.361-2.089-2.147-.521-4.699.995-7.165.574-.934 1.167-1.899 1.645-2.915 1.028-2.189 1.177-4.373 1.365-7.138.032-.466.065-.945.103-1.439.169-2.198 1.69-3.896 3.873-4.326 2.22-.437 4.311.593 5.332 2.623 1.884 3.745.08 12.676-3.506 17.377-1.978 2.59-4.387 4.212-6.447 4.335-.089.005-.176.009-.264.009"/><path fill="#000" d="M39.738 61.34a.704.704 0 0 1-.318-1.33c.005-.004.455-.237 1.087-.74a.705.705 0 0 1 .877 1.1c-.756.602-1.306.882-1.328.894a.7.7 0 0 1-.318.076"/><path fill="#00993E" d="M27.563 73.435c-1.628.463-2.432-1.695-2.432-1.695l-1.298 3.378c1.347 1.97 3.886 2.327 5.78 1.1 1.883-1.218 3.12-3.243 1.803-4.268a1.185 1.185 0 0 0-.75-.264c-1.15 0-2.389 1.545-3.103 1.75Z"/><path fill="#000" d="M31.74 68.751c.368.185.517.63.332.998a9.176 9.176 0 0 0-.554 1.461 2.248 2.248 0 0 1 .71.594c.508-.48 1.339-1.214 2.185-1.744a.745.745 0 0 1 .79 1.262c-1.18.737-2.397 1.997-2.41 2.01a.744.744 0 0 1-.19.143c-.205 1.125-1.197 2.393-2.62 3.314-.85.55-1.798.816-2.727.816a4.799 4.799 0 0 1-3.984-2.104.68.68 0 0 1 1.124-.766c1.093 1.602 3.178 1.994 4.847.912 1.15-.745 2.009-1.821 2.04-2.56a.656.656 0 0 0-.237-.561.737.737 0 0 1-.956.019c-.318.166-.68.44-1.078.753-.46.361-.857.675-1.262.79-1.765.502-2.902-1.161-3.257-2.112a.68.68 0 0 1 1.276-.475c.015.04.616 1.563 1.608 1.278.147-.041.521-.335.794-.55.501-.394 1.14-.897 1.829-1.118.15-.551.398-1.34.743-2.028a.743.743 0 0 1 .998-.332Z"/></g></svg>