<svg xmlns="http://www.w3.org/2000/svg" xmlns:xlink="http://www.w3.org/1999/xlink" width="131" height="69"><defs><path id="a" d="M0 0h59.773v58.624H0z"/><path id="c" d="M0 0h66.416v68.999H0z"/><path id="e" d="M0 69h131V0H0z"/></defs><g fill="none" fill-rule="evenodd"><g transform="translate(71.227 .459)"><mask id="b" fill="#fff"><use xlink:href="#a"/></mask><path fill="#FF5A5A" d="M29.887 58.624C13.38 58.624 0 45.5 0 29.31 0 13.123 13.381 0 29.887 0c16.505 0 29.886 13.123 29.886 29.311 0 16.19-13.381 29.313-29.886 29.313" mask="url(#b)"/></g><path fill="#FFF" d="M113.948 27.766h-10.725V17.184h-4.219v10.582H88.281v4.009h10.723v10.583h4.219V31.775h10.725z"/><g><mask id="d" fill="#fff"><use xlink:href="#c"/></mask><path fill="#000" d="M33.208 0C14.868 0 0 13.515 0 30.188c0 12.311 5.245 18.188 12.43 23.547v14.433c0 .683.79 1.074 1.347.666l12.536-9.14c2.212.421 4.504.647 6.856.647 18.32 0 33.175-13.487 33.207-30.136l.04-.017C66.416 13.515 51.549 0 33.208 0" mask="url(#d)"/></g><mask id="f" fill="#fff"><use xlink:href="#e"/></mask><path fill="#FFF" d="M24.1 16.356h18.216v-3.162H24.1zm22.227 23.868c0 1.028-.854 1.865-1.902 1.865H21.992c-1.05 0-1.901-.837-1.901-1.865v-16.41h26.236v16.41zm1.611-19.573h-29.46c-.89 0-1.611.709-1.611 1.581v17.992c0 2.772 2.298 5.027 5.125 5.027h22.433c2.826 0 5.126-2.255 5.126-5.027V22.232c0-.872-.722-1.58-1.613-1.58z" mask="url(#f)"/><path fill="#FFF" d="M28.358 31.269h9.702v-3.161h-9.702z" mask="url(#f)"/></g></svg>