<svg xmlns="http://www.w3.org/2000/svg" width="96" height="96"><g fill="none" fill-rule="nonzero"><path d="M0 0h96v96H0z"/><path fill="#B48632" d="M30.932 61.876c-10.133-18.942-7.615-34.936 1.014-43.389 1.007-.986.718-1.536.718-1.536s.166-2.456.535-2.37c.41.094 2.487-2.024 2.865-.918l3.43 1.265c7.01-1.138 13.234-2.774 20.395.063l1.063.38s.63-1.752.935-2.031c.533-.488.834.769 1.889.38l4.862 6.898c1.069 1.596 1.763 3.125 2.536 4.768 8.07 17.163-4.11 36.731-4.11 36.731l-1.259 3.008-5.413 1.485-27.634-1.422-1.826-3.312Z"/><path fill="#0F141B" d="M32.446 18.327a.71.71 0 0 1-.014 1.004c-9.109 8.872-10.14 24.68-1.162 41.717l.275.517 1.634 2.943 27.096 1.387 4.964-1.355 1.124-2.667a.71.71 0 0 1 .026-.055l.041-.07.06-.097c.062-.099.133-.217.214-.353l.178-.306c.184-.319.381-.674.59-1.065a51.6 51.6 0 0 0 2.346-5.031c3.272-8.106 4.47-16.43 2.396-24.167a27.636 27.636 0 0 0-1.64-4.513l-.622-1.332a42.956 42.956 0 0 0-.32-.66l-.027-.056c-.55-1.115-1.056-2.018-1.605-2.833a.71.71 0 1 1 1.178-.794c.54.802 1.035 1.672 1.558 2.71l.347.704c.167.346.34.716.78 1.662a29.056 29.056 0 0 1 1.723 4.744c2.167 8.082.926 16.7-2.45 25.067a53.014 53.014 0 0 1-2.411 5.17l-.213.392a38.23 38.23 0 0 1-.494.874l-.212.359-.157.256-1.235 2.931a.71.71 0 0 1-.399.387l-.068.023-5.408 1.476a.72.72 0 0 1-.148.024h-.075l-27.603-1.413a.71.71 0 0 1-.55-.308l-.035-.057-1.829-3.296c-9.557-17.76-8.556-34.487 1.142-43.932a.71.71 0 0 1 1.005.013Zm19.775 32.71c.266.039.519.087.757.147a.71.71 0 1 1-.347 1.377 5.946 5.946 0 0 0-.61-.117 10.635 10.635 0 0 0-1.741-.088l-.342.014a4.484 4.484 0 0 0-.096.006.71.71 0 1 1-.112-1.416l.181-.011.065-.004a12.26 12.26 0 0 1 2.245.093Z"/><path fill="#0F141B" d="M55.27 39.75c-.084 1.058.833 1.985 3.294 2.157 2.411.168 3.512-.618 3.595-1.677.09-1.158-1.03-1.999-3.295-2.157-2.135-.149-3.512.619-3.595 1.677"/><path fill="#0F141B" d="M54.258 39.835c-.13 1.661 1.341 2.739 3.953 2.921 2.575.18 4.224-.684 4.353-2.329.132-1.695-1.414-2.744-3.953-2.921-2.346-.164-4.157.7-4.344 2.237l-.009.092Zm4.254-.912c1.857.13 2.69.695 2.636 1.393-.054.69-.942 1.156-2.838 1.023-1.875-.13-2.65-.667-2.638-1.34l.002-.053c.048-.616 1.12-1.143 2.838-1.023Z"/><path fill="#B48632" d="M59.453 14.89c-.007.02.362-2.127 1.983-3.175 4.434-2.862 8.406-.163 10.814 4.39 3.096 5.855 2.129 8.617-.987 9.33-3.096.707-4.616-1.002-5.205-3.165-.613-2.252-1.878-3.575-1.878-3.575"/><path fill="#0F141B" d="m60.262 14.907-.023.105.007-.052v-.062l-.003.067a.835.835 0 0 1-.024.136l-.026.082-.05.102-.115.155-1.007.119-.344-.488-.017-.106-.002-.031.001-.116.014-.092.018-.09a6.888 6.888 0 0 1 .415-1.254c.426-.964 1.042-1.782 1.899-2.335 4.542-2.933 9.066-.764 11.948 4.687 3.107 5.873 2.511 9.557-1.513 10.477-3.174.725-5.284-.756-6.111-3.594l-.04-.138a8.713 8.713 0 0 0-1.4-2.887 5.818 5.818 0 0 0-.21-.262l-.075-.085a.796.796 0 0 1 1.15-1.1c.323.337.78.942 1.23 1.79.31.583.57 1.208.77 1.874l.072.252c.588 2.156 1.931 3.13 4.26 2.598 2.716-.621 3.138-3.044.552-8.007l-.092-.174c-2.496-4.721-6.06-6.43-9.678-4.094-.562.363-.996.939-1.306 1.64a5.306 5.306 0 0 0-.3.883Z"/><path fill="#FFF" d="M38.142 36.21s9.967-.597 15.956.264c0 0-.28-6.888-7.978-6.888-6.762 0-7.838 5.511-7.978 6.623"/><path fill="#0F141B" d="M46.12 28.875c-3.226 0-5.545 1.175-7.041 3.18a8.693 8.693 0 0 0-1.642 4.065.71.71 0 0 0 .687.8l.21-.01.43-.023c.47-.023 1-.047 1.584-.069 2.658-.1 5.4-.133 7.958-.063l.688.022c1.923.07 3.611.2 5.003.4a.71.71 0 0 0 .811-.732l-.009-.141a7.728 7.728 0 0 0-.172-1.064 8.78 8.78 0 0 0-1.022-2.575c-1.417-2.364-3.864-3.79-7.485-3.79Zm0 1.42c3.115 0 5.103 1.159 6.267 3.1l.119.207c.345.624.585 1.288.736 1.953l.02.096-.193-.022a59.846 59.846 0 0 0-4.724-.294 125.935 125.935 0 0 0-8.05.064l-.728.03-.559.024.005-.016a7.318 7.318 0 0 1 1.204-2.532c1.23-1.647 3.127-2.61 5.903-2.61Z"/><path fill="#FFF" d="M61.43 36.5s8.13.17 11.212.835c0-1.746-.335-6.027-5.443-6.027-4.264 0-5.672 3.848-5.769 5.193"/><path fill="#0F141B" d="M67.199 30.597c-2.116 0-3.784.855-4.962 2.309-.867 1.071-1.411 2.436-1.51 3.47l-.005.066a.71.71 0 0 0 .693.769l.964.026c.226.006.463.014.71.023l.25.009c1.237.044 2.474.102 3.65.174l.583.037c2.187.145 3.897.329 4.92.55a.71.71 0 0 0 .86-.695c0-1.493-.228-2.824-.896-4.016-.97-1.73-2.705-2.722-5.257-2.722Zm0 1.42c2.044 0 3.302.72 4.018 1.997l.084.157c.325.637.505 1.353.584 2.141l.014.167-.1-.015-.39-.055a56.454 56.454 0 0 0-3.451-.327l-.292-.02c-1.167-.077-2.405-.14-3.652-.19l-.876-.032-.876-.028.023-.086c.522-1.917 2.285-3.708 4.914-3.708ZM50.648 32.169a.431.431 0 1 0-.863.001.431.431 0 0 0 .863-.001"/><path fill="#0F141B" d="M50.217 31.13a1.04 1.04 0 1 0 0 2.08 1.04 1.04 0 0 0 0-2.08Zm0 .86c.098 0 .178.08.178.179a.177.177 0 1 1-.355 0c0-.1.08-.179.177-.179ZM70.055 33.03a.432.432 0 1 0-.863.001.432.432 0 0 0 .863-.001"/><path fill="#0F141B" d="M69.624 31.99a1.04 1.04 0 1 0 0 2.08 1.04 1.04 0 0 0 0-2.08Zm0 .861c.098 0 .177.08.177.179a.177.177 0 1 1-.355 0c0-.1.08-.179.178-.179ZM35.185 12.446c.4-.054.778.025 1.059.258l.036.031 2.714.352.046-.006c1.09-.133 1.945-.143 3.512-.085l.677.025c1.568.054 2.404.033 3.495-.127l.138-.02c4.02-.617 8.979-.275 12.899.818l.588.17.193.062c.224.073.448.158.763.29a.796.796 0 1 1-.613 1.468l-.217-.088a7.107 7.107 0 0 0-.428-.158l-.411-.124c-3.643-1.07-8.365-1.442-12.206-.912l-.639.093c-1.07.147-1.938.172-3.377.127l-1.304-.047c-1.308-.04-2.052-.02-3.015.105a.796.796 0 0 1-.137.006l-.068-.006-3.14-.405a.796.796 0 0 1-.43-.198l-.028-.028-.05.016a3.409 3.409 0 0 0-.39.16l-.167.081-.674.357a8.613 8.613 0 0 1-.264.136c-.385.188-.61.263-.925.204a.796.796 0 0 1 .087-1.576h.011l.087-.039.141-.07.555-.296c.13-.068.241-.126.35-.18.438-.215.792-.347 1.132-.394Z"/><path fill="#B48632" d="M31.416 18.562s-1.7-4.586 2.283-7.644c5.399-4.147 10.484-2.252 13.357 1.426 3.963 5.074 4.402 8.618.128 10.874-3.204 1.69-7.431.955-9.233-3.682-.994-2.557-2.757-3.782-2.757-3.782l-2.659 2.313-1.119.496Z"/><path fill="#0F141B" d="M33.214 10.287c5.244-4.03 10.893-3.012 14.469 1.567l.258.335c4.13 5.438 4.19 9.318-.386 11.733-3.947 2.083-8.41.656-10.283-3.94l-.063-.157a8.525 8.525 0 0 0-.959-1.798 7.98 7.98 0 0 0-1.068-1.244l-.132-.12a4.53 4.53 0 0 0-.248-.21l-.063-.045a.796.796 0 1 1 .909-1.308l.103.075c.134.102.312.251.522.449.44.413.876.91 1.282 1.491.4.572.749 1.197 1.034 1.876l.104.257c1.478 3.805 4.943 4.942 8.12 3.266 3.546-1.872 3.474-4.68-.262-9.522l-.123-.158c-3.06-3.917-7.724-4.757-12.245-1.285-.83.639-1.419 1.373-1.799 2.189-.605 1.298-.655 2.701-.37 4l.038.168c.026.103.05.19.07.259l.04.12a.796.796 0 0 1-1.492.554l-.041-.118a6.813 6.813 0 0 1-.17-.643c-.353-1.61-.291-3.354.482-5.013.488-1.047 1.238-1.984 2.273-2.778Z"/><path fill="#B48632" d="M70.488 87.348s4.109-20.445-5.627-20.363L46.84 65.19l-15.369.66s-4.453 3.918-7.008 1.305c-1.598-1.635-1.523-5.836 6.107-10.663 0 0 1.196.521 2.127-.147.503-.362.882-1.539.445-2.244 0 0 1.003-.162 1.529-.878.179-.244.565-.775.152-1.255.46.187 1.138.24 1.583-.348.447-.59.468-2.646-2.183-3.95-1.87-.921-4.19-.244-6.053.832-3.852 2.224-9.432 6.065-11.565 13.986-1.397 5.185.554 9.852 3.91 11.95 3.884 2.428 8.244 1.928 12.127-.04 0 0 .457 9.756.88 12.773 0 0 4.882 1.827 16.125 1.827 13.409 0 20.842-1.65 20.842-1.65"/><path fill="#0F141B" d="M63.064 73.655a.71.71 0 0 1 .784.55l.014.084.017.14.05.448.038.378c.032.325.063.678.093 1.056l.019.23c.283 3.686.32 7.698-.045 11.66a.71.71 0 1 1-1.415-.13c.358-3.873.321-7.81.043-11.422l-.04-.504a56.45 56.45 0 0 0-.085-.912l-.046-.439-.04-.343a.71.71 0 0 1 .613-.796ZM35.463 50.689c.566.763.586 1.823.173 2.721-.232.505-.624.877-1.114 1.136a3.457 3.457 0 0 1-.787.3 2.537 2.537 0 0 1-.487 1.077 2.443 2.443 0 0 1-1.362.888 3.204 3.204 0 0 1-1.452.007l-.1-.024-.061.043c-5.694 3.898-7.107 7.597-5.312 9.577l.058.062c.555.579 1.207.742 2.023.56.82-.182 1.75-.707 2.703-1.47a14.707 14.707 0 0 0 1.512-1.398l.182-.199a.796.796 0 1 1 1.218 1.026l-.13.146a16.28 16.28 0 0 1-1.786 1.669c-1.128.9-2.252 1.535-3.353 1.78-1.333.297-2.556-.009-3.518-1.012-1.224-1.277-1.546-3.189-.754-5.248.883-2.299 3.082-4.7 6.645-7.068a.796.796 0 0 1 .664-.1l.12.041.08.024.053.013c.284.071.577.088.821.027.2-.05.36-.149.491-.32.34-.437.254-1.075-.396-1.328l-.077-.027a.796.796 0 1 1 .485-1.516c.723.23 1.216.663 1.497 1.178.097-.03.192-.07.28-.116.201-.107.339-.237.41-.393.189-.41.18-.859-.004-1.107-.324-.435-.767-.617-1.623-.59a.796.796 0 1 1-.053-1.59c1.348-.044 2.295.345 2.954 1.23Z"/><path fill="#0F141B" d="M28.875 47.353c2.39-1.225 5.038-1.306 7.157.243 1.482 1.083 2.095 3.395 1.198 4.474-.718.866-1.7.98-2.618.536a.796.796 0 0 1 .691-1.434c.31.15.498.128.702-.119.239-.287-.104-1.581-.912-2.171-1.571-1.148-3.59-1.087-5.49-.112-6.098 3.128-10.719 7.819-12.233 13.865-1.256 5.015.31 9.18 4.06 11.418 2.933 1.75 7.733 1.642 10.873-.344a.796.796 0 1 1 .851 1.345c-3.643 2.304-9.087 2.426-12.539.366-4.374-2.61-6.21-7.496-4.789-13.172 1.644-6.563 6.582-11.576 13.05-14.895ZM65.48 66.89a.71.71 0 0 1 .844-.543c3.465.75 5.019 4.7 5.27 10.73.102 2.472-.027 5.111-.305 7.706l-.064.58c-.033.281-.067.553-.1.812l-.089.646-.086.571a.71.71 0 1 1-1.402-.233l.028-.173a56.879 56.879 0 0 0 .301-2.354c.27-2.53.396-5.103.297-7.496-.225-5.43-1.567-8.842-4.15-9.401a.71.71 0 0 1-.545-.844Z"/><path fill="#9E9E9F" d="M49.354 72.853c0-1.934-1.123-4.09-4.312-4.09-2.382 0-4.313 1.601-4.313 3.86 0 3.117 1.931 4.32 4.313 4.32 2.887 0 4.312-1.831 4.312-4.09"/><path fill="#C8C9CA" d="M40.298 72.356c.38-.247 6.754-2.732 6.754-2.732l1.44 1.483-7.693 3.253-.5-2.004h-.001Zm.431 3.154c-.004-.118 8.067-3.303 8.067-3.303l.128 1.356-6.146 2.95-2.049-1.003Z"/><path fill="#15181B" d="M45.042 67.967c-2.85 0-5.109 1.976-5.109 4.656 0 3.327 2.022 5.116 5.109 5.116 3.158 0 5.108-2.013 5.108-4.886 0-2.783-1.83-4.886-5.108-4.886Zm0 1.592c2.346 0 3.516 1.344 3.516 3.294 0 2.005-1.249 3.294-3.516 3.294-2.248 0-3.517-1.122-3.517-3.524 0-1.75 1.503-3.064 3.517-3.064Z"/><path fill="#BF1A21" d="M30.514 61.478c9.91 2.691 22.637 3.018 36.532.334.678-.132 1.284.549 1.284 1.438 0 .625-.093 1.687-.19 2.215-.084.456-.664 1.647-1.677 1.79-15.33 2.175-24.61 2.03-36.083-.65-.64-.15-1.023-.738-1.127-1.395-.118-.746-.162-2-.168-2.537-.007-.714.707-1.39 1.429-1.195"/><path fill="#0F141B" d="M31.74 72.263c-.049-1.031 1.458-1.135 1.584-.156l.007.072.862 15.051c.058 1.023-1.454 1.163-1.585.147-.435-3.392-.844-9.537-.838-13.286l.001-.29c.002-.212 0-.464-.006-.74l-.02-.692-.004-.106ZM28.29 62.68c-.012-1.245 1.201-2.304 2.433-1.97 10.09 2.74 22.77 2.91 36.173.32 1.234-.239 2.231.879 2.231 2.22 0 .667-.096 1.778-.204 2.358-.19 1.038-1.115 2.26-2.347 2.436l-.98.136c-14.9 2.05-24.107 1.838-35.397-.8-.949-.223-1.571-1.04-1.731-2.046-.106-.666-.168-1.789-.178-2.654Zm2.016-.433c-.165-.045-.426.183-.424.417l.006.33c.019.735.074 1.597.152 2.09.066.418.271.687.522.746 11.326 2.646 20.492 2.807 35.79.637.224-.031.455-.193.664-.47.18-.237.315-.532.342-.677.09-.483.177-1.498.177-2.07 0-.24-.075-.448-.186-.572-.066-.074-.112-.092-.15-.085-13.465 2.602-26.24 2.464-36.513-.245l-.38-.101Z"/></g></svg>