<svg xmlns="http://www.w3.org/2000/svg" width="96" height="96"><g fill="none" fill-rule="evenodd"><path d="M0 0h96v96H0z"/><path fill="#FEFEFE" d="M6.68 28.448c-4.489.585-6.025 9.407-3.83 16.874 1.994 6.772 6.308 11.1 13.43 14.712l-5.6-28.871S10.34 28.4 7.383 28.4a5.29 5.29 0 0 0-.702.048ZM33.876 71.352c-3.672-.872-5.455-2.492-8.158-3.647-4.313-1.84-6.901 2.41-4.416 6.064 2.917 4.296 9.22 6.448 15.145 5.588 4.324-.627 6.97-3.565 7.45-8.35.482-4.787.645-13.66.645-13.66L33.876 71.352Z"/><path fill="#FEFEFE" d="M18.532 45.815c-2.534 0-4.342.53-4.784 1.76-2.168 6.052 2.174 11.53 2.174 11.53l-.227.693 2.272 17.01 18.302-1.6 8.273-17.861c-.54-5.475-17.432-11.532-26.007-11.532h-.003Z"/><path fill="#FEFEFE" d="M16.821 71.767c.164.935.376 1.785.566 2.523-1.482 8.584 3.627 12.709 7.997 13.426 4.158.68 5.695-2.942 4.158-5.298-1.537-2.358-5.215-1.828-1.693-6.486l-11.876-18.02s-.43 6.52.848 13.855Z"/><path fill="#0F141B" d="M16.278 60.8a.753.753 0 0 1-.345-.084C8.333 56.863 4.07 52.18 2.116 45.538.45 39.872.836 33.536 3.056 30.13c.922-1.417 2.142-2.262 3.525-2.443 1.35-.175 2.48.077 3.354.755 1.292 1 1.497 2.562 1.506 2.627a.768.768 0 0 1-.667.854.768.768 0 0 1-.853-.662c-.056-.405-.47-2.406-3.141-2.055-.94.123-1.76.714-2.442 1.76-1.96 3.01-2.277 8.956-.753 14.139 1.85 6.289 5.75 10.55 13.04 14.246a.765.765 0 0 1-.347 1.449"/><path fill="#0F141B" d="M26.374 88.564c-.359 0-.73-.03-1.114-.094a10.51 10.51 0 0 1-6.821-4.249c-1.84-2.584-2.474-6.003-1.834-9.897a31.66 31.66 0 0 1-.538-2.426c-1.279-7.34-.875-13.765-.857-14.035a.77.77 0 0 1 .814-.714.765.765 0 0 1 .714.814c-.005.065-.408 6.521.836 13.672.158.9.36 1.71.554 2.465a.764.764 0 0 1 .013.32c-.613 3.55-.08 6.633 1.545 8.913a8.971 8.971 0 0 0 5.82 3.626c1.545.249 2.795-.165 3.435-1.148.577-.885.561-2.053-.04-2.975-.379-.58-.951-.971-1.505-1.35-.782-.532-1.59-1.083-1.76-2.129-.08-.483-.007-1.012.233-1.617.258-.654 1.58.154 1.409.6-.138.36-.158.604-.132.768.063.38.464.67 1.113 1.114.614.419 1.378.94 1.925 1.777.932 1.43.948 3.255.04 4.649-.811 1.245-2.182 1.916-3.85 1.916"/><path fill="#0F141B" d="M33.852 80.31c-5.437 0-10.613-2.327-13.183-6.11-1.425-2.095-1.471-4.609-.116-6.254 1.25-1.518 3.292-1.874 5.465-.945.988.422 1.861.906 2.706 1.374 1.57.869 3.052 1.69 5.33 2.232a.766.766 0 0 1-.354 1.49c-2.483-.59-4.128-1.501-5.718-2.383-.848-.47-1.65-.913-2.566-1.305-1.532-.654-2.875-.47-3.681.51-.765.928-1 2.656.2 4.42 2.677 3.94 8.6 6.107 14.402 5.26 4.003-.58 6.354-3.232 6.8-7.67.471-4.7.637-13.508.639-13.596.008-.424.385-.746.78-.752.422.008.76.357.751.779-.001.09-.17 8.961-.647 13.722-.516 5.142-3.394 8.35-8.102 9.033-.901.131-1.808.194-2.706.194"/><path fill="#F8D1D3" d="M28.078 14.901c-2.622 3.812-7.504 5.569-12.6 9.293-5.352 3.911-9.925 8.63-9.722 16.637.106 4.16 2.162 8.246 5.59 11.173 3.708 3.162 9.422 4.863 18.316 5 10.132.154 15.945-2.132 20.266-5.85 3.121-2.688 4.758-7.108 4.805-11.02.073-6.168-3.165-11.109-8.9-16.47-4.987-4.662-12.912-8.247-16.084-9.205a2.025 2.025 0 0 0-.578-.092c-.764 0-1.093.534-1.093.534Z"/><path fill="#0F141B" d="M29.172 15.134c-.287 0-.416.137-.456.192-1.806 2.625-4.52 4.266-7.666 6.169-1.655 1-3.367 2.036-5.121 3.318-5.004 3.657-9.607 8.126-9.407 15.999.1 3.941 2.04 7.808 5.322 10.608 3.7 3.159 9.366 4.69 17.829 4.817 8.95.148 15.046-1.612 19.756-5.664 2.709-2.332 4.49-6.433 4.538-10.449.065-5.411-2.524-10.167-8.657-15.901-5.047-4.718-12.95-8.177-15.782-9.03a1.24 1.24 0 0 0-.356-.059m1.458 42.642c-.324 0-.65-.002-.98-.008-8.84-.133-14.813-1.78-18.8-5.182-3.611-3.083-5.747-7.36-5.858-11.735-.218-8.6 4.95-13.558 10.034-17.275 1.807-1.32 3.549-2.374 5.231-3.392 2.994-1.81 5.579-3.373 7.192-5.718.277-.45 1.148-1.154 2.521-.74 2.939.886 11.143 4.478 16.385 9.378 6.48 6.059 9.215 11.154 9.144 17.039-.055 4.504-1.997 8.945-5.071 11.59-4.837 4.163-10.973 6.043-19.798 6.043"/><path fill="#EE8584" d="M16.17 40.515c-2.353 0-3.61.296-3.827 1.69.175 1.19 1.698 1.651 4.191 1.695 2.582.047 4.52-.206 4.544-1.538.018-.893-1.672-1.827-4.69-1.847h-.218ZM39.956 40.517c-2.339 0-3.59.294-3.805 1.691.172 1.191 1.68 1.65 4.15 1.695 2.552.046 4.47-.207 4.495-1.539.016-.895-1.655-1.826-4.64-1.847h-.2Z"/><path fill="#FEFEFE" d="M18.176 29.751c-6.358 0-7.785 2.795-7.798 5.496-.013 2.718 2.365 5.101 7.755 5.082 4.279-.015 7.238-1.45 7.298-5.216.044-2.715-2.054-5.335-7.144-5.362h-.111ZM22.476 44.62c-.664 1.106-.119 2.427.74 3.377.639.705 2.464 1.928 5.504 1.928 2.418 0 4.445-.372 5.995-1.535 1.279-.966 1.593-2.536 1.073-3.554-.595-1.162-1.83-1.266-3.093-.769-.77.301-1.846.882-3.972.864-1.54-.015-2.58-.717-3.109-.957-.442-.2-.909-.311-1.354-.311-.72 0-1.381.29-1.784.957Z"/><path fill="#0F141B" d="M25.931 43.277c.102.045.22.107.356.178.54.279 1.353.7 2.442.71 1.692.018 2.659-.385 3.36-.677l.328-.134c1.78-.7 3.334-.268 4.052 1.132.745 1.456.19 3.396-1.293 4.515-1.537 1.153-3.588 1.69-6.455 1.69-3.025 0-5.162-1.175-6.072-2.18-1.261-1.396-1.579-3.038-.828-4.285.794-1.323 2.446-1.703 4.11-.949Zm-1.672 1.152c-.446 0-.868.158-1.125.586-.466.774.031 1.782.65 2.468.564.623 2.238 1.677 4.937 1.677 2.554 0 4.26-.426 5.533-1.384.984-.74 1.206-1.9.852-2.591-.438-.855-1.401-.693-2.13-.406l-.298.123c-.777.323-1.933.826-3.962.794-1.455-.014-2.505-.557-3.132-.882a5.754 5.754 0 0 0-.285-.142 2.597 2.597 0 0 0-1.04-.243ZM18.29 28.985c2.764.015 4.958.773 6.348 2.192a5.471 5.471 0 0 1 1.558 3.95c-.043 2.71-1.478 5.944-8.061 5.967h-.069c-3.093 0-5.501-.774-6.966-2.241a4.978 4.978 0 0 1-1.49-3.61c.01-1.834.615-3.297 1.798-4.348 1.445-1.283 3.783-1.897 6.882-1.91Zm-.007 1.531h-.11c-2.677 0-4.61.512-5.748 1.524-.856.76-1.276 1.811-1.283 3.211a3.475 3.475 0 0 0 1.042 2.52c1.171 1.173 3.204 1.792 5.882 1.792h.063c6.464-.022 6.518-3.364 6.535-4.462.019-1.1-.37-2.085-1.12-2.853-1.097-1.12-2.916-1.72-5.261-1.732Zm-.65 3.227.132.007a1.296 1.296 0 0 1 1.162 1.29l-.007.132a1.296 1.296 0 0 1-1.287 1.165l-.132-.007a1.296 1.296 0 0 1 .132-2.587Z"/><path fill="#FEFEFE" d="M54.52 8.214c-6.072.63-14.327 3.711-18.238 12.487-2.357 5.286-2.607 12.007.219 18.755l16.53 14.082c20.882 2.693 32.635-10.556 28.318-28.72C78.603 13.28 68.789 8.032 58.045 8.03c-1.166 0-2.343.062-3.525.184Z"/><path fill="#0F141B" d="M82.093 24.642c2.117 8.904.52 16.878-4.498 22.452-4.454 4.95-11.196 7.557-19.317 7.557-1.723 0-3.506-.117-5.343-.353a.767.767 0 0 1 .196-1.52c9.986 1.292 18.274-1.094 23.325-6.708 4.671-5.19 6.144-12.674 4.147-21.074C77.397 11.514 64.59 7.943 54.6 8.976c-3.864.4-13.313 2.376-17.618 12.036-2.416 5.421-2.334 12.035.225 18.148a.766.766 0 0 1-1.413.591c-2.721-6.5-2.799-13.557-.211-19.362C40.213 10 50.313 7.88 54.443 7.453c13.965-1.456 24.822 5.299 27.65 17.189Zm-15.48-.451.117.003c.75.05 1.546.563 1.469 1.533l-.02.157-.027.134c-.163.705-.639 1.26-1.527 1.201l-.17-.018-.135-.024c-.713-.15-1.344-.673-1.336-1.378l.009-.134.026-.16c.147-.729.647-1.22 1.405-1.305.062-.006.125-.01.188-.01Zm-22.166-.142h.037l.11.008c.696.071 1.425.576 1.344 1.55l-.021.166-.027.125c-.17.666-.767 1.232-1.616 1.185l-.162-.016-.139-.027c-.676-.168-1.099-.812-1.064-1.534.042-.818.596-1.458 1.501-1.458h.037Zm26.705-5.901a1.094 1.094 0 0 1-1.253 1.794c-3.685-2.574-6.789-.264-6.82-.241a1.094 1.094 0 0 1-1.33-1.737c1.508-1.154 5.414-2.6 9.403.184ZM48.66 18.07a1.04 1.04 0 0 1-1.188 1.706c-2.235-1.556-4.62-1.065-5.886.05a1.038 1.038 0 0 1-1.466-.095 1.04 1.04 0 0 1 .093-1.467c1.857-1.631 5.292-2.388 8.447-.194Z"/><path fill="#FEFEFE" d="m75.5 39.028-.624 19.878-11.385 16.153-9.556-2.6.901 1.607-.154.316c-2.425 5.074-.496 6.073 1.136 7.569l.198.186c.458.44.875.937 1.145 1.596l.06.157c.961 2.706-2.029 5.042-5.303 4.157l-.117-.032c-2.781-.781-8.364-3.397-7.293-12.61l-.146-.482a31.87 31.87 0 0 1-.806-3.285c-1.504-7.781-.033-17.742-.033-17.742l.667 1.19c.19-.626.393-1.294.601-1.97l.195-.626c.909-2.924 1.85-5.769 2.034-5.66.174.105 6.335-1.573 12.882-3.398l.855-.24 1.286-.359.855-.24c5.398-1.514 10.478-2.96 12.081-3.417l.224-.063.297-.085Z"/><path fill="#0F141B" d="M53.333 89.003a6.19 6.19 0 0 1-1.616-.217c-8.211-2.22-8.35-9.92-7.987-13.309a33.91 33.91 0 0 1-.927-3.693c-1.51-7.82-.099-17.587-.038-18a.765.765 0 1 1 1.516.224c-.016.099-1.434 9.926.026 17.485.246 1.28.5 2.279.933 3.686a.766.766 0 0 1 .029.315c-.977 8.403 3.871 11.01 6.848 11.814 1.736.468 3.233-.141 3.95-.952.59-.67.728-1.499.386-2.332-.323-.789-.929-1.32-1.57-1.88-1.94-1.7-3.226-3.399-.731-8.42a.765.765 0 1 1 1.37.682c-2.168 4.364-1.048 5.344.37 6.586.711.623 1.519 1.329 1.978 2.45.566 1.382.328 2.812-.655 3.926-.932 1.056-2.358 1.635-3.882 1.635"/><path fill="#FEFEFE" d="M60.435 70.08c-4.417-.613-8.605-1.37-13.394-2.938-4.743-1.553-7.73 2.516-4.534 5.97 3.751 4.056 13.242 6.371 19.564 5.56 5.055-.648 8.362-3.566 10.487-8.12 2.427-5.207 2.427-12.98 2.427-12.98l-14.55 12.507Z"/><path fill="#0F141B" d="M59.406 79.596c-6.113 0-13.931-2.148-17.462-5.963-1.647-1.78-2-3.93-.922-5.61 1.178-1.834 3.634-2.467 6.256-1.609 4.973 1.63 9.313 2.36 13.262 2.905a.766.766 0 0 1-.21 1.517c-4.02-.556-8.44-1.3-13.528-2.967-1.94-.633-3.703-.249-4.491.981-.684 1.065-.393 2.499.758 3.742 3.667 3.963 13.005 6.078 18.905 5.32 4.513-.579 7.747-3.093 9.89-7.685 2.325-4.986 2.355-12.58 2.355-12.657a.765.765 0 1 1 1.531 0c0 .325-.028 8.007-2.499 13.304-2.38 5.106-6.007 7.905-11.083 8.557-.861.11-1.791.165-2.762.165"/><path fill="#FFF" d="M82.918 29.285c-.823 1.473-1.371 4.735-2.09 7.393-2.364 8.736-5.685 10.167-6.74 10.964l-.25 12.136c11.558-6.132 15.61-14.307 16.571-22.878.687-6.122-.535-9.013-2.953-9.782a4.07 4.07 0 0 0-1.232-.207c-1.29.002-2.399.75-3.306 2.374Z"/><path fill="#FEFEFE" d="M82.45 29.285c-.823 1.473-1.37 4.735-2.089 7.393-2.364 8.736-5.685 10.167-6.74 10.964l-.25 12.136C84.928 53.646 88.98 45.471 89.94 36.9c.688-6.122-.534-9.013-2.952-9.782a4.07 4.07 0 0 0-1.232-.207c-1.291.002-2.399.75-3.306 2.374Z"/><path fill="#0F141B" d="M73.839 60.543a.767.767 0 0 1-.36-1.442c9.916-5.259 15.053-12.341 16.169-22.288.589-5.25-.226-8.267-2.425-8.966-1.038-.33-2.39-.422-3.637 1.81-.514.922-.953 2.801-1.38 4.617a76.718 76.718 0 0 1-.638 2.604c-2.204 8.138-5.222 10.162-6.672 11.135-.133.089-.25.167-.347.24a.766.766 0 0 1-.922-1.223c.115-.087.255-.181.416-.29 1.296-.869 3.994-2.677 6.047-10.262.22-.817.425-1.692.626-2.553.47-2.008.913-3.904 1.533-5.014 1.668-2.984 3.88-3.018 5.438-2.524 3.035.966 4.175 4.432 3.483 10.598-1.162 10.35-6.713 18.027-16.974 23.469a.756.756 0 0 1-.357.09"/><path fill="#8E2422" d="M37.57 39.456c2.141 5.069 2.345 9.534 3.526 12.677 1.738 1.32 4.755 1.281 7.891 1.242 1.735-.022 3.503-.045 5.115.163l9.22.934 12.196-7.89s-3.776-9.152-3.955-9.287c-.176-.132-19.26-.523-19.637-.523-.38 0-14.357 2.684-14.357 2.684Z"/><path fill="#0F141B" d="M63.324 55.238a.765.765 0 0 1-.418-1.408l11.662-7.544c-1.217-2.943-2.947-7.078-3.493-8.267-2.62-.142-18.083-.48-19.15-.481-.469.052-7.896 1.459-13.297 2.494 1.053 2.72 1.583 5.227 2.057 7.462.336 1.585.629 2.966 1.049 4.152 1.564 1.034 4.32.998 7.235.962 1.75-.022 3.563-.045 5.23.17a.767.767 0 0 1-.195 1.52c-1.56-.203-3.317-.18-5.016-.159-3.293.041-6.409.08-8.355-1.397a.766.766 0 0 1-.254-.34c-.504-1.342-.838-2.92-1.192-4.591-.51-2.405-1.087-5.133-2.324-8.057a.766.766 0 0 1 .56-1.05c6.41-1.23 14.129-2.697 14.502-2.697.192 0 19.562.274 20.098.676.216.163.348.26 4.203 9.607a.765.765 0 0 1-.291.935l-12.196 7.89a.76.76 0 0 1-.415.123"/><path fill="#FEFEFE" d="M64.196 41.509c-.005.109-.17 2.458-3.908 2.786l-.26.019c-1.35.078-2.19-.211-2.673-.84l.063.075c-.647.796-1.993 1.736-4.725 1.628l-.236-.016c-1.161-.104-1.982-.628-2.384-1.32-.62.796-1.92 1.757-4.505 1.466l-.226-.031c-.958-.157-1.637-.602-2.06-1.217l.06.079c-.813.505-2.458 1.158-4.554.654l-.255-.068c-.998-.292-1.704-.822-2.146-1.54l-.105-.182c-1.002-1.836-.502-4.308-.502-4.308l8.657-.232-.113 1.08 5.25-.14.008-.207 8.674-.232-.004.044 5.087-.148a8.16 8.16 0 0 1-.041-.695v-.01l6.574-.38c.045.164 1.128 4.305-3.222 4.616l-.201.01c-.876.012-1.772-.292-2.252-.895Z"/><path fill="#0F141B" d="m70.608 37.567.013.048c.088.344.535 2.35-.541 3.885-.694.987-1.829 1.543-3.374 1.653a4.012 4.012 0 0 1-.323.013c-.648 0-1.264-.14-1.784-.397-.543.99-1.786 2.072-4.244 2.288a8.193 8.193 0 0 1-.729.034c-.885 0-1.598-.165-2.15-.5-.825.717-2.174 1.36-4.355 1.36-.148 0-.301-.003-.457-.009-1.065-.042-1.982-.384-2.635-.964-.783.642-1.944 1.146-3.572 1.146-.308 0-.633-.018-.974-.056-.928-.104-1.71-.436-2.302-.97a6.695 6.695 0 0 1-2.88.641c-.531 0-1.097-.06-1.691-.204-1.304-.312-2.272-.968-2.877-1.95-1.282-2.085-.728-4.923-.704-5.042a.765.765 0 0 1 1.502.302c-.006.023-.456 2.372.507 3.937.39.633 1.02 1.047 1.93 1.265 1.396.335 2.55.09 3.315-.224-.746-1.677-.661-3.976-.648-4.267a.766.766 0 0 1 1.53.074c-.02.438-.008 1.356.146 2.255l.364-3.502a.767.767 0 0 1 1.523.157l-.544 5.224a.774.774 0 0 1-.067.245.817.817 0 0 1-.102.158c.315.2.706.327 1.17.379 1.855.21 2.917-.304 3.509-.845-.456-1.176-.406-2.694-.357-4.288l.008-.243a.765.765 0 0 1 1.53-.037.765.765 0 0 1 1.489.331l-.484 3.531a.736.736 0 0 1-.02.097 3.138 3.138 0 0 1-.305.72c.387.358.982.571 1.698.6 1.968.083 3.09-.42 3.724-.953-.753-1.448-.816-3.712-.819-4.296v-.109c.004-.422.31-.778.771-.759a.765.765 0 0 1 .76.771c-.003.536.044 1.294.163 2.022l.17-2.186a.766.766 0 1 1 1.526.118l-.272 3.532a.696.696 0 0 1-.03.166l-.023.078a3.45 3.45 0 0 1-.245.579c.326.138.865.238 1.773.157 2.465-.217 3.039-1.364 3.17-1.842-.833-1.32-.858-3.3-.858-3.537 0-.386.286-.707.66-.757l.105-.007c.422 0 .765.342.766.763a.795.795 0 0 1 .437-.087c.422.038.732.41.695.83l-.206 2.322c.374.29.988.452 1.606.41 1.06-.077 1.81-.413 2.226-1.002.74-1.045.316-2.63.313-2.645a.766.766 0 0 1 1.473-.413Z"/><path fill="#F9BE00" d="M48.203 32.53c-6.29.367-9.592-1.211-12.342-1.232-3.347-.027-4.89 1.751-5.11 3.734-.38 3.438 3.103 4.586 4.534 4.994 4.058 1.15 9.779 1.695 20.446.885 8.554-.644 11.893-2.873 14.355-1.526 2.636 1.438 1.878 5.043-1.97 7.277-4.823 2.783-13.394 4.113-21.224 3.89-3.374-.098-7.086-.872-9.038.605-1.758 1.332-1.723 4.518.693 5.762 1.979 1.017 10.262 2.193 20.153.534 7.926-1.331 13.138-4.546 15.493-6.695 3.61-3.293 4.687-6.617 4.446-10.041-.305-4.36-2.987-7.988-7.918-8.82-2.043-.347-4.297-.07-6.253.206-1.394.197-2.638.393-3.549.365-.035-3.076-1.925-5.624-5.947-5.926a8.13 8.13 0 0 0-.56-.022c-3.748 0-6.105 2.906-6.209 6.01Z"/><path fill="#0F141B" d="M55.029 25.778c3.782.284 6.253 2.52 6.612 5.907.644-.044 1.42-.155 2.278-.277 2.057-.294 4.616-.662 6.931-.265 4.922.83 8.2 4.477 8.553 9.519.283 4.035-1.252 7.522-4.694 10.661-1.328 1.213-6.4 5.293-15.883 6.885a60.608 60.608 0 0 1-9.952.838c-5.409 0-9.375-.777-10.677-1.447-1.348-.694-2.194-1.95-2.323-3.445-.122-1.424.459-2.805 1.518-3.606 1.723-1.305 4.359-1.109 7.148-.903.792.059 1.592.117 2.375.14 8.243.245 16.422-1.25 20.818-3.786 2.338-1.356 3.156-3.029 3.14-4.14-.009-.773-.408-1.397-1.153-1.803-1.12-.611-2.628-.284-5.125.257-2.09.452-4.949 1.07-8.806 1.361-9.545.725-15.934.443-20.713-.912-4.59-1.306-5.298-3.882-5.085-5.814.238-2.155 1.924-4.416 5.876-4.416 1.07.008 2.183.229 3.471.485 2.063.412 4.6.915 8.16.78.22-1.664 1.019-3.208 2.249-4.312 1.414-1.268 3.241-1.859 5.282-1.707Zm-4.26 2.847c-1.093.982-1.75 2.414-1.8 3.93a.765.765 0 0 1-.72.74c-4.107.237-6.936-.323-9.209-.775-1.213-.242-2.26-.45-3.185-.457h-.066c-2.504 0-4.06 1.11-4.276 3.053-.22 1.984 1.083 3.349 3.981 4.173 4.598 1.305 10.82 1.568 20.18.858 3.752-.282 6.438-.864 8.596-1.33 2.748-.596 4.566-.988 6.184-.106 1.24.679 1.934 1.789 1.951 3.127.026 1.971-1.47 4.074-3.904 5.486-4.628 2.67-13.127 4.225-21.63 3.992a55.32 55.32 0 0 1-2.444-.144c-.99-.073-1.958-.145-2.844-.145-1.347 0-2.505.165-3.267.74v.002c-.644.486-.995 1.35-.917 2.253.083.96.63 1.768 1.498 2.216 1.622.834 9.586 2.152 19.676.459 9.069-1.522 13.854-5.363 15.104-6.505 3.116-2.842 4.45-5.837 4.198-9.423-.304-4.365-3.028-7.4-7.281-8.115-2.08-.357-4.406-.025-6.458.27-1.267.181-2.368.335-3.242.309a.766.766 0 0 1-.741-.757c-.033-3.04-1.943-4.924-5.239-5.17-1.616-.122-3.048.335-4.144 1.319Zm6.328 1.953.048.001.049.002.104.01c.593.084 1.222.528 1.097 1.422l-.022.117c-.134.584-.658 1.071-1.413.96l-.121-.024a1.197 1.197 0 0 1-.89-1.271c.057-.612.419-1.217 1.148-1.217Zm-5.14-.167.033.002.108.01c.583.081 1.196.523 1.075 1.398l-.022.116c-.133.573-.648 1.054-1.39.944l-.12-.023a1.18 1.18 0 0 1-.875-1.251c.057-.608.505-1.196 1.158-1.196h.033Z"/><path fill="#F9BE00" d="M80.246 87.346c-.584 0-1.082-.163-1.462-.43-1.047.558-2.055.397-2.736-.076-.972.342-1.934.202-2.631-.407a2.371 2.371 0 0 1-.67-2.583c.44-1.21 1.608-1.718 2.578-2.026 1.858-.589 3.63-.635 4.516-.618 1.561.04 4.468.11 4.648 2.622.083 1.159-.597 1.875-1.646 2.593-.962.659-1.85.925-2.597.925"/><path fill="#0F141B" d="M80.08 80.579c1.849.047 5.293.133 5.507 3.158.098 1.395-.708 2.258-1.95 3.123-1.141.793-2.193 1.114-3.078 1.114-.692 0-1.282-.197-1.732-.519-1.24.673-2.435.48-3.241-.09-1.152.412-2.292.243-3.118-.49a2.888 2.888 0 0 1-.794-3.112c.521-1.457 1.905-2.07 3.054-2.44 2.202-.71 4.301-.765 5.352-.744Zm-4.882 2.202c-1.225.396-1.848.844-2.083 1.498a1.345 1.345 0 0 0 .369 1.45c.3.266.698.368 1.145.305-.19-.632-.17-1.456.458-2.315a.765.765 0 1 1 1.237.9c-.563.773-.07 1.3-.047 1.323l.008.01a.786.786 0 0 1 .005.005c.333.361.925.533 1.613.244-.172-.56-.17-1.305.35-2.112a.766.766 0 0 1 1.288.829c-.384.596-.143.956-.06 1.052l.012.013c.014.015.026.03.038.047.447.595 1.7.639 3.23-.427 1.256-.875 1.33-1.297 1.298-1.759-.097-1.375-1.487-1.671-4.018-1.734-1.622-.047-3.394.203-4.843.671Z"/><path fill="#F9BE00" d="M88.705 87.604c-1.082.592-2.126.417-2.823-.083-1.003.365-1.993.22-2.71-.415a2.492 2.492 0 0 1-.684-2.684c.38-1.062 1.32-1.882 2.647-2.311 1.37-.441 2.974-.59 4.9-.452.901.064 3.642.26 3.961 2.905.118.983-.45 2.322-1.767 2.976-.727.362-1.415.54-2.027.54-.579 0-1.089-.159-1.497-.476Z"/><path fill="#0F141B" d="M90.422 80.996c1.087.078 4.399.315 4.784 3.51.142 1.187-.545 2.805-2.135 3.595-.877.436-1.709.652-2.448.652-.7 0-1.315-.192-1.809-.575-1.306.715-2.567.504-3.409-.1-1.212.44-2.408.266-3.273-.502a3.01 3.01 0 0 1-.827-3.241c.458-1.283 1.594-2.275 3.197-2.793 1.655-.533 3.592-.713 5.92-.546Zm-3.601 1.596-.168.022c-.6.088-1.158.217-1.681.386-1.14.368-1.93 1.026-2.227 1.85a1.469 1.469 0 0 0 .403 1.58c.339.3.79.41 1.293.326-.21-.664-.204-1.542.464-2.46a.766.766 0 0 1 1.238.903c-.559.767-.176 1.308-.041 1.46a.055.055 0 0 1 .008.008c.369.403 1.029.592 1.792.254-.19-.584-.201-1.374.352-2.233a.766.766 0 0 1 1.287.829c-.423.656-.152 1.057-.059 1.164l.023.025.027.035c.483.645 1.551.638 2.858-.01.944-.47 1.37-1.404 1.294-2.043-.083-.691-.361-1.407-1.545-1.827-.565.168-1.473.263-2.394.263-1.194 0-2.409-.16-2.924-.532Z"/><path fill="#0F141B" d="M80.486 82.865c-.705 0-1.386-.076-1.878-.204-.707-.182-1.148-.478-1.347-.904a.767.767 0 0 1 1.351-.716c.545.395 3.19.384 3.75-.024a.766.766 0 0 1 .904 1.237c-.599.436-1.716.61-2.78.61Z"/></g></svg>