<svg xmlns="http://www.w3.org/2000/svg" width="48" height="48"><defs><filter id="a"><feColorMatrix in="SourceGraphic" values="0 0 0 0 0.000000 0 0 0 0 0.000000 0 0 0 0 0.000000 0 0 0 1.000000 0"/></filter></defs><g fill="none" fill-rule="evenodd" stroke-linejoin="round" filter="url(#a)"><g stroke="#000"><path stroke-linecap="round" d="M20.196 21.242v.877m8.008-.877v.877m-7.925 4.13c.741 1.51 2.23 2.544 3.948 2.544s3.206-1.033 3.948-2.544m-3.67-3.603c-.478.17-.827.615-.827 1.158 0 .541.349.987.827 1.157"/><path stroke-width="1.2" d="M24 14c-5.523 0-10 4.478-10 10.002a9.961 9.961 0 0 0 3.204 7.322V35l3.098-1.711a9.967 9.967 0 0 0 3.698.715c5.523 0 10-4.479 10-10.002C34 18.478 29.523 14 24 14z"/></g></g></svg>