<svg xmlns="http://www.w3.org/2000/svg" width="48" height="48"><defs><filter id="a"><feColorMatrix in="SourceGraphic" values="0 0 0 0 0.000000 0 0 0 0 0.000000 0 0 0 0 0.000000 0 0 0 1.000000 0"/></filter></defs><g fill="none" fill-rule="evenodd" filter="url(#a)"><path fill="none" d="M12 12h24v24H12z"/><path stroke="#000" stroke-linejoin="round" stroke-width="1.2" d="m20.069 19.783-4.694 2.411v8.005l8.792 4.678 8.458-4.678v-8.005l-4.546-2.329"/><path stroke="#000" stroke-linejoin="round" stroke-width="1.2" d="m15.375 22.436 8.792 4.679 8.458-4.679m-8.41 4.247v7.98"/><path stroke="#000" stroke-linejoin="round" stroke-width="1.2" d="M24 23.201c.004-.002 3.779-2.272 5.45-4.965 1.03-1.657.632-3.678-.62-4.579-2.338-1.684-4.513.784-4.83 1.166-.318-.382-2.492-2.85-4.831-1.166-1.25.9-1.649 2.922-.62 4.58 1.672 2.691 5.447 4.961 5.451 4.963z"/></g></svg>