<svg width="48" height="48" viewBox="0 0 48 48" fill="none" xmlns="http://www.w3.org/2000/svg">
<path fill-rule="evenodd" clip-rule="evenodd" d="M32.6918 24C32.6918 23.6317 32.6644 23.2706 32.6165 22.9147L34 21.2823C33.5246 19.658 32.634 18.2015 31.4439 17.0256L29.2854 17.3623C28.6894 16.922 28.0335 16.5547 27.3303 16.2736L26.5539 14.3055C25.7366 14.1065 24.8814 14 24.0002 14C23.1191 14 22.2639 14.1065 21.4466 14.3055L20.6702 16.2736C19.967 16.5547 19.3106 16.922 18.7151 17.3623L16.5566 17.0256C15.3665 18.2015 14.4759 19.658 14 21.2823L15.384 22.9147C15.3361 23.2701 15.3087 23.6317 15.3087 24C15.3087 24.3683 15.3361 24.7299 15.384 25.0853L14 26.7177C14.4759 28.342 15.3665 29.7985 16.5566 30.9744L18.7151 30.6377C19.3106 31.078 19.967 31.4453 20.6702 31.7264L21.4466 33.6945C22.2634 33.8931 23.1191 34 24.0002 34C24.8814 34 25.7366 33.8931 26.5539 33.6945L27.3303 31.7264C28.0335 31.4453 28.6899 31.078 29.2854 30.6377L31.4439 30.9744C32.634 29.7985 33.5246 28.342 34 26.7177L32.6165 25.0853C32.6644 24.7294 32.6918 24.3683 32.6918 24Z" stroke="black" stroke-width="1.2"/>
<path fill-rule="evenodd" clip-rule="evenodd" d="M27.5 24C27.5 25.933 25.933 27.5 24 27.5C22.067 27.5 20.5 25.933 20.5 24C20.5 22.067 22.067 20.5 24 20.5C25.933 20.5 27.5 22.067 27.5 24Z" stroke="black" stroke-width="1.2"/>
</svg>
