<svg xmlns="http://www.w3.org/2000/svg" width="29" height="32"><g fill="none" fill-rule="evenodd"><path fill="#3961E1" d="M25.163 4.828 14.847 1.061a1.021 1.021 0 0 0-.694 0L3.837 4.828A2.801 2.801 0 0 0 2 7.461v9.605c0 3.645.996 6.265 3.59 8.597 1.854 1.666 4.12 3.324 6.184 4.53 1.092.638 1.689.807 2.726.807s1.634-.169 2.726-.807c2.064-1.206 4.33-2.864 6.184-4.53C26.004 23.33 27 20.71 27 17.066V7.461c0-1.178-.734-2.23-1.837-2.633"/><path fill="#FAE100" d="M14.5 8.851c-3.84 0-6.952 2.885-6.952 6.444 0 2.627 1.098 3.882 2.602 5.026v3.08c0 .146.165.23.282.143l2.624-1.951c.464.09.944.138 1.436.138 3.835 0 6.945-2.879 6.951-6.433l.009-.003c0-3.56-3.112-6.444-6.952-6.444"/></g></svg>