<svg width="48" height="48" viewBox="0 0 48 48" fill="none" xmlns="http://www.w3.org/2000/svg">
<path d="M24.0671 28.3495H24.6671V27.7495H24.0671V28.3495ZM20.1555 28.3495H19.5555C19.5555 28.6808 19.8241 28.9495 20.1555 28.9495V28.3495ZM20.1555 19.6547V19.0547C19.8241 19.0547 19.5555 19.3234 19.5555 19.6547H20.1555ZM24.0671 28.3537H23.4671V28.9537H24.0671V28.3537ZM24.0671 27.7495H20.1555V28.9495H24.0671V27.7495ZM20.7555 28.3495V19.6547H19.5555V28.3495H20.7555ZM20.1555 20.2547H24.0671V19.0547H20.1555V20.2547ZM24.0671 20.2547C25.8376 20.2547 27.3787 21.8701 27.3787 24.0042H28.5787C28.5787 21.3299 26.6166 19.0547 24.0671 19.0547V20.2547ZM27.3787 24.0042C27.3787 26.1383 25.8376 27.7537 24.0671 27.7537V28.9537C26.6166 28.9537 28.5787 26.6785 28.5787 24.0042H27.3787ZM24.6671 28.3537V28.3495H23.4671V28.3537H24.6671Z" fill="black"/>
<path d="M24.0663 14H16.5C15.3954 14 14.5 14.8954 14.5 16V32C14.5 33.1046 15.3954 34 16.5 34H24.0663C29.3421 34 33.6326 29.5116 33.6326 24C33.6326 18.4884 29.3421 14 24.0663 14Z" stroke="black" stroke-width="1.2" stroke-miterlimit="10"/>
</svg>
