<svg xmlns="http://www.w3.org/2000/svg" width="26" height="26"><g fill="none" fill-rule="nonzero"><path d="M0 0h26v26H0z" opacity=".3"/><path fill="#333" d="M13.451 4.183c1.08 0 2.03.062 2.871.19V5.59c-.818-.138-1.767-.206-2.871-.206-1.594 0-2.865.142-3.884.43-.967.273-1.7.676-2.254 1.23-.554.554-.956 1.286-1.23 2.254-.288 1.02-.43 2.29-.43 3.884 0 1.594.142 2.864.43 3.883.274.969.676 1.7 1.23 2.255.554.554 1.286.956 2.254 1.23 1.02.288 2.29.43 3.884.43 1.594 0 2.864-.142 3.883-.43.968-.274 1.7-.676 2.255-1.23.554-.554.957-1.287 1.23-2.255.288-1.018.43-2.29.43-3.883 0-.462-.012-.896-.036-1.306l1.202.001c.023.413.034.847.034 1.305 0 1.696-.154 3.073-.475 4.21-.327 1.155-.829 2.068-1.537 2.776-.708.708-1.62 1.21-2.777 1.537-1.136.32-2.513.475-4.209.475-1.696 0-3.073-.154-4.21-.475-1.156-.327-2.069-.83-2.776-1.537-.708-.707-1.21-1.62-1.537-2.776-.321-1.137-.475-2.514-.475-4.21 0-1.696.154-3.073.475-4.21.327-1.156.829-2.068 1.537-2.776.708-.708 1.62-1.21 2.776-1.537 1.137-.321 2.514-.475 4.21-.475Zm.533 10.354.001.018c2.185.146 3.717 1.204 4.271 2.884l.06.197-1.156.32c-.366-1.319-1.556-2.148-3.457-2.215l-.252-.004v-.001h-.008c-1.96 0-3.217.774-3.654 2.046l-.053.169-1.156-.322c.518-1.86 2.188-3.01 4.601-3.088l.262-.004h.541Zm2.263-3.224a2.864 2.864 0 0 1-2.149 2.15 2.881 2.881 0 0 1-3.457-3.452 2.863 2.863 0 0 1 2.15-2.152 2.881 2.881 0 0 1 3.456 3.454ZM13.053 9.03a1.663 1.663 0 0 0-1.24 1.242 1.681 1.681 0 0 0 2.022 2.02 1.668 1.668 0 0 0 1.203-1.103l.038-.138.024-.131a1.68 1.68 0 0 0-2.047-1.89Zm8-4.393-.001 2.278h2.279v1.2h-2.279v2.278h-1.2V8.115h-2.277v-1.2h2.277V4.637h1.2Z"/></g></svg>