<svg xmlns="http://www.w3.org/2000/svg" xmlns:xlink="http://www.w3.org/1999/xlink" width="36" height="36"><defs><path id="a" d="M0 0h21v19H0z"/></defs><g fill="none" fill-rule="evenodd"><path fill="#FEE500" d="M18 36C4.75 36 0 31.25 0 18 0 5.25 4.75 0 18 0s18 4.75 18 18-4.75 18-18 18z"/><g transform="translate(8 9.5)"><mask id="b" fill="#fff"><use xlink:href="#a"/></mask><path fill="#391B1B" d="M10.5 0C4.7 0 0 3.66 0 8.175c0 2.939 1.992 5.514 4.981 6.955-.22.808-.795 2.926-.91 3.379-.143.562.209.555.44.403.18-.118 2.876-1.924 4.04-2.703.631.092 1.283.141 1.949.141 5.799 0 10.5-3.66 10.5-8.175C21 3.66 16.299 0 10.5 0" mask="url(#b)"/></g><path fill="#FAE300" d="M14.275 15.267h-3.07c-.29 0-.523.23-.523.514 0 .285.234.515.522.515h.998v3.622a.51.51 0 0 0 .51.502h.111a.504.504 0 0 0 .509-.502v-3.622h.943c.289 0 .522-.23.522-.515a.518.518 0 0 0-.522-.514m7.379 4.186h-1.428v-3.7a.562.562 0 0 0-.566-.558.563.563 0 0 0-.567.558v3.988c0 .031.004.06.009.09a.47.47 0 0 0 .465.556h2.087c.262 0 .474-.21.474-.468a.47.47 0 0 0-.474-.466m4.563.17-1.592-2.059 1.438-1.416a.485.485 0 0 0 0-.694.503.503 0 0 0-.705 0l-1.78 1.752v-1.453a.563.563 0 0 0-.566-.558.562.562 0 0 0-.567.558v4.11c0 .31.253.559.567.559.312 0 .566-.25.566-.558v-1.269l.323-.318 1.506 1.945c.167.22.485.266.709.1a.495.495 0 0 0 .1-.7M15.69 18.421l.703-1.977.022.002.704 1.975h-1.43zm2.979 1.335-1.53-4.122-.005-.005c-.098-.251-.38-.434-.717-.434-.374 0-.683.224-.744.519-.01.022-.021.044-.03.067l-1.504 3.975a.499.499 0 0 0 .31.638.51.51 0 0 0 .647-.306l.26-.732h2.095l.26.732a.51.51 0 0 0 .647.306.498.498 0 0 0 .311-.638z"/></g></svg>