<svg xmlns="http://www.w3.org/2000/svg" width="112" height="17"><g fill="none" fill-rule="nonzero"><path fill="#BFBFBF" d="M110 0a2 2 0 0 1 2 2v13a2 2 0 0 1-2 2H2a2 2 0 0 1-2-2V2a2 2 0 0 1 2-2h108Zm0 1H2a1 1 0 0 0-.993.883L1 2v13a1 1 0 0 0 .883.993L2 16h108a1 1 0 0 0 .993-.883L111 15V2a1 1 0 0 0-.883-.993L110 1Z"/><path fill="#666" d="M4.354 12h.969l.743-2.117H9.01L9.752 12h.97L7.993 4.602H7.08L4.354 12Zm3.143-6.204h.082l1.158 3.302h-2.4l1.16-3.302Zm6.042 6.301c.769 0 1.384-.364 1.722-.979h.082V12h.892V4.279h-.892v3.066h-.082c-.302-.59-.964-.97-1.722-.97-1.405 0-2.318 1.124-2.318 2.856v.01c0 1.723.918 2.856 2.318 2.856Zm.205-.79c-1.01 0-1.61-.778-1.61-2.065v-.01c0-1.287.6-2.067 1.61-2.067 1.005 0 1.62.79 1.62 2.066v.01c0 1.277-.615 2.067-1.62 2.067Zm4.104.693h.892V8.575c0-.78.549-1.41 1.271-1.41.698 0 1.149.426 1.149 1.082V12h.892V8.447c0-.702.508-1.282 1.277-1.282.779 0 1.153.405 1.153 1.22V12h.892V8.18c0-1.158-.63-1.804-1.758-1.804-.764 0-1.395.384-1.692.969h-.082c-.257-.574-.78-.97-1.528-.97-.723 0-1.246.344-1.492.939h-.082v-.84h-.892V12Zm9.508-6.593a.617.617 0 0 0 .615-.615.617.617 0 0 0-.615-.616.617.617 0 0 0-.615.616c0 .338.276.615.615.615ZM26.905 12h.892V6.473h-.892V12Zm4.37.097c1.256 0 2.215-.681 2.215-1.666v-.01c0-.79-.502-1.24-1.543-1.492l-.851-.205c-.651-.16-.928-.395-.928-.77v-.01c0-.486.482-.825 1.138-.825.667 0 1.097.303 1.215.738h.877c-.123-.902-.928-1.481-2.087-1.481-1.174 0-2.056.692-2.056 1.61v.005c0 .794.467 1.246 1.502 1.492l.857.205c.682.164.964.425.964.8v.01c0 .502-.529.856-1.272.856-.707 0-1.148-.302-1.297-.764h-.913c.103.913.949 1.507 2.18 1.507Zm5.294 0c1.256 0 2.215-.681 2.215-1.666v-.01c0-.79-.503-1.24-1.544-1.492l-.85-.205c-.652-.16-.929-.395-.929-.77v-.01c0-.486.482-.825 1.139-.825.666 0 1.097.303 1.215.738h.876c-.123-.902-.928-1.481-2.086-1.481-1.174 0-2.056.692-2.056 1.61v.005c0 .794.466 1.246 1.502 1.492l.856.205c.682.164.964.425.964.8v.01c0 .502-.528.856-1.271.856-.708 0-1.149-.302-1.298-.764h-.912c.102.913.948 1.507 2.179 1.507Zm3.97-6.69a.617.617 0 0 0 .616-.615.617.617 0 0 0-.615-.616.617.617 0 0 0-.616.616c0 .338.277.615.616.615ZM40.09 12h.892V6.473h-.893V12Zm4.744.097c1.574 0 2.549-1.087 2.549-2.855v-.01c0-1.774-.975-2.856-2.549-2.856-1.574 0-2.548 1.082-2.548 2.855v.01c0 1.77.974 2.856 2.548 2.856Zm0-.79c-1.045 0-1.635-.763-1.635-2.065v-.01c0-1.308.59-2.067 1.635-2.067 1.046 0 1.636.76 1.636 2.066v.01c0 1.303-.59 2.067-1.636 2.067Zm3.833.693h.892V8.729c0-.969.559-1.564 1.44-1.564.882 0 1.293.477 1.293 1.472V12h.892V8.421c0-1.312-.692-2.045-1.933-2.045-.815 0-1.333.343-1.61.928h-.082v-.83h-.892V12Zm11.14.097c1.329 0 2.072-.712 2.298-1.712l.01-.056-.882.005-.01.03c-.205.616-.677.944-1.42.944-.985 0-1.62-.815-1.62-2.087v-.01c0-1.246.625-2.046 1.62-2.046.794 0 1.286.441 1.425.985l.005.015h.887l-.005-.03c-.164-.985-.97-1.76-2.312-1.76-1.549 0-2.533 1.118-2.533 2.836v.01c0 1.754.99 2.876 2.538 2.876Zm5.786 0c1.574 0 2.548-1.087 2.548-2.855v-.01c0-1.774-.974-2.856-2.548-2.856s-2.548 1.082-2.548 2.855v.01c0 1.77.974 2.856 2.548 2.856Zm0-.79c-1.046 0-1.635-.763-1.635-2.065v-.01c0-1.308.59-2.067 1.635-2.067 1.046 0 1.636.76 1.636 2.066v.01c0 1.303-.59 2.067-1.636 2.067Zm3.833.693h.892V8.729c0-.969.559-1.564 1.44-1.564.882 0 1.293.477 1.293 1.472V12h.892V8.421c0-1.312-.693-2.045-1.933-2.045-.815 0-1.333.343-1.61.928h-.082v-.83h-.892V12Zm8.067.097c.769 0 1.384-.364 1.723-.979h.082V12h.892V4.279h-.892v3.066h-.082c-.303-.59-.964-.97-1.723-.97-1.405 0-2.317 1.124-2.317 2.856v.01c0 1.723.917 2.856 2.317 2.856Zm.205-.79c-1.01 0-1.61-.778-1.61-2.065v-.01c0-1.287.6-2.067 1.61-2.067 1.005 0 1.62.79 1.62 2.066v.01c0 1.277-.615 2.067-1.62 2.067Zm4.576-5.9a.617.617 0 0 0 .615-.615.617.617 0 0 0-.615-.616.617.617 0 0 0-.615.616c0 .338.276.615.615.615ZM81.822 12h.892V6.473h-.892V12Zm4.437.041c.174 0 .344-.02.518-.051v-.759c-.164.015-.251.02-.41.02-.575 0-.8-.261-.8-.912V7.21h1.21v-.738h-1.21v-1.43h-.923v1.43h-.872v.738h.872v3.353c0 1.057.477 1.477 1.615 1.477Zm2.223-6.634a.617.617 0 0 0 .615-.615.617.617 0 0 0-.615-.616.617.617 0 0 0-.616.616c0 .338.277.615.616.615ZM88.03 12h.892V6.473h-.892V12Zm4.745.097c1.574 0 2.548-1.087 2.548-2.855v-.01c0-1.774-.974-2.856-2.548-2.856s-2.548 1.082-2.548 2.855v.01c0 1.77.974 2.856 2.548 2.856Zm0-.79c-1.046 0-1.635-.763-1.635-2.065v-.01c0-1.308.59-2.067 1.635-2.067 1.046 0 1.636.76 1.636 2.066v.01c0 1.303-.59 2.067-1.636 2.067Zm3.833.693h.892V8.729c0-.969.559-1.564 1.44-1.564.882 0 1.292.477 1.292 1.472V12h.893V8.421c0-1.312-.693-2.045-1.933-2.045-.815 0-1.333.343-1.61.928H97.5v-.83h-.892V12Zm7.923.097c1.256 0 2.215-.681 2.215-1.666v-.01c0-.79-.502-1.24-1.543-1.492l-.851-.205c-.651-.16-.928-.395-.928-.77v-.01c0-.486.482-.825 1.138-.825.667 0 1.097.303 1.215.738h.877c-.123-.902-.928-1.481-2.087-1.481-1.174 0-2.056.692-2.056 1.61v.005c0 .794.467 1.246 1.503 1.492l.856.205c.682.164.964.425.964.8v.01c0 .502-.528.856-1.272.856-.707 0-1.148-.302-1.297-.764h-.913c.103.913.949 1.507 2.18 1.507Z"/></g></svg>