<svg xmlns="http://www.w3.org/2000/svg" width="45" height="17"><g fill="none" fill-rule="nonzero"><path fill="#BFBFBF" d="M43 0a2 2 0 0 1 2 2v13a2 2 0 0 1-2 2H2a2 2 0 0 1-2-2V2a2 2 0 0 1 2-2h41Zm0 1H2a1 1 0 0 0-.993.883L1 2v13a1 1 0 0 0 .883.993L2 16h41a1 1 0 0 0 .993-.883L44 15V2a1 1 0 0 0-.883-.993L43 1Z"/><path fill="#666" d="M12.122 8.371V3.317H11.3V8.37h.82Zm.01 4.255V8.89h-.82v1.198h-4.45V8.89h-.82v3.736h6.09Zm-.82-.67h-4.45v-1.198h4.45v1.199ZM7.089 3.782c-1.329 0-2.43.886-2.43 2.214 0 1.34 1.112 2.182 2.43 2.182 1.328 0 2.419-.843 2.419-2.193 0-1.339-1.09-2.203-2.42-2.203Zm0 .713c.972 0 1.598.616 1.598 1.501 0 .897-.637 1.501-1.598 1.501-.929 0-1.61-.604-1.61-1.512 0-.885.681-1.49 1.61-1.49Zm14.05 6.458c0-1.134-1.198-1.814-3.175-1.814-1.976 0-3.164.68-3.164 1.814 0 1.113 1.188 1.793 3.164 1.793 1.977 0 3.176-.68 3.176-1.793Zm-7.333-6.264h2.171c0 .238-.01.422-.01.508-.044 1.253-1.243 2.44-2.43 2.894l.475.638c1.015-.432 2.116-1.448 2.376-2.333.388.853 1.35 1.706 2.257 2.073l.453-.658c-1.08-.357-2.203-1.394-2.278-2.603-.011-.097-.011-.281-.011-.519h2.149v-.69h-5.152v.69Zm6.491 6.264c0 .702-.907 1.113-2.333 1.113-1.425 0-2.31-.41-2.31-1.113 0-.734.885-1.123 2.31-1.123 1.426 0 2.333.389 2.333 1.123Zm2.171-4.33V5.93H21.01V3.317h-.82v5.8h.82V6.621h1.458Zm8.435-1.685v-.659h-7.085v.659h3.11v.194c0 1.512-1.998 2.873-3.488 3.132l.389.691c1.566-.4 3.132-1.555 3.52-2.624.454 1.037 2.01 2.214 3.521 2.646l.422-.691c-1.415-.281-3.5-1.663-3.5-3.154v-.194h3.11Zm.713 6.62v-.691h-3.867V8.512h-.82v2.354h-3.835v.691h8.522Zm8.758.972v-.691h-5.583v-2.29h-.821v2.981h6.404Zm-1.047-5.756v3.402h.82V3.317h-.82v2.765h-2.074v.69h2.074ZM32.9 4.03v.69h3.423c-.248 1.653-1.77 3.187-3.769 3.716l.41.691c2.441-.81 4.115-2.581 4.256-5.097H32.9Z"/></g></svg>