<svg xmlns="http://www.w3.org/2000/svg" width="15" height="15" fill="none"><path fill="#fff" d="m11.276 3.337.191-.516-.19.516ZM7.774 2.04l.19-.516-.19.516Zm-.461 0-.19-.516.19.516ZM3.81 3.337l-.19-.516h-.001l.191.516Zm1.207 8.203.342-.43-.342.43Zm1.636 1.193.303-.46-.303.46Zm1.78 0-.302-.46.302.46Zm1.637-1.193-.342-.43.342.43ZM7.176 8.895l-.389.389a.55.55 0 0 0 .778 0l-.39-.39Zm4.291-6.074L7.964 1.525l-.381 1.032 3.503 1.296.381-1.032ZM7.964 1.525c-.271-.1-.57-.1-.842 0l.382 1.032a.115.115 0 0 1 .079 0l.381-1.032Zm-.842 0L3.62 2.821l.382 1.032 3.503-1.296-.382-1.032ZM3.62 2.821A1.79 1.79 0 0 0 2.45 4.5h1.1a.69.69 0 0 1 .451-.649L3.62 2.821ZM2.45 4.5v2.895h1.1V4.5h-1.1Zm0 2.895c0 .98.116 1.798.474 2.547.357.75.93 1.377 1.75 2.028l.684-.861c-.748-.595-1.183-1.099-1.442-1.64-.258-.543-.366-1.175-.366-2.074h-1.1Zm2.224 4.575c.677.537 1.245.938 1.677 1.222l.604-.92A22.186 22.186 0 0 1 5.36 11.11l-.684.861Zm1.677 1.221a2.168 2.168 0 0 0 2.385 0l-.605-.918a1.068 1.068 0 0 1-1.175 0l-.605.918Zm2.384 0c.433-.284 1-.684 1.677-1.22l-.684-.862c-.65.516-1.191.897-1.597 1.164l.604.919Zm1.677-1.22c.82-.652 1.393-1.28 1.75-2.029.358-.75.474-1.566.474-2.547h-1.1c0 .899-.107 1.531-.366 2.073-.258.542-.693 1.046-1.442 1.64l.684.862Zm2.224-4.576V4.5h-1.1v2.896h1.1Zm0-2.896a1.79 1.79 0 0 0-1.168-1.68l-.383 1.032a.69.69 0 0 1 .451.648h1.1ZM5.058 7.554l1.73 1.73.778-.778-1.73-1.73-.778.778Zm2.508 1.73 2.718-2.719-.778-.778-2.718 2.719.778.778Z" opacity=".9"/></svg>