<svg xmlns="http://www.w3.org/2000/svg" width="22" height="22"><g fill="none" fill-rule="evenodd"><path d="M0 0h22v22H0z"/><circle cx="11" cy="11" r="10.5" stroke="#FFF" opacity=".8"/><path fill="#FFF" d="M11 5.336c.5 0 .984.06 1.447.173l.44 1.115c.398.159.769.367 1.107.616l1.222-.19a5.607 5.607 0 0 1 1.448 2.41l-.784.925c.027.202.043.406.043.615 0 .209-.016.413-.043.615l.784.924a5.607 5.607 0 0 1-1.448 2.411l-1.222-.19c-.338.249-.71.457-1.108.616l-.44 1.115a6.121 6.121 0 0 1-2.892 0l-.44-1.115a4.958 4.958 0 0 1-1.107-.616l-1.223.19a5.61 5.61 0 0 1-1.448-2.41l.784-.925A4.6 4.6 0 0 1 6.077 11a4.6 4.6 0 0 1 .043-.615l-.784-.924A5.61 5.61 0 0 1 6.784 7.05l1.223.19c.337-.249.709-.457 1.107-.616l.44-1.115A6.107 6.107 0 0 1 11 5.336Zm0 3.579a2.085 2.085 0 1 0 0 4.17 2.085 2.085 0 0 0 0-4.17Z"/></g></svg>