<svg xmlns="http://www.w3.org/2000/svg" width="13" height="13" fill="none"><circle cx="6.5" cy="6.5" r="5.5" fill="#000" fill-opacity=".03"/><circle cx="6.5" cy="6.5" r="5" stroke="#fff" stroke-opacity=".4"/><path fill="#fff" fill-opacity=".6" fill-rule="evenodd" d="M7.343 4.381a.654.654 0 0 0 .178-.451.465.465 0 0 0-.469-.479.558.558 0 0 0-.422.19.64.64 0 0 0-.17.449c0 .141.044.26.13.35a.45.45 0 0 0 .334.14.556.556 0 0 0 .42-.199Zm.153 4.16a.142.142 0 0 0 .046-.104.147.147 0 0 0-.044-.105l-.178-.174a.145.145 0 0 0-.2-.002c-.363.341-.533.461-.604.504.006-.16.096-.622.476-1.895.265-.89.301-1.087.301-1.163a.356.356 0 0 0-.13-.285.476.476 0 0 0-.316-.098c-.203 0-.436.076-.711.231-.263.148-.556.398-.868.743a.147.147 0 0 0-.037.11c.003.04.024.078.055.101l.202.157c.057.043.138.039.189-.012.34-.332.456-.422.494-.446a.588.588 0 0 1 .06-.033.787.787 0 0 1-.017.073c-.466 1.506-.692 2.432-.692 2.83 0 .156.045.283.132.377.09.098.212.147.36.147.15 0 .327-.06.542-.184.202-.114.51-.367.94-.772Z" clip-rule="evenodd"/></svg>