<svg xmlns="http://www.w3.org/2000/svg" width="25" height="13" fill="none"><path fill="#000" fill-opacity=".3" stroke="#fff" stroke-width=".702" d="M6.5.351h12a6.149 6.149 0 0 1 0 12.298h-12A6.149 6.149 0 1 1 6.5.35Z"/><path fill="#fff" d="M4.746 8.5H5.83l.365-1.196h1.74L8.301 8.5h1.087L7.672 3.568H6.459L4.745 8.5Zm2.29-3.948h.062l.601 1.98H6.431l.605-1.98Zm4.129 4.027c.537 0 .92-.25 1.09-.66h.062V8.5h.998V4.737h-.998V6.91c0 .509-.267.84-.759.84-.472 0-.673-.276-.673-.81V4.737h-.998V7.17c0 .896.434 1.409 1.278 1.409Zm4.713-.065c.192 0 .376-.02.5-.045v-.741a2.35 2.35 0 0 1-.294.017c-.339 0-.482-.15-.482-.49V5.49h.775v-.752h-.775v-.9h-1.009v.9h-.58v.752h.58v1.996c0 .731.37 1.029 1.285 1.029Zm2.974.065c1.159 0 1.856-.732 1.856-1.959v-.007c0-1.217-.707-1.958-1.856-1.958-1.148 0-1.856.745-1.856 1.958v.007c0 1.224.697 1.959 1.856 1.959Zm0-.783c-.533 0-.834-.434-.834-1.176v-.007c0-.735.304-1.176.834-1.176.526 0 .834.441.834 1.176v.007c0 .742-.304 1.176-.834 1.176Z"/></svg>