<svg xmlns="http://www.w3.org/2000/svg" width="46" height="17"><g fill="none" fill-rule="nonzero"><path fill="#BFBFBF" d="M44 0a2 2 0 0 1 2 2v13a2 2 0 0 1-2 2H2a2 2 0 0 1-2-2V2a2 2 0 0 1 2-2h42Zm0 1H2a1 1 0 0 0-.993.883L1 2v13a1 1 0 0 0 .883.993L2 16h42a1 1 0 0 0 .993-.883L45 15V2a1 1 0 0 0-.883-.993L44 1Z"/><path fill="#666" d="M12.6 11.874c-1.733-.934-3.36-2.919-3.686-5.628.021-.179.031-.399.031-.756V4.356H6.048v.672H8.19v.578c0 2.94-1.691 5.187-3.707 6.383l.483.62c2.026-1.313 3.171-3.171 3.612-4.683.588 1.869 1.932 3.623 3.518 4.599l.504-.651Zm9.092-3.633v-.609h-5.701v.609h1.334c-.284.536-.809 1.281-1.901 1.869l.41.546a5.54 5.54 0 0 0 1.407-1.145h.85c-.494.851-1.25 1.429-2.11 1.838l.399.546c1.291-.735 1.89-1.47 2.404-2.383h.735c-.43 1.144-1.239 2.037-2.362 2.624l.42.494c1.406-.735 2.141-1.764 2.635-3.119h.462c-.021.946-.084 1.618-.189 2.059-.052.241-.2.293-.41.293-.23 0-.493-.031-.902-.094l.168.682c.293.042.566.063.84.063.608 0 .85-.178.976-.745.137-.62.21-2.037.22-2.835h-3.685c.157-.231.284-.473.41-.693h3.59Zm-.819-1.207v-2.94h-4.242v2.94h4.242Zm-4.683 1.69c-.304.158-.63.315-.966.462V6.697h.924v-.63h-.923V3.885h-.704v2.183h-.956v.63h.956v2.794l-1.029.42.22.703c.935-.42 1.786-.85 2.51-1.229l-.032-.661Zm1.155-2.909h2.835v.662h-2.834v-.662Zm0-1.165h2.835v.64h-2.834v-.64Zm10.332 4.074V8.21c0-.316.011-.505.043-.715h-.714c.031.252.041.357.041.715v.514h-2.982c-.556 0-.819-.01-1.102-.063v.704a9.33 9.33 0 0 1 1.176-.063h2.478c-.956 1.081-2.226 1.91-3.812 2.488.179.189.294.368.4.63.934-.43 1.722-.882 2.352-1.365.535-.399.913-.766 1.522-1.449-.021.357-.032.651-.032.903v1.281c0 .494-.01.683-.063.998h.756c-.052-.274-.063-.441-.063-.998v-1.281c0-.242-.01-.525-.031-.924.535.609.819.892 1.396 1.333.83.641 1.596 1.082 2.73 1.555.137-.284.232-.431.41-.662-1.208-.41-2.006-.819-2.972-1.502a6.622 6.622 0 0 1-1.113-1.007h2.646c.484 0 .851.02 1.187.063V8.66c-.305.053-.588.063-1.165.063h-3.088Zm2.08-4.757c-.274.042-.515.053-.977.053h-2.331c.336-.41.483-.588.62-.735l-.714-.21a6.145 6.145 0 0 1-1.323 1.575c-.557.483-1.155.85-1.964 1.218.22.189.315.304.42.494.84-.4 1.365-.746 2.037-1.355.525.557.872.861 1.397 1.239-1.24.693-2.489 1.102-4.127 1.365.168.231.231.346.304.599 1.376-.305 2.017-.505 3.056-.956.546-.231.85-.388 1.313-.651.462.284.808.462 1.218.63 1.018.42 1.858.651 3.192.903.094-.273.167-.388.336-.63-1.723-.263-2.909-.62-4.169-1.26.693-.462 1.218-.914 1.974-1.712.063-.083.084-.094.137-.146l-.4-.42Zm-3.76.589h3.13a8.936 8.936 0 0 1-1.66 1.364c-.619-.388-.976-.682-1.543-1.291l.073-.073Zm10.584-.42c-.21 1.07-.63 2.278-1.354 3.276l.599.44c.304-.43.566-.924.797-1.438h1.397v2.163h-2.699v.682h2.699v3.371h.735V9.26h2.551v-.683h-2.551V6.414h2.058v-.661h-2.058V3.799h-.735v1.954h-1.123c.189-.505.325-.998.42-1.439l-.736-.178Zm-1.638 8.494v-6.5c.294-.671.557-1.396.757-2.12l-.704-.273c-.315 1.375-1.092 3.181-1.985 4.242l.42.682a7.18 7.18 0 0 0 .799-1.155v5.124h.714Z"/></g></svg>