<svg xmlns="http://www.w3.org/2000/svg" width="16" height="16"><g fill="none" fill-rule="evenodd"><path d="M0 0h16v16H0z" opacity=".3"/><path fill="#000" d="M8.504 1.744c1.777 0 3.208 1.467 3.301 3.29l.005.19v.656A3.8 3.8 0 0 1 14 9.323v1.854a3.8 3.8 0 0 1-3.8 3.8H6.807a3.8 3.8 0 0 1-3.8-3.8V9.323a3.8 3.8 0 0 1 2.19-3.443v-.656c0-1.91 1.468-3.48 3.307-3.48Zm0 6.57a.845.845 0 0 0-.838.738l-.007.106v1.765a.845.845 0 0 0 1.683.106l.007-.106V9.158a.845.845 0 0 0-.845-.845Zm1.705-2.792.001-.298c0-1.05-.776-1.88-1.706-1.88-.884 0-1.629.75-1.701 1.725l-.006.155v.3l3.412-.002Z"/></g></svg>