<svg xmlns="http://www.w3.org/2000/svg" width="15" height="15"><g fill="none" fill-rule="evenodd"><circle cx="7.5" cy="7.5" r="7.5" fill="#49525C" fill-rule="nonzero"/><path fill="#FFF" d="M7.5 2.785c1.197 0 2.162.988 2.225 2.217l.003.128.001.7a3.185 3.185 0 0 1-1.71 5.872H6.981a3.185 3.185 0 0 1-1.71-5.874V5.13c0-1.287.99-2.345 2.228-2.345zm0 4.426a.57.57 0 0 0-.562.477l-.007.092v1.19a.57.57 0 0 0 1.13.092l.008-.093V7.78a.57.57 0 0 0-.569-.569zm0-3.348c-.595 0-1.097.505-1.146 1.162l-.004.105v.264a3.2 3.2 0 0 1 .632-.063h1.036a3.2 3.2 0 0 1 .633.063L8.65 5.13c0-.707-.523-1.267-1.15-1.267z"/></g></svg>