<svg xmlns="http://www.w3.org/2000/svg" width="16" height="16" fill="none"><g clip-path="url(#a)"><circle cx="8" cy="8" r="8" fill="#FF5B49"/><path fill="#fff" fill-rule="evenodd" d="M8 3.733c.533 0 .96.427.96.96v.032l-.203 3.702A.763.763 0 0 1 8 9.163a.756.756 0 0 1-.757-.736L7.04 4.725a.956.956 0 0 1 .928-.992H8Zm0 6.4c.587 0 1.067.48 1.067 1.067A1.07 1.07 0 0 1 8 12.267 1.07 1.07 0 0 1 6.933 11.2c0-.587.48-1.067 1.067-1.067Z" clip-rule="evenodd"/></g><defs><clipPath id="a"><path fill="#fff" d="M0 0h16v16H0z"/></clipPath></defs></svg>