<svg xmlns="http://www.w3.org/2000/svg" width="28" height="28" fill="none"><path stroke="#fff" stroke-miterlimit="5" d="M24.5 14c0 5.799-4.701 10.5-10.5 10.5-5.798 0-10.499-4.701-10.499-10.5s4.7-10.5 10.5-10.5C19.798 3.5 24.5 8.202 24.5 14z" opacity=".8"/><path fill="#fff" fill-rule="evenodd" d="M9.97 12.68a1.46 1.46 0 0 1 .758.771c.074.173.112.363.112.566a1.428 1.428 0 0 1-.419 1.025c-.13.132-.28.237-.451.312a1.369 1.369 0 0 1-.558.113c-.2 0-.386-.037-.559-.113a1.466 1.466 0 0 1-.758-.77 1.454 1.454 0 0 1-.113-.567 1.446 1.446 0 0 1 .419-1.025 1.379 1.379 0 0 1 1.01-.425c.202 0 .388.038.559.113zm4.013-.113c.202 0 .387.038.559.113a1.457 1.457 0 0 1 .451 2.362c-.13.132-.28.237-.451.312a1.369 1.369 0 0 1-.559.113c-.2 0-.385-.037-.558-.113a1.467 1.467 0 0 1-.758-.77 1.454 1.454 0 0 1-.113-.567 1.447 1.447 0 0 1 .418-1.025 1.384 1.384 0 0 1 1.011-.425zm5.13.113a1.37 1.37 0 0 0-.558-.113c-.2 0-.386.038-.559.113a1.468 1.468 0 0 0-.758.772 1.447 1.447 0 0 0-.113.565 1.454 1.454 0 0 0 .871 1.337c.173.076.359.113.559.113.2 0 .386-.037.558-.113a1.486 1.486 0 0 0 .758-.77 1.43 1.43 0 0 0 .111-.567 1.42 1.42 0 0 0-.111-.565 1.46 1.46 0 0 0-.758-.772z" clip-rule="evenodd"/><path fill="#fff" fill-rule="evenodd" d="M9.988 12.663a1.456 1.456 0 0 1 .451 2.362c-.13.132-.28.236-.451.312a1.369 1.369 0 0 1-.558.113c-.2 0-.386-.038-.559-.113a1.468 1.468 0 0 1-.758-.77A1.454 1.454 0 0 1 8 14a1.447 1.447 0 0 1 .419-1.025 1.379 1.379 0 0 1 1.01-.425c.202 0 .387.038.559.113zM14 12.55c.202 0 .387.038.558.113a1.456 1.456 0 0 1 .451 2.362c-.13.132-.28.236-.45.312a1.369 1.369 0 0 1-.559.113c-.2 0-.385-.038-.558-.113a1.468 1.468 0 0 1-.758-.77 1.452 1.452 0 0 1-.113-.567 1.445 1.445 0 0 1 .418-1.025A1.384 1.384 0 0 1 14 12.55zm5.13.113a1.37 1.37 0 0 0-.559-.113c-.2 0-.385.038-.558.113a1.466 1.466 0 0 0-.758.771 1.447 1.447 0 0 0-.113.566 1.454 1.454 0 0 0 .871 1.337c.173.075.358.113.558.113.202 0 .387-.038.559-.113a1.488 1.488 0 0 0 .758-.77c.074-.174.111-.363.111-.567 0-.203-.037-.393-.111-.566a1.46 1.46 0 0 0-.758-.77z" clip-rule="evenodd"/></svg>