<svg xmlns="http://www.w3.org/2000/svg" width="32" height="32"><g fill="#FFF" fill-rule="evenodd"><path d="M23.26 25c0-3.782-2.742-6.611-8.1-6.611h-.016C9.786 18.389 7 21.219 7 25h16.26ZM19 12c0-2.205-1.796-4-4-4-2.204 0-4 1.795-4 4 0 2.204 1.796 4 4 4 2.204 0 4-1.796 4-4ZM25.03 10.968c.353 0 .695.043 1.023.122l.311.79c.282.112.545.259.784.435l.865-.134a3.968 3.968 0 0 1 1.024 1.706l-.554.654a3.257 3.257 0 0 1 0 .87l.554.654a3.968 3.968 0 0 1-1.024 1.706l-.865-.135a3.508 3.508 0 0 1-.784.437l-.311.788a4.331 4.331 0 0 1-2.047 0l-.311-.788a3.508 3.508 0 0 1-.784-.437l-.865.135a3.97 3.97 0 0 1-1.025-1.706l.555-.654a3.255 3.255 0 0 1 0-.87l-.555-.654a3.97 3.97 0 0 1 1.025-1.706l.865.134c.239-.176.502-.323.784-.436l.31-.789c.328-.08.671-.122 1.024-.122Zm0 2.342a1.666 1.666 0 1 0 0 3.332 1.666 1.666 0 0 0 0-3.332Z"/></g></svg>