<svg xmlns="http://www.w3.org/2000/svg" width="160" height="20"><g fill="none" fill-rule="evenodd"><g transform="translate(80)"><circle cx="10" cy="10" r="10" fill="#FEE500"/><path fill="#191919" d="m8.586 14.657-4.243-4.243 1.179-1.178 3.03 3.03 5.892-5.893 1.213 1.213-7.071 7.07Z"/></g><g transform="translate(140)"><circle cx="10" cy="10" r="10" fill="#FADA0A"/><path fill="#191919" d="m8.586 14.657-4.243-4.243 1.179-1.178 3.03 3.03 5.892-5.893 1.213 1.213-7.071 7.07Z"/></g><g transform="translate(100)"><circle cx="10" cy="10" r="10" fill="#F1D208"/><path fill="#191919" d="m8.586 14.657-4.243-4.243 1.179-1.178 3.03 3.03 5.892-5.893 1.213 1.213-7.071 7.07Z"/></g><g fill="#000" transform="translate(20)"><circle cx="10" cy="10" r="10" fill-opacity=".07"/><path fill-opacity=".15" d="m8.586 14.657-4.243-4.243 1.179-1.178 3.03 3.03 5.892-5.893 1.213 1.213-7.071 7.07Z"/></g><g><circle cx="10" cy="10" r="10" fill="#FFF" fill-opacity=".7"/><path fill="#000" fill-opacity=".15" d="m8.586 14.657-4.243-4.243 1.179-1.178 3.03 3.03 5.892-5.893 1.213 1.213-7.071 7.07Z"/></g><g fill="#000" transform="translate(60)"><circle cx="10" cy="10" r="10" fill-opacity=".05"/><path fill-opacity=".15" d="m8.586 14.657-4.243-4.243 1.179-1.178 3.03 3.03 5.892-5.893 1.213 1.213-7.071 7.07Z"/></g></g></svg>