<svg xmlns="http://www.w3.org/2000/svg" width="160" height="20"><g fill="none" fill-rule="evenodd"><circle cx="10" cy="10" r="9.389" fill="#FFF" fill-opacity=".6" stroke="#000" stroke-opacity=".15"/><circle cx="10" cy="10" r="9.389" fill="#F2F2F2" stroke="#000" stroke-opacity=".4" transform="translate(20)"/><circle cx="10" cy="10" r="9.389" fill="#FFF" fill-opacity=".7" stroke="#000" stroke-opacity=".3" transform="translate(60)"/><g transform="translate(80)"><circle cx="10" cy="10" r="10" fill="#FEE500"/><path fill="#191919" d="m8.586 14.657-4.243-4.243 1.179-1.178 3.03 3.03 5.892-5.893 1.213 1.213-7.071 7.07Z"/></g><g transform="translate(140)"><circle cx="10" cy="10" r="10" fill="#FADA0A"/><path fill="#191919" d="m8.586 14.657-4.243-4.243 1.179-1.178 3.03 3.03 5.892-5.893 1.213 1.213-7.071 7.07Z"/></g><g transform="translate(100)"><circle cx="10" cy="10" r="10" fill="#F1D208"/><path fill="#191919" d="m8.586 14.657-4.243-4.243 1.179-1.178 3.03 3.03 5.892-5.893 1.213 1.213-7.071 7.07Z"/></g></g></svg>