<svg xmlns="http://www.w3.org/2000/svg" width="40" height="40"><g fill="none" fill-rule="evenodd"><path d="M-28-8h370v56H-28z"/><path fill="#FAFAFA" stroke="#000" stroke-opacity=".1" d="M20 .5C12.892.5 8.016 1.856 4.924 4.948 1.773 8.1.5 13.028.5 20c0 7.177 1.245 12.08 4.333 15.167C7.92 38.255 12.823 39.5 20 39.5s12.08-1.245 15.167-4.333C38.255 32.08 39.5 27.177 39.5 20S38.255 7.92 35.167 4.833C32.08 1.745 27.177.5 20 .5Z"/><path fill="#30363D" d="M20 13c.552 0 1 .45 1 1.007V19h4.993c.517 0 .942.383 1 .883L27 20c0 .552-.45 1-1.007 1H21v4.993c0 .517-.383.942-.883 1L20 27c-.552 0-1-.45-1-1.007V21L14.007 21c-.517 0-.942-.383-1-.883L13 20c0-.552.45-1 1.007-1L19 18.999v-4.992c0-.517.383-.942.883-1L20 13Z"/></g></svg>