<svg xmlns="http://www.w3.org/2000/svg" width="24" height="24" fill="none"><path fill="#000" fill-rule="evenodd" d="M9.228 9.135a.45.45 0 0 1 .45-.45h4.655a.45.45 0 0 1 .45.45v9.223a.45.45 0 0 1-.45.45H9.678a.45.45 0 0 1-.45-.45V9.135Zm.9.45v8.323h3.755V9.585h-3.755Z" clip-rule="evenodd"/><path fill="#000" fill-rule="evenodd" d="M4.55 12.742a.45.45 0 0 1 .45-.45h4.655a.45.45 0 0 1 .45.45v5.616a.45.45 0 0 1-.45.45H5a.45.45 0 0 1-.45-.45v-5.616Zm.9.45v4.716h3.755v-4.716H5.45ZM13.896 5.5a.45.45 0 0 1 .45-.45H19a.45.45 0 0 1 .45.45v12.858a.45.45 0 0 1-.45.45h-4.654a.45.45 0 0 1-.45-.45V5.5Zm.9.45v11.958h3.754V5.95h-3.754Z" clip-rule="evenodd"/></svg>