<svg xmlns="http://www.w3.org/2000/svg" width="20" height="20"><g fill="#000" fill-rule="nonzero"><path d="m14.594 8.105.247 2.768.118.071.097.069.094.076.137.128.123.143 2.074 2.697h-4.65c.005.068.007.135.007.2 0 1.587-1.256 2.801-2.84 2.801-1.586 0-2.841-1.214-2.841-2.801l.006-.2H6.093l1.386-.97.064.016h8.005l-.877-1.14-.086-.1a.873.873 0 0 0-.25-.179l-.095-.038-.296-.099-.251-2.812.9-.63Zm-2.716 5.953H8.123c-.006.068-.01.135-.01.199 0 1.053.822 1.847 1.888 1.847 1.065 0 1.887-.794 1.887-1.847 0-.064-.004-.131-.01-.2ZM10.001 3.427c1.154 0 2.245.432 3.082 1.197l.063.06-.802.562-.074-.064A3.602 3.602 0 0 0 10 4.381c-.913 0-1.776.34-2.438.947a3.598 3.598 0 0 0-1.132 2.12l-.027.226-.167 1.848-1.02.715.237-2.648a4.547 4.547 0 0 1 1.125-2.62l.165-.176.175-.169A4.558 4.558 0 0 1 10 3.427ZM2.471 13.705l13.726-9.61.608.867-13.726 9.611z"/></g></svg>