<svg xmlns="http://www.w3.org/2000/svg" width="20" height="20"><path fill="#000" fill-rule="nonzero" d="M10 3.43c1.152 0 2.241.432 3.076 1.196A4.548 4.548 0 0 1 14.51 7.33l.03.254.292 3.276.117.072c.066.043.13.091.191.144l.136.128.123.143 2.07 2.691h-4.64c.005.067.007.134.007.2 0 1.584-1.253 2.795-2.835 2.795s-2.835-1.211-2.835-2.795l.007-.2h-4.64l2.07-2.692c.175-.228.403-.412.689-.547l-.124.064.294-3.28a4.54 4.54 0 0 1 1.288-2.79l.175-.168A4.548 4.548 0 0 1 10 3.43Zm1.873 10.61H8.127c-.007.068-.01.134-.01.199 0 1.05.82 1.843 1.883 1.843 1.063 0 1.883-.793 1.883-1.843 0-.065-.003-.131-.01-.2ZM10 4.383c-.912 0-1.773.34-2.434.945A3.591 3.591 0 0 0 6.41 7.669l-.345 3.845-.392.158a.867.867 0 0 0-.316.255l-.893 1.16h11.072l-.875-1.137-.086-.1a.865.865 0 0 0-.344-.217l-.296-.098-.343-3.852-.027-.227a3.588 3.588 0 0 0-1.13-2.128A3.596 3.596 0 0 0 10 4.383Z"/></svg>