<svg xmlns="http://www.w3.org/2000/svg" width="20" height="20"><g fill="none" fill-rule="evenodd"><path d="M0 0h20v20H0z"/><g stroke="#000" stroke-linejoin="round"><path d="M12.34 10a2.342 2.342 0 1 1-4.683 0 2.342 2.342 0 0 1 4.683 0Z"/><path d="M15.483 10c0-.232-.017-.46-.047-.685l.873-1.03a6.247 6.247 0 0 0-1.613-2.686l-1.362.212a5.53 5.53 0 0 0-1.234-.687l-.49-1.242a6.804 6.804 0 0 0-3.223 0l-.49 1.242c-.444.178-.858.41-1.234.687L5.301 5.6a6.251 6.251 0 0 0-1.613 2.686l.873 1.03c-.03.224-.047.453-.047.685 0 .232.017.46.047.685l-.873 1.03A6.251 6.251 0 0 0 5.3 14.401l1.362-.212c.376.277.79.51 1.234.687l.49 1.242a6.818 6.818 0 0 0 3.223 0l.49-1.242c.444-.178.858-.41 1.234-.687l1.362.212a6.247 6.247 0 0 0 1.613-2.686l-.873-1.03c.03-.225.047-.453.047-.685Z"/></g></g></svg>