<svg xmlns="http://www.w3.org/2000/svg" width="30" height="30" fill="none"><clipPath id="a"><rect width="30" height="30" rx="3"/></clipPath><g clip-path="url(#a)"><path fill="#b3b3b3" fill-rule="evenodd" d="M22.18 16.988c.105 0 .45-.028.49-.385.025-.2-.094-.355-.238-.543l-1.397-1.829 1.18-1.19.12-.135c.161-.177.242-.266.242-.4.006-.29-.232-.446-.47-.453a.547.547 0 0 0-.39.18l-1.726 1.8V12.46c0-.289-.197-.483-.49-.483a.471.471 0 0 0-.491.483v4.059c0 .28.197.468.49.468.28 0 .49-.201.49-.468V15.2l.353-.36 1.288 1.756c.19.256.291.37.472.388a.756.756 0 0 0 .077.004zm-4.062-.055c.297 0 .463-.22.469-.428a.44.44 0 0 0-.116-.328.47.47 0 0 0-.353-.136h-1.36v-3.55c0-.317-.187-.513-.49-.513-.302 0-.49.196-.49.512v3.9c0 .34.192.543.513.543zm-3.776-.285c.076.229.232.34.478.34.25 0 .447-.186.447-.424a.819.819 0 0 0-.055-.252l-1.38-3.764c-.128-.362-.394-.57-.73-.57-.382 0-.627.295-.73.572l-1.422 3.77a.572.572 0 0 0-.045.215c0 .254.212.453.482.453.245 0 .395-.11.472-.348l.22-.663h2.048zm-4.757.34c.303 0 .49-.197.49-.513v-3.56h1.032c.324 0 .439-.24.439-.446 0-.217-.154-.447-.44-.447H8.065c-.285 0-.438.23-.438.447 0 .206.115.445.438.445h1.031v3.561c0 .316.188.513.49.513zM5 14.33c0-4.472 4.59-8.097 10.25-8.097S25.5 9.858 25.5 14.33c0 4.473-4.59 8.098-10.25 8.098-.63 0-1.245-.045-1.843-.13l-4.155 2.804a.293.293 0 0 1-.39-.023.293.293 0 0 1-.07-.302l.965-3.61C6.897 19.732 5 17.207 5 14.33zm7.354.777.738-2.232a.01.01 0 0 1 .02 0l.74 2.232z" clip-rule="evenodd"/></g></svg>