<svg xmlns="http://www.w3.org/2000/svg" width="30" height="30" fill="none"><g clip-path="url(#a)"><path stroke="#B3B3B3" stroke-linejoin="round" d="M6.5 7.5h17v15h-17v-15Z"/><g fill="#B3B3B3" fill-rule="evenodd" clip-path="url(#b)" clip-rule="evenodd"><path d="M15.767 12h-4.94a.818.818 0 0 0-.827.822v4.367c0 .448.365.822.827.822h4.94c.15 0 .28-.118.28-.278v-5.455c-.011-.16-.13-.278-.28-.278ZM19.782 12.021a.39.39 0 0 0-.36.075l-2.3 2.189s-.078.117-.078.181v.822c0 .064.026.118.064.171l2.302 2.456a.363.363 0 0 0 .257.106c.038 0 .077 0 .103-.01.128-.043.218-.14.218-.256v-5.477c0-.118-.09-.214-.218-.257h.012Z"/></g></g><defs><clipPath id="a"><rect width="30" height="30" fill="#fff" rx="3"/></clipPath><clipPath id="b"><path fill="#fff" d="M10 12h10v6H10z"/></clipPath></defs></svg>