<svg xmlns="http://www.w3.org/2000/svg" width="30" height="30" fill="none"><g stroke="#B3B3B3" stroke-linecap="round" clip-path="url(#a)"><path stroke-linejoin="round" d="M14.984 6.942a6.105 6.105 0 0 0-6.102 6.107v2.861a10.756 10.756 0 0 1-.629 3.654M14.984 6.942c1.61 0 3.075.624 4.166 1.643m-8.998 11.831h11.96c-.429-.755-.684-1.699-.83-2.459a10.333 10.333 0 0 1-.19-2.047v-2.86a6.077 6.077 0 0 0-.688-2.816M17.53 20.422v.26a2.546 2.546 0 0 1-5.092 0v-.26"/><path d="M5.418 22.529 21.862 6.085"/></g><defs><clipPath id="a"><rect width="30" height="30" fill="#fff" rx="3"/></clipPath></defs></svg>