<svg xmlns="http://www.w3.org/2000/svg" width="102" height="102" fill="none"><g clip-path="url(#a)"><path fill="#F5A652" d="M98 49.928c0 23.234-17.364 42.066-44.006 42.066-26.643 0-47.755-18.832-47.755-42.066S26.91 7.35 53.552 7.35C80.194 7.35 98 26.7 98 49.928Z" opacity=".3"/><path fill="#FFE05E" d="M92.311 50.326c0 20.396-15.153 37.159-38.547 37.159-25.108 0-40.973-16.533-40.973-36.934 0-20.4 16.877-37.552 40.624-37.441 23.482.11 38.896 16.82 38.896 37.216Z" opacity=".5"/><path fill="#FFE05E" d="M88.695 50.026c0 18.115-12.51 32.8-34.56 32.8-20.776 0-37.432-12.475-37.013-32.805.376-18.11 16.06-32.486 36.912-32.486 15.777 0 34.66 14.375 34.66 32.49Z"/><path fill="#fff" d="M36.578 91.269s-.664-16.18-3.4-23.623c0 0 8.342 4.637 19.698 4.915 11.356.279 19.477-1.68 19.477-1.68s6.759-1.67 4.252 20.397c0 0-8.05 3.103-20.277 3.103-9.305 0-16.502-1.472-19.75-3.112Z"/><path stroke="#0E141B" stroke-linecap="round" stroke-linejoin="round" stroke-width="1.547" d="M36.578 91.269s-1.618-16.18-4.355-23.623c0 0 9.297 4.637 20.653 4.915 11.356.279 20.188-1.68 20.188-1.68 1.928 0 4.752-.716 3.541 20.397"/><path stroke="#0E141B" stroke-linecap="round" stroke-linejoin="round" stroke-width="1.547" d="M68.498 79.948s.504 7.037.358 13.12"/><path fill="#fff" d="M35.83 82.932c-4.95-1.14-15.516-2.233-21.448-1.667-1.675.16-4.832.416-6.436-.318-2.272-1.039-2.414-4.66-.261-5.512-2.445-.283-2.118-3.864-.044-4.09 0 0-1.808-1.043-.659-3.027.91-1.574 3.505-1.278 5.088-.907-.027-2.311-.34-4.517 1.582-6.047 2.21-1.76 4.302.61 4.001 3.095-.3 2.48-.11 4.791 2.206 4.928 2.316.137 18.38 1.813 18.38 1.813l3.258.623"/><path stroke="#0E141B" stroke-linecap="round" stroke-linejoin="round" stroke-width="1.547" d="M35.83 82.932c-4.95-1.14-15.516-2.233-21.448-1.667-1.675.16-4.832.416-6.436-.318-2.272-1.039-2.414-4.66-.261-5.512-2.445-.283-2.118-3.864-.044-4.09 0 0-1.808-1.043-.659-3.027.91-1.574 3.505-1.278 5.088-.907-.027-2.311-.34-4.517 1.582-6.047 2.21-1.76 4.302.61 4.001 3.095-.3 2.48-.11 4.791 2.206 4.928 2.316.137 18.38 1.813 18.38 1.813l3.258.623"/><path fill="#F9D2D4" stroke="#0E141B" stroke-linecap="round" stroke-linejoin="round" stroke-width="1.547" d="M50.281 17.995s.716-1.048 2.277-.482c4.195 1.525 14.097 4.893 22.456 12.828 8.266 7.842 10.525 15.605 10.026 24.22-.84 14.477-13.05 20.41-32.266 20.418-22.96.01-32.703-9.12-32.69-22.646.014-10.852 6.269-18.08 13.735-23.013 7.108-4.695 12.674-6.335 16.462-11.325Z"/><path fill="#D38A88" d="M56.13 38.188s-3.299 4.526-2.344 9.406c.787 4.014 3.497 7.79 14.354 6.591 4.659-.513 8.164-3.479 8.248-8.32.093-5.277-2.046-6.895-2.046-6.895s-14.96-2.705-18.217-.782h.004ZM26.251 38.395s-3.298 4.527-2.343 9.407c.787 4.014 1.525 6.547 12.444 6.591 4.19.018 8.965-3.479 8.965-8.32 0-6.082-2.047-8.089-2.047-8.089s-13.765-1.512-17.023.411h.004Z"/><path stroke="#0E141B" stroke-linecap="round" stroke-linejoin="round" stroke-width="1.547" d="M7.685 75.435s3.196-1.26 5.579.433c1.277.906 1.361 3.576-2.26 2.94"/><path stroke="#0E141B" stroke-linecap="round" stroke-linejoin="round" stroke-width="1.547" d="M7.645 71.35s4.222-.751 6.122.964c.664.597.99 2.63-.968 3.231"/><path stroke="#0E141B" stroke-linecap="round" stroke-linejoin="round" stroke-width="1.547" d="M12.075 67.416s1.706.592 1.728 2.409c.013 1.198-.685 1.865-1.264 1.777M14.01 71.956s.562 2.47 2.967 3.364"/><path fill="#fff" stroke="#0E141B" stroke-linecap="round" stroke-linejoin="round" stroke-width="1.547" d="M39.87 63.61c0 2.351 2.618 2.696 7.038 2.984 4.65.296 6.322-.743 6.799 1.06.477 1.804 3.302 2.043 3.815-.729.588-3.147-.641-5.402-4.412-6.175-4.849-.995-13.24-1.075-13.24 2.864v-.004ZM58.954 37.962s-3.042 1.313-3.307 5.725c-.19 3.227.72 6.202 2.489 7.395 0 0 7.2-.438 13.933.239 0 0 2.454-2.834 2.507-6.44.053-3.577-1.667-6.185-3.103-6.441-2.905-.518-8.965-.774-12.524-.478h.005ZM28.307 37.962S25.266 39.514 25 43.925c-.19 3.227.72 5.964 2.49 7.157 0 0 9.154-.358 13.22.239 0 0 2.454-2.834 2.507-6.44.053-3.577-1.649-7.034-3.103-7.158-3.616-.31-8.576-.278-11.807.24Z"/><path fill="#0E141B" d="M62.27 44.208a1.42 1.42 0 0 1 1.418-1.419 1.42 1.42 0 0 1 1.42 1.42 1.42 1.42 0 0 1-1.42 1.418 1.42 1.42 0 0 1-1.419-1.419ZM32.683 44.129a1.42 1.42 0 0 1 1.419-1.42 1.42 1.42 0 0 1 1.419 1.42 1.42 1.42 0 0 1-1.419 1.419 1.42 1.42 0 0 1-1.419-1.42Z"/><path fill="#fff" d="M55.378 51.449c.04-.031.99-.243 2.763-.367l-2.763.367Z"/><path stroke="#0E141B" stroke-linecap="round" stroke-linejoin="round" stroke-width="1.547" d="M55.378 51.449c.04-.031.99-.243 2.763-.367"/><path fill="#fff" d="M73.864 51.577s-.606-.146-1.79-.252l1.79.252Z"/><path stroke="#0E141B" stroke-linecap="round" stroke-linejoin="round" stroke-width="1.547" d="M73.864 51.577s-.606-.146-1.79-.252"/><path fill="#fff" d="M56.465 38.188s1.012-.15 2.489-.226l-2.489.226Z"/><path stroke="#0E141B" stroke-linecap="round" stroke-linejoin="round" stroke-width="1.547" d="M56.465 38.188s1.012-.15 2.489-.226"/><path fill="#fff" d="M73.993 38.966s-1.198-.319-2.4-.5l2.4.5Z"/><path stroke="#0E141B" stroke-linecap="round" stroke-linejoin="round" stroke-width="1.547" d="M73.993 38.966s-1.198-.319-2.4-.5"/><path fill="#fff" d="M42.744 38.073s-1.154-.248-2.475-.323l2.475.323Z"/><path stroke="#0E141B" stroke-linecap="round" stroke-linejoin="round" stroke-width="1.547" d="M42.744 38.073s-1.154-.248-2.475-.323"/><path fill="#fff" d="M25.597 51.268s.853-.182 1.896-.182l-1.896.182Z"/><path stroke="#0E141B" stroke-linecap="round" stroke-linejoin="round" stroke-width="1.547" d="M25.597 51.268s.853-.182 1.896-.182"/><path fill="#fff" d="M42.492 51.64s-.765-.182-1.782-.32l1.782.32Z"/><path stroke="#0E141B" stroke-linecap="round" stroke-linejoin="round" stroke-width="1.547" d="M42.492 51.64s-.765-.182-1.782-.32"/><path fill="#fff" d="M56.757 53.054s4.195.477 10.428.716l-10.428-.716Z"/><path stroke="#0E141B" stroke-linecap="round" stroke-linejoin="round" stroke-width="1.547" d="M56.757 53.054s4.195.477 10.428.716"/><path fill="#fff" d="M41.024 53.054s-7.713.455-11.21.477l11.21-.477Z"/><path stroke="#0E141B" stroke-linecap="round" stroke-linejoin="round" stroke-width="1.547" d="M41.024 53.054s-7.713.455-11.21.477"/><path fill="#A1D8E6" stroke="#0E141B" stroke-linecap="round" stroke-linejoin="round" stroke-width="1.547" d="M8.14 61.227s.416-4.12 4.832-4.955c0 0-1.57-3.696-2.082-4.823 0 0 .053 2.736-1.61 2.975-1.617.234-3.765-1.91-3.765-1.91s1.79 3.112.716 4.42c-1.075 1.31-2.865 1.07-3.462.832 0 0 3.104 1.799 5.367 3.461h.004Z"/></g><defs><clipPath id="a"><path fill="#fff" d="M2 7.35h96v87.031H2z"/></clipPath></defs></svg>