<svg xmlns="http://www.w3.org/2000/svg" width="102" height="102" fill="none"><g clip-path="url(#a)"><path fill="#B48732" d="M77.114 41.019c.02-6.1-2.328-15-5.782-18.842 0 0 2.347-5.374-.267-8.609-1.818-2.25-9.567-4.757-12.597-1.558-1.186 1.252-2.088 2.928-2.677 4.66l-.024-.032c-1.747-.165-3.78-.212-5.22-.212-2.042 0-5.304.361-7.043.667 0 0-1.562-5.813-5.107-6.316-2.469-.353-10.28 1.63-11.05 5.763-.703 3.784.322 7.964 2.077 9.974-.346.62-.64 1.268-.934 1.92-9.052 20.106 5.314 38.092 5.314 38.092s.036 1.492.103 3.788c-3.235 2.767.113 3.745.2 5.99.22 5.85.565 12.797 1.04 16.248 0 0 7.187 1.307 16.746 1.44 9.554.13 17.923-1.44 17.923-1.44-.263-6.152.29-26.548.29-26.548s6.957-7.678 7.012-24.99l-.004.005Z"/><path stroke="#0E141B" stroke-linecap="round" stroke-linejoin="round" stroke-width="1.4" d="M34.213 78.946c.22 5.178.53 10.665.934 13.61M69.832 78.561c-.09 5.437-.141 11.196-.02 13.994M68.988 17.635c-.546 2.893-.875 7.2-3.054 8.809-1.555 1.146-7.411-.004-9.841-1.975-2.128-1.723-1.025-8.655 2.379-12.259 3.026-3.203 10.775-.69 12.596 1.558 2.619 3.239.267 8.413.267 8.413 3.45 3.843 5.798 12.738 5.783 18.842-.048 16.094-7.011 24.989-7.011 24.989s-.043 1.535-.098 3.89"/><path fill="#C11A20" stroke="#0E141B" stroke-linecap="round" stroke-linejoin="round" stroke-width="1.4" d="M33.805 66.526s19.034 3.545 36.298-.522c0 0 .69 2.422 0 3.894 0 0-6.489 3.29-19.815 3.29-12.114 0-16.526-2.768-16.526-2.768s-.907-2.422.043-3.89v-.004Z"/><path stroke="#0E141B" stroke-linecap="round" stroke-linejoin="round" stroke-width="1.4" d="M29.427 26.506c-.345.625-.675 1.26-.934 1.928-8.597 21.923 5.315 38.092 5.315 38.092s.035 1.492.102 3.788M53.4 54.451s-3.749-.094-7.502.016"/><path fill="#0E141B" stroke="#0E141B" stroke-linecap="round" stroke-linejoin="round" stroke-width="1.4" d="M52.474 46.028c.063-1.064-1.307-1.924-3.281-1.924-1.975 0-3.113.816-3.137 1.924-.023 1.232 1.496 1.923 3.137 1.923 1.974 0 3.203-.581 3.281-1.923Z"/><path stroke="#0E141B" stroke-linecap="round" stroke-linejoin="round" stroke-width="1.4" d="M39.265 15.959c-.287 2.594 1.92 5.527.77 7.976-.825 1.75-5.861 4.228-8.939 3.65-2.693-.506-4.655-5.978-3.748-10.85.769-4.133 8.58-6.115 11.053-5.765 3.545.502 5.107 6.12 5.107 6.12 1.74-.31 5.001-.668 7.043-.668 1.436 0 3.474.047 5.22.212"/><path fill="#fff" stroke="#0E141B" stroke-linecap="round" stroke-linejoin="round" stroke-width="1.4" d="M30.055 38.58c0-.718 1.912-1.11 6.917-1.11 4.318 0 7.749.047 7.749 1.11 0 .853-3.364 1.547-7.749 1.571-4.236.024-6.917-.671-6.917-1.57Z"/><path fill="#0E141B" d="M38.02 39.139c.566 0 1.107-.495 1.08-1.08-.028-.585-.475-1.08-1.08-1.08-.565 0-1.107.495-1.08 1.08.028.585.476 1.08 1.08 1.08Z"/><path fill="#fff" stroke="#0E141B" stroke-linecap="round" stroke-linejoin="round" stroke-width="1.4" d="M54.177 38.68c0-.72 2.85-1.237 7.423-1.21 4.377.024 7.851.047 7.851 1.11 0 .853-3.407 1.547-7.85 1.571-4.291.024-7.424-.573-7.424-1.472Z"/><path fill="#0E141B" d="M62.06 39.139c.565 0 1.107-.495 1.08-1.08-.028-.585-.476-1.08-1.08-1.08-.566 0-1.107.495-1.08 1.08.028.585.475 1.08 1.08 1.08Z"/><path fill="#B48732" d="M63.85 80.273c-7.435-2.583-18.19-8.137-22.587-11.54-2.308-1.787-3.07-2.242-4.334-2.003-1.444.275-1.692 1.837-1.692 1.837-1.35.578-.824 2.018-.824 2.018-.263.126-.585.389-.706.624-.79 1.563 1.578 6.399 16.56 13.578 12.205 5.85 17.618 2.885 19.475.11 2.803-4.184 2.116-12.875.267-14.999"/><path fill="#B48732" d="M34.413 70.58c.62-.293 1.476-.16 2.347.711l-2.347-.71Z"/><path stroke="#0E141B" stroke-linecap="round" stroke-linejoin="round" stroke-width="1.4" d="M34.413 70.58c.62-.293 1.476-.16 2.347.711"/><path fill="#B48732" d="M35.237 68.567c1.35-.577 2.89.809 2.89.809l-2.89-.809Z"/><path stroke="#0E141B" stroke-linecap="round" stroke-linejoin="round" stroke-width="1.4" d="M35.237 68.567c1.35-.577 2.89.809 2.89.809"/><path stroke="#0E141B" stroke-linecap="round" stroke-linejoin="round" stroke-width="1.4" d="M63.088 79.99c-7.435-2.583-17.425-7.855-21.826-11.262-2.308-1.786-3.07-2.241-4.333-2.002-1.445.275-1.692 1.837-1.692 1.837-1.35.577-.825 2.018-.825 2.018-.262.126-.584.389-.706.624-.79 1.562 2.288 5.543 16.871 13.496 7.918 4.318 15.086 4.777 18.481 1.048 5.06-5.555.946-15.851.946-15.851"/><path fill="#B48732" d="M37.533 78.389c6.807-2.705 15.14-7.514 19.38-9.74 2.328-1.22 4.13-1.946 5.311-1.44 1.35.581 1.257 2.159 1.257 2.159 1.197.856.372 2.147.372 2.147.232.18.487.507.554.762.436 1.695-.114 3.262-14.92 10.799-12.417 6.32-15.734 4.243-16.801 2.853-3.368-4.384-.295-10.963.223-12.746"/><path stroke="#0E141B" stroke-linecap="round" stroke-linejoin="round" stroke-width="1.4" d="M63.85 71.52c-.542-.42-1.406-.476-2.446.188M63.477 69.372c-1.197-.856-2.995.165-2.995.165"/><path stroke="#0E141B" stroke-linecap="round" stroke-linejoin="round" stroke-width="1.4" d="M36.756 78.703c6.807-2.705 15.914-7.828 20.154-10.053 2.327-1.221 4.129-1.947 5.31-1.441 1.35.581 1.257 2.159 1.257 2.159 1.197.856.373 2.147.373 2.147.231.18.486.507.553.762.436 1.695-.926 3.85-14.92 10.602-10.709 5.166-13.445 5.633-16.538 3.278-4.114-3.132.958-15.843.958-15.843"/></g><defs><clipPath id="a"><path fill="#fff" d="M25 10h52.801v84H25z"/></clipPath></defs></svg>