<svg xmlns="http://www.w3.org/2000/svg" width="102" height="102" fill="none"><g clip-path="url(#a)"><path fill="#FFD900" stroke="#0E141B" stroke-linecap="round" stroke-linejoin="round" stroke-width="1.275" d="M40.932 88.472s.102 4.148-1.182 5.67c-.824.977-2.337.71-2.839-.362-.505-1.07-.204-4.942-.204-4.942l4.225-.366ZM28.887 88.617s-.102 4.148 1.182 5.67c.824.977 2.337.709 2.843-.362.506-1.071.204-4.943.204-4.943l-4.224-.365h-.005Z"/><path fill="#fff" stroke="#0E141B" stroke-linecap="round" stroke-linejoin="round" stroke-width="1.275" d="M42.313 88c1.573-1.895.268-6.591 1.62-9.596 1.155-2.576 2.107-5.614 2.269-10.464.255-7.675-2.04-10.574-9.12-10.884-8.369-.365-14.323 4.305-14.655 11.68-.19 4.215 2.818 7.088 3.048 11.976.144 3.064-.06 5.5 1.36 7.403.977 1.313 3.17 2.529 7.658 2.46 3.702-.054 6.396-.858 7.824-2.575h-.004Z"/><path fill="#C11A20" stroke="#0E141B" stroke-linecap="round" stroke-linejoin="round" stroke-width="1.275" d="M45.688 75.42c1.491-1.93 2.545-4.343 2.545-8.98 0-4.773-2.065-8.55-5.389-10.731.217-.782.489-1.679.6-2.338.076-.459.255-1.04.34-1.33.22-.756.407-2.044.463-2.822.132-1.844-.655-2.754-1.951-3.085-1.156-.298-2.397-.179-3.06 1.802-.238.71-.625 1.904-.722 2.528-.124.761-.498 2.062-.757 3.256a18.933 18.933 0 0 0-3.948-.306c-1.441.034-2.814.225-4.097.565-.264-1.232-.6-2.065-.748-3.124-.055-.386-.302-1.317-.506-1.793-.093-.221-.115-.357-.212-.655-.66-1.993-2.1-2.397-3.269-2.082-1.305.357-1.95 1.577-1.81 3.438.06.803.191 1.998.514 2.95.17.501.34 1.05.412 1.636.081.684.37 1.368.582 2.1-3.54 2.418-5.47 6.396-5.061 11.789.289 3.812 1.479 6.813 4.271 9.4 0 0-1.466 2.028-1.424 4.82 0 0 4.71 1.552 6.575 1.547 2.066-.004 3.727-.705 4.301-1.351.289-.327.42-.68.816-1.024.684-.6.91-1.42.91-1.658 0 0 1.058 1.13 1.67 1.64.459.387 1.109.647 1.632 1.033.722.532 1.738.685 2.762.727.871.038 3.026.544 5.406-1.64 0 0-.06-1.492-.574-2.776-.437-1.092-1.287-2.103-1.287-2.103s.31-.519 1.016-1.437v.004Z"/><path fill="#FFD900" stroke="#0E141B" stroke-linecap="round" stroke-linejoin="round" stroke-width="1.275" d="M46.185 66.364c-.25-6.856-4.463-10.596-12.546-10.617-6.37-.017-12.19 3.774-11.883 12.091.302 8.28 6.566 10.868 12.933 10.536 8.143-.43 11.76-4.777 11.496-12.01Z"/><path fill="#009A3E" fill-rule="evenodd" d="M31.994 82.658c.03.578.06 3.048.085 3.269.08.765 0 2.09 1.164 2.129 1.165.038.965-1.887.965-1.887l1.688.021s.059.842.284 1.356c.106.246.31.501.922.514.944.017.804-1.487.804-2.21 0-.722-.009-3.353-.009-3.353" clip-rule="evenodd"/><path stroke="#0E141B" stroke-linecap="round" stroke-linejoin="round" stroke-width="1.063" d="M31.994 82.658c.03.578.06 3.048.085 3.269.08.765 0 2.09 1.164 2.129 1.165.038.965-1.887.965-1.887l1.688.021s.059.842.284 1.356c.106.246.31.501.922.514.944.017.804-1.487.804-2.21 0-.722-.009-3.353-.009-3.353"/><path fill="#009A3E" d="M32.691 80.84c-1.07-.06-2.886-.056-2.86-1.267.004-.29.217-.502.217-.502s-.353-.378-.264-.824c.123-.62.523-1.003 2.295-1.097 0 0 .26-2.193 3.039-2.414 2.588-.204 3.642 2.21 3.323 4.552l-.212 1.636"/><path stroke="#0E141B" stroke-linecap="round" stroke-linejoin="round" stroke-width="1.063" d="M32.691 80.84c-1.07-.06-2.886-.056-2.86-1.267.004-.29.217-.502.217-.502s-.353-.378-.264-.824c.123-.62.523-1.003 2.295-1.097 0 0 .26-2.193 3.039-2.414 2.588-.204 3.642 2.21 3.323 4.552l-.212 1.636"/><path fill="#149746" d="M32.789 80.844c-.03 0-.064 0-.098-.005l.098.005Z"/><path stroke="#0E141B" stroke-linecap="round" stroke-linejoin="round" stroke-width="1.063" d="M32.789 80.844c-.03 0-.064 0-.098-.005"/><path fill="#fff" d="M31.658 79.228s0-1.194.578-1.194c.727 0 .578 1.27.578 1.27"/><path stroke="#0E141B" stroke-linecap="round" stroke-linejoin="round" stroke-width=".744" d="M31.658 79.228s0-1.194.578-1.194c.727 0 .578 1.27.578 1.27"/><path fill="#FFD900" stroke="#0E141B" stroke-linecap="round" stroke-linejoin="round" stroke-width=".85" d="M33.528 77.235s.396-1.3 1.807-1.266c1.355.03 1.75 1.343 1.75 1.343s-.475.952-1.759.93c-1.292-.025-1.798-1.007-1.798-1.007Z"/><path stroke="#0E141B" stroke-linecap="round" stroke-linejoin="round" stroke-width=".85" d="m35.33 75.969-.004 2.274M33.116 79.271l-3.064-.2"/><path fill="#FFD900" d="M26.856 81.158c.884.425 1.934.204 2.856-.132.922-.336 1.832-.782 2.814-.79.981-.009 2.06.599 2.167 1.572.106.978-.778 1.78-1.666 2.197-1.114.519-2.346.719-3.57.855-1.088.119-2.21.195-3.256-.132-.73-.23-1.419-.689-1.844-1.313a3.664 3.664 0 0 1-.166-.277c-.607-1.292-.05-2.783 1.454-2.915.102-.004.2-.009.302 0 .595.03 1.16.255 1.525.727"/><path stroke="#0E141B" stroke-linecap="round" stroke-linejoin="round" stroke-width="1.275" d="M26.856 81.158c.884.425 1.934.204 2.856-.132.922-.336 1.832-.782 2.814-.79.981-.009 2.06.599 2.167 1.572.106.978-.778 1.78-1.666 2.197-1.114.519-2.346.719-3.57.855-1.088.119-2.21.195-3.256-.132-.73-.23-1.419-.689-1.844-1.313a3.664 3.664 0 0 1-.166-.277c-.607-1.292-.05-2.783 1.454-2.915.102-.004.2-.009.302 0 .595.03 1.16.255 1.525.727"/><path fill="#FFD900" d="M42.147 81.226c-.87.416-1.912.2-2.822-.132-.91-.331-1.81-.773-2.78-.782-.968-.008-2.035.591-2.141 1.552-.106.964.77 1.759 1.649 2.171 1.1.514 2.32.71 3.527.846 1.076.119 2.185.191 3.218-.132.722-.225 1.402-.68 1.823-1.3.06-.09.115-.179.161-.276.604-1.28.051-2.75-1.436-2.882a2.325 2.325 0 0 0-.298 0c-.59.03-1.147.255-1.508.718"/><path stroke="#0E141B" stroke-linecap="round" stroke-linejoin="round" stroke-width="1.275" d="M42.147 81.226c-.87.416-1.912.2-2.822-.132-.91-.331-1.81-.773-2.78-.782-.968-.008-2.035.591-2.141 1.552-.106.964.77 1.759 1.649 2.171 1.1.514 2.32.71 3.527.846 1.076.119 2.185.191 3.218-.132.722-.225 1.402-.68 1.823-1.3.06-.09.115-.179.161-.276.604-1.28.051-2.75-1.436-2.882a2.325 2.325 0 0 0-.298 0c-.59.03-1.147.255-1.508.718"/><path fill="#009A3E" stroke="#0E141B" stroke-linecap="round" stroke-linejoin="round" stroke-width="1.063" d="M39.262 80.703c0 .659-.591 1.19-1.322 1.19-.731 0-1.322-.531-1.322-1.19 0-.659.59-1.19 1.322-1.19.73 0 1.322.531 1.322 1.19ZM32.912 82.025c.73 0 1.322-.533 1.322-1.19 0-.657-.592-1.19-1.322-1.19-.73 0-1.322.533-1.322 1.19 0 .657.592 1.19 1.322 1.19Z"/><path fill="#0E141B" fill-rule="evenodd" d="M36.066 68.612c0-.493-.243-1.352-2.023-1.352-1.19 0-1.972.425-1.972 1.51 0 .365.238 1.198 1.912 1.198 1.845 0 2.087-.642 2.087-1.352l-.004-.004Z" clip-rule="evenodd"/><path fill="#fff" fill-rule="evenodd" stroke="#0E141B" stroke-linecap="round" stroke-linejoin="round" stroke-width="1.063" d="M36.1 64.17s-.455-1.857 1.151-2.71c1.424-.762 2.015-.26 2.912-.141 1.007.136 1.547-.51 2.66.374 1.08.858.472 1.64 1.063 2.89.463.982.19 2.359-1.297 2.95-.603.237.264 2.592-.884 2.77-1.164.179-1.236-1.092-1.224-2.15.013-.935-1.326 0-2.61-.442-1.457-.506-2.651-1.913-1.767-3.536l-.004-.004ZM24.433 63.457c.255-.442.476-2.027 2.334-2.295 1.631-.234 1.75.42 2.41.404.662-.017 1.92-.166 2.779 1.266.586.982.021 1.713-.055 2.49-.077.778-.32 2.257-1.904 2.772-1.802.586-2.657-.442-3.86-.34-1.971.165-2.928-2.19-1.704-4.297Z" clip-rule="evenodd"/><path fill="#0E141B" fill-rule="evenodd" d="M25.989 63.797c.603-.561 1.517-1.284 2.962-.91 1.445.374 1.726 1.114 1.394 1.968-.161.416-.149.871-.425 1.198-.671.795-1.925 1.097-3.345.226-1.173-.723-.998-2.1-.59-2.482h.004ZM37.532 64.387s-.676 1.114.582 1.645c1.258.531 2.176.774 2.928.34.748-.433 1.173-.91 1.173-1.755 0-.42-.102-1.122-.514-1.364-.646-.383-.693-.094-1.156-.26-.977-.352-2.24-.875-3.013 1.399v-.005Z" clip-rule="evenodd"/><path fill="#fff" fill-rule="evenodd" d="M40.005 64.251c0-.446-.403-.811-.9-.811-.498 0-.842.378-.902.811-.089.65.404.812.901.812.498 0 .901-.361.901-.812ZM41.365 65.076c0-.378-.123-.646-.505-.646-.383 0-.583.149-.697.51-.14.455.046.612.42.671.48.073.782-.153.782-.535ZM29.652 65.157a.663.663 0 0 0-1.326 0 .663.663 0 0 0 1.326 0Z" clip-rule="evenodd"/><path fill="#F6AC1A" d="M73.508 65.034s3.128-1.012 4.097-.506c1.347.701 2.64 3.107 3.494 7.17 1.126 5.355.025 10.438-2.074 11.424-1.87.875-4.242.02-4.242.02"/><path fill="#fff" fill-rule="evenodd" d="M28.19 64.375c0-.434-.39-.782-.87-.782-.481 0-.872.348-.872.782 0 .637.39.782.871.782.48 0 .871-.349.871-.782Z" clip-rule="evenodd"/><path stroke="#0E141B" stroke-linecap="round" stroke-linejoin="round" stroke-width="1.063" d="M29.61 72.42s.803-.519 1.666-.519c1.139 0 1.224.816 2.367.187 1.3-.714 1.874.2 2.767.2 1.058 0 1.424-.782 2.728-.072"/><path fill="#BAE3F9" fill-rule="evenodd" d="M76.237 63.754s.412 5.109 1.683 6.575c.816.94 1.687.718 1.462 2.525-.162 1.283-.175 2.252-.026 3.293.213 1.505 1.029 2.622 2.044 2.112.617-.305.982-2.668.328-5.078-.349-1.271-.591-3.409-1.462-5.351-.782-1.747-2.185-3.362-2.635-3.591-.952-.48-1.394-.489-1.394-.489v.004Z" clip-rule="evenodd"/><path stroke="#0E141B" stroke-linecap="round" stroke-linejoin="round" stroke-width="1.275" d="M73.508 65.034s3.128-1.012 4.097-.506c1.347.701 2.64 3.107 3.494 7.17 1.126 5.355.025 10.438-2.074 11.424-1.87.875-4.242.02-4.242.02"/><path fill="#BAE3F9" d="M56.878 95.362c1.645.297 5.895.87 9.41.522 3.174-.314 4.976.234 7.785.15 2.202-.065 6.116-.158 6.125-1.242.008-.714-2.436-1.024-3.273-1.186-.973-.19-2.826-.667-5.601-.637-3.303.034-7.31.455-9.724.31-4.637-.276-9.588 1.199-4.726 2.083h.004ZM14.56 95.026c.855.157 3.07.455 4.897.272 1.649-.166 2.588.123 4.05.076 1.143-.034 3.179-.08 3.187-.646 0-.374-1.266-.53-1.7-.616-.505-.098-1.47-.348-2.915-.331-1.717.017-3.804.238-5.058.161-2.414-.144-4.985.625-2.456 1.084h-.004Z"/><path fill="#F6AC1A" d="M47.621 74.133s.995 1.649 3.29 1.959c2.15.293 4.428-.557 5.346-2.142.918-1.585-1.168-5.296-1.168-5.296l-4.4-.705"/><path stroke="#0E141B" stroke-linecap="round" stroke-linejoin="round" stroke-width="1.275" d="M47.621 74.133s.995 1.649 3.29 1.959c2.15.293 4.428-.557 5.346-2.142.918-1.585-1.168-5.296-1.168-5.296l-4.4-.705"/><path fill="#3E62AD" d="M36.265 21.118s-.459-1.304 0-2.681c.328-.986 1.917-1.535 3.069-.816.331.208 1.339 1.266 1.75 1.802"/><path stroke="#0E141B" stroke-linecap="round" stroke-linejoin="round" stroke-width="1.275" d="M36.265 21.118s-.459-1.304 0-2.681c.328-.986 1.917-1.535 3.069-.816.331.208 1.339 1.266 1.75 1.802"/><path fill="#F6AC1A" d="m74.622 73.185-1.093-9.915H57.596v9.915h17.026Z"/><path fill="#F6AC1A" d="M56.53 63.074a16.66 16.66 0 0 0-.676 3.06c-.043.34-.081.684-.107 1.025a45.05 45.05 0 0 0-.034 1.079c-.008.361-.012.727-.017 1.092-.055 1.632-.089 3.311-.11 4.99-.009.336-.013.671-.021 1.016 0 3.272 0 6.247.046 9.383.017.243.034.48.056.719.4 4.433.896 7.344 2.605 8.623 1.292.969 4.258 1.096 5.589-.918.964-1.462 1.05-6.035.956-6.791h3.06c-.093.756-.008 5.329.956 6.791 1.33 2.01 4.297 1.887 5.589.918 1.704-1.28 2.206-4.19 2.605-8.623.395-4.365-.085-10.655-.527-14.93"/><path stroke="#0E141B" stroke-linecap="round" stroke-linejoin="round" stroke-width="1.275" d="M56.53 63.074a16.66 16.66 0 0 0-.676 3.06c-.043.34-.081.684-.107 1.025a45.05 45.05 0 0 0-.034 1.079c-.008.361-.012.727-.017 1.092-.055 1.632-.089 3.311-.11 4.99-.009.336-.013.671-.021 1.016 0 3.272 0 6.247.046 9.383.017.243.034.48.056.719.4 4.433.896 7.344 2.605 8.623 1.292.969 4.258 1.096 5.589-.918.964-1.462 1.05-6.035.956-6.791h3.06c-.093.756-.008 5.329.956 6.791 1.33 2.01 4.297 1.887 5.589.918 1.704-1.28 2.206-4.19 2.605-8.623.395-4.365-.085-10.655-.527-14.93"/><path fill="#fff" d="M71.353 70.397s1.883 1.45 2.453 4.135c.658 3.107.03 5.564-1.101 7.08-1.067 1.433-2.869 2.959-5.988 2.959-3.12 0-5.81-1.407-7.085-3.273-1.207-1.764-1.245-5.38-.6-7.352.591-1.815 2.138-3.315 2.589-3.655l2.401 2.478 2.508-2.478 2.669 2.35s.841-.76 2.159-2.253l-.005.009Z"/><path stroke="#0E141B" stroke-linecap="round" stroke-linejoin="round" stroke-width="1.275" d="M64.026 86.237s2.227.072 4.599 0"/><path fill="#F6AC1A" d="M60.97 34.646c-.293-2.07-2.099-5.27-5.898-4.02-3.775 1.236-3.15 5.282-2.092 6.579"/><path stroke="#0E141B" stroke-linecap="round" stroke-linejoin="round" stroke-width="1.275" d="M60.97 34.646c-.293-2.07-2.099-5.27-5.898-4.02-3.775 1.236-3.15 5.282-2.092 6.579"/><path fill="#BAE3F9" d="M71.834 34.646c.293-2.07 2.1-5.27 5.899-4.02 3.774 1.236 3.149 5.282 2.09 6.579"/><path stroke="#0E141B" stroke-linecap="round" stroke-linejoin="round" stroke-width="1.275" d="M71.834 34.646c.293-2.07 2.1-5.27 5.899-4.02 3.774 1.236 3.149 5.282 2.09 6.579"/><path fill="#F6AC1A" d="M47.315 50.018c0-11.407 8.772-18.1 19.01-18.1 10.239 0 19.01 6.553 19.01 18.1s-9.098 17.213-19.01 17.213c-9.91 0-19.01-5.627-19.01-17.213Z"/><path fill="#BAE3F9" fill-rule="evenodd" d="M71.34 32.143s-1.308 3.57 1.157 4.887c2.465 1.318 3.204-.437 5.027 2.338 1.824 2.775 2.346 8.53 2.67 10.034.322 1.505 1.78 1.31 2.367-.2.582-1.508-1.624 6.6 2.324 6.545 0 0 1.68-8.742-.633-12.77-2.308-4.03-3.43-7.885-12.916-10.834h.005Z" clip-rule="evenodd"/><path stroke="#0E141B" stroke-linecap="round" stroke-linejoin="round" stroke-width="1.275" d="M47.315 50.018c0-11.407 8.772-18.1 19.01-18.1 10.239 0 19.01 6.553 19.01 18.1s-9.098 17.213-19.01 17.213c-9.91 0-19.01-5.627-19.01-17.213Z"/><path fill="#0E141B" d="M74.732 49.032c1.05-1.381-.51-2.94-1.887-1.891-1.05 1.381.51 2.941 1.887 1.891ZM70.882 43.737s2.962-.12 6.43.025l-6.43-.025Z"/><path stroke="#0E141B" stroke-linecap="round" stroke-linejoin="round" stroke-width="1.7" d="M70.882 43.737s2.962-.12 6.43.025"/><path fill="#0E141B" d="M59.475 49.075c1.037-1.365-.502-2.907-1.866-1.87-1.037 1.364.501 2.907 1.866 1.87Z"/><path fill="#fff" d="M65.136 52.028c-2.525-.88-4.433.574-4.612 2.253-.144 1.368 1.05 2.733 2.5 2.86 1.568.14 2.575-.676 2.957-1.615.31.965 1.101 1.687 2.674 1.67 1.457-.017 2.669-.922 2.766-2.592.102-1.683-1.687-3.672-4.653-2.512l-.833.353"/><path stroke="#0E141B" stroke-linecap="round" stroke-linejoin="round" stroke-width="1.275" d="M65.136 52.028c-2.525-.88-4.433.574-4.612 2.253-.144 1.368 1.05 2.733 2.5 2.86 1.568.14 2.575-.676 2.957-1.615.31.965 1.101 1.687 2.674 1.67 1.457-.017 2.669-.922 2.766-2.592.102-1.683-1.687-3.672-4.653-2.512l-.833.353"/><path fill="#0E141B" d="M54.727 43.77s2.963-.118 6.43.026l-6.43-.025Z"/><path stroke="#0E141B" stroke-linecap="round" stroke-linejoin="round" stroke-width="1.7" d="M54.727 43.77s2.963-.118 6.43.026"/><path fill="#0E141B" d="M64.247 51.688c-.106.638.825 1.981 1.662 1.977.757-.005 1.645-1.11 1.755-1.985.128-1.02-3.123-1.76-3.42.013l.003-.005Z"/><path fill="#C9CACA" d="m53.393 64.596-14.37-43.367a.567.567 0 0 1 .336-.727l.48-.404a.567.567 0 0 1 .727.336l14.523 43.66"/><path stroke="#0E141B" stroke-linecap="round" stroke-linejoin="round" stroke-width="1.275" d="m53.393 64.596-14.37-43.367a.567.567 0 0 1 .336-.727l.48-.404a.567.567 0 0 1 .727.336l14.523 43.66"/><path fill="#F3E388" d="m54.812 63.265 2.108 6.337a.567.567 0 0 1-.335.727l-.655.06c-.39.259-.659.012-.727-.336l-2.065-6.235"/><path stroke="#0E141B" stroke-miterlimit="10" stroke-width="1.275" d="m54.812 63.265 2.108 6.337a.567.567 0 0 1-.335.727l-.655.06c-.39.259-.659.012-.727-.336l-2.065-6.235"/><path fill="#3E62AD" stroke="#0E141B" stroke-linecap="round" stroke-linejoin="round" stroke-width="1.275" d="M30.163 42.976c1.572-2.63 5.448-4.896 8.95-5.555 3.285-.62 5.147-.548 6.282-.23 1.39-2.252 4.037-4.39 7.411-5.503 2.886-.948 6.465-1.011 8.356-.765 2.622-3.32 9.393-5.623 14.973-4.921-5.547-5.959-15.968-8.381-24.417-8.381-18.717 0-38.369 13.476-38.369 31.284 2.58-2.495 6.295-4.497 8.896-5.198 2.703-.73 5.877-1.096 7.922-.727l-.005-.004Z"/><path fill="#C9CACA" d="M58.94 74.685s1.674 1.28 2.439 0c.74-1.232-.548-2.065-1.22-2.32"/><path stroke="#0E141B" stroke-linecap="round" stroke-linejoin="round" stroke-width="1.275" d="M58.94 74.685s1.674 1.28 2.439 0c.74-1.232-.548-2.065-1.22-2.32"/><path fill="#C9CACA" stroke="#0E141B" stroke-linecap="round" stroke-linejoin="round" stroke-width="1.275" d="M60.429 72.901a3.294 3.294 0 1 0-6.503-1.055 3.294 3.294 0 0 0 6.503 1.055Z"/><path fill="#C9CACA" d="M54.948 73.95s-1.42 1.555.302 2.435c1.28.655 2.24-.404 2.24-1.24"/><path stroke="#0E141B" stroke-linecap="round" stroke-linejoin="round" stroke-width="1.275" d="M54.948 73.95s-1.42 1.555.302 2.435c1.28.655 2.24-.404 2.24-1.24"/><path fill="#2F64B0" d="M37.222 20.217s-8.105 7.094-7.06 22.763l7.06-22.763Z"/><path stroke="#0E141B" stroke-linecap="round" stroke-linejoin="round" stroke-width="1.275" d="M37.222 20.217s-8.105 7.094-7.06 22.763"/><path fill="#2F64B0" d="M38.82 19.775s1.827 8.793 6.438 16.77l-6.438-16.77Z"/><path stroke="#0E141B" stroke-linecap="round" stroke-linejoin="round" stroke-width="1.275" d="M38.82 19.775s1.827 8.793 6.438 16.77"/><path fill="#2F64B0" d="M40.222 19.252s10.65-.743 20.94 11.67l-20.94-11.67Z"/><path stroke="#0E141B" stroke-linecap="round" stroke-linejoin="round" stroke-width="1.275" d="M40.222 19.252s10.65-.743 20.94 11.67"/><path fill="#F6AC1A" d="M47.621 74.133c-.9-1.016-1.423-3.553-.85-5.521.74-2.529 3.502-5.347 6.307-6.214 1.34-.412 2.771-.272 3.864.49 1.313.917 1.878 2.779 1.164 4.423-.557 1.288-1.445 1.862-2.839 2.542-.973.472-2.359 2.393-2.847 3.408"/><path stroke="#0E141B" stroke-linecap="round" stroke-linejoin="round" stroke-width="1.275" d="M47.621 74.133c-.9-1.016-1.423-3.553-.85-5.521.74-2.529 3.502-5.347 6.307-6.214 1.34-.412 2.771-.272 3.864.49 1.313.917 1.878 2.779 1.164 4.423-.557 1.288-1.445 1.862-2.839 2.542-.973.472-2.359 2.393-2.847 3.408"/><path stroke="#0E141B" stroke-linecap="round" stroke-linejoin="round" stroke-width="1.063" d="M89.059 15.712c-.302.82-1.547 4.31-2.019 5.7M96.097 50.418c-.302.82-1.734 4.858-2.206 6.252M87.86 61.859c-.301.82-1.147 3.255-1.619 4.65M95.302 72.497c-.302.82-1.118 2.992-1.59 4.386M72.004 6.906c-.302.82-1.284 3.574-1.751 4.968M91.4 33.133c-.301.82-1.283 3.574-1.75 4.968M11.454 7.161c-.302.82-1.284 3.574-1.751 4.968M35.067 8.725c-.302.82-.994 2.788-1.466 4.178M14.493 77.116c-.302.82-.995 2.788-1.466 4.178M17.935 17.043c-.301.82-1.453 4.075-1.925 5.47M14.25 57.133c-.301.82-1.309 3.646-1.78 5.04M7.808 38.462c-.302.82-1.284 3.575-1.751 4.969M83.513 94.095l.22.922M85.82 93.475l-.314 1.542M45.284 15.682s.446-.263 1.05-.178M48.446 15.304s.48-.19 1.062-.02M57.906 15.512s.315-.072.838.094M65.276 16.949s.323-.017.807.242M70.427 18.874s.183.047.535.242M24.65 23.72s.442-.396.884-.596M22.35 25.61s.196-.288.596-.569M20.069 27.808s.327-.497.7-.8M17.314 31.012s.204-.374.506-.654M14.357 35.398s.238-.544.552-.91M67.66 17.718s.519.009.99.391M9.155 93.942l.216.926M11.458 93.322l-.31 1.546"/></g><defs><clipPath id="a"><path fill="#fff" d="M5.525 6.375h91.103v89.666H5.525z"/></clipPath></defs></svg>