<svg xmlns="http://www.w3.org/2000/svg" width="102" height="102" fill="none"><g clip-path="url(#a)"><path fill="#78503A" d="m16.732 76.623 3.107 8.211s8.67 3.936 29.89 4.781c9.16.366 20.141.213 24.476-1.185 6.991-2.257 10.06-5.997 10.761-7.034l1.551-12.538-69.785 7.765Z"/><path fill="#7194B9" d="M66.734 32.096c.22 0 5.992-1.997 10.65 1.407s11.169 11.241.59 25.814l-14.347-.96L66.734 32.1v-.004Z"/><path fill="#fff" d="M70.095 47.553s5.768 1.22 4.327 10.982c-1.44 9.763-10.54.332-10.54 0 0-.331 3.438-10.43 6.213-10.982Z"/><path fill="#78503A" d="M17.693 65.114s-4.62 4.127-5.9 5.517c0 0 .277 4.437.668 5.712 0 0 45.598 4.602 60.69 5.38 0 0 13.26-11.908 16.511-15.682 0 0 .072-4.344.183-6.677 0 0-22.3-1.942-29.512-2.384"/><path stroke="#0E141B" stroke-linecap="round" stroke-linejoin="round" stroke-width="1.488" d="M17.693 65.114s-4.62 4.127-5.9 5.517c0 0 .277 4.437.668 5.712 0 0 45.598 4.602 60.69 5.38 0 0 13.26-11.908 16.511-15.682 0 0 .072-4.344.183-6.677 0 0-22.3-1.942-29.512-2.384"/><path stroke="#0E141B" stroke-linecap="round" stroke-linejoin="round" stroke-width="1.488" d="M11.793 70.63s50.095 5.768 60.635 5.993c0 0 13.426-12.703 17.421-17.25M72.428 76.623s.11 4.216.332 5.105M19.839 84.83c-.999-2.219-3.047-8.054-3.047-8.054M74.655 80.363s-.119 5.513-.455 8.063M86.453 69.36l-1.491 12.036"/><path fill="#F29C9F" d="M41.952 71.073s1.848-.519 4.585-1.921c2.737-1.407 7.25-4.365 8.135-5.546.888-1.182-12.5-.37-12.5-.37l-.22 7.841v-.004Z"/><path stroke="#0E141B" stroke-linecap="round" stroke-linejoin="round" stroke-width="1.488" d="M43.193 70.797c.165 0 5.822-2.997 9.43-5.436"/><path fill="#0E141B" d="M57.838 28.42 40.8 31.246c-1.058 8.887-2.588 21.637-2.656 21.853-.11.332 6.545 12.096 6.545 12.096s6.434.395 12.648-.344c5.155-.612 10.501-4.25 12.35-13.779.021-.557.038-1.126.051-1.704.357-17.374-11.9-20.948-11.9-20.948Z" opacity=".25" style="mix-blend-mode:multiply"/><path fill="#7194B9" stroke="#0E141B" stroke-linecap="round" stroke-linejoin="round" stroke-width="1.488" d="M44.689 65.195s6.434.395 12.648-.344c6.213-.74 12.703-5.865 13.017-20.413.409-18.75-10.65-22.929-14.347-23.077H38.832l.85 39.576 5.007 4.258Z"/><path fill="#0E141B" d="M43.401 58.489c0-.442.034-21.153.183-26.478 0 0 8.283-.888 14.645.888 0 0 .442-9.171-.74-18.194 0 0-15.903-5.427-28.22 1.343-10.781 5.92-12.086 19.571-9.175 32.789"/><path stroke="#0E141B" stroke-linecap="round" stroke-linejoin="round" stroke-width="1.488" d="M43.401 58.489c0-.442.034-21.153.183-26.478 0 0 8.283-.888 14.645.888 0 0 .442-9.171-.74-18.194 0 0-15.903-5.427-28.22 1.343-10.781 5.92-12.086 19.571-9.175 32.789"/><path fill="#fff" stroke="#0E141B" stroke-linecap="round" stroke-linejoin="round" stroke-width="1.488" d="M51.294 33.894c.765 0 1.508 1.653 1.385 5.38-.115 3.481-.378 5.55-1.598 5.38-1.05-.144-1.275-1.287-1.173-5.38.093-3.727.62-5.38 1.386-5.38ZM51.115 52.148c.765 0 1.364 1.432 1.385 5.38.022 3.689-.62 5.38-1.385 5.38s-1.403-1.598-1.386-5.38c.017-4.182.498-5.38 1.386-5.38Z"/><path stroke="#595857" stroke-linecap="round" stroke-linejoin="round" stroke-width="1.488" d="M53.64 27.57s-4.659-.812-8.581-1.182c0 0 6.88-3.404 8.504-3.995 0 0-3.625-1.33-8.504-2.295M37.587 32.687s-3.404 1.7-4.216 2.07c0 0 3.107 2.07 3.774 2.516 0 0-3.774 1.92-4.955 2.588 0 0 4.437 2.809 5.622 3.476 0 0-4.216 2.146-5.622 2.81 0 0 4.437 1.997 5.325 2.294"/><path fill="#7194B9" stroke="#0E141B" stroke-linecap="round" stroke-linejoin="round" stroke-width="1.488" d="M25.385 34.56s-8.21 1.888-8.542.443c-.332-1.44 6.991-8.874 9.32-9.988 0 0-.888 5.547-.778 9.542v.004Z"/><path fill="#7194B9" stroke="#0E141B" stroke-linecap="round" stroke-linejoin="round" stroke-width="1.488" d="M25.385 34.56s-8.21 1.888-8.542.443c-.332-1.44 6.991-8.874 9.32-9.988 0 0-.888 5.547-.778 9.542v.004Z"/><path fill="#7194B9" stroke="#0E141B" stroke-linecap="round" stroke-linejoin="round" stroke-width="1.488" d="M25.385 34.56s-8.21 1.888-8.542.443c-.332-1.44 6.991-8.874 9.32-9.988 0 0-.888 5.547-.778 9.542v.004Z"/><path fill="#EF8585" stroke="#0E141B" stroke-linecap="round" stroke-linejoin="round" stroke-width="1.488" d="M21.726 32.86c.106.345 2.38-.19 3.685-.518.05-1.19.153-2.401.263-3.489-1.785 1.309-4.071 3.604-3.948 4.008Z"/><path fill="#C9C7C5" stroke="#0E141B" stroke-linecap="round" stroke-linejoin="round" stroke-width="1.488" d="M77.966 64.468c.043 1.037-.658 4.951-4.602 6.711-3.604 1.61-7.434.055-7.489-2.44-.055-2.494 2.495-5.159 5.05-6.379 2.417-1.156 6.935-.552 7.046 2.108h-.005Z"/><path stroke="#0E141B" stroke-linecap="round" stroke-linejoin="round" stroke-width="1.488" d="M66.483 66.687s5.436-1.22 8.432 3.493"/><path stroke="#0E141B" stroke-linecap="round" stroke-linejoin="round" stroke-width="1.488" d="M70.606 66.9s-2.015 1.895-2.346 4.61"/><path fill="#7194B9" d="M84.07 46.946c-.251-2.495-.642-4.786-1.535-6.792l-8.304 3.068s2.524 4.442 1.92 9.304c-.603 4.857-2.54 6.753-3.799 7.586-1.258.833-2.83 2.33-1.849 4.084.668 1.195 2.142.485 2.142.485.17-.047.328 1.347 2.75.565l.03-.09c.39 1.063 2.316 1.127 4.003-.675 1.48-1.577 5.64-7.548 4.637-17.535h.004Z"/><path fill="#fff" d="M80.971 62.326c-2.048-3.923-7.067-3.37-7.067-3.37l-.14.008a8.745 8.745 0 0 1-1.407 1.144c-1.258.833-2.83 2.329-1.85 4.084.668 1.194 2.143.484 2.143.484.17-.046.45 1.407 2.677.532l.102-.056c.391 1.063 2.317 1.127 4.004-.675.39-.417.969-1.097 1.59-2.053-.018-.034-.03-.064-.047-.098h-.005Z"/><path stroke="#0E141B" stroke-linecap="round" stroke-linejoin="round" stroke-width="1.488" d="M74.23 43.222s2.525 4.442 1.922 9.304c-.604 4.857-2.542 6.753-3.8 7.586-1.258.833-2.83 2.329-1.849 4.084.668 1.194 2.142.485 2.142.485"/><path stroke="#0E141B" stroke-linecap="round" stroke-linejoin="round" stroke-width="1.488" d="M75.442 65.152s-1.61.833-2.588-.131c-.476-.468-.523-1.79.692-2.712"/><path stroke="#0E141B" stroke-linecap="round" stroke-linejoin="round" stroke-width="1.488" d="M68.727 31.641c8.5-.6 14.344 5.317 15.342 15.304 1 9.984-3.2 15.925-4.636 17.536-1.62 1.81-3.545 1.725-4.046.552-.14-.327-.153-1.347.973-1.95"/><path fill="#fff" d="M57.158 50.307c-.96.893-1.678 2.61-.646 4.254.995 1.586 3.014 1.543 4.084.328 1.22-1.39 1.012-4.858-2.617-4.939"/><path stroke="#0E141B" stroke-linecap="round" stroke-linejoin="round" stroke-width="1.488" d="M57.158 50.307c-.96.893-1.678 2.61-.646 4.254.995 1.586 3.014 1.543 4.084.328 1.22-1.39 1.012-4.858-2.617-4.939"/><path fill="#fff" stroke="#0E141B" stroke-linecap="round" stroke-linejoin="round" stroke-width="1.488" d="M60.477 49.793c1.365-1.224 1.373-3.749 0-4.85-1.13-.9-2.885-.382-3.616.766-.378.599-1.11 1.989.008 3.68.97 1.47 3.137.833 3.608.404Z"/><path fill="#0E141B" d="M56.015 52.292c.748.166 2.354-.918 2.384-2.095.034-1.186-1.075-2.185-2.116-2.3-1.356-.148-2.087 3.949-.268 4.4"/><path fill="#F29C9F" stroke="#0E141B" stroke-linecap="round" stroke-linejoin="round" stroke-width="1.488" d="M29.776 50.277c-3.128-.238-8.28-.323-10.115-.484-1.836-.162-4.314.323-4.408 3.982-.093 3.66.974 10.277 1.297 11.513.323 1.237.952 3.392 4.857 4.038 3.906.646 16.43 1.827 18.87 1.827 2.44 0 4.046-.055 4.161-3.068.115-3.013-.829-10.952-1.045-12.35-.217-1.399-.876-3.694-3.957-4.26-3.035-.556-7.076-1.002-9.665-1.198h.005Z"/><path fill="#fff" d="M27.047 57.328c.518-.136 1.181 1.403 1.181 1.403s.978-.26 2.176.076c0 0 .791-1.41 1.195-1.305.582.153.914 1.938.914 1.938s2.116 1.008 1.368 2.376c-1.067 1.947-6.724 2.168-8.67-.149-1.198-1.423.999-2.426.999-2.426s.161-1.734.837-1.913ZM28.509 47.868c-.888-2.605-3.66-2.83-5.992-2.495-1.887.268-4.05 1.61-3.995 4.16.05 2.44 2.065 3.634 4.194 2.478.132.102.298.179.468.238 1.942.723 2.8-.786 2.8-.786.417.294.897.37 1.36.23.859-.255 2.053-1.22 1.165-3.83v.005Z"/><path stroke="#0E141B" stroke-linecap="round" stroke-linejoin="round" stroke-width="1.488" d="M22.695 52.024c-2.13 1.156-4.118-.05-4.17-2.49-.055-2.55 2.109-3.893 3.996-4.161 2.329-.331 5.104-.11 5.992 2.495.888 2.605-.31 3.57-1.164 3.829-1.11.331-2.461-.548-2.495-2.775"/><path stroke="#0E141B" stroke-linecap="round" stroke-linejoin="round" stroke-width="1.488" d="M25.989 51.463s-.829 1.416-2.8.787c-1.085-.345-1.697-1.437-1.4-3.035M43.58 32.011s9.43 2.108 14.088 9.1"/></g><defs><clipPath id="a"><path fill="#fff" d="M11.05 11.9h79.539v77.88H11.05z"/></clipPath></defs></svg>