<svg xmlns="http://www.w3.org/2000/svg" width="102" height="102" fill="none"><g clip-path="url(#a)"><path fill="#B58B33" d="M48.042 23.786S49.89 10.122 58.878 9.75c0 0 5.415-.122 7.385 4.431 0 0 1.586 2.665-3.077 4.185 0 0-4.925 1.48-5.665 6.773"/><path stroke="#0E141B" stroke-linecap="round" stroke-linejoin="round" stroke-width="1.635" d="M48.042 23.786S49.89 10.122 58.878 9.75c0 0 5.415-.122 7.385 4.431 0 0 1.586 2.665-3.077 4.185 0 0-4.925 1.48-5.665 6.773"/><path fill="#B58B33" d="M29.948 28.217s.617-5.539-3.94-7.758c0 0-10.218-4.925-13.663.123 0 0-1.97 5.047 1.724 6.4 0 0 5.17 1.48 6.65 2.465 0 0 1.598.617 2.833 5.415"/><path stroke="#0E141B" stroke-linecap="round" stroke-linejoin="round" stroke-width="1.635" d="M29.948 28.217s.617-5.539-3.94-7.758c0 0-10.218-4.925-13.663.123 0 0-1.97 5.047 1.724 6.4 0 0 5.17 1.48 6.65 2.465 0 0 1.598.617 2.833 5.415"/><path fill="#B58B33" stroke="#0E141B" stroke-linecap="round" stroke-linejoin="round" stroke-width="1.635" d="M36.185 21.943S13.29 28.094 22.15 54.935c0 0 2.46 6.773 7.14 10.958 0 0 3.2 3.323 3.45 5.415 0 0 10.831 3.818 19.329 1.848 0 0 13.418-1.97 16.128-5.17 0 0 8.493-20.314-2.71-39.643 0 0-8.616-13.296-29.301-6.4Z"/><path fill="#B58B33" d="M29.875 91.491s-.99-13.88 3.985-18.51c0 0 23.227 2.178 36.102-4.497 0 0 1.447 16.52.63 23.265 0 0-15.446 9.621-40.718-.253v-.005Z"/><path fill="#00428B" d="M51.775 90.96c-1.157-5.313-1.092-15.805-1.092-15.805l4.496-.818s4.496 13.402 9.536 19.807c0 0-9.299 2.628-11.902 1.586-.34-.135-.29-.887-.29-.887l-.748-3.883Z"/><path fill="#C11A20" d="M55.523 77.542s-4.497 3.78-4.394 5.313l.306 2.963s3.883-6.335 5.007-6.744l-.92-1.532ZM57.227 81.833s-5.588 5.825-5.485 7.357l.51 2.248s3.099-4.904 6.03-7.12l-1.055-2.485ZM62.47 90.895s-2.554 2.69-3.931 4.63l3.065-.613s.867-1.021 2.232-2.317l-1.361-1.704-.005.004ZM59.61 86.873s-7.05 6.915-6.949 8.448c0 0 .066.948 2.195.564.56-.102 4.41-5.738 5.706-6.76l-.952-2.248v-.004Z"/><path fill="#00428B" d="M32.43 70.32s9.06 3.134 19.618 1.908c0 0 13.01-2.791 17.645-7.018l.07 3.405s-4.632 5.587-16.759 7.153c0 0-9.605 1.156-20.231-1.974l-.34-3.475h-.004Z"/><path fill="#C11A20" d="M35.838 71.317s.527 2.567 1.153 3.666l2.791.515s-1.483-2.882-1.263-3.83l-2.685-.351h.004ZM59.61 70.082s-1.034 3.495-.41 4.599l2.045-.818s-.017-3.139.204-4.087l-1.84.306ZM64.617 68.039s-.205 2.963-.409 4.598l2.044-.817s-.017-3.14.204-4.088l-1.84.307ZM42.173 72.44s.266 2.036 1.492 3.365l2.657.204s-1.55-2.526-1.329-3.474l-2.82-.094Z"/><path fill="#B5B6B6" stroke="#0E141B" stroke-linecap="round" stroke-linejoin="round" stroke-width="1.226" d="M73.09 31.744s-.969 2.223.408 2.84c0 0 1.202 1.039 2.265-1.291l-2.673-1.549Z"/><path fill="#727171" stroke="#0E141B" stroke-linecap="round" stroke-linejoin="round" stroke-width="1.635" d="m75.039 23.692-2.657 6.54s.716 3.678 4.905 2.758l3.474-7.459-5.722-1.839Z"/><path fill="#FFD900" stroke="#0E141B" stroke-linecap="round" stroke-linejoin="round" stroke-width="1.635" d="M83.365 12.199s-7.766-3.168-11.24 4.291c0 0-2.35 6.336 4.496 9.605 0 0 8.174 3.372 11.24-3.985 0 0 2.86-6.437-4.496-9.911Z"/><path fill="#fff" stroke="#0E141B" stroke-linecap="round" stroke-linejoin="round" stroke-width="1.635" d="M31 36.873s-7.767 1.635-5.825 8.38c0 0 .51 4.597 7.766 3.473 0 0 8.378-1.532 6.744-7.152 0 0-.41-6.029-8.686-4.7ZM52.15 27.575s-7.97 1.84-5.313 10.32c0 0 2.963 5.824 10.014 3.576 0 0 7.766-2.554 5.926-9.094 0 0-1.737-6.948-10.627-4.802Z"/><path fill="#842423" stroke="#0E141B" stroke-linecap="round" stroke-linejoin="round" stroke-width="1.431" d="M49.8 52.712s-4.426 2.01-8.48 2.452c0 0-6.03.306-2.555 6.13 0 0 3.167 4.803 11.546 1.636 0 0 10.525-4.292 9.81-10.525 0 0-1.737-4.803-6.029-2.248 0 0-2.248 1.635-4.292 2.555Z"/><path fill="#B58B33" stroke="#0E141B" stroke-linecap="round" stroke-linejoin="round" stroke-width="1.635" d="M68.737 52.405s-2.248 0 .204 5.653l2.178 1.36s-.339-7.221-2.382-7.017v.004Z"/><path fill="#B58B33" stroke="#0E141B" stroke-linecap="round" stroke-linejoin="round" stroke-width="1.635" d="M71.802 57.175s-3.405-1.566-4.905-2.453c0 0-2.522-1.839-2.861.205 0 0-.887 2.587 4.361 4.157 0 0-4.905-1.092-4.496 2.247 0 0 .274 1.431 1.43 1.5 0 0-1.021 1.157-.338 2.453 0 0 .478 1.022 1.704.887 0 0 .204 13.757 1.5 15.94 0 0 1.704 2.792 4.77.683 0 0 1.974-1.157 2.248-5.588 0 0-.135-12.33-.818-16.484 0 0-.07-2.178-2.587-3.543l-.008-.004Z"/><path fill="#0E141B" d="M44.687 42.538s-4.84 1.153-3.87 4.778c0 0 .449 2.645 5.37 1.73 0 0 4.455-1.002 3.846-4.566 0 0-1.014-2.849-5.35-1.942h.004Z"/><path fill="#FFD900" stroke="#0D080E" stroke-linecap="round" stroke-linejoin="round" stroke-width="1.226" d="M63.697 44.843s1.635 2.179-.683 4.088c0 0 2.044-.887 2.383 1.839 0 0 .274-3.27 2.726-2.452 0 0-2.317-1.43-.543-3.748 0 0-1.566 2.93-3.883.273Z"/><path fill="#00428B" d="M51.162 70.798s-1.705-.07-1.975 2.113c0 0-.339 3.883 1.022 4.36 0 0 .818.07 1.974-.951 0 0 1.566-.818 2.931-.205 0 0 1.635-.135 1.5-1.84 0 0 .274-3.404-1.5-3.473 0 0-2.178-.479-3.952 0v-.004Z"/><path fill="#C11A20" d="M54.5 70.491s-5.108 4.496-5.006 6.029l1.328.817 1.737-1.328s2.657-3.78 3.78-4.19l-1.838-1.328Z"/><path fill="#E35451" stroke="#0E141B" stroke-linecap="round" stroke-linejoin="round" stroke-width="1.431" d="M46.122 63.645s-.716-3.83 1.99-4.7c0 0 1.582-.458 2.502 1.381 0 0 .15-3.118 2.501-3.27 0 0 1.941-.102 3.217 2.248 0 0-4.75 3.83-10.218 4.341h.008Z"/><path fill="#0E141B" d="M55.114 35.75a.92.92 0 1 0 0-1.84.92.92 0 0 0 0 1.84ZM33.042 43.924a.715.715 0 1 0 0-1.43.715.715 0 0 0 0 1.43Z"/><path stroke="#0E141B" stroke-linecap="round" stroke-linejoin="round" stroke-width="1.635" d="M66.828 71.104c-2.068 1.349-5.273 2.951-9.863 3.985M56.336 71.17c3-.838 7.05-2.146 10.194-3.79M48.864 75.98c-3.793.02-9.72-.33-15.997-2.182l-.34-3.474s7.239 2.505 16.317 2.158M51.162 70.798s-1.705-.07-1.975 2.113c0 0-.339 3.883 1.022 4.36 0 0 .818.07 1.974-.951 0 0 1.566-.818 2.931-.205 0 0 1.635-.135 1.5-1.84 0 0 .274-3.404-1.5-3.473 0 0-2.178-.479-3.952 0v-.004ZM32.871 74.68s-2.861 2.792-2.604 16.215M37.011 79.487s-1.43 7.868 0 13.235M71.279 84.085s-.066 5.825-.438 7.104M50.908 77.542s-.172 11.293 2.01 17.526M56.336 76.32s3.903 12.204 8.383 17.264M65.332 62.828l2.791-.405"/><path stroke="#0E141B" stroke-linecap="round" stroke-linejoin="round" stroke-width="1.431" d="M78.248 4.69v4.443M84.37 9.75l1.995-3.985M89.479 13.707l3.065-2.179M91.372 18.608l2.91-.299"/><path stroke="#0E141B" stroke-linecap="round" stroke-linejoin="round" stroke-width="1.022" d="m75.582 24.796 2.08-4.21s.65-1.537 0-1.537-2.04 1.61.29 2.375c2.33.764 2.457-1.353 1.946-1.61-.51-.258-1.48-.05-.764 1.994 0 0 1.226 1.328 2.043.793.14-.09.274-.2.401-.32.621-.588.977-1.446-.04-1.7 0 0-.945.41-.59 1.684M79.637 26.247l2.158-4.202"/><path stroke="#0E141B" stroke-linecap="round" stroke-linejoin="round" stroke-width="1.431" d="M73.89 26.864c.041.016 1.202 3.314 5.363 2.109M73.081 28.727c.04.017 1.202 3.315 5.362 2.11"/></g><defs><clipPath id="a"><path fill="#fff" d="M11 3.975h83.997v92H11z"/></clipPath></defs></svg>