<svg xmlns="http://www.w3.org/2000/svg" width="24" height="24" fill="none"><path fill="#000" d="m7.519 6.404 2.34 7.547H5.237l2.282-7.547Zm3.783 12.402h1.833L8.61 5H6.524L2 18.806h1.814l1.033-3.53h5.421l1.034 3.53ZM14.336 16.037c0 1.833 1.092 2.925 2.906 2.925 1.034 0 2.34-.468 3.354-1.287l.195 1.131H22v-6.708c0-2.574-1.19-3.744-3.627-3.744-1.111 0-2.36.351-3.393.936l.487 1.15c.839-.39 1.911-.682 2.867-.682 1.365 0 2.087.644 2.087 2.262v.839h-2.048c-2.633 0-4.037 1.092-4.037 3.178Zm3.199 1.6c-1.053 0-1.639-.605-1.639-1.678 0-1.326.839-1.95 2.691-1.95h1.834v2.457c-.683.663-1.931 1.17-2.886 1.17Z"/></svg>