<svg xmlns="http://www.w3.org/2000/svg" width="102" height="102" fill="none"><g clip-path="url(#a)"><path fill="#DB4C47" stroke="#0E141B" stroke-linecap="round" stroke-linejoin="round" stroke-width="1.488" d="M7.161 14.752s4.854 6.966-1.742 12.295c0 0 8.274-.646 7.433 8.725 0 0 6.668-7.119 12.461 0 0 0 1.581-10.068 11.645-8.338 0 0-3.982-7.276 4.14-11.675 0 0-9.631-.196-9.49-10.34 0 0-5.777 9.222-13.924 1.925 0 0 .107 8.764-10.527 7.408h.004ZM61.77 27.166s5.775-6.681-1.038-11.883c0 0 8.39.6 7.276-8.853 0 0 7.45 6.813 13.821-.556 0 0 .706 9.282 12.177 7.926 0 0-5.585 7.951 2.78 12.614 0 0-8.968.837-8.803 10 0 0-6.506-7.548-14.097-1.415 0 0-2.46-8.84-12.12-7.833h.003Z"/><path fill="#FFD900" d="M40.082 77.163c-.391.689-1.292 1.16-2.283 1.118-1.105-.047-2.031-.893-2.273-2.091a1.833 1.833 0 0 1-1.114.386c-1.011 0-1.849-.854-2.006-1.976-.28.175-.603.268-.943.268-1.122 0-2.032-1.054-2.032-2.35 0-.383.08-.74.221-1.058a1.728 1.728 0 0 1-.42.05c-1.123 0-2.032-1.053-2.032-2.354 0-.463.115-.893.314-1.254-.952-.195-1.678-1.156-1.678-2.316 0-.786.335-1.483.85-1.908-.97-.225-1.7-1.22-1.7-2.406 0-.926.442-1.764 1.096-2.15-.765-.417-1.296-1.288-1.296-2.295 0-1.008.552-1.917 1.347-2.325-.57-.404-1.088-1.233-1.088-2.01 0-1.19.723-2.176 1.823-2.261-.463-.387-1.083-1.114-.824-2.134.314-1.224 1.062-1.474 2.104-1.623-.723-.633-.952-1.887-.595-2.66.556-1.208 1.627-1.39 2.58-1.412-.362-.446-.778-1.462-.073-2.358.97-1.233 2.49-.553 2.716-.464-.285-1.062-.26-2.112.642-2.77.981-.715 2.375-.328 2.732-.128-.102-1.037.124-1.586 1.042-2.066.76-.395 1.993-.259 2.486.361-.09-1.134.77-1.886 1.832-2.014.782-.093 1.644.383 2.01 1.058.153-1.266.871-1.942 1.997-2.104 1.658-.238 2.495.8 2.788 1.645.166-1.16.935-2.04 2.376-2.04 1.44 0 2.21.88 2.376 2.04.289-.845 1.126-1.882 2.788-1.644 1.126.161 1.844.837 1.997 2.103.366-.675 1.229-1.151 2.01-1.058 1.063.127 1.922.88 1.832 2.014.498-.616 1.726-.756 2.487-.36.918.48 1.139 1.024 1.04 2.065.362-.2 1.752-.587 2.734.127.905.655.93 1.709.641 2.771.226-.089 1.747-.769 2.716.464.706.896.29 1.912-.072 2.358.952.021 2.023.2 2.58 1.411.352.774.123 2.027-.595 2.66 1.037.145 1.789.396 2.103 1.624.26 1.02-.36 1.747-.824 2.134 1.1.085 1.823 1.07 1.823 2.26 0 .783-.518 1.611-1.088 2.011.795.408 1.352 1.292 1.352 2.325 0 1.032-.527 1.874-1.297 2.295.65.386 1.093 1.224 1.093 2.15 0 1.186-.731 2.18-1.7 2.406.514.425.85 1.122.85 1.908 0 1.16-.723 2.12-1.68 2.316.2.361.315.79.315 1.254 0 1.296-.91 2.354-2.031 2.354-.145 0-.285-.017-.42-.05.14.318.22.675.22 1.058 0 1.3-.91 2.35-2.031 2.35-.34 0-.663-.098-.944-.268-.157 1.122-.99 1.977-2.006 1.977-.412 0-.79-.14-1.113-.387-.238 1.198-1.165 2.044-2.274 2.09-.99.043-1.891-.428-2.282-1.117"/><path stroke="#0E141B" stroke-linecap="round" stroke-linejoin="round" stroke-width="1.488" d="M40.082 77.163c-.391.689-1.292 1.16-2.283 1.118-1.105-.047-2.031-.893-2.273-2.091a1.833 1.833 0 0 1-1.114.386c-1.011 0-1.849-.854-2.006-1.976-.28.175-.603.268-.943.268-1.122 0-2.032-1.054-2.032-2.35 0-.383.08-.74.221-1.058a1.728 1.728 0 0 1-.42.05c-1.123 0-2.032-1.053-2.032-2.354 0-.463.115-.893.314-1.254-.952-.195-1.678-1.156-1.678-2.316 0-.786.335-1.483.85-1.908-.97-.225-1.7-1.22-1.7-2.406 0-.926.442-1.764 1.096-2.15-.765-.417-1.296-1.288-1.296-2.295 0-1.008.552-1.917 1.347-2.325-.57-.404-1.088-1.233-1.088-2.01 0-1.19.723-2.176 1.823-2.261-.463-.387-1.083-1.114-.824-2.134.314-1.224 1.062-1.474 2.104-1.623-.723-.633-.952-1.887-.595-2.66.556-1.208 1.627-1.39 2.58-1.412-.362-.446-.778-1.462-.073-2.358.97-1.233 2.49-.553 2.716-.464-.285-1.062-.26-2.112.642-2.77.981-.715 2.375-.328 2.732-.128-.102-1.037.124-1.586 1.042-2.066.76-.395 1.993-.259 2.486.361-.09-1.134.77-1.886 1.832-2.014.782-.093 1.644.383 2.01 1.058.153-1.266.871-1.942 1.997-2.104 1.658-.238 2.495.8 2.788 1.645.166-1.16.935-2.04 2.376-2.04 1.44 0 2.21.88 2.376 2.04.289-.845 1.126-1.882 2.788-1.644 1.126.161 1.844.837 1.997 2.103.366-.675 1.229-1.151 2.01-1.058 1.063.127 1.922.88 1.832 2.014.498-.616 1.726-.756 2.487-.36.918.48 1.139 1.024 1.04 2.065.362-.2 1.752-.587 2.734.127.905.655.93 1.709.641 2.771.226-.089 1.747-.769 2.716.464.706.896.29 1.912-.072 2.358.952.021 2.023.2 2.58 1.411.352.774.123 2.027-.595 2.66 1.037.145 1.789.396 2.103 1.624.26 1.02-.36 1.747-.824 2.134 1.1.085 1.823 1.07 1.823 2.26 0 .783-.518 1.611-1.088 2.011.795.408 1.352 1.292 1.352 2.325 0 1.032-.527 1.874-1.297 2.295.65.386 1.093 1.224 1.093 2.15 0 1.186-.731 2.18-1.7 2.406.514.425.85 1.122.85 1.908 0 1.16-.723 2.12-1.68 2.316.2.361.315.79.315 1.254 0 1.296-.91 2.354-2.031 2.354-.145 0-.285-.017-.42-.05.14.318.22.675.22 1.058 0 1.3-.91 2.35-2.031 2.35-.34 0-.663-.098-.944-.268-.157 1.122-.99 1.977-2.006 1.977-.412 0-.79-.14-1.113-.387-.238 1.198-1.165 2.044-2.274 2.09-.99.043-1.891-.428-2.282-1.117"/><path fill="#0E141B" stroke="#0E141B" stroke-linecap="round" stroke-linejoin="round" stroke-width="1.488" d="M60.155 91.906c1.415-5.58 2.346-9.146 2.983-11.87.893-3.812-1.42-5.304-4.025-4.17l-16.307.196c-2.869-.773-5.15.863-4.462 3.749.714 2.987 2.4 7.463 4.071 12.29 0 0 2.69.583 8.385.583 6.1 0 9.35-.778 9.35-.778h.005Z"/><path fill="#fff" d="M43.967 77.295s1.984 3.744 6.778 6.953c0 0 3.4-2.117 6.27-6.575"/><path stroke="#0E141B" stroke-linecap="round" stroke-linejoin="round" stroke-width="1.488" d="M43.967 77.295s1.984 3.744 6.778 6.953c0 0 3.4-2.117 6.27-6.575"/><path stroke="#0E141B" stroke-linecap="round" stroke-linejoin="round" stroke-width="1.488" d="m47.23 81.396 3.516-4.101 3.264 4.173"/><path fill="#0E141B" stroke="#0E141B" stroke-linecap="round" stroke-linejoin="round" stroke-width="1.488" d="m49.28 79.007 1.134 1.14-1.135 3.297 1.339 1.42 1.606-.846-1.245-3.825 1.245-1.62-1.606-2.04-1.339 2.474Z"/><path fill="#6B500E" stroke="#0E141B" stroke-linecap="round" stroke-linejoin="round" stroke-width="1.488" d="M66.134 63.593c0-9.282-5.916-15.59-15.631-15.59-9.716 0-15.632 6.312-15.632 15.59 0 9.278 6.328 15.092 15.632 15.092 9.303 0 15.631-5.632 15.631-15.092Z"/><path fill="#BF5750" d="M44.782 64.303c0-.91-1.237-1.267-2.992-1.267s-2.775.43-2.775 1.169c0 .74.646 1.334 2.8 1.334 2.155 0 2.967-.497 2.967-1.232v-.004ZM62.067 64.303c0-.91-1.237-1.267-2.992-1.267s-2.775.43-2.775 1.169c0 .74.646 1.334 2.8 1.334 2.155 0 2.967-.497 2.967-1.232v-.004Z"/><path stroke="#0E141B" stroke-linecap="round" stroke-linejoin="round" stroke-width="2.125" d="M37.055 57.078c1.165-.03 11.475 0 11.475 0s1.972-.374 4.153.08c2.333.49 11.347.136 11.347.136"/><path fill="#0E141B" stroke="#0E141B" stroke-miterlimit="10" stroke-width="1.488" d="M38.607 54.107c-.646.055-1.483.336-1.522 1.989-.047 1.878-.144 6.09 1.874 6.337 2.538.314 7.136.123 7.761-.009s1.36-.714 1.492-2.027c.097-.995.276-2.928.272-4.36 0-1.25-.319-1.7-1.067-1.798-1.543-.204-6.545-.32-8.806-.132h-.004ZM62.432 54.107c.646.11 1.496.336 1.535 1.989.046 1.878.136 6.022-1.887 6.337-2.283.357-7.196.123-7.829-.009-.629-.132-1.373-.714-1.505-2.027-.102-.995-.28-2.928-.276-4.36.005-1.25.336-1.633 1.08-1.798 1.87-.421 7.36-.391 8.878-.132h.004Z"/><path fill="#424242" d="M41.39 55.718c.128.25.209.722-.203 1.16-.442.463-.948 1.207-1.471 2.112-.293.506-1.024.603-1.305-.234-.22-.654-.246-1.844-.17-2.52.081-.718.553-.956 1.322-1.007.629-.043 1.538-.09 1.828.489ZM46.758 60.46c0-.637-.352-.926-.99-.926-.497 0-.986.425-.986 1.075 0 .527.247 1.101.986.944.489-.102.99-.519.99-1.092ZM56.87 55.718c.127.25.208.722-.209 1.16-.446.463-.952 1.207-1.483 2.112-.293.506-1.033.603-1.318-.234-.22-.654-.25-1.844-.174-2.52.08-.718.557-.956 1.334-1.007.634-.043 1.552-.09 1.845.489h.004ZM62.573 60.46c0-.637-.357-.926-.999-.926-.501 0-.994.425-.994 1.075 0 .527.25 1.101.994.944.493-.102.999-.519.999-1.092Z"/><path fill="#8E2022" d="M48.48 64.09s-1.135 5.87 2.295 5.87c3.149 0 2.524-4.047 2.112-6.41"/><path stroke="#0E141B" stroke-linecap="round" stroke-linejoin="round" stroke-width="1.488" d="M48.48 64.09s-1.135 5.87 2.295 5.87c3.149 0 2.524-4.047 2.112-6.41"/><path fill="#fff" d="M50.58 64.124c-.277.765-.927 1.326-2.177 1.262-1.156-.06-1.891-1.003-1.823-2.108.09-1.351 1.313-2.571 3.345-1.942"/><path stroke="#0E141B" stroke-linecap="round" stroke-linejoin="round" stroke-width="1.488" d="M50.58 64.124c-.277.765-.927 1.326-2.177 1.262-1.156-.06-1.891-1.003-1.823-2.108.09-1.351 1.313-2.571 3.345-1.942"/><path fill="#fff" d="M50.58 61.646s-.328 1.339-.056 2.312c.242.85.893 1.492 2.227 1.424 1.156-.06 1.891-1.003 1.823-2.108-.089-1.352-1.313-2.571-3.344-1.942"/><path stroke="#0E141B" stroke-linecap="round" stroke-linejoin="round" stroke-width="1.488" d="M50.58 61.646s-.328 1.339-.056 2.312c.242.85.893 1.492 2.227 1.424 1.156-.06 1.891-1.003 1.823-2.108-.089-1.352-1.313-2.571-3.344-1.942"/><path fill="#0E141B" d="M51.999 61.493c0-.96-.672-1.296-1.496-1.296-.825 0-1.496.34-1.496 1.296 0 .854.667 1.394 1.496 1.394s1.496-.535 1.496-1.394Z"/><path stroke="#0E141B" stroke-linecap="round" stroke-linejoin="round" stroke-width="1.488" d="M48.293 71.978s2.172 1.942 5.163-.132"/><path fill="#fff" d="M26.384 93.56s6.023.84 13.018-1.896L31.76 78.846l-9.52 6.396 2.024 5.062s1.253 1.7 2.12 3.255Z"/><path fill="#fff" d="M24.608 90.784s.242 1.679-.612 2.533c-1.165 1.165-3.55 1.262-6.418-.922 0 0 .633-11.156 11.356-13.974"/><path stroke="#0E141B" stroke-linecap="round" stroke-linejoin="round" stroke-width="1.488" d="M24.608 90.784s.242 1.679-.612 2.533c-1.165 1.165-3.55 1.262-6.418-.922 0 0 .633-11.156 11.356-13.974"/><path fill="#FFD900" d="M10.396 83.997s-1.127-.174-1.709.671c-.467.676-.361 1.547.374 2.113 0 0-1.211.174-1.432 1.317-.123.633.076 1.42.926 1.862 0 0-.85.948-.259 2.014.357.642.927.918 1.756.833 0 0-.247 1.203.59 1.76.833.56 1.866-.115 1.866-.115s.145 1.432 1.564 1.373c.956-.043 1.466-.65 1.517-1.271 0 0 .455.969 1.581.689 1.13-.281 1.39-1.39 1.182-1.84 0 0 1.186.462 1.857-.532.587-.871-.132-1.891-.132-1.891s1.003-.11 1.284-.931c.404-1.194-.57-1.913-.57-1.913"/><path stroke="#0E141B" stroke-linecap="round" stroke-linejoin="round" stroke-width="1.488" d="M10.396 83.997s-1.127-.174-1.709.671c-.467.676-.361 1.547.374 2.113 0 0-1.211.174-1.432 1.317-.123.633.076 1.42.926 1.862 0 0-.85.948-.259 2.014.357.642.927.918 1.756.833 0 0-.247 1.203.59 1.76.833.56 1.866-.115 1.866-.115s.145 1.432 1.564 1.373c.956-.043 1.466-.65 1.517-1.271 0 0 .455.969 1.581.689 1.13-.281 1.39-1.39 1.182-1.84 0 0 1.186.462 1.857-.532.587-.871-.132-1.891-.132-1.891s1.003-.11 1.284-.931c.404-1.194-.57-1.913-.57-1.913"/><path stroke="#0E141B" stroke-linecap="round" stroke-linejoin="round" stroke-width="1.488" d="M13.949 91.46c.17 1.11 1.011 1.798 2.023 1.198.82-.488.531-1.76.531-1.76"/><path fill="#F9D2D4" stroke="#0E141B" stroke-linecap="round" stroke-linejoin="round" stroke-width="1.488" d="M11.271 69.041s-.08-.476.493-.74c1.551-.718 4.042-1.665 8.424-2.001 4.632-.357 7.594 1.305 9.515 3.387 4.093 4.437 3.069 9.044-2.571 14.527-5.767 5.606-11.709 6.183-15.296 2.524-2.877-2.932-2.996-6.464-2.265-9.8.697-3.18 1.985-5.525 1.696-7.892l.004-.005Z"/><path fill="#EF8585" d="M18.615 81.609c-.374-.391-1.271-.136-2.367.918-1.16 1.113-1.39 1.938-1.016 2.324.374.391 1.13.268 2.367-.918 1.096-1.05 1.39-1.938 1.016-2.325ZM27.965 72.93c-.425-.434-1.356-.204-2.44.858-1.147 1.127-1.326 1.994-.9 2.427.424.434 1.219.34 2.439-.858 1.084-1.067 1.326-1.994.9-2.427Z"/><path fill="#fff" stroke="#0E141B" stroke-linecap="round" stroke-linejoin="round" stroke-width="1.488" d="M22.614 79.866c-1.36 1.203-2.206 1.602-3.026 2.422-.705.706-.68 1.726-.047 2.134.897.582 3.124-.14 5.258-2.163 1.916-1.81 2.694-3.647 2.52-4.743-.174-1.105-1.369-1.071-2.185-.306-.794.74-1.3 1.568-2.524 2.652l.004.004Z"/><path fill="#fff" d="M13.642 84.779s2.125-2.907 5.925-5.283c-.544-2.614-3.591-4.394-6.218-2.44-2.741 2.04-2.01 5.551.71 7.2"/><path stroke="#0E141B" stroke-linecap="round" stroke-linejoin="round" stroke-width="1.488" d="M13.642 84.779s2.125-2.907 5.925-5.283c-.544-2.614-3.591-4.394-6.218-2.44-2.741 2.04-2.01 5.551.71 7.2"/><path fill="#fff" stroke="#0E141B" stroke-linecap="round" stroke-linejoin="round" stroke-width="1.488" d="M20.515 70.44c1.878-2.364 5.244-1.87 6.931.862 0 0-2.456 1.947-4.891 5.56-2.249-.961-4.212-3.694-2.04-6.423Z"/><path fill="#0E141B" d="M14.956 80.67c1.368 0 1.368-2.126 0-2.126-1.369 0-1.369 2.125 0 2.125ZM22.737 73.427c1.369 0 1.369-2.125 0-2.125-1.368 0-1.368 2.125 0 2.125Z"/><path stroke="#0E141B" stroke-linecap="round" stroke-linejoin="round" stroke-width="1.488" d="M22.495 80.019s1.152 1.126 2.308 2.244M20.625 81.434s.761 1.284 1.67 2.623M24.238 78.23s1.13.965 2.375 1.823"/><path fill="#fff" d="M30.8 82.964c-3.264-5.023-7.438-8.895-7.438-8.895s.26-5.878 5.98-6.056c0 0 3.243 5.525 6.112 12.813 1.84 4.675 3.948 10.838 3.948 10.838"/><path stroke="#0E141B" stroke-linecap="round" stroke-linejoin="round" stroke-width="1.488" d="M30.8 82.964c-3.264-5.023-7.438-8.895-7.438-8.895s.26-5.878 5.98-6.056c0 0 3.243 5.525 6.112 12.813 1.84 4.675 3.948 10.838 3.948 10.838"/><path fill="#FFD900" stroke="#0E141B" stroke-linecap="round" stroke-linejoin="round" stroke-width="1.488" d="M29.244 61.383s1.637-.617.825-2.138c-.714-1.343-2.771-1.555-2.771-1.555s.871-1.411-.633-2.389c-1.51-.982-3.065-.14-3.065-.14s-.276-1.437-1.41-1.798c-2.283-.727-3.052 1.071-3.052 1.071-.374-.85-1.539-1.262-2.682-.926-1.717.505-1.509 1.942-1.509 1.942s-1.479-.646-2.72.365c-1.181.965-.582 2.453-.582 2.453s-1.547-.336-2.257 1.07c-.71 1.407.31 2.427.31 2.427s-1.895.608-1.942 2.712c-.046 2.103 1.556 1.56 1.556 1.56s-1.777 2.316-.438 3.922c.519.62 1.522.298 1.849-.386 0 0-.689 2.652.225 3.701.905 1.037 2.202.438 2.46-.556 0 0-.36 2.175 1.038 3.183 1.164.841 2.397-.357 2.138-1.653 0 0 .331 2.787 2.273 2.787 1.39 0 1.734-1.164 1.445-2.073 0 0 1.433 2.46 3.281 2.073 1.233-.259 1.581-1.423.583-2.851 0 0 2.137 2.529 3.497 1.521 1.36-1.007.455-2.448-.454-3.574 0 0 1.275 1.458 2.592.48 1.071-.794.582-2.444-.582-3.744 0 0 1.424.518 2.201-.714.778-1.233-.02-2.597-1.177-3.243 0 0 1.696-.093 1.488-1.763-.14-1.105-1.054-1.866-2.495-1.768l.008.004Z"/><path stroke="#0E141B" stroke-linecap="round" stroke-linejoin="round" stroke-width="1.488" d="M15.59 69.16c-.218 1.394.241 2.69 1.41 2.78 1.165.089 1.7-.884 1.7-2.07M24.263 60.652c1.403-.162 2.678.357 2.716 1.525.038 1.17-.956 1.662-2.142 1.611M22.83 69.356c.923 1.41 1.935 1.543 2.7 1.198 1.143-.518 1.19-2.023-.145-3.12M24.263 90.304s1.254 1.7 2.121 3.255"/><path fill="#fff" d="M78.145 94.014s-7.54.868-15.504-1.946l7.659-13.17 10.557 6.57-.532 5.197s-1.287 1.747-2.18 3.345"/><path stroke="#0E141B" stroke-linecap="round" stroke-linejoin="round" stroke-width="1.488" d="M80.325 90.665s-1.288 1.747-2.18 3.345"/><path fill="#FFD900" d="M90.326 83.602s1.27-.2 1.93.756c.526.765.407 1.751-.422 2.385 0 0 1.369.2 1.615 1.491.136.719-.089 1.603-1.045 2.104 0 0 .96 1.071.293 2.274-.4.722-1.045 1.037-1.985.943 0 0 .277 1.356-.667 1.99-.943.633-2.108-.128-2.108-.128s-.166 1.62-1.768 1.547c-1.084-.047-1.653-.735-1.717-1.437 0 0-.514 1.097-1.79.778-1.274-.319-1.572-1.568-1.338-2.078 0 0-1.339.523-2.1-.6-.662-.981.15-2.133.15-2.133s-1.135-.123-1.45-1.054c-.455-1.347.642-2.159.642-2.159"/><path stroke="#0E141B" stroke-linecap="round" stroke-linejoin="round" stroke-width="1.488" d="M90.326 83.602s1.27-.2 1.93.756c.526.765.407 1.751-.422 2.385 0 0 1.369.2 1.615 1.491.136.719-.089 1.603-1.045 2.104 0 0 .96 1.071.293 2.274-.4.722-1.045 1.037-1.985.943 0 0 .277 1.356-.667 1.99-.943.633-2.108-.128-2.108-.128s-.166 1.62-1.768 1.547c-1.084-.047-1.653-.735-1.717-1.437 0 0-.514 1.097-1.79.778-1.274-.319-1.572-1.568-1.338-2.078 0 0-1.339.523-2.1-.6-.662-.981.15-2.133.15-2.133s-1.135-.123-1.45-1.054c-.455-1.347.642-2.159.642-2.159"/><path stroke="#0E141B" stroke-linecap="round" stroke-linejoin="round" stroke-width="1.488" d="M86.632 93.113c-.191 1.254-1.143 2.032-2.286 1.352-.927-.553-.6-1.99-.6-1.99"/><path fill="#fff" stroke="#0E141B" stroke-linecap="round" stroke-linejoin="round" stroke-width="1.488" d="M91.23 69.292c2.22 2.087 4.561 6.001 3.477 10.642-.65 2.792-2.58 5.542-5.75 7.357-2.21 1.266-3.043 1.28-4.513 2.163-1.688-.008-5.207-.055-7.174-1.19-9.091-5.257-8.95-14.637-1.68-20.345 4.51-3.54 11.234-2.766 15.64 1.373Z"/><path stroke="#0E141B" stroke-linecap="round" stroke-linejoin="round" stroke-width="2.019" d="M93.127 77.95c-.867-.583-1.143-.817-2.096-1.454"/><path stroke="#0E141B" stroke-linecap="round" stroke-linejoin="round" stroke-width="2.125" d="M84.304 71.544s-.842-.913-2.257-2.388"/><path fill="#0E141B" d="M89.335 79.314a1.007 1.007 0 0 0 .379 1.385c.425.255.943.115 1.24-.28.324-.438.294-1-.195-1.373-.395-.302-1.054-.379-1.424.267ZM80.27 72.229c-.263.463-.263 1.007.328 1.364.454.276 1.075.285 1.36-.166.28-.45.25-.939-.12-1.317-.39-.4-1.177-.57-1.568.119Z"/><path fill="#FABE00" d="M88.915 87.911c1.037 1.943-.667 3.294-2.32 3.235-1.11-.039-5.683-2.079-9.614-5.173-3.34-2.63-5.343-5.083-5.716-6.625-.51-2.091-.128-3.235.926-4.484 1.53-1.815 3.451-2.333 5.542-1.092 1.054.624 2.044 2.201 3.073 2.979 1.143-1.386 2.94-1.845 4.892-.497 1.976 1.364 2.048 3.697.905 5.214 1.76 1.624 3.723 2.04 4.798 2.89 1.31 1.037 1.356 2.206.825 3.04-.923 1.444-2.618.773-3.311.505-2.984-1.156-9.546-5.16-13.188-10.073"/><path stroke="#0E141B" stroke-linecap="round" stroke-linejoin="round" stroke-width="1.488" d="M88.915 87.911c1.037 1.943-.667 3.294-2.32 3.235-1.11-.039-5.683-2.079-9.614-5.173-3.34-2.63-5.343-5.083-5.716-6.625-.51-2.091-.128-3.235.926-4.484 1.53-1.815 3.451-2.333 5.542-1.092 1.054.624 2.044 2.201 3.073 2.979 1.143-1.386 2.94-1.845 4.892-.497 1.976 1.364 2.048 3.697.905 5.214 1.76 1.624 3.723 2.04 4.798 2.89 1.31 1.037 1.356 2.206.825 3.04-.923 1.444-2.618.773-3.311.505-2.984-1.156-9.546-5.16-13.188-10.073"/><path fill="#0E141B" d="M84.278 79.42c-.22.34-.191.837.247 1.113a.76.76 0 0 0 1.024-.2c.234-.33.26-.828-.098-1.1-.314-.242-.846-.323-1.173.183M82.187 77.856a.797.797 0 0 0 .25 1.135.773.773 0 0 0 1.042-.204c.238-.336.315-.808-.098-1.118-.323-.242-.858-.328-1.194.187Z"/><path fill="#fff" d="M71.175 83.797c2.384-6.183 8.139-10.2 8.139-10.2s-.391-6.064-6.269-6.247c0 0-4.122 5.096-6.927 13.579-1.62 4.9-2.703 11.139-2.703 11.139"/><path stroke="#0E141B" stroke-linecap="round" stroke-linejoin="round" stroke-width="1.488" d="M71.175 83.797c2.384-6.183 8.139-10.2 8.139-10.2s-.391-6.064-6.269-6.247c0 0-4.122 5.096-6.927 13.579-1.62 4.9-2.703 11.139-2.703 11.139"/><path fill="#FFD900" stroke="#0E141B" stroke-linecap="round" stroke-linejoin="round" stroke-width="1.488" d="M70.482 62.866s-1.76-.442-1.1-2.108c.577-1.47 2.673-1.93 2.673-1.93s-1.063-1.35.37-2.532c1.436-1.186 3.14-.502 3.14-.502s.115-1.513 1.241-2.019c2.265-1.015 3.268.744 3.268.744.285-.922 1.441-1.479 2.657-1.266 1.827.318 1.78 1.827 1.78 1.827s1.45-.837 2.848.06c1.33.854.888 2.46.888 2.46s1.556-.527 2.448.842c.897 1.364-.038 2.537-.038 2.537s2.023.404 2.32 2.563c.298 2.159-1.42 1.79-1.42 1.79s2.1 2.18.915 3.99c-.464.701-1.535.484-1.951-.183 0 0 1.02 2.652.2 3.838-.812 1.173-2.219.71-2.601-.285 0 0 .629 2.197-.697 3.404-1.105 1.003-2.512-.085-2.397-1.453 0 0-.017 2.911-2.015 3.136-1.432.162-1.92-.998-1.734-1.967 0 0-1.19 2.707-3.136 2.52-1.3-.123-1.798-1.284-.935-2.869 0 0-1.909 2.856-3.426 1.98-1.521-.875-.752-2.469.047-3.735 0 0-1.143 1.653-2.614.795-1.194-.693-.888-2.448.162-3.927 0 0-1.407.7-2.355-.476-.948-1.178-.28-2.678.833-3.481 0 0-1.76.102-1.738-1.645.013-1.156.867-2.044 2.367-2.112v.004Z"/><path stroke="#0E141B" stroke-linecap="round" stroke-linejoin="round" stroke-width="1.488" d="M87.078 66.785c.94 1.117 1.228 2.52.238 3.221-.986.706-1.984.128-2.618-.926M74.817 63.886c-1.33.608-2.185 1.751-1.594 2.81.59 1.058 1.738.964 2.763.284M80.754 70.84c-.064 1.746-.888 2.405-1.75 2.51-1.293.154-2.143-1.155-1.544-2.847M13.766 53.673s1.13 1.828 1.721 2.878M15.53 51.999s1.585 2.626 2.414 4.135M85.178 52.475s-1.037 2.384-1.678 3.693M87.414 53.295s-1.258 2.797-2.027 4.34M34.977 40.617s.451 1.743.74 3.17M39.415 39.946s.335 1.602.535 2.915M37.064 39.512s.706 2.984 1.033 4.675M55.454 30.596s-.157 2.205-.306 3.659M57.838 30.6s-.22 3.06-.416 4.769M73.648 40.18s-.986 2.405-1.594 3.73M74.783 43.036s-1.194 2.826-1.93 4.381"/><path fill="#FFD900" stroke="#0E141B" stroke-linecap="round" stroke-linejoin="round" stroke-width="1.488" d="M17.773 31.888a7.422 7.422 0 0 1-2.787-.553c-2.534-1.028-4.412-3.187-5.151-5.924-.63-2.32-.285-4.641.917-6.201 1.569-2.036 3.906-2.984 6.405-2.597a2.01 2.01 0 0 1 1.679 2.29 2.01 2.01 0 0 1-2.29 1.68c-.727-.11-1.769-.017-2.614 1.08-.353.454-.557 1.47-.226 2.702.196.718.854 2.47 2.784 3.251 1.61.655 2.767.03 3.264-.7.144-.213.361-.634.297-1.17a10.16 10.16 0 0 0-.573.357 2.006 2.006 0 1 1-2.21-3.349c1.466-.969 2.75-1.457 2.89-1.508a2.008 2.008 0 0 1 2.154.501c2.028 2.138 2.334 5.121.757 7.433-1.194 1.751-3.175 2.712-5.3 2.712l.005-.004ZM29.537 23.842c-2.669 0-4.942-1.572-5.937-4.11-.722-1.84-.671-3.854.136-5.52a5.775 5.775 0 0 1 3.574-3.056 6.635 6.635 0 0 1 1.917-.289c2.673 0 4.862 1.62 5.86 4.33.68 1.845.592 3.843-.246 5.483-.735 1.45-1.972 2.482-3.48 2.912a6.627 6.627 0 0 1-1.824.255v-.005Zm-.31-8.963a2.6 2.6 0 0 0-.765.12 1.782 1.782 0 0 0-1.118.968c-.323.663-.327 1.5-.012 2.3.535 1.36 1.61 1.563 2.205 1.563.247 0 .49-.034.727-.102.54-.153.846-.556 1.003-.87.327-.647.349-1.476.055-2.275-.284-.777-.88-1.704-2.095-1.704Z"/><path fill="#fff" stroke="#0E141B" stroke-linecap="round" stroke-linejoin="round" stroke-width="1.488" d="M17.144 31.042a7.422 7.422 0 0 1-2.788-.553c-2.533-1.028-4.411-3.187-5.15-5.924-.63-2.32-.285-4.641.917-6.2 1.569-2.037 3.906-2.984 6.405-2.598a2.01 2.01 0 0 1 1.679 2.291 2.01 2.01 0 0 1-2.29 1.679c-.728-.11-1.769-.017-2.615 1.08-.352.454-.556 1.47-.22 2.702.195.719.854 2.47 2.783 3.252 1.61.654 2.767.03 3.264-.702.145-.212.361-.633.298-1.168a10.16 10.16 0 0 0-.574.357 2.006 2.006 0 1 1-2.21-3.349c1.466-.97 2.75-1.458 2.89-1.51a2.008 2.008 0 0 1 2.155.502c2.027 2.138 2.333 5.122.756 7.434-1.194 1.75-3.175 2.711-5.3 2.711v-.004ZM28.904 22.997c-2.669 0-4.943-1.573-5.937-4.11-.723-1.84-.672-3.855.136-5.52a5.775 5.775 0 0 1 3.574-3.057 6.635 6.635 0 0 1 1.917-.289c2.673 0 4.862 1.62 5.86 4.331.68 1.845.591 3.842-.246 5.483-.735 1.449-1.972 2.482-3.48 2.911a6.627 6.627 0 0 1-1.824.255v-.004Zm-.31-8.963a2.6 2.6 0 0 0-.765.118 1.782 1.782 0 0 0-1.118.97c-.323.662-.327 1.5-.013 2.299.536 1.36 1.611 1.564 2.206 1.564.247 0 .489-.034.727-.102.54-.153.846-.557 1.003-.871.327-.646.348-1.475.055-2.274-.285-.778-.88-1.704-2.095-1.704Z"/><path fill="#FFD900" stroke="#0E141B" stroke-linecap="round" stroke-linejoin="round" stroke-width="1.488" d="M66.606 24.803a7.517 7.517 0 0 1-1.33-2.55c-.795-2.648-.28-5.5 1.41-7.82 1.433-1.968 3.482-3.166 5.48-3.204 2.6-.051 4.827 1.19 6.106 3.408a2.034 2.034 0 0 1-.743 2.775 2.03 2.03 0 0 1-2.776-.743c-.37-.646-1.109-1.407-2.511-1.377-.583.012-1.513.493-2.274 1.538-.442.608-1.407 2.24-.803 4.259.505 1.687 1.73 2.201 2.622 2.133.26-.021.727-.115 1.11-.506-.2-.076-.417-.153-.643-.23a2.03 2.03 0 1 1 1.246-3.862c1.695.544 2.89 1.25 3.021 1.326a2.031 2.031 0 0 1 .97 2.018c-.4 2.954-2.568 5.088-5.385 5.309-2.138.165-4.153-.787-5.5-2.465v-.009ZM80.41 28.99c-1.691-2.104-1.891-4.9-.523-7.293.995-1.739 2.614-2.976 4.446-3.392a5.872 5.872 0 0 1 4.679.884 6.838 6.838 0 0 1 1.44 1.33c1.692 2.108 1.807 4.867.298 7.37-1.024 1.704-2.66 2.898-4.48 3.28-1.61.337-3.208.014-4.504-.904a6.674 6.674 0 0 1-1.356-1.28v.005Zm6.877-5.925a2.561 2.561 0 0 0-.579-.527 1.832 1.832 0 0 0-1.474-.268c-.727.166-1.39.693-1.823 1.45-.736 1.283-.213 2.26.161 2.728.157.195.336.366.54.51.463.332.973.315 1.322.242.718-.148 1.385-.659 1.831-1.398.434-.718.787-1.772.017-2.733l.005-.004Z"/><path fill="#fff" stroke="#0E141B" stroke-linecap="round" stroke-linejoin="round" stroke-width="1.488" d="M66.903 23.894a7.517 7.517 0 0 1-1.33-2.55c-.795-2.648-.28-5.5 1.411-7.82 1.432-1.968 3.48-3.167 5.478-3.205 2.601-.05 4.828 1.19 6.108 3.409a2.034 2.034 0 0 1-.744 2.775 2.03 2.03 0 0 1-2.775-.744c-.37-.646-1.11-1.407-2.512-1.377-.582.013-1.513.493-2.274 1.539-.442.607-1.407 2.24-.803 4.258.506 1.687 1.73 2.202 2.622 2.134.26-.022.727-.115 1.11-.506-.2-.077-.417-.153-.642-.23a2.03 2.03 0 1 1 1.245-3.863c1.696.544 2.89 1.25 3.022 1.326a2.028 2.028 0 0 1 .969 2.015c-.4 2.953-2.567 5.087-5.385 5.308-2.138.166-4.152-.786-5.5-2.465v-.004ZM80.708 28.08c-1.692-2.104-1.892-4.9-.523-7.293.994-1.738 2.614-2.975 4.445-3.392a5.872 5.872 0 0 1 4.68.884 6.838 6.838 0 0 1 1.44 1.33c1.692 2.108 1.807 4.867.298 7.37-1.024 1.704-2.66 2.899-4.48 3.281-1.61.336-3.208.013-4.505-.905a6.674 6.674 0 0 1-1.355-1.28v.005Zm6.876-5.925a2.561 2.561 0 0 0-.578-.527 1.832 1.832 0 0 0-1.475-.268c-.726.166-1.39.693-1.823 1.45-.735 1.283-.212 2.26.162 2.728.157.196.335.366.54.51.463.332.973.315 1.321.243.718-.15 1.386-.66 1.832-1.399.433-.718.786-1.772.017-2.732l.004-.005Z"/></g><defs><clipPath id="a"><path fill="#fff" d="M4.675 4.675h92.854v93.037H4.675z"/></clipPath></defs></svg>