<svg xmlns="http://www.w3.org/2000/svg" width="102" height="102" fill="none"><g clip-path="url(#a)"><path fill="#EF8585" d="m35.396 15.869 2.904-1.005 1.407 4.172-2.486.655-1.825-3.822Z"/><path fill="#ADDEF5" d="m17.064 7.365 2.49-.865 1.389 3.263-2.315.873-1.564-3.271Z"/><path fill="#3C8B48" d="m71.535 19.044 1.656-2.066 1.756 2.792-1.826 1.869-1.586-2.595Z"/><path fill="#EF8585" d="m91.2 10.361 1.306-3.206 2.11.62-.91 3.617L91.2 10.36Z"/><path fill="#ADDEF5" d="m90.182 41.237 1.926-2.812 1.813 1.869-1.652 2.77-2.087-1.827Z"/><path fill="#FFE36A" d="m72.156 47.213 2.79-1.678 1.14 2.861-2.843 1.664-1.087-2.847Z"/><path fill="#ADDEF5" d="m5.764 75.359 1.573-2.46 2.808 1.696-2.079 2.708-2.302-1.944Z"/><path fill="#3C8B48" d="m7.131 27.142 2.687-3.07 1.965 3.07L8.94 29.47 7.13 27.142Z"/><path fill="#0E141B" d="M90.81 92.464c0 .712-1.144.991-2.113.991-1.713 0-2.376-.393-2.376-.878 0-.699 1.406-.878 2.376-.878s2.114.28 2.114.765ZM69.395 92.93c0 .844-2.083.997-3.306.997-2.158 0-3.42-.468-3.372-1.118.06-.8 2.1-.878 3.324-.878 1.223 0 3.354.174 3.354.996v.004ZM41.205 92.883c0 1.376-3.494 1.201-5.29 1.201-3.17 0-4.948-.673-4.904-1.324.074-1.074 3.04-1.074 4.835-1.074s5.36.201 5.36 1.201v-.004Z"/><path fill="#fff" d="M71.44 74.062c1.017.41 2.751 1.952 2.14 4.014-.219.738-.245.529-1.743 1.306 0 0-.258 3.023-.18 4.32 0 0 2.329-.795 2.639.882.231 1.263-.979 2.472-3.158 2.481-1.118 0-2.656-.66-4.11-.996-2.066-.476-3.433-.603-5.137-.476-1.25.092-1.398 1.158-2.52 1.345-.686.114-1.455-.13-1.835-.79-.436-.764.035-2.35 1.315-3.202 1.153-.764 1.896-.694 1.896-.694.467-1.066.166-2.52.166-2.52s-1.289.598-2.106-.228c-1.677-1.703.236-5.184 3.608-4.796"/><path stroke="#0E141B" stroke-linecap="round" stroke-linejoin="round" stroke-width="1.31" d="M71.44 74.062c1.017.41 2.751 1.952 2.14 4.014-.219.738-.245.529-1.743 1.306 0 0-.258 3.023-.18 4.32 0 0 2.329-.795 2.639.882.231 1.263-.979 2.472-3.158 2.481-1.118 0-2.656-.66-4.11-.996-2.066-.476-3.433-.603-5.137-.476-1.25.092-1.398 1.158-2.52 1.345-.686.114-1.455-.13-1.835-.79-.436-.764.035-2.35 1.315-3.202 1.153-.764 1.896-.694 1.896-.694.467-1.066.166-2.52.166-2.52s-1.289.598-2.106-.228c-1.677-1.703.236-5.184 3.608-4.796"/><path fill="#F6AC1A" d="M48.534 79.526s1.743-1.385 3.106.214c1.873 2.193.021 5.202-2.093 6.146-3.612 1.62-7.512.69-12.343-1.992-1.874-1.04-4.241-1.24-7.076-.76-2.263.384-3.337 1.302-5.35 2.988-1.412 1.183-3.753.934-4.967-.25-1.686-1.642-1.175-4.909 1.337-7.403 1.467-1.459 3.516-2.607 6.556-3.215.297-2.18-.018-6.42-.48-6.556-1.621-.489-5.015-1.323-7.343-2.891-3.717-2.503-5.412-6.71-5.412-9.623 0-2.913.516-6.176 3.74-6.333 5.07-.249 3.502 6.255 4.769 8.308.904 1.467 2.987 3.607 2.987 3.607 1.04-2.694 14.794-.677 18.66.407 3.32.93 4.69 3.32 5.023 6.36.681 6.232-1.468 12.09-1.459 12.055"/><path stroke="#0E141B" stroke-linecap="round" stroke-linejoin="round" stroke-width="1.529" d="M48.534 79.526s1.743-1.385 3.106.214c1.873 2.193.021 5.202-2.093 6.146-3.612 1.62-7.512.69-12.343-1.992-1.874-1.04-4.241-1.24-7.076-.76-2.263.384-3.337 1.302-5.35 2.988-1.412 1.183-3.753.934-4.967-.25-1.686-1.642-1.175-4.909 1.337-7.403 1.467-1.459 3.516-2.607 6.556-3.215.297-2.18-.018-6.42-.48-6.556-1.621-.489-5.015-1.323-7.343-2.891-3.717-2.503-5.412-6.71-5.412-9.623 0-2.913.516-6.176 3.74-6.333 5.07-.249 3.502 6.255 4.769 8.308.904 1.467 2.987 3.607 2.987 3.607 1.04-2.694 14.794-.677 18.66.407 3.32.93 4.69 3.32 5.023 6.36.681 6.232-1.468 12.09-1.459 12.055"/><path fill="#fff" d="M39.716 66.466s1.459 1.228 1.9 3.499c.51 2.63.022 4.709-.852 5.988-.825 1.215-2.223 2.503-4.639 2.503-2.415 0-4.498-1.188-5.49-2.765-.935-1.494-.965-4.551-.467-6.22.458-1.533 1.655-2.804 2.005-3.088l1.86 2.093 1.944-2.093 2.066 1.988s.65-.642 1.673-1.905Z"/><path fill="#5BC2DC" d="M46.63 36.158s11.868-5.076 12.837-4.333c.97.743-4.394 12.396-4.394 12.396l-8.443-8.063Z"/><path stroke="#FFE36A" stroke-linecap="round" stroke-linejoin="round" stroke-width="1.529" d="M52.356 33.843s2.416 4.76 3.324 9.041M55.981 32.528s1.446 2.538 1.752 5.53"/><path stroke="#0E141B" stroke-linecap="round" stroke-linejoin="round" stroke-width="1.529" d="M46.63 36.158s11.868-5.076 12.837-4.333c.97.743-4.394 12.396-4.394 12.396l-8.443-8.063Z"/><path fill="#fff" stroke="#0E141B" stroke-linecap="round" stroke-linejoin="round" stroke-width="1.529" d="M62.328 31.296c0 1.17-.681 1.839-1.839 1.839-1.258 0-1.839-.668-1.839-1.839 0-1.013.603-1.839 1.839-1.839s1.839.677 1.839 1.84Z"/><path fill="#F6AC1A" d="M35.518 34.655c-.04-1.991-1.384-5.224-5.119-4.477-3.708.738-3.582 4.635-2.73 5.98"/><path stroke="#0E141B" stroke-linecap="round" stroke-linejoin="round" stroke-width="1.529" d="M35.518 34.655c-.04-1.991-1.384-5.224-5.119-4.477-3.708.738-3.582 4.635-2.73 5.98"/><path fill="#F6AC1A" stroke="#0E141B" stroke-linecap="round" stroke-linejoin="round" stroke-width="1.529" d="M20.85 47.632C22.153 36.848 31.217 31.52 40.896 32.69c9.369 1.13 17.222 8.369 15.903 19.288-1.323 10.959-10.57 15.235-19.94 14.104-9.22-1.114-17.33-7.491-16.003-18.45h-.004Z"/><path fill="#0E141B" d="M41.768 43.443s2.988.245 6.25.782l-6.25-.782Z"/><path stroke="#0E141B" stroke-linecap="round" stroke-linejoin="round" stroke-width="1.966" d="M41.768 43.443s2.988.245 6.25.782"/><path fill="#fff" d="M34.854 50.414c-2.288-1.122-4.258.035-4.616 1.603-.293 1.28.668 2.757 2.035 2.992 1.751.302 2.538-.362 2.747-1.188.184.948 1.049 1.896 2.573 1.94 1.398.04 2.63-.62 2.913-2.189.289-1.58-1.175-3.664-4.114-2.904l-.83.24"/><path stroke="#0E141B" stroke-linecap="round" stroke-linejoin="round" stroke-width="1.529" d="M34.854 50.414c-2.288-1.122-4.258.035-4.616 1.603-.293 1.28.668 2.757 2.035 2.992 1.751.302 2.538-.362 2.747-1.188.184.948 1.049 1.896 2.573 1.94 1.398.04 2.63-.62 2.913-2.189.289-1.58-1.175-3.664-4.114-2.904l-.83.24"/><path fill="#0E141B" d="M26.665 41.653s2.817.222 6.075.76l-6.075-.76Z"/><path stroke="#0E141B" stroke-linecap="round" stroke-linejoin="round" stroke-width="1.966" d="M26.665 41.653s2.817.222 6.075.76"/><path fill="#0E141B" d="M33.867 49.938c-.192.655.612 2.184 1.494 2.285.795.091 1.87-.957 2.097-1.861.266-1.057-3.053-2.24-3.59-.424ZM30.858 46.379a1.33 1.33 0 0 1-1.486 1.161 1.33 1.33 0 0 1-1.161-1.485 1.33 1.33 0 0 1 1.485-1.161 1.33 1.33 0 0 1 1.162 1.485ZM45.512 48.152a1.33 1.33 0 0 1-1.486 1.162 1.33 1.33 0 0 1-1.161-1.485 1.33 1.33 0 0 1 1.485-1.162 1.33 1.33 0 0 1 1.162 1.485Z"/><path fill="#FDCF0C" stroke="#0E141B" stroke-linecap="round" stroke-linejoin="round" stroke-width="1.529" d="M23.864 62.43h-.06c-5.024-.223-7.959-1.437-8.98-3.7-1.171-2.598.93-5.245 1.021-5.359a1.332 1.332 0 0 1 2.075 1.669c-.026.035-1.158 1.524-.664 2.603.258.559 1.42 1.891 6.665 2.127a1.33 1.33 0 0 1-.057 2.66Z"/><path fill="#FDCF0C" d="M9.874 47.697s2.669 4.128 5.574 4.325c3.24.218 17.405 1.122 19.052 1.393 1.647.27 1.346 3.044-.266 2.992-1.612-.057-15.423-1.053-18.891-1.219-1.511-.074-3.377.302-6.395 3.206"/><path stroke="#0E141B" stroke-linecap="round" stroke-linejoin="round" stroke-width="1.529" d="M9.874 47.697s2.669 4.128 5.574 4.325c3.24.218 17.405 1.122 19.052 1.393 1.647.27 1.346 3.044-.266 2.992-1.612-.057-15.423-1.053-18.891-1.219-1.511-.074-3.377.302-6.395 3.206"/><path fill="#FDCF0C" stroke="#0E141B" stroke-linecap="round" stroke-linejoin="round" stroke-width="1.529" d="M10.285 53.03c-.223 3.368-.856 5.867-2.468 5.94-2.053.093-2.201-3-1.978-6.363.222-3.368.838-5.927 2.79-5.827 1.713.088 1.879 2.883 1.656 6.25Z"/><path fill="#CA3F36" stroke="#0E141B" stroke-linecap="round" stroke-linejoin="round" stroke-width="1.31" d="m61.437 80.111.105 3.634c0 1.14 1.865 2.097 4.166 2.097 2.302 0 4.167-.987 4.167-2.097l.105-3.634h-8.543Z"/><path fill="#fff" stroke="#0E141B" stroke-linecap="round" stroke-linejoin="round" stroke-width="1.31" d="M69.976 80.111c0 1.105-1.913 1.8-4.267 1.8-2.355 0-4.268-.664-4.268-1.8 0-1.135 1.913-1.8 4.268-1.8 2.354 0 4.267.695 4.267 1.8Z"/><path fill="#F9D2D4" stroke="#0E141B" stroke-linecap="round" stroke-linejoin="round" stroke-width="1.31" d="M64.717 58.062s.21-.358.725-.205c1.385.415 4.42 1.485 7.347 3.844 2.953 2.38 4.136 4.652 4.01 7.39-.153 3.206-1.407 5.124-3.774 6.312-1.581.795-3.425 1.11-6.163 1.122-3.005.013-5.093-.266-6.836-.843-2.909-.965-4.446-2.817-4.639-5.634-.244-3.582 1.717-5.927 4.014-7.714 2.189-1.699 4.202-2.538 5.316-4.267v-.005Z"/><path fill="#fff" d="M58.004 67.986s-.245-4.031 3.271-3.887c3.538.144 2.722 4.206 2.722 4.206"/><path stroke="#0E141B" stroke-linecap="round" stroke-linejoin="round" stroke-width="1.31" d="M58.004 67.986s-.245-4.031 3.271-3.887c3.538.144 2.722 4.206 2.722 4.206"/><path fill="#0E141B" d="M61.24 66.982c-.03 0-.065 0-.096-.005a.8.8 0 1 1 .193-1.59.801.801 0 0 1-.092 1.599l-.005-.004Z"/><path fill="#F9D2D4" d="M57.37 68.012s2.91-.214 6.627.289l-6.626-.289Z"/><path stroke="#0E141B" stroke-linecap="round" stroke-linejoin="round" stroke-width="1.31" d="M57.37 68.012s2.91-.214 6.627.289"/><path fill="#fff" d="M73.772 68.323s.524-4.355-3.193-4.355c-4.093 0-3.53 4.376-3.53 4.376"/><path stroke="#0E141B" stroke-linecap="round" stroke-linejoin="round" stroke-width="1.31" d="M73.772 68.323s.524-4.355-3.193-4.355c-4.093 0-3.53 4.376-3.53 4.376"/><path fill="#0E141B" d="M69.954 66.96c-.03 0-.065 0-.096-.004a.8.8 0 1 1 .73-1.289.802.802 0 0 1-.63 1.297l-.004-.004Z"/><path fill="#F9D2D4" d="M74.305 68.393s-3.552-.546-7.255-.049l7.255.049Z"/><path stroke="#0E141B" stroke-linecap="round" stroke-linejoin="round" stroke-width="1.31" d="M74.305 68.393s-3.552-.546-7.255-.049"/><path fill="#fff" stroke="#0E141B" stroke-linecap="round" stroke-linejoin="round" stroke-width="1.31" d="M66.408 71.769c-.066 1.118-.48 1.865-1.092 1.865-.8 0-1.049-.834-1-1.865.052-1.14.493-1.874 1.105-1.874.725 0 1.057.655.987 1.874Z"/><path stroke="#0E141B" stroke-linecap="round" stroke-linejoin="round" stroke-width=".874" d="m62.31 84.946 1.237-3.254 1.153 4.084 1.507-3.865 1.703 3.599 1.114-4.22"/><path fill="#009A3E" stroke="#0E141B" stroke-linecap="round" stroke-linejoin="round" stroke-width="1.201" d="M86.107 73.953s-.066-1.45-1.197-1.394c-.8.04-1.441.835-.974 3.298.472 2.463 1.332 4.031 1.332 4.031l2.21-1.078-1.371-4.857Z"/><path fill="#009A3E" d="M93.34 79.294c-.538 2.612-1.075 4.023-.961 4.709 0 0-.096.249.642.328.607.065 1.044.629.996 1.275-.053.76-.673 1.096-1.512 1.144-.777.044-1.611-.135-2.371-.781-1.127-.961-1.913-.905-2.67-.905-1.039 0-1.275.223-1.825.603-.948.664-2.079.184-2.245-.672-.148-.756.52-1.538 1.075-1.857.642-.376 1.157-.41 1.157-.41s.11-1.171-.079-2.56c-.939-.017-2.079.105-2.476-1.005-.236-.66.367-1.266.367-1.266-.546-.271-.778-1.1-.446-1.817.511-1.092 2.363-.87 2.363-.87s.04-.506.529-1.236c.489-.729 1.188-1.402 2.734-1.616 2.328-.323 4.184 1.429 4.595 2.866"/><path stroke="#0E141B" stroke-linecap="round" stroke-linejoin="round" stroke-width="1.201" d="M93.34 79.294c-.538 2.612-1.075 4.023-.961 4.709 0 0-.096.249.642.328.607.065 1.044.629.996 1.275-.053.76-.673 1.096-1.512 1.144-.777.044-1.611-.135-2.371-.781-1.127-.961-1.913-.905-2.67-.905-1.039 0-1.275.223-1.825.603-.948.664-2.079.184-2.245-.672-.148-.756.52-1.538 1.075-1.857.642-.376 1.157-.41 1.157-.41s.11-1.171-.079-2.56c-.939-.017-2.079.105-2.476-1.005-.236-.66.367-1.266.367-1.266-.546-.271-.778-1.1-.446-1.817.511-1.092 2.363-.87 2.363-.87s.04-.506.529-1.236c.489-.729 1.188-1.402 2.734-1.616 2.328-.323 4.184 1.429 4.595 2.866"/><path fill="#fff" d="M84.888 77.888s.083-1.35.782-1.376c.751-.03.72 1.39.72 1.39"/><path stroke="#0E141B" stroke-linecap="round" stroke-linejoin="round" stroke-width=".874" d="M84.888 77.888s.083-1.35.782-1.376c.751-.03.72 1.39.72 1.39"/><path stroke="#0E141B" stroke-linecap="round" stroke-linejoin="round" stroke-width=".983" d="m83.438 77.897 3.485.052"/><path fill="#FFD900" stroke="#0E141B" stroke-linecap="round" stroke-linejoin="round" stroke-width=".983" d="M87.072 75.718s.437-1.682 2.079-1.665c1.66.022 2.035 1.617 2.035 1.617s-.41 1.471-2.092 1.467c-1.502 0-2.022-1.424-2.022-1.424v.005Z"/><path stroke="#0E141B" stroke-linecap="round" stroke-linejoin="round" stroke-width=".983" d="m89.151 74.058-.057 3.083"/><path stroke="#0E141B" stroke-linecap="round" stroke-linejoin="round" stroke-width="1.201" d="M86.203 80.168h-.655"/><path fill="#009A3E" d="M86.513 82.614c-.407.057-.887.114-.887.114l.887-.114Z"/><path stroke="#0E141B" stroke-linecap="round" stroke-linejoin="round" stroke-width="1.201" d="M86.513 82.614c-.407.057-.887.114-.887.114M87.63 63.584c.647 1.69 1.949 3.328 1.949 3.328s1.804-1.24 2.69-3.198"/><path fill="#FDCF0C" stroke="#0E141B" stroke-linecap="round" stroke-linejoin="round" stroke-width="1.201" d="M82.936 66.475c.384-.249 2.428.118 6.643.432 4.232.32 6.325.293 6.635.564.48.428-.083 4.992-.41 5.455-.258.367-4.045-.122-6.823-.336-3.827-.293-6.325-.389-6.452-.66-.227-.48.013-5.197.41-5.455h-.003Z"/><path fill="#8E8F8F" stroke="#0E141B" stroke-linecap="round" stroke-linejoin="round" stroke-width="1.201" d="M94.602 70.061c-.109 1.472-.952 1.765-1.96 1.686a1.824 1.824 0 0 1-1.687-1.961 1.826 1.826 0 0 1 1.961-1.686c1.01.074 1.795.51 1.686 1.961ZM87.836 69.686c-.113 1.493-.965 1.786-1.987 1.712a1.854 1.854 0 1 1 .275-3.7c1.022.079 1.821.516 1.712 1.988Z"/><path fill="#009A3E" d="M90.763 79.006s.166-1.415.493-3.774c.25-1.79.891-2.581 1.883-2.406.856.153 1.11 1.048.856 2.677-.21 1.354-.358 2.197-.655 3.791"/><path stroke="#0E141B" stroke-linecap="round" stroke-linejoin="round" stroke-width="1.201" d="M90.763 79.006s.166-1.415.493-3.774c.25-1.79.891-2.581 1.883-2.406.856.153 1.11 1.048.856 2.677-.21 1.354-.358 2.197-.655 3.791"/><path fill="#fff" d="M71.658 83.697s.004.188 0 .472v-.472Z"/><path stroke="#0E141B" stroke-linecap="round" stroke-linejoin="round" stroke-width="1.31" d="M71.658 83.697s.004.188 0 .472"/><path fill="#F6AC1A" d="M42.751 73.022c-3.429.297-11.282-.607-16.397-7.342-2.616-3.446-3.324-6.224-3.332-9.133-.01-2.992 2.227-4.15 4.114-4.001 3.59.28 4.311 5.315 5.508 7.403 4.39 7.657 11.915 5.77 11.915 5.77"/><path stroke="#0E141B" stroke-linecap="round" stroke-linejoin="round" stroke-width="1.529" d="M42.751 73.022c-3.429.297-11.282-.607-16.397-7.342-2.616-3.446-3.324-6.224-3.332-9.133-.01-2.992 2.227-4.15 4.114-4.001 3.59.28 4.311 5.315 5.508 7.403 4.39 7.657 11.915 5.77 11.915 5.77"/><path stroke="#0E141B" stroke-linecap="round" stroke-linejoin="round" stroke-width="1.31" d="m71.938 73.612-5.246 5.29M59.253 73.442l5.11 5.547"/><path fill="#fff" d="M61.197 77.054s2.087-1.573 2.965-.232c.428.656.166 1.477-.45 1.962a6.646 6.646 0 0 1-2.149 1.144c-.68.218-2.04.34-2.751-.432"/><path stroke="#0E141B" stroke-linecap="round" stroke-linejoin="round" stroke-width="1.31" d="M61.197 77.054s2.087-1.573 2.965-.232c.428.656.166 1.477-.45 1.962a6.646 6.646 0 0 1-2.149 1.144c-.68.218-2.04.34-2.751-.432"/><path fill="#fff" d="M73.58 78.072c-.38 1.624-2.154 1.983-3.08 1.878-1.541-.18-3.778-1.105-3.769-2.604 0-1.065 1.162-1.734 2.25-1.061.93.572 1.755.555 1.755.555"/><path stroke="#0E141B" stroke-linecap="round" stroke-linejoin="round" stroke-width="1.31" d="M73.58 78.072c-.38 1.624-2.154 1.983-3.08 1.878-1.541-.18-3.778-1.105-3.769-2.604 0-1.065 1.162-1.734 2.25-1.061.93.572 1.755.555 1.755.555"/></g><defs><clipPath id="a"><path fill="#fff" d="M5 6.5h92v87.593H5z"/></clipPath></defs></svg>