<svg xmlns="http://www.w3.org/2000/svg" width="102" height="102" fill="none"><g clip-path="url(#a)"><path fill="#EB5D1E" stroke="#0E141B" stroke-linecap="round" stroke-linejoin="round" stroke-width="1.488" d="M25.799 29.608c-1.139.727-2.932-.185-5.457-4.133s-2.782-6.397-2.362-7.68c.42-1.282 3.116-3.473 4.747-3.166 1.355.258 1.997 1.897.867 2.945-1.129 1.048-2.547 1.694-2.312 2.724.23 1.03.984 1.694 1.906 1.039.921-.655 2.146-1.513 2.877-.921.813.659.89 1.95-.248 2.94-1.134.99-1.26 1.744-.723 2.552.867 1.301 1.861 2.964.7 3.704l.005-.004ZM29.521 11.693c-1.906.316-2.977 1.391-2.48 3.194.497 1.802 3.072 8.587 3.83 10.028.755 1.44 1.7 1.364 2.277.641.691-.876-.524-2.855.04-3.144.566-.289 2.499 1.328 3.655.885 1.17-.447.57-1.906-1.459-3.211-2.114-1.364-1.739-2.11-1.739-2.11s1.297-1.992.497-3.93c-.8-1.938-2.67-2.674-4.617-2.353h-.004Z"/><path fill="#0E141B" d="M31.924 15.533c-.023.645-.574 1.151-1.238 1.133-.664-.022-1.183-.564-1.165-1.21a1.184 1.184 0 0 1 1.238-1.13c.664.023 1.183.56 1.16 1.211l.005-.005Z"/><path fill="#EB5D1E" stroke="#0E141B" stroke-linecap="round" stroke-linejoin="round" stroke-width="1.488" d="M37.63 9.34c-.9.334-1.821.98-1.59 1.748.356 1.197 1.219.591 1.896 2.254.502 1.228 1.79 5.854 1.911 6.595.122.74-.79 1.463.063 2.34.683.704 4.3-.2 4.463-1.351.131-.926-.573-1.287-1.314-1.838-.74-.556-2.064-5.8-2.281-6.654-.37-1.477.759-1.613.185-2.959-.244-.57-1.658-.768-3.334-.14v.004ZM44.333 8.481s1.874 10.832 2.705 12.034c0 0 5.145-1.428 4.58-6.559-.7-6.351-7.285-5.475-7.285-5.475Z"/><path fill="#0E141B" d="M48.073 12.117c-.578.073-.881.687-.723 1.54.158.859.696 1.59 1.297 1.415 1.02-.303.826-3.126-.57-2.955h-.004Z"/><path fill="#EB5D1E" stroke="#0E141B" stroke-linecap="round" stroke-linejoin="round" stroke-width="1.488" d="M57.618 8.851c-.944-.022-2.236.85-3.149 3.813-.768 2.507-1.517 6.559-.948 7.345.393.546 1.924.596 2.213.113.425-.71.407-3.406 1.36-3.27 1.093.157 1.039 2.651 1.743 3.685.235.344 1.256.402 1.631.163.687-.434.763-3.126.411-5.475-.352-2.349-1.536-6.333-3.261-6.373Z"/><path fill="#0E141B" d="M57.455 12.136c-.7-.018-1.17.709-.94 1.454.23.745 1.464.696 1.726-.04.267-.732-.212-1.4-.786-1.419v.005Z"/><path fill="#EB5D1E" stroke="#0E141B" stroke-linecap="round" stroke-linejoin="round" stroke-width="1.488" d="M63.779 9.683c-1.016.199-1.16 1.364-.443 3.392.719 2.028.994 2.57.8 3.921-.325 2.24-1.193 4.12.352 4.558 1.63.465 2.033-2.1 2.48-3.614.258-.858 1.138-2.367 2.516-3.216 1.378-.85 2.15-2.087 1.6-2.99-.552-.904-1.659-.448-2.309.04-.655.488-1.6.967-1.983.904-.894-.145-1.41-3.311-3.013-2.995Z"/><path fill="#C72E27" d="M33.731 87.843s-5.475 3.456-4.296 5.741c1.18 2.29 5.583-1.594 5.583-1.594l-1.287-4.147Z"/><path fill="#7194B9" d="M88.822 52.207c-.018-.967-.424-.894.42-1.947.84-1.052.872-2.525-.844-2.353-1.721.172-5.385 2.819-7.291 4.332-1.906 1.513-6.582 5.764-6.582 5.764l-27.51 7.575s-.98-1.233-1.065-1.32c-2.372 2.454-4.165 5.43-6.966 7.287.967 2.832 1.378 5.985.036 9.13-1.67 3.92-4.643 6.599-5.285 7.168-.641.57-2.073 2.064-1.852 3.33.222 1.264.15 2.48 2.06 1.689 1.911-.79 15.869-4.996 21.493-5.272 5.624-.276 11.428-.93 17.667.18 0 0 .654-3.351 1.666-4.232 0 0-3.767-2.2-9.17-3.31 0 0 6.004-9.862 11.311-14.786a1364.53 1364.53 0 0 1 10.105-9.273s.863-.71 1.428-.655c.56.054 1.355-.493 1.513-1.554.163-1.062-1.111-.79-1.134-1.757v.004Z"/><path fill="#7194B9" d="M46.754 65.41c9.987 4.54 24.393 3.782 29.185-6.409 4.789-10.19-.244-20.779-.244-20.779s-6.188-5.62-16.388-5.94c-1.757-.054-3.356 1.613-5.362 1.816-13.637 1.378-18.208 10.913-18.037 24.095"/><path stroke="#0E141B" stroke-linecap="round" stroke-linejoin="round" stroke-width="1.488" d="M46.754 65.41c9.987 4.54 24.393 3.782 29.185-6.409 4.789-10.19-.244-20.779-.244-20.779s-6.188-5.62-16.388-5.94c-1.757-.054-3.356 1.613-5.362 1.816-13.637 1.378-18.208 10.913-18.037 24.095"/><path fill="#fff" d="M74.765 83.538s-.574-.456-1.55-1.025l-.225.212s-2.282 1.6-1.505 4.806c.529.063 1.066.14 1.613.24 0 0 .655-3.352 1.667-4.233ZM34.747 92.586c-1.766-1.454-.573-4.657-.573-4.657l-.258-.249c-.072.068-.14.127-.185.168-.641.569-2.073 2.064-1.852 3.329.221 1.264.15 2.48 2.06 1.69.176-.073.452-.168.808-.28ZM85.538 56.891c.19.041.389.064.588.077.564-.51.885-.804.885-.804s.863-.709 1.427-.655c.56.054 1.355-.492 1.514-1.554.162-1.061-1.112-.79-1.134-1.757-.018-.967-.425-.894.42-1.947.84-1.052.872-2.525-.845-2.353-1.72.171-5.384 2.819-7.29 4.332 0 0 .438 3.808 4.44 4.652l-.005.01Z"/><path fill="#7194B9" d="M65.694 25.904s3.072-3.212 4.188-2.923c1.115.294 1.54 5.574 1.54 5.574"/><path stroke="#0E141B" stroke-linecap="round" stroke-linejoin="round" stroke-width="1.488" d="M65.694 25.904s3.072-3.212 4.188-2.923c1.115.294 1.54 5.574 1.54 5.574"/><path fill="#7194B9" d="M40.94 27.968s-5.646-2.597-6.423-2.164c-.782.434 1.224 7.156 1.206 7.323"/><path stroke="#0E141B" stroke-linecap="round" stroke-linejoin="round" stroke-width="1.488" d="M40.94 27.968s-5.646-2.597-6.423-2.164c-.782.434 1.224 7.156 1.206 7.323"/><path fill="#EF8585" d="M38.83 29.233s-1.454-.768-1.756-.57c-.303.2.302 2.128.302 2.128"/><path stroke="#0E141B" stroke-linecap="round" stroke-linejoin="round" stroke-width="1.488" d="M38.83 29.233s-1.454-.768-1.756-.57c-.303.2.302 2.128.302 2.128"/><path fill="#fff" d="M57.274 69.463c-2.466-.316-6.635-.597-8.713 3.794-1.77 3.745-1.581 9.147 2.01 10.697 3.591 1.545 8.506.61 10.34-1.875 1.834-2.484 4.038-11.632-3.637-12.612v-.004Z"/><path fill="#0E141B" d="M28.306 50.039c4.03-4.716 3.934-24.05 23.896-27.094 12.643-1.929 21.818 5.872 24.32 10.502 2.503 4.63 5.782 12.567 8.122 15.914-1.78 2.778-7.002 5.507-7.002 5.507s.294-11.433-1.635-15.634c0 0-.406-1.251-2.317-1.816-1.559-.46-5.547-2.715-12.418-2.764-.262 0-2.525-3.253-2.796-3.248-.24 0 .452 3.225.212 3.234a25.614 25.614 0 0 0-3.211.303c-9.527 1.481-13.38 4.44-13.38 4.44s.985 8.063-3.33 17.459l-10.461-6.798v-.005Z"/><path stroke="#0E141B" stroke-linecap="round" stroke-linejoin="round" stroke-width="1.488" d="M28.197 50.6c1.26-1.866 3.212-6.266 4.436-9.898 3.813-11.28 9.18-15.905 19.546-17.526C62.55 21.549 71.842 25.534 77.05 34.26c2.54 4.255 4.432 12.643 7.698 15.227"/><path stroke="#0E141B" stroke-linecap="round" stroke-linejoin="round" stroke-width="1.488" d="M38.88 56.85c1.527-4.616 3.343-12.837 3.217-17.467 0 0 6.247-4.427 16.641-4.612l-.506-3.478 3.085 3.573c4.265.153 8.6.957 13.967 3.09M63.431 80.01s6.067-.072 11.433 3.55M87.95 55.464c-13.307 9.956-20.873 22.12-22.21 24.38M77.308 55.581s6.893-6.007 9.55-7.313c1.783-.876 2.691-.456 3.134.285.529.894-.257 1.974-1.396 2.498"/><path stroke="#0E141B" stroke-linecap="round" stroke-linejoin="round" stroke-width="1.488" d="M85.475 51.24s1.098.37.971 1.414c-.1.836-1.201 1.514-2.638.447"/><path stroke="#0E141B" stroke-linecap="round" stroke-linejoin="round" stroke-width="1.488" d="M88.014 51.164s1.133.628.731 1.775c-.388 1.102-1.73 1.418-2.778.492"/><path stroke="#0E141B" stroke-linecap="round" stroke-linejoin="round" stroke-width="1.488" d="M87.02 54.353s0 1.174 1.418 1.16c1.59-.013 2.363-2.01.669-2.768M29.07 90.016s1.982-1.382 3.843-1.635c0 0-3.717 2.177-3.826 4.282-.108 2.105 2.141 2.155 4.097.727"/><path fill="#C72E27" stroke="#0E141B" stroke-linecap="round" stroke-linejoin="round" stroke-width="1.488" d="M73.68 88.001s-.7-2.566 1.008-4.576c1.703-2.01 4.052-2.583 4.978-2.123.93.461-.971 3.05-1.333 4.874 0 0 .832 1.825.457 2.24-.375.416-5.11-.415-5.11-.415Z"/><path stroke="#0E141B" stroke-linecap="round" stroke-linejoin="round" stroke-width="1.488" d="M79.842 81.47s-4.892 1.476-4.043 6.856"/><path stroke="#595857" stroke-linecap="round" stroke-linejoin="round" stroke-width="1.488" d="M32.489 48.684s2.1-2.652 2.552-5.877c0 0 1.202 3.343 2.024 6.6 0 0 2.416-3.406 2.186-6.352M79.657 45.445s-.474-2.792-1.78-5.832M44.46 34.27s1.67-2.557 2.448-3.56c0 0 1.382 1.5 1.838 2.055 0 0 2.259-2.782 3.298-3.532 0 0 2.773 1.807 3.347 2.317 0 0 1.563-3.762 2.163-4.666 0 0 3.93 3.28 4.622 3.745 0 0 .858-1.789 1.007-2.169 0 0 3.78 2.53 4.747 3.077"/><path fill="#fff" stroke="#0E141B" stroke-linecap="round" stroke-linejoin="round" stroke-width="1.488" d="M43.32 44.09s2.625-2.466 6.33-2.61c3.703-.145 6.147 2.646 6.147 2.646s-7.191-1.278-12.476-.04v.004ZM63.865 43.503s1.59-2.34 5.307-2.598c3.714-.257 5.466 2.697 5.466 2.697s-5.854-1.599-10.769-.1h-.004Z"/><path stroke="#0E141B" stroke-linecap="round" stroke-linejoin="round" stroke-width="1.488" d="M71.413 39.424s-.266 1.133-1.07 1.513M74.86 40.729s-.65.994-1.861 1.21M48.597 40.07s.258.921.773 1.422M44.419 41.018s.573.85 1.599 1.35"/><path fill="#76171C" stroke="#0E141B" stroke-linecap="round" stroke-linejoin="round" stroke-width="1.488" d="M62.727 50.997s.754 3.875.203 5.411c-.547 1.536-2.227 1.315-3.144.827-.917-.488-2.123-.321-3-.068-.876.253-1.698-.054-1.856-1.319-.158-1.265 1.039-4.78 1.039-4.78s1.265-3.18 3.962-2.913c2.696.267 2.796 2.842 2.796 2.842Z"/><path fill="#fff" stroke="#0E141B" stroke-linecap="round" stroke-linejoin="round" stroke-width="1.488" d="M59.66 47.496c-.037 3.243 3.049 3.537 4.327 2.489 1.12-.917 1.215-2.715-.167-3.654-1.437-.972-3.113-.484-3.817.447-.24.316-.344.718-.344.718Z"/><path fill="#fff" stroke="#0E141B" stroke-linecap="round" stroke-linejoin="round" stroke-width="1.488" d="M59.325 49.732c-1.134 1.179-3.388 1.111-4.327-.15-.768-1.034-.253-2.587.795-3.202.546-.32 1.807-.926 3.284.122 1.283.913.646 2.823.248 3.234v-.004Z"/><path fill="#7194B9" d="M46.537 65.1c-1.237-1.275-10.81-11.113-13.1-13.042-2.443-2.055-4.702-3.718-7.268-2.231-2.565 1.486-2.66 3.45-1.987 4.797.817 1.635 2.416.682 2.416.682S36.73 66.228 38.334 69.942c.316.731.596 1.44.836 2.14 2.8-1.86 4.996-4.526 7.367-6.978v-.005Z"/><path fill="#fff" d="M26.17 49.831c-2.567 1.486-2.747 3.496-1.988 4.797.984 1.68 2.416.682 2.416.682s.836.669 2.02 2.024c4.63-1.061 4.82-5.267 4.82-5.267-2.444-2.055-4.703-3.718-7.269-2.231v-.005Z"/><path stroke="#0E141B" stroke-linecap="round" stroke-linejoin="round" stroke-width="1.488" d="M46.754 65.41S33.826 52.326 32.146 50.785c-1.68-1.54-4.454-2.335-6.722-.433-2.232 1.874-1.965 4.512-.506 5.108 1.468.601 2.295-.772 2.295-.772"/><path stroke="#0E141B" stroke-linecap="round" stroke-linejoin="round" stroke-width="1.488" d="M26.599 55.306s8.876 9.332 11.211 13.579c2.335 4.241 2.972 7.06 1.4 11.374-1.572 4.318-6.373 8.185-6.373 8.185s-2.399 3.496.347 4.941c0 0 23.45-8.957 40.434-5.38M30.497 52.184s-.389 1.446-1.807 1.071c-.867-.23-1.36-1.016-1.012-1.807"/><path stroke="#0E141B" stroke-linecap="round" stroke-linejoin="round" stroke-width="1.488" d="M29.137 53.318s-.312 1.839-2.114 1.306c-.592-.176-1.265-.836-1.16-1.875"/><path fill="#0E141B" d="M61.71 45.82c.127.673-.89 2.073-1.942 2.064-1.062-.009-1.92-1.025-1.988-1.96-.09-1.215 3.587-1.744 3.93-.104Z"/><path fill="#fff" stroke="#0E141B" stroke-linecap="round" stroke-linejoin="round" stroke-width="1.488" d="M52.635 68.659a1.608 1.608 0 1 1-3.153-.642 1.607 1.607 0 0 1 1.898-1.256 1.608 1.608 0 0 1 1.255 1.898ZM56.086 68.085a1.608 1.608 0 0 1-1.897 1.256 1.608 1.608 0 1 1 .642-3.153 1.608 1.608 0 0 1 1.255 1.897Z"/><path fill="#fff" stroke="#0E141B" stroke-linecap="round" stroke-linejoin="round" stroke-width="1.488" d="M59.086 66.743a1.608 1.608 0 1 1-3.153-.641 1.608 1.608 0 1 1 3.153.641ZM62.424 65.185a1.607 1.607 0 0 1-1.897 1.256 1.607 1.607 0 0 1-1.256-1.898 1.607 1.607 0 0 1 1.897-1.255 1.607 1.607 0 0 1 1.256 1.897ZM65.952 64.71a1.608 1.608 0 1 1-3.153-.64 1.608 1.608 0 1 1 3.153.64ZM70.22 67.186a1.608 1.608 0 1 1-3.152-.642 1.608 1.608 0 1 1 3.153.642Z"/><path fill="#fff" stroke="#0E141B" stroke-linecap="round" stroke-linejoin="round" stroke-width="1.488" d="M73.423 66.567a1.608 1.608 0 1 1-3.153-.641 1.608 1.608 0 1 1 3.153.641ZM69.769 65.022a1.608 1.608 0 0 1-1.897 1.256 1.608 1.608 0 1 1 .641-3.153 1.608 1.608 0 0 1 1.256 1.897Z"/><path stroke="#0E141B" stroke-linecap="round" stroke-linejoin="round" stroke-width="1.488" d="M12.23 50.766c.248.737 12.372 7.06 14.3 4.405M15.568 41.081s12.4 5.629 13.104 8.09"/><path fill="#50524D" stroke="#0E141B" stroke-linecap="round" stroke-linejoin="round" stroke-width="1.488" d="M15.997 40.472c-1.193-2.57-5.615-5.132-7.544-5.218-1.834-.08-3.044 1.215-3.862 2.282-2.114 2.489-2.873 10.308-1.147 12.81 1.725 2.503 7.905 2.35 9.644 1.848 1.739-.497 4.007-9.355 2.909-11.722Z"/><path stroke="#0E141B" stroke-linecap="round" stroke-linejoin="round" stroke-width="1.488" d="M15.55 40.896c-1.464 1.956-9.464-1.676-11.167-3.103M10.229 41.104s-2.318 9.333-.877 11.239"/><path fill="#E6BD59" stroke="#0E141B" stroke-linecap="round" stroke-linejoin="round" stroke-width="1.488" d="M7.771 46.227c-.338 1.901.294 2.882 1.224 2.995.687.08 1.464-1.392 1.568-3.465.095-1.942-2.254-2.534-2.792.474v-.004Z"/><path stroke="#0E141B" stroke-linecap="round" stroke-linejoin="round" stroke-width="1.488" d="M13.919 35.313s.42-2.304 2.769-3.709M11.493 32.932s.221-1.698 1.64-3.202"/></g><defs><clipPath id="a"><path fill="#fff" d="M1.7 7.65h89.25v87.506H1.7z"/></clipPath></defs></svg>