<svg xmlns="http://www.w3.org/2000/svg" width="102" height="102" fill="none"><g clip-path="url(#a)"><path fill="#F6AC1A" d="m66.194 86.688-3.49.025-13.03-2.524-11.62 2.694-2.962.021-.042 8.428s1.343.42 3.816.863l11.709-2.002 10.973 2.091c3.307-.646 4.726-1.398 4.726-1.398l-.08-8.194v-.004Z"/><path fill="#fff" d="M62.364 81.524c-.91-4.284-4.33-6.545-4.33-6.545a133.16 133.16 0 0 0-3.978 3.536l-3.97-3.753-4.003 3.948-3.936-3.757c-.718.54-2.597 2.746-3.536 5.636-.387 1.181-.616 3.595-.65 6.285-.043 3.277.204 6.958.812 9.312 2.724.489 6.863.999 11.878.999s8.496-.425 10.987-.914c.705-2.495 1.143-6.196 1.156-9.57.004-1.934-.128-3.762-.43-5.186v.009Z"/><path fill="#D5972B" d="M35.05 89.441c-.102 1.25 0 5.887 0 5.887V89.44Z"/><path stroke="#0E141B" stroke-linecap="round" stroke-linejoin="round" stroke-width="1.488" d="M35.05 89.441c-.102 1.25 0 5.887 0 5.887"/><path fill="#D5972B" d="M66.351 89.722c.021.595-.093 5.13-.093 5.13l.093-5.13Z"/><path stroke="#0E141B" stroke-linecap="round" stroke-linejoin="round" stroke-width="1.488" d="M66.351 89.722c.021.595-.093 5.13-.093 5.13"/><path fill="#F6AC1A" d="M34.213 68.986c7.136-6.422 15.916-3.374 15.916-3.374s5.168-2.771 14.046 1.615c3.082 1.521 4.862 5.729 5.483 7.48.794 2.231 1.606 7.765.335 10.995l-19.188-8.114-20.35 8.59c.17.501-3.488-10.66 3.758-17.196v.004Z"/><path stroke="#0E141B" stroke-linecap="round" stroke-linejoin="round" stroke-width="1.488" d="M69.658 74.71c-.676-2.014-2.24-5.77-5.483-7.602-8.623-4.867-14.046-1.496-14.046-1.496s-7.157-3.953-14.624 1.338c-3.456 2.448-5.93 7.978-5.976 13.43"/><path fill="#E65E5D" stroke="#0E141B" stroke-linecap="round" stroke-linejoin="round" stroke-width="1.488" d="m40.724 84.167 24.586-25.78 6.014 4.777-28.51 23.103-2.09-2.1Z"/><path fill="#E65E5D" stroke="#0E141B" stroke-linecap="round" stroke-linejoin="round" stroke-width="1.488" d="M29.066 63.3s19.452 16.566 25.853 20.468l1.959-2.312-22.712-22.861-5.104 4.705h.004Z"/><path fill="#F6AC1A" d="M62.14 82.114s-1.939-3.387-2.619-4.636c-.777-1.428-2.6-4.752-6.375-3.774-4.3 1.113-3.965 6.18-1.7 11.02 2.657 5.703 8.313 7.76 12.997 6.145 2.303-.79 4.267-2.358 5.402-5.231 1.33-3.358.867-8.114-.183-10.931"/><path stroke="#0E141B" stroke-linecap="round" stroke-linejoin="round" stroke-width="1.488" d="M62.14 82.114s-1.939-3.387-2.619-4.636c-.777-1.428-2.6-4.752-6.375-3.774-4.3 1.113-3.965 6.18-1.7 11.02 2.657 5.703 8.313 7.76 12.997 6.145 2.303-.79 4.267-2.358 5.402-5.231 1.33-3.358.867-8.114-.183-10.931"/><path fill="#F6AC1A" d="M38.284 81.715s2.576-3.948 3.247-4.904c1.016-1.446 3.077-4.48 7.03-3.239 3.842 1.211 3.23 5.729 1.572 9.299-1.836 3.961-7.093 10.863-14.998 7.378-4.764-2.117-5.589-6.817-5.602-9.868"/><path stroke="#0E141B" stroke-linecap="round" stroke-linejoin="round" stroke-width="1.488" d="M38.284 81.715s2.576-3.948 3.247-4.904c1.016-1.446 3.077-4.48 7.03-3.239 3.842 1.211 3.23 5.729 1.572 9.299-1.836 3.961-7.093 10.863-14.998 7.378-4.764-2.117-5.589-6.817-5.602-9.868"/><path fill="#F6AC1A" d="M59.245 24.43s1.326-3.511 5.938-2.844c4.42.642 6.536 4.645 4.126 9.006"/><path stroke="#0E141B" stroke-linecap="round" stroke-linejoin="round" stroke-width="1.488" d="M59.245 24.43s1.326-3.511 5.938-2.844c4.42.642 6.536 4.645 4.126 9.006"/><path fill="#F6AC1A" d="M41.905 24.276c.03.064-1.139-3.604-6.256-2.988-4.437.536-6.205 4.892-4.339 8.522"/><path stroke="#0E141B" stroke-linecap="round" stroke-linejoin="round" stroke-width="1.488" d="M41.905 24.276c.03.064-1.139-3.604-6.256-2.988-4.437.536-6.205 4.892-4.339 8.522"/><path fill="#F6AC1A" stroke="#0E141B" stroke-linecap="round" stroke-linejoin="round" stroke-width="1.488" d="M55.518 71.642c-13.455 1.484-21.496-3.17-25.674-7.36-4.433-4.446-7.918-12.36-5.376-22.772 3.08-12.631 15.606-17.46 22.044-18.041 6.142-.557 12.823.476 18.824 4.135 8.619 5.253 11.377 13.196 11.377 20.098 0 7.642-3.294 21.972-21.195 23.945v-.005Z"/><path fill="#0E141B" d="M62.756 50.256c1.525-1.92-.676-4.14-2.665-2.686-1.526 1.921.676 4.14 2.665 2.686ZM57.333 42.75s4.241-.118 9.201.145l-9.201-.144Z"/><path stroke="#0E141B" stroke-linecap="round" stroke-linejoin="round" stroke-width="2.125" d="M57.333 42.75s4.241-.118 9.201.145"/><path fill="#0E141B" d="M40.923 50.057c1.51-1.9-.667-4.093-2.635-2.657-1.508 1.9.668 4.093 2.635 2.657Z"/><path fill="#fff" d="M48.973 54.302c-3.6-1.279-6.354.731-6.634 3.086-.23 1.92 1.453 3.859 3.527 4.063 2.24.22 3.698-.91 4.263-2.223.43 1.364 1.547 2.393 3.795 2.393 2.083 0 3.834-1.25 4.004-3.6.174-2.363-2.35-5.19-6.618-3.604l-1.198.484"/><path stroke="#0E141B" stroke-linecap="round" stroke-linejoin="round" stroke-width="1.488" d="M48.973 54.302c-3.6-1.279-6.354.731-6.634 3.086-.23 1.92 1.453 3.859 3.527 4.063 2.24.22 3.698-.91 4.263-2.223.43 1.364 1.547 2.393 3.795 2.393 2.083 0 3.834-1.25 4.004-3.6.174-2.363-2.35-5.19-6.618-3.604l-1.198.484"/><path fill="#0E141B" d="M34.226 42.53s4.241-.12 9.201.144l-9.201-.144Z"/><path stroke="#0E141B" stroke-linecap="round" stroke-linejoin="round" stroke-width="2.125" d="M34.226 42.53s4.241-.12 9.201.144"/><path fill="#0E141B" d="M47.706 53.813c-.161.893 1.144 2.797 2.346 2.801 1.08.005 2.376-1.534 2.546-2.762.2-1.432-4.441-2.52-4.892-.043v.005Z"/><path fill="#EB6153" d="M35.564 51.757s-6.09-.544-6.413 2.12c-.17 1.377.45 2.627 5.1 2.771 4.977.158 6.171-1.151 6.23-2.103.081-1.267-.573-2.525-4.912-2.793M65.994 52.275c1.705.145 5.058.408 5.372 2.091.366 1.95-1.793 2.63-5.55 2.431-4.586-.246-5.623-1.696-5.24-2.996.446-1.517 4.024-1.64 5.414-1.522l.004-.004Z"/><path fill="#E65E5D" stroke="#0E141B" stroke-linecap="round" stroke-linejoin="round" stroke-width="1.488" d="M24.2 42.704C25.594 39.767 30.239 26.5 49.874 26.5c23.995 0 26.707 18.997 26.805 19.954-.077-2.232 2.35-24.51-27.166-24.37C24.446 22.198 24.468 41.51 24.2 42.7v.004Z"/><path fill="#E65E5D" stroke="#0E141B" stroke-linecap="round" stroke-linejoin="round" stroke-width="1.488" d="M49.453 25.109s-3.442 1.64-8.08 3.404c-3.408 1.296-14.42 3.345-16.906-2.737-.777-1.874-.54-3.021-.39-5.023l5.163-4.42s.298 6.235 6.668 6.26c6.507.03 11.344-1.887 11.344-1.887l2.206 4.399-.005.004Z"/><path fill="#E65E5D" stroke="#0E141B" stroke-linecap="round" stroke-linejoin="round" stroke-width="1.488" d="M48.578 20.324c-1.063-.221-2.172-.77-5.19-5.304-4.82-7.238-13.66-7.646-17.06-2.555-3.556 5.33-2.57 11.76-1.86 13.311-.791-2.307 2.605-4.713 7.314-4.662 8.606.09 10.867 4.246 15.5 4.276 0 0 1.117-4.595 1.291-5.062l.005-.004ZM50.108 24.948s5.733 3.612 11.998 4.879c8.495 1.725 12.545-1.118 13.893-5.096.191-.557.459-2.478.459-3.732 0-1.9-3.4-5.282-3.4-5.282C68.089 27.583 51.4 21.484 51.4 21.484l-1.297 3.464h.005Z"/><path fill="#E65E5D" stroke="#0E141B" stroke-linecap="round" stroke-linejoin="round" stroke-width="1.488" d="M51.166 25.352c7.306.939 9.435-3.919 17.718-4.59 8.105-.655 7.115 3.914 7.11 3.969.188-.561 1.225-3.634.842-7.429-.438-4.263-2.287-6.995-5.606-7.778-2.966-.7-7.442-.195-11.917 3.405-4.36 3.51-5.236 6.736-8.147 8.202-.289.145 0 4.216 0 4.216v.005Z"/><path fill="#E65E5D" stroke="#0E141B" stroke-linecap="round" stroke-linejoin="round" stroke-width="1.488" d="M46.844 19.793c-.514.616-1.411 4.063-.25 6.502 1.504 1.551 5.27 1.403 6.204.204.485-1.024.97-5.788-.055-6.732-.948-.867-4.747-1.36-5.9.021v.005Z"/><path stroke="#0E141B" stroke-linecap="round" stroke-linejoin="round" stroke-width="1.488" d="M42.313 19.44s1.815 2.167 3.846 2.414M57.124 19.46c-.671.677-2.171 2.19-3.786 2.695"/><path fill="#FFDA03" stroke="#0E141B" stroke-linecap="round" stroke-linejoin="round" stroke-width="1.488" d="M88.706 40.715s-.335 4.514-4.016 5.325c3.345.944 4.127 5.449 4.127 5.449.11-1.675 1.56-4.28 4.352-5.223-4.237-1.36-4.463-5.547-4.463-5.547v-.004ZM12.946 56.117s-.986 4.386-4.25 5.109c2.962.837 4.25 5.899 4.25 5.899.098-1.484.693-3.54 3.753-5.895-3.753-1.203-3.753-5.113-3.753-5.113ZM84.265 54.294s-.493 3.753-3.162 4.348c1.483.595 3.064 2.21 3.557 4.743.098-2.86 2.984-4.841 2.984-4.841s-2.588-.693-3.379-4.25Z"/></g><defs><clipPath id="a"><path fill="#fff" d="M7.65 6.375h86.475v90.818H7.65z"/></clipPath></defs></svg>