<svg xmlns="http://www.w3.org/2000/svg" width="102" height="102" fill="none"><g clip-path="url(#a)"><path fill="#F9D2D4" d="M48.759 9.9s.724-1.077 2.297-.495c4.237 1.573 12.578 5.759 21.431 13.474 9.354 8.147 11.436 17.466 11.199 25.181-.505 16.423-11.544 23.138-32.906 22.694-24.75-.517-33.922-10.595-33.905-24.543.013-11.194 7.927-18.733 15.466-23.819 7.176-4.845 12.594-7.345 16.422-12.491h-.004Z"/><path fill="#EF8585" d="M44.776 55.539c0-2.59-2.647-4.694-6.444-4.694-5.104 0-7.19 2.103-7.19 4.694 0 2.59 2.384 4.267 6.82 4.245 4.133-.017 6.818-1.655 6.818-4.245h-.004ZM75.513 55.13c0-2.591-2.647-4.695-6.444-4.695-5.104 0-7.19 2.104-7.19 4.694s2.384 4.268 6.82 4.246c4.133-.017 6.818-1.655 6.818-4.246h-.004Z"/><path stroke="#0E141B" stroke-linecap="round" stroke-linejoin="round" stroke-width="1.411" d="M49.246 55.832s.982-4.987 5.137-4.755c4.367.233 4.587 5.276 4.587 5.276M51.595 59s.758-1.285 1.13-2.625M55.301 56.69s.095 1.676.354 2.288"/><path fill="#fff" d="M41.625 75.211s-.681-2.539-.37-4.728c.336-2.35 1.956-3.858 1.172-7.992-.785-4.133 1.388-5.25.44-9.56-.156-.711.051-1.888 1.909-2.707 2.069-.91 3.664-.319 5.509-2.944 1.844-2.625-.466-5.733-.41-7.91.056-2.18.974-3.051-.254-5.512-1.449-2.897-4.431-1.556-6.328-2.449-1.9-.892-1.9-3.224-5.59-2.987-3.69.242-3.871 3.647-5.436 5.155-1.138 1.1-3.892 1.806-4.569 4.518-.836 3.353 1.125 3.866 1.125 6.021 0 1.621-.03 3.642.84 4.746 1.47 1.866 3.932.271 5.333 1.81 1.107 1.212.306 2.043.457 4.19.138 1.996-1.406 3.66-.57 7.85.574 2.874-.913 5.284-1.508 7.262-.672 2.237-.263 3.211-.263 3.211"/><path stroke="#0E141B" stroke-linecap="round" stroke-linejoin="round" stroke-width="1.411" d="M41.625 75.211s-.681-2.539-.37-4.728c.336-2.35 1.956-3.858 1.172-7.992-.785-4.133 1.388-5.25.44-9.56-.156-.711.051-1.888 1.909-2.707 2.069-.91 3.664-.319 5.509-2.944 1.844-2.625-.466-5.733-.41-7.91.056-2.18.974-3.051-.254-5.512-1.449-2.897-4.431-1.556-6.328-2.449-1.9-.892-1.9-3.224-5.59-2.987-3.69.242-3.871 3.647-5.436 5.155-1.138 1.1-3.892 1.806-4.569 4.518-.836 3.353 1.125 3.866 1.125 6.021 0 1.621-.03 3.642.84 4.746 1.47 1.866 3.932.271 5.333 1.81 1.107 1.212.306 2.043.457 4.19.138 1.996-1.406 3.66-.57 7.85.574 2.874-.913 5.284-1.508 7.262-.672 2.237-.263 3.211-.263 3.211"/><path fill="#fff" fill-rule="evenodd" d="M72.09 67.397c-2.112.99-4.511 1.753-7.196 2.302.215-1.013.318-2.087.153-3.177-.468-3.11-.19-4.63.05-5.938.21-1.136.388-2.113.024-3.834-.415-1.962-.262-3.071-.148-3.895.119-.861.195-1.409-.469-2.29-.514-.681-1.323-.81-2.202-.952-1.008-.161-2.11-.338-2.966-1.376-1.234-1.496-.983-2.658-.748-3.747.09-.42.18-.83.18-1.244 0-.709-.202-1.279-.406-1.855-.363-1.028-.732-2.074.03-3.956.621-1.535 1.767-2.026 2.78-2.46.535-.23 1.033-.443 1.397-.785.642-.605 1.03-1.197 1.37-1.72.669-1.022 1.16-1.775 3.053-1.823 2.666-.069 3.525 1.056 4.297 2.067.402.525.78 1.019 1.375 1.299.534.251 1.092.39 1.648.53 1.256.313 2.506.626 3.477 2.224.92 1.51.775 2.315.59 3.35-.079.44-.165.922-.18 1.517-.015.567.062 1.144.142 1.733.2 1.48.41 3.043-.81 4.758-.965 1.354-1.981 1.56-2.887 1.742-.616.124-1.181.239-1.644.698-.765.76-.558 1.86-.31 3.174.252 1.338.546 2.9-.1 4.554-.03.076-.066.162-.107.258-.384.898-1.155 2.703-.509 6.126.188.993.202 1.893.116 2.72Z" clip-rule="evenodd"/><path fill="#0E141B" d="m72.09 67.397.3.638a.706.706 0 0 0 .402-.565l-.702-.073Zm-7.196 2.302-.69-.147a.706.706 0 0 0 .831.838l-.141-.691Zm.153-3.177-.697.105.698-.105Zm.05-5.938.695.127-.694-.127Zm.024-3.834-.69.146.69-.146Zm-.148-3.895.699.097-.7-.097Zm-.469-2.29.564-.425-.564.425Zm-2.202-.952.111-.697-.111.697Zm-2.966-1.376.544-.449-.544.449Zm-.748-3.747-.69-.15.69.15Zm-.226-3.099.666-.235-.666.235Zm.03-3.956.654.265-.654-.265Zm2.78-2.46-.277-.65.278.65Zm1.397-.785.483.514-.483-.514Zm1.37-1.72-.59-.385.59.386Zm3.053-1.823-.019-.706.019.706Zm4.297 2.067-.56.428.56-.428Zm1.375 1.299-.3.638.3-.638Zm1.648.53.171-.685-.171.685Zm3.477 2.224-.603.366v.001l.603-.367Zm.59 3.35.694.125-.694-.125Zm-.18 1.517-.706-.019.705.019Zm.142 1.733.699-.095-.7.095Zm-.81 4.758-.575-.41.574.41Zm-2.887 1.742.14.692-.14-.692ZM73 50.565l-.497-.501.497.5Zm-.31 3.174-.693.13.693-.13Zm-.1 4.554.657.258v-.001l-.656-.257Zm-.107.258.649.277-.65-.277Zm-.509 6.126.694-.131-.694.13Zm-.184 2.08c-2.052.963-4.397 1.71-7.037 2.25l.282 1.383c2.73-.558 5.183-1.337 7.354-2.355l-.599-1.277Zm-7.44-.13c.148.98.058 1.964-.146 2.925l1.38.294c.227-1.066.342-2.23.161-3.43l-1.395.21Zm.054-6.17c-.249 1.356-.538 2.958-.054 6.17l1.395-.21c-.453-3.009-.184-4.446.047-5.706l-1.388-.254Zm.027-3.56c.336 1.585.176 2.454-.027 3.56l1.388.254c.214-1.167.412-2.252.019-4.107l-1.38.292Zm-.157-4.138c-.12.866-.282 2.065.157 4.137l1.38-.292c-.392-1.851-.247-2.871-.14-3.652l-1.397-.193Zm-.333-1.77c.277.368.363.615.392.825.034.24.004.492-.059.945l1.398.193c.056-.41.124-.862.059-1.331-.07-.5-.277-.968-.663-1.48l-1.127.848Zm-1.751-.68c.944.152 1.437.265 1.751.68l1.126-.85c-.714-.945-1.838-1.092-2.654-1.223l-.223 1.394Zm-3.398-1.623c1.044 1.266 2.405 1.465 3.398 1.624l.223-1.394c-1.023-.163-1.864-.317-2.532-1.128l-1.089.898Zm-.894-4.345c-.115.532-.264 1.2-.19 1.941.078.767.388 1.56 1.084 2.404l1.088-.898c-.538-.652-.72-1.188-.767-1.648-.05-.487.044-.944.165-1.501l-1.38-.298Zm.164-1.095c0 .325-.07.66-.164 1.095l1.38.298c.087-.407.195-.891.195-1.393h-1.411Zm-.365-1.62c.206.583.365 1.047.365 1.62h1.41c0-.845-.243-1.521-.444-2.09l-1.33.47Zm.041-4.456c-.415 1.025-.538 1.864-.487 2.611.05.734.267 1.338.446 1.846l1.33-.47c-.183-.521-.333-.955-.368-1.471-.034-.504.04-1.129.387-1.986l-1.307-.53Zm3.157-2.844c-1.019.436-2.42 1.021-3.157 2.845l1.308.529c.505-1.247 1.396-1.645 2.405-2.077l-.556-1.297Zm1.191-.65c-.256.24-.627.408-1.191.65l.556 1.297c.505-.217 1.128-.475 1.6-.919l-.965-1.029Zm1.263-1.591c-.34.52-.688 1.05-1.263 1.59l.967 1.028c.709-.667 1.135-1.322 1.477-1.846l-1.181-.772Zm3.624-2.144c-1.04.027-1.79.251-2.382.682-.565.411-.922.972-1.242 1.462l1.181.772c.348-.533.571-.86.891-1.093.294-.214.737-.39 1.588-.412l-.036-1.41Zm4.877 2.344c-.38-.497-.859-1.133-1.628-1.61-.785-.485-1.809-.77-3.248-.734l.035 1.41c1.227-.03 1.966.212 2.47.524.52.322.858.754 1.25 1.267l1.12-.857Zm1.114 1.09c-.415-.196-.695-.542-1.114-1.09l-1.121.857c.384.502.859 1.144 1.635 1.51l.6-1.278Zm1.519.483c-.566-.141-1.057-.266-1.519-.483l-.6 1.276c.606.286 1.23.44 1.777.576l.342-1.369Zm3.909 2.543c-1.13-1.859-2.637-2.225-3.909-2.543l-.342 1.369c1.24.31 2.232.569 3.045 1.907l1.206-.733Zm.681 3.84c.09-.505.195-1.062.127-1.696-.07-.649-.31-1.326-.809-2.145l-1.205.734c.421.691.569 1.171.61 1.561.044.404-.017.768-.112 1.298l1.39.249Zm-.17 1.41c.014-.535.091-.97.17-1.41l-1.389-.248c-.078.44-.174.968-.19 1.622l1.41.037Zm.137 1.621c-.08-.6-.15-1.119-.136-1.62l-1.41-.037c-.017.634.07 1.268.148 1.846l1.398-.189Zm-.935 5.262c1.395-1.96 1.135-3.778.935-5.262l-1.398.189c.2 1.479.36 2.785-.686 4.255l1.149.818Zm-3.321 2.025c.445-.09 1.014-.202 1.596-.492.598-.299 1.18-.767 1.725-1.533l-1.15-.818c-.418.588-.826.9-1.205 1.088-.393.196-.785.279-1.245.371l.279 1.384Zm-1.287.506c.29-.288.642-.376 1.287-.506l-.28-1.384c-.588.12-1.367.26-2 .889l.993 1.001Zm-.114 2.543c-.127-.679-.223-1.203-.212-1.647.01-.413.11-.681.327-.896l-.995-1c-.549.545-.727 1.206-.743 1.862-.015.624.117 1.307.237 1.943l1.386-.262Zm-.135 4.942c.728-1.867.384-3.62.135-4.942l-1.386.262c.255 1.354.5 2.724-.064 4.167l1.315.513Zm-.116.278c.04-.093.08-.189.115-.277l-1.313-.516c-.025.065-.058.14-.1.239l1.298.554Zm-.465 5.718c-.611-3.24.114-4.898.465-5.718l-1.298-.554c-.417.977-1.234 2.928-.553 6.534l1.386-.262Zm.125 2.924c.092-.89.076-1.859-.124-2.924l-1.387.261a8.6 8.6 0 0 1 .107 2.516l1.404.147ZM43.793 43.211c.552-1.155.29-1.892.324-2.84.034-.949-.466-1.664-.867-2.087-.565-.59-1.582-.84-2.34-1.198-.759-.358-1.457-.733-2.474-.715-1.475.026-3.147 2.232-3.419 3.314-.336 1.34.371 1.677.371 2.54 0 .646-.103 1.24.19 1.719.664 1.082 2.271.319 3.935.888 1.375.47 3.724-.466 4.28-1.62Z"/><path stroke="#0E141B" stroke-linecap="round" stroke-linejoin="round" stroke-width="1.411" d="M43.793 43.211c.552-1.155.29-1.892.324-2.84.034-.949-.466-1.664-.867-2.087-.565-.59-1.582-.84-2.34-1.198-.759-.358-1.457-.733-2.474-.715-1.475.026-3.147 2.232-3.419 3.314-.336 1.34.371 1.677.371 2.54 0 .646-.103 1.24.19 1.719.664 1.082 2.271.319 3.935.888 1.375.47 3.724-.466 4.28-1.62Z"/><path fill="#fff" d="M41.457 43.552c-.78 0-1.354-.414-1.354-.953 0-.638.737-1.039 1.354-1.039.827 0 1.021.392 1.021.94 0 .358-.038.634-.331.866-.104.087-.332.181-.69.181v.005ZM38.422 38.13c-.306 0-.56.081-.849.215a2.21 2.21 0 0 0-1.017.892c-.319.539-.306 1-.065 1.526.306.668.776 1.233 1.535 1.233.314 0 .694-.039.991-.177.957-.444 1.612-1.668 1.117-2.737-.31-.677-.962-.948-1.712-.948v-.005Z"/><path fill="#0E141B" d="M68.979 45.965c1.495-.836 2.594-.69 3.16-1.646.598-1.013.15-1.742-.014-2.436-.263-1.107.017-2.245-.241-2.68-.793-1.35-3.259-1.669-4.104-1.656-1.224.022-1.612.905-2.133 1.436-.38.383-1.181.771-1.41 1.724-.28 1.176.367 1.517.548 2.483.103.556.28 1.353.526 1.775.551.953 2.974 1.384 3.663 1h.005Z"/><path stroke="#0E141B" stroke-linecap="round" stroke-linejoin="round" stroke-width="1.411" d="M68.979 45.965c1.495-.836 2.594-.69 3.16-1.646.598-1.013.15-1.742-.014-2.436-.263-1.107.017-2.245-.241-2.68-.793-1.35-3.259-1.669-4.104-1.656-1.224.022-1.612.905-2.133 1.436-.38.383-1.181.771-1.41 1.724-.28 1.176.367 1.517.548 2.483.103.556.28 1.353.526 1.775.551.953 2.974 1.384 3.663 1h.005Z"/><path fill="#fff" d="M68.802 39.789c-.198-.518-.642-.776-1.315-.776-.349 0-.814.069-1.176.31-.962.655-1.294 1.6-.772 2.38.272.409.703.616 1.198.616.462 0 .97.017 1.306-.168 1.32-.733.914-1.94.755-2.362h.004ZM70.009 44.633c-.681 0-1.401-.737-1.401-1.422 0-.685.728-1.358 1.427-1.358.698 0 1.349.668 1.349 1.358 0 .69-.677 1.422-1.37 1.422h-.005Z"/><path stroke="#0E141B" stroke-linecap="round" stroke-linejoin="round" stroke-width="1.411" d="M48.759 9.9s.724-1.077 2.297-.495c4.237 1.573 12.578 5.625 21.431 13.336 9.354 8.147 11.436 17.6 11.199 25.32-.505 16.422-11.544 23.137-32.906 22.693-24.75-.517-33.922-10.595-33.905-24.543.013-11.194 7.927-18.733 15.466-23.819 7.176-4.845 12.594-7.345 16.422-12.491h-.004Z"/><path fill="#fff" d="M46.94 82.164c.982-3.009 3.564-10.97 11.301-8.487 4.397 1.409 5.34 7.064 3.246 17.706-.345 1.759-1.69 3.923-4.229 3.56-2.047-.292-3.62-1.68-3.586-4.65.035-2.97.285-5.647.212-7.703"/><path stroke="#0E141B" stroke-linecap="round" stroke-linejoin="round" stroke-width="1.411" d="M46.94 82.164c.982-3.009 3.564-10.97 11.301-8.487 4.397 1.409 5.34 7.064 3.246 17.706-.345 1.759-1.69 3.923-4.229 3.56-2.047-.292-3.62-1.68-3.586-4.65.035-2.97.285-5.647.212-7.703"/><path fill="#fff" d="M65.88 73.9c-.311-1.9-1.608-2.27-3.811-2.49-1.53-.151-9.974.012-12.543-1.139-3.802-1.702-4.996-7.31-11.548-7.913-3.823-.354-10.47 2.172-10.81 15.314-.353 13.703 8.444 15.901 11.267 16.177 4.138.4 7.6-1.625 8.496-4.017"/><path stroke="#0E141B" stroke-linecap="round" stroke-linejoin="round" stroke-width="1.411" d="M65.88 73.9c-.311-1.9-1.608-2.27-3.811-2.49-1.53-.151-9.974.012-12.543-1.139-3.802-1.702-4.996-7.31-11.548-7.913-3.823-.354-10.47 2.172-10.81 15.314-.353 13.703 8.444 15.901 11.267 16.177 4.138.4 7.6-1.625 8.496-4.017"/><path fill="#fff" d="M38.026 82.422c.94-3.038 3.612-10.456 12.021-8.215 4.78 1.271 5.806 6.276 3.966 16.983-.306 1.767-1.655 4.168-4.397 3.888-2.21-.229-3.543-1.768-3.62-4.737-.078-2.97.09-5.656-.07-7.703"/><path stroke="#0E141B" stroke-linecap="round" stroke-linejoin="round" stroke-width="1.411" d="M38.026 82.422c.94-3.038 3.612-10.456 12.021-8.215 4.78 1.271 5.806 6.276 3.966 16.983-.306 1.767-1.655 4.168-4.397 3.888-2.21-.229-3.543-1.768-3.62-4.737-.078-2.97.09-5.656-.07-7.703"/><path fill="#fff" d="M37.815 71.534c1.595 1.88 3.707 4.798 7.763 6.078 5.168 1.634 15.413.823 17.025.608 2.203-.293 3.884-2.039 3.28-4.32"/><path stroke="#0E141B" stroke-linecap="round" stroke-linejoin="round" stroke-width="1.411" d="M37.815 71.534c1.595 1.88 3.707 4.798 7.763 6.078 5.168 1.634 15.413.823 17.025.608 2.203-.293 3.884-2.039 3.28-4.32"/><path fill="#fff" stroke="#0E141B" stroke-linecap="round" stroke-linejoin="round" stroke-width="1.411" d="M48.78 70.19c.073 1.771 1.755 3.314 3.647 3.306 1.892-.01 11.03.228 12.827-.487 1.798-.716 2.28-2.384 2.13-3.479-.19-1.397-.918-2.647-2.966-3.233-1.461-.418-10.784-.116-13.263.587-1.362.383-2.43 1.836-2.375 3.31v-.005Z"/></g><defs><clipPath id="a"><path fill="#fff" d="M2 3h98v98H2z"/></clipPath></defs></svg>