<svg xmlns="http://www.w3.org/2000/svg" width="102" height="102" fill="none"><g clip-path="url(#a)"><path fill="#fff" d="M37.875 76.041s.605 7.684-3.182 10.034c-1.588.984-.447 3.338 1.522 2.805 2.48-.666 8.167-4.524 9.8-9.47"/><path stroke="#0E141B" stroke-linecap="round" stroke-miterlimit="10" stroke-width="1.488" d="M37.875 76.041s.605 7.684-3.182 10.034c-1.588.984-.447 3.338 1.522 2.805 2.48-.666 8.167-4.524 9.8-9.47"/><path fill="#FABE00" d="M60.65 94.725c-.12.251-.917 1.025-2.112.967-.752-.036-1.303-.39-1.638-.877-.68.555-3.213.873-3.63-1.414-.25-1.383.224-2.028 1.867-3.84 1.038-1.146 1.866-3.388 5.003-3.576 4.945-.3 5.088 4.211 4.677 6.471-.269 1.473-1.392 3.29-3.397 2.744a1.616 1.616 0 0 1-.788-.488"/><path stroke="#0E141B" stroke-linecap="round" stroke-linejoin="round" stroke-width="1.488" d="M60.663 92.483c-.747.985-.367 2.381.887 2.748 1.709.497 2.416-.582 3.002-1.956.994-2.327 1.66-7.617-4.417-7.29-3.732.202-3.71 2.457-5.052 3.62-1.844 1.603-2.336 2.637-1.907 3.975.587 1.848 2.838 1.812 3.625 1.154"/><path stroke="#0E141B" stroke-linecap="round" stroke-linejoin="round" stroke-width="1.488" d="M57.012 92.403c-1.003 1.199-.425 3.19 1.526 3.284 1.195.059 1.987-.711 2.112-.966"/><path fill="#fff" d="M55.669 78.91c.031.796.08 1.602.152 2.394.072.81.166 1.606.291 2.38.13.815.295 1.607.492 2.35.22.815.488 1.575.806 2.256.327.693.958 1.123 1.67 1.32a3.71 3.71 0 0 0 2.165-.072c.756-.273 1.325-.81 1.352-1.557.022-.59.017-1.311.017-2.206a79.114 79.114 0 0 1 .125-4.417c.041-.68.09-1.41.153-2.202.058-.69.125-1.419.206-2.202a124.142 124.142 0 0 1 .541-4.39"/><path stroke="#0E141B" stroke-linecap="round" stroke-linejoin="round" stroke-width="1.488" d="M55.669 78.91c.031.796.08 1.602.152 2.394.072.81.166 1.606.291 2.38.13.815.295 1.607.492 2.35.22.815.488 1.575.806 2.256.327.693.958 1.123 1.67 1.32a3.71 3.71 0 0 0 2.165-.072c.756-.273 1.325-.81 1.352-1.557.022-.59.017-1.311.017-2.206a79.114 79.114 0 0 1 .125-4.417c.041-.68.09-1.41.153-2.202.058-.69.125-1.419.206-2.202a124.142 124.142 0 0 1 .541-4.39"/><path fill="#F2A1B3" stroke="#0E141B" stroke-linecap="round" stroke-linejoin="round" stroke-width="1.488" d="M48.952 82.002c15.922-.004 25.683-4.493 25.679-13.21 0-8.2-11.09-11.614-25.68-11.614-14.589 0-24.645 3.415-24.734 11.613-.09 8.1 8.816 13.202 24.735 13.211Z"/><path fill="#232022" d="M73.1 16.041s2.31-2.184 3.2-1.915c.675.201 1.477 1.884 1.217 2.537-.345.86-3.473 1.294-3.473 1.294"/><path stroke="#0E141B" stroke-linecap="round" stroke-linejoin="round" stroke-width="1.488" d="M73.1 16.041s2.31-2.184 3.2-1.915c.675.201 1.477 1.884 1.217 2.537-.345.86-3.473 1.294-3.473 1.294"/><path fill="#232022" d="M73.1 17.885s3.858-.295 4.583.622c.411.524-.023 1.634-.627 2.6-.68 1.083-1.861 2.256-1.861 2.256l-3.746-3.849"/><path stroke="#0E141B" stroke-linecap="round" stroke-linejoin="round" stroke-width="1.488" d="M73.1 17.885s3.858-.295 4.583.622c.411.524-.023 1.634-.627 2.6-.68 1.083-1.861 2.256-1.861 2.256l-3.746-3.849"/><path fill="#fff" stroke="#0E141B" stroke-linecap="round" stroke-linejoin="round" stroke-width="1.488" d="M74.264 36.7c0-11.87-6.154-25.282-25.17-25.282-19.015 0-25.168 12.339-25.168 25.281 0 1.911-.922 4.838.814 6.31 3.335 2.824 35.56 1.133 35.56 1.133 8.15 0 2.784 14.164 6.772 10.794 5.124-4.332 7.196-10.893 7.196-18.232l-.004-.005Z"/><path fill="#fff" d="M40.551 58.39c-4.394-1.05-8.449-3.96-10.816-8.104-4.471-7.823-7.076-8.865-9.443-7.03-1.114.863-1.182 3.27-.416 5.19.832 2.09 2.488 4.74 4.896 8.025 3.951 5.397 10.396 8.44 11.407 10.602.542 1.163.631 9.487.631 9.487s20.985-.56 26.78-4.81c0 0 .17-4.673.528-12.62"/><path stroke="#0E141B" stroke-linecap="round" stroke-linejoin="round" stroke-width="1.488" d="M40.551 58.39c-4.394-1.05-8.449-3.96-10.816-8.104-4.471-7.823-7.076-8.865-9.443-7.03-1.114.863-1.182 3.27-.416 5.19.832 2.09 2.488 4.74 4.896 8.025 3.951 5.397 10.396 8.44 11.407 10.602.542 1.163.631 9.487.631 9.487s20.985-.56 26.78-4.81c0 0 .17-4.673.528-12.62"/><path fill="#0E141B" stroke="#0E141B" stroke-linecap="round" stroke-linejoin="round" stroke-width="1.488" d="M32.568 31.848c0 .358-.318.649-.676.649-.358 0-.676-.103-.676-.465 0-.435.318-.837.676-.837.358 0 .676.228.676.648v.005ZM56.971 32.47c0 .35-.304.627-.653.627-.35 0-.654-.103-.654-.448 0-.42.305-.81.654-.81.349 0 .653.22.653.627v.004Z"/><path fill="#DEB971" d="M60.829 12.354s1.629-3.885 5.366-4.176c1.91-.147 3.41.273 4.954 1.356 1.66 1.168 2.667 2.556 2.945 4.381.523 3.45-2.927 6.928-2.927 6.928"/><path stroke="#0E141B" stroke-linecap="round" stroke-linejoin="round" stroke-width="1.488" d="M60.829 12.354s1.629-3.885 5.366-4.176c1.91-.147 3.41.273 4.954 1.356 1.66 1.168 2.667 2.556 2.945 4.381.523 3.45-2.927 6.928-2.927 6.928"/><path fill="#232022" stroke="#0E141B" stroke-linecap="round" stroke-linejoin="round" stroke-width="1.488" d="M68.186 13.146c-2.103-1.562-3.374-2.873-4.77-3.912-1.701 1.298-2.587 3.12-2.587 3.12l10.338 8.49s1.575-1.59 2.434-3.68c-1.821-1.423-3.106-2.3-5.415-4.018Z"/><path stroke="#0E141B" stroke-linecap="round" stroke-linejoin="round" stroke-width="2.55" d="M28.513 25.305S29.694 24.2 32 24.128c2.515-.076 3.72.797 3.72.797M60.3 25.994s-1.167-1.074-3.427-1.127c-2.466-.059-3.639.81-3.639.81"/><path fill="#8F2323" stroke="#0E141B" stroke-linecap="round" stroke-linejoin="round" stroke-width="1.488" d="M25.877 42.575s2.135 7.407 2.381 11.734c0 0 17.709 7.675 32.808 1.898 5.89-2.256 7.232-12.683-3.978-13.243-11.21-.559-22.126-.049-31.21-.393v.004Z"/><path fill="#F4B4C4" stroke="#0E141B" stroke-linecap="round" stroke-linejoin="round" stroke-width="1.488" d="M49.077 31.817c.895 5.41 5.769 6.578 8.995 6.551 4.959-.035 9.573-3.32 9.385-9.281-.166-5.281-3.92-8.517-9.51-8.517-8.53 0-9.367 7.8-9.367 7.8-1.15-.116-3.298-.545-7.133-.013 0 0-.757-7.863-9.117-7.791-5.59.05-9.344 3.236-9.51 8.516-.187 5.961 4.427 9.246 9.385 9.282 3.231.022 8.199-1.468 9-6.547.094-.609 6.56-.618 7.867-.005l.005.005Z"/><path fill="#ED7971" stroke="#0E141B" stroke-linecap="round" stroke-linejoin="round" stroke-width="1.488" d="M38.144 29.467c.022-3.29-2.426-5.867-5.912-5.84-3.705.027-6.386 2.31-6.305 5.594.098 4.081 2.93 6.23 6.22 6.153 3.728-.089 5.97-2.622 5.997-5.911v.004Z"/><path fill="#FDEA94" stroke="#FDEA94" stroke-linecap="round" stroke-linejoin="round" stroke-width="1.488" d="M30.42 26.567c-.291-.376-.663-.555-1.294-.067-.555.434-.63.76-.215 1.204.408.43.68.327 1.16-.04.492-.372.724-.613.349-1.097Z"/><path fill="#ED7971" stroke="#0E141B" stroke-linecap="round" stroke-linejoin="round" stroke-width="1.488" d="M64.033 29.467c.023-3.29-2.425-5.867-5.912-5.84-3.705.027-6.386 2.31-6.305 5.594.098 4.081 2.931 6.23 6.22 6.153 3.728-.089 5.97-2.622 5.997-5.911v.004Z"/><path fill="#FDEA94" stroke="#FDEA94" stroke-linecap="round" stroke-linejoin="round" stroke-width="1.488" d="M56.309 26.567c-.29-.376-.662-.555-1.293-.067-.555.434-.631.76-.215 1.204.407.43.68.327 1.159-.04.492-.372.725-.613.349-1.097Z"/><path fill="#fff" d="M58.573 55.983c.291-.161 5.559-2.112 11.153-1.794 3.396.192 7.017 1.414 10.042 4.04 2.994 2.6 4.31 6.548 2.274 8.266-2.032 1.715-4.09.247-6.239-1.897-1.5-1.5-4.023-2.47-6.467-2.631-2.748-.18-5.97.546-5.97.546"/><path stroke="#0E141B" stroke-linecap="round" stroke-linejoin="round" stroke-width="1.488" d="M58.573 55.983c.291-.161 5.559-2.112 11.153-1.794 3.396.192 7.017 1.414 10.042 4.04 2.994 2.6 4.31 6.548 2.274 8.266-2.032 1.715-4.09.247-6.239-1.897-1.5-1.5-4.023-2.47-6.467-2.631-2.748-.18-5.97.546-5.97.546"/><path fill="#FABE00" stroke="#0E141B" stroke-linecap="round" stroke-linejoin="round" stroke-width="1.488" d="M52.576 39.12c.958 0 4.35-.286 6.798-.711 5.442-.945 9.295 2.434 10.244 6.775.913 4.171-.22 9.635-5.912 13.032-5.263 3.142-12.284 4.082-18.684 4.073-4.17-.01-13.045-1.665-16.75-3.536-3.192-1.61-3.966-4.077-2.856-5.509 1.804-2.327 4.538-.224 9.77.886 6.225 1.32 11.317 1.195 16.361.631 2.39-.268 6.212-1.1 8.158-2.457 2.243-1.562 2.507-3.33 1.934-4.497-.877-1.79-2.726-2.037-6.48-1.401-2.757.47-6.454.89-10.804.908-5.097.018-10.02-.859-12.71-1.351-7.482-1.36-10.713-3.504-10.293-6.243.47-3.075 3.54-3.58 7.045-2.376 2.506.859 6.878 1.673 9.062 1.655.018-1.329.685-6.56 7.796-6.542 7.004.017 7.34 5.804 7.326 6.668l-.005-.005Z"/><path fill="#0E141B" d="M43.057 37.617a1.186 1.186 0 0 1-1.194 1.168 1.18 1.18 0 1 1 .027-2.363 1.18 1.18 0 0 1 1.167 1.195ZM48.688 37.688c-.01.65-.542 1.074-1.195 1.065-.654-.009-1.177-.443-1.168-1.096a1.18 1.18 0 1 1 2.363.027"/><path fill="#DEB971" stroke="#0E141B" stroke-linecap="round" stroke-linejoin="round" stroke-width="1.488" d="M74.151 24.437c-2.738-.756-6.659-3.54-10.36-6.422-4.032-3.146-6.82-6.248-7.675-7.3-.555-.684-.581-1.646.054-2.255.64-.608 1.678-.608 2.255.054.842.962 4.078 4.328 8.087 7.514 2.838 2.255 6.06 4.426 9.099 5.603.823.318 1.391 1.07 1.02 2.05-.242.635-1.289 1.181-2.484.756h.004Z"/><path fill="#FABE00" d="M34.22 81.514c-1.106-.908-2.856-.756-3.277.18-1.504-.56-2.846-.229-3.164.854-.26.882.407 1.911 1.759 2.797 1.777 1.164 2.927 2.69 3.889 3.594.922.868 2.68 1.96 4.865 1.53.519-.103 1.602-1.056 1.96-2.201.725-2.323-.743-5.143-1.428-6.078-.917-1.248-2.506-2.01-3.683-1.566a1.538 1.538 0 0 0-.922.9v-.01Z"/><path stroke="#0E141B" stroke-linecap="round" stroke-linejoin="round" stroke-width="1.488" d="M30.939 81.689c-1.504-.56-2.64.013-2.959 1.096-.26.882-.143 1.898 1.204 2.784 1.777 1.163 3.258 2.524 4.122 3.522 1.092 1.258 2.967 1.898 4.632 1.481 1.195-.3 1.947-1.163 2.305-2.309.725-2.323-.743-5.142-1.428-6.077-.917-1.249-2.063-2.243-3.446-1.773-1.714.582-1.307 2.4-.376 2.98"/><path stroke="#0E141B" stroke-linecap="round" stroke-linejoin="round" stroke-width="1.488" d="M31.758 83.958s-1.209-.757-.82-2.265c.256-.993 2.109-1.852 3.277-.179"/><path fill="#F2A1B3" d="M31.216 69.48c-.367-1.177-.47-2.304.18-2.815 1.22-.962 2.613.716 4.014 1.652 1.548 1.034 8.914 1.906 15.829 1.553 5.576-.282 10.856-1.517 12.557-2.896 0 0 1.49.273 2.22 3.594 1.114 5.075-11.399 9.626-20.636 9.026-11.403-.742-12.888-6.041-14.16-10.114h-.004Z"/><path stroke="#0E141B" stroke-linecap="round" stroke-linejoin="round" stroke-width="1.488" d="M65.774 65.914c-.667 2.233-6.592 3.53-14.49 3.91-5.071.243-11.659-.693-14.228-1.516-2.841-.909-2.08-1.929-2.08-1.929"/><path fill="#F2A1B3" d="M38.99 73.338s2.949-.39 3.49-4.551c.291-2.252-.8-3.173-1.95-2.86-1.178.318-1.563 1.759-1.133 2.587.694 1.338.39 2.228-.828 2.367-3.025.345-5.643-1.262-4.274-7.527 1.213-5.559 7.859-5.76 10.736-4.435 1.737.8 3.482 3.132 3.357 7.527-.13 4.502-2.113 7.04 1.615 6.887"/><path fill="#fff" d="M36.372 60.185s1.159 1.182 2.586.425c1.236-.648 3.272-.528 3.648 1.652.384 2.224-.694 3.437-2.122 3.822 0 0-1.28.049-1.333 1.88 0 0-5.04-.072-4.525-5.407l1.755-2.372h-.01Z"/><path fill="#0E141B" d="M41.415 62.682a1.39 1.39 0 0 1-1.392 1.392 1.39 1.39 0 0 1-1.391-1.392c0-.77.622-1.392 1.392-1.392.77 0 1.391.623 1.391 1.392Z"/><path stroke="#0E141B" stroke-linecap="round" stroke-linejoin="round" stroke-width="1.488" d="M38.99 73.338s2.291-.201 3.043-3.656c.371-1.714.519-3.222-.667-3.692-1.137-.448-2.564.371-2.264 2.52.223 1.601.47 2.613-.739 2.796-1.844.287-5.437-1.687-4.068-7.952 1.213-5.559 7.868-5.773 10.736-4.435 1.965.917 4.006 3.182 3.545 7.487-.48 4.48-2.305 7.084 1.423 6.932"/><path fill="#0E141B" d="M34.174 62.284s1.893-.586 2.274.694c.376 1.28-.546 3.611 2.51 4.556l-.156 2.998s-4.435 2.725-5.268-4.735c-.3-2.712.645-3.513.645-3.513h-.005Z"/><path fill="#0E141B" stroke="#0E141B" stroke-linecap="round" stroke-linejoin="round" stroke-width="1.488" d="M83.653 47.954c.215.421 1.002.636 1.794.26.793-.376 1.02-.922.712-1.45-.228-.394-1.137-.434-1.665-.22-.403.166-1.154.793-.837 1.415l-.004-.005Z"/><path stroke="#0E141B" stroke-linecap="round" stroke-linejoin="round" stroke-width="1.488" d="m86.257 47.43 1.996-6.162s.663 1.101 1.7 2c1.04.9 1.764 2.48.189 3.684"/><path fill="#0E141B" stroke="#0E141B" stroke-linecap="round" stroke-linejoin="round" stroke-width="1.488" d="M10.907 21.054c.403.241 1.186 0 1.656-.739.47-.743.367-1.324-.174-1.606-.403-.21-1.19.237-1.526.702-.255.354-.55 1.29.044 1.643ZM15.951 17.496c.403.242 1.186 0 1.656-.739.47-.742.367-1.324-.175-1.606-.402-.21-1.19.237-1.526.702-.255.354-.55 1.29.045 1.643Z"/><path stroke="#0E141B" stroke-linecap="round" stroke-linejoin="round" stroke-width="1.488" d="m12.635 18.776-1.674-4.843 4.793-4.537 1.857 5.804"/></g><defs><clipPath id="a"><path fill="#fff" d="M9.775 7.225h82.063v89.25H9.775z"/></clipPath></defs></svg>