<svg xmlns="http://www.w3.org/2000/svg" width="102" height="102" fill="none"><g clip-path="url(#a)"><path stroke="#0E141B" stroke-linecap="round" stroke-linejoin="round" stroke-width="1.488" d="M13.766 68.298s-1.403 5.559 2.159 9.46"/><path fill="#F6AC1A" d="M39.648 75.31c-5.767 2.72-6.634 6.609-6.906 10.149-.25 3.255 1.755 5.504 3.842 5.767 4.926.616 6.2-1.649 7.272-4.696 1.083-3.086 4.598-3.914 7.288-3.685 2.478.213 4.025 1.845 4.39 3.897.57 3.188-2.524 10.961 4.578 10.978 3.285.009 4.645-3.009 6.048-6.303 4.037-9.49 6.51-26.55 6.655-29.142"/><path fill="#AFD5E9" d="m63.92 54.417-3.375 1.989s-1.262 4.977-5.937 5.755c-4.675.777-4.968-2.24-4.968-2.24l-5.053.23s1.632 9.987-5.228 15.295c0 0 6.014.689 7.841 7.897 0 0 4.437-2.109 7.62 1.56 0 0 8.003 1.525 13.992-1.318 0 0 3.293-13.72 3.999-21.305 0 0-6.928 1.555-8.891-7.859v-.004Z"/><path fill="#F6AC1A" d="M49.644 59.925s.646 3.09 4.968 2.24c4.323-.85 5.547-4.522 5.746-5.661"/><path stroke="#0E141B" stroke-linecap="round" stroke-linejoin="round" stroke-width="1.488" d="M49.644 59.925s.646 3.09 4.968 2.24c4.323-.85 5.547-4.522 5.746-5.661M39.648 75.31c-4.845 2.274-6.621 6.592-6.906 10.149-.264 3.255 1.755 5.504 3.842 5.767 4.926.616 6.2-1.649 7.272-4.696 1.084-3.086 4.598-3.914 7.288-3.685 2.478.213 4.025 1.845 4.39 3.897.57 3.188-2.524 10.961 4.578 10.978 3.285.009 4.645-3.009 6.048-6.303 4.037-9.49 6.51-26.55 6.655-29.142"/><path stroke="#050202" stroke-linecap="round" stroke-linejoin="round" stroke-width="1.488" d="M39.648 75.31s5.109.157 7.544 8.02M54.808 84.902c.106.009 8.577 1.394 14.084-1.585"/><path fill="#F6AC1A" d="M48.726 12.227s-.034-3.995 4.314-4.942c4.165-.91 7.433 2.006 6.779 6.783"/><path stroke="#0E141B" stroke-linecap="round" stroke-linejoin="round" stroke-width="1.488" d="M48.726 12.227s-.034-3.995 4.314-4.942c4.165-.91 7.433 2.006 6.779 6.783"/><path fill="#F6AC1A" d="M33.252 17.663s-2.325-2.975-6.68-.684c-3.788 1.989-3.639 6.727-.728 9.396"/><path stroke="#0E141B" stroke-linecap="round" stroke-linejoin="round" stroke-width="1.488" d="M33.252 17.663s-2.325-2.975-6.68-.684c-3.788 1.989-3.639 6.727-.728 9.396"/><path fill="#F6AC1A" d="M70.958 47.107c-1.704 2.325-4.131 5.848-9.256 8.683-11.31 6.252-20.396 4.632-25.564 2.231-5.483-2.55-11.314-8.564-12.618-18.887-1.586-12.52 7.926-21.127 13.485-23.838 5.291-2.58 11.61-3.893 18.224-2.588 9.499 1.87 14.764 8.13 17.06 14.432 2.252 6.188 2.643 14.557-1.323 19.967h-.008Z"/><path fill="#AFD5E9" d="M23.422 33.146s19.562-12.164 42.725-15.56c0 0-2.508-2.562-6.286-3.9 0 0-20.8 3.178-34.191 12.639 0 0-1.802 2.864-2.248 6.82Z"/><path stroke="#0E141B" stroke-linecap="round" stroke-linejoin="round" stroke-width="1.488" d="M70.958 47.107c-1.704 2.325-4.131 5.848-9.256 8.683-11.31 6.252-20.396 4.632-25.564 2.231-5.483-2.55-11.314-8.564-12.618-18.887-1.586-12.52 7.926-21.127 13.485-23.838 5.291-2.58 11.61-3.893 18.224-2.588 9.499 1.87 14.764 8.13 17.06 14.432 2.252 6.188 2.643 14.557-1.323 19.967h-.008Z"/><path fill="#0E141B" d="M59.517 33.294c.701-2.26-2.027-3.535-3.302-1.542-.702 2.26 2.027 3.536 3.302 1.543ZM52.096 28.3s3.749-1.538 8.262-2.97l-8.262 2.97Z"/><path stroke="#0E141B" stroke-linecap="round" stroke-linejoin="round" stroke-width="2.125" d="M52.096 28.3s3.749-1.538 8.262-2.97"/><path fill="#0E141B" d="M39.963 40.477c.692-2.235-2.002-3.493-3.264-1.526-.693 2.236 2.001 3.494 3.264 1.526Z"/><path fill="#fff" d="M48.603 41.625c-3.65.05-5.423 2.809-4.862 5.04.455 1.823 2.622 3.018 4.543 2.503 2.074-.556 2.988-2.074 3.043-3.455.85 1.097 2.202 1.653 4.212.897 1.861-.701 2.992-2.427 2.337-4.62-.658-2.206-3.88-3.923-7.144-1.045l-.9.845"/><path stroke="#0E141B" stroke-linecap="round" stroke-linejoin="round" stroke-width="1.488" d="M48.603 41.625c-3.65.05-5.423 2.809-4.862 5.04.455 1.823 2.622 3.018 4.543 2.503 2.074-.556 2.988-2.074 3.043-3.455.85 1.097 2.202 1.653 4.212.897 1.861-.701 2.992-2.427 2.337-4.62-.658-2.206-3.88-3.923-7.144-1.045l-.9.845"/><path fill="#0E141B" d="M31.395 35.896s3.748-1.539 8.262-2.971l-8.262 2.97Z"/><path stroke="#0E141B" stroke-linecap="round" stroke-linejoin="round" stroke-width="2.125" d="M31.395 35.896s3.748-1.539 8.262-2.971"/><path fill="#0E141B" d="M47.302 41.603c.162.867 1.98 2.16 3.056 1.756.965-.362 1.594-2.198 1.326-3.37-.31-1.37-4.828-.795-4.382 1.61v.004Z"/><path fill="#F6AC1A" d="M36.12 59.972c2.21-1.632 7.098-.502 8.127 3.557 1.215 4.798-1.173 8.228-1.173 8.228-.974 1.704-4.05 4.964-8.815 3.515-4.127-1.254-6.532-4.352-5.67-9.98"/><path stroke="#0E141B" stroke-linecap="round" stroke-linejoin="round" stroke-width="1.488" d="M36.12 59.972c2.21-1.632 7.098-.502 8.127 3.557 1.215 4.798-1.173 8.228-1.173 8.228-.974 1.704-4.05 4.964-8.815 3.515-4.127-1.254-6.532-4.352-5.67-9.98"/><path fill="#ED7577" stroke="#0E141B" stroke-linecap="round" stroke-linejoin="round" stroke-width="1.488" d="M28.127 62.016s-.447-1.819-1.875-2.133c-1.011-.222-2.605-.098-3.51.186-.723.23-1.76 1.246-1.815 2.805-.064 1.934.085 3.855.54 4.71.45.854 1.13 1.224 2.89 1.198 1.76-.025 4.088-.365 4.101-2.095l11.428-.417s.914 1.569 2.47 1.543c1.627-.026 4.925.25 5.155-2.303.225-2.478-.166-4.459-.693-5.475-.85-1.644-4.097-1.491-5.542-1.028-1.262.404-1.369 2.24-1.369 2.24s-5.418.225-7.543.323c-1.624.072-4.237.45-4.237.45v-.004Z"/><path fill="#F6AC1A" d="M28.926 70.622c-.523-1.44-.663-3.204-.336-5.33.552-3.612 2.813-5.307 4.696-5.316 1.806-.013 3.583.191 5.21 3.077 1.055 1.866.74 4.781.74 4.781"/><path stroke="#0E141B" stroke-linecap="round" stroke-linejoin="round" stroke-width="1.488" d="M28.926 70.622c-.523-1.44-.663-3.204-.336-5.33.552-3.612 2.813-5.307 4.696-5.316 1.806-.013 3.583.191 5.21 3.077 1.055 1.866.74 4.781.74 4.781M23.634 32.933s19.138-11.738 42.3-15.134M59.232 13.838s-19.745 2.6-33.137 12.061"/><path fill="#ED7577" stroke="#0E141B" stroke-linecap="round" stroke-linejoin="round" stroke-width="1.488" d="M68.212 32.789s-.267-1.857-1.657-2.308c-.982-.319-2.584-.353-3.51-.157-.744.157-1.875 1.067-2.079 2.614-.255 1.916-.289 3.842.077 4.738.365.897 1.007 1.33 2.758 1.475 1.75.145 4.105.034 4.284-1.683l10.557.604s.752 1.649 2.303 1.776c1.624.132 4.88.731 5.355-1.79.464-2.443.268-4.453-.153-5.516-.684-1.72-3.93-1.887-5.414-1.564-1.296.28-1.581 2.096-1.581 2.096s-4.135-.166-6.26-.277c-1.624-.085-4.684-.008-4.684-.008h.004Z"/><path fill="#F6AC1A" stroke="#0E141B" stroke-linecap="round" stroke-linejoin="round" stroke-width="1.488" d="M77.996 45.105c.905-7.212.395-13.919-5.35-13.166-4.433.582-4.557 5.614-5.64 13.328-.974 6.923-3.154 9.668-3.154 9.668.136 2.652 3.434 8.798 8.96 7.34.458-.123 4.321-10.315 5.184-17.17Z"/><path stroke="#0E141B" stroke-linecap="round" stroke-linejoin="round" stroke-width="1.488" d="M17.234 69.356s-.982 4.003 1.7 6.422M84.715 45.798s.68 5.1-2.125 11.05M88.277 45.267s.582 8.925-3.668 15.308"/></g><defs><clipPath id="a"><path fill="#fff" d="M12.75 6.375h76.296v92.089H12.75z"/></clipPath></defs></svg>