<svg xmlns="http://www.w3.org/2000/svg" width="102" height="102" fill="none"><g clip-path="url(#a)"><path fill="#FFD900" d="M46.464 81.942s1.95 2.083 2.01 4.829c.017.818-.358 1.631-.72 2.544-.748 1.893-.214 3.413.71 4.136 1.258.98 3.35 1.063 5.17-.078 3.086-1.937 4.66-6.96 3.154-12.124"/><path stroke="#0E141B" stroke-linecap="round" stroke-linejoin="round" stroke-width="1.488" d="M46.464 81.942s1.95 2.083 2.01 4.829c.017.818-.358 1.631-.72 2.544-.748 1.893-.214 3.413.71 4.136 1.258.98 3.35 1.063 5.17-.078 3.086-1.937 4.66-6.96 3.154-12.124"/><path fill="#FFD900" d="M35.812 82.502s1.738 1.6 1.829 4.27c.03.907-.267 1.888-.646 3.085-1.364 4.304 2.922 5.746 6.417 3.998 2.548-1.274 4.739-5.793 3.194-9.899"/><path stroke="#0E141B" stroke-linecap="round" stroke-linejoin="round" stroke-width="1.488" d="M35.812 82.502s1.738 1.6 1.829 4.27c.03.907-.267 1.888-.646 3.085-1.364 4.304 2.922 5.746 6.417 3.998 2.548-1.274 4.739-5.793 3.194-9.899"/><path fill="#009A3E" d="M71.658 78.327s-2.049-.323-1.67 2.535c.327 2.475 3.774 4.635 9.111 3.99 0 0 .753 1.725 2.965 4.153 0 0 .074 4.583 2.587 4.936 2.238.319 2.785-1.536 2.785-1.536s.417 1.859 2.5 1.428c1.351-.28 1.92-1.093 2.044-3.774.056-1.18.624-2.543.547-4.166-.215-4.6-3.688-8.25-5.126-8.896-1.437-.645-15.743 1.33-15.743 1.33Z"/><path fill="#fff" d="M23.994 35.444c-5.712-13.794-4.718-18.136-.853-19.415 2.11-.697 4.86-.189 6.805 5.595 1.842 5.484 2.479 6.856 2.479 6.856"/><path stroke="#0E141B" stroke-linecap="round" stroke-linejoin="round" stroke-width="1.488" d="M23.994 35.444c-5.712-13.794-4.718-18.136-.853-19.415 2.11-.697 4.86-.189 6.805 5.595 1.842 5.484 2.479 6.856 2.479 6.856"/><path fill="#EF8585" d="M28.456 27.28c-1.002-2.768-1.85-5.587-2.638-7.059-.542-1.011-1.497-1.174-2.186-.658-.925.693-1.128 1.997 1.756 9.765"/><path stroke="#0E141B" stroke-linecap="round" stroke-linejoin="round" stroke-width="1.488" d="M28.456 27.28c-1.002-2.768-1.85-5.587-2.638-7.059-.542-1.011-1.497-1.174-2.186-.658-.925.693-1.128 1.997 1.756 9.765"/><path fill="#fff" d="M51.172 24.172c-2.328-5.577-3.052-15.17-9.073-13.965-2.005.4-4.179 2.19-2.797 7.755 1.325 5.337 1.644 6.129 1.937 7.355"/><path stroke="#0E141B" stroke-linecap="round" stroke-linejoin="round" stroke-width="1.488" d="M51.172 24.172c-2.328-5.577-3.052-15.17-9.073-13.965-2.005.4-4.179 2.19-2.797 7.755 1.325 5.337 1.644 6.129 1.937 7.355"/><path fill="#EF8585" d="M47.341 22.571c-1.003-2.862-1.67-5.225-2.22-6.843-.34-.998-.646-1.734-1.175-2.096-.633-.426-1.619-.155-1.924.513-.241.525-.246 1.282.172 2.849.336 1.256.873 3.008 1.683 5.564"/><path stroke="#0E141B" stroke-linecap="round" stroke-linejoin="round" stroke-width="1.488" d="M47.341 22.571c-1.003-2.862-1.67-5.225-2.22-6.843-.34-.998-.646-1.734-1.175-2.096-.633-.426-1.619-.155-1.924.513-.241.525-.246 1.282.172 2.849.336 1.256.873 3.008 1.683 5.564"/><path fill="#FFD900" d="M64.001 66.139s8.728-11.212 8.952-24.592c.215-12.985-8.151-13.613-10.195-6.994l-3.53 27.966"/><path stroke="#0E141B" stroke-linecap="round" stroke-linejoin="round" stroke-width="1.488" d="M64.001 66.139s8.728-11.212 8.952-24.592c.215-12.985-8.151-13.613-10.195-6.994l-3.53 27.966"/><path fill="#fff" stroke="#0E141B" stroke-linecap="round" stroke-linejoin="round" stroke-width="1.488" d="M26.937 28.115S16.08 34.57 18.278 50.068c.637 4.498 2.204 10.27 8.844 15.098 5.828 4.244 2.669 13.996 8.625 17.47 6.469 3.774 21.623 2.345 26.206-3.022 4.42-5.178.323-14.667 2.91-21.459 2.586-6.796 4.135-10.01 2.564-19.156-1.381-8.04-40.49-10.889-40.49-10.889v.005Z"/><path stroke="#0E141B" stroke-linecap="round" stroke-linejoin="round" stroke-width="1.488" d="M30.699 65.558s16.479 5.112 20.469 5.866c0 0 8.736-6.684 13.372-12.4"/><path fill="#fff" d="M54.012 69.866s-4.562.594-6.765.985c0 0 .925 5.703 1.157 7.089 0 0 4.23-.551 6.731-1.09 0 0-.658-4.634-1.118-6.989l-.005.005Z"/><path fill="#7B9FD3" d="M54.124 72.211s-4.64.723-6.365.947l-.4-2.075 6.653-1.213"/><path stroke="#0E141B" stroke-linecap="round" stroke-linejoin="round" stroke-width="1.488" d="M54.012 69.866s-4.562.594-6.765.985c0 0 .925 5.703 1.157 7.089 0 0 4.23-.551 6.731-1.09 0 0-.658-4.634-1.118-6.989l-.005.005Z"/><path fill="#fff" stroke="#0E141B" stroke-linecap="round" stroke-linejoin="round" stroke-width="1.488" d="M6.12 37.85c0 1.011-.633 1.833-1.834 1.833-1.325 0-1.833-.822-1.833-1.833 0-1.18.822-1.834 1.833-1.834 1.27 0 1.834.822 1.834 1.834ZM11.07 47.533c0 1.012-.634 1.834-1.834 1.834-1.326 0-1.834-.822-1.834-1.834 0-1.179.822-1.833 1.834-1.833 1.27 0 1.833.822 1.833 1.833Z"/><path fill="#009A3E" d="M92.256 82.153s3.073-1.455 1.94-5.014c-1.131-3.559-5.443-2.264-5.443-2.264.318-4.062-2.38-9.36-8.737-7.82-6.008 1.46-4.906 7.334-4.906 7.334s-4.025 1.657-3.47 4.041c.164.698.539 1.06 1.421 1.515 0 0-.676 1.356.813 2.23.792.465 2.07.378 5.44-.422"/><path stroke="#0E141B" stroke-linecap="round" stroke-linejoin="round" stroke-width="1.488" d="M92.256 82.153s3.073-1.455 1.94-5.014c-1.131-3.559-5.443-2.264-5.443-2.264.318-4.062-2.38-9.36-8.737-7.82-6.008 1.46-4.906 7.334-4.906 7.334s-4.025 1.657-3.47 4.041c.164.698.539 1.06 1.421 1.515 0 0-.676 1.356.813 2.23.792.465 2.07.378 5.44-.422"/><path stroke="#0E141B" stroke-linecap="round" stroke-linejoin="round" stroke-width="1.488" d="M71.61 78.318s-2.194-.008-1.622 2.54c.547 2.435 3.16 4.648 9.111 3.99 0 0 .827 1.63 1.971 2.926 1.145 1.287 1.076 2.509 1.614 4.27.538 1.76 1.614 1.936 2.548 1.936 1.076 0 1.915-.749 2.204-1.575"/><path fill="#fff" d="M75.919 78.908s-.753-2.535.538-2.802c1.295-.27 2.104 1.941 2.104 1.941"/><path stroke="#0E141B" stroke-linecap="round" stroke-linejoin="round" stroke-width="1.275" d="M75.919 78.908s-.753-2.535.538-2.802c1.295-.27 2.104 1.941 2.104 1.941M73.06 79.945s3.823-1.3 6.147-2.066"/><path fill="#FFD900" stroke="#0E141B" stroke-linecap="round" stroke-linejoin="round" stroke-width="1.275" d="M77.911 73.976s-.68-3.069 2.264-4.063c2.97-1.003 4.627.994 4.627.994s-.198 2.53-2.832 3.452c-1.584.555-3.284.34-4.059-.383Z"/><path stroke="#0E141B" stroke-linecap="round" stroke-linejoin="round" stroke-width="1.275" d="m80.175 69.913 1.795 4.446"/><path fill="#FFD900" stroke="#0E141B" stroke-linecap="round" stroke-linejoin="round" stroke-width="1.488" d="M39.496 22.373c-8.518 1.868-17.427 6.163-18.847 18.61-1.553 13.574 6.396 27.596 28.685 22.642 22.406-4.98 19.204-23.352 16.953-28.448-2.251-5.096-9.482-16.595-26.791-12.804Z"/><path fill="#0E141B" d="M42.056 34.218c-1.889.533-2.857 1.94-2.104 3.288.753 1.347 4.962.809 5.879-1.08.809-1.67-1.296-2.914-3.775-2.213v.005Z"/><path fill="#76171C" d="M50.884 38.03c3.37-1.906 7.91-3.99 11.073-.395 3.667 4.166 3.155 17.834-12.696 21.23-15.85 3.396-22.165-4.794-22.38-10.402-.215-5.608 4.722-6.671 7.739-6.916 3.542-.289 9.795.142 16.264-3.52v.004Z"/><path fill="#fff" d="M59.005 37.884c-.43-1.007-.216-2.156-3.09-1.726-2.876.43-5.966 2.518-8.053 3.237-2.083.718-5.681 1.652-8.483 1.799a11.33 11.33 0 0 0-2.513.434c-.624-.107-1.782-.197-3.598.07-2.948.43-3.452 1.94-3.452 1.94s-.62 6.163 4.963 5.247c1.48-.241 2.302-.969 2.732-1.877.538.47 2.07 1.528 4.46 1.016 3.02-.646 3.45-2.733 3.45-2.733s2.157 1.726 4.817.719c2.66-1.007 2.517-3.379 2.517-3.379s2.66 1.296 5.032-.288c2.371-1.584 1.652-3.452 1.222-4.459h-.004Z"/><path fill="#EA5557" d="M37.296 58.732s-1.321-4.726 3.09-7.119c3.551-1.928 6.19-.043 6.19-.043s1.432-3.047 5.172-2.832c3.74.216 5.264 3.357 5.621 4.51.357 1.15-.516 1.963-1.885 2.609-1.364.645-7.906 4.743-18.188 2.875Z"/><path stroke="#0E141B" stroke-linecap="round" stroke-linejoin="round" stroke-width="1.488" d="M50.883 38.03c3.37-1.906 8.061-3.623 11.074-.395 3.357 3.598 3.155 17.834-12.696 21.23-15.851 3.396-22.165-4.794-22.38-10.402-.215-5.608 4.721-6.671 7.738-6.916 3.542-.289 9.796.142 16.264-3.52v.003Z"/><path stroke="#0E141B" stroke-linecap="round" stroke-linejoin="round" stroke-width="1.488" d="M29.8 43.212s-.586 6.667 4.979 5.673c3.451-.62 3.034-3.43 2.337-7.463M51.197 37.854c1.726 4.243 2.634 6.86-.96 8.156-3.593 1.295-4.815-1.08-4.815-1.08 0-.143-.215-2.772-.792-4.438"/><path stroke="#0E141B" stroke-linecap="round" stroke-linejoin="round" stroke-width="1.488" d="M37.391 46.888c.202.314 2.04 1.678 4.58 1.136 3.02-.646 3.45-3.09 3.45-3.09M53.113 42.558s2.014 1.222 4.674-.215c2.66-1.438 1.562-4.687.383-6.099M37.288 59.136s-1.15-5.16 3.099-7.518c4.023-2.234 6.903.357 7.548 1.007"/><path stroke="#0E141B" stroke-linecap="round" stroke-linejoin="round" stroke-width="1.488" d="M46.575 51.575s1.36-2.906 5.174-2.832c4.101.077 5.96 4.334 6.05 6.373"/><path fill="#fff" stroke="#0E141B" stroke-linecap="round" stroke-linejoin="round" stroke-width="1.488" d="M16.625 45.739c2.148 1.028 2.94-3.228 7.532-6.383 3.288-2.26 8.035-4.015 14.073-3.843 0 0-1.36-6.469-8.241-5.066-4.976 1.016-5.776 4.674-5.776 4.674s-1.997-.142-5.01-1.717c-2.134-1.119-4.385-2.324-5.453-1.364-.718.645.289 2.367 1.795 3.154 0 0-4.304-.357-5.022 1.15-.698 1.467 1.936 2.367 5.164 2.367 0 0-3.9 1.424-3.516 3.085.43 1.864 4.446 0 4.446 0s-1.649 3.155 0 3.947l.008-.004Z"/><path fill="#0E141B" d="M32.381 33.464a1.106 1.106 0 1 1-2.211.001 1.106 1.106 0 0 1 2.211 0Z"/><path fill="#fff" stroke="#0E141B" stroke-linecap="round" stroke-linejoin="round" stroke-width="1.488" d="M64.754 26.802s4.21-.271 3.444 2.152c-.861 2.724-5.953-.719-10.041 1.364 0 0-6.168-1.863-11.513 2.983 0 0-3.107-4.778.267-7.605 3.374-2.828 7.919-1.192 9.825 1.652 0 0 1.567-1.768 2.282-3.128.714-1.36 1.364-3.8 2.87-4.016 1.507-.215 2.582 1.15 1.076 3.8 0 0 5.079-2.479 5.737-.503.646 1.937-3.947 3.3-3.947 3.3Z"/><path fill="#0E141B" d="M51.305 27.697a1.106 1.106 0 1 1-2.211 0 1.106 1.106 0 0 1 2.21 0Z"/><path fill="#FFD900" d="M30.707 73.498c1.722-.258 2.557-1.248 4.894-2.711 2.337-1.46 5.053-.663 4.928 3.004-.125 3.671-5.707 7.33-10.403 6.731-4.42-.564-4.936-3.59-5.298-9.077-.4-6.12 1.309-7.652 4.076-7.41 2.298.197 3.865 2.767 3.9 8.555"/><path stroke="#0E141B" stroke-linecap="round" stroke-linejoin="round" stroke-width="1.488" d="M30.707 73.498c1.722-.258 2.557-1.248 4.894-2.711 2.337-1.46 5.053-.663 4.928 3.004-.125 3.671-5.707 7.33-10.403 6.731-4.42-.564-4.936-3.59-5.298-9.077-.4-6.12 1.309-7.652 4.076-7.41 2.298.197 3.865 2.767 3.9 8.555"/><path fill="#fff" stroke="#0E141B" stroke-linecap="round" stroke-linejoin="round" stroke-width="1.488" d="M78.058 27.177c.594.822.564 1.854-.482 2.608-1.033.744-2.036.456-2.626-.366-.594-.822-.469-1.924.483-2.608.96-.693 2.035-.457 2.625.366ZM74.903 16.632c.594.822.56 1.855-.482 2.608-1.033.745-2.036.456-2.625-.366-.594-.822-.47-1.923.482-2.608.96-.693 2.035-.456 2.625.366ZM63.989 12.298c.533.74.503 1.67-.435 2.346-.93.671-1.834.409-2.363-.327-.534-.74-.422-1.73.435-2.346.865-.624 1.829-.409 2.363.327Z"/><path stroke="#0E141B" stroke-linecap="round" stroke-linejoin="round" stroke-width="1.488" d="M86.838 88.527c.322.228.284.671.284.886 0 2.73.327 4.455 2.272 4.455 1.795 0 2.32-1.132 2.44-2.548.181-2.152.641-3.236.697-5.522.035-1.472-.443-3.047-1.454-4.626-.646-1.007-.698-2.079-.698-2.079"/></g><defs><clipPath id="a"><path fill="#fff" d="M1.7 9.35h93.5v85.981H1.7z"/></clipPath></defs></svg>