<svg xmlns="http://www.w3.org/2000/svg" width="102" height="102" fill="none"><g clip-path="url(#a)"><path fill="#B48732" d="M74.642 18.583s.067-3.359-2.879-3.794c-4.642-.689-7.525 2.421-7.64 5.61"/><path stroke="#0E141B" stroke-linecap="round" stroke-linejoin="round" stroke-width="1.275" d="M74.642 18.583s.067-3.359-2.879-3.794c-4.642-.689-7.525 2.421-7.64 5.61"/><path fill="#B48732" d="M87.383 26.162s6.344-.831 9.218 3.163c2.19 3.043 3.434 9.075 1.99 10.808-1.448 1.737-3.78 1.986-5.144.888-1.364-1.097-.969-4.486-1.178-5.304-.288-1.137-1.91-2.177-3.327-2.55"/><path stroke="#0E141B" stroke-linecap="round" stroke-linejoin="round" stroke-width="1.275" d="M87.383 26.162s6.344-.831 9.218 3.163c2.19 3.043 3.434 9.075 1.99 10.808-1.448 1.737-3.78 1.986-5.144.888-1.364-1.097-.969-4.486-1.178-5.304-.288-1.137-1.91-2.177-3.327-2.55"/><path fill="#B48732" d="M80.169 19.862c-11.195-4.273-23.567-.524-27.383 11.764-3.412 11.012-.715 20.968-.68 23.082.053 3.172-3.434 14.967-2.577 33.123 8.179-.054 17.18-.396 26.184-1.253.293-8.32.76-19.751.724-21.204-.044-1.954 10.004-4.646 14.362-18.098 4.358-13.451-1.364-23.878-10.63-27.414Z"/><path fill="#fff" stroke="#0E141B" stroke-linecap="round" stroke-linejoin="round" stroke-width="1.275" d="M61.195 35.882c1.115 2.14 3.425.577 6.854 1.403 2.297.551 4.812 4.412 7.357 3.532 1.897-.653 2.328-4.087-.213-5.975-1.95-1.448-4.949-.635-6.89-1.097-2.261-.538-3.128-2.288-5.273-1.506-2.017.737-2.52 2.385-1.84 3.634l.005.009Z"/><path fill="#fff" d="M52.706 32.332s3.731-.298 5.055-1.595c.866-.853 1.275-1.963 2.417-2.439 1.137-.475 2.359-.03 3.567-1.706.693-.96.347-2.185 2.98-2.092 2.404.08 3.546-.626 2.844-2.292-.546-1.297-3.692-1.346-5.953-1.422-2.323-.08-4.415.684-4.295 2.066.128 1.502 2.087.973 1.852 1.688-.51 1.55-2.19.902-3.536 1.844-1.169.817-1.213 1.865-3.319 1.945"/><path stroke="#0E141B" stroke-linecap="round" stroke-linejoin="round" stroke-width="1.275" d="M52.706 32.332s3.731-.298 5.055-1.595c.866-.853 1.275-1.963 2.417-2.439 1.137-.475 2.359-.03 3.567-1.706.693-.96.347-2.185 2.98-2.092 2.404.08 3.546-.626 2.844-2.292-.546-1.297-3.692-1.346-5.953-1.422-2.323-.08-4.415.684-4.295 2.066.128 1.502 2.087.973 1.852 1.688-.51 1.55-2.19.902-3.536 1.844-1.169.817-1.213 1.865-3.319 1.945"/><path fill="#fff" d="M91.297 45.61c-1.617-1.23-1.164-3.318-2.048-4.682-.622-.964-1.617-1.768-2.852-2.501-.525-.311-.947-.667-1.209-1.11-.688-1.165-1.124-2.102-1.377-3.146-.115-.475-.297-.813-.466-1.115-.555-.982-.995-1.506-1.262-2.488-.07-.262-.11-.51-.19-.737-.254-.715-.65-1.306-2.498-1.955-1.839-.644-2.176-2.026-1.74-2.87.434-.844 2.491-1.474 5.445-.009 2.955 1.466 4.758 2.324 5.096 3.608.23.87.026 1.67-.76 1.928-.586.19-1.719-.254-1.839-.245a.159.159 0 0 0-.018.085c.094 1.066.631 1.412 1.6 2.705.084.116.173.231.244.364.79 1.453 1.386 2.182 2.075 2.937.648.715 1.932.768 2.58 3.18"/><path stroke="#0E141B" stroke-linecap="round" stroke-linejoin="round" stroke-width="1.275" d="M91.297 45.61c-1.617-1.23-1.164-3.318-2.048-4.682-.622-.964-1.617-1.768-2.852-2.501-.525-.311-.947-.667-1.209-1.11-.688-1.165-1.124-2.102-1.377-3.146-.115-.475-.297-.813-.466-1.115-.555-.982-.995-1.506-1.262-2.488-.07-.262-.11-.51-.19-.737-.254-.715-.65-1.306-2.498-1.955-1.839-.644-2.176-2.026-1.74-2.87.434-.844 2.491-1.474 5.445-.009 2.955 1.466 4.758 2.324 5.096 3.608.23.87.026 1.67-.76 1.928-.586.19-1.719-.254-1.839-.245a.159.159 0 0 0-.018.085c.094 1.066.631 1.412 1.6 2.705.084.116.173.231.244.364.79 1.453 1.386 2.182 2.075 2.937.648.715 1.932.768 2.58 3.18"/><path stroke="#0E141B" stroke-linecap="round" stroke-linejoin="round" stroke-width="1.275" d="M49.298 87.83c-1.297-18.2 2.644-30.101 2.586-33.273-.036-2.114-2.32-12.714 1.053-23.083 3.918-12.03 15.819-16.036 27.014-11.763 9.262 3.536 15.273 13.931 10.915 27.383-4.358 13.451-14.793 16.659-14.633 18.609.12 1.528.386 11.799-.698 20.892"/><path stroke="#0E141B" stroke-linecap="round" stroke-linejoin="round" stroke-width="1.275" d="M68.738 69.968s-.333 10.75-.133 17.187M52.435 68.049s-.698 13.118-.36 19.755"/><path fill="#0E141B" stroke="#0E141B" stroke-linecap="round" stroke-linejoin="round" stroke-width="1.275" d="M74.376 27.508c.16-.907-.902-1.782-2.555-1.973-1.652-.19-2.687.4-2.816 1.346-.142 1.057 1.062 1.8 2.434 1.96 1.653.19 2.737-.187 2.941-1.334h-.004Z"/><path fill="#7194B9" d="M46.637 87.84c1.422-28.187-4.735-25.229-9.657-24.22-4.945 1.012-13.46 5.983-13.46 5.983s-2.866 4.39-2.568 17.348c5.362.373 14.646.875 25.685.889Z"/><path stroke="#0E141B" stroke-linecap="round" stroke-linejoin="round" stroke-width="1.275" d="M46.637 87.84c1.422-28.187-4.735-25.229-9.657-24.22-4.945 1.012-13.46 5.983-13.46 5.983s-2.866 4.39-2.568 17.348"/><path fill="#7194B9" d="M51.231 48.689s-1.43 1.919-9.342 8.316c0 0 2.838 9.738 6.366 7.263 3.527-2.474 13.713-13.505 10.803-19.684-2.914-6.18-5.486-.95-5.486-.95"/><path fill="#fff" d="M59.054 44.584c-2.914-6.18-5.486-.95-5.486-.95l-2.337 5.055s-.23.408-.289.555c1.693.342 4.287 1.017 6.908 3.99 1.36-3.28 2.248-6.438 1.209-8.646l-.005-.004Z"/><path stroke="#0E141B" stroke-linecap="round" stroke-linejoin="round" stroke-width="1.275" d="M51.231 48.689s-1.43 1.919-9.342 8.316c0 0 2.838 9.738 6.366 7.263 3.527-2.474 13.713-13.505 10.803-19.684-2.914-6.18-5.486-.95-5.486-.95"/><path fill="#7194B9" d="M46.15 75.152s12.687-8.6 16.352-23.212l-5.918-2.785c-4.633 15.197-15.997 19.236-15.997 19.236"/><path fill="#fff" d="M62.502 51.945s4.628-.51 3.922-4.642l.053-.13-1.137-1.407-6.161-.36s.293-2.47-1.55-1.324c-3.053 1.901-1.045 5.073-1.045 5.073-.222.658-.306.902-.537 1.528.684-.057 3.318-.19 6.22 2.12.163-.471.088-.378.239-.862l-.005.004Z"/><path fill="#fff" d="M56.58 49.155s-2.008-3.172 1.044-5.073c1.843-1.15 1.55 1.324 1.55 1.324l6.162.36"/><path stroke="#0E141B" stroke-linecap="round" stroke-linejoin="round" stroke-width="1.275" d="M56.58 49.155s-2.008-3.172 1.044-5.073c1.843-1.15 1.55 1.324 1.55 1.324l6.162.36M46.15 75.152s12.509-7.934 16.476-23.447"/><path fill="#C11A20" stroke="#0E141B" stroke-linecap="round" stroke-linejoin="round" stroke-width="1.275" d="M52.377 45.5c1.666.048 7.401.306 9.351 1.532 9.343 5.873 13.798 21.38 14.331 21.38.596 0 2.11-2.007 1.769-3.335-2.19-8.56-7.806-19.44-12.608-22.483-2.688-1.693-9.573-2.479-11.723-1.68-3.119 1.156-2.03 4.558-1.115 4.585h-.005Z"/><path fill="#fff" d="M52.995 46.32c1.244.019 1.75-1.358 1.474-2.207-.413-1.27-3.793-1.568-4.669.391-1.23 2.754 1.431 4.18 1.431 4.18"/><path stroke="#0E141B" stroke-linecap="round" stroke-linejoin="round" stroke-width="1.275" d="M52.995 46.32c1.244.019 1.75-1.358 1.474-2.207-.413-1.27-3.793-1.568-4.669.391-1.23 2.754 1.431 4.18 1.431 4.18"/><path fill="#fff" d="M62.55 51.714s4.576-.28 3.87-4.411c-.16-.942-1.484-2.377-2.942-2.76-2.159-.563-3.709 2.2-1.337 3.537"/><path stroke="#0E141B" stroke-linecap="round" stroke-linejoin="round" stroke-width="1.275" d="M62.626 51.705s4.504-.27 3.793-4.402c-.16-.942-1.483-2.377-2.94-2.76-2.16-.563-3.71 2.2-1.338 3.537"/><path fill="#9FA0A0" d="m70.182 56.658-5.42 2.155c.107.56.316 1.097.667 1.555l4.837-2.164a3.953 3.953 0 0 0-.084-1.541v-.005ZM68.52 54.597c-2.163-1.31-3.15.404-3.593 1.782a6.084 6.084 0 0 0-.156.608l4.527-1.795a4.467 4.467 0 0 0-.778-.595Z"/><path fill="#C9CACA" d="m69.298 55.192-4.527 1.795a5.04 5.04 0 0 0-.009 1.826l5.42-2.155a3.15 3.15 0 0 0-.884-1.466ZM70.044 59.226c.094-.31.174-.657.222-1.026l-4.837 2.163a3.08 3.08 0 0 0 1.022.876c1.812.977 3.207-.68 3.593-2.013Z"/><path stroke="#0E141B" stroke-linecap="round" stroke-linejoin="round" stroke-width="1.275" d="M64.927 56.379c-.485 1.621-.29 3.891 1.523 4.864 1.813.977 3.208-.68 3.594-2.012.387-1.337.404-3.554-1.408-4.67-1.44-.883-3.212.147-3.714 1.822l.005-.004Z"/><path fill="#7194B9" d="M16.967 32.18s1.853-7.023 3.723-7.836c.675-.293 2.91 6.33 2.91 6.33"/><path stroke="#0E141B" stroke-linecap="round" stroke-linejoin="round" stroke-width="1.275" d="M16.967 32.18s1.853-7.023 3.723-7.836c.675-.293 2.91 6.33 2.91 6.33"/><path fill="#7194B9" d="M52.12 62.589c3.434-5.104-1.053-18.232-1.053-18.232l-21.28 3.021 1.964 17.046"/><path stroke="#0E141B" stroke-linecap="round" stroke-linejoin="round" stroke-width="1.275" d="m31.751 64.424-1.963-17.046 21.279-3.02s2.225 6.509 2.342 12.142"/><path fill="#0E141B" stroke="#0E141B" stroke-linecap="round" stroke-linejoin="round" stroke-width="1.275" d="M47.522 47.574s4.264-1.449 5.397-3.705c0 0-1.128-7.739-7.2-13.003-4.168-3.612-10.663-6.06-20.716-4.047-24.7 4.957-23.296 32.034-12.14 42.678 0 0 19.026 6.383 37.506-7.512 0 0-1.43-5.664-2.847-14.411Z"/><path stroke="#595857" stroke-linecap="round" stroke-linejoin="round" stroke-width="1.275" d="M41.862 51.416c.116 2.333.72 5.598 1.88 9.094-3.177-1.835-6.58-4.847-8.268-7.663-.609 2.407-.573 6.739-.311 9.92-2.465-2.542-4.642-4.598-6.743-7.561-1.191 2.914-1.822 5.162-2.062 8.707-2.523-2.501-4.451-5.607-6.575-8.698-1.137 2.838-1.923 6.867-1.999 8.578-2.296-1.973-4.104-4.03-5.832-6.673-.56 2.08-.684 4.296-.45 5.798M47.784 35.78s.244 3.042-.791 5.667c0 0-2.004-1.825-4.207-2.971 0 0-.51 2.354-1.773 4.637"/><path fill="#7194B9" stroke="#0E141B" stroke-linecap="round" stroke-linejoin="round" stroke-width="1.275" d="M40.871 33.642s-.75-9.8-1.559-10.084c-.808-.284-6.206 6.961-6.206 6.961s3.856.92 7.765 3.119v.004Z"/><path stroke="#0E141B" stroke-linecap="round" stroke-linejoin="round" stroke-width="1.275" d="M56.58 49.155c-1.563 5.16-3.926 9.01-6.372 11.845"/></g><defs><clipPath id="a"><path fill="#fff" d="M2.125 14.025h97.75v74.48H2.125z"/></clipPath></defs></svg>