<svg xmlns="http://www.w3.org/2000/svg" width="102" height="102" fill="none"><g clip-path="url(#a)"><path fill="#fff" d="M49.678 94.003c.946-1.11 1.784-2.754 1.53-5.25-.029.06-4.16-.886-4.622 1.758-.61 3.492 2.267 3.499 3.092 3.492Z"/><path fill="#7194B9" d="M61.299 85.07a8.369 8.369 0 0 0-1.128-2.261c.81-3.411.933-9.88.933-9.88l-21.671-2.562s-1.033 9.495 4.473 13.647c2.69 2.027 4.98 2.472 6.978 2.995.786 2.93.22 4.906-.66 6.263-.172.267-.354.51-.542.731-.861 1.01-2.2 2.356-1.456 3.98.653 1.423 2.492 1.523 4.27.594a7.998 7.998 0 0 0 1.698-1.198c1.972-1.787 2.787-4.11 2.787-4.11s6.416-1.56 4.318-8.203v.004Z"/><path fill="#7194B9" d="M61.299 85.07a8.369 8.369 0 0 0-1.128-2.261c.81-3.411.933-9.88.933-9.88l-21.671-2.562s-1.033 9.495 4.473 13.647c2.69 2.027 4.98 2.472 6.978 2.995.942 3.502-.052 5.643-1.202 6.994-.861 1.01-2.2 2.356-1.456 3.98.653 1.423 2.492 1.523 4.27.594 3.215-1.68 4.485-5.305 4.485-5.305s6.416-1.559 4.318-8.202Z"/><path fill="#fff" d="M45.28 61.505s-4.623 7.3.792 12.169c1.729 1.553 5.133 3.271 7.66 4.168 0 0 2.687 1.078 4.932 3.22.98-3.779.98-7.888.98-7.888s.355-7.54-3.02-11.377c-3.846.322-7.881.163-11.344-.292ZM50.221 93.272c-.172.267-.354.51-.542.731-.861 1.01-2.2 2.356-1.456 3.98.653 1.423 2.492 1.523 4.269.594a7.993 7.993 0 0 0 1.699-1.198c-2.219-1.524-3.973-4.11-3.973-4.11l.003.003Z"/><path stroke="#0E141B" stroke-linecap="round" stroke-linejoin="round" stroke-width="1.488" d="M53.733 77.842s6.049 2.43 7.566 7.228c2.098 6.643-4.318 8.202-4.318 8.202.02-2.192-.653-3.326-2.787-4.873-2.687-1.949-5.977-1.136-10.288-4.385-5.506-4.148-4.473-13.647-4.473-13.647"/><path stroke="#0E141B" stroke-linecap="round" stroke-linejoin="round" stroke-width="1.488" d="M61.1 72.93s-.123 6.468-.932 9.879M56.981 93.272s-1.273 3.629-4.486 5.305c-1.777.93-3.616.825-4.269-.594-.747-1.624.595-2.97 1.456-3.98 1.15-1.351 2.144-3.492 1.202-6.994"/><path stroke="#0E141B" stroke-linecap="round" stroke-linejoin="round" stroke-width="1.488" d="M49.678 94.003c-.828.007-3.703 0-3.092-3.492.461-2.654 4.632-1.69 4.626-1.757"/><path fill="#7194B9" d="M43.867 64.402s.685-1.825 1.351-2.803c-2.53-.338-4.75-.835-6.35-1.423a20.635 20.635 0 0 1-4.646-2.43c-.309 1.25-3.535 15.853 15.69 13.524.036-.003.069-.013.104-.016l-2.806-6.316a8.733 8.733 0 0 1-3.343-.536ZM63.64 71.634c4.143-3.05 2.593-9.223.41-11.237a27.715 27.715 0 0 1-3.739.926l-6.581 8.966s4.284 5.487 9.908 1.345h.003Z"/><path fill="#7194B9" d="M29.369 50.258c.324 5.146 5.88 8.482 9.502 9.814 5.522 2.034 18.354 2.976 26.089 0 8.677-3.34 8.686-9.765 8.686-9.765s2.583-19.433-3.914-23.643c-6.497-4.21-39.795-9.817-41.582 5.575-1.786 15.391 1.219 18.02 1.219 18.02Z"/><path fill="#fff" d="M56.358 41.987c-.244-2.212-3.434-3.667-5.4-2.124-.675.53-1.068.916-1.28 1.566v-.013s-1.461-2.45-4.148-2.066c-2.417.344-4.493 4.427-1.787 6.386 1.888 1.365 5.575.218 5.887-1.566.039.14.081.286.136.442.364 1.056 1.839 1.777 3.21 1.67 1.367-.107 3.687-1.53 3.385-4.295h-.003Z"/><path stroke="#0E141B" stroke-linecap="round" stroke-linejoin="round" stroke-width="1.488" d="M49.548 41.987c-.12.825-.172 1.501.218 2.625.364 1.056 1.839 1.777 3.21 1.67 1.367-.107 3.687-1.53 3.385-4.295-.244-2.212-3.434-3.667-5.4-2.124-.85.666-1.26 1.095-1.406 2.124h-.007Z"/><path stroke="#0E141B" stroke-linecap="round" stroke-linejoin="round" stroke-width="1.488" d="M49.678 41.416s-1.461-2.45-4.148-2.066c-2.417.344-4.493 4.427-1.787 6.386 1.888 1.365 5.575.218 5.887-1.566"/><path fill="#0E141B" d="M49.204 41.432s-2.32.006-2.32-1.842c0-1.95 5.432-1.89 4.85-.12-.113.344-2.53 1.962-2.53 1.962Z"/><path stroke="#0E141B" stroke-linecap="round" stroke-linejoin="round" stroke-width="1.488" d="M41.957 32.85s-3.98.084-5.685.974c0 0 3.141-.055 5.197.325 0 0-3.466.27-4.548.812h4.71l-5.36 1.081h5.686l-4.873 1.07s4.116-.12 4.873 0c.757.12-4.873 1.02-4.873 1.02s2.371-.449 4.593-.13M56.383 33.255s4.493-.162 6.199.487c0 0-6.01.16-6.66.608l6.66.367-5.442.773h4.792l-5.549 1.258h5.874l-4.818.893 4.493.244s-1.598-.244-4.256.25"/><path stroke="#EF8585" stroke-linecap="round" stroke-linejoin="round" stroke-width="1.488" d="M33.53 42.757s1.416-1.325 2.346-2.118M36.84 42.533s1.056-1.25 1.706-1.894M41.47 40.64s-.975.9-1.625 1.792M59.642 40.64s-1.264 1.386-1.962 2.523M62.26 40.64s-1.085 1.549-1.923 2.523M64.86 41.133s-.57 1.023-.975 1.69"/><path fill="#fff" d="M58.245 33.522s.685-.41 1.163.276c.53.76.461 1.367.143 1.75-.319.387-1.137.51-1.563.267-.552-.315-1.108-1.504.257-2.297v.004ZM37.597 33.629c.257-.221.8-.322 1.361.237.461.455.38 1.017.049 1.361-.335.348-.848.543-1.296.325-.582-.283-.897-1.248-.114-1.923ZM39.387 35.776c.188-.162.724-.13.994.172.315.354.309.864.065 1.118-.244.253-.91.175-1.101.052-.202-.13-.53-.848.042-1.339v-.003ZM60.113 36.094s.432-.217.727.15c.332.41.29.734.091.939-.201.208-.6.419-.98.143-.313-.228-.696-.81.162-1.232Z"/><path fill="#0E141B" d="M21.816 50.197h8.933V30.689s21.317-.215 36.384 0l.65 19.508s6.984.207 12.1.064c0 0 .813-4.98.082-14.566-.273-3.577-1.706-9.583-6.172-14.7-4.467-5.116-11.37-10.233-22.702-10.314-11.33-.081-16.898 1.53-23.59 8.852-6.091 6.657-5.955 15.103-6.085 19.65-.143 5.036.396 11.01.396 11.01l.003.004Z"/><path stroke="#595857" stroke-linecap="round" stroke-linejoin="round" stroke-width="1.488" d="M35.508 24.728s1.917-2.716 4.12-5.305c0 0 .63 2.77 1.11 5.955 0 0 2.067-3.642 4.087-6.823 0 0 1.098 3.714 2.005 7.268 0 0 1.812-3.437 3.735-5.767 0 0 1.842 3.697 2.167 4.236 0 0 1.3-2.274 2.274-5.197 0 0 2.138 2.53 3.437 4.291 0 0 .965-1.8 1.199-3.099 0 0 1.533 1.355 2.293 2.898M71.36 42.432s.321-2.231.279-4.629c0 0 2.722 2.437 4.184 4.223 0 0 .244-2.475 0-4.911M28.15 37.64s-.243 2.843-.487 4.344c0 0-1.38-3.125-2.68-4.343 0 0-.731 2.13-.731 4.343"/><path stroke="#0E141B" stroke-linecap="round" stroke-linejoin="round" stroke-width="1.488" d="M21.816 50.197h8.933V30.689s22.415-.487 36.384 0l.65 19.508s6.984.207 12.1.064c0 0 .813-4.98.082-14.566-.273-3.577-1.706-9.583-6.172-14.7-4.467-5.116-11.37-10.233-22.702-10.314-11.33-.081-16.898 1.53-23.59 8.852-6.091 6.657-5.955 15.103-6.085 19.65-.143 5.036.396 11.01.396 11.01l.003.004Z"/><path fill="#7194B9" d="M41.034 14.443s-5.847-5.415-7.797-7.04c-1.949-1.624-2.38.65-2.38.65s-.433 5.5.217 12.237c0 0 3.6-3.466 9.963-5.847h-.003Z"/><path fill="#EF8585" d="M37.483 16.002s-1.478-1.877-2.94-3.544c-1.02-1.163-1.013-.01-1.013.253 0 2.391.413 5.364.413 5.364a34.2 34.2 0 0 1 3.534-2.07h.003l.004-.003Z"/><path stroke="#0E141B" stroke-linecap="round" stroke-linejoin="round" stroke-width="1.488" d="M41.034 14.443s-5.847-5.415-7.797-7.04c-1.949-1.624-2.38.65-2.38.65s-.433 5.5.217 12.237c0 0 3.6-3.466 9.963-5.847h-.003Z"/><path stroke="#0E141B" stroke-linecap="round" stroke-linejoin="round" stroke-width="1.488" d="M33.943 18.072s-.416-2.973-.413-5.364c0-.26-.006-1.416 1.014-.253a104.912 104.912 0 0 1 2.94 3.544"/><path fill="#7194B9" d="M73.549 23.185s.773-11.166.773-14.495c0-1.582-1.017-2.193-2.423-1.176-3.288 2.371-9.964 7.588-9.964 7.588s6.903 3.863 11.614 8.086v-.003Z"/><path fill="#EF8585" d="M71.356 12.952c.078-1.469-1.137-.731-1.137-.731l-5.36 4.629c1.637 1.027 3.755 2.42 5.805 3.976.367-3.658.552-5.33.689-7.874h.003Z"/><path stroke="#0E141B" stroke-linecap="round" stroke-linejoin="round" stroke-width="1.488" d="M73.549 23.185s.773-11.166.773-14.495c0-1.582-1.017-2.193-2.423-1.176-3.288 2.371-9.964 7.588-9.964 7.588s6.903 3.863 11.614 8.086v-.003Z"/><path stroke="#0E141B" stroke-linecap="round" stroke-linejoin="round" stroke-width="1.488" d="m64.859 16.85 5.36-4.63s1.215-.737 1.137.732c-.136 2.543-.322 4.213-.689 7.874M73.643 50.31s-.01 6.426-8.687 9.765c-7.734 2.976-20.566 2.034-26.089 0-3.622-1.332-9.177-4.671-9.502-9.814M59.509 64.633s.828 1.069 1.595 1.615"/><path stroke="#0E141B" stroke-linecap="round" stroke-linejoin="round" stroke-width="1.488" d="M53.733 70.289s4.285 5.487 9.908 1.345c4.142-3.05 2.592-9.223.41-11.237"/><path fill="#7194B9" d="M58.849 56.483s2.68-2.924.406-5.604c-1.705-2.008-3.898-.62-3.898-.62s.753 1.857-3.85 4.736c-4.421 2.76-3.489 7.962-2.316 9.638a8.93 8.93 0 0 1-1.978.309l2.806 6.315c1.397-.179 2.632-.517 3.717-.971v.006l6.581-8.966c.15-2.102-.412-3.95-1.462-4.837l-.006-.006Z"/><path fill="#fff" d="M50.822 55.475c.214-.165.438-.328.682-.48 4.606-2.879 3.85-4.737 3.85-4.737s-1.687-2.605-4.474-.468c-2.501 1.917-1.614 4.704-.058 5.685Z"/><path fill="#fff" d="M59.255 50.879c-1.705-2.008-3.898-.62-3.898-.62s.292.717-.594 1.955l.022.016c.257.15 2.813 1.647 4.558 3.587.64-1.04 1.488-3.087-.085-4.942l-.003.004Z"/><path stroke="#0E141B" stroke-linecap="round" stroke-linejoin="round" stroke-width="1.488" d="M41.034 62.736s6.634 6.36 14.645-2.492c3.248-3.59 3.167-3.761 3.167-3.761 3.086 2.602 1.949 13.471-8.934 14.79-20.082 2.43-15.667-13.611-15.667-13.611M55.357 50.258s-1.686-2.605-4.474-.468c-2.51 1.924-1.608 4.727-.042 5.695"/><path stroke="#0E141B" stroke-linecap="round" stroke-linejoin="round" stroke-width="1.488" d="M58.85 56.483s2.68-2.924.405-5.604c-1.705-2.008-3.898-.62-3.898-.62s.754 1.857-3.85 4.736c-4.42 2.76-3.488 7.962-2.316 9.638"/></g><defs><clipPath id="a"><path fill="#fff" d="M20.825 6.25h60.014v93.5H20.825z"/></clipPath></defs></svg>