<svg xmlns="http://www.w3.org/2000/svg" width="102" height="102" fill="none"><g clip-path="url(#a)"><path fill="#7194B9" d="M89.654 60.178a1.375 1.375 0 0 0-1.31-.527s.264-.856-.348-1.557c-.466-.535-1.025-.576-1.467-.482a1.513 1.513 0 0 0-1.29-1.756c-.701-.077-1.844.207-2.51 1.638-.927 1.986-15.234 10.833-15.234 10.833l-27.301 1.082-.138-.044-5.04 10.216c.487 2.947-1.078 9.316-1.909 11.493 0 0 1.44.511 4.395 1.01 2.785.466 6.912-1.01 12.45-1.01 6.146 0 10.415 1.496 13.05 1.095 2.263-.345 3.317-.665 3.317-.665 1.828-6.835 3.43-12.24 4.853-14.161 1.727-2.331 12.296-10.529 14.071-12.053 1.85-1.585 2.802-1.35 3.884-2.27 1.083-.92 1.2-1.97.527-2.834v-.008Z"/><path fill="#fff" d="M84.655 65.793c.243-.215.442-.385.588-.511 1.849-1.585 2.801-1.35 3.884-2.27 1.082-.92 1.2-1.97.527-2.834a1.375 1.375 0 0 0-1.31-.527s.264-.856-.348-1.557c-.466-.535-1.026-.576-1.468-.482a1.513 1.513 0 0 0-1.29-1.756c-.7-.077-1.844.207-2.509 1.638-.202.438-1.086 1.293-2.339 2.364 1.212 1.175 3.11 3.287 4.27 5.939l-.005-.004Z"/><path stroke="#0E141B" stroke-linecap="round" stroke-linejoin="round" stroke-width="1.419" d="M67.49 68.323S81.798 59.48 82.727 57.49c.669-1.431 1.812-1.719 2.51-1.638.75.085 1.439.827 1.289 1.756"/><path stroke="#0E141B" stroke-linecap="round" stroke-linejoin="round" stroke-width="1.419" d="M85.21 58.666s.41-.86 1.315-1.054c.441-.098 1.005-.053 1.467.482.612.705.349 1.557.349 1.557"/><path stroke="#0E141B" stroke-linecap="round" stroke-linejoin="round" stroke-width="1.419" d="M87.015 60.64s.523-.888 1.33-.99a1.375 1.375 0 0 1 1.31.528c.672.863.555 1.91-.528 2.834-1.082.924-2.031.685-3.884 2.27-1.78 1.524-12.345 9.722-14.072 12.053-1.423 1.922-3.024 7.322-4.852 14.16"/><path fill="#fff" d="M52.417 76.82c-7.399 0-12.004 3.223-13.942 10.967-.438 1.75-.75 3.052-.977 4.289 2.785.466 6.908.924 12.45.924 6.146 0 10.415-.434 13.05-.835.406-1.208.746-2.652 1.026-4.383.953-5.85-1.464-10.962-11.607-10.962Z"/><path stroke="#0E141B" stroke-linecap="round" stroke-linejoin="round" stroke-width="1.419" d="M36.285 81.174s-1.877 8.599-2.485 10.042"/><path fill="#7194B9" d="M36.42 70.925s-3.009 2.611-4.967 4.504c-1.958 1.894-4.131 3.211-5.295 3.888-1.163.677-2.517 1.983-3.328 2.254-.811.272-2.51 1.298-2.781 1.5-.272.203-2.729-1.321-3.24-1.135-3.146 1.135-1.244 4.967-1.427 5.226-.182.26 2.036 2.554 2.575 2.826.539.271 4.706-1.237 5.789-1.508 1.082-.272 4.699-2.254 6.94-3.231 2.413-1.046 7.635-4.456 8.312-5.275.43-.519.993-4.666.093-7.155-.52-1.436-2.676-1.89-2.676-1.89l.004-.004Z"/><path fill="#fff" d="M20.053 83.067c-.272.203-2.728-1.321-3.24-1.135-3.145 1.135-1.244 4.966-1.426 5.226-.183.26 2.035 2.554 2.574 2.826.495.247 4.022-.994 5.449-1.415-1.249-2.015-1.877-4.387-2.194-6.211-.55.312-1.03.612-1.163.71Z"/><path stroke="#0E141B" stroke-linecap="round" stroke-linejoin="round" stroke-width="1.419" d="M19.408 83.067c8.717-3.11 17.007-12.142 17.007-12.142M17.215 84.474s-.993-.296-1.808.288c-.401.288-.774.77-.685 1.537.121 1.009 1.001 1.418 1.001 1.418M18.305 86.672s-.83-.167-1.419.652c-.287.402-.51.993-.154 1.675.442.843.937 1.025 1.809 1.021 1.159 0 1.26-.093 2.675-.38 1.444-.293 13.525-5.08 16.825-8.969"/><path stroke="#0E141B" stroke-linecap="round" stroke-linejoin="round" stroke-width="1.419" d="M19.408 83.067s-1.9-1.31-2.89-1.118c-.487.093-1.229.372-1.468 1.102a2.16 2.16 0 0 0 .154 1.715"/><path fill="#7194B9" stroke="#0E141B" stroke-linecap="round" stroke-linejoin="round" stroke-width="1.419" d="M77.613 49.82C76.417 30.87 66.801 23.59 52.11 23.59c-14.692 0-24.99 12.036-26.397 26.23-1.625 16.427 11.859 25.48 27.585 24.616 14.238-.782 25.31-8.89 24.316-24.617Z"/><path fill="#0E141B" stroke="#0E141B" stroke-linecap="round" stroke-linejoin="round" stroke-width="1.419" d="m31.79 55.714-11.06.604s-6.67-18.66 7.917-33.325c9.816-9.863 32.056-11.371 42.593-2.991 9.227 7.341 13.448 14.534 13.225 31.01l-11.53 1.118-1.444-14.124s-21.576.527-40.581 2.282l.875 15.422.004.004Z"/><path fill="#7194B9" stroke="#0E141B" stroke-linecap="round" stroke-linejoin="round" stroke-width="1.419" d="m38.462 23.403-10.37-7.046.053 13.89s2.655-4.46 10.317-6.844Z"/><path fill="#EF8585" stroke="#0E141B" stroke-linecap="round" stroke-linejoin="round" stroke-width="1.419" d="m35.37 24.583-4.48-3.114-.008 5.87c1.102-.895 2.574-1.88 4.488-2.76v.004Z"/><path fill="#7194B9" stroke="#0E141B" stroke-linecap="round" stroke-linejoin="round" stroke-width="1.419" d="m61.94 22.085 9.373-8.376 1.74 13.833s-3.211-4.082-11.113-5.457Z"/><path fill="#EF8585" stroke="#0E141B" stroke-linecap="round" stroke-linejoin="round" stroke-width="1.419" d="m65.163 22.86 4.042-3.69.767 5.85c-1.209-.75-2.798-1.532-4.809-2.156v-.004Z"/><path fill="#0E141B" stroke="#0E141B" stroke-linecap="round" stroke-linejoin="round" stroke-width="1.419" d="M47.503 48.956c0-3.572-2.996-6.69-6.689-6.69s-6.981 2.486-6.69 6.69c.248 3.564 2.997 6.272 6.69 6.272 3.693 0 6.69-2.696 6.69-6.272Z"/><path fill="#fff" stroke="#fff" stroke-linecap="round" stroke-linejoin="round" stroke-width="1.419" d="M36.431 48.992c.823.568 2.112.227 2.822-.798.71-1.026.762-2.335-.26-2.92-.867-.494-2.015-.161-2.724.864-.71 1.026-.66 2.287.162 2.855ZM41.264 52.483c.458.71 1.512.908 2.323.385.81-.523 1.216-1.48.612-2.274-.51-.673-1.46-.823-2.27-.304-.811.519-1.123 1.48-.67 2.19l.005.003ZM44.126 46.718c.442-.3.552-.973.207-1.48-.345-.506-.957-.746-1.451-.352-.418.332-.499.936-.158 1.443.344.507.956.69 1.398.39h.004Z"/><path fill="#0E141B" stroke="#0E141B" stroke-linecap="round" stroke-linejoin="round" stroke-width="1.419" d="M69.984 47.294c0-3.572-2.996-6.69-6.69-6.69-3.693 0-6.98 2.486-6.689 6.69.247 3.563 2.996 6.272 6.69 6.272 3.693 0 6.689-2.697 6.689-6.272Z"/><path fill="#fff" stroke="#fff" stroke-linecap="round" stroke-linejoin="round" stroke-width="1.419" d="M58.936 47.27c.827.571 2.124.23 2.834-.803.71-1.034.766-2.347-.26-2.935-.871-.499-2.027-.162-2.74.867-.71 1.034-.661 2.299.166 2.87ZM63.744 50.768c.466.726 1.545.929 2.376.393.831-.535 1.24-1.512.628-2.323-.523-.689-1.492-.843-2.319-.308-.83.531-1.147 1.512-.68 2.238h-.005ZM66.63 44.97c.438-.295.544-.956.207-1.455-.336-.498-.94-.733-1.43-.348-.414.328-.491.924-.155 1.423.337.498.94.677 1.379.38Z"/><path fill="#fff" d="M53.078 58.682s1.313 1.59 3.421.957c2.072-.617 2.327-2.417 1.845-3.65-.56-1.426-2.424-2.533-4.456-1.398"/><path stroke="#0E141B" stroke-linecap="round" stroke-linejoin="round" stroke-width="1.419" d="M53.078 58.682s1.313 1.59 3.421.957c2.072-.617 2.327-2.417 1.845-3.65-.56-1.426-2.424-2.533-4.456-1.398"/><path fill="#fff" d="M53.224 55.54s.51 1.524.004 2.805c-.588 1.488-1.76 2.048-2.943 1.955-2.725-.207-3.746-3.191-1.946-4.878 1.63-1.528 3.705-.58 3.705-.58"/><path stroke="#0E141B" stroke-linecap="round" stroke-linejoin="round" stroke-width="1.419" d="M53.224 55.54s.51 1.524.004 2.805c-.588 1.488-1.76 2.048-2.943 1.955-2.725-.207-3.746-3.191-1.946-4.878 1.63-1.528 3.705-.58 3.705-.58"/><path fill="#0E141B" stroke="#0E141B" stroke-linecap="round" stroke-linejoin="round" stroke-width="1.419" d="M54.314 54.502c-.085-.608-.75-1.018-1.487-.916-.738.101-1.265.673-1.18 1.277.085.608.75 1.017 1.488.916.737-.101 1.265-.673 1.18-1.277Z"/><path stroke="#595857" stroke-linecap="round" stroke-linejoin="round" stroke-width="1.419" d="m23.592 52.37-.604-6.47 5.104 5.833-.596-6.365M75.805 47.91l-.568-6.053 5.757 5.566-.567-6.052M32.645 35.042l3.458-5.785 2.44 4.69 3.114-5.76 3.49 5.98 5.146-9.07 6.425 8.259 2.607-5.757 4.18 5.282 1.828-4.808 3.823 4.411"/></g><defs><clipPath id="a"><path fill="#fff" d="M14 13h76.781v80H14z"/></clipPath></defs></svg>