<svg xmlns="http://www.w3.org/2000/svg" width="102" height="102" fill="none"><g clip-path="url(#a)"><path fill="#DCDDDD" d="M30.744 78.731s3.821 4.089 6.966 5.466c3.145 1.377 19.55 9.562 33.987 2.83 0 0 9.044-8.98 11.518-11.679 2.473-2.694 6.18-9.099 7.076-11.347.897-2.249 3.477-10.953-.79-19.916-4.267-8.959-13.817-26.269-19.997-26.656-6.18-.39-33.196-11.028-44.94 10.396-7.866 14.348-10.45 19.325-10.11 23.842.25 3.362 3.234 8.487 5.563 12.279 2.19 3.565 7.191 12.435 10.732 14.785"/><path stroke="#0E141B" stroke-linecap="round" stroke-linejoin="round" stroke-width="1.275" d="m36.388 15.73-.318 6.872.816 57.906M32.597 83.853V17.829M29.482 19.97s.085 8.216 0 8.616c-.085.4.157 40.005.038 42.534-.123 2.528-.055 8.69-.055 8.69M27.038 80.232s.17-15.59 0-17.272c-.17-1.688-.59-38.34-.505-39.015M89.56 47.375s.17 5.899 0 8.971c-.17 3.078.077 6.784.077 6.784M87.286 44.09s.085 7.403 0 9.345c-.085 1.943.17 4.892 0 6.745-.17 1.853-.034 6.91-.017 7.331M84.681 32.712s.009 7.582 0 9.185c-.008 1.602.009 15.113 0 17.374-.008 2.26 0 6.893 0 8.245-.004 1.347-.166 5.984 0 6.32M81.978 28.968v49.079M79.785 23.868s-.756 39.52-.841 42.3c-.085 2.78 0 12.546 0 13.307M76.415 83.453s.085-8.02 0-9.282c0 0-.094-5.899.038-7.246.132-1.347-.068-9.86-.068-9.86s.901-34.633.901-35.98M74.022 18.98v9.988s-.302 43.941-.302 46.385c0 2.444.251 10.153 0 10.723M70.711 16.537v2.444l.986 63.618M23.592 30.137s.412 23.932.412 26.881c0 2.95-.17 13.43 0 14.637M20.634 34.489s.335 12.843.335 15.436v17.73M18.36 39.168s.085 5.95 0 8.364c-.085 2.414 0 11.199 0 11.905v1.746M16.082 44.842v15.172M39.84 80.784V14.76M43.38 12.975v9.988s-1.097 43.94-1.097 46.384c0 2.444.25 10.154 0 10.723M46.746 12.975s.085 8.216 0 8.615c-.085.4.157 40.005.038 42.534-.123 2.529-.055 8.691-.055 8.691M50.609 12.975v2.444l.986 63.618M55.059 79.02V12.997M59.21 13.57s.086 8.216 0 8.615c-.084.4.158 40.005.04 42.534-.124 2.529-.056 8.691-.056 8.691M62.687 76.819s.085-8.02 0-9.282c0 0-.093-5.9.039-7.246.131-1.348-.068-9.86-.068-9.86s.9-34.634.9-35.98M67.078 81.124V15.101"/><path fill="#fff" stroke="#0E141B" stroke-linecap="round" stroke-linejoin="round" stroke-width="1.488" d="M88.328 72.322S86.245 55.866 76.27 56.058c-9.97.19-26.257 16.264-26.257 16.264h38.314Z"/><path fill="#81673C" d="M11.233 69.628h82.446S98.195 89.713 69.69 90.64c-28.504.926-43.834.926-51.918-4.323-8.083-5.248-6.54-16.69-6.54-16.69Z"/><path fill="#0E141B" d="M22.338 69.81h-.765c-.773 2.512-1.891 5.598 4.811 7.345 11.203 2.92 13.447 2.477 18.564 2.66 5.117.183 9.427.098 14.23-.99 3.777-.859 7.874 1.126 11.903 0 6.677-1.866 11.127-4.033 12.925-7.166.454-.79 1.13-1.78.301-1.963-1.755-.387-5.5-.038-5.5-.038l-56.473.157.004-.004Z"/><path stroke="#0E141B" stroke-linecap="round" stroke-linejoin="round" stroke-width="1.488" d="M11.233 69.628h82.446"/><path fill="#fff" d="M27.353 39.89s-4.433-3.438-7.87.396c-4.153 4.632-4.438 13.982-3.639 19.44 1.058 7.224 4.713 13.038 7.94 14.832 4.763 2.647 10.378 2.329 13.297-2.117"/><path stroke="#0E141B" stroke-linecap="round" stroke-linejoin="round" stroke-width="1.488" d="M27.353 39.89s-4.433-3.438-7.87.396c-4.153 4.632-4.438 13.982-3.639 19.44 1.058 7.224 4.713 13.038 7.94 14.832 4.763 2.647 10.378 2.329 13.297-2.117"/><path fill="#fff" d="M40.978 28.075c-.53-3.064-3.153-6.8-8.738-4.764-5.546 2.019-4.432 7.999-2.8 9.873"/><path stroke="#0E141B" stroke-linecap="round" stroke-linejoin="round" stroke-width="1.488" d="M40.978 28.075c-.53-3.064-3.153-6.8-8.738-4.764-5.546 2.019-4.432 7.999-2.8 9.873"/><path fill="#fff" stroke="#0E141B" stroke-linecap="round" stroke-linejoin="round" stroke-width="1.488" d="M21.505 50.843c0-16.847 12.958-26.737 28.076-26.737 15.117 0 27.68 9.677 27.68 26.737S63.028 76.266 48.39 76.266s-26.886-8.309-26.886-25.423Z"/><path fill="#B7A7A6" d="M63.431 37.217s1.56 3.74 2.163 8.08l-2.163-8.08Z"/><path stroke="#0E141B" stroke-linecap="round" stroke-linejoin="round" stroke-width="1.488" d="M63.431 37.217s1.56 3.74 2.163 8.08"/><path fill="#B7A7A6" d="M68.565 37.256s1.233 3.4 1.233 6.804l-1.233-6.804Z"/><path stroke="#0E141B" stroke-linecap="round" stroke-linejoin="round" stroke-width="1.488" d="M68.565 37.256s1.233 3.4 1.233 6.804"/><path stroke="#0E141B" stroke-miterlimit="10" stroke-width="1.488" d="M54.549 57.239c1.551-2.04-.752-4.343-2.788-2.792-1.552 2.04.752 4.343 2.788 2.792Z"/><path fill="#0E141B" d="M48.858 49.419s4.378-.178 9.499.038l-9.499-.038Z"/><path stroke="#0E141B" stroke-linecap="round" stroke-linejoin="round" stroke-width="1.913" d="M48.858 49.419s4.378-.178 9.499.038"/><path stroke="#0E141B" stroke-miterlimit="10" stroke-width="1.488" d="M33.005 57.303c1.53-2.015-.743-4.293-2.754-2.758-1.53 2.014.744 4.292 2.754 2.758Z"/><path fill="#fff" d="M40.57 61.68c-3.506-1.224-6.158.8-6.404 3.128-.2 1.9 1.458 3.795 3.472 3.974 2.176.191 3.425-.565 3.99-1.95.46 1.427 2.024 2.494 4.349 2.469 2.15-.026 3.94-1.36 4.088-3.83.149-2.486-2.49-5.423-6.877-3.706l-1.228.523"/><path stroke="#0E141B" stroke-linecap="round" stroke-linejoin="round" stroke-width="1.488" d="M40.57 61.68c-3.506-1.224-6.158.8-6.404 3.128-.2 1.9 1.458 3.795 3.472 3.974 2.176.191 3.425-.565 3.99-1.95.46 1.427 2.024 2.494 4.349 2.469 2.15-.026 3.94-1.36 4.088-3.83.149-2.486-2.49-5.423-6.877-3.706l-1.228.523"/><path fill="#0E141B" d="M25.997 49.474s4.378-.178 9.499.038l-9.499-.038Z"/><path stroke="#0E141B" stroke-linecap="round" stroke-linejoin="round" stroke-width="1.913" d="M25.997 49.474s4.378-.178 9.499.038"/><path fill="#0E141B" d="M39.058 61.166c-.158.94 1.215 2.928 2.456 2.916 1.114-.009 2.431-1.64 2.593-2.933.19-1.509-4.616-2.597-5.05.017Z"/><path fill="#fff" d="M81.285 67.711s-1.33 4.998-6.077 7.544c-6.23 3.336-14.578 2.21-17.136-2.916-4.097-8.207-1.088-27.888 5.363-32.487 3.154-2.248 8.122-1.394 9.712 3.37 1.797 5.385-2.185 15.653-1.79 17.63 0 0 2.87-6.108 9.266-3.655"/><path stroke="#0E141B" stroke-linecap="round" stroke-linejoin="round" stroke-width="1.488" d="M81.285 67.711s-1.33 4.998-6.077 7.544c-6.23 3.336-14.578 2.21-17.136-2.916-4.097-8.207-1.088-27.888 5.363-32.487 3.154-2.248 8.122-1.394 9.712 3.37 1.797 5.385-2.185 15.653-1.79 17.63 0 0 2.87-6.108 9.266-3.655"/><path stroke="#0E141B" stroke-linecap="round" stroke-linejoin="round" stroke-width="1.488" d="M78.812 56.398s2.388.769 3.663 2.23M71.451 59.72s-.867 4.612-.57 5.806"/><path fill="#fff" d="M68.871 33.2c1.985-2.609 3.209-7.734-2.159-10.301-5.61-2.686-9.201 1.768-9.477 4.377"/><path stroke="#0E141B" stroke-linecap="round" stroke-linejoin="round" stroke-width="1.488" d="M68.871 33.2c1.985-2.609 3.209-7.734-2.159-10.301-5.61-2.686-9.201 1.768-9.477 4.377"/><path fill="#fff" d="M35.262 38.658c-.05 1.364.238 2.46 1.28 2.558 1.313.12 1.844-.743 1.814-3.034"/><path stroke="#232021" stroke-linecap="round" stroke-linejoin="round" stroke-width="1.488" d="M35.262 38.658c-.05 1.364.238 2.46 1.28 2.558 1.313.12 1.844-.743 1.814-3.034"/><path fill="#fff" d="M41.438 53.053c0 1.823-.158 2.979 1.334 3.09 1.998.148 1.369-2.835 1.369-2.835"/><path stroke="#232021" stroke-linecap="round" stroke-linejoin="round" stroke-width="1.488" d="M41.438 53.053c0 1.823-.158 2.979 1.334 3.09 1.998.148 1.369-2.835 1.369-2.835"/><path fill="#fff" stroke="#0E141B" stroke-linecap="round" stroke-linejoin="round" stroke-width="1.488" d="M18.33 31.055s-1.015-.366-1.381-3.192c-.306-2.363.472-3.995-1.296-6.906-1.798-2.963-1.122-5.908 1.194-6.936 2.35-1.046 4.654.429 5.198 2.754.641 2.754-.54 5.622-1.994 7.407-1.079 1.326-2.868 4.705-1.716 6.877l-.005-.004Z"/></g><defs><clipPath id="a"><path fill="#fff" d="M0 0h102v102H0z"/></clipPath></defs></svg>