<svg xmlns="http://www.w3.org/2000/svg" width="102" height="102" fill="none"><g clip-path="url(#a)"><path fill="#FABE00" d="M70.402 88.671c-.621-.772-2.938-2.518-4.247-3.655-1.31-1.138-2.38 0-2.38 0-2.622 2.01-1.682 5.048-1.682 5.048s.528 1.65 1.683 3.719c1.154 2.069 2.551 1.813 3.252 1.393.7-.42.7-1.419.7-1.419.605.097 1.113-.126 1.327-.398.483-.609.491-1.641.491-1.641a1.23 1.23 0 0 0 .852-.424c.49-.554.789-1.645 0-2.623h.004Z"/><path stroke="#0E141B" stroke-linecap="round" stroke-linejoin="round" stroke-width="1.469" d="M69.55 91.718s-.008 1.032-.49 1.64c-.42.53-1.923.89-3.148-.977"/><path stroke="#0E141B" stroke-linecap="round" stroke-linejoin="round" stroke-width="1.469" d="M67.729 93.757s0 1-.701 1.419c-.7.42-2.098.675-3.252-1.393-1.155-2.07-1.683-3.719-1.683-3.719s-.94-3.038 1.683-5.048c0 0 1.065-1.138 2.38 0 1.308 1.137 3.63 2.883 4.246 3.655.79.978.491 2.069 0 2.623-.68.768-1.905.457-2.71-.558"/><path fill="#009A3E" d="M75.27 61.917c1.8 2.212 5.788 4.852 8.738 5.77 3.706 1.155 7.164.274 7.168-1.728.008-2.988-4.986-2.59-6.925-4.986-2.467-3.042-2.832-6.01-5.665-8.213-2.17-1.687-4.973-1.108-4.973-1.108l-18.335.4-1.087 17.625 7.734 2.354"/><path fill="#009A3E" d="M58.521 54.451c10.102 2.606 24.836-4.809 25.466-22.33.63-17.521-15-21.193-16.888-21.718-1.888-.524-13.324-3.042-21.134 2.208-7.81 5.25-9.392 15.255-9.392 15.255s20.442 5.573 26.695 10.529c10.345 8.2-4.747 16.052-4.747 16.052v.004Z"/><path stroke="#0E141B" stroke-linecap="round" stroke-linejoin="round" stroke-width="1.469" d="M36.573 27.87s1.582-10.005 9.392-15.255 19.246-2.732 21.134-2.208c1.889.525 17.521 4.197 16.892 21.718-.63 17.521-15.368 24.94-25.465 22.33"/><path fill="#fff" stroke="#0E141B" stroke-linecap="round" stroke-linejoin="round" stroke-width="1.469" d="M33.404 35.524s.538 4.466 1.692 6.04l4.93-5.36s1.084 6.635 1.89 6.635c1.015 0 4.44-6.14 4.44-6.14s1.678 6.086 2.17 6.14c.49.055 4.418-5.099 4.418-5.099l.965 5.103 4.608-3.151-8.036-6.38L33.4 35.53l.003-.005Z"/><path fill="#FABE00" stroke="#0E141B" stroke-linecap="round" stroke-linejoin="round" stroke-width="1.469" d="M30.064 31.072c.285-3.987 5.666-3.706 15.423-2.17 0 0 2.413-8.045 9.337-6.329 7.387 1.83 5.77 9.023 5.77 9.023s10.388.525 11.017 13.954c.546 11.684-18.57 8.603-22.452 8.394-3.882-.21-15.528-.105-14.688-4.617.839-4.511 6.395-1.049 25.914-1.049 3.253 0 4.742-1.003 4.02-3.496-1.049-3.638-8.112-6.383-12.623-7.31-5.51-1.133-14.067-1.276-17.11-1.696-3.042-.42-4.818-1.767-4.608-4.704Z"/><path fill="#FABE00" stroke="#0E141B" stroke-linecap="round" stroke-linejoin="round" stroke-width="1.469" d="M60.838 25.688s7.625-2.237 13.64-4.898c0 0 .629 6.996-4.965 8.532-5.595 1.54-7.903-1.469-8.675-3.639v.005ZM50.061 23.018s-3.32-4.746-3.021-11.041c0 0-6.774 3.118-3.48 9.58 1.348 2.64 4.604 2.867 4.995 2.519.39-.349 1.506-1.058 1.506-1.058Z"/><path fill="#0E141B" d="M52.512 27.295c0-.949-.776-1.717-1.733-1.717-.957 0-1.733.768-1.733 1.717 0 .948.776 1.716 1.733 1.716.957 0 1.733-.768 1.733-1.716ZM58.035 27.68c-.445-.767-1.18-1.178-1.948-.733a1.611 1.611 0 0 0-.587 2.198 1.608 1.608 0 0 0 2.199.588c.768-.445.78-1.284.336-2.056v.004Z"/><path stroke="#0E141B" stroke-linecap="round" stroke-linejoin="round" stroke-width="1.469" d="M77.973 23.656s1.083 4.65-3.743 5.036M81.12 25.86s-1.153 2.518.63 4.754M75.246 31.735s2.131-1.889 4.23 1.12"/><path fill="#009A3E" d="M58.522 57.51s-.605-3.671 2.698-6.831c5.061-4.84 19.531-7.84 17.576-13.312-1.733-4.839-14.898.122-17.521 1.032-2.623.907-12.166 5.687-13.17 13.077-.47 3.483 1.155 5.036 1.364 7.869.21 2.833 2.204 21.034 6.4 26.07 3.35 4.02 5.456 4.616 6.455 4.666.999.05 2.9-2.014 1.939-4.511-.26-.68-3.857-2.518-3.975-8.444"/><path stroke="#0E141B" stroke-linecap="round" stroke-linejoin="round" stroke-width="1.469" d="M68.409 41.144s3.147 10.122.47 17.466M64.267 42.84s3.726 9.698-1 19.841M78.976 69.681s.315 4.801-3.58 7.961M82.153 74.037s.008 3.408-3.169 5.77M37.337 8.934s-4.793 4.268-5.141 11.68M30.832 9.073s-3.706 5.002-3.358 11.96M26.144 57.372s-7.906-.15-9.144-6.051c-1.1-5.246 4.272-5.187 5.296-3.462 1.678 2.82-2.779 5.98-8.343 2.018-4.092-2.912-4.092-8.733-4.092-8.733"/><path fill="#FABE00" d="M16.668 26.35c.105-2.064 1.339-7.52-2.673-7.088-.332-.688-.886-1.271-1.838-1.338-1.373-.097-1.805.62-1.805.62-.353-.39-.785-.629-1.272-.62-4.301.059-3.726 8.322-3.147 12.413.579 4.092 3.936 6.195 6.19 6.19 2.107 0 4.86-1.922 5.175-4.826.314-2.904-.735-3.286-.63-5.35Z"/><path fill="#9D6D16" d="M17.352 30.476c-.13-1.821-1.36-3.177-2.66-3.177-1.31 0-2.359 1.188-2.359 3.303 0 1.825 1.423 3.303 2.728 3.303 1.678 0 2.413-1.755 2.295-3.429h-.004Z"/><path stroke="#0E141B" stroke-linecap="round" stroke-linejoin="round" stroke-width="1.469" d="M58.522 57.51s-.605-3.671 2.698-6.831c5.061-4.84 19.531-7.84 17.576-13.312-1.733-4.839-14.898.122-17.521 1.032-2.623.907-12.166 5.687-13.17 13.077-.47 3.483 1.155 5.036 1.364 7.869.21 2.833 2.204 21.034 6.4 26.07 3.35 4.02 5.456 4.616 6.455 4.666.999.05 2.9-2.014 1.939-4.511-.26-.68-3.857-2.518-3.975-8.444"/><path fill="#009A3E" d="M56.398 68.56s-18.256-8.078-20.983-9.37c-2.728-1.293-6.014.805-4.23 3.882 1.783 3.076 16.56 11.016 25.213 13.69 8.654 2.672 15.939-1.197 17.311-5.666 1.629-5.297 1.889-12.33 1.574-15.528"/><path stroke="#0E141B" stroke-linecap="round" stroke-linejoin="round" stroke-width="1.469" d="M56.398 68.56s-18.256-8.078-20.983-9.37c-2.728-1.293-6.014.805-4.23 3.882 1.783 3.076 16.56 11.016 25.213 13.69 8.654 2.672 15.939-1.197 17.311-5.666 1.629-5.297 1.889-12.33 1.574-15.528"/><path stroke="#0E141B" stroke-linecap="round" stroke-linejoin="round" stroke-width="1.469" d="M73.613 51.657s2.8-.58 4.973 1.107c2.833 2.2 3.198 5.17 5.665 8.213 1.94 2.392 6.933 1.994 6.925 4.986-.004 2.006-3.462 2.887-7.168 1.729-2.95-.92-6.937-3.559-8.737-5.77M42.864 67.163s-1.662 10.441 3.101 16.682M38.772 64.385S36.305 75.086 41.03 82.59M11.179 21.839c.314-1.888-.68-3.936-2.099-3.915-4.301.058-3.726 8.322-3.147 12.413.579 4.092 3.936 6.195 6.19 6.19 2.107 0 4.86-1.922 5.175-4.826.314-2.904-.735-3.286-.63-5.35.105-2.065 1.339-7.521-2.673-7.089"/><path stroke="#0E141B" stroke-linecap="round" stroke-linejoin="round" stroke-width="1.469" d="M14.465 21.7s.139-3.608-2.308-3.776c-1.372-.097-1.805.62-1.805.62M17.352 30.476c-.13-1.821-1.36-3.177-2.66-3.177-1.31 0-2.359 1.188-2.359 3.303 0 1.825 1.423 3.303 2.728 3.303 1.678 0 2.413-1.755 2.295-3.429h-.004Z"/></g><defs><clipPath id="a"><path fill="#fff" d="M4.8 8.2h87.11v88H4.8z"/></clipPath></defs></svg>