<svg xmlns="http://www.w3.org/2000/svg" width="102" height="102" fill="none"><g clip-path="url(#a)"><path fill="#7392B2" d="M33.66 46.924s3.262-11.653 5.509.25c2.246 11.904-2.74 16.59-2.69 19.445.111 6.156.203 15.073-2.19 15.473-2.391.4-12.106 2.12-12.106 2.12"/><path stroke="#000" stroke-linecap="round" stroke-linejoin="round" stroke-width="1.37" d="M33.66 46.924s3.262-11.653 5.509.25c2.246 11.904-2.74 16.59-2.69 19.445.111 6.156.203 15.073-2.19 15.473-2.391.4-12.106 2.12-12.106 2.12"/><path fill="#7392B2" stroke="#000" stroke-linecap="round" stroke-linejoin="round" stroke-width="1.37" d="M33.725 46.05c3.197 2.936 7.146 15.214-4.542 18.684C14.088 69.216 13.76 55.61 13.76 55.61s.145-7.277 7.36-9.835c7.216-2.557 12.605.274 12.605.274Z"/><path fill="#000" stroke="#000" stroke-linecap="round" stroke-linejoin="round" stroke-width="1.37" d="M33.725 48.058c-6.181.365-13.244 2.784-16.669 5.023.365 1.878 1.324 4.42 1.324 4.42-4.384 1.765-5.572 3.534-5.572 3.534-6.074-10.988 1.496-18.64 8.677-20.462 4.983-1.264 15.071-1.986 17.537 11.048 0 0-2.795.756-3.863 1.017l-1.434-4.58h0Z"/><path stroke="#474747" stroke-linecap="round" stroke-linejoin="round" stroke-width="1.096" d="M16.935 50.42s.658-1.668 1.14-3.033l1.88 1.42.835-3.171 2.33 2.367.369-3.636 2.587 2.499.664-2.612s.909 1.336 1.797 2.046l.826-1.985 1.697 1.331M13.723 58.39l-.984-2.661 3.815 1.343s-.64-1.736-.986-2.962M35.723 50.952c-.288-1.515-.645-2.507-.645-2.507l2.805 2.404-.79-2.762"/><path fill="#7392B2" stroke="#000" stroke-linecap="round" stroke-linejoin="round" stroke-width="1.37" d="M12.792 49.072a12.763 12.763 0 0 1 4.506-4l.002-.002s-4.848-3.057-5.864-2.204c-1.003.841 1.356 6.206 1.356 6.206h0Z"/><path fill="#F18989" stroke="#000" stroke-linecap="round" stroke-linejoin="round" stroke-width="1.096" d="M13.955 47.445c.433-.471.98-.985 1.65-1.47l.005-.005s-2.428-1.635-2.648-1.45c-.176.148.988 2.93.988 2.93l.005-.005Z"/><path fill="#7392B2" stroke="#000" stroke-linecap="round" stroke-linejoin="round" stroke-width="1.37" d="M32.42 43.301a12.759 12.759 0 0 0-5.962-.873h-.003s2.378-5.216 3.694-5.06c1.3.154 2.27 5.933 2.27 5.933Z"/><path fill="#F18989" stroke="#000" stroke-linecap="round" stroke-linejoin="round" stroke-width="1.096" d="M30.556 42.578a11.102 11.102 0 0 0-2.186-.324l-.007-.001s1.134-2.7 1.419-2.665c.229.027.78 2.991.78 2.991h-.006Z"/><path fill="#fff" d="M28.002 56.013c.32.41.874.75 1.707.468.77-.26 1.087-1.103.845-1.758-.296-.803-1.335-1.3-2.599-.524"/><path stroke="#000" stroke-linecap="round" stroke-linejoin="round" stroke-width="1.37" d="M28.002 56.013c.32.41.874.75 1.707.468.77-.26 1.087-1.103.845-1.758-.296-.803-1.335-1.3-2.599-.524"/><path fill="#fff" d="M27.567 54.545s.5.817.482 1.52c-.016.614-.316 1.309-1.317 1.55-.865.208-1.648-.391-1.806-1.138-.194-.915.479-1.982 2.101-2"/><path stroke="#000" stroke-linecap="round" stroke-linejoin="round" stroke-width="1.37" d="M27.567 54.545s.5.817.482 1.52c-.016.614-.316 1.309-1.317 1.55-.865.208-1.648-.391-1.806-1.138-.194-.915.479-1.982 2.101-2"/><path fill="#000" stroke="#000" stroke-linecap="round" stroke-linejoin="round" stroke-width="1.096" d="M26.881 54.56c-.11-.381.148-.602.516-.708.367-.106.703-.057.813.325.099.341-.136.64-.504.746-.367.107-.726-.022-.825-.363Z"/><path stroke="#000" stroke-linecap="round" stroke-linejoin="round" stroke-width="1.37" d="M20.21 53.618c1.537-.774 2.562-.99 2.562-.99M20.395 54.109c1.536-.774 2.561-.989 2.561-.989M20.58 54.908c1.537-.773 2.562-.989 2.562-.989M20.903 55.452c1.536-.773 2.561-.988 2.561-.988M29.346 50.446c1.543-.462 2.5-.489 2.5-.489M29.526 50.964c1.543-.462 2.5-.489 2.5-.489M29.604 51.524c1.543-.462 2.5-.489 2.5-.489M29.76 52.264c1.543-.462 2.5-.488 2.5-.488"/><path fill="#fff" d="M21.483 53.764c-.042.416-.25.614-.55.618-.3.004-.471-.178-.474-.478-.005-.3.247-.666.547-.67.3-.003.523.091.477.53M23.174 54.31c-.029.28-.255.288-.456.29-.201.002-.371-.192-.357-.449.012-.2.217-.35.417-.352.201-.003.426.217.396.51M30.716 50.773c-.044.4-.25.585-.545.58-.296-.006-.462-.188-.465-.479-.003-.29.247-.636.542-.63.295.005.514.105.468.528M32.094 51.35c-.03.27-.252.27-.45.266-.198-.004-.365-.199-.35-.446.013-.194.215-.331.412-.327.198.004.419.223.388.507Z"/><path fill="#FDD106" d="M54.842 57.152c-.31.45-.977.733-1.694.664-.798-.077-1.436-.687-1.564-1.507-.241.152-.522.233-.82.216-.73-.041-1.303-.654-1.374-1.418-.21.106-.447.158-.693.144-.812-.045-1.43-.794-1.382-1.672.015-.259.087-.498.2-.708-.1.016-.202.023-.307.018-.812-.046-1.43-.796-1.381-1.674.017-.312.117-.598.275-.835-.682-.17-1.17-.85-1.126-1.634.03-.533.3-.99.687-1.258-.692-.192-1.182-.893-1.137-1.696.035-.626.385-1.152.872-1.41-.537-.34-.884-1.002-.842-1.745.043-.76.479-1.392 1.071-1.66-.396-.32-.736-.952-.704-1.529.049-.877.612-1.577 1.413-1.594-.32-.305-.739-.865-.508-1.607.276-.892.83-1.046 1.586-1.112-.495-.497-.61-1.433-.321-1.988.45-.87 1.234-.96 1.923-.936-.243-.343-.502-1.11.045-1.744.751-.87 1.823-.308 1.984-.233-.164-.796-.102-1.57.58-2.018.738-.487 1.73-.145 1.981.016-.03-.772.154-1.166.837-1.482.567-.262 1.451-.11 1.784.366-.017-.841.635-1.363 1.407-1.414.57-.038 1.174.348 1.41.862.162-.927.71-1.397 1.53-1.47 1.21-.11 1.773.69 1.949 1.326.168-.852.76-1.469 1.802-1.41 1.042.058 1.562.737 1.634 1.602.245-.612.894-1.345 2.084-1.102.807.165 1.3.693 1.357 1.632.292-.485.935-.8 1.498-.7.761.137 1.351.728 1.241 1.562.383-.437 1.28-.489 1.813-.166.645.39.782.804.668 1.566.268-.131 1.291-.36 1.971.205.627.521.602 1.297.352 2.07.168-.056 1.295-.496 1.945.452.473.69.131 1.424-.15 1.738.688.054 1.456.23 1.807 1.145.225.584.007 1.502-.54 1.94.746.15 1.278.365 1.453 1.281.147.763-.332 1.274-.683 1.541.792.106 1.275.865 1.226 1.742-.032.577-.44 1.167-.87 1.441.559.333.922 1.01.88 1.77-.041.743-.46 1.363-1.03 1.64.455.31.744.873.709 1.498-.045.803-.61 1.445-1.32 1.56.356.308.573.793.543 1.326-.044.784-.604 1.405-1.3 1.498.13.254.198.549.18.862-.049.878-.747 1.554-1.559 1.509a1.363 1.363 0 0 1-.302-.052c.089.221.133.467.119.726-.05.879-.747 1.554-1.559 1.508a1.37 1.37 0 0 1-.672-.22c-.155.752-.792 1.297-1.524 1.256a1.382 1.382 0 0 1-.79-.305c-.218.8-.92 1.336-1.722 1.323-.72-.011-1.352-.367-1.61-.848"/><path stroke="#000" stroke-linecap="round" stroke-linejoin="round" stroke-width="1.37" d="M54.842 57.152c-.31.45-.977.733-1.694.664-.798-.077-1.436-.687-1.564-1.507-.241.152-.522.233-.82.216-.73-.041-1.303-.654-1.374-1.418-.21.106-.447.158-.693.144-.812-.045-1.43-.794-1.382-1.672.015-.259.087-.498.2-.708-.1.016-.202.023-.307.018-.812-.046-1.43-.796-1.381-1.674.017-.312.117-.598.275-.835-.682-.17-1.17-.85-1.126-1.634.03-.533.3-.99.687-1.258-.692-.192-1.182-.893-1.137-1.696.035-.626.385-1.152.872-1.41-.537-.34-.884-1.002-.842-1.745.043-.76.479-1.392 1.071-1.66-.396-.32-.736-.952-.704-1.529.049-.877.612-1.577 1.413-1.594-.32-.305-.739-.865-.508-1.607.276-.892.83-1.046 1.586-1.112-.495-.497-.61-1.433-.321-1.988.45-.87 1.234-.96 1.923-.936-.243-.343-.502-1.11.045-1.744.751-.87 1.823-.308 1.984-.233-.164-.796-.102-1.57.58-2.018.738-.487 1.73-.145 1.981.016-.03-.772.154-1.166.837-1.482.567-.262 1.451-.11 1.784.366-.017-.841.635-1.363 1.407-1.414.57-.038 1.174.348 1.41.862.162-.927.71-1.397 1.53-1.47 1.21-.11 1.773.69 1.949 1.326.168-.852.76-1.469 1.802-1.41 1.042.058 1.562.737 1.634 1.602.245-.612.894-1.345 2.084-1.102.807.165 1.3.693 1.357 1.632.292-.485.935-.8 1.498-.7.761.137 1.351.728 1.241 1.562.383-.437 1.28-.489 1.813-.166.645.39.782.804.668 1.566.268-.131 1.291-.36 1.971.205.627.521.602 1.297.352 2.07.168-.056 1.295-.496 1.945.452.473.69.131 1.424-.15 1.738.688.054 1.456.23 1.807 1.145.225.584.007 1.502-.54 1.94.746.15 1.278.365 1.453 1.281.147.763-.332 1.274-.683 1.541.792.106 1.275.865 1.226 1.742-.032.577-.44 1.167-.87 1.441.559.333.922 1.01.88 1.77-.041.743-.46 1.363-1.03 1.64.455.31.744.873.709 1.498-.045.803-.61 1.445-1.32 1.56.356.308.573.793.543 1.326-.044.784-.604 1.405-1.3 1.498.13.254.198.549.18.862-.049.878-.747 1.554-1.559 1.509a1.363 1.363 0 0 1-.302-.052c.089.221.133.467.119.726-.05.879-.747 1.554-1.559 1.508a1.37 1.37 0 0 1-.672-.22c-.155.752-.792 1.297-1.524 1.256a1.382 1.382 0 0 1-.79-.305c-.218.8-.92 1.336-1.722 1.323-.72-.011-1.352-.367-1.61-.848"/><path fill="#000" stroke="#000" stroke-linecap="round" stroke-linejoin="round" stroke-width="1.37" d="M74.115 61.577c-2.762 4.767-2.503 9.204-4.545 16.698-.199.728-1.073 1.354-2.686 1.113-1.358-.204-1.532-.84-1.532-.84.024-2.11.05-3.44-.356-4.246-.513-1.02-3.17-.927-3.96-.792-1.415.241.128 5.097-1.473 5.421-1.602.325-3.547-.26-3.547-.26-2.395-9.513-3.567-14.527-4.628-16.637l-.275-5.293s6.294-3.202 11.214-2.837c4.92.365 10.009 1.627 10.009 1.627l1.78 6.046h0Z"/><path fill="#614E1F" d="M78.938 48.972c1.78-1.328 2.253-2.528 2.102-3.06-.208-.74-.824-.952-1.597-.867-.291-.657-1.291-1-1.835-.5-.448-.539-1.698-.566-1.992.464-.28.977-.16 1.934-.23 2.84"/><path stroke="#000" stroke-linecap="round" stroke-linejoin="round" stroke-width="1.37" d="M78.938 48.972c1.78-1.328 2.253-2.528 2.102-3.06-.208-.74-.824-.952-1.597-.867-.291-.657-1.291-1-1.835-.5-.448-.539-1.698-.566-1.992.464-.28.977-.16 1.934-.23 2.84"/><path stroke="#000" stroke-linecap="round" stroke-linejoin="round" stroke-width="1.37" d="M77.703 45.712s.275-.721-.095-1.166M79.443 45.046c.243.548-.115 1.238-.115 1.238"/><path fill="#000" d="M74.115 61.577c4.565-7.878 5.097-12.605 5.097-12.605l-4.02-1.37c-1.917 6.141-4.292 9.864-4.292 9.864"/><path stroke="#000" stroke-linecap="round" stroke-linejoin="round" stroke-width="1.37" d="M74.115 61.577c4.565-7.878 5.097-12.605 5.097-12.605l-4.02-1.37c-1.917 6.141-4.292 9.864-4.292 9.864"/><path fill="#fff" d="M56.994 56.74s1.404 5.276 5.352 8.342c0 0 4.185-2.25 6.323-8.159"/><path stroke="#000" stroke-linecap="round" stroke-linejoin="round" stroke-width="1.37" d="M56.994 56.74s1.404 5.276 5.352 8.342c0 0 4.185-2.25 6.323-8.159"/><path stroke="#000" stroke-linecap="round" stroke-linejoin="round" stroke-width="1.37" d="m59.688 62.27 3.125-2.598 2.59 2.807"/><path fill="#614E1F" stroke="#000" stroke-linecap="round" stroke-linejoin="round" stroke-width="1.37" d="M74.836 48.992c.388-6.955-3.558-11.66-10.924-12.072-7.365-.41-12.387 3.794-12.775 10.75-.395 7.088 4.165 11.578 11.218 11.972 7.053.393 12.086-3.561 12.481-10.65Z"/><path stroke="#000" stroke-linecap="round" stroke-linejoin="round" stroke-width="1.644" d="M52.277 44.02c.906.016 9.216.41 9.216.41s1.546-.22 3.225.206c1.795.455 8.964.504 8.964.504"/><path fill="#000" stroke="#000" stroke-miterlimit="10" stroke-width="1.37" d="M54.217 42.205c-.46.007-1.064.18-1.143 1.294-.09 1.265-.294 4.152 1.141 4.33 1.436.178 5.07.31 5.519.24.449-.07.989-.44 1.121-1.321.1-.667.285-1.964.325-2.93.035-.842-.173-1.182-.706-1.246-.982-.116-5.514-.378-6.257-.367ZM72.179 42.963c.468.049 1.065.278 1.045 1.418-.024 1.295-.077 4.248-1.553 4.3-1.475.051-5.182-.146-5.632-.258-.45-.112-.966-.535-1.021-1.444-.041-.687-.112-2.022-.064-3.007.041-.86.283-1.187.83-1.203 1.01-.03 5.642.115 6.395.193v.001Z"/><path fill="#414242" d="M56.15 43.379c.08.172.126.495-.182.776-.328.3-.71.785-1.11 1.377-.223.33-.745.374-.92-.197-.137-.449-.12-1.252-.046-1.705.079-.483.422-.627.971-.637.45-.007 1.097-.01 1.285.386h.001ZM59.824 46.745c.019-.43-.224-.634-.677-.654a.71.71 0 0 0-.734.692c-.016.356.144.75.673.666.352-.055.72-.319.738-.704ZM68.126 43.893c.083.175.128.505-.185.792-.334.305-.724.801-1.132 1.405-.227.338-.761.382-.94-.2-.14-.459-.122-1.278-.047-1.74.08-.493.431-.64.992-.65.458-.008 1.12-.011 1.312.393ZM72.086 47.338c.019-.438-.228-.647-.691-.668a.724.724 0 0 0-.75.707c-.016.363.148.765.688.68.358-.056.735-.326.753-.719Z"/><path fill="#fff" d="M62.843 50.27c-.259.623-.822 1.059-1.863.96-.963-.09-1.544-.897-1.444-1.806.122-1.114 1.19-2.074 2.865-1.48"/><path stroke="#000" stroke-linecap="round" stroke-linejoin="round" stroke-width="1.37" d="M62.843 50.27c-.259.623-.822 1.059-1.863.96-.963-.09-1.544-.897-1.444-1.806.122-1.114 1.19-2.074 2.865-1.48"/><path fill="#fff" d="M62.933 48.226s-.324 1.093-.13 1.907c.171.71.69 1.264 1.81 1.26.967-.006 1.618-.758 1.598-1.672-.023-1.12-1.001-2.172-2.722-1.728"/><path stroke="#000" stroke-linecap="round" stroke-linejoin="round" stroke-width="1.37" d="M62.933 48.226s-.324 1.093-.13 1.907c.171.71.69 1.264 1.81 1.26.967-.006 1.618-.758 1.598-1.672-.023-1.12-1.001-2.172-2.722-1.728"/><path fill="#000" stroke="#000" stroke-miterlimit="10" stroke-width="1.37" d="M63.502 48.143c.017-.398-.258-.551-.605-.566-.347-.015-.633.113-.651.51-.016.356.255.591.602.606.347.016.638-.194.654-.55Z"/><path fill="#000" stroke="#000" stroke-linecap="round" stroke-linejoin="round" stroke-width="1.37" d="m61.74 60.564.705 1.263-1.068 2.344.95.602 1.175-.488-.628-2.458.833-1.187-.965-.548-1.001.472Z"/><path fill="#000" d="M56.833 78.207s-1.03 2.368-.522 3.555c.508 1.187 3.252-2.832 3.252-2.832"/><path stroke="#000" stroke-linecap="round" stroke-linejoin="round" stroke-width="1.37" d="M56.833 78.207s-1.03 2.368-.522 3.555c.508 1.187 3.252-2.832 3.252-2.832"/><path fill="#000" d="M65.876 78.207s-1.03 2.368-.522 3.555c.508 1.187 3.252-2.832 3.252-2.832"/><path stroke="#000" stroke-linecap="round" stroke-linejoin="round" stroke-width="1.37" d="M65.876 78.207s-1.03 2.368-.522 3.555c.508 1.187 3.252-2.832 3.252-2.832"/><path fill="#000" d="M54.842 57.152c-3.032-4.22-2.975-9.78-2.975-9.78l-4.121.362c-.066 6.17 1.877 10.796 3.64 14.299"/><path stroke="#000" stroke-linecap="round" stroke-linejoin="round" stroke-width="1.37" d="M54.842 57.152c-3.032-4.22-2.975-9.78-2.975-9.78l-4.121.362c-.066 6.17 1.877 10.796 3.64 14.299"/><path fill="#fff" d="M79.068 75.018c-1.184-.892-6.16-3.845-8.715-9.032-1.49-3.028-1.47-4.82-1.517-6.283-.06-1.834.78-2.626 1.797-2.891.783-.205 1.66-.078 2.378.839.898 1.148 1.492 2.918 2.902 6.932 1.024 2.915 2.15 4.473 3.435 6.145"/><path stroke="#000" stroke-linecap="round" stroke-linejoin="round" stroke-width="1.37" d="M79.068 75.018c-1.184-.892-6.16-3.845-8.715-9.032-1.49-3.028-1.47-4.82-1.517-6.283-.06-1.834.78-2.626 1.797-2.891.783-.205 1.66-.078 2.378.839.898 1.148 1.492 2.918 2.902 6.932 1.024 2.915 2.15 4.473 3.435 6.145"/><path fill="#fff" d="M86.867 84.229c-.337 5.206.748 6.439 2.529 6.292 1.78-.147 2.4-2.632 3.425-6.874 2.192-9.066.463-14.802.463-14.802l-12.593-2.494s-4.174 17.604-.063 20.892"/><path stroke="#000" stroke-linecap="round" stroke-linejoin="round" stroke-width="1.37" d="M86.867 84.229c-.337 5.206.748 6.439 2.529 6.292 1.78-.147 2.4-2.632 3.425-6.874 2.192-9.066.463-14.802.463-14.802l-12.593-2.494s-4.174 17.604-.063 20.892"/><path fill="#fff" stroke="#000" stroke-linecap="round" stroke-linejoin="round" stroke-width="1.37" d="M99.025 60.306c.015-5.915-4.342-12.682-14.112-12.108-9.18.54-12.168 7.088-11.702 13.573.47 6.54 3.963 10.72 13.053 10.48C95.87 72 99.01 66.338 99.025 60.307Z"/><path fill="#F5B210" stroke="#000" stroke-linecap="round" stroke-linejoin="round" stroke-width="1.37" d="M79.144 58.795s-.023-3.377 3.503-3.059c3.224.29 3.423 2.518 3.4 3.825 0 0 2.985.022 4.794.83 1.672.748 2.421 2.404 2.442 4.035.022 1.692-.732 2.867-2.101 3.574-1.695.875-3.793.881-7.05.743-1.793-.076-5.64-.677-8.59-1.671-2.568-.866-4.15-2.681-4.006-5.058.132-2.187 1.281-3.706 2.682-3.89 1.757-.233 3.878.642 4.925.671Z"/><path fill="#000" d="M81.335 59.156a.822.822 0 0 0 .822-.822c-.009-.204-.08-.432-.241-.58a.854.854 0 0 0-.581-.241.822.822 0 0 0-.822.822c.009.204.08.432.24.58.162.149.36.241.582.241ZM83.847 59.54a.823.823 0 0 0 .822-.822c-.009-.205-.08-.433-.241-.581a.854.854 0 0 0-.581-.241.822.822 0 0 0-.822.822c.009.204.08.433.24.58.162.149.36.242.582.242ZM89.532 57.505a.958.958 0 0 0 .959-.96c-.01-.238-.092-.504-.28-.677a.996.996 0 0 0-.678-.281.957.957 0 0 0-.96.959c.01.238.093.505.282.678a.996.996 0 0 0 .677.28ZM77.713 56.073c.228 0 .468-.099.63-.26a.89.89 0 0 0 .26-.63c-.01-.222-.086-.47-.26-.63a.925.925 0 0 0-.63-.26c-.228 0-.469.099-.63.26a.89.89 0 0 0-.26.63c.01.222.085.469.26.63.175.16.389.26.63.26Z"/><path stroke="#000" stroke-linecap="round" stroke-linejoin="round" stroke-width="1.37" d="M88.19 53.403s1.686-.87 3.535.598M76.457 52.154s1.841-.97 3.37.38"/><path fill="#fff" d="M87.005 74.041c-.95-1.003-1.989-4.334-2.552-7.88-.454-2.86-.373-4.285-.1-5.494.34-1.515 1.325-1.97 2.365-1.952.802.013 1.623.32 2.117 1.235.62 1.147.808 2.734 1.299 6.345.356 2.623.725 4.376 1.603 6.042"/><path stroke="#000" stroke-linecap="round" stroke-linejoin="round" stroke-width="1.37" d="M87.005 74.041c-.95-1.003-1.989-4.334-2.552-7.88-.454-2.86-.373-4.285-.1-5.494.34-1.515 1.325-1.97 2.365-1.952.802.013 1.623.32 2.117 1.235.62 1.147.808 2.734 1.299 6.345.356 2.623.725 4.376 1.603 6.042"/><path fill="#A78240" d="M9.536 84.278c.624 4.567.344 9.796 1.037 12.962.66 3.018 1.14 4.576 1.551 7.409.36 2.477 2.66 3.224 5.343 1.775 1.754-.948 1.431-2.457.137-2.582 0 0-.411-3.673 1.644-3.773 1.021-.05 1.096 2.04 1.028 3.958-.069 1.918.48 3.219 2.055 3.288 1.576.068 3.187.127 3.966-1.576.624-1.364-.747-1.638-.747-1.638s1.7-5.418 2.117-7.953c.418-2.535.587-6.257.966-8.357 5.092-7.099 7.451-15.251 8.216-17.425.274-.78 1.229-1.569 1.02-2.392-.151-.599-.793-1.018-1.387-.852 0 0-.008-.933-.809-1.121a1.106 1.106 0 0 0-1.02.253s-.098-.503-.794-.585c-.89-.106-1.854.448-1.718 2.282.132 1.78-2.094 10.062-7.242 16.176"/><path stroke="#000" stroke-linecap="round" stroke-linejoin="round" stroke-width="1.37" d="M9.536 84.278c.624 4.567.344 9.796 1.037 12.962.66 3.018 1.14 4.576 1.551 7.409.36 2.477 2.66 3.224 5.343 1.775 1.754-.948 1.431-2.457.137-2.582 0 0-.411-3.673 1.644-3.773 1.021-.05 1.096 2.04 1.028 3.958-.069 1.918.48 3.219 2.055 3.288 1.576.068 3.187.127 3.966-1.576.624-1.364-.747-1.638-.747-1.638s1.7-5.418 2.117-7.953c.418-2.535.587-6.257.966-8.357 5.092-7.099 7.451-15.251 8.216-17.425.274-.78 1.229-1.569 1.02-2.392-.151-.599-.793-1.018-1.387-.852 0 0-.008-.933-.809-1.121a1.106 1.106 0 0 0-1.02.253s-.098-.503-.794-.585c-.89-.106-1.854.448-1.718 2.282.132 1.78-2.094 10.062-7.242 16.176"/><path stroke="#000" stroke-linecap="round" stroke-linejoin="round" stroke-width="1.37" d="M36.482 67.122a1.155 1.155 0 0 0-.62.455M34.655 66.253a1.976 1.976 0 0 0-.504.722"/><path fill="#A78240" stroke="#000" stroke-linecap="round" stroke-linejoin="round" stroke-width="1.37" d="M29.457 63.527c5.227 8.782-1.888 19.742-1.888 19.742s-4.211 2.097-8.321 2.007c-4.11-.089-8.769-1.328-8.769-1.328s-4.455-3.686-4.93-11.89c-.247-4.245 1.525-7.47 3.574-9.52 0 0-1.954-3.305.763-5.313 2.916-2.154 7.438-1.851 6.996 1.921l.037-.006c2.03-.246 4.196-.154 6.226.404l-.061-.016s.189-2.009 1.77-2.745c2.514-1.17 6.09.755 6.426 3.488.335 2.732-1.823 3.256-1.823 3.256v0Z"/><path stroke="#000" stroke-linecap="round" stroke-linejoin="round" stroke-width="1.37" d="M16.92 59.14c-.677.081-1.34.2-1.977.353 0 0-.432-.32-.514-1.107M29.086 60.647c-.54.424-.939 1.403-.939 1.403.412.39.897.88 1.31 1.477"/><path fill="#B52025" stroke="#000" stroke-linecap="round" stroke-linejoin="round" stroke-width="1.37" d="M20.454 86.944c4-.21 7.025-1.281 7.435-1.733.41-.452.575-2.534.26-2.806-.316-.273-3.233 1.023-8.462 1.262-6.764.31-10.111-.956-10.502-.682-.392.274.022 2.696.235 2.939.213.243 4.72 1.35 11.034 1.02Z"/><path fill="#A78240" d="M16.508 97.93c-.034 2.808-.632 3.59-.548 4.341.103.916 1.062 1.31 1.918.822.69-.392 1.644-2.15 1.644-4.753"/><path stroke="#000" stroke-linecap="round" stroke-linejoin="round" stroke-width="1.37" d="M16.508 97.93c-.034 2.808-.632 3.59-.548 4.341.103.916 1.062 1.31 1.918.822.69-.392 1.644-2.15 1.644-4.753"/><path fill="#FDD106" d="M68.011 98.934s-.08 5.954.543 7.276c.827 1.757 3.493 1.84 4.288.288.683-1.336.589-5.585.589-5.585"/><path stroke="#000" stroke-linecap="round" stroke-linejoin="round" stroke-width="1.37" d="M68.011 98.934s-.08 5.954.543 7.276c.827 1.757 3.493 1.84 4.288.288.683-1.336.589-5.585.589-5.585"/><path fill="#FDD106" d="M83.388 97.66s-.097 5.953-.75 7.256c-.866 1.733-3.498 1.739-4.235.165-.635-1.355-.416-5.6-.416-5.6"/><path stroke="#000" stroke-linecap="round" stroke-linejoin="round" stroke-width="1.37" d="M83.388 97.66s-.097 5.953-.75 7.256c-.866 1.733-3.498 1.739-4.235.165-.635-1.355-.416-5.6-.416-5.6"/><path fill="#fff" d="M86.388 88.5s.907 6.365-1.63 9.975c-1.436 2.041-3.51 3.283-7.056 3.741-4.945.639-8.852-.489-10.89-3.395-1.7-2.425-2.225-5.352-2.257-9.591-6.413-7.54-5.002-21.964 7.848-24.678 8.74-1.848 18.025 2.974 17.801 13.178-.195 8.953-4.82 11.59-4.82 11.59"/><path stroke="#000" stroke-linecap="round" stroke-linejoin="round" stroke-width="1.37" d="M86.388 88.5s.907 6.365-1.63 9.975c-1.436 2.041-3.51 3.283-7.056 3.741-4.945.639-8.852-.489-10.89-3.395-1.7-2.425-2.225-5.352-2.257-9.591-6.413-7.54-5.002-21.964 7.848-24.678 8.74-1.848 18.025 2.974 17.801 13.178-.195 8.953-4.82 11.59-4.82 11.59"/><path fill="#fff" d="M81.063 98.909s.264 2.553-1.465 3.297c-1.73.744-3.842.19-4.347-1.78"/><path stroke="#000" stroke-linecap="round" stroke-linejoin="round" stroke-width="1.37" d="M81.063 98.909s.264 2.553-1.465 3.297c-1.73.744-3.842.19-4.347-1.78"/><path fill="#fff" d="M67.86 71.76s-.429-6.274.18-8.218c.81-2.586 3.828-2.725 4.74-.513.919 2.233.474 6.52.474 6.52"/><path stroke="#000" stroke-linecap="round" stroke-linejoin="round" stroke-width="1.37" d="M67.86 71.76s-.429-6.274.18-8.218c.81-2.586 3.828-2.725 4.74-.513.919 2.233.474 6.52.474 6.52"/><path fill="#fff" d="M79.789 67.789s-.188-4.918.505-6.834c.921-2.548 3.942-2.557 4.757-.307.822 2.271.12 7.628.12 7.628"/><path stroke="#000" stroke-linecap="round" stroke-linejoin="round" stroke-width="1.37" d="M79.789 67.789s-.188-4.918.505-6.834c.921-2.548 3.942-2.557 4.757-.307.822 2.271.12 7.628.12 7.628"/><path fill="#FDD106" stroke="#000" stroke-linecap="round" stroke-linejoin="round" stroke-width="1.37" d="M66.904 92.526c-.292.348-1.302.88-2.508-.217-2.011-1.83-4.358-6.35-5.412-10.399-.85-3.265-.968-4.945-.866-6.405.128-1.83 1.045-2.533 2.083-2.692.8-.124 1.66.092 2.28 1.078.775 1.233 1.185 3.056 2.176 7.193 1.44 6.008 3.783 9.607 2.247 11.44v.002Z"/><path fill="#fff" d="M36.711 102.504s.208 5.951.89 7.242c.907 1.715 3.563 1.671 4.279.082.615-1.366.317-5.606.317-5.606"/><path stroke="#000" stroke-linecap="round" stroke-linejoin="round" stroke-width="1.37" d="M36.711 102.504s.208 5.951.89 7.242c.907 1.715 3.563 1.671 4.279.082.615-1.366.317-5.606.317-5.606"/><path fill="#fff" d="M44.58 104.681s.151 4.033.858 5.322c.94 1.714 3.706 1.664 4.455.073.644-1.368.8-4.348.896-5.815.178-2.706.792-7.231 1.487-8.631 3.324-6.691 4.982-13.904 4.745-17.736-.11-1.784-1.117-2.698-2.05-2.899-1.39-.3-2.86.925-3.22 3.105-.879 5.3-2.237 8.853-3.299 12.787l-14.791.386s1.038 6.873.904 9.811c-.195 4.242 3.449 6.207 7.774 3.902"/><path stroke="#000" stroke-linecap="round" stroke-linejoin="round" stroke-width="1.37" d="M44.58 104.681s.151 4.033.858 5.322c.94 1.714 3.706 1.664 4.455.073.644-1.368.8-4.348.896-5.815.178-2.706.792-7.231 1.487-8.631 3.324-6.691 4.982-13.904 4.745-17.736-.11-1.784-1.117-2.698-2.05-2.899-1.39-.3-2.86.925-3.22 3.105-.879 5.3-2.237 8.853-3.299 12.787l-14.791.386s1.038 6.873.904 9.811c-.195 4.242 3.449 6.207 7.774 3.902"/><path fill="#fff" d="M41.632 102.635s-.31 3.324 2.567 3.817c3.167.544 4.62-1.55 4.62-1.55"/><path stroke="#000" stroke-linecap="round" stroke-linejoin="round" stroke-width="1.37" d="M41.632 102.635s-.31 3.324 2.567 3.817c3.167.544 4.62-1.55 4.62-1.55"/><path fill="#F9C5C6" d="M40.37 85.356s-.936 3.712 1.33 6.728c2.266 3.016 8.529 2.756 11.442.356 4.039-3.326 4.85-9.277.696-14.415s-9.069-8.971-10.641-9.163c-1.573-.192-2.399.914-4.406 2.421-3.23 2.424-10.61 5.677-10.6 13.651.008 6.588 5.004 8.819 8.778 8.823 3.193.003 4.73-1.674 4.73-1.674"/><path stroke="#000" stroke-linecap="round" stroke-linejoin="round" stroke-width="1.37" d="M40.37 85.356s-.936 3.712 1.33 6.728c2.266 3.016 8.529 2.756 11.442.356 4.039-3.326 4.85-9.277.696-14.415s-9.069-8.971-10.641-9.163c-1.573-.192-2.399.914-4.406 2.421-3.23 2.424-10.61 5.677-10.6 13.651.008 6.588 5.004 8.819 8.778 8.823 3.193.003 4.73-1.674 4.73-1.674"/><path fill="#309245" d="M60.597 109.241c.048 1.682 2.258 1.733 2.84.662.293-.54.777-2.147 1-4.03.218-1.848.174-3.962.508-5.597.675-3.3-1.184-5.24-3.96-5.366-3.63-.165-4.078 3.246-4.078 3.246s-1.077-.178-1.753.241c-.522.323-.863 1.082-.677 1.938 0 0-.423.96.074 1.57.648.796 2.474 1.128 2.474 1.128"/><path stroke="#000" stroke-linecap="round" stroke-linejoin="round" stroke-width="1.37" d="M60.597 109.241c.048 1.682 2.258 1.733 2.84.662.293-.54.777-2.147 1-4.03.218-1.848.174-3.962.508-5.597.675-3.3-1.184-5.24-3.96-5.366-3.63-.165-4.078 3.246-4.078 3.246s-1.077-.178-1.753.241c-.522.323-.863 1.082-.677 1.938 0 0-.423.96.074 1.57.648.796 2.474 1.128 2.474 1.128M54.478 100.335l1.973.526"/><path fill="#309245" d="M60.809 107.41s.041 2.308-.817 2.877c-.919.608-2.34.341-2.641-.914-.178-.739-.404-4.292-.404-4.292s-3.192-.802-2.944-3.997c.09-1.157 1.609-1.5 2.291-.847.68.651.397 1.317 1.199 1.697"/><path stroke="#000" stroke-linecap="round" stroke-linejoin="round" stroke-width="1.37" d="M60.809 107.41s.041 2.308-.817 2.877c-.919.608-2.34.341-2.641-.914-.178-.739-.404-4.292-.404-4.292s-3.192-.802-2.944-3.997c.09-1.157 1.609-1.5 2.291-.847.68.651.397 1.317 1.199 1.697"/><path fill="#DD9B26" d="M42.226 30.226s-.85-13.41 3.465-17.994c3.288-3.494 6.904-.497 6.946.436L50.292 31.16"/><path stroke="#000" stroke-linecap="round" stroke-linejoin="round" stroke-width="1.37" d="M42.226 30.226s-.85-13.41 3.465-17.994c3.288-3.494 6.904-.497 6.946.436L50.292 31.16"/><path fill="#DD9B26" d="M43.361 29.494c-1.584 1.086-4.932 3.014-6.644 3.152-1.17.093-9.385-4.522-11.303 1.301-1.649 5.005 6.844 6.941 6.844 6.941s4.939 5.327 9.14 5.335c4.202.009 20.218-2.854 23.08-8.364 2.86-5.51-9.634-11.904-9.634-11.904"/><path stroke="#000" stroke-linecap="round" stroke-linejoin="round" stroke-width="1.37" d="M43.361 29.494c-1.584 1.086-4.932 3.014-6.644 3.152-1.17.093-9.385-4.522-11.303 1.301-1.649 5.005 6.844 6.941 6.844 6.941s4.939 5.327 9.14 5.335c4.202.009 20.218-2.854 23.08-8.364 2.86-5.51-9.634-11.904-9.634-11.904"/><path fill="#DD9B26" d="M66.924 11.3c.842-1.592 1.195-4.738-2.087-5.791-3.26-1.047-4.867 2.088-4.782 3.527"/><path stroke="#000" stroke-linecap="round" stroke-linejoin="round" stroke-width="1.37" d="M66.924 11.3c.842-1.592 1.195-4.738-2.087-5.791-3.26-1.047-4.867 2.088-4.782 3.527"/><path fill="#DD9B26" d="M78.846 22.425c1.925-.49 4.91-2.562 3.047-5.97-1.812-3.312-5.167-2.456-6.28-1.322"/><path stroke="#000" stroke-linecap="round" stroke-linejoin="round" stroke-width="1.37" d="M78.846 22.425c1.925-.49 4.91-2.562 3.047-5.97-1.812-3.312-5.167-2.456-6.28-1.322"/><path fill="#DD9B26" stroke="#000" stroke-linecap="round" stroke-linejoin="round" stroke-width="1.37" d="M47.939 14.547c5.05-7.342 15.409-8.346 22.822-4.09 8.862 5.086 10.59 15.498 5.593 22.284-6.21 8.43-15.903 7.41-23.392 3.055-8.438-4.909-9.372-14.925-5.023-21.248Z"/><path fill="#221F1F" d="M68.471 13.94s2.422 1.545 4.298 3.21l-4.298-3.21Z"/><path stroke="#020303" stroke-linecap="round" stroke-linejoin="round" stroke-width="1.644" d="M68.471 13.94s2.422 1.545 4.298 3.21"/><path fill="#221F1F" d="M58.977 8.3s.734.37 2.492 1.74L58.977 8.3Z"/><path stroke="#020303" stroke-linecap="round" stroke-linejoin="round" stroke-width="1.644" d="M58.977 8.3s.734.37 2.492 1.74"/><path fill="#221F1F" d="M68.048 18.902c1.424-.524 1.007-2.406-.505-2.28-1.423.523-1.006 2.405.505 2.28ZM58.056 12.617c1.294-.476.915-2.188-.46-2.074-1.294.476-.915 2.189.46 2.074Z"/><path fill="#fff" d="M57.977 16.533c-.704-1.868-3.37-1.99-4.426-.713-.86 1.043-.92 2.837.08 3.627 1.017.803 2.021.826 2.993.332-.082 1.02.332 1.933 1.03 2.332 1.103.63 2.881.637 3.821-.719.981-1.416.489-3.973-2.211-4.376l-.79-.132"/><path stroke="#000" stroke-linecap="round" stroke-linejoin="round" stroke-width="1.37" d="M57.977 16.533c-.704-1.868-3.37-1.99-4.426-.713-.86 1.043-.92 2.837.08 3.627 1.017.803 2.021.826 2.993.332-.082 1.02.332 1.933 1.03 2.332 1.103.63 2.881.637 3.821-.719.981-1.416.489-3.973-2.211-4.376l-.79-.132"/><path fill="#000" d="M57.278 15.16c-.462.474-.465 2.15.247 2.636.64.437 2.037.026 2.641-.647.706-.785-1.604-3.307-2.888-1.99Z"/><path fill="#DD9B26" d="M58.198 39.404s9.231-14.682 12.245-16.155c2.988-1.46 5.754 1.427 5.389 4.167-.365 2.74-9.095 13.655-12.057 16.076-4.24 3.466-12.509 6.21-16.897 6.759-3.756.469-19.887.837-17.628-6.577 1.301-4.271 5.549-2.642 10.32-2.283"/><path stroke="#000" stroke-linecap="round" stroke-linejoin="round" stroke-width="1.37" d="M58.198 39.404s9.231-14.682 12.245-16.155c2.988-1.46 5.754 1.427 5.389 4.167-.365 2.74-9.095 13.655-12.057 16.076-4.24 3.466-12.509 6.21-16.897 6.759-3.756.469-19.887.837-17.628-6.577 1.301-4.271 5.549-2.642 10.32-2.283"/><path fill="#fff" d="M51.17 36.485s.794 2.704-.954 4.332c-1.324 1.234-2.554 1.606-4.423 1.37-1.293-.164-2.922-.632-4.842-2.535-1.398-1.386-1.931-3.25-1.747-4.519.199-1.374 1.625-2.665 2.931-3.199 1.203-.49 2.812-.442 3.236-.358 0 0 .122 1.198.087 1.988 1.128-.011 2.926.45 2.926.45s.106 1.328.078 2.265a19.42 19.42 0 0 1 2.707.207Z"/></g><defs><clipPath id="a"><path fill="#fff" d="M0 0h102v102H0z"/></clipPath></defs></svg>