<svg xmlns="http://www.w3.org/2000/svg" width="102" height="102" fill="none"><g clip-path="url(#a)"><path fill="#149746" d="M47.726 33.01c-2.095-5.324-4.761-9.056-5.92-10.542-.363-.466-.58-.71-.58-.71l-13.751 4.88s3.301 9.287 3.984 12.62"/><path stroke="#0E141B" stroke-linecap="round" stroke-linejoin="round" stroke-width="1.553" d="M47.726 33.01c-2.095-5.324-4.761-9.056-5.92-10.542-.363-.466-.58-.71-.58-.71l-13.751 4.88s3.301 9.287 3.984 12.62"/><path fill="#fff" d="M42.201 92.617s17.85 5.334 35.23.04l-16.137-4.694"/><path fill="#fff" d="M42.202 92.617s.115-5.382-.12-11.061c-.222-5.413-.652-6.456.333-10.53l31.334-3.802s4.561 7.437 3.683 25.433"/><path stroke="#0E141B" stroke-linecap="round" stroke-linejoin="round" stroke-width="1.553" d="M42.202 92.617s.115-5.382-.12-11.061c-.222-5.413-.652-6.456.333-10.53l31.334-3.802s4.561 7.437 3.683 25.433"/><path fill="#C11A20" d="M52.384 85.5c2.33-1.774 4.92-6.19 4.907-7.605 1.358 1.327 4.269 2.068 6.98 2.463 3.54.515 7.357-.821 9.761-1.61 1.434-.471 2.947-1.567 4.282-2.76 2.25-2.01 4.335-4.832 4.335-4.832-2.986-2.259-4.029-5.25-7.711-6.71.967-2.342 1.473-4.117 1.668-6.713.209-2.777.213-7.374-.257-9.721-.772-3.865-1.74-6.682-4.047-10.197-1.597-2.435-4.21-5.435-6.904-7.574-1.517-1.206-3.479-1.81-4.623-2.626-.156-.972-.329-3.035-.701-4.801-.76-3.608-2.037-6.225-2.907-7.854-1.384-2.595-1.983-3.856-3.833-5.622-1.713-1.632-5.063-2.32-7.85-.425-1.45.985-2.822 3.119-1.455 6.429.914 2.214 1.73 3.092 2.33 5.169.488 1.695 1.282 2.139 1.273 6.14-3.452.036-12.792 3.027-16.59 6.026-1.442-2.489-3.985-4.046-5.507-5.874-1.33-1.607-4.973-3.532-7.587-4.375-2.423-.781-5.466.368-6.522 1.628-2.01 2.405-2.032 4.89-.821 7.184 1.211 2.294 5.63 4.885 7.17 6.442 1.016 1.025 3.66 3.63 3.958 4.526-1.038 1.442-2.25 5.094-2.676 8.147-.638 4.574.071 10.387 1.58 14.296 1.469 3.807 4.672 8.803 6.633 10.41 1.957 1.605 4.66 3.77 6.43 4.507 0 0-.835 1.18-1.043 3.687-.142 1.7-.169 4.366-.457 6.07 0 0 2.378.71 6.056.555 5.968-.249 10.805-1.846 14.128-4.38Z"/><path stroke="#0E141B" stroke-linecap="round" stroke-linejoin="round" stroke-width="1.553" d="M52.384 85.5c2.33-1.774 4.92-6.19 4.907-7.605 1.358 1.327 4.269 2.068 6.98 2.463 3.54.515 7.357-.821 9.761-1.61 1.434-.471 2.947-1.567 4.282-2.76 2.25-2.01 4.335-4.832 4.335-4.832-2.986-2.259-4.029-5.25-7.711-6.71.967-2.342 1.473-4.117 1.668-6.713.209-2.777.213-7.374-.257-9.721-.772-3.865-1.74-6.682-4.047-10.197-1.597-2.435-4.21-5.435-6.904-7.574-1.517-1.206-3.479-1.81-4.623-2.626-.156-.972-.329-3.035-.701-4.801-.76-3.608-2.037-6.225-2.907-7.854-1.384-2.595-1.983-3.856-3.833-5.622-1.713-1.632-5.063-2.32-7.85-.425-1.45.985-2.822 3.119-1.455 6.429.914 2.214 1.73 3.092 2.33 5.169.488 1.695 1.282 2.139 1.273 6.14-3.452.036-12.792 3.027-16.59 6.026-1.442-2.489-3.985-4.046-5.507-5.874-1.33-1.607-4.973-3.532-7.587-4.375-2.423-.781-5.466.368-6.522 1.628-2.01 2.405-2.032 4.89-.821 7.184 1.211 2.294 5.63 4.885 7.17 6.442 1.016 1.025 3.66 3.63 3.958 4.526-1.038 1.442-2.25 5.094-2.676 8.147-.638 4.574.071 10.387 1.58 14.296 1.469 3.807 4.672 8.803 6.633 10.41 1.957 1.605 4.66 3.77 6.43 4.507 0 0-.835 1.18-1.043 3.687-.142 1.7-.169 4.366-.457 6.07 0 0 2.378.71 6.056.555 5.968-.249 10.805-1.846 14.128-4.38Z"/><path stroke="#0E141B" stroke-linecap="round" stroke-linejoin="round" stroke-width="1.553" d="M33.704 79.568s3.377 1.686 8.125 1.686M72.64 68.333s1.393-1.943 2.294-3.886"/><path fill="#FFD900" stroke="#0E141B" stroke-linecap="round" stroke-linejoin="round" stroke-width="1.553" d="M52.926 75.832c15.2-5.076 21.355-15.876 17.992-28.73-4.517-17.247-20.832-18.28-33.016-12.925C26.459 39.21 20.664 50.585 24.91 63.235c4.939 14.714 22.199 14.54 28.016 12.597Z"/><path fill="#FFD900" stroke="#0E141B" stroke-linecap="round" stroke-linejoin="round" stroke-width="1.553" d="M38.257 89.884s3.94 2.09 6.913 2.36c2.973.271 6.93-.323 9.877-4.064 2.072-2.627 3.536-8.395 2.458-11.505-1.22-3.532-7.055-4.122-7.85.559-.443 2.627-.896 6.478-2.963 9.096-2.068 2.618-6.172 3.332-8.44 3.554h.005Z"/><path fill="#FFD900" stroke="#0E141B" stroke-linecap="round" stroke-linejoin="round" stroke-width="1.553" d="M78.093 76.183s-.901 4.29-4.211 6.93c-2.693 2.148-7.086 2.707-11.195.75-3.691-1.753-6.11-5.142-6.802-8.213-.785-3.483 3.692-6.385 6.5-3.652 2.982 2.902 6.279 9.447 15.708 4.18v.005Z"/><path stroke="#0E141B" stroke-linecap="round" stroke-linejoin="round" stroke-width="1.553" d="M32.821 45.252a2471.45 2471.45 0 0 1 1.225 3.235M27.825 48.824c1.23 1.207 2.867 2.25 2.867 2.25M39.06 44.453c0 1.762-.169 3.514-.169 3.514"/><path fill="#0E141B" fill-rule="evenodd" stroke="#0E141B" stroke-miterlimit="10" stroke-width="1.553" d="M55.504 41.196c3.922-1.49 7.37-.026 8.794 3.714 1.508 3.963-.28 7.166-3.745 8.484-3.838 1.46-7.272.497-9.025-3.292-1.66-3.59-.022-7.384 3.976-8.906ZM33.855 47.936c3.922-1.49 7.37-.026 8.794 3.714 1.509 3.962-.28 7.166-3.745 8.484-3.838 1.46-7.272.497-9.025-3.292-1.659-3.59-.022-7.384 3.976-8.906Z" clip-rule="evenodd"/><path fill="#fff" stroke="#fff" stroke-linecap="round" stroke-linejoin="round" stroke-width="1.553" d="M31.827 53.278c.475.528 1.571.68 2.228.089.656-.59.763-1.65.15-2.223-.514-.488-1.362-.448-2.023.142-.657.59-.834 1.469-.36 1.992h.005ZM35.798 57.858c.227.647 1.021 1.007 1.762.75.741-.258 1.242-.937.918-1.682-.275-.63-1.02-1.287-1.761-1.025-.741.257-1.145 1.309-.919 1.961v-.004ZM39.757 53.22c.616-.23.936-1.002.674-1.703-.262-.701-.927-1.167-1.628-.839-.595.28-1.411 1.425-1.145 2.13.266.701 1.486.648 2.103.417l-.004-.004ZM53.547 46.446c.475.528 1.57.678 2.227.088.657-.59.764-1.65.151-2.223-.514-.488-1.362-.448-2.023.142-.657.59-.834 1.469-.36 1.992h.005ZM57.522 51.024c.227.648 1.02 1.008 1.762.75.74-.257 1.242-.936.918-1.681-.275-.63-1.02-1.283-1.761-1.025-.741.257-1.145 1.309-.919 1.96v-.004ZM61.427 46.312c.573-.217.874-.936.626-1.588-.249-.657-.865-1.087-1.522-.781-.555.257-1.313 1.331-1.07 1.983.25.657 1.39.604 1.962.386h.004Z"/><path stroke="#0E141B" stroke-linecap="round" stroke-linejoin="round" stroke-width="1.553" d="M54.696 38.17c.533 1.447 1.198 3.244 1.198 3.244M60.81 37.585c-.137 1.717-.687 3.58-.687 3.58M49.318 41.91c1.154 1.327 2.578 2.286 2.578 2.286"/><path fill="#8B0C12" d="M53.432 60.156c.86 2.298 1.348 4.672-1.039 5.568-2.75 1.03-3.887-1.251-4.774-3.625l2.334-2.453 3.479.51Z"/><path stroke="#0E141B" stroke-linecap="round" stroke-linejoin="round" stroke-width="1.553" d="M47.619 62.1c.887 2.373 1.695 4.543 4.504 3.695 2.427-.732 2.232-3.137 1.37-5.435"/><path fill="#0E141B" stroke="#0E141B" stroke-miterlimit="10" stroke-width=".186" d="M51.333 55.164c-.36-.954-1.535-1.393-3.088-.812-1.629.608-2.166 1.62-1.784 2.636.408 1.096 1.837 1.278 3.075.816 1.238-.461 2.196-1.57 1.797-2.64Z"/><path stroke="#0E141B" stroke-linecap="round" stroke-linejoin="round" stroke-width="1.553" d="M48.71 55.572c-.008-.03.99 2.8 1.083 3.55.142 1.158-.461 2.467-2.174 2.982-1.016.306-2.427.124-3-.967"/><path stroke="#0E141B" stroke-linecap="round" stroke-linejoin="round" stroke-width="1.553" d="M49.744 58.86c.4 1.314 2.077 1.957 3.51 1.518 1.154-.35 2.028-1.238 1.895-2.463"/><path fill="#EF8585" d="M32.76 66.026c.363.972 2.333 1.376 4.303.639 1.97-.737 3.27-2.12 2.91-3.093-.363-.971-2.253-1.162-4.223-.426-2.454.919-3.35 1.908-2.986 2.88h-.005ZM59.661 57.818c.364.971 2.334 1.375 4.304.639 1.97-.737 3.27-2.121 2.911-3.093-.36-.972-2.254-1.163-4.224-.426-2.454.918-3.35 1.908-2.986 2.88h-.005Z"/><path fill="#009A3E" d="M32.05 31.856s-.92 1.278-.981 2.52c-.085 1.682-.715 2.814-1.961 2.756-1.46-.062-1.917-1.69-1.93-2.964-.023-2.12 1.796-5.44 1.796-5.44"/><path stroke="#0E141B" stroke-linecap="round" stroke-linejoin="round" stroke-width="1.553" d="M32.05 31.856s-.92 1.278-.981 2.52c-.085 1.682-.715 2.814-1.961 2.756-1.46-.062-1.917-1.69-1.93-2.964-.023-2.12 1.796-5.44 1.796-5.44"/><path fill="#009A3E" d="M31.805 30.947s-4.934 2.84-6.576 1.278c-1.064-1.012-.443-2.06-.443-2.06s-.932-.226-1.296-1.734c-.466-1.93 1.97-3.217 3.519-3.922 0 0-.715-2.543.554-4.81 1.27-2.268 4.628-5.019 8.692-3.98 4.872 1.242 5.542 6.722 5.542 6.722"/><path stroke="#0E141B" stroke-linecap="round" stroke-linejoin="round" stroke-width="1.553" d="M31.805 30.947s-4.934 2.84-6.576 1.278c-1.064-1.012-.443-2.06-.443-2.06s-.932-.226-1.296-1.734c-.466-1.93 1.97-3.217 3.519-3.922 0 0-.715-2.543.554-4.81 1.27-2.268 4.628-5.019 8.692-3.98 4.872 1.242 5.542 6.722 5.542 6.722"/><path fill="#FFD900" stroke="#0E141B" stroke-linecap="round" stroke-linejoin="round" stroke-width="1.331" d="M30.017 22.72s-.08-2.88 2.791-3.869c3.022-1.042 4.593.932 4.593.932.026-.07-.236 2.374-3.102 3.394-2.551.91-4.282-.461-4.282-.461v.004Z"/><path stroke="#0E141B" stroke-linecap="round" stroke-linejoin="round" stroke-width="1.331" d="m32.808 18.851 1.704 4.242"/><path fill="#fff" d="M28.469 28.395s-.453-2.351.222-2.67c.75-.356 2.29 1.592 2.29 1.592"/><path stroke="#0E141B" stroke-linecap="round" stroke-linejoin="round" stroke-width="1.331" d="M28.469 28.395s-.453-2.351.222-2.67c.75-.356 2.29 1.592 2.29 1.592M32.018 27.109 25 30.064"/><path fill="#009A3E" d="M40.342 27.304c-.386 1.096-1.224 2.964-1.642 5.125-.474 2.445-2.844 2.072-3.35.825-.261-.648-.705-2.711.852-5.289"/><path stroke="#0E141B" stroke-linecap="round" stroke-linejoin="round" stroke-width="1.553" d="M40.342 27.304c-.386 1.096-1.224 2.964-1.642 5.125-.474 2.445-2.844 2.072-3.35.825-.261-.648-.705-2.711.852-5.289M83.16 38.667s4.725 6.163 2.742 16.985M90.694 40.056s3.43 4.774 1.894 13.156"/></g><defs><clipPath id="a"><path fill="#fff" d="M9.017 7H93.76v88H9.017z"/></clipPath></defs></svg>