<svg xmlns="http://www.w3.org/2000/svg" width="102" height="102" fill="none"><g clip-path="url(#a)"><path fill="#A99969" d="M79.093 89.45c-.549-4.03-11.815-4.544-27.702-4.544-15.886 0-27.859.37-28.704 4.531-1.008 4.943 6.54 6.056 28.717 6.056 23.949 0 28.233-2.04 27.689-6.043Z"/><path fill="#FFD900" d="M36.028 71.634c-.566.9-1.866 1.521-3.303 1.466a3.483 3.483 0 0 1-3.29-2.745 2.83 2.83 0 0 1-1.61.505c-1.462 0-2.673-1.126-2.898-2.597a2.81 2.81 0 0 1-1.365.353c-1.623 0-2.94-1.381-2.94-3.09 0-.501.118-.973.318-1.39-.196.043-.4.069-.608.069-1.623 0-2.94-1.386-2.94-3.09 0-.608.17-1.173.454-1.649-1.377-.255-2.427-1.517-2.427-3.043 0-1.037.485-1.95 1.229-2.512-1.403-.297-2.457-1.602-2.457-3.162 0-1.215.637-2.274 1.585-2.822-1.109-.599-1.874-1.844-1.874-3.29 0-1.444.799-2.745 1.95-3.327-.824-.578-1.572-1.764-1.572-2.886 0-1.704 1.046-3.12 2.64-3.238-.672-.553-1.569-1.594-1.19-3.056.45-1.755 1.538-2.117 3.038-2.325-1.041-.905-1.373-2.707-.863-3.812.804-1.73 2.355-1.989 3.732-2.023-.523-.637-1.126-2.095-.106-3.383 1.402-1.764 3.6-.79 3.931-.663-.416-1.521-.378-3.03.93-3.97 1.42-1.02 3.435-.467 3.957-.182-.144-1.488.175-2.274 1.505-2.958 1.1-.57 2.882-.37 3.596.514-.128-1.628 1.113-2.707 2.647-2.89 1.13-.136 2.38.544 2.907 1.517.217-1.81 1.263-2.784 2.89-3.013 2.401-.34 3.613 1.147 4.034 2.359.242-1.666 1.351-2.924 3.438-2.924s3.196 1.258 3.438 2.924c.42-1.212 1.632-2.699 4.029-2.359 1.628.234 2.669 1.203 2.89 3.013.527-.969 1.776-1.653 2.907-1.517 1.534.183 2.775 1.262 2.648 2.89.718-.884 2.499-1.084 3.595-.514 1.33.684 1.65 1.47 1.505 2.958.518-.285 2.537-.838 3.957.182 1.304.94 1.343 2.448.93 3.97.328-.127 2.529-1.1 3.931.663 1.02 1.288.421 2.741-.106 3.383 1.377.03 2.928.289 3.732 2.023.514 1.105.182 2.907-.863 3.812 1.504.209 2.588.57 3.039 2.325.378 1.462-.523 2.503-1.19 3.056 1.593.119 2.639 1.534 2.639 3.238 0 1.122-.748 2.308-1.573 2.886 1.152.582 1.951 1.853 1.951 3.328 0 1.474-.765 2.69-1.874 3.29.944.552 1.581 1.61 1.581 2.821 0 1.56-1.054 2.865-2.456 3.162a3.133 3.133 0 0 1 1.228 2.512c0 1.521-1.05 2.784-2.427 3.043.289.476.455 1.041.455 1.649 0 1.704-1.318 3.09-2.941 3.09-.209 0-.413-.026-.608-.068.2.416.319.888.319 1.39 0 1.708-1.318 3.09-2.941 3.09a2.81 2.81 0 0 1-1.365-.354c-.225 1.471-1.436 2.597-2.898 2.597a2.83 2.83 0 0 1-1.61-.505 3.483 3.483 0 0 1-3.29 2.745c-1.437.055-2.737-.565-3.303-1.466"/><path stroke="#0E141B" stroke-linecap="round" stroke-linejoin="round" stroke-width="1.449" d="M36.028 71.634c-.566.9-1.866 1.521-3.303 1.466a3.483 3.483 0 0 1-3.29-2.745 2.83 2.83 0 0 1-1.61.505c-1.462 0-2.673-1.126-2.898-2.597a2.81 2.81 0 0 1-1.365.353c-1.623 0-2.94-1.381-2.94-3.09 0-.501.118-.973.318-1.39-.196.043-.4.069-.608.069-1.623 0-2.94-1.386-2.94-3.09 0-.608.17-1.173.454-1.649-1.377-.255-2.427-1.517-2.427-3.043 0-1.037.485-1.95 1.229-2.512-1.403-.297-2.457-1.602-2.457-3.162 0-1.215.637-2.274 1.585-2.822-1.109-.599-1.874-1.844-1.874-3.29 0-1.444.799-2.745 1.95-3.327-.824-.578-1.572-1.764-1.572-2.886 0-1.704 1.046-3.12 2.64-3.238-.672-.553-1.569-1.594-1.19-3.056.45-1.755 1.538-2.117 3.038-2.325-1.041-.905-1.373-2.707-.863-3.812.804-1.73 2.355-1.989 3.732-2.023-.523-.637-1.126-2.095-.106-3.383 1.402-1.764 3.6-.79 3.931-.663-.416-1.521-.378-3.03.93-3.97 1.42-1.02 3.435-.467 3.957-.182-.144-1.488.175-2.274 1.505-2.958 1.1-.57 2.882-.37 3.596.514-.128-1.628 1.113-2.707 2.647-2.89 1.13-.136 2.38.544 2.907 1.517.217-1.81 1.263-2.784 2.89-3.013 2.401-.34 3.613 1.147 4.034 2.359.242-1.666 1.351-2.924 3.438-2.924s3.196 1.258 3.438 2.924c.42-1.212 1.632-2.699 4.029-2.359 1.628.234 2.669 1.203 2.89 3.013.527-.969 1.776-1.653 2.907-1.517 1.534.183 2.775 1.262 2.648 2.89.718-.884 2.499-1.084 3.595-.514 1.33.684 1.65 1.47 1.505 2.958.518-.285 2.537-.838 3.957.182 1.304.94 1.343 2.448.93 3.97.328-.127 2.529-1.1 3.931.663 1.02 1.288.421 2.741-.106 3.383 1.377.03 2.928.289 3.732 2.023.514 1.105.182 2.907-.863 3.812 1.504.209 2.588.57 3.039 2.325.378 1.462-.523 2.503-1.19 3.056 1.593.119 2.639 1.534 2.639 3.238 0 1.122-.748 2.308-1.573 2.886 1.152.582 1.951 1.853 1.951 3.328 0 1.474-.765 2.69-1.874 3.29.944.552 1.581 1.61 1.581 2.821 0 1.56-1.054 2.865-2.456 3.162a3.133 3.133 0 0 1 1.228 2.512c0 1.521-1.05 2.784-2.427 3.043.289.476.455 1.041.455 1.649 0 1.704-1.318 3.09-2.941 3.09-.209 0-.413-.026-.608-.068.2.416.319.888.319 1.39 0 1.708-1.318 3.09-2.941 3.09a2.81 2.81 0 0 1-1.365-.354c-.225 1.471-1.436 2.597-2.898 2.597a2.83 2.83 0 0 1-1.61-.505 3.483 3.483 0 0 1-3.29 2.745c-1.437.055-2.737-.565-3.303-1.466"/><path fill="#6D530C" d="M19.695 39.997s-.17-1.088-.578-1.768c-1.475-2.461-1.271-7.034-.816-9.125.408-1.879 2.435-1.747 3.123-.667.396-1.51 2.597-1.645 3.048.008.34-1.364 1.959-1.317 2.66-.514.659.756.659 3.523.659 3.523.825-.578 2.074-.093 2.325.884.204.803-.566 3.404-1.348 4.51-1.083 1.538-2.167 1.432-2.43 3.144"/><path stroke="#0E141B" stroke-linecap="round" stroke-linejoin="round" stroke-width="1.449" d="M19.695 39.997s-.17-1.088-.578-1.768c-1.475-2.461-1.271-7.034-.816-9.125.408-1.879 2.435-1.747 3.123-.667.396-1.51 2.597-1.645 3.048.008.34-1.364 1.959-1.317 2.66-.514.659.756.659 3.523.659 3.523.825-.578 2.074-.093 2.325.884.204.803-.566 3.404-1.348 4.51-1.083 1.538-2.167 1.432-2.43 3.144"/><path stroke="#0E141B" stroke-linecap="round" stroke-linejoin="round" stroke-width="1.449" d="M24.472 28.445c-.23.935-.136 3.01-.136 3.01M21.425 28.436c-.31 1.178-.12 3.018-.12 3.018M23.873 35.432s.663-1.067 1.887-1.364c1.42-.344 1.04-1.925 2.027-2.614"/><path fill="#0E141B" stroke="#0E141B" stroke-linecap="round" stroke-linejoin="round" stroke-width="1.449" d="M32.304 88.103c-1.436-4.697-2.188-10.115-4.513-14.829-10.247-20.812-9.176-34.293-9.176-34.293s4.208.361 8.96 0c0 0 .293 16.49 5.728 23.078 0 0 28.654 3.544 32.572 3.115 5.406-.591 9.682 1.5 4.786 22.622 0 0-5.22 2.729-19.474 2.512-14.254-.217-18.883-2.206-18.883-2.206Z"/><path fill="#A99969" d="M72.782 89.394c2.142-4.352-2.125-5.002-3.868-4.292-1.742.706-1.028 3.477-2.384 3.587-1.356.11-1.687-1.033-4.084-1.088-2.393-.055-1.904 2.236-5.93 2.231-.951 0-1.16-1.959-3.263-1.887-2.104.073-2.027 1.709-3.99 1.713-2.351 0-2.08-2.63-4.6-3.017-1.555-.239-2.826-.128-3.846.36-.735.353-1.925 1.888-1.925 1.888.37-1.594-1.075-2.75-2.452-2.742-1.377.013-2.367 1.42-2.367 1.42s-1.569-4.411-4.688-2.745c-3.12 1.67-1.594 4.063-1.594 4.063s7.072 2.465 22.602 2.902c15.036.421 22.389-2.393 22.389-2.393Z"/><path stroke="#0E141B" stroke-linecap="round" stroke-linejoin="round" stroke-width="1.449" d="M27.791 88.884s-1.521-2.392 1.594-4.063c3.12-1.67 4.688 2.746 4.688 2.746s.99-1.411 2.367-1.42c1.377-.012 2.822 1.144 2.452 2.742 0 0 1.19-1.535 1.926-1.887 1.02-.49 2.29-.6 3.846-.362 2.52.387 2.248 3.022 4.598 3.018 1.96 0 1.887-1.64 3.991-1.713 2.104-.072 2.312 1.887 3.264 1.887 4.025 0 3.536-2.286 5.929-2.231 2.393.055 2.724 1.198 4.084 1.088 1.36-.11.646-2.877 2.384-3.587 1.743-.706 6.01-.06 3.868 4.292"/><path fill="#fff" d="M39.648 66.678s3.375 7.08 11.526 13.141c0 0 5.776-3.999 10.655-12.422"/><path stroke="#0E141B" stroke-linecap="round" stroke-linejoin="round" stroke-width="1.449" d="M39.648 66.678s3.375 7.08 11.526 13.141c0 0 5.776-3.999 10.655-12.422"/><path stroke="#0E141B" stroke-linecap="round" stroke-linejoin="round" stroke-width="1.449" d="m45.199 74.426 5.98-7.748 5.542 7.884"/><path fill="#0E141B" stroke="#0E141B" stroke-linecap="round" stroke-linejoin="round" stroke-width="1.449" d="m48.68 69.912 1.934 2.147-1.934 6.234 2.282 2.686 2.728-1.598-2.116-7.229 2.117-3.06-2.729-3.855-2.282 4.675Z"/><path fill="#6D530C" stroke="#0E141B" stroke-linecap="round" stroke-linejoin="round" stroke-width="1.449" d="M74.966 47.761c0-13.12-8.836-22.04-23.345-22.04-14.51 0-23.346 8.92-23.346 22.04s9.448 21.335 23.346 21.335c13.897 0 23.345-7.964 23.345-21.335Z"/><path stroke="#0E141B" stroke-linecap="round" stroke-linejoin="round" stroke-width="2.074" d="M32.109 34.863c.94-1.348 16.69 0 16.69 0s2.775-.544 5.848.119c3.31.71 16.277.2 16.277.2"/><path fill="#0E141B" stroke="#0E141B" stroke-miterlimit="10" stroke-width="1.449" d="M34.753 30.545c-.931.06-2.176.488-2.495 2.894-.37 2.733-1.211 8.967 1.866 9.214 3.085.246 10.926.178 11.891-.013.965-.195 2.104-1.041 2.333-2.95.175-1.444.48-4.254.502-6.336.021-1.82-.417-2.529-1.492-2.614-1.98-.157-11.105-.285-12.605-.191v-.004ZM68.383 30.545c.93.06 2.176.488 2.503 2.894.374 2.733 1.228 8.967-1.849 9.214-3.085.246-10.926.178-11.891-.013-.965-.195-2.104-1.041-2.342-2.95-.174-1.444-.489-4.254-.514-6.336-.026-1.82.412-2.529 1.487-2.614 1.98-.157 11.106-.285 12.606-.191v-.004Z"/><path fill="#595857" d="M38.57 32.886c.156.362.224 1.054-.426 1.688-.697.675-1.534 1.755-2.422 3.068-.502.731-1.611.876-1.913-.336-.234-.952-.098-2.681.11-3.663.222-1.046.94-1.39 2.058-1.466.913-.06 2.235-.128 2.592.71ZM46.164 39.784c.025-.926-.489-1.343-1.445-1.343-.748 0-1.505.616-1.547 1.56-.034.765.306 1.598 1.44 1.368.748-.153 1.53-.756 1.552-1.585ZM60.605 32.886c.2.362.362 1.054-.212 1.688-.612.675-1.31 1.755-2.036 3.068-.408.731-1.5.876-1.955-.336-.353-.952-.438-2.681-.353-3.663.09-1.046.765-1.39 1.874-1.466.91-.06 2.219-.128 2.678.71h.004ZM69.5 39.784c-.093-.926-.662-1.343-1.615-1.343-.748 0-1.428.616-1.347 1.56.064.765.51 1.598 1.615 1.368.731-.153 1.432-.756 1.352-1.585H69.5Z"/><path fill="#920E23" d="M54.965 46.015s2.27 7.314-3.29 7.314c-5.558 0-3.289-7.314-3.289-7.314"/><path stroke="#0E141B" stroke-linecap="round" stroke-linejoin="round" stroke-width="1.449" d="M54.965 46.015s2.27 7.314-3.29 7.314c-5.558 0-3.289-7.314-3.289-7.314"/><path fill="#fff" d="M51.79 45.666c-.429 1.177-1.44 2.032-3.378 1.938-1.798-.09-2.941-1.538-2.83-3.234.135-2.078 2.04-3.948 5.197-2.984"/><path stroke="#0E141B" stroke-linecap="round" stroke-linejoin="round" stroke-width="1.449" d="M51.79 45.666c-.429 1.177-1.44 2.032-3.378 1.938-1.798-.09-2.941-1.538-2.83-3.234.135-2.078 2.04-3.948 5.197-2.984"/><path fill="#fff" d="M51.79 41.862s-.51 2.057-.08 3.553c.374 1.305 1.385 2.291 3.463 2.189 1.794-.09 2.941-1.538 2.831-3.234-.136-2.078-2.04-3.948-5.198-2.984"/><path stroke="#0E141B" stroke-linecap="round" stroke-linejoin="round" stroke-width="1.449" d="M51.79 41.862s-.51 2.057-.08 3.553c.374 1.305 1.385 2.291 3.463 2.189 1.794-.09 2.941-1.538 2.831-3.234-.136-2.078-2.04-3.948-5.198-2.984"/><path fill="#0E141B" d="M53.69 41.637c0-1.28-.905-1.734-2.023-1.734-1.117 0-2.018.455-2.018 1.734 0 1.143.905 1.862 2.018 1.862 1.114 0 2.023-.719 2.023-1.862Z"/></g><defs><clipPath id="a"><path fill="#fff" d="M13.175 7.65h76.373v87.843H13.175z"/></clipPath></defs></svg>