<svg xmlns="http://www.w3.org/2000/svg" width="102" height="102" fill="none"><g clip-path="url(#a)"><path fill="#B58B33" d="M34.952 23.902s-4.904-9.427 4.344-15.415c3.46-2.24 6.188-1.53 7.127.714.914 2.185-1.058 4.467-3.443 5.78-3.038 1.675-1.763 4.854-1.763 4.854"/><path stroke="#0E141B" stroke-linecap="round" stroke-linejoin="round" stroke-width="1.488" d="M34.952 23.902s-4.904-9.427 4.344-15.415c3.46-2.24 6.188-1.53 7.127.714.914 2.185-1.058 4.467-3.443 5.78-3.038 1.675-1.763 4.854-1.763 4.854"/><path fill="#B58B33" d="M61.187 20.345s4.123-9.81 14.93-5.113c3.779 1.64 4.26 5.053 2.98 6.54-1.543 1.794-4.165 1.348-6.54.022-3.031-1.696-5.169 2.312-5.169 2.312"/><path stroke="#0E141B" stroke-linecap="round" stroke-linejoin="round" stroke-width="1.488" d="M61.187 20.345s4.123-9.81 14.93-5.113c3.779 1.64 4.26 5.053 2.98 6.54-1.543 1.794-4.165 1.348-6.54.022-3.031-1.696-5.169 2.312-5.169 2.312"/><path fill="#B58B33" stroke="#0E141B" stroke-linecap="round" stroke-linejoin="round" stroke-width="1.488" d="M61.825 79.51c4.768-4.523 2.66-19.576 2.66-19.576l.192-2.338S76.3 46.623 72.1 29.593c-1.959-7.94-8.155-13.052-19.46-13.596-10.154-.489-17.404 4.242-20.995 10.872-5.22 9.634-2.398 21.322 2.6 29.15 0 0 .706 1.365.761 2.988.2 6.001.276 18.254 7.31 25.394 4.178 4.241 7.973 5.67 7.973 5.67-.055.7-.063 1.75.583 2.38.616.603 1.848.344 1.912-.111.128.183.42.395.714.425.96.093 1.436-.774 1.436-.774.625.6 1.722.12 2.01-.714.54-1.538-.335-3.293-1.223-4.305-.999-1.135-4.063-3.102-5.024-4.424-.833-1.143-1.266-1.87-1.143-2.21.676.323 7.527 3.66 12.27-.837v.008Z"/><path fill="#B58B33" d="M52.517 91.532s-.034.387.268.812l-.268-.812Z"/><path stroke="#0E141B" stroke-linecap="round" stroke-linejoin="round" stroke-width="1.488" d="M52.517 91.532s-.034.387.268.812"/><path fill="#B58B33" d="M54.523 90.959s-.102.543.408 1.032l-.408-1.032Z"/><path stroke="#0E141B" stroke-linecap="round" stroke-linejoin="round" stroke-width="1.488" d="M54.523 90.959s-.102.543.408 1.032"/><path fill="#B58B33" d="M33.014 58.795c-5.096 2.592-4.84 12.503 2.652 12.503 5.657 0 8.211-4.913 8.194-10.374M64.324 65.756c2.01-.6 3.09.8 3.761 1.96.434.752 1.05 2.566 1.535 3.45.34.62.582 1.53 1.657 1.938.812.306 1.657-.382 1.555-.837.188.127.693.298 1.042.191.943-.289.854-1.283.854-1.283.803.34 1.81-.238 1.64-1.381-.08-.544-.416-1.033-1.155-1.577-.634-.468-1.454-1.322-2.1-3.222-1.228-3.612-4.004-5.406-7.646-5.35l-7.025 3.493"/><path stroke="#0E141B" stroke-linecap="round" stroke-linejoin="round" stroke-width="1.488" d="M65.472 59.645c3.642-.056 6.421 1.738 7.645 5.35.646 1.9 1.462 2.75 2.1 3.222.74.544 1.075 1.033 1.156 1.577.165 1.143-.842 1.725-1.64 1.38 0 0 .084.995-.855 1.284-.349.107-.859-.068-1.041-.191.102.45-.748 1.143-1.556.837-1.075-.408-1.322-1.317-1.657-1.938-.485-.884-1.296-2.613-1.534-3.45-.345-1.212-1.577-2.585-3.762-1.96"/><path stroke="#0E141B" stroke-linecap="round" stroke-linejoin="round" stroke-width="1.488" d="M72.237 71.515s.162.455.596.752M73.98 70.346s.098.548.752.829"/><path fill="#B58B33" d="M52.96 77.592c-.273.676-.022 2.58.33 3.396.54 1.25.099 2.954-.858 4.3-.518.728-1.717.89-2.159.128 0 0-.71.714-1.615.353-.276-.11-.501-.4-.574-.612-.19.425-1.525.361-1.895-.43-.553-1.185.119-2.2.221-2.902.247-1.649-.905-4.335.57-7.14 1.632-3.102 7.178-4.756 10.404-.319"/><path stroke="#0E141B" stroke-linecap="round" stroke-linejoin="round" stroke-width="1.488" d="M52.96 77.592c-.273.676-.022 2.58.33 3.396.54 1.25.099 2.954-.858 4.3-.518.728-1.717.89-2.159.128 0 0-.71.714-1.615.353-.276-.11-.501-.4-.574-.612-.19.425-1.525.361-1.895-.43-.553-1.185.119-2.2.221-2.902.247-1.649-.905-4.335.57-7.14 1.632-3.102 7.178-4.756 10.404-.319"/><path stroke="#0E141B" stroke-linecap="round" stroke-linejoin="round" stroke-width="1.488" d="M48.05 84.29s-.14.366.03.867M50.163 84.294s-.25.502.11 1.122"/><path fill="#C11A20" stroke="#0E141B" stroke-linecap="round" stroke-linejoin="round" stroke-width="1.488" d="M66.36 55.696c-10.132 1.564-24.502.91-32.84-.862-1.114-.239-1.058 3.463-.285 4.322 0 0 4.582 1.912 16.299 2.342 11.539.42 15.942-.765 16.592-1.437 0 0 1.25-2.167.234-4.365Z"/><path fill="#9FA0A0" d="m52.22 62.564-6.014 4.582a3.48 3.48 0 0 0 1.483 1.05l5.266-4.301a2.862 2.862 0 0 0-.74-1.327l.005-.004ZM49.258 61.557c-3.299-.085-3.843 1.912-3.843 3.349 0 .204.017.408.056.612l5.023-3.82a6.777 6.777 0 0 0-1.232-.145l-.005.004Z"/><path fill="#B5B6B6" d="m50.49 61.701-5.023 3.821c.102.574.344 1.14.739 1.624l6.014-4.582c-.387-.382-.94-.693-1.73-.863ZM53.1 64.906a4.935 4.935 0 0 0-.14-1.02l-5.267 4.301c.476.178 1.025.28 1.662.272 2.707-.03 3.804-2.184 3.749-3.557l-.005.004Z"/><path stroke="#0E141B" stroke-linecap="round" stroke-linejoin="round" stroke-width="1.488" d="M45.415 64.906c0 1.683 1.233 3.587 3.94 3.557 2.707-.03 3.804-2.184 3.749-3.557-.056-1.373-.544-3.281-3.842-3.349-2.754-.055-3.842 1.912-3.842 3.349h-.005Z"/><path fill="#B58B33" d="M31.225 60.159c-3.366 3.536-2.197 11.139 4.441 11.139 5.657 0 8.211-4.913 8.194-10.374-.004-1.522.021-2.792.115-3.49.127-.934.123-1.546-.038-2.073-.26-.846-1.51-1.186-2.079-.527 0 0-.556-.825-1.508-.642-.29.055-.561.297-.676.489-.106-.451-1.42-.638-1.925.068-.757 1.05.195 2.902.31 3.6.323 1.912.149 3.204-.072 4.045-.476 1.82-2.542 3.307-3.524 1.896"/><path stroke="#0E141B" stroke-linecap="round" stroke-linejoin="round" stroke-width="1.488" d="M39.487 55.518s-.068-.383.191-.838M41.544 55.904s-.153-.535.315-1.07"/><path stroke="#0E141B" stroke-linecap="round" stroke-linejoin="round" stroke-width="1.488" d="M33.014 58.794c-5.096 2.593-4.84 12.504 2.652 12.504 5.657 0 8.211-4.913 8.194-10.374-.004-1.522.022-2.792.115-3.49.127-.934.123-1.546-.038-2.073-.26-.846-1.509-1.186-2.078-.527 0 0-.557-.825-1.51-.642-.288.055-.56.297-.675.489-.106-.451-1.42-.638-1.925.068-.757 1.05.195 2.902.31 3.6.323 1.912.149 3.204-.072 4.045-.476 1.82-1.794 3.32-3.099 2.32"/><path fill="#0E141B" stroke="#0E141B" stroke-linecap="round" stroke-linejoin="round" stroke-width="1.488" d="M53.38 97.64c0-.221-2.134-.404-4.144-.404-2.584 0-3.642.178-3.642.404 0 .225.544.403 3.642.403 2.01 0 4.144-.178 4.144-.403Z"/><path stroke="#0E141B" stroke-linecap="round" stroke-linejoin="round" stroke-width="1.488" d="M37.188 27.374s4.024-.467 7.233-.314M37.409 28.556s3.37-.468 6.579-.315M37.188 29.597s4.024-.468 7.233-.315M37.081 30.693s3.808-.467 7.013-.314M37.188 31.79s4.024-.467 7.233-.314M37.515 32.572s3.153-.26 6.362-.106M62.203 27.548s-4.241-.467-7.45-.314M61.986 28.726s-3.587-.468-6.795-.315M62.203 29.771s-4.241-.467-7.45-.314M62.314 30.864s-4.025-.468-7.234-.315M62.203 31.96s-4.241-.468-7.45-.315M61.876 32.742s-3.37-.26-6.58-.106"/><path fill="#fff" stroke="#fff" stroke-linecap="round" stroke-linejoin="round" stroke-width="1.147" d="M39.602 27.74c-.068.892-.23 1.364-1.373 1.398.914.098 1.194.144 1.305 1.203.068-.697.23-1.186 1.253-1.224-.986-.047-1.185-.272-1.185-1.373v-.004Z"/><path fill="#fff" stroke="#fff" stroke-linecap="round" stroke-linejoin="round" stroke-width=".765" d="M42.436 30.366c-.042.578-.148.884-.892.905.595.064.773.094.846.782.042-.454.148-.769.811-.794-.641-.03-.769-.175-.769-.893h.004Z"/><path fill="#fff" stroke="#fff" stroke-linecap="round" stroke-linejoin="round" stroke-width="1.147" d="M57.384 27.948c-.068.892-.23 1.364-1.373 1.394.914.098 1.194.145 1.305 1.203.068-.697.23-1.186 1.253-1.224-.986-.047-1.185-.272-1.185-1.373Z"/><path fill="#fff" stroke="#fff" stroke-linecap="round" stroke-linejoin="round" stroke-width=".765" d="M60.49 30.583c-.046.612-.157.935-.939.956.625.068.82.102.893.825.046-.48.157-.812.858-.837-.676-.035-.812-.188-.812-.944Z"/><path stroke="#BF5750" stroke-linecap="round" stroke-linejoin="round" stroke-width="1.488" d="M37.71 35.105s-.96.837-1.993 1.679M40.89 34.757s-1.012 1.139-2.066 2.176M43.635 34.76s-.595.757-1.513 1.85M57.218 34.926s-.918.884-2.304 2.142M60.167 35.08s-.862.867-1.72 1.738M62.96 35.11s-.604.696-1.599 1.737"/><path fill="#0E141B" stroke="#0E141B" stroke-linecap="round" stroke-linejoin="round" stroke-width="1.488" d="M51.871 35.228c.026-.841-.7-1.547-2.567-1.602-1.827-.055-2.63.604-2.656 1.445-.03.922.85 1.551 2.567 1.602 1.62.051 2.63-.603 2.656-1.445Z"/><path fill="#860D14" d="M41.493 38.539c-2.784-.799-4.68 1.254-4.314 5.142.438 4.642 5.959 7.901 12.555 8.186 3.82.166 12.053-2.558 13.03-8.24.523-3.044-.965-5.475-4.182-4.782-4.828 1.041-11.432 1.313-17.09-.306Z"/><path fill="#fff" d="M62.764 41.408c-.378-1.883-1.806-3.073-4.182-2.563-4.828 1.041-11.432 1.313-17.089-.306-2.066-.59-3.647.39-4.17 2.529 0 0-.386 1.317 2.296 1.955 2.21.522 3.306-1.56 3.306-1.56s.498 2.316 3.022 2.456c2.643.15 3.502-1.445 3.502-1.445s.404 1.892 3.102 1.896c3.043 0 3.847-2.117 3.847-2.117s.374 1.394 3.315 1.071c2.928-.323 3.047-1.89 3.051-1.916Z"/><path stroke="#0E141B" stroke-linecap="round" stroke-linejoin="round" stroke-width="1.488" d="M41.493 38.539c-2.784-.799-4.68 1.254-4.314 5.142.438 4.642 5.53 8.195 12.555 8.186 5.3-.004 12.053-2.558 13.03-8.24.523-3.044-.965-5.475-4.182-4.782-4.828 1.041-11.432 1.313-17.09-.306Z"/><path stroke="#0E141B" stroke-linecap="round" stroke-linejoin="round" stroke-width="1.488" d="M37.32 41.068s-.387 1.317 2.295 1.955c2.21.522 3.306-1.56 3.306-1.56s.497 2.316 3.022 2.456c2.643.15 3.502-1.445 3.502-1.445s.404 1.892 3.102 1.896c3.043 0 3.847-2.117 3.847-2.117s.374 1.394 3.315 1.071c2.94-.327 3.051-1.916 3.051-1.916"/><path stroke="#0E141B" stroke-linecap="round" stroke-linejoin="round" stroke-width="1.488" d="M43.1 38.947s-.285.744-.179 2.516M49.449 39.678s-.234 1.037 0 2.797M56.202 39.27s0 1.266.196 2.98"/><path fill="#C11A20" stroke="#C11A20" stroke-linecap="round" stroke-linejoin="round" stroke-width="1.488" d="M78.442 57.647c.183-2.966-.752-6.932 1.271-9.558 1.254-1.628 3.583-1.33 4.488-.45.905.88 1.22 2.15.51 3.523-.093.034 2.682-1 4.301 1.08 1.62 2.073-.068 4.598-2.44 5.282-2.214.637-5.218.595-8.13.123ZM22.67 58.412s-.158-5.665-1.692-7.777c-1.088-1.496-3.124-1.288-3.863-.557-.74.727-.96 1.819-.293 3.039.08.034-2.338-.965-3.643.777-1.3 1.739-.089 3.736 1.985 4.374 1.73.53 4.352.53 7.501.148l.005-.004Z"/></g><defs><clipPath id="a"><path fill="#fff" d="M11.9 6.375h78.493v92.408H11.9z"/></clipPath></defs></svg>