<svg xmlns="http://www.w3.org/2000/svg" width="102" height="102" fill="none"><g clip-path="url(#a)"><path fill="#B61A1A" d="M79.968 53.596c2.762-2.197 4.68-8.644 4.535-11.933-.064-1.454-.32-2.712 0-4.089.344-1.487.773-2.571.71-4.207-1.441-.332-3.46 1.92-4.676 2.698-1.36.867-2.902 1.33-4.296.132-.914-.786-.532-1.993-.493-3.196.046-1.407-.153-2.775-.31-4.131-.145-1.237-.124-1.845.076-2.97.166-.919.34-1.99.127-2.912-.102-.433-.23-.85-.493-1.139-.454.816-1.215 1.687-1.904 2.193-.756.557-1.521.416-2.29.824-1.19.634-2.01 2.321-3.21 2.835-.424-1.211-.224-2.745-.229-4.046 0-1.424-.888-3.145-.416-4.382.676-1.785-.608-4.309-.519-6.268.026-.595-.518-3.52-1.04-3.838-.235-.144-1.255 2.053-1.565 2.303-1.623 1.301-.612 3.885-2.286 5.152-.83.624-.838 2.265-1.662 2.936-.706.57-1.602 1.82-2.486 1.743-.4-1.568-1.029-2.78-.96-4.463.05-1.237-2.232-2.303-2.181-3.574.05-1.232-.497-6.498-2.189-6.779-1.139-.187-2.329 4.888-3.124 6.014-1.011 1.432-.926 2.954-2.312 3.867-1.228.812-.331 1.756-1.309 2.942-.977 1.185-1.122.565-1.9-.774-.934-1.607-4.058-7.794-4.58-7.446-.927.62-1.748 3.357-2.083 4.475-.591 1.964-1.33 4.981-1.98 6.906-.617 1.828-.375 2.376-1.586 3.677-.752.807-2.027 2.834-2.975 3.09-.247-.817-.574-2.364-.752-3.184-.15-.675-.158-1.462-.387-2.035-.62 1.079-.536 3.187-.944 4.245-.39 1.02-1.351 1.806-1.878 2.78-.616 1.134-1.284 2.018-1.794 3.196-.42.973-1.037 1.551-1.457 2.507-.612-1.993-3.422-2.677-3.83-4.67-.216 3.595-1.691 6.638-1.691 10.323 0 3.412 1.19 5.724 2.83 8.296.128-.192 3.124 3.697 3.247 3.608"/><path stroke="#000" stroke-linecap="round" stroke-linejoin="round" stroke-width="1.063" d="M80.108 53.384c3.188-2.69 4.535-8.432 4.395-11.721-.064-1.454-.32-2.712 0-4.089.344-1.487.773-2.571.71-4.207-1.441-.332-3.46 1.92-4.676 2.698-1.36.867-2.902 1.33-4.296.132-.914-.786-.532-1.993-.493-3.196.046-1.407-.153-2.775-.31-4.13-.145-1.238-.124-1.845.076-2.972.166-.918.34-1.989.127-2.91-.102-.434-.23-.85-.493-1.14-.454.816-1.215 1.687-1.904 2.193-.756.557-1.521.417-2.29.825-1.19.633-2.01 2.32-3.21 2.834-.424-1.21-.224-2.745-.229-4.046 0-1.423-.888-3.145-.416-4.381.676-1.785-.608-4.31-.519-6.27.026-.594-.518-3.518-1.04-3.837-.235-.144-1.255 2.053-1.565 2.304-1.623 1.3-.612 3.884-2.286 5.15-.83.625-.838 2.266-1.662 2.937-.706.57-1.602 1.82-2.486 1.743-.4-1.568-1.751-2.516-1.683-4.203.05-1.237-1.51-2.567-1.458-3.838.05-1.233-.497-6.498-2.189-6.779-1.139-.187-2.329 4.888-3.124 6.014-1.011 1.432-.926 2.954-2.312 3.867-1.228.812-.331 1.756-1.309 2.941-.977 1.186-1.122.566-1.9-.773-.934-1.607-4.058-7.795-4.58-7.446-.927.62-1.748 3.357-2.083 4.475-.591 1.964-1.33 4.981-1.98 6.906-.617 1.828-.375 2.376-1.586 3.677-.752.807-2.027 2.834-2.975 3.09-.247-.817-.574-2.364-.752-3.184-.15-.676-.158-1.462-.387-2.036-.62 1.08-.536 3.188-.944 4.246-.39 1.02-1.351 1.806-1.878 2.78-.616 1.134-1.284 2.018-1.794 3.196-.42.973-1.037 1.55-1.457 2.507-.612-1.993-3.422-2.677-3.83-4.67-.216 3.595-1.691 6.638-1.691 10.323 0 3.412.552 5.67 5.512 11.547"/><path fill="#FBB03B" d="M69.696 53.524c1.627-1.347 3.085-6.834 2.996-8.984-.042-.948-.208-1.768 0-2.67.225-.968.506-1.678.463-2.745-.939-.216-2.26 1.254-3.051 1.764-.888.565-1.896.867-2.805.085-.595-.514-.349-1.3-.323-2.087.03-.918-.098-1.81-.204-2.698-.094-.808-.081-1.203.05-1.938.107-.6.222-1.3.086-1.9-.064-.285-.149-.557-.323-.744-.298.531-.795 1.1-1.241 1.432-.493.362-.995.272-1.496.54-.778.417-1.313 1.513-2.096 1.853-.276-.79-.148-1.793-.148-2.64 0-.93-.034-1.385.272-2.192.442-1.165.149-2.814.204-4.093.017-.39-.336-2.295-.68-2.503-.153-.094-.816 1.339-1.02 1.504-1.059.85-.944 2.538-2.04 3.362-.544.408-1.093.812-1.628 1.25-.459.374-1.046 1.185-1.623 1.139-.264-1.025-.672-1.815-.63-2.916.034-.807-.37-1.504-.335-2.333.034-.803-.323-4.242-1.428-4.424-.744-.124-1.522 3.191-2.04 3.922-.659.935-.604 1.93-1.509 2.525-.803.527-1.305 1.143-1.942 1.92-.638.774-.731.366-1.241-.505-.608-1.045-3.192-4.42-3.536-4.19-.604.403-1.14 2.193-1.36 2.924-.387 1.279-.323 2.584-.748 3.842-.404 1.194-.242 1.55-1.037 2.397-.493.527-1.326 1.848-1.943 2.014-.161-.535-.373-.875-.493-1.407-.097-.442-.102-.956-.25-1.33-.408.706-.353 1.411-.617 2.104-.255.663-.883 1.177-1.223 1.815-.4.743-.838 1.317-1.17 2.086-.276.634-.68 1.012-.951 1.637-.4-1.3-2.232-1.747-2.5-3.048-.14 2.346-1.104 4.335-1.104 6.737 0 2.227.777 3.74 1.849 5.414.08-.123 3.68 6.38 3.527 2.66"/><path fill="#7392B2" d="m35.39 77.652-1.092.624 1.848.625s1.85-1.615-.756-1.25Z"/><path fill="#fff" d="M36.537 90.695s9.503 1.615 14.633-.756l-4.79-8.513-8.253.183-1.59 9.086Z"/><path fill="#7392B2" d="M51.374 74.426c-3.022 0-16.868.625-16.868.625s-1.042 3.174-2.19 4.53c-1.147 1.356 2.449 5.257 2.5 5.73.05.467-.59 4.445-.59 4.445s1.057.74 2.995 1.058c0-.064-.012-.123-.012-.191 0-3.307 2.324-7.672 6.404-7.654 3.991.017 6.286 4.173 6.4 7.45 1.046-.344 1.752-.68 2.47-1.394 0 0-.14-1.02-.149-2.147.31.374 1.224.4 3.311-.37 6.613-2.447-1.25-12.078-4.271-12.078v-.004Zm1.007 11.275c.08-.76.268-1.41.659-1.644.527-.31-.276.7-.659 1.644Z"/><path fill="#F2F2F2" d="M53.406 83.797s1.823-.675 4.216.727c0 0 .208 2.082-2.291 2.24-2.5.157-3.855.259-1.925-2.967Z"/><path stroke="#000" stroke-linecap="round" stroke-linejoin="round" stroke-width="1.275" d="M51.638 80.725s2.341 1.457.833 3.854c-1.539 2.444 2.188 4.063 4.164 1.666 1.98-2.397.574-9.528-4.007-11.037"/><path fill="#fff" d="M1.496 88.604s6.388 7.153 21.87 1.908c0 0-10.276-18.118-21.87-1.908Z"/><path fill="#7392B2" d="M31.331 72.445s-1.198 4.79 6.872 5.78c8.071.99 15.41-.259 16.61-5.881"/><path stroke="#000" stroke-linecap="round" stroke-linejoin="round" stroke-width="1.275" d="M31.331 72.445s-1.198 4.79 6.872 5.78c8.071.99 15.41-.259 16.61-5.881"/><path fill="#7392B2" d="M55.505 65.416s1.526 8.887-8.538 9.86c-10.069.973-16.384 1.666-15.483-9.996.9-11.662 12.287-7.846 12.287-7.846l11.734 7.986v-.004Z"/><path stroke="#000" stroke-linecap="round" stroke-linejoin="round" stroke-width="1.275" d="M40.494 64.625s1.436-.956 1.058-2.265M42.725 65.424l-.064-2.975M45.169 64.787s-1.326-1.114-1.033-2.13"/><path fill="#0D0D0D" stroke="#000" stroke-linecap="round" stroke-linejoin="round" stroke-width="1.488" d="M29.057 56.185s3.226-7.977 16.592-6.596c12.079 1.25 11.11 7.637 11.11 7.637 6.111-1.11.14 15.343.14 15.343s-2.64.068-3.748.14c-1.11.072.276-9.652-.901-9.44-1.182.209-20.133-.14-20.133-.14s1.318 9.928.485 9.928c-.833 0-2.15.068-2.15.068l-1.39-16.94h-.005Z"/><path fill="#F2F2F2" stroke="#000" stroke-linecap="round" stroke-linejoin="round" stroke-width=".85" d="M32.733 65.85h7.498s.059 2.507-3.83 2.23c-3.889-.276-3.668-1.806-3.668-2.23Z"/><path fill="#FFD200" d="M27.944 89.088s-.174 1.424-4.582 1.424c0 0 1.458-8.33 2.708-8.593 1.25-.26 1.874 7.17 1.874 7.17Z"/><path fill="#FFD200" d="M25.793 80.618s2.674 1.598 1.7 8.538l-1.7-8.538Z"/><path stroke="#000" stroke-linecap="round" stroke-linejoin="round" stroke-width="1.488" d="M25.793 80.618s2.674 1.598 1.7 8.538"/><path fill="#fff" d="M2.12 88.396s1.875-10.902.766-14.093c-1.11-3.192-2.15-12.844 2.223-17.29 4.373-4.44 9.885-6.97 16.592-5.482 6.736 1.492 12.218 5.903 11.177 15.9-1.041 9.995-9.788 13.952-9.511 22.563"/><path stroke="#000" stroke-linecap="round" stroke-linejoin="round" stroke-width="1.275" d="M2.12 88.396s1.875-10.902.766-14.093c-1.11-3.192-2.15-12.844 2.223-17.29 4.373-4.44 9.885-6.97 16.592-5.482 6.736 1.492 12.218 5.903 11.177 15.9-1.041 9.995-9.788 13.952-9.511 22.563"/><path fill="#F2F2F2" d="M10.519 53.754s-.765-10.136 2.358-12.15c2.304-1.484 4.136.029 4.514 1.733.14.625.425 2.189-.416 8.887"/><path stroke="#000" stroke-linecap="round" stroke-linejoin="round" stroke-width="1.275" d="M10.519 53.754s-.765-10.136 2.358-12.15c2.304-1.484 4.136.029 4.514 1.733.14.625.425 2.189-.416 8.887"/><path fill="#F2F2F2" d="M22.53 52.364s2.358-8.121 4.58-8.954c2.223-.833 4.025.973 3.75 2.498-.277 1.526-2.015 6.18-3.541 8.679"/><path stroke="#000" stroke-linecap="round" stroke-linejoin="round" stroke-width="1.275" d="M22.53 52.364s2.358-8.121 4.58-8.954c2.223-.833 4.025.973 3.75 2.498-.277 1.526-2.015 6.18-3.541 8.679"/><path fill="#FF8787" d="M24.06 52.989s2.566-7.012 3.68-7.429c1.109-.416 2.29.693-1.943 8.262"/><path stroke="#000" stroke-linecap="round" stroke-linejoin="round" stroke-width="1.275" d="M24.06 52.989s2.566-7.012 3.68-7.429c1.109-.416 2.29.693-1.943 8.262"/><path fill="#FF8787" d="M12.325 52.849s.14-7.57.973-8.747c.833-1.181 2.15-.973 2.223.553.068 1.53-.693 7.777-.693 7.777"/><path stroke="#000" stroke-linecap="round" stroke-linejoin="round" stroke-width="1.275" d="M12.325 52.849s.14-7.57.973-8.747c.833-1.181 2.15-.973 2.223.553.068 1.53-.693 7.777-.693 7.777"/><path fill="#FFD200" stroke="#000" stroke-linecap="round" stroke-linejoin="round" stroke-width="1.275" d="M5.172 63.193s2.083-10.552 16.732-8.538c14.65 2.015 8.853 22.631 1.39 24.09-8.13 1.589-20.897 1.108-18.118-15.552h-.004Z"/><path fill="#FFD200" stroke="#000" stroke-linecap="round" stroke-linejoin="round" stroke-width="1.275" d="M9.737 80.512s3.965 3.009 3.825-.956c-.14-3.957 4.335-2.737 5.1-1.488.82 1.339 1.04 7.77-4.888 8.5-6.732.833-11.126-4.938-7.905-7.96 1.11-1.041 3.868 1.904 3.868 1.904Z"/><path fill="#F2F2F2" stroke="#000" stroke-linecap="round" stroke-linejoin="round" stroke-width=".85" d="m21.488 64.515 7.012-.208s.069 2.847-3.264 2.847c-3.332 0-3.748-2.64-3.748-2.64ZM9.618 63.89l7.637.417s-.208 2.847-4.097 2.639c-3.889-.208-3.54-3.056-3.54-3.056Z"/><path stroke="#000" stroke-linecap="round" stroke-linejoin="round" stroke-width="1.275" d="M17.999 61.043s-.31 1.25-.884 1.564M19.456 60.992l-.05 2.184M21.072 60.94s-.557.957.624 1.718"/><path stroke="#000" stroke-linecap="round" stroke-linejoin="round" stroke-width="1.488" d="M15.657 71.872s3.748-.417 6.456.05"/><path fill="#000" d="M20.723 68.331c0 .612-.655 1.11-1.458 1.11-.803 0-1.458-.498-1.458-1.11 0-.612.655-1.109 1.458-1.109.803 0 1.458.497 1.458 1.11ZM25.236 65.348c0 .344-.25.625-.556.625-.306 0-.557-.28-.557-.625 0-.344.25-.625.557-.625.306 0 .556.28.556.625ZM14.2 65.046c0 .408-.294.744-.66.744-.365 0-.658-.332-.658-.744s.297-.744.659-.744c.36 0 .658.332.658.744Z"/><path fill="#F2F2F2" d="M36.63 80.219s1.947 1.36 4.374.157c1.997-.99.365-4.373-2.134-4.48-2.499-.106-2.915 2.967-2.24 4.323Z"/><path fill="#F2F2F2" stroke="#000" stroke-linecap="round" stroke-linejoin="round" stroke-width=".85" d="m45.16 65.973 7.638.068s-.323 2.163-4.28 2.09c-3.957-.067-3.353-2.162-3.353-2.162l-.004.004Z"/><path fill="#F2F2F2" stroke="#000" stroke-linecap="round" stroke-linejoin="round" stroke-width="1.275" d="M41.9 68.314s-1.665-.467-2.082.782c-.416 1.25 1.093 1.926 1.926 1.717.833-.208 1.508-1.823.157-2.499Z"/><path fill="#F2F2F2" stroke="#000" stroke-linecap="round" stroke-linejoin="round" stroke-width="1.275" d="M43.358 68.472s2.032-.468 2.24.884c.191 1.254-.871 1.993-2.341 1.407-1.301-.523-.676-2.342.102-2.291Z"/><path fill="#000" d="M42.678 69.203a1.147 1.147 0 1 0 0-2.295 1.147 1.147 0 0 0 0 2.295Z"/><path stroke="#000" stroke-linecap="round" stroke-linejoin="round" stroke-width="1.275" d="M36.618 81.362s-1.165-4.84 2.656-4.994c3.472-.14 2.992 4.475 2.125 6.8-.91 2.44-6 3.74-8.508-.57-1.666-2.864-.102-5.257 1.874-5.155M34.663 84.732l.051 4.582M51.638 80.984s.225 6.302.293 7.654"/><path fill="#7392B2" d="M32.789 54.221s-.315-5.622.676-5.937c.99-.314 3.59 2.342 4.79 3.49"/><path stroke="#000" stroke-linecap="round" stroke-linejoin="round" stroke-width="1.488" d="M32.789 54.221s-.315-5.622.676-5.937c.99-.314 3.59 2.342 4.79 3.49"/><path fill="#F18989" d="M34.297 52.921s-1.147-5.206 2.19-.731l-2.19.731Z"/><path stroke="#000" stroke-linecap="round" stroke-linejoin="round" stroke-width=".85" d="M34.297 52.921s-1.147-5.206 2.19-.731"/><path stroke="#000" stroke-linecap="round" stroke-linejoin="round" stroke-width="1.488" d="M39.346 51.616s-4.581.884-6.715 2.916"/><path fill="#7392B2" d="M47.89 51.88s4.007-3.906 5.312-3.383c1.3.522.416 5.83.416 5.83"/><path stroke="#000" stroke-linecap="round" stroke-linejoin="round" stroke-width="1.488" d="M47.89 51.88s4.007-3.906 5.312-3.383c1.3.522.416 5.83.416 5.83"/><path fill="#F18989" d="M50.256 51.684s3.145-3.468 1.887 1.199l-1.887-1.199Z"/><path stroke="#000" stroke-linecap="round" stroke-linejoin="round" stroke-width=".85" d="M50.256 51.684s3.145-3.468 1.887 1.199"/><path stroke="#000" stroke-linecap="round" stroke-linejoin="round" stroke-width="1.488" d="M54.447 54.846s-3.698-2.966-7.395-2.915"/><path fill="#000" d="M61.476 63.784c0 .23-.272.416-.608.416-.335 0-.607-.187-.607-.416 0-.23.272-.417.607-.417.336 0 .608.187.608.417ZM71.995 63.75c0 .23-.293.416-.659.416-.365 0-.659-.186-.659-.416 0-.23.294-.416.66-.416.365 0 .658.186.658.416ZM77.027 68.697c0 .306-.28.557-.625.557-.344 0-.625-.251-.625-.557 0-.306.28-.557.625-.557.344 0 .625.25.625.557Z"/><path stroke="#474747" stroke-linecap="round" stroke-linejoin="round" stroke-width="1.063" d="m34.506 60.312.99-1.926 1.092 2.032.884-3.073 1.823 2.967 1.666-3.991 1.25 4.097 2.257-4.998 1.857 4.892 1.407-3.069 1.385 2.482 1.007-1.496 1.08 1.704"/><path fill="#A88341" d="M58.56 54.795s-1.457.14-1.317 3.889c.14 3.748 3.749 21.662 4.373 23.328.625 1.666 2.083 7.08 2.083 7.08s9.23 4.306 15.759.209c6.528-4.097 4.862-32.768-.765-35.058-5.623-2.291-10.83-9.928-20.132.556v-.004Z"/><path fill="#A88341" d="M63.197 52.657s-.624 1.199-.522 2.19c.106.99-1.98 2.447-4.998 1.98-3.022-.468-1.824-4.947-.574-6.197s5.257-2.55 6.77-.574c0 0 4.48-1.457 7.604-.314"/><path stroke="#000" stroke-linecap="round" stroke-linejoin="round" stroke-width="1.275" d="M63.197 52.657s-.624 1.199-.522 2.19c.106.99-1.98 2.447-4.998 1.98-3.022-.468-1.824-4.947-.574-6.197s5.257-2.55 6.77-.574c0 0 4.48-1.457 7.604-.314"/><path fill="#B61A1A" d="M61.583 77.286s-.574.625.624 1.564c1.199.94 7.604 1.823 9.112.94 1.51-.885 1.042-2.083 1.042-2.083s-5.831 1.98-10.778-.417v-.004Z"/><path fill="#A88341" d="M76.785 53.44s-1.041 3.54-2.55 3.54-5.988-.26-4.48-4.008c1.51-3.749 2.865-4.008 4.633-3.647 1.768.366 3.49 1.148 3.646 2.606 0 0 2.291 2.24 2.606 5.155"/><path stroke="#000" stroke-linecap="round" stroke-linejoin="round" stroke-width="1.275" d="M76.785 53.44s-1.041 3.54-2.55 3.54-5.988-.26-4.48-4.008c1.51-3.749 2.865-4.008 4.633-3.647 1.768.366 3.49 1.148 3.646 2.606 0 0 2.291 2.24 2.606 5.155"/><path fill="#A88341" d="M56.687 56.67s-2.525 4.755-.468 13.276c1.79 7.412 9.98 9.214 15.674 7.34"/><path stroke="#000" stroke-linecap="round" stroke-linejoin="round" stroke-width="1.488" d="M56.687 56.67s-2.525 4.755-.468 13.276c1.79 7.412 9.98 9.214 15.674 7.34"/><path fill="#A88341" d="M62.012 80.406s-1.858.714-.638-1.972c.744-1.64-.268-3.15-2.231-3.234-1.64-.073-2.924 0-3.081 5.1-.158 5.104 2.048 5.737 3.612 5.737s2.376-1.097 3.26-1.721"/><path stroke="#000" stroke-linecap="round" stroke-linejoin="round" stroke-width="1.275" d="M62.012 80.406s-1.858.714-.638-1.972c.744-1.64-.268-3.15-2.231-3.234-1.64-.073-2.924 0-3.081 5.1-.158 5.104 2.048 5.737 3.612 5.737s2.376-1.097 3.26-1.721M63.767 88.396l-1.386-3.68"/><path stroke="#000" stroke-linecap="round" stroke-linejoin="round" stroke-width="1.488" d="M61.374 78.434s2.189 2.656 9.945 1.457"/><path fill="#A0A0A0" stroke="#000" stroke-linecap="round" stroke-linejoin="round" stroke-width="1.063" d="M68.871 82.365a1.95 1.95 0 1 1-3.901 0 1.95 1.95 0 0 1 3.901 0Z"/><path stroke="#000" stroke-linecap="round" stroke-linejoin="round" stroke-width=".85" d="M65.947 59.653s.03 1.632.897 1.955"/><path fill="#F2F2F2" stroke="#000" stroke-linecap="round" stroke-linejoin="round" stroke-width=".85" d="M68.196 64.15h6.77s-.625 2.498-3.49 2.29c-2.864-.208-3.174-1.44-3.28-2.29ZM57.362 64.15h6.77s-.624 2.498-3.489 2.29c-2.864-.208-3.174-1.44-3.28-2.29Z"/><path fill="#000" d="M68.196 67.499c0 .803-.79 1.457-1.773 1.457-.981 0-1.772-.654-1.772-1.457 0-.804.79-1.458 1.772-1.458s1.773.654 1.773 1.458Z"/><path stroke="#000" stroke-linecap="round" stroke-linejoin="round" stroke-width="1.275" d="M65.093 72.012h3.4"/><path fill="#fff" d="M80.223 89.645s10.272 2.5 17.91-7.637c0 0 2.499-1.041 2.014-5.414-.059-.544-3.03-.264-3.855-.625-6.685-2.924-30.54-1.224-16.073 13.676h.004Z"/><path fill="#F2F2F2" d="M72.569 71.455s-2.814-10.884 8.746-14.369c11.56-3.49 17.183 6.248 16.818 11.662-.366 5.414-1.717 6.978-2.55 8.07"/><path stroke="#000" stroke-linecap="round" stroke-linejoin="round" stroke-width="1.275" d="M72.569 71.455s-2.814-10.884 8.746-14.369c11.56-3.49 17.183 6.248 16.818 11.662-.366 5.414-1.717 6.978-2.55 8.07"/><path fill="#F2F2F2" stroke="#000" stroke-linecap="round" stroke-linejoin="round" stroke-width=".85" d="m73.194 68.28 5.363.052s.149 2.494-2.814 2.24c-2.396-.209-2.656-1.981-2.55-2.291ZM83.971 68.4h7.08s-.365 2.082-3.54 2.082c-3.174 0-3.54-2.083-3.54-2.083Z"/><path fill="#fff" d="M75.586 82.182s-.693 2.95-1.887 2.899c-1.198-.051-1.062-.655-1.062-1.488 0-1.691-1.322-2.745-3.613-1.806-2.29.94-2.907 5.266 1.806 8.075 5.525 3.294 7.238-3.2 7.238-3.2s1.683 1.717 1.891 2.29"/><path stroke="#000" stroke-linecap="round" stroke-linejoin="round" stroke-width="1.488" d="M75.586 82.182s-.693 2.95-1.887 2.899c-1.198-.051-1.062-.655-1.062-1.488 0-1.691-1.322-2.745-3.613-1.806-2.29.94-2.907 5.266 1.806 8.075 5.525 3.294 7.238-3.2 7.238-3.2s1.683 1.717 1.891 2.29"/><path fill="#F5B210" d="M90.427 77.6s-16.09-1.406-18.067-.73c-1.98.675-2.133 3.956 1.981 4.739 4.114.782 15.674.365 16.66-.107.99-.467 4.424-1.615 4.063-4.998-.365-3.383-3.022-4.998-9.996-4.271 0 0-.625-2.967-4.008-2.916-3.238.052-3.438 2.449-3.438 2.449s-4.84-.366-6.145.467c-.749.476-2.134 3.748 2.656 4.373"/><path stroke="#000" stroke-linecap="round" stroke-linejoin="round" stroke-width="1.063" d="M90.427 77.6s-16.09-1.406-18.067-.73c-1.98.675-2.133 3.956 1.981 4.739 4.114.782 15.674.365 16.66-.107.99-.467 4.424-1.615 4.063-4.998-.365-3.383-3.022-4.998-9.996-4.271 0 0-.625-2.967-4.008-2.916-3.238.052-3.438 2.449-3.438 2.449s-4.84-.366-6.145.467c-.749.476-2.134 3.748 2.656 4.373"/><path fill="#000" d="M82.93 72.186a.518.518 0 0 1-.518.519.524.524 0 0 1-.523-.519c0-.284.234-.522.523-.522.289 0 .518.233.518.522ZM80.015 72.186a.518.518 0 0 1-.519.519.524.524 0 0 1-.523-.519c0-.284.234-.522.523-.522.29 0 .519.233.519.522Z"/><path stroke="#000" stroke-linecap="round" stroke-linejoin="round" stroke-width=".85" d="M79.65 65.365s.259.884-.468 1.615M81.056 65.259s-.157 1.356.107 1.772M82.514 65.365s.416 1.3.94 1.509"/><path stroke="#000" stroke-linecap="round" stroke-linejoin="round" stroke-width="1.275" d="M95.893 76.717s3.004-.298 4.322.467"/><path fill="#000" d="M49.083 66.772a.675.675 0 1 1-1.351 0 .675.675 0 1 1 1.351 0ZM61.583 64.273a.675.675 0 1 1-1.352 0c0-.374.31-.404.684-.404.374 0 .668.03.668.404ZM71.995 64.273a.675.675 0 1 1-1.351 0c0-.374.348-.336.722-.336s.633-.038.633.336h-.004ZM37.421 66.772a.675.675 0 1 1-1.351 0 .675.675 0 1 1 1.351 0ZM87.822 69.08c0 .263-.293.475-.659.475-.365 0-.659-.212-.659-.476 0-.263.294-.475.66-.475.365 0 .658.212.658.475ZM76.576 68.803c0 .285-.293.519-.658.519-.366 0-.659-.23-.659-.519 0-.289.293-.514.659-.514.365 0 .658.23.658.514Z"/><path fill="#B61A1A" stroke="#000" stroke-linecap="round" stroke-linejoin="round" stroke-width="1.063" d="M7.433 19.733s-1.623 5.18 3.167 5.856c0 0 .812-2.962-3.167-5.856ZM93.16 29.044s.438-4.369 3.6-4.832c0 0 1.47 3.842-3.6 4.832ZM25.968 22.823s-.107 1.147 1.147 1.772c0 0 .417-1.356-1.147-1.772Z"/><path fill="#7392B2" d="M32.27 54.362s-.37-6.694.808-7.064c1.177-.374 4.275 2.788 5.699 4.152"/><path stroke="#000" stroke-linecap="round" stroke-linejoin="round" stroke-width="1.488" d="M32.27 54.362s-.37-6.694.808-7.064c1.177-.374 4.275 2.788 5.699 4.152"/><path fill="#F18989" d="M34.297 52.92s-1.147-5.206 2.189-.73l-2.189.73Z"/><path stroke="#000" stroke-linecap="round" stroke-linejoin="round" stroke-width=".85" d="M34.297 52.92s-1.147-5.206 2.189-.73"/><path stroke="#000" stroke-linecap="round" stroke-linejoin="round" stroke-width="1.488" d="M39.346 51.616s-4.581.884-6.715 2.916"/><path fill="#7392B2" d="M47.464 51.523s4.577-4.459 6.06-3.864c1.488.595.476 6.656.476 6.656"/><path stroke="#000" stroke-linecap="round" stroke-linejoin="round" stroke-width="1.488" d="M47.464 51.523s4.577-4.459 6.06-3.864c1.488.595.476 6.656.476 6.656"/><path fill="#F18989" d="M50.256 51.684s3.145-3.468 1.887 1.199l-1.887-1.199Z"/><path stroke="#000" stroke-linecap="round" stroke-linejoin="round" stroke-width=".85" d="M50.256 51.684s3.145-3.468 1.887 1.199"/><path stroke="#000" stroke-linecap="round" stroke-linejoin="round" stroke-width="1.488" d="M54.447 54.846s-3.698-2.966-7.396-2.915"/><path fill="#7392B2" d="M31.62 54.774s-.846-7.255.748-7.735c1.674-.502 4.7 3.15 6.226 4.611"/><path stroke="#000" stroke-linecap="round" stroke-linejoin="round" stroke-width="1.488" d="M31.62 54.774s-.846-7.255.748-7.735c1.674-.502 4.7 3.15 6.226 4.611"/><path fill="#F18989" d="M33.791 53.227s-1.385-5.831 2.346-.782l-2.346.782Z"/><path stroke="#000" stroke-linecap="round" stroke-linejoin="round" stroke-width=".85" d="M33.791 53.227s-1.385-5.831 2.346-.782"/><path stroke="#000" stroke-linecap="round" stroke-linejoin="round" stroke-width="1.488" d="M39.202 51.833s-4.913.948-7.2 3.123"/><path fill="#7392B2" d="M47.383 51.701s4.743-5.138 6.711-4.445c1.853.65.293 7.437.293 7.437"/><path stroke="#000" stroke-linecap="round" stroke-linejoin="round" stroke-width="1.488" d="M47.383 51.701s4.743-5.138 6.711-4.445c1.853.65.293 7.437.293 7.437"/><path fill="#F18989" d="M50.38 51.871s3.37-3.714 2.023 1.284L50.38 51.87Z"/><path stroke="#000" stroke-linecap="round" stroke-linejoin="round" stroke-width=".85" d="M50.38 51.871s3.37-3.714 2.023 1.284"/><path stroke="#000" stroke-linecap="round" stroke-linejoin="round" stroke-width="1.488" d="M54.872 55.263s-3.96-3.18-7.926-3.124"/></g><defs><clipPath id="a"><path fill="#fff" d="M1.275 5.95h99.578v90.499H1.275z"/></clipPath></defs></svg>