<svg xmlns="http://www.w3.org/2000/svg" width="102" height="102" fill="none"><g clip-path="url(#a)"><path fill="#fff" d="M43.397 93.91v-3.153c-6.21-.633-5.982-6.02-5.645-8.618.808-6.215 4.825-12.857 4.825-12.857l22.492-.43c3.818 1.95 1.046 8.88 1.046 8.88-.415 2.576-.1 15.877-.1 15.877S63.588 95.004 54.207 95c-7.458 0-10.814-1.09-10.814-1.09h.004Z"/><path stroke="#0E141B" stroke-linecap="round" stroke-linejoin="round" stroke-width="1.374" d="M45.362 75.86s-1.132 2.553-.993 3.47"/><path stroke="#0E141B" stroke-linecap="round" stroke-linejoin="round" stroke-width="1.374" d="M48.217 80.782c-.605-.564-1.784-1.133-2.621-1.335-1.53-.375-4.043.108-4.462 1.727-.423 1.607 1.386 2.537 2.855 2.877"/><path stroke="#0E141B" stroke-linecap="round" stroke-linejoin="round" stroke-width="1.374" d="M41.747 85.766c2.082-1.547 4.047-3.321 6.18-4.786 1.91-1.313 4.233-2.394 6.285-.723"/><path stroke="#0E141B" stroke-linecap="round" stroke-linejoin="round" stroke-width="1.374" d="M57.476 74.58a160.178 160.178 0 0 0-1.878 3.097c-2.531 4.294-3.978 9.428-8.474 12.206-1.106.685-2.431.909-3.723.875"/><path stroke="#0E141B" stroke-linecap="round" stroke-linejoin="round" stroke-width="1.374" d="M49.78 87.635c7.886 5.849 13.885-3.937 16.507-10.311"/><path stroke="#0E141B" stroke-linecap="round" stroke-linejoin="round" stroke-width="1.374" d="M66.015 93.609s-.315-13.3.1-15.876c0 0 2.777-6.935-1.046-8.881l-22.492.43S38.56 75.92 37.752 82.14c-.337 2.597-.566 7.985 5.645 8.618v3.153"/><path fill="#F9D2D4" stroke="#0E141B" stroke-linecap="round" stroke-linejoin="round" stroke-width="1.374" d="M22.766 31.29c3.895-4.502 8.823-7.926 13.254-11.858 2.039-1.81 3.987-3.726 5.887-5.681.16-.164 1.671-1.753 2.609-3.05.393-.547.91-.831 1.192-.9.51-.13 1.101.017 1.727.258 8.405 3.26 16.874 7.659 24.035 12.986 3.706 2.757 7.152 5.768 9.225 9.958 6.673 13.495 2.687 31.533-13.293 35.362-6.867 1.65-14.443 1.27-21.448 1.046-4.954-.159-10.292-.413-14.913-2.368-6.604-2.8-11.234-8.223-12.737-15.248-1.36-6.366-.211-13.994 3.55-19.356.285-.405.588-.788.912-1.159v.01Z"/><path stroke="#0E141B" stroke-linecap="round" stroke-linejoin="round" stroke-width="1.374" d="m24.433 41.14-1.374-3.57M28.15 41.14v-4.394M31.455 41.14l1.378-3.57M48.54 40.222l-2.215-3.476M52.484 39.968l-.79-4.596M57.062 39.356l.83-3.984"/><path fill="#fff" stroke="#0E141B" stroke-linecap="round" stroke-linejoin="round" stroke-width="1.374" d="M21.543 41.14H34.76s.415 5.629-6.608 5.629c0 0-6.47-.271-6.608-5.63ZM44.952 40.455s14.96-.965 15.004-.965c.28-.017-.402 2.218-.428 2.291-.66 1.607-1.818 2.912-3.416 3.631-4.176 1.904-10.65.263-11.16-4.957Z"/><path fill="#0E141B" d="M30.63 43.336c0 .491-.475.896-1.062.896-.588 0-1.067-.4-1.067-.896 0-.495.48-.9 1.067-.9s1.062.4 1.062.9ZM56.717 42.445a.892.892 0 0 1-.895.891.892.892 0 1 1 0-1.783c.493 0 .895.4.895.892Z"/><path fill="#EF8585" d="M32.833 51.236c0 1.4-2.31 2.536-5.16 2.536-2.851 0-5.166-1.137-5.166-2.536 0-1.4 2.315-2.542 5.165-2.542s5.161 1.137 5.161 2.541ZM63.722 51.184c.069 1.671-2.773 3.144-6.354 3.29-3.576.143-6.53-1.093-6.599-2.769-.069-1.671 2.777-3.144 6.353-3.286 3.58-.147 6.53 1.094 6.6 2.765Z"/><path stroke="#0E141B" stroke-linecap="round" stroke-linejoin="round" stroke-width="1.374" d="M35.446 52.946s4.781-.6 5.08 1.339"/><path stroke="#0E141B" stroke-linecap="round" stroke-linejoin="round" stroke-width="1.374" d="M43.431 50.465c-4.522 2.192-3.796 9.613.553 11.543"/><path fill="#FFD900" stroke="#0E141B" stroke-linecap="round" stroke-linejoin="round" stroke-width="1.374" d="M69.82 31.496c.627 4.316-1.321 10.2-6.154 11.203 0 0 7.16 2.838 8.283 12.172 0 0 1.007-10.299 7.386-12.59 0 0-8.172-1.533-9.51-10.785h-.005Z"/><path stroke="#0E141B" stroke-linecap="round" stroke-linejoin="round" stroke-width="1.374" d="M69.82 31.496c.627 4.316-1.321 10.2-6.154 11.203 0 0 7.16 2.838 8.283 12.172 0 0 1.007-10.299 7.386-12.59 0 0-8.172-1.533-9.51-10.785h-.005Z"/></g><defs><clipPath id="a"><path fill="#fff" d="M17 9h67.543v86H17z"/></clipPath></defs></svg>