<svg xmlns="http://www.w3.org/2000/svg" width="102" height="102" fill="none"><g clip-path="url(#a)"><path fill="#F7A823" d="M33.344 59.52s-7.183 1.352-11.145 1.56c-2.953.157-4.84 2.29-4.275 5.449.701 3.931 7.009 7.221 24.524.714"/><path stroke="#0D181C" stroke-linecap="round" stroke-linejoin="round" stroke-width="1.488" d="M33.344 59.52s-7.183 1.352-11.145 1.56c-2.953.157-4.84 2.29-4.275 5.449.701 3.931 7.009 7.221 24.524.714"/><path fill="#B0D7EC" d="M37.063 69.959c-4.692 1.709-8.313 2.138-11.263 1.862-1.084-.102-2.572-2.682-3.04-5.95-.462-3.27.048-5.399.932-5.7.455-.158 3.791.242 9.801-1.046"/><path stroke="#0D181C" stroke-linecap="round" stroke-linejoin="round" stroke-width="1.488" d="M37.063 69.959c-4.692 1.709-8.313 2.138-11.263 1.862-1.084-.102-2.572-2.682-3.04-5.95-.462-3.27.048-5.399.932-5.7.455-.158 3.791.242 9.801-1.046"/><path fill="#F7A823" d="M36.612 56.2s-5.789-4.348-8.772-6.966c-2.223-1.95-5.917-1.815-7.315 1.076-1.624 3.353-.697 9.907 12.25 15.781"/><path stroke="#0D181C" stroke-linecap="round" stroke-linejoin="round" stroke-width="1.488" d="M36.612 56.2s-5.789-4.348-8.772-6.966c-2.223-1.95-5.917-1.815-7.315 1.076-1.624 3.353-.697 9.907 12.25 15.781"/><path fill="#B0D7EC" d="M37.068 56.094c-5.207-3.277-7.315-5.886-7.749-6.095-.846-.4-2.699.77-4.645 3.435-1.947 2.665-2.682 5.55-1.977 6.38 2.198 2.588 5.679 5.125 11.472 7.416l4.688-2.495"/><path stroke="#0D181C" stroke-linecap="round" stroke-linejoin="round" stroke-width="1.488" d="M29.073 64.846c-2.89-1.615-4.914-3.316-6.376-5.033-.705-.829.03-3.715 1.977-6.38 1.946-2.664 3.8-3.829 4.645-3.434.438.204 2.546 2.818 7.749 6.095"/><path fill="#F7A823" d="M63.985 65.126c1.169 3.022 5.508 12.42 8.807 13.865 3.298 1.44 7.535-.544 6.452-4.748-1.33-5.147-5.36-16.223-10.647-19.522"/><path stroke="#0D181C" stroke-linecap="round" stroke-linejoin="round" stroke-width="1.488" d="M63.985 65.126c1.169 3.022 5.508 12.42 8.807 13.865 3.298 1.44 7.535-.544 6.452-4.748-1.33-5.147-5.36-16.223-10.647-19.522"/><path fill="#F7A823" d="M53.41 81.758c.085 2.673-.4 8.322-.773 10.392-.14.786-.14 1.5 0 2.134.395 1.836 1.916 2.992 4.327 3.247 3.646.391 5.291-1.292 6.375-2.69 1.411-1.824 6.864-15.391 6.159-21.303l-15.514-1.522-13.873 4.072c.629 2.338 1.547 11.9 1.479 15.016-.072 3.116 1.292 5.25 4.535 5.598 3.315.353 5.492-1.186 6.52-2.418"/><path stroke="#0D181C" stroke-linecap="round" stroke-linejoin="round" stroke-width="1.488" d="M53.41 81.758c.085 2.673-.4 8.322-.773 10.392-.14.786-.14 1.5 0 2.134.395 1.836 1.916 2.992 4.327 3.247 3.646.391 5.291-1.292 6.375-2.69 1.411-1.824 6.864-15.391 6.159-21.303l-15.514-1.522-13.873 4.072c.629 2.338 1.547 11.9 1.479 15.016-.072 3.116 1.292 5.25 4.535 5.598 3.315.353 5.492-1.186 6.52-2.418"/><path fill="#B0D7EC" d="M36.124 64.119c1.381 5.525.744 9.206 1.878 11.331 1.305 2.449 7.183 3.885 16.61 3.4 8.948-.458 14.877-3.825 15.867-5.525.723-1.237-.637-10.17-1.347-12.08 0 0-2.32-16.13-6.881-16.495-4.56-.361-27.934 4.068-27.934 4.068"/><path stroke="#0D181C" stroke-linecap="round" stroke-linejoin="round" stroke-width="1.488" d="M36.124 64.119c1.381 5.525.744 9.206 1.878 11.331 1.305 2.449 7.183 3.885 16.61 3.4 8.948-.458 14.877-3.825 15.867-5.525.723-1.237-.637-10.17-1.347-12.08 0 0-2.32-16.13-6.881-16.495-4.56-.361-27.934 4.068-27.934 4.068"/><path fill="#fff" stroke="#0D181C" stroke-linecap="round" stroke-linejoin="round" stroke-width="1.488" d="M55.16 73.21h-.02a1.053 1.053 0 0 1-1.033-1.072c.153-8.342-.238-9.54-.255-9.626a1.054 1.054 0 0 1 .812-1.24 1.05 1.05 0 0 1 1.245.798c.047.217.463 1.505.302 10.107a1.049 1.049 0 0 1-1.05 1.032ZM46.881 73.124a1.053 1.053 0 0 1-1.054-1.05c-.004-7.42.531-9.757.557-9.88a1.053 1.053 0 0 1 2.07.382c-.009.038-.527 2.329-.519 9.494 0 .583-.472 1.054-1.05 1.054h-.004Z"/><path fill="#fff" stroke="#0D181C" stroke-linecap="round" stroke-linejoin="round" stroke-width="1.488" d="M55.267 70.728a4.669 4.669 0 0 1-1.827-.382c-.536-.243-.787-.91-.561-1.488.225-.574.837-.846 1.372-.608.285.124 1.144.37 1.73.039.514-.294 1.152-.077 1.42.476.272.556.072 1.24-.442 1.53a3.416 3.416 0 0 1-1.692.429v.004ZM47.047 70.609a4.754 4.754 0 0 1-1.828-.382c-.535-.243-.786-.91-.556-1.488.225-.574.841-.846 1.372-.604.28.124 1.144.37 1.73.039.514-.29 1.152-.077 1.42.48.267.557.067 1.241-.447 1.53a3.42 3.42 0 0 1-1.691.425Z"/><path fill="#B0D7EC" d="M63.819 65.538c.782 2.02 3.931 10.18 5.304 10.77 1.284.55 9.916-3.77 9.513-5.006-1.93-5.895-5.849-16.066-9.564-17.193"/><path stroke="#0D181C" stroke-linecap="round" stroke-linejoin="round" stroke-width="1.488" d="M63.819 65.538c.782 2.02 3.931 10.18 5.304 10.77 1.284.55 9.916-3.77 9.513-5.006-1.93-5.895-5.849-16.066-9.564-17.193"/><path fill="#B0D7EC" d="M66.76 56.838C72.78 53 77.004 46.722 77.06 37.346c.042-7.349-2.585-13.253-6.767-17.499 1.075-2.43 1.105-6.958-3.575-8.522-3.422-1.143-5.734.217-7.102 2.13a29.974 29.974 0 0 0-8.748-1.34c-3.183-.016-6.269.434-9.142 1.323-1.335-1.968-3.651-3.405-7.124-2.283-4.85 1.56-4.718 6.342-3.566 8.718-4.076 4.2-6.605 10.01-6.647 17.171-.06 9.895 4.65 17.023 12.075 21.082"/><path stroke="#0D181C" stroke-linecap="round" stroke-linejoin="round" stroke-width="1.488" d="M66.76 56.838C72.78 53 77.004 46.722 77.06 37.346c.042-7.349-2.585-13.253-6.767-17.499 1.075-2.43 1.105-6.958-3.575-8.522-3.422-1.143-5.734.217-7.102 2.13a29.974 29.974 0 0 0-8.748-1.34c-3.183-.016-6.269.434-9.142 1.323-1.335-1.968-3.651-3.405-7.124-2.283-4.85 1.56-4.718 6.342-3.566 8.718-4.076 4.2-6.605 10.01-6.647 17.171-.06 9.895 4.65 17.023 12.075 21.082"/><path fill="#F7A823" stroke="#0D181C" stroke-linecap="round" stroke-linejoin="round" stroke-width="1.488" d="M29.072 38.464c.081-13.55 10.116-21.448 21.77-21.38 11.285.064 21.6 7.91 21.52 21.63-.08 13.767-10.477 20.39-21.762 20.326-11.106-.064-21.604-6.81-21.524-20.576h-.004Z"/><path stroke="#0D181C" stroke-linecap="round" stroke-linejoin="round" stroke-width="1.913" d="M56.678 32.003s3.898-.208 8.458-.072"/><path fill="#fff" d="M49.614 42.88c-2.928-.982-5.113.727-5.291 2.665-.145 1.581 1.25 3.14 2.928 3.268 1.81.136 2.963-.82 3.392-1.908.374 1.11 1.296 1.934 3.111 1.892 1.683-.039 3.069-1.101 3.158-3.035.094-1.947-2.002-4.217-5.41-2.831l-.957.42"/><path stroke="#0D181C" stroke-linecap="round" stroke-linejoin="round" stroke-width="1.488" d="M49.614 42.88c-2.928-.982-5.113.727-5.291 2.665-.145 1.581 1.25 3.14 2.928 3.268 1.81.136 2.963-.82 3.392-1.908.374 1.11 1.296 1.934 3.111 1.892 1.683-.039 3.069-1.101 3.158-3.035.094-1.947-2.002-4.217-5.41-2.831l-.957.42"/><path stroke="#0D181C" stroke-linecap="round" stroke-linejoin="round" stroke-width="1.913" d="M35.44 32.318s3.897-.209 8.457-.072"/><path fill="#0D181C" d="M48.582 42.497c-.115.74.977 2.278 1.95 2.257.872-.017 1.883-1.309 1.998-2.32.136-1.182-3.634-1.985-3.948.063ZM42.202 37.945a1.675 1.675 0 1 0-3.35.044 1.675 1.675 0 0 0 3.35-.044ZM62.25 37.694a1.675 1.675 0 1 0-3.35.044 1.675 1.675 0 0 0 3.35-.044Z"/><path fill="#B1D6E7" d="M31.176 68.114c-1.029-2.568-1.012-5.07-.803-6.762l-3.35-2.533s-1.58 4.755.65 9.507"/><path stroke="#0D181C" stroke-linecap="round" stroke-linejoin="round" stroke-width="1.488" d="M27.028 58.823s-1.58 4.756.65 9.507M30.377 61.356c-.208 1.687-.225 4.195.804 6.762"/><path stroke="#0D181C" stroke-linecap="round" stroke-linejoin="round" stroke-width="1.488" d="M34.168 67.23a42.828 42.828 0 0 1-5.096-2.384"/></g><defs><clipPath id="a"><path fill="#fff" d="M0 0h102v102H0z"/></clipPath></defs></svg>