<svg xmlns="http://www.w3.org/2000/svg" width="102" height="102" fill="none"><g clip-path="url(#a)"><path fill="#0E141B" d="M79.174 82.883c.824-.927 2.304-2.544 1.479-6.254-.813-3.657-5.69-4.624-5.69-4.624l-3.774.979 5.57 11.195"/><path stroke="#0E141B" stroke-linecap="round" stroke-linejoin="round" stroke-width="1.422" d="M74.964 72.008s4.876.968 5.689 4.625c.825 3.706-.655 5.327-1.48 6.254"/><path fill="#0E141B" d="M37.75 82.184c.252 4.132 1.015 12.19 1.015 12.19 17.779 3.658 33.488 0 33.488 0L72.01 78.04l1.056-3.844-9.444-7.51-24.328-.195"/><path stroke="#0E141B" stroke-linecap="round" stroke-linejoin="round" stroke-width="1.422" d="M38.765 94.375s-.764-8.058-1.016-12.191M72.01 78.04l.244 16.335"/><path fill="#BAE3F9" d="M19.561 80.237s-2.064 0-2.316-1.32c-.134-.695 2.032-12.358 2.487-12.784.71-.659 1.975-.293 1.975-.293"/><path stroke="#0E141B" stroke-linecap="round" stroke-linejoin="round" stroke-width="1.422" d="M19.561 80.237s-2.064 0-2.316-1.32c-.134-.695 2.032-12.358 2.487-12.784.71-.659 1.975-.293 1.975-.293"/><path fill="#fff" d="M43.187 68.9s3.283 11.44 9.647 15.706c0 0 7.245-4.547 12.442-15.153"/><path stroke="#0E141B" stroke-linecap="round" stroke-linejoin="round" stroke-width="1.422" d="M51.757 71.135s-3.011 2.588-5.323 5.616M60.148 77.596s-3.454-4.445-5.145-6.262"/><path fill="#0E141B" d="M56.174 72.667a36.162 36.162 0 0 0-1.175-1.333l.013-.012a35.248 35.248 0 0 1-3.251-.195v.008s-.175.146-.455.406c0 0 .552 2.235 1.536 3.666 0 0-.947 4.267-1.76 7.977a13.796 13.796 0 0 0 1.76 1.426s.845-.532 2.166-1.65l-.374-8.103c.353-.406 1.544-2.186 1.544-2.186l-.004-.004Z"/><path stroke="#0E141B" stroke-linecap="round" stroke-linejoin="round" stroke-width="1.422" d="M56.174 72.667a36.162 36.162 0 0 0-1.175-1.333l.013-.012a35.248 35.248 0 0 1-3.251-.195v.008s-.175.146-.455.406c0 0 .552 2.235 1.536 3.666 0 0-.947 4.267-1.76 7.977a13.796 13.796 0 0 0 1.76 1.426s.845-.532 2.166-1.65l-.374-8.103c.353-.406 1.544-2.186 1.544-2.186l-.004-.004Z"/><path stroke="#0E141B" stroke-linecap="round" stroke-linejoin="round" stroke-width="1.422" d="M43.187 68.9s3.283 11.44 9.647 15.706c0 0 7.245-4.547 12.442-15.153"/><path fill="#BAE3F9" d="M42.288 69.164s-2.625 19.708-4.539 20.468c-1.913.76-16.969.167-18.777-3.047-.456-.813 2.795-21.11 2.795-21.11"/><path fill="#FFD900" d="M23.389 67.169s-2.654 16.815-2.28 17.49c1.475 2.661 13.768 3.157 15.332 2.523 1.56-.63 3.706-16.957 3.706-16.957l-3.9-4.755-9.705-.715"/><path stroke="#fff" stroke-miterlimit="10" stroke-width=".813" d="M27.318 83.639a.845.845 0 1 0-1.69 0 .845.845 0 1 0 1.69 0ZM32.87 84.159c-.236-.435-.826-.57-1.317-.305-.492.268-.703.837-.468 1.268.236.435.825.569 1.321.3.492-.264.703-.833.467-1.267l-.004.004ZM28.387 71.541c0-.8-.646-1.446-1.447-1.446a1.447 1.447 0 1 0 1.447 1.447ZM29.48 77.23c-.073-.61-.508-1.052-.975-1-.463.057-.78.594-.707 1.203.073.61.512 1.057.975 1 .464-.057.78-.593.707-1.203ZM36.429 79.112c.142-.597-.114-1.166-.57-1.276-.454-.106-.938.288-1.08.886-.142.597.114 1.166.569 1.276.455.11.938-.289 1.08-.886ZM34.852 73.301c.142-.597-.114-1.166-.569-1.276-.455-.11-.938.288-1.08.886-.143.597.113 1.166.568 1.276.455.11.939-.289 1.077-.886h.004Z"/><path fill="#FFD900" d="M77.081 66.303c3.1 1.183 5.112-.678 5.58-1.95.881.085 1.763-.248 2.303-.98.297-.398.451-.861.476-1.332.06.012.122.024.183.032 1.511.17 2.885-1.024 3.072-2.67.036-.337.02-.666-.04-.979 1.035-.337 1.844-1.32 1.986-2.556.057-.496 0-.971-.154-1.406 1.056-.26 1.877-1.101 2-2.178.105-.914-.322-1.772-1.045-2.312 1.012-.256 1.788-1.02 1.902-2.004.073-.65-.159-1.271-.594-1.76.744-.507 1.187-1.328 1.085-2.193-.11-.947-.837-1.687-1.796-1.967 1.097-.423 1.82-1.435 1.695-2.516-.094-.804-.63-1.458-1.378-1.808.687-.48 1.093-1.182 1.008-1.918-.086-.74-.65-1.337-1.439-1.642a3.086 3.086 0 0 0-1.19-5.4 3.085 3.085 0 0 0-2.215-4.51c.102-.322.154-.671.154-1.033 0-1.662-1.121-3.015-2.755-3.084.22-.886.029-1.751-.585-2.251-.45-.362-1.044-.463-1.65-.333-.065-.947-.577-1.796-1.434-2.19-.642-.297-1.357-.285-2-.017 0-.037.005-.073.005-.114 0-1.706-1.179-3.092-2.885-3.092-.354 0-.691.06-1.008.17-.126-.853-.622-1.6-1.41-1.966-.898-.419-1.939-.224-2.719.41a3.092 3.092 0 0 0-2.763-1.71 3.07 3.07 0 0 0-2.162.885 3.092 3.092 0 0 0-2.865-1.934 3.052 3.052 0 0 0-2.824 1.837 3.088 3.088 0 0 0-6.083-.24 3.182 3.182 0 0 0-6.258-.467 3.687 3.687 0 0 0-3.047-1.61c-1.57 0-2.906.98-3.442 2.362a4.339 4.339 0 0 0-2.309-.663 4.372 4.372 0 0 0-4.25 3.345 3.006 3.006 0 0 0-4.502 3.73 3.516 3.516 0 0 0-5.193 3.088c0 .285.036.56.1.825a2.804 2.804 0 0 0-2.434 4.962 3.132 3.132 0 0 0-2.303 5.238 2.577 2.577 0 0 0-2.284 2.556c0 .605.211 1.166.565 1.605a2.787 2.787 0 0 0-.354 4.779 2.575 2.575 0 0 0-.914 1.966c0 .87.43 1.638 1.09 2.101a3.164 3.164 0 0 0-1.366 2.605 3.176 3.176 0 0 0 2.91 3.161c-.813.464-1.382 1.419-1.382 2.37 0 .95.577 1.8 1.402 2.173a2.384 2.384 0 0 0 2.17 3.938c-.082.2-.126.415-.126.642 0 .955.772 1.902 1.727 1.902"/><path fill="#6B500E" d="M43.743 33.421c5.868-2.698 15.56-1.621 20.489.492 6.68 2.865 11.743 8.651 11.211 18.436-.61 11.212-6.607 16.38-12.963 18.128-6.355 1.747-16.169.914-22.077-3.13-5.908-4.038-7.188-10.329-7.188-14.94 0-7.994 1.869-15.004 10.528-18.986Z"/><path stroke="#0E141B" stroke-linecap="round" stroke-linejoin="round" stroke-width="1.422" d="M43.743 33.421c5.868-2.698 15.56-1.621 20.489.492 6.68 2.865 11.743 8.651 11.211 18.436-.61 11.212-6.607 16.38-12.963 18.128-6.355 1.747-16.169.914-22.077-3.13-5.908-4.038-7.188-10.329-7.188-14.94 0-7.994 1.869-15.004 10.528-18.986Z"/><path stroke="#0E141B" stroke-linecap="round" stroke-linejoin="round" stroke-width="1.422" d="M77.081 66.303c3.1 1.183 5.112-.678 5.58-1.95.881.085 1.763-.248 2.303-.98.297-.398.451-.861.476-1.332.06.012.122.024.183.032 1.511.17 2.885-1.024 3.072-2.67.036-.337.02-.666-.04-.979 1.035-.337 1.844-1.32 1.986-2.556.057-.496 0-.971-.154-1.406 1.056-.26 1.877-1.101 2-2.178.105-.914-.322-1.772-1.045-2.312 1.012-.256 1.788-1.02 1.902-2.004.073-.65-.159-1.271-.594-1.76.744-.507 1.187-1.328 1.085-2.193-.11-.947-.837-1.687-1.796-1.967 1.097-.423 1.82-1.435 1.695-2.516-.094-.804-.63-1.458-1.378-1.808.687-.48 1.093-1.182 1.008-1.918-.086-.74-.65-1.337-1.439-1.642a3.086 3.086 0 0 0-1.19-5.4 3.085 3.085 0 0 0-2.215-4.51c.102-.322.154-.671.154-1.033 0-1.662-1.121-3.015-2.755-3.084.22-.886.029-1.751-.585-2.251-.45-.362-1.044-.463-1.65-.333-.065-.947-.577-1.796-1.434-2.19-.642-.297-1.357-.285-2-.017 0-.037.005-.073.005-.114 0-1.706-1.179-3.092-2.885-3.092-.354 0-.691.06-1.008.17-.126-.853-.622-1.6-1.41-1.966-.898-.419-1.939-.224-2.719.41a3.092 3.092 0 0 0-2.763-1.71 3.07 3.07 0 0 0-2.162.885 3.092 3.092 0 0 0-2.865-1.934 3.052 3.052 0 0 0-2.824 1.837 3.088 3.088 0 0 0-6.083-.24 3.182 3.182 0 0 0-6.258-.467 3.687 3.687 0 0 0-3.047-1.61c-1.57 0-2.906.98-3.442 2.362a4.339 4.339 0 0 0-2.309-.663 4.372 4.372 0 0 0-4.25 3.345 3.006 3.006 0 0 0-4.502 3.73 3.516 3.516 0 0 0-5.193 3.088c0 .285.036.56.1.825a2.804 2.804 0 0 0-2.434 4.962 3.132 3.132 0 0 0-2.303 5.238 2.577 2.577 0 0 0-2.284 2.556c0 .605.211 1.166.565 1.605a2.787 2.787 0 0 0-.354 4.779 2.575 2.575 0 0 0-.914 1.966c0 .87.43 1.638 1.09 2.101a3.164 3.164 0 0 0-1.366 2.605 3.176 3.176 0 0 0 2.91 3.161c-.813.464-1.382 1.419-1.382 2.37 0 .95.577 1.8 1.402 2.173a2.384 2.384 0 0 0 2.17 3.938c-.082.2-.126.415-.126.642 0 .955.772 1.902 1.727 1.902"/><path fill="#0E141B" d="M35.494 43.868c-.947.074-2.044.48-2.044 2.589 0 2.398-.187 7.977 2.776 8.253 2.978.28 10.43.081 11.345-.11.91-.19 1.947-1.292 2.089-2.97.11-1.272.3-3.739.24-5.563-.053-1.593-.529-2.207-1.63-2.255-2.032-.09-11.256-.07-12.776.048v.008ZM68.58 43.478c.898.057 1.918.456 2.1 2.605.24 2.857.078 7.753-2.738 7.957-2.816.207-10.285.174-11.15 0-.87-.18-1.683-.91-1.853-2.625-.13-1.297-.399-3.698-.305-5.563.093-1.862.32-2.268 1.65-2.337 1.926-.098 10.854-.126 12.3-.032l-.004-.005Z"/><path fill="#C11A20" d="M52.041 61.525c.947.036.915.707.915.707s.617-.841 1.39-.841c.772 0 1.414.459 1.418.459.32-1.402.121-2.804.121-2.804l-4.218-2.873-2.872 3.161c.016.415.272 2.215 1.125 3.609.008-.008 1.183-1.45 2.13-1.414l-.009-.004Z"/><path fill="#DB5451" d="M52.92 64.641c1.791-.17 2.543-1.479 2.84-2.791 0 0-.642-.46-1.419-.46-.776 0-1.39.842-1.39.842s.033-.675-.914-.707c-.946-.033-2.12 1.406-2.129 1.414.63 1.028 1.58 1.837 3.007 1.698l.004.004Z"/><path stroke="#0E141B" stroke-linecap="round" stroke-linejoin="round" stroke-width="1.422" d="M49.912 62.943s1.178-1.45 2.13-1.414c.946.036.913.707.913.707s.618-.841 1.39-.841c.772 0 1.418.459 1.418.459M55.166 66.807s-1.252 1.313-3.161 1.154c-2.439-.203-3.219-1.828-3.219-1.828"/><path stroke="#DA3A1E" stroke-linecap="round" stroke-linejoin="round" stroke-width="1.422" d="m62.265 56.279-1.455 1.219M65.11 56.279l-1.488 1.487M67.584 56.482l-.646.776M42.65 57.498l-.727.743M40.22 57.258l-1.455 1.219M37.75 56.888l-1.118.878"/><path fill="#fff" d="M71.307 76.897s4.742 7.656 4.81 8.265c.07.61-.743 2.914 1.22 3.32 1.963.407 2.1-1.828 2.1-1.828s2.72.727 2.776-1.492c.057-2.235-2.031-1.49-2.71-1.897-.537-.321-4.994-8.062-4.994-8.062"/><path fill="#6B500E" d="M79.39 83.16c-.293.682-2.5 2.982-4.052 2.206-.272-.135-.54-.374-.54-1.187-.533.032-1.05-.154-1.321-.845-.18-.451 0-1.15 0-1.15s-1.288-.476-1.22-1.743c.07-1.252 1.35-2.15 2.223-2.508.602-.248 1.622-.483 2.3-.231 1.483.548 2.845 2.856 2.845 4.242 0 .939-.232 1.215-.232 1.215h-.004Z"/><path fill="#0E141B" d="M49.855 48.798s2.235-.915 4.868 0l-.085-1.971s-2.918-.309-4.726.024l-.053 1.947h-.004ZM70.725 49.025h4.678l-.252-1.97-4.41.036-.016 1.934Z"/><path stroke="#0E141B" stroke-linecap="round" stroke-linejoin="round" stroke-width="1.422" d="M11.914 69.62s-1.675 2.69.861 6.753M8.711 73.943s-.069 2.99 2.658 4.974M24.677 68.356s-2.336 12.068-2.438 12.609c-.102.544-.439 2.214.882 2.552 1.32.337 1.898-1.366 2-1.707.1-.341 2.92-13.146 2.92-13.146M31.293 68.936s-2.67 12.614-2.694 12.85c-.118 1.064-.561 2.592 1.015 2.893 1.297.252 1.727-1.983 1.805-2.284.077-.305 2.828-12.54 2.828-12.54M36.518 69.038s-2.41 13.256-2.487 13.764c-.077.508-.447 2.625 1.118 2.868 1.142.18 1.447-.894 1.727-2.49.28-1.597 2.276-12.862 2.276-12.862"/><path fill="#6B500E" d="M21.313 68.355s-3.597-1.763-4.93 2.78c-1.267 4.328 1.943 5.855 3.715 5.295"/><path stroke="#0E141B" stroke-linecap="round" stroke-linejoin="round" stroke-width="1.422" d="M20.918 70.912h-1.43M18.927 73.943l1.495.248"/><path fill="#fff" d="M26.538 54.015a1.593 1.593 0 1 0-3.186 0 1.593 1.593 0 0 0 3.186 0ZM30.577 56.173a1.09 1.09 0 1 0-2.178 0 1.09 1.09 0 0 0 2.178 0Z"/><path fill="#595857" d="M35.421 45.798c-.179.659-.39 4.966.947 4.946.378-.008.89-.118 1.207-.451 1.215-1.264 2.032-4.153 1.6-4.787-.117-.175-.288-.272-.544-.33-.67-.145-2.117-.089-2.54 0a.852.852 0 0 0-.67.627v-.005ZM56.243 45.799c-.114.67-.264 4.713.74 4.717.642 0 .983-.227 1.47-.837 1.512-1.877 2.126-3.706 1.8-4.397-.105-.223-.263-.385-.52-.438-.67-.147-2.112-.13-2.539-.057-.532.093-.87.544-.95 1.016v-.004ZM47.697 51.638c0-.83-.463-1.5-1.454-1.5-.83 0-1.54.67-1.54 1.5a1.498 1.498 0 1 0 2.998 0h-.004ZM69.08 51.215c0-.829-.39-1.406-1.382-1.406-.829 0-1.54.577-1.54 1.406 0 .83.593 1.5 1.422 1.5.83 0 1.5-.67 1.5-1.5Z"/><path fill="#B37632" d="M64.451 76.292c-2.39-1.142-2.86-3.93-3.368-5.047-.508-1.118-1.22-2.845-1.22-4.267 0-1.422 1.118-4.978 5.791-6.908 4.673-1.93 9.041-.711 11.276 3.454 2.235 4.165 1.033 8.261-1.219 10.598-2.348 2.434-6.432 4.47-11.26 2.17Z"/><path stroke="#0E141B" stroke-linecap="round" stroke-linejoin="round" stroke-width="1.422" d="M35.494 43.868c-.947.074-2.044.48-2.044 2.589 0 2.398-.187 7.977 2.776 8.253 2.978.28 10.43.081 11.345-.11.91-.19 1.947-1.292 2.089-2.97.11-1.272.3-3.739.24-5.563-.053-1.593-.529-2.207-1.63-2.255-2.032-.09-11.256-.07-12.776.048v.008ZM68.58 43.478c.898.057 1.918.456 2.1 2.605.24 2.857.078 7.753-2.738 7.957-2.816.207-10.285.174-11.15 0-.87-.18-1.683-.91-1.853-2.625-.13-1.297-.399-3.698-.305-5.563.093-1.862.32-2.268 1.65-2.337 1.926-.098 10.854-.126 12.3-.032l-.004-.005Z"/><path fill="#fff" d="M50.855 54.604s-1.045-.418-2.215-.422c-1.967 0-4.186 1.954-2.609 4.279 1.235 1.824 5.096.873 5.726-1.114"/><path fill="#fff" d="M52.03 54.625c-.476 1.706-.728 3.145.792 3.99 1.186.658 4.689.935 5.656-1.187.679-1.49-.337-3.604-3.844-3.555-1.215.016-2.6.748-2.6.748"/><path stroke="#0E141B" stroke-linecap="round" stroke-linejoin="round" stroke-width="1.422" d="M50.855 54.604s-1.045-.418-2.215-.422c-1.967 0-4.186 1.954-2.609 4.279 1.235 1.824 5.096.873 5.726-1.114"/><path stroke="#0E141B" stroke-linecap="round" stroke-linejoin="round" stroke-width="1.422" d="M52.03 54.625c-.476 1.706-.728 3.145.792 3.99 1.186.658 4.689.935 5.656-1.187.679-1.49-.337-3.604-3.844-3.555-1.215.016-2.6.748-2.6.748"/><path fill="#0E141B" d="M53.386 54.495s-.15 2.04-2.137 2.243c0 0-1.626-.268-2.032-1.817 0 0 0-1.678 2.028-1.678S53.39 54.5 53.39 54.5l-.004-.004Z"/><path fill="#fff" d="M22.12 65.475c-.154 1.32.119 2.283 1.675 2.767 1.918.589 3.454-1.187 3.454-1.187s.2 2.19 2.524 2.329c1.406.085 2.523-1.321 2.523-1.321s.337 1.812 1.947 1.792c1.609-.016 2.15-1.374 2.15-1.374s.117 1.935 2.133 1.915c1.556-.017 2.117-1.22 2.117-1.22s2.283 1.065 3.218-.658c.93-1.727-.423-2.881-1.22-3.048 0 0 1.086-1.507-.353-2.759-1.442-1.251-3.27.203-3.27.203s-.525-2.15-2.081-2.54c-1.557-.39-2.946.102-3.219.253 0 0-.61-1.39-2.304-1.508-1.694-.118-2.353 1.032-2.353 1.032s-1.641-.898-3.181-.56c-1.54.337-1.93 1.71-1.93 1.71s-2-1.39-3.706.358c-1.711 1.743-.273 4.758 1.877 3.811v.005Z"/><path stroke="#0E141B" stroke-linecap="round" stroke-linejoin="round" stroke-width="1.422" d="M22.12 65.475c-.154 1.32.119 2.283 1.675 2.767 1.918.589 3.454-1.187 3.454-1.187s.2 2.19 2.524 2.329c1.406.085 2.523-1.321 2.523-1.321s.337 1.812 1.947 1.792c1.609-.016 2.15-1.374 2.15-1.374s.117 1.935 2.133 1.915c1.556-.017 2.117-1.22 2.117-1.22s2.283 1.065 3.218-.658c.93-1.727-.423-2.881-1.22-3.048 0 0 1.086-1.507-.353-2.759-1.442-1.251-3.27.203-3.27.203s-.525-2.15-2.081-2.54c-1.557-.39-2.946.102-3.219.253 0 0-.61-1.39-2.304-1.508-1.694-.118-2.353 1.032-2.353 1.032s-1.641-.898-3.181-.56c-1.54.337-1.93 1.71-1.93 1.71s-2-1.39-3.706.358c-1.711 1.743-.273 4.758 1.877 3.811v.005ZM26.538 54.015a1.593 1.593 0 1 0-3.186 0 1.593 1.593 0 0 0 3.186 0ZM30.577 56.173a1.09 1.09 0 1 0-2.178 0 1.09 1.09 0 0 0 2.178 0ZM64.451 76.292c-2.39-1.142-2.86-3.93-3.368-5.047-.508-1.118-1.22-2.845-1.22-4.267 0-1.422 1.118-4.978 5.791-6.908 4.673-1.93 9.041-.711 11.276 3.454 2.235 4.165 1.033 8.261-1.219 10.598-2.348 2.434-6.432 4.47-11.26 2.17Z"/><path fill="#0E141B" d="M65.703 72.67a.662.662 0 1 0 0-1.324.662.662 0 0 0 0 1.325ZM63.622 69.563a.662.662 0 1 0 0-1.325.662.662 0 0 0 0 1.325ZM66.601 66.795a.662.662 0 1 0 0-1.325.662.662 0 0 0 0 1.325ZM65.939 63.605a.662.662 0 1 0 0-1.325.662.662 0 0 0 0 1.325ZM70.53 63.341a.662.662 0 1 0 0-1.325.662.662 0 0 0 0 1.325ZM73.846 66.49a.662.662 0 1 0 0-1.325.662.662 0 0 0 0 1.325ZM71.039 70.485a.662.662 0 1 0 0-1.325.662.662 0 0 0 0 1.325ZM69.653 74.85a.658.658 0 1 0 0-1.318.658.658 0 0 0 0 1.317ZM74.964 71.147a.662.662 0 1 0 0-1.325.662.662 0 0 0 0 1.325Z"/><path stroke="#0E141B" stroke-linecap="round" stroke-linejoin="round" stroke-width="1.422" d="M71.307 76.897s4.742 7.656 4.81 8.265c.07.61-.743 2.914 1.22 3.32 1.963.407 2.1-1.828 2.1-1.828s2.72.727 2.776-1.492c.057-2.235-2.031-1.49-2.71-1.897-.537-.321-4.994-8.062-4.994-8.062"/><path fill="#6B500E" d="M79.39 83.16c-.293.682-2.5 2.982-4.052 2.206-.272-.135-.54-.374-.54-1.187-.533.032-1.05-.154-1.321-.845-.18-.451 0-1.15 0-1.15s-1.288-.476-1.22-1.743c.07-1.252 1.35-2.15 2.223-2.508.602-.248 1.622-.483 2.3-.231 1.483.548 2.845 2.856 2.845 4.242 0 .939-.232 1.215-.232 1.215h-.004Z"/><path stroke="#0E141B" stroke-linecap="round" stroke-linejoin="round" stroke-width="1.422" d="M42.288 69.164s-2.625 19.708-4.539 20.468c-1.913.76-16.969.167-18.777-3.047-.456-.813 2.795-21.11 2.795-21.11"/><path stroke="#0E141B" stroke-linecap="round" stroke-linejoin="round" stroke-width="1.422" d="M21.313 68.355s-3.597-1.763-4.93 2.78c-1.267 4.328 1.943 5.855 3.715 5.295M79.39 83.16c-.293.682-2.5 2.982-4.052 2.206-.272-.135-.54-.374-.54-1.187-.533.032-1.05-.154-1.321-.845-.18-.451 0-1.15 0-1.15s-1.288-.476-1.22-1.743c.07-1.252 1.35-2.15 2.223-2.508.602-.248 1.622-.483 2.3-.231 1.483.548 2.845 2.856 2.845 4.242 0 .939-.232 1.215-.232 1.215h-.004Z"/><path stroke="#0E141B" stroke-linecap="round" stroke-linejoin="round" stroke-width="1.422" d="M76.59 82.883s-.793.91-1.797 1.296M75.48 80.827c-.435.508-2.003 1.357-2.003 1.357M55.881 59.046s.748 5.242-2.962 5.595c-3.356.322-4.096-4.526-4.129-5.25"/></g><defs><clipPath id="a"><path fill="#fff" d="M8 6h86.558v90H8z"/></clipPath></defs></svg>