<svg xmlns="http://www.w3.org/2000/svg" width="102" height="102" fill="none"><g clip-path="url(#a)"><path fill="#FFD900" d="M24.412 58.161s-2.852.757-4.076-2.218c-.901-1.964-.09-4.11-.09-4.11s-2.655-.99-2.919-3.115c-.264-2.125.637-2.814.637-2.814s-3.612-1.326-2.813-4.037c.799-2.712 2.282-2.55 2.282-2.55s-2.656-2.5-1.22-4.624c1.437-2.125 3.294-2.02 3.294-2.02s-1.113-2.286 0-3.348c1.114-1.063 2.814-.689 2.814-.689s-1.858-2.443-.319-4.143c1.539-1.7 3.506 0 3.506 0s-2.55-2.814 0-5.207c2.55-2.392 3.876 0 3.876 0s-.05-2.762 1.594-3.561c1.645-.8 3.77 0 3.77 0s-.157-2.975 1.594-3.451c1.75-.476 3.4 0 3.4 0s-.213-1.862 1.593-2.176c1.806-.315 3.133 1.169 3.133 1.169s.059-2.406 1.857-2.657c2.656-.374 3.663 1.594 3.663 1.594s-.476-2.711 1.751-3.026c2.227-.314 3.239 1.539 3.239 1.539s-.638-2.5 1.645-2.814c2.282-.314 3.238 1.539 3.238 1.539s.264-3.4 3.081-3.294c2.818.106 2.708 2.601 2.708 2.601s3.506-2.231 4.938-.162c1.432 2.07 0 3.239 0 3.239s1.857-.264 2.338.956c.48 1.22-.638 2.601-.638 2.601s3.239-.106 3.294 2.231c.055 2.338-1.7 2.55-1.7 2.55s2.231.532 1.7 2.87c-.531 2.337-2.125 1.648-2.125 1.648s3.09.956 2.206 3.4c-.88 2.444-3.162 2.444-3.162 2.444s2.388.727 1.75 2.622c-.637 1.896-2.92 2.265-2.92 2.265s1.645.587 1.22 2.126c-.425 1.538-2.337 1.912-2.337 1.912s1.806.531 1.7 2.6c-.106 2.07-2.55 2.39-2.55 2.39s3.239 1.861 2.601 4.3c-.82 3.141-2.707 2.5-2.707 2.5s.85 2.656-1.063 3.773c-1.912 1.118-4.675-.161-4.675-.161"/><path stroke="#0E141B" stroke-linecap="round" stroke-linejoin="round" stroke-width="1.488" d="M24.412 58.161s-2.852.757-4.076-2.218c-.901-1.964-.09-4.11-.09-4.11s-2.655-.99-2.919-3.115c-.264-2.125.637-2.814.637-2.814s-3.612-1.326-2.813-4.037c.799-2.712 2.282-2.55 2.282-2.55s-2.656-2.5-1.22-4.624c1.437-2.125 3.294-2.02 3.294-2.02s-1.113-2.286 0-3.348c1.114-1.063 2.814-.689 2.814-.689s-1.858-2.443-.319-4.143c1.539-1.7 3.506 0 3.506 0s-2.55-2.814 0-5.207c2.55-2.392 3.876 0 3.876 0s-.05-2.762 1.594-3.561c1.645-.8 3.77 0 3.77 0s-.157-2.975 1.594-3.451c1.75-.476 3.4 0 3.4 0s-.213-1.862 1.593-2.176c1.806-.315 3.133 1.169 3.133 1.169s.059-2.406 1.857-2.657c2.656-.374 3.663 1.594 3.663 1.594s-.476-2.711 1.751-3.026c2.227-.314 3.239 1.539 3.239 1.539s-.638-2.5 1.645-2.814c2.282-.314 3.238 1.539 3.238 1.539s.264-3.4 3.081-3.294c2.818.106 2.708 2.601 2.708 2.601s3.506-2.231 4.938-.162c1.432 2.07 0 3.239 0 3.239s1.857-.264 2.338.956c.48 1.22-.638 2.601-.638 2.601s3.239-.106 3.294 2.231c.055 2.338-1.7 2.55-1.7 2.55s2.231.532 1.7 2.87c-.531 2.337-2.125 1.648-2.125 1.648s3.09.956 2.206 3.4c-.88 2.444-3.162 2.444-3.162 2.444s2.388.727 1.75 2.622c-.637 1.896-2.92 2.265-2.92 2.265s1.645.587 1.22 2.126c-.425 1.538-2.337 1.912-2.337 1.912s1.806.531 1.7 2.6c-.106 2.07-2.55 2.39-2.55 2.39s3.239 1.861 2.601 4.3c-.82 3.141-2.707 2.5-2.707 2.5s.85 2.656-1.063 3.773c-1.912 1.118-4.675-.161-4.675-.161"/><path fill="#6D530C" d="M21.628 65.471c1.13-1.262-.272-3.804-.833-4.832-.425-.782-2.163-3.043-3.366-2.16-1.181.868-.263 2.053-.263 2.053s-1.17-1.427-2.134-.407c-.812.858 0 2.214 0 2.214s-1.568-.816-1.92.442c-.354 1.258 1.576 2.852 3.17 3.472 1.593.62 3.442 1.347 5.346-.778M73.533 47.18s1.7.67 3.026-.566c1.326-1.241 2.176-3.047 2.176-3.047s.62-1.577-.284-2.125c-.948-.578-1.985.357-1.985.357s.57-2.155-.072-2.533c-.82-.489-1.824-.442-2.249 1.487 0 0 .073-1.534-1.364-1.453-1.24.072-2.903 6.358.744 7.88"/><path stroke="#0E141B" stroke-linecap="round" stroke-linejoin="round" stroke-width="1.488" d="M21.628 65.471c1.13-1.262-.272-3.804-.833-4.832-.425-.782-2.163-3.043-3.366-2.16-1.181.868-.263 2.053-.263 2.053s-1.17-1.427-2.134-.407c-.812.858 0 2.214 0 2.214s-1.568-.816-1.92.442c-.354 1.258 1.576 2.852 3.17 3.472 1.593.62 3.442 1.347 5.346-.778v-.004ZM73.533 47.18s1.7.67 3.026-.566c1.326-1.241 2.176-3.047 2.176-3.047s.62-1.577-.284-2.125c-.948-.578-1.985.357-1.985.357s.57-2.155-.072-2.533c-.82-.489-1.824-.442-2.249 1.487 0 0 .073-1.534-1.364-1.453-1.24.072-2.903 6.358.744 7.88h.008Z"/><path stroke="#0E141B" stroke-linecap="round" stroke-linejoin="round" stroke-width="1.488" d="M80.916 95.999s-3.094 1.113-13.294-.85C52.084 92.153 41.658 77.83 41.072 76.98c-.587-.85-1.037-1.53-1.59-1.538-10.943-.213-19.337-5.42-20.612-6.295-1.275-.875-1.964-1.513-1.751-2.256.234-.82 1.674-2.712 2.762-4.02 1.088-1.31 2.708-.128 2.708-.128s.425.71 7.862 3.578c7.438 2.869 11.352 2.091 11.352 2.091s11.738-1.946 17.514-7.297c5.772-5.347 10.166-14.025 10.944-16.397.778-2.371 2.584-1.38 2.584-1.38s4.51 2.239 4.964 2.774c.489.574.756 1.254.03 2.61-.935 1.75-5.666 12.04-8.322 15.585-2.656 3.54 13.21 22.312 16.116 24.118 0 0 2.304.285 2.516.689.28.535.561 2.074.383 2.231l-.965.247s.425 1.967.667 2.426c.285.536.714 1.896-.56 1.717-1.276-.178-3.507-2.354-3.507-2.354s.008 2.082.795 3.561c.671 1.258-2.053 1.751-4.038-.939L80.916 96Z"/><path fill="#fff" d="M44.71 68.484s5.419 6.91 12.563 8.522c0 0 1.7-2.232.157-14.05 0 0-9.856 4.177-12.724 5.528"/><path fill="#0E141B" d="M80.916 95.999s-3.094 1.113-13.294-.85C52.084 92.153 41.658 77.83 41.072 76.98c-.587-.85-1.037-1.53-1.59-1.538-10.943-.213-19.337-5.42-20.612-6.295-1.275-.875-1.964-1.513-1.751-2.256.234-.82 1.674-2.712 2.762-4.02 1.088-1.31 2.708-.128 2.708-.128s.425.71 7.862 3.578c7.438 2.869 11.352 2.091 11.352 2.091s11.738-1.946 17.514-7.297c5.772-5.347 10.166-14.025 10.944-16.397.778-2.371 2.584-1.38 2.584-1.38s4.51 2.239 4.964 2.774c.489.574.756 1.254.03 2.61-.935 1.75-5.666 12.04-8.322 15.585-2.656 3.54 13.21 22.312 16.116 24.118 0 0 2.304.285 2.516.689.28.535.561 2.074.383 2.231l-.965.247s.425 1.967.667 2.426c.285.536.714 1.896-.56 1.717-1.276-.178-3.507-2.354-3.507-2.354s.008 2.082.795 3.561c.671 1.258-2.053 1.751-4.038-.939"/><path fill="#fff" d="M44.71 68.484s5.419 6.91 12.563 8.522c0 0 1.7-2.232.157-14.05 0 0-9.856 4.177-12.724 5.528"/><path fill="#fff" d="m52.3 66.19 4.57 3.034s1.7.956 1.414-1.347c-.284-2.304-.565-4.922-.565-4.922L52.3 66.19Z"/><path stroke="#0E141B" stroke-linecap="round" stroke-linejoin="round" stroke-width="1.488" d="m52.3 66.19 5.134 3.348s1.135.642.85-1.661c-.284-2.304-.565-4.922-.565-4.922L52.3 66.19Z"/><path stroke="#0E141B" stroke-linecap="round" stroke-linejoin="round" stroke-width="1.275" d="m52.683 66.444-2.401 1.135v2.967s1.661.148 2.137.416 1.798 5.542 1.798 5.542l3.863 1.806.238-3.85-4.628-4.31s.344-1.84.888-2.443l-1.895-1.258v-.005Z"/><path stroke="#0E141B" stroke-linecap="round" stroke-linejoin="round" stroke-width="1.488" d="M44.71 68.484s5.419 6.91 12.563 8.522c0 0 1.7-2.232.157-14.05 0 0-9.856 4.177-12.724 5.528h.004Z"/><path fill="#0E141B" d="m52.683 66.444-2.401 1.135v2.967s1.661.148 2.137.416 1.798 5.542 1.798 5.542l3.863 1.806.238-3.85-4.628-4.31s.344-1.84.888-2.443l-1.895-1.258v-.005Z"/><path fill="#fff" d="m50.282 67.099-.566 5.827s.213.973-1.593.017c-1.807-.957-5.385-4.71-5.385-4.71l7.544-1.134Z"/><path stroke="#0E141B" stroke-linecap="round" stroke-linejoin="round" stroke-width="1.488" d="m50.282 67.099-.566 5.827s.213.973-1.593.017c-1.807-.957-5.385-4.71-5.385-4.71l7.544-1.134Z"/><path fill="#6D530C" d="M22.236 44.068c-.353 2.16-1.913 20.923 16.311 24.306 17.612 3.268 27.528-9.35 25.262-21.463C61.544 34.8 51.17 24.284 33.707 30.264c-9.104 3.115-10.987 10.85-11.471 13.804Z"/><path fill="#fff" d="M48.084 23.88c-.658.09-1.874 1.182-1.037 2.445 1.105 1.666 2.933.331 2.763-.85-.106-.744-.514-1.76-1.726-1.594ZM65.802 21.012c.277.433 1.16 1.11 2.053.523 1.186-.778 1.003-2.36-.365-2.86-1.369-.506-2.389 1.249-1.688 2.337ZM32.572 46.117c.913 2.231 3.344 1.3 4.037.45 0 0 1.352-1.776 1.492-3.204.132-1.339 1.721-2.508 3.209-3.014 1.487-.505 1.593-2.099 1.462-3.293-.132-1.194 1.25-1.275 2.524-2.338 1.275-1.062 2.036-2.125 1.47-3.638-.564-1.513-2.37-2.018-3.884-.161-1.513 1.857 0 3.876-2.418 5.206-2.418 1.33-4.488 1.462-5.02 3.562-.53 2.099-1.194 3.531-1.831 4.118-.638.586-1.513 1.143-1.037 2.312"/><path stroke="#0E141B" stroke-linecap="round" stroke-linejoin="round" stroke-width="1.488" d="M22.236 44.068c-.353 2.16-1.913 20.923 16.311 24.306 17.612 3.268 27.528-9.35 25.262-21.463C61.544 34.8 51.17 24.284 33.707 30.264c-9.104 3.115-10.987 10.85-11.471 13.804ZM48.084 23.88c-.658.09-1.874 1.182-1.037 2.445 1.105 1.666 2.933.331 2.763-.85-.106-.744-.514-1.76-1.726-1.594ZM65.802 21.012c.277.433 1.16 1.11 2.053.523 1.186-.778 1.003-2.36-.365-2.86-1.369-.506-2.389 1.249-1.688 2.337Z"/><path stroke="#0E141B" stroke-linecap="round" stroke-linejoin="round" stroke-width="1.488" d="M32.572 46.117c.913 2.231 3.344 1.3 4.037.45 0 0 1.352-1.776 1.492-3.204.132-1.339 1.721-2.508 3.209-3.014 1.487-.505 1.593-2.099 1.462-3.293-.132-1.194 1.25-1.275 2.524-2.338 1.275-1.062 2.036-2.125 1.47-3.638-.564-1.513-2.37-2.018-3.884-.161-1.513 1.857 0 3.876-2.418 5.206-2.418 1.33-4.488 1.462-5.02 3.562-.53 2.099-1.194 3.531-1.831 4.118-.638.586-1.513 1.143-1.037 2.312h-.004Z"/><path stroke="#0E141B" stroke-linecap="round" stroke-linejoin="round" stroke-width="1.488" d="M22.444 49.674s-2.053 1.028-1.453 1.594c.603.565 2.09.233 2.09.233s.672-.127.884.51c.213.638 1.628 3.613 2.091 4.216.46.604 1.275.944 2.584.685 1.31-.26 6.341-1.815 6.341-1.815s2.253-.871 2.72-1.36c.468-.485 1.267-1.645.885-2.852-.383-1.211-1.088-5.461-1.87-6.239-.778-.778-2.338-1.521-7.332.319-4.994 1.84-6.447 1.734-6.409 3.26.034 1.521-.531 1.453-.531 1.453v-.004Z"/><path stroke="#0E141B" stroke-linecap="round" stroke-linejoin="round" stroke-width="1.488" d="M37.63 46.933s.59-1.105 2.107-1.64c1.628-.575 3.107-.575 3.107-.575l.247.923s-1.08-.225-3.116.531c-2.04.76-2.112 1.696-2.112 1.696l-.234-.931v-.004Z"/><path fill="#0E141B" d="M22.444 49.674s-2.053 1.028-1.453 1.594c.603.565 2.09.233 2.09.233s.672-.127.884.51c.213.638 1.628 3.613 2.091 4.216.46.604 1.275.944 2.584.685 1.31-.26 6.341-1.815 6.341-1.815s2.253-.871 2.72-1.36c.468-.485 1.267-1.645.885-2.852-.383-1.211-1.088-5.461-1.87-6.239-.778-.778-2.338-1.521-7.332.319-4.994 1.84-6.447 1.734-6.409 3.26.034 1.521-.531 1.453-.531 1.453"/><path fill="#595857" d="M24.522 49.674c-.144-.404-.31-1.135.79-1.594 1.085-.45 1.88-.578 1.88-.578s1.38-.412 1.045 1.377c-.336 1.79-.332 2.27-.62 3.043-.166.442-1.165 1.526-1.84.332-.583-1.037-.991-1.845-1.25-2.576M35.691 50.35c-.425.076-1.22.437-.9 1.478.318 1.042 1.75.923 2.095.209.348-.731.025-1.904-1.19-1.688"/><path fill="#fff" d="M56.32 39.21s-.717 2.631 1.514 2.176c2.231-.454 4.594-1.39 4.794-3.62.178-2.002.06-3.265.833-4.51 1.143-1.832 3.71-1.7 4.505-4.13.463-1.416.969-3.647-.493-4.157-1.9-.663-2.338 1.687-3.056 3.565-.718 1.879-2.6 1.34-4.037 2.657-1.437 1.317-1.118 2.643-1.305 4.292-.187 1.65-2.359 1.887-2.758 3.723"/><path stroke="#0E141B" stroke-linecap="round" stroke-linejoin="round" stroke-width="1.488" d="M56.32 39.21s-.717 2.631 1.514 2.176c2.231-.454 4.594-1.39 4.794-3.62.178-2.002.06-3.265.833-4.51 1.143-1.832 3.71-1.7 4.505-4.13.463-1.416.969-3.647-.493-4.157-1.9-.663-2.338 1.687-3.056 3.565-.718 1.879-2.6 1.34-4.037 2.657-1.437 1.317-1.118 2.643-1.305 4.292-.187 1.65-2.359 1.887-2.758 3.723l.004.004Z"/><path stroke="#0E141B" stroke-linecap="round" stroke-linejoin="round" stroke-width="1.488" d="M42.05 43.711c-.183-.803.157-2.6 1.767-3.14 1.624-.549 8.547-3.035 9.903-3.218 1.356-.183 2.524-.506 3.663 1.993 1.14 2.5 1.271 3.247 1.48 4.463.17 1.003.203 2.558-1.514 3.434-1.93.986-6.553 3.166-6.553 3.166s-4.008 2.04-5.831-.812c-1.743-2.724-2.559-4.313-2.916-5.886Z"/><path fill="#0E141B" d="M42.05 43.711c-.183-.803.157-2.6 1.767-3.14 1.624-.549 8.547-3.035 9.903-3.218 1.356-.183 2.524-.506 3.663 1.993 1.14 2.5 1.271 3.247 1.48 4.463.17 1.003.203 2.558-1.514 3.434-1.93.986-6.553 3.166-6.553 3.166s-4.008 2.04-5.831-.812c-1.743-2.724-2.559-4.313-2.916-5.886Z"/><path fill="#595857" d="M45.339 41.633s2.019-.867 2.019 1.152c0 2.018.068 2.341-.09 3.098-.093.442-.53 1.56-1.691.654-1.152-.896-1.78-1.742-2.07-2.516-.25-.658-.807-1.56 1.832-2.388ZM55.365 43.019c-.43.046-1.186.161-1.382 1.147-.195.99.914 2.12 2.227 1.309 1.314-.816.765-2.627-.845-2.456Z"/><path fill="#fff" d="M40.885 53.13s-2.444-.532-4.012 1.355c-1.658 1.993-1.326 4.888 1.356 5.976 3.106 1.262 5.605-1.7 5.363-3.026-.242-1.327-.344-3.8-2.707-4.302"/><path stroke="#0E141B" stroke-linecap="round" stroke-linejoin="round" stroke-width="1.488" d="M40.885 53.13s-2.444-.532-4.012 1.355c-1.658 1.993-1.326 4.888 1.356 5.976 3.106 1.262 5.605-1.7 5.363-3.026-.242-1.327-.344-3.8-2.707-4.302v-.004Z"/><path fill="#fff" d="M42.72 53.074c-.73.948-1.283 3.039.37 4.9 1.386 1.556 4.599 1.53 6.563-.25 1.963-1.781 1.568-4.701.187-5.738-1.382-1.037-4.969-1.7-7.12 1.088Z"/><path stroke="#0E141B" stroke-linecap="round" stroke-linejoin="round" stroke-width="1.488" d="M42.72 53.074c-.73.948-1.283 3.039.37 4.9 1.386 1.556 4.599 1.53 6.563-.25 1.963-1.781 1.568-4.701.187-5.738-1.382-1.037-4.969-1.7-7.12 1.088Z"/><path fill="#0E141B" d="M40.222 51.217c-.842.365-2.257 1.683-1.335 3.4 1.105 2.061 4.382.416 4.629-1.16.276-1.743-.931-3.264-3.294-2.24Z"/></g><defs><clipPath id="a"><path fill="#fff" d="M12.325 3.4h76.997v95.298H12.325z"/></clipPath></defs></svg>