<svg xmlns="http://www.w3.org/2000/svg" width="102" height="102" fill="none"><g clip-path="url(#a)"><path fill="#fff" d="m68.414 95.43-.397-14.527 3.43-8.32-1.415-1.662-35.358 1.042-.102 4.306 6.512 5.355L42.51 95.86s12.163 5.084 25.903-.433v.004Z"/><path stroke="#0E141B" stroke-linecap="round" stroke-linejoin="round" stroke-width="1.488" d="m68.414 95.43-.393-14.527-26.937.73 1.427 14.23"/><path fill="#F9D2D4" d="M56.888 14.423c-1.172-.75-2.786-1.727-3.937-2.53-1.74-1.216-2.895-2.444-6.082 1.164-3.105 3.515-12.67 10.61-17.13 14.527-3 2.635-15.15 15.382-8.242 32.03C27.58 74.277 47.173 76.71 62.717 73.6c14.815-2.964 29.845-20.62 16.96-41.083-3.519-5.591-19.72-16.137-22.79-18.095Z"/><path fill="#EF8585" d="M39.551 55.052c-.251 1.675-2.222 2.279-5.429 2.279-3.207 0-5.802-.406-5.802-2.279 0-1.26 2.863-2.481 6.07-2.481 3.207 0 5.502.227 5.161 2.481Z"/><path fill="#fff" d="M25.608 65.987c1.387-.844 3.284-2.25 3.353-4.209.04-1.188-.924-3.065-.397-4.443.77-2.028 3.186-2.303 3.64-3.75.374-1.185.17-3.228.17-3.228l-4.054-1.285s-1.252 1.674-.891 3.99c.247 1.585-2.048 1.11-2.859 2.732-.486.977-.17 2.603.235 3.953.406 1.35-2.16 2.197-2.16 2.197M45.937 56.734s-3.276-1.269-1.35-3.498c1.925-2.23 9.227-2.668 10.659-1.4 1.054.933.717 2.916-.977 3.978-2.226 1.395-4.46 2.104-8.332.92Z"/><path fill="#EF8585" d="M74.013 52.839c-.251 1.674-2.222 2.278-5.429 2.278-3.207 0-5.801-.405-5.801-2.278 0-1.261 2.862-2.482 6.069-2.482s5.502.227 5.161 2.482Z"/><path fill="#fff" d="M82.543 57.33c-3.45.455-3.746-1.569-3.847-3.101-.102-1.533-.555-2.83-3.698-3.337-3.142-.507-2.38-5.17-2.38-5.17l-4.407 2.182s-1.163 5.778 2.332 6.325c1.43.223 4.135-.69 4.358 3.827.15 3.07 5.534 3.32 5.87 2.757M37.252 47.02c-.186 1.614-1.496 1.646-2.66 1.646-1.163 0-2.035-1.463-2.035-2.627 0-1.163 1.277-2.01 2.44-2.01 1.164 0 2.454 1.289 2.255 2.991Z"/><path stroke="#0E141B" stroke-linecap="round" stroke-linejoin="round" stroke-width="1.488" d="M52.95 11.893c-1.82-1.094-2.959-2.445-6.08 1.164-3.066 3.547-12.67 10.61-17.13 14.527-3 2.635-15.152 15.382-8.243 32.03C27.58 74.277 47.173 76.71 62.717 73.6c14.815-2.964 29.845-20.864 16.96-41.083-3.551-5.575-21.156-17.276-26.726-20.625Z"/><path stroke="#0E141B" stroke-linecap="round" stroke-linejoin="round" stroke-width="1.488" d="M45.937 56.734s-3.276-1.269-1.35-3.498c1.925-2.23 9.227-2.668 10.659-1.4 1.054.933.717 2.916-.977 3.978-2.226 1.395-4.46 2.104-8.332.92ZM82.543 57.33c-3.45.455-3.746-1.569-3.847-3.101-.102-1.533-.555-2.83-3.698-3.337-3.142-.507-2.38-5.17-2.38-5.17l-4.407 2.182s-1.163 5.778 2.332 6.325c1.43.223 4.135-.69 4.358 3.827.15 3.07 5.534 3.32 5.87 2.757M25.608 65.987c1.387-.844 3.284-2.25 3.353-4.209.04-1.188-.924-3.065-.397-4.443.77-2.028 3.186-2.303 3.64-3.75.374-1.185.17-3.228.17-3.228l-4.054-1.285s-1.252 1.674-.891 3.99c.247 1.585-2.048 1.11-2.859 2.732-.486.977-.17 2.603.235 3.953.406 1.35-2.16 2.197-2.16 2.197"/><path fill="#0E141B" d="M45.17 40.558c0 9.544-5.473 10.898-11.632 10.898-6.158 0-9.933-3.726-9.933-9.885 0-6.158 4.282-11.912 10.44-11.912 6.159 0 11.125 1.837 11.125 10.899Z"/><path fill="#fff" d="M34.134 37.08c-.373 3.21-2.007 4.722-4.326 4.722-2.319 0-3.616-1.423-3.616-3.742s1.978-5.125 4.297-5.125c2.32 0 4.035.759 3.641 4.144M42.985 39.848c-.288 2.506-1.942 2.566-3.75 2.566-1.809 0-2.534-1.467-2.534-3.275 0-1.809 1.232-2.737 3.04-2.737 1.809 0 3.548.799 3.244 3.446Z"/><path fill="#0E141B" d="M75.826 37.82c.174 9.545-7.189 12.095-13.347 12.095-6.16 0-9.63-3.04-10.327-9.816-.787-7.638 4.776-12.82 10.935-12.82 6.158 0 12.6 3.175 12.739 10.542Z"/><path fill="#fff" d="M63.164 34.829c-.779 3.211-2.624 4.545-4.98 4.253-2.35-.288-3.49-1.898-3.202-4.249.288-2.352 2.647-4.954 4.999-4.667 2.351.288 4.002 1.273 3.178 4.663M74.01 38.563c-.293 2.505-1.943 2.566-3.751 2.566-1.808 0-2.534-1.467-2.534-3.276 0-1.808 1.232-2.736 3.04-2.736 1.809 0 3.548.803 3.244 3.446ZM67.064 43.801c-.22 1.886-1.752 1.926-3.114 1.926-1.362 0-2.38-1.71-2.38-3.073 0-1.362 1.492-2.348 2.854-2.348 1.363 0 2.867 1.505 2.636 3.495M71.033 71.918s1.147 1.014 1.135 4.456c-.016 4.059-2.299 10.61-9.256 11.555-6.961.945-11.883-4.188-13.002-10.067-1.12-5.879-.649-8.437 2.258-8.445 2.299-.008 3.2 5.084 4.391 7.265.779 1.42 2.81 3.75 4.796 2.87 2.603-1.147 2.4-3.413 2.4-3.413"/><path stroke="#0E141B" stroke-linecap="round" stroke-linejoin="round" stroke-width="1.488" d="M70.072 70.965s2.3 1.35 2.096 5.405c-.202 4.054-2.299 10.61-9.256 11.555-6.961.945-11.883-4.188-13.002-10.067-1.12-5.879-.649-8.437 2.258-8.445 2.299-.008 3.2 5.084 4.391 7.265.779 1.42 2.81 3.75 4.796 2.87 2.603-1.147 2.4-3.413 2.4-3.413"/><path fill="#fff" d="M39.928 76.694s.203 3.017 2.129 3.447c2.91.648 3.904-.974 3.851-6.333-.048-4.967 3.442-3.576 4.375-2.23.758 1.094 1.857 6.892 0 10.813-2.137 4.508-5.948 8.108-11.352 5.473-3.82-1.86-4.367-9.029-4.359-13.071"/><path stroke="#0E141B" stroke-linecap="round" stroke-linejoin="round" stroke-width="1.488" d="M34.674 71.967S33.526 85.225 38.93 87.86c5.404 2.635 9.215-.965 11.352-5.474 1.857-3.92.56-9.6 0-10.813-.718-1.552-4.428-2.736-4.375 2.23.053 5.36-.94 6.982-3.851 6.333-1.926-.43-2.129-3.446-2.129-3.446"/><path fill="#BAE3F9" d="M21.854 16.937s1.29 4.764-3.373 6.223c0 0 3.936.122 5.116 5.328 0 0 .012-5.307 3.47-6.2 0 0-5.286-1.439-5.213-5.355v.004Z"/><path stroke="#0E141B" stroke-linecap="round" stroke-linejoin="round" stroke-width="1.488" d="M21.854 16.937s1.29 4.764-3.373 6.223c0 0 3.936.122 5.116 5.328 0 0 .012-5.307 3.47-6.2 0 0-5.286-1.439-5.213-5.355v.004Z"/><path fill="#BAE3F9" d="M11.835 42.415s.045 4.934-3.126 5.85c0 0 3.613 0 4.395 5.165 0 0-.782-5.51 3.207-5.931 0 0-3.45-.304-4.48-5.084h.004ZM45.612 24.21s.195 4.205-2.818 4.691c0 0 3.362-.048 3.755 4.634 0 0 .397-4.634 3.016-5.49 0 0-4.123-.413-3.953-3.835Z"/><path stroke="#0E141B" stroke-linecap="round" stroke-linejoin="round" stroke-width="1.488" d="M11.835 42.415s.045 4.934-3.126 5.85c0 0 3.613 0 4.395 5.165 0 0-.782-5.51 3.207-5.931 0 0-3.45-.304-4.48-5.084h.004ZM45.612 24.21s.195 4.205-2.818 4.691c0 0 3.362-.048 3.755 4.634 0 0 .397-4.634 3.016-5.49 0 0-4.123-.413-3.953-3.835Z"/><path fill="#fff" d="M37.252 47.02c-.186 1.614-1.496 1.646-2.66 1.646-1.163 0-2.035-1.463-2.035-2.627 0-1.163 1.277-2.01 2.44-2.01 1.164 0 2.454 1.289 2.255 2.991Z"/></g><defs><clipPath id="a"><path fill="#fff" d="M8 10h77.272v88H8z"/></clipPath></defs></svg>