<svg xmlns="http://www.w3.org/2000/svg" width="102" height="102" fill="none"><g clip-path="url(#a)"><path fill="#F6AC1A" d="M25.383 35.932c-.638-2.303-3.16-5.657-7.277-3.684-4.092 1.96-2.788 6.45-1.399 7.757"/><path stroke="#0E141B" stroke-linecap="round" stroke-linejoin="round" stroke-width="1.584" d="M25.383 35.932c-.638-2.303-3.16-5.657-7.277-3.684-4.092 1.96-2.788 6.45-1.399 7.757"/><path fill="#F6AC1A" d="M38.534 33.14c.53-2.485 2.996-6.2 7.485-4.363 4.463 1.824 3.363 6.666 1.97 8.142"/><path stroke="#0E141B" stroke-linecap="round" stroke-linejoin="round" stroke-width="1.584" d="M38.534 33.14c.53-2.485 2.996-6.2 7.485-4.363 4.463 1.824 3.363 6.666 1.97 8.142"/><path fill="#F6AC1A" stroke="#0E141B" stroke-linecap="round" stroke-linejoin="round" stroke-width="1.584" d="M12.041 53.609c-1.077-12.98 8.486-21.451 20.135-22.42 11.282-.936 21.781 4.702 22.917 18.487 1.086 13.192-9.667 20.144-20.944 21.08-11.101.919-21.012-3.955-22.103-17.147h-.005Z"/><path fill="#0E141B" d="M75.051 75.988s11.753 3.457 13.808-3.901c1.462-5.227-2.72-7.34-8.698-8.576"/><path stroke="#0E141B" stroke-linecap="round" stroke-linejoin="round" stroke-width="1.584" d="M75.051 75.988s11.753 3.457 13.808-3.901c1.462-5.227-2.72-7.34-8.698-8.576"/><path fill="#FFD900" d="M57.053 68.231c-.475.652-1.485 1.055-2.557.937a2.628 2.628 0 0 1-2.322-2.258c-.367.217-.787.33-1.235.298-1.1-.077-1.946-.995-2.037-2.122a2.09 2.09 0 0 1-1.045.195c-1.222-.087-2.136-1.204-2.041-2.499.027-.38.14-.733.312-1.036a2.22 2.22 0 0 1-.462.018c-1.217-.086-2.136-1.204-2.04-2.498a2.42 2.42 0 0 1 .43-1.222c-1.023-.267-1.743-1.28-1.662-2.435a2.389 2.389 0 0 1 1.06-1.837c-1.037-.299-1.761-1.344-1.675-2.525.063-.919.602-1.688 1.34-2.055-.802-.511-1.308-1.498-1.231-2.593.081-1.118.746-2.036 1.642-2.417-.588-.484-1.086-1.42-1.027-2.267.09-1.29.955-2.308 2.159-2.313-.475-.457-1.091-1.29-.729-2.38.434-1.308 1.267-1.52 2.408-1.598-.733-.742-.887-2.127-.444-2.937.697-1.267 1.874-1.384 2.91-1.33-.357-.511-.733-1.647.104-2.566 1.145-1.263 2.747-.407 2.987-.294-.23-1.177-.122-2.317.914-2.96 1.123-.697 2.602-.172 2.978.073-.027-1.136.253-1.716 1.29-2.164.855-.37 2.181-.127 2.674.584-.009-1.24.982-1.991 2.146-2.046.86-.04 1.755.539 2.104 1.304.262-1.362 1.095-2.041 2.33-2.132 1.82-.13 2.653 1.06 2.901 2 .272-1.248 1.173-2.144 2.738-2.031 1.566.113 2.336 1.122 2.426 2.398.38-.896 1.371-1.96 3.154-1.57 1.209.262 1.942 1.054 2.01 2.44.448-.707 1.42-1.16 2.267-.997 1.14.222 2.018 1.105 1.833 2.331.584-.633 1.932-.688 2.729-.199.96.593 1.158 1.204.973 2.322.407-.186 1.95-.503 2.96.348.932.783.877 1.924.484 3.06.253-.078 1.96-.698 2.914.714.697 1.028.168 2.1-.262 2.557 1.032.095 2.181.376 2.692 1.73.326.864-.018 2.212-.85 2.841 1.117.24 1.914.57 2.158 1.923.204 1.127-.525 1.87-1.059 2.254 1.19.177 1.901 1.304 1.806 2.598-.059.85-.688 1.706-1.335 2.1.833.502 1.367 1.507 1.285 2.625-.077 1.095-.72 1.995-1.584 2.39.68.465 1.105 1.302 1.037 2.221-.086 1.181-.946 2.114-2.014 2.263.53.466.846 1.181.787 1.969-.081 1.154-.937 2.054-1.987 2.176.19.376.286.815.254 1.272-.09 1.294-1.154 2.272-2.376 2.186a2.103 2.103 0 0 1-.453-.082c.127.326.19.693.163 1.073-.09 1.294-1.154 2.272-2.376 2.186a2.08 2.08 0 0 1-1.004-.34c-.25 1.105-1.218 1.892-2.317 1.81a2.104 2.104 0 0 1-1.181-.47c-.344 1.172-1.403 1.52-2.607 1.425-1.29-.108-1.955-1.072-2.154-1.873"/><path stroke="#0E141B" stroke-linecap="round" stroke-linejoin="round" stroke-width="1.584" d="M57.053 68.231c-.475.652-1.485 1.055-2.557.937a2.628 2.628 0 0 1-2.322-2.258c-.367.217-.787.33-1.235.298-1.1-.077-1.946-.995-2.037-2.122a2.09 2.09 0 0 1-1.045.195c-1.222-.087-2.136-1.204-2.041-2.499.027-.38.14-.733.312-1.036a2.22 2.22 0 0 1-.462.018c-1.217-.086-2.136-1.204-2.04-2.498a2.42 2.42 0 0 1 .43-1.222c-1.023-.267-1.743-1.28-1.662-2.435a2.389 2.389 0 0 1 1.06-1.837c-1.037-.299-1.761-1.344-1.675-2.525.063-.919.602-1.688 1.34-2.055-.802-.511-1.308-1.498-1.231-2.593.081-1.118.746-2.036 1.642-2.417-.588-.484-1.086-1.42-1.027-2.267.09-1.29.955-2.308 2.159-2.313-.475-.457-1.091-1.29-.729-2.38.434-1.308 1.267-1.52 2.408-1.598-.733-.742-.887-2.127-.444-2.937.697-1.267 1.874-1.384 2.91-1.33-.357-.511-.733-1.647.104-2.566 1.145-1.263 2.747-.407 2.987-.294-.23-1.177-.122-2.317.914-2.96 1.123-.697 2.602-.172 2.978.073-.027-1.136.253-1.716 1.29-2.164.855-.37 2.181-.127 2.674.584-.009-1.24.982-1.991 2.146-2.046.86-.04 1.755.539 2.104 1.304.262-1.362 1.095-2.041 2.33-2.132 1.82-.13 2.653 1.06 2.901 2 .272-1.248 1.173-2.144 2.738-2.031 1.566.113 2.336 1.122 2.426 2.398.38-.896 1.371-1.96 3.154-1.57 1.209.262 1.942 1.054 2.01 2.44.448-.707 1.42-1.16 2.267-.997 1.14.222 2.019 1.105 1.833 2.331.584-.633 1.932-.688 2.729-.199.96.593 1.158 1.204.973 2.322.407-.186 1.95-.503 2.96.348.932.783.877 1.924.484 3.06.253-.078 1.96-.698 2.914.714.697 1.028.168 2.1-.262 2.557 1.032.095 2.181.376 2.692 1.73.326.864-.018 2.212-.85 2.841 1.117.24 1.914.57 2.158 1.923.204 1.127-.525 1.87-1.059 2.254 1.19.177 1.901 1.304 1.806 2.598-.059.85-.688 1.706-1.335 2.1.833.502 1.367 1.507 1.285 2.625-.077 1.095-.72 1.995-1.584 2.39.68.465 1.105 1.302 1.037 2.221-.086 1.181-.946 2.114-2.014 2.263.53.466.846 1.181.787 1.969-.081 1.154-.937 2.054-1.987 2.176.19.376.286.815.254 1.272-.09 1.294-1.154 2.272-2.376 2.186a2.103 2.103 0 0 1-.453-.082c.127.326.19.693.163 1.073-.09 1.294-1.154 2.272-2.376 2.186a2.08 2.08 0 0 1-1.004-.34c-.25 1.105-1.218 1.892-2.317 1.81a2.104 2.104 0 0 1-1.181-.47c-.344 1.172-1.403 1.52-2.607 1.425-1.29-.108-1.955-1.072-2.154-1.873"/><path fill="#A1D8E6" stroke="#0E141B" stroke-linecap="round" stroke-linejoin="round" stroke-width="1.584" d="M55.138 19.183s.575-2.955-.407-4.263c-1.62-2.159-3.919-.846-4.186.665-.158.878.176 1.639.896 2.145.588.412 1.267.58 1.846.788 1.132.398 1.856.665 1.856.665h-.005ZM41.521 7.326s-1.792-1.195-3.525-.367c-1.901.91-1.394 2.761-.15 2.956a1.515 1.515 0 0 0 1.408-.548c.258-.308.516-.692.819-.955.878-.765 1.448-1.081 1.448-1.081v-.005ZM58.004 13.1s1.778-3.624-.444-6.095c-2.023-2.25-4.123-.95-4.222.493-.06.815.298 1.498 1.113 2.037.48.316 1.131.67 1.548 1.063 1.172 1.104 2 2.503 2 2.503h.005Z"/><path fill="#F6AC1A" d="M47.215 90.777s-.218-10.558 2.475-18.224l-16.287-7.21-25.61 23.452s15.273 5.865 39.422 1.982Z"/><path fill="#0E141B" d="M80.337 68.797c-3.82-.751-12.998-5.494-23.881-1.733-11.11 3.833-10.427 23.591-10.427 23.591s13.377 2.53 27.85-.299c0 0 .163-9.974 2.865-14.911"/><path stroke="#0E141B" stroke-linecap="round" stroke-linejoin="round" stroke-width="1.584" d="M80.337 68.797c-3.82-.751-12.998-5.494-23.881-1.733-11.11 3.833-10.427 23.591-10.427 23.591s13.377 2.53 27.85-.299c0 0 .163-9.974 2.865-14.911"/><path fill="#F6AC1A" d="M7.792 88.795s.403-17.604 11.242-23.365c9.164-4.87 20.55-3.738 27.56-4.494 8.857-.955 15.392-4.091 19.524-3.774 4.227.325 5.535 6.114 2.005 9.191-3.232 2.82-14.12 5.372-19.27 6.196"/><path stroke="#0E141B" stroke-linecap="round" stroke-linejoin="round" stroke-width="1.584" d="M7.792 88.795s.403-17.604 11.242-23.365c9.164-4.87 20.55-3.738 27.56-4.494 8.857-.955 15.392-4.091 19.524-3.774 4.227.325 5.535 6.114 2.005 9.191-3.232 2.82-14.12 5.372-19.27 6.196"/><path stroke="#0E141B" stroke-linecap="round" stroke-linejoin="round" stroke-width="1.584" d="M47.214 90.777s-.217-10.558 2.476-18.224M16.355 73.598s-3.435 6.255-3.395 16.645"/></g><defs><clipPath id="a"><path fill="#fff" d="M7 5h92v87.493H7z"/></clipPath></defs></svg>