<svg xmlns="http://www.w3.org/2000/svg" width="102" height="102" fill="none"><g clip-path="url(#a)"><path fill="#F6AC1A" d="M45.543 14.522c-.349-2.533-2.546-6.451-7.195-4.947-4.62 1.496-3.876 6.443-2.588 8.033"/><path stroke="#0E141B" stroke-linecap="round" stroke-linejoin="round" stroke-width="1.488" d="M45.543 14.522c-.349-2.533-2.546-6.451-7.195-4.947-4.62 1.496-3.876 6.443-2.588 8.033"/><path fill="#F6AC1A" d="M58.828 14.573c.366-2.533 2.593-6.434 7.234-4.892 4.607 1.535 3.83 6.473 2.529 8.054"/><path stroke="#0E141B" stroke-linecap="round" stroke-linejoin="round" stroke-width="1.488" d="M58.828 14.573c.366-2.533 2.593-6.434 7.234-4.892 4.607 1.535 3.83 6.473 2.529 8.054"/><path fill="#F6AC1A" d="M39.618 73.045c-2.715-5.087-5.193-10.264-5.678-11.059-2.592-4.267 4.765-21.233 17.28-21.186 12.122.047 27.486 7.969 19.508 19.622-.272.4-3.191 8.551-6.09 13.651"/><path stroke="#0E141B" stroke-linecap="round" stroke-linejoin="round" stroke-width="1.488" d="M39.618 73.045c-2.715-5.087-5.193-10.264-5.678-11.059-2.592-4.267 4.765-21.233 17.28-21.186 12.122.047 27.486 7.969 19.508 19.622-.272.4-3.191 8.551-6.09 13.651"/><path fill="#fff" d="M59.13 57.715s2.716 2.061 3.557 5.908c.978 4.45.239 9.57-1.648 11.517-1.785 1.84-4.476.93-8.909.349-4.241-.557-8.147-.345-9.613-3.235-1.39-2.732-1.913-6.49-1.012-9.32.83-2.605 3.03-4.777 3.672-5.266l3.464 3.311 3.57-3.362 3.85 3.345s1.2-1.1 3.074-3.247h-.005Z"/><path fill="#F6AC1A" stroke="#0E141B" stroke-linecap="round" stroke-linejoin="round" stroke-width="1.488" d="M28.773 33.26c.05-13.948 10.812-22.095 23.328-22.048 12.12.046 23.218 8.1 23.162 22.223C75.213 47.609 64.06 54.443 51.94 54.4c-11.925-.047-23.222-6.966-23.166-21.14Z"/><path fill="#0E141B" d="M57.57 23.647s3.626-.136 7.863.06l-7.862-.06Z"/><path stroke="#0E141B" stroke-linecap="round" stroke-linejoin="round" stroke-width="1.913" d="M57.57 23.647s3.626-.136 7.863.06"/><path fill="#fff" d="M51.145 33.63c-3.103-1.041-5.415.765-5.606 2.818-.153 1.675 1.317 3.285 3.094 3.421 1.916.145 2.932-.824 3.387-1.98.395 1.177 1.581 2.006 3.506 2.006 1.45 0 2.95-1.156 3.043-3.2.09-1.909-1.708-4.259-5.427-3.014l-1.012.447"/><path stroke="#0E141B" stroke-linecap="round" stroke-linejoin="round" stroke-width="1.488" d="M51.145 33.63c-3.103-1.041-5.415.765-5.606 2.818-.153 1.675 1.317 3.285 3.094 3.421 1.916.145 2.932-.824 3.387-1.98.395 1.177 1.581 2.006 3.506 2.006 1.45 0 2.95-1.156 3.043-3.2.09-1.909-1.708-4.259-5.427-3.014l-1.012.447"/><path fill="#0E141B" d="M38.033 23.617s3.626-.136 7.863.06l-7.863-.06Z"/><path stroke="#0E141B" stroke-linecap="round" stroke-linejoin="round" stroke-width="1.913" d="M38.033 23.617s3.626-.136 7.863.06"/><path fill="#0E141B" d="M50.052 33.227c-.119.782 1.033 2.41 2.062 2.392.922-.017 1.967-1.385 2.12-2.452.187-1.317-3.846-2.104-4.182.064v-.004ZM44.022 28.985c0 .859-.702 1.556-1.564 1.551a1.554 1.554 0 0 1-1.552-1.564c0-.858.702-1.555 1.564-1.55.859 0 1.556.7 1.552 1.563ZM63.104 28.994c0 .858-.701 1.555-1.564 1.55a1.554 1.554 0 0 1-1.551-1.563c0-.859.701-1.556 1.564-1.552.858 0 1.555.702 1.551 1.565Z"/><path fill="#EC6D70" d="M33.422 23.69s-4.853-.834-6.906-1.05c0 0 .493-4.335.994-6.014 0 0 4.174.412 6.894 1.135"/><path stroke="#0E141B" stroke-linecap="round" stroke-linejoin="round" stroke-width="1.488" d="M33.422 23.69s-4.853-.834-6.906-1.05c0 0 .493-4.335.994-6.014 0 0 4.174.412 6.894 1.135"/><path stroke="#0E141B" stroke-linecap="round" stroke-linejoin="round" stroke-width="1.488" d="M32.304 31.884s1.173-9.593 2.3-15.126"/><path fill="#F6AC1A" d="M33.592 61.136c-2.83-5.538-8.151-11.683-9.103-24.697-.45-6.166 3.502-7.951 5.758-7.913 2.257.038 5.147 1.785 5.687 6.774 1.024 9.44 4.39 16.771 6.68 17.549"/><path stroke="#0E141B" stroke-linecap="round" stroke-linejoin="round" stroke-width="1.488" d="M33.592 61.136c-2.83-5.538-8.151-11.683-9.103-24.697-.45-6.166 3.502-7.951 5.758-7.913 2.257.038 5.147 1.785 5.687 6.774 1.024 9.44 4.39 16.771 6.68 17.549"/><path fill="#8CD2F1" d="M78.247 24.476s-4.777-1.203-6.804-1.573c0 0 .824-4.284 1.453-5.92 0 0 4.19.727 6.847 1.658"/><path stroke="#0E141B" stroke-linecap="round" stroke-linejoin="round" stroke-width="1.488" d="M78.247 24.476s-4.777-1.203-6.804-1.573c0 0 .824-4.284 1.453-5.92 0 0 4.19.727 6.847 1.658"/><path stroke="#0E141B" stroke-linecap="round" stroke-linejoin="round" stroke-width="1.488" d="M76.56 32.59s1.9-9.478 3.45-14.906"/><path fill="#F6AC1A" d="M61.327 52.917s5.028-4.407 5.955-15.797c.57-7.026 4.165-9.295 7.658-8.403 2.635.676 4.433 4.88 3.68 10.277-1.16 8.338-4.453 16.949-8.053 21.9"/><path stroke="#0E141B" stroke-linecap="round" stroke-linejoin="round" stroke-width="1.488" d="M61.327 52.917s5.028-4.407 5.955-15.797c.57-7.026 4.165-9.295 7.658-8.403 2.635.676 4.433 4.88 3.68 10.277-1.16 8.338-4.453 16.949-8.053 21.9"/><path fill="#fff" d="M42.704 93.61c.408-4.857.9-4.904 2.469-9.375.744-2.12-1.913-5.886-5.419-.71l-14.33-1.22c-.46-3.128-6.593-2.1-5.454 1.076 1.615 4.5 2.912 10.234 2.912 10.234s4.377 1.262 10.676 1.262c6.298 0 9.141-1.262 9.141-1.262l.005-.005Z"/><path fill="#F9D2D4" stroke="#0E141B" stroke-linecap="round" stroke-linejoin="round" stroke-width="1.488" d="M30.71 52.602s.387-.595 1.258-.297c2.346.807 7.472 2.813 12.16 7.229 4.798 4.518 6.914 9.299 6.85 13.506-.063 4.204-2.23 7.922-4.394 9.342-2.163 1.415-6.796 3.498-18.05 2.405-11.254-1.092-13.604-6.332-13.8-12.422-.19-6.095 3.83-9.937 7.982-12.69 3.952-2.623 5.95-4.217 7.994-7.064v-.009Z"/><path fill="#fff" stroke="#0E141B" stroke-linecap="round" stroke-linejoin="round" stroke-width="1.488" d="M32.941 75.624a6.604 6.604 0 0 1-3.157-.87c-.736-.434-1.343-1.22-1.156-2.062.182-.842.964-1.296 1.814-1.1 1.356.314 2.822.807 5.347.101.841-.238 1.768.187 1.938 1.037.17.846-.327 1.62-1.118 2.112-.952.595-2.456.85-3.668.787v-.005Z"/><path fill="#EF8585" d="M26.537 73.597c.042-.782-1.271-1.364-3.077-1.462-1.628-.085-2.771.37-2.814 1.152-.042.782 1.037 1.381 2.797 1.475 1.95.102 3.051-.387 3.094-1.165ZM45.521 73.372c-.017-.782-1.364-1.27-3.174-1.237-1.628.034-2.737.57-2.725 1.352.013.782 1.13 1.305 2.899 1.27 1.955-.038 3.017-.603 3-1.385Z"/><path stroke="#0E141B" stroke-linecap="round" stroke-linejoin="round" stroke-width="1.488" d="M24.131 62.666s4.072 2.453 5.083 4.467c0 0-2.019 2.325-6.099 3.914"/><path stroke="#0E141B" stroke-linecap="round" stroke-linejoin="round" stroke-width="1.488" d="M23.103 66.806c2.46 0 4.495.109 6.107.327M41.599 62.917s-3.8 2.236-4.756 4.093c0 0 2.057 2.418 5.827 3.931"/><path stroke="#0E141B" stroke-linecap="round" stroke-linejoin="round" stroke-width="1.488" d="M42.72 66.797s-3.629-.072-5.877.208"/><path fill="#84C687" d="M46.546 64.906s-4.811-.408-6.83-.446c0 0 .123-4.276.472-5.959 0 0 4.11.056 6.825.536"/><path stroke="#0E141B" stroke-linecap="round" stroke-linejoin="round" stroke-width="1.488" d="M46.546 64.906s-4.811-.408-6.83-.446c0 0 .123-4.276.472-5.959 0 0 4.11.056 6.825.536"/><path stroke="#0E141B" stroke-linecap="round" stroke-linejoin="round" stroke-width="1.488" d="M46.138 72.998s.344-9.47.986-14.964"/><path fill="#8CD2F1" d="M21.224 65.301s-4.824-.123-6.847-.042c0 0-.131-4.276.12-5.976 0 0 4.105-.187 6.846.128"/><path stroke="#0E141B" stroke-linecap="round" stroke-linejoin="round" stroke-width="1.488" d="M21.224 65.301s-4.824-.123-6.847-.042c0 0-.131-4.276.12-5.976 0 0 4.105-.187 6.846.128"/><path stroke="#0E141B" stroke-linecap="round" stroke-linejoin="round" stroke-width="1.488" d="M21.292 73.406s-.217-9.47.102-14.994"/><path fill="#fff" d="M26.97 84.63c-1.704-2.745-3.004-6.617-3.765-11.007-.302-1.747-1.182-3.426-3.132-3.252-1.768.158-3.022 1.82-2.597 4.692.722 4.896 1.764 7.204 2.877 9.66.383.838 2.355 7.034 2.741 8.896"/><path stroke="#0E141B" stroke-linecap="round" stroke-linejoin="round" stroke-width="1.488" d="M26.97 84.63c-1.704-2.745-3.004-6.617-3.765-11.007-.302-1.747-1.182-3.426-3.132-3.252-1.768.158-3.022 1.82-2.597 4.692.722 4.896 1.764 7.204 2.877 9.66.383.838 2.355 7.034 2.741 8.896"/><path fill="#fff" d="M38.726 84.924c1.033-2.41 2.367-6.877 3.047-11.28.272-1.75 1.33-3.447 3.281-3.31 1.772.123 2.652 1.767 2.265 4.645-.641 4.76-2.21 8.814-2.805 10.489-.833 2.346-1.279 4.692-1.81 8.143"/><path stroke="#0E141B" stroke-linecap="round" stroke-linejoin="round" stroke-width="1.488" d="M38.726 84.924c1.033-2.41 2.367-6.877 3.047-11.28.272-1.75 1.33-3.447 3.281-3.31 1.772.123 2.652 1.767 2.265 4.645-.641 4.76-2.21 8.814-2.805 10.489-.833 2.346-1.279 4.692-1.81 8.143"/><path fill="#fff" d="M56.933 93.785s-1.096-7.28-1.789-9.342c-2.133-6.37 5.253-9.154 13.158-9.095 6.54.051 14.25 3.97 12.385 9.737-.566 1.747-.192 5.946-1.08 8.704 0 0-3.387 1.666-12.044 1.577-8.084-.085-10.634-1.577-10.634-1.577l.004-.004Z"/><path fill="#fff" stroke="#0E141B" stroke-linecap="round" stroke-linejoin="round" stroke-width="1.488" d="M83.968 66.857c.356-1.773 1.848-2.453 2.086-4.616.157-1.415.2-2.937.009-4.59-.803-6.949-5.734-14.097-18.777-13.413-12.707.667-17.727 9.665-17.612 18.233.077 5.571.778 13.404 3.277 15.72 8.309 7.693 27.79 2.67 27.79 2.67.124-1 1.637-7.476 2.13-9.402.57-2.205.99-4.097 1.092-4.607l.005.005Z"/><path stroke="#0E141B" stroke-linecap="round" stroke-linejoin="round" stroke-width="1.913" d="M62.36 51.765c-1.25-.893-3.68-.91-4.938-.077"/><path fill="#FABE00" stroke="#0E141B" stroke-linecap="round" stroke-linejoin="round" stroke-width="1.488" d="M85.748 67.265c2.266-.876 2.53-3.85.566-4.913-1.22-.663-3.094.119-6.822.59-3 .383-4.772.413-4.772.413s-.192-5.215-5.989-5.134c-5.805.08-6.183 5.423-6.183 5.423s-3.52-.387-6.159-.833c-2.996-.502-5.916.612-7.076 3.14-1.479 3.218-.115 7.803 2.376 10.124 2.333 2.172 6.396 3.48 13.502 3.51 4.756.022 8.215-.161 11.3-.59 2.253-.31 6.295-.825 7.477-1.751 1.572-1.233 1.296-3.55-.374-4.123-1.348-.459-4.616.667-7.23 1.08-2.584.408-5.567.446-10.072.323-3.515-.098-6.932-.306-9.061-1.233-2.193-.952-2.81-2.252-2.627-3.345.28-1.687 1.543-2.27 4.875-1.521 3.315.744 8.572.782 11.025.71 6.175-.187 11.27-.34 15.244-1.875v.005Z"/><path fill="#0E141B" d="M65.977 62.79c.022.51.45.828.96.807.51-.021.915-.374.889-.888a.927.927 0 1 0-1.853.076M69.964 62.806c.02.523.459.846.981.825.523-.021.931-.383.906-.905a.945.945 0 1 0-1.887.08Z"/><path stroke="#0E141B" stroke-linecap="round" stroke-linejoin="round" stroke-width="1.913" d="M79.556 51.642c-1.436-1.016-3.655-1.046-4.955-.187"/><path stroke="#0E141B" stroke-linecap="round" stroke-linejoin="round" stroke-width="1.488" d="M57.647 58.854s-.115-3.298 1.938-3.353c2.083-.051 1.624 3.45 1.624 3.45M75.667 58.595s-.272-3.082 1.781-3.23c2.078-.15 1.78 3.37 1.78 3.37"/><path fill="#FFE16A" d="M55.705 56.057s-4.76-1.321-6.783-1.738c0 0 .93-4.275 1.598-5.899 0 0 4.122.829 6.762 1.823"/><path stroke="#0E141B" stroke-linecap="round" stroke-linejoin="round" stroke-width="1.488" d="M55.705 56.057s-4.76-1.321-6.783-1.738c0 0 .93-4.275 1.598-5.899 0 0 4.122.829 6.762 1.823"/><path stroke="#0E141B" stroke-linecap="round" stroke-linejoin="round" stroke-width="1.488" d="M53.763 64.12s2.133-9.452 3.816-14.858"/><path fill="#fff" d="M61.808 82.093C59.9 77.57 58.14 72.36 57.226 66.045c-.548-3.812-2.031-5.759-3.68-5.712-2.67.08-3.477 2.01-2.911 6.957.73 6.426 2.588 10.328 4.165 14.522.943 2.504 1.861 9.083 2.133 11.977"/><path stroke="#0E141B" stroke-linecap="round" stroke-linejoin="round" stroke-width="1.488" d="M61.808 82.093C59.9 77.57 58.14 72.36 57.226 66.045c-.548-3.812-2.031-5.759-3.68-5.712-2.67.08-3.477 2.01-2.911 6.957.73 6.426 2.588 10.328 4.165 14.522.943 2.504 1.861 9.083 2.133 11.977"/><path fill="#EC6D70" d="M85.162 56.155s-4.858-.88-6.915-1.114c0 0 .535-4.343 1.054-6.022 0 0 4.182.45 6.902 1.199"/><path stroke="#0E141B" stroke-linecap="round" stroke-linejoin="round" stroke-width="1.488" d="M85.162 56.155s-4.858-.88-6.915-1.114c0 0 .535-4.343 1.054-6.022 0 0 4.182.45 6.902 1.199"/><path stroke="#0E141B" stroke-linecap="round" stroke-linejoin="round" stroke-width="1.488" d="M83.968 64.362s1.262-9.61 2.439-15.147"/><path fill="#fff" d="M74.762 82.016c1.836-4.08 3.477-9.154 4.943-16.163.884-4.232 2.154-5.452 3.8-5.47 2.898-.029 3.331 2.75 2.49 7.12-1.509 7.84-3.37 11.211-4.535 14.662-.897 2.656-1.53 8.768-1.853 11.62"/><path stroke="#0E141B" stroke-linecap="round" stroke-linejoin="round" stroke-width="1.488" d="M74.762 82.016c1.836-4.08 3.477-9.154 4.943-16.163.884-4.232 2.154-5.452 3.8-5.47 2.898-.029 3.331 2.75 2.49 7.12-1.509 7.84-3.37 11.211-4.535 14.662-.897 2.656-1.53 8.768-1.853 11.62"/></g><defs><clipPath id="a"><path fill="#fff" d="M13.6 8.5h74.775v86.866H13.6z"/></clipPath></defs></svg>