<svg xmlns="http://www.w3.org/2000/svg" width="102" height="102" fill="none"><g clip-path="url(#a)"><path fill="#F6AC1A" d="M37.255 70.818s-2.346-18.896 4.012-20.21c6.358-1.312 22.164-4.287 24.893-3.412 2.856.918 6.745 5.508 8.368 15.287 1.577 9.482 1.577 17.192 1.577 17.192"/><path stroke="#0E141B" stroke-linecap="round" stroke-linejoin="round" stroke-width="1.488" d="M37.255 70.818s-2.346-18.896 4.012-20.21c6.358-1.312 22.164-4.287 24.893-3.412 2.856.918 6.745 5.508 8.368 15.287 1.577 9.482 1.577 17.192 1.577 17.192"/><path fill="#fff" d="M56.874 61.175s3.098 3.047 3.434 7.675c.28 3.83-.506 6.095-2.147 8.062-1.44 1.726-3.4 3.111-8.38 2.431-4.28-.586-5.653-2.881-6.868-5.062-1.008-1.802-1.611-4.432-.549-8.194.77-2.715 2.771-5.053 3.324-5.474l2.116 3.099 3.158-3.12 2.741 3.626s1.173-1.165 3.175-3.04l-.004-.003Z"/><path fill="#F6AC1A" d="M42.436 63.359s-.514 6.256.196 10.217l-.196-10.217Z"/><path stroke="#0E141B" stroke-linecap="round" stroke-linejoin="round" stroke-width="1.488" d="M42.436 63.359s-.514 6.256.196 10.217"/><path fill="#F6AC1A" d="M48.217 17.552c-.255-2.473-2.266-6.349-6.834-5.036-4.535 1.31-3.974 6.137-2.771 7.722"/><path stroke="#0E141B" stroke-linecap="round" stroke-linejoin="round" stroke-width="1.488" d="M48.217 17.552c-.255-2.473-2.266-6.349-6.834-5.036-4.535 1.31-3.974 6.137-2.771 7.722"/><path fill="#F6AC1A" d="M61.71 18.224c.438-2.448 3.12-6.167 7.578-4.522 4.428 1.636 3.514 6.413 2.197 7.905"/><path stroke="#0E141B" stroke-linecap="round" stroke-linejoin="round" stroke-width="1.488" d="M61.71 18.224c.438-2.448 3.12-6.167 7.578-4.522 4.428 1.636 3.514 6.413 2.197 7.905"/><path fill="#F6AC1A" stroke="#0E141B" stroke-linecap="round" stroke-linejoin="round" stroke-width="1.488" d="M31.123 35.738c.187-13.557 10.727-21.373 22.895-21.207 11.78.161 22.49 8.1 22.3 21.832-.192 13.779-11.097 20.315-22.878 20.154-11.594-.162-22.504-7-22.317-20.775v-.004Z"/><path fill="#0E141B" d="M59.606 36.648c1.305-1.594-.476-3.515-2.159-2.33-1.304 1.595.476 3.516 2.16 2.33ZM55.259 30.188s3.527-.013 7.637.31l-7.637-.31Z"/><path stroke="#0E141B" stroke-linecap="round" stroke-linejoin="round" stroke-width="1.913" d="M55.259 30.188s3.527-.013 7.637.31"/><path fill="#0E141B" d="M41.476 36.031c1.292-1.576-.472-3.476-2.134-2.299-1.292 1.577.472 3.477 2.134 2.3Z"/><path fill="#fff" d="M47.286 39.788c-2.814-1.087-5.096.49-5.377 2.474-.23 1.62 1.284 3.46 2.844 3.506 1.678.051 2.694-.693 3.191-1.789.328 1.16 1.433 2.053 3.303 2.104 1.73.047 3.208-.978 3.4-2.962.195-1.998-1.845-4.438-5.423-3.184l-1.003.387"/><path stroke="#0E141B" stroke-linecap="round" stroke-linejoin="round" stroke-width="1.488" d="M47.286 39.788c-2.814-1.087-5.096.49-5.377 2.474-.23 1.62 1.284 3.46 2.844 3.506 1.678.051 2.694-.693 3.191-1.789.328 1.16 1.433 2.053 3.303 2.104 1.73.047 3.208-.978 3.4-2.962.195-1.998-1.845-4.438-5.423-3.184l-1.003.387"/><path fill="#0E141B" d="M36.07 29.525s3.527-.013 7.637.31l-7.637-.31Z"/><path stroke="#0E141B" stroke-linecap="round" stroke-linejoin="round" stroke-width="1.913" d="M36.07 29.525s3.527-.013 7.637.31"/><path fill="#0E141B" d="M46.245 39.346c-.153.753.892 2.389 1.89 2.419.898.025 2.007-1.25 2.172-2.282.196-1.207-3.633-2.223-4.063-.136Z"/><path fill="#F6AC1A" d="M66.912 53.89c-17.582-.527-24.99-2.206-34.578-3.477-3.323-.441-5.67.306-7.076 1.968-.26.306-3.23-.042-3.425.319-.128.242 2.503 1.177 2.4 1.445-.11.293-.207.6-.284.918-.06.238-1.632.4-1.674.65-.064.404 1.44.884 1.462 1.271.153 2.75 2.473 4.99 6.889 5.963 9.26 2.035 30.838 4.003 33.987 3.871"/><path stroke="#0E141B" stroke-linecap="round" stroke-linejoin="round" stroke-width="1.488" d="M66.912 53.89c-17.582-.527-24.99-2.206-34.578-3.477-3.323-.441-5.67.306-7.076 1.968-.26.306-3.23-.042-3.425.319-.128.242 2.503 1.177 2.4 1.445-.11.293-.207.6-.284.918-.06.238-1.632.4-1.674.65-.064.404 1.44.884 1.462 1.271.153 2.75 2.473 4.99 6.889 5.963 9.26 2.035 30.838 4.003 33.987 3.871"/><path fill="#7C6C63" d="M90.05 77.244c-11.544-2.075-72.456-9.749-78.823-10.55-.382 11.427 2.168 22.597 26.42 27.112 22.89 4.263 42.886-.004 50.098-10.973.843-1.282 1.618-3.2 2.304-5.589Z"/><path stroke="#0E141B" stroke-linejoin="round" stroke-width="1.488" d="M11.227 66.695c6.367.8 67.279 8.475 78.822 10.55"/><path fill="#fff" d="M60.448 80.198s1.861.467 3.948 0l.247 2.065c-1.896.778-4.017.174-4.017.174L59.56 80.67l.888-.471Z"/><path stroke="#0E141B" stroke-linecap="round" stroke-linejoin="round" stroke-width="1.488" d="M64.647 83.113c-1.896.778-4.017.174-4.017.174"/><path fill="#B5B6B6" d="m64.396 80.444.25-2.915-6.013-.277-.612 4.178 6.375-.986Z"/><path fill="#fff" d="M61.298 75.455c-1.267-.162-3.562-.706-3.66-2.516v3.26c.277 1.308 2.882 1.576 2.882 1.576s1.9.463 3.88-.195l-3.102-2.13v.005Z"/><path stroke="#0E141B" stroke-linecap="round" stroke-linejoin="round" stroke-width="1.488" d="M61.298 75.455c-1.267-.162-3.562-.706-3.66-2.516v3.26c.277 1.308 2.882 1.576 2.882 1.576s1.9.463 3.88-.195"/><path fill="#B5B6B6" d="M62.118 75.522s-4.343-.08-4.48-2.584c-.135-2.499 5.28-2.694 6.567-2.664"/><path stroke="#0E141B" stroke-linecap="round" stroke-linejoin="round" stroke-width="1.488" d="M63.682 72.471s-4.632-.187-5.049 2.104"/><path stroke="#0E141B" stroke-linecap="round" stroke-linejoin="round" stroke-width="1.488" d="M62.118 75.522s-4.343-.08-4.48-2.584c-.135-2.499 5.28-2.694 6.567-2.664M60.448 81.048s1.861.467 3.948 0"/><path fill="#B5B6B6" d="M60.516 80.657c-.043-.872-2.083-1.48-4.556-1.352-2.47.123-4.437.93-4.395 1.802.043.871 2.083 1.48 4.552 1.352 2.47-.124 4.437-.931 4.394-1.802h.005Z"/><path stroke="#0E141B" stroke-linecap="round" stroke-linejoin="round" stroke-width="1.488" d="M60.516 80.657c-.043-.872-2.083-1.48-4.556-1.352-2.47.123-4.437.93-4.395 1.802.043.871 2.083 1.48 4.552 1.352 2.47-.124 4.437-.931 4.394-1.802h.005Z"/><path fill="#fff" d="m52.921 76.827-.204 2.385s.464 1.903 3.269 2.29c3.187.442 4.097-.824 4.097-.824l.663-2.197"/><path stroke="#0E141B" stroke-linecap="round" stroke-linejoin="round" stroke-width="1.488" d="m52.921 76.827-.204 2.385s.464 1.903 3.269 2.29c3.187.442 4.097-.824 4.097-.824l.663-2.197"/><path fill="#B5B6B6" d="M52.921 76.827s.383-1.908 4.246-1.156c3.107.604 3.804 1.947 3.574 2.805-.331 1.246-2.584 1.569-4.768 1.071-2.185-.493-3.133-1.402-3.052-2.72Z"/><path stroke="#0E141B" stroke-linecap="round" stroke-linejoin="round" stroke-width="1.488" d="M53.376 78.264c1.046-1.271 5.772-.63 6.452 1.16"/><path stroke="#0E141B" stroke-linecap="round" stroke-linejoin="round" stroke-width="1.488" d="M52.921 76.827s.383-1.908 4.246-1.156c3.107.604 3.804 1.947 3.574 2.805-.331 1.246-2.584 1.569-4.768 1.071-2.185-.493-3.133-1.402-3.052-2.72Z"/><path fill="#fff" d="M60.516 80.657c.042.87-1.925 1.678-4.395 1.802-2.469.123-4.509-.48-4.551-1.352 0 0-.744 6.09 4.942 5.648 5.279-.412 4.008-6.098 4.008-6.098h-.004Z"/><path stroke="#0E141B" stroke-linecap="round" stroke-linejoin="round" stroke-width="1.488" d="M60.516 80.657c.042.87-1.925 1.678-4.395 1.802-2.469.123-4.509-.48-4.551-1.352 0 0-.744 6.09 4.942 5.648 5.279-.412 4.008-6.098 4.008-6.098h-.004Z"/><path fill="#B5B6B6" d="M80.912 77.954c0-2.087-4.697-3.575-9.835-3.273-5.572.327-8.831 2.278-8.568 4.178.353 2.563 2.533 3.753 9.197 3.83 6.277.071 9.206-2.819 9.206-4.735Z"/><path stroke="#0E141B" stroke-linecap="round" stroke-linejoin="round" stroke-width=".744" d="M80.912 77.954c0-2.087-4.697-3.575-9.835-3.273-5.572.327-8.831 2.278-8.568 4.178.353 2.563 2.533 3.753 9.197 3.83 6.277.071 9.206-2.819 9.206-4.735Z"/><path fill="#B5B6B6" d="M80.75 73.929c-.246-1.938-5.287-1.526-10.17.11-4.837 1.62-6.787 3.218-6.375 4.425.502 1.474 3.077 2.205 7.34 1.173 6.302-1.53 9.448-3.804 9.205-5.708Z"/><path stroke="#0E141B" stroke-linecap="round" stroke-linejoin="round" stroke-width=".744" d="M80.946 73.929c-.247-1.938-5.483-1.526-10.366.11-4.837 1.62-6.787 3.218-6.375 4.425.502 1.474 3.077 2.205 7.34 1.173 6.302-1.53 9.647-3.804 9.405-5.708h-.004Z"/><path fill="#B5B6B6" d="M62.624 73.474s-3.417 3.064.654 3.995c3.846.88 13.57-3.166 15.466-5.266.68-.756 1.649-2.809-1.1-3.918-2.47-.995-5.653-.676-6.673-.42"/><path stroke="#0E141B" stroke-linecap="round" stroke-linejoin="round" stroke-width="1.488" d="M62.624 73.474s-3.417 3.064.654 3.995c3.846.88 13.57-3.166 15.466-5.266.68-.756 1.649-2.809-1.1-3.918-2.47-.995-5.653-.676-6.673-.42"/><path fill="#B5B6B6" d="M79.072 71.974s-5.491-4.272-10.99-4.187c-2.87.043-4.128.736-4.072 1.82.034.658.552 1.466 1.487 2.354 2.584 2.46 6.21 3.132 9.29 3.243"/><path stroke="#0E141B" stroke-linecap="round" stroke-linejoin="round" stroke-width="1.488" d="M79.072 71.974s-5.491-4.272-10.99-4.187c-2.87.043-4.128.736-4.072 1.82.034.658.552 1.466 1.487 2.354 2.584 2.46 6.21 3.132 9.29 3.243"/><path stroke="#0E141B" stroke-linecap="round" stroke-linejoin="round" stroke-width="1.488" d="M65.727 72.174s5.376-.32 10.489 3.034"/><path fill="#D4B572" d="M76.827 63.266s.438-.37 1.046.263c.459.48.136.714.136.714l-8.547 9.839s-2.588.527-1.513-.676c1.428-1.594 8.878-10.14 8.878-10.14Z"/><path stroke="#0E141B" stroke-linecap="round" stroke-linejoin="round" stroke-width="1.275" d="M76.827 63.266s.438-.37 1.046.263c.459.48.136.714.136.714l-8.547 9.839s-2.588.527-1.513-.676c1.428-1.594 8.878-10.14 8.878-10.14Z"/><path fill="#fff" d="M74.787 75.204c-3.077-.11-6.702-.782-9.29-3.243-.935-.892-1.454-1.696-1.487-2.354-1.599 1.05-1.416 5.601-1.416 5.601 1.037 3.077 3.838 3.077 3.838 3.077l9.286-1.577 1.921-1.738-2.852.238v-.004Z"/><path stroke="#0E141B" stroke-linecap="round" stroke-linejoin="round" stroke-width="1.488" d="M74.787 75.204c-3.077-.11-6.702-.782-9.29-3.243-.935-.892-1.454-1.696-1.487-2.354-1.599 1.05-1.416 5.601-1.416 5.601 1.037 3.077 3.838 3.077 3.838 3.077l9.286-1.577 1.921-1.738-2.852.238v-.004Z"/><path fill="#fff" d="M79.47 70.214c.09.808-.356 1.586-.726 1.99-1.895 2.099-11.62 6.145-15.466 5.265-.782-.178-1.287-.438-1.593-.735.794.994 2.6 3.549 5.559 3.702 4.5.23 8.589-1.484 11.062-3.957 2.474-2.474 1.165-6.265 1.165-6.265Z"/><path stroke="#0E141B" stroke-linecap="round" stroke-linejoin="round" stroke-width="1.488" d="M61.485 76.492v.004-.004ZM79.47 70.214c.09.808-.356 1.586-.726 1.99-1.895 2.099-11.62 6.145-15.466 5.265-.782-.178-1.287-.438-1.593-.735.794.994 2.6 3.549 5.559 3.702 4.5.23 8.589-1.484 11.062-3.957 2.474-2.474 1.165-6.265 1.165-6.265Z"/><path fill="#fff" d="M80.763 74.15c-.017 1.853-3.158 4.016-9.219 5.486-4.258 1.033-7.144-.102-8.066-1.105.922 3.49 3.957 4.76 4.824 4.947 5.525 1.182 10.96-2.515 11.662-3.476.91-1.245.833-4.964.799-5.848v-.004Z"/><path stroke="#0E141B" stroke-linecap="round" stroke-linejoin="round" stroke-width="1.488" d="M80.763 74.15c-.017 1.853-3.158 4.016-9.219 5.486-4.258 1.033-7.144-.102-8.066-1.105.922 3.49 3.957 4.76 4.824 4.947 5.525 1.182 10.96-2.515 11.662-3.476.91-1.245.833-4.964.799-5.848v-.004Z"/><path fill="#fff" d="M71.706 82.688c-6.664-.076-8.848-1.267-9.197-3.83 0 0-.14 6.261 4.913 7.723 2.941.85 8.768.408 10.553-.825 1.98-1.364 2.924-3.45 2.928-7.658-.144 1.917-3.077 4.658-9.197 4.59Z"/><path stroke="#0E141B" stroke-linecap="round" stroke-linejoin="round" stroke-width="1.488" d="M71.706 82.688c-6.664-.076-8.848-1.267-9.197-3.83 0 0-.14 6.261 4.913 7.723 2.941.85 8.768.408 10.553-.825 1.98-1.364 2.924-3.45 2.928-7.658-.144 1.917-3.077 4.658-9.197 4.59Z"/><path fill="#D4B572" d="M80.831 65.595c-.603-.634-1.046-.264-1.046-.264s-6.136 6.367-8.933 9.333a18.832 18.832 0 0 0 2.376-.208l7.739-8.147s.319-.238-.136-.714Z"/><path stroke="#0E141B" stroke-linecap="round" stroke-linejoin="round" stroke-width="1.275" d="M80.831 65.595c-.603-.634-1.046-.264-1.046-.264s-6.136 6.367-8.933 9.333a18.832 18.832 0 0 0 2.376-.208l7.739-8.147s.319-.238-.136-.714Z"/><path fill="#2F3C26" d="M44.995 69.122v-1.394s-.043.82-1.143 1.024c-1.101.204-1.416-1.24-1.416-1.24s-.132 1.436-1.398 1.304c-1.266-.132-1.538-1.041-1.538-1.041s-.23 1.24-1.34 1.181c-.807-.042-1.232-.174-1.495-.994-.328.663-.786 1.156-.786 1.156l-.557.387.263 3.574 9.35.293.064-4.258"/><path stroke="#0E141B" stroke-linecap="round" stroke-linejoin="round" stroke-width="1.488" d="M44.995 69.122v-1.394s-.043.82-1.143 1.024c-1.101.204-1.416-1.24-1.416-1.24s-.132 1.436-1.398 1.304c-1.266-.132-1.538-1.041-1.538-1.041s-.23 1.24-1.34 1.181c-.807-.042-1.232-.174-1.495-.994-.328.663-.786 1.156-.786 1.156l-.557.387.263 3.574 9.35.293.064-4.258"/><path fill="#6E4123" d="M35.203 68.548s-.208 9.673 0 11.475c.272.855 1.232 2.087 4.522 2.087 3.549 0 4.807-.994 5.074-1.972.247-2.707.213-9.992.158-11.59 0 0-.935 2.134-1.496 2.134-.948 0-1.084-1.262-1.084-1.262s-.136 2.159-1.709 2.137c-1.674-.025-1.87-1.848-1.87-1.848s-.153 1.636-1.576 1.632c-1.526-.009-2.02-2.788-2.02-2.788v-.005Z"/><path fill="#fff" d="M38.335 69.844v7.57s3.566 1.64 6.264-.659v-8.61l-.59 2.099-1.607.2-2.35 1.003-1.041-1.832-.676.23Z"/><path stroke="#0E141B" stroke-linecap="round" stroke-linejoin="round" stroke-width="1.488" d="M35.203 68.548s-.208 9.673 0 11.475c.272.855 1.232 2.087 4.522 2.087 3.549 0 4.807-.994 5.074-1.972.247-2.707.213-9.992.158-11.59 0 0-.935 2.134-1.496 2.134-.948 0-1.084-1.262-1.084-1.262s-.136 2.159-1.709 2.137c-1.674-.025-1.87-1.848-1.87-1.848s-.153 1.636-1.576 1.632c-1.526-.009-2.02-2.788-2.02-2.788v-.005Z"/><path fill="#FFD900" stroke="#0E141B" stroke-linecap="round" stroke-linejoin="round" stroke-width="1.488" d="M20.664 61.668c2.711-.23 7.62-.28 6.914 6.15 0 0 1.47-1.96 4.922-2.07 2.47-.077 4.505 1.755 5.096 2.796 0 0-2.793-5.465 6.77-9.55 0 0-4.458 1.088-7.098-.943-1.113-.854-.807-2.355-.807-2.355s-1.432 1.722-4.19 1.607c-2.759-.115-3.503-2.244-3.503-2.244s-.845 2.762-2.996 4.348c-1.84 1.355-3.45 1.738-5.104 2.256l-.004.005Z"/><path fill="#6E4123" stroke="#0E141B" stroke-linecap="round" stroke-linejoin="round" stroke-width="1.063" d="M30.906 50.371s.094-1.037-.497-1.955c-.544-.85-1.373-.76-1.373-.76l.187 1.079s.247 1.377 1.683 1.636ZM40.635 57.282l-.064-1.887 1.028-1.254 1.212.54s-.816 1.657-2.18 2.596l.004.005ZM45.586 60.095s-1.237.493-1.16 1.169c.076.676 1.444.276 1.444.276l-.284-1.445ZM49.661 55.157s-1.122.36-1.347.616c-.225.255 1.534.43 1.534.43l-.187-1.046Z"/><path stroke="#0E141B" stroke-linecap="round" stroke-linejoin="round" stroke-width="1.488" d="M84.15 67.822s1.488 1.24 1.488 3.463M82.493 69.156s1.062.786 1.062 2.401M51.213 74.575s-1.772 1.22-1.364 3.935M84.86 41.795s3.094 2.69 1.679 7.395c-1.411 4.704-8.381 9.804-16.737 11.577"/><path stroke="#0E141B" stroke-linecap="round" stroke-linejoin="round" stroke-width="1.488" d="M81.137 43.809s2.108 2.648-2.33 6.995c-4.436 4.348-10.688 6.817-21.185 7.642"/></g><defs><clipPath id="a"><path fill="#fff" d="M0 0h102v102H0z"/></clipPath></defs></svg>