<svg xmlns="http://www.w3.org/2000/svg" width="102" height="102" fill="none"><g clip-path="url(#a)"><path fill="#614717" d="M29.438 79.722s1.497 5.855-2.026 8.415c-1.489 1.079-1.409 2.42 1.341 2.408 2.75-.012 7.472-.621 9.167 0 1.692.62 3.579 5.063 5.704 4.995 2.122-.071 2.205-3.419 3.646-4.108 1.437-.688 7.431-.027 8.558-.887 1.126-.86-2.468-3.324-2.818-9.672-.354-6.345-.776-7.897-.776-7.897"/><path stroke="#0E141B" stroke-linecap="round" stroke-linejoin="round" stroke-width="1.505" d="M29.438 79.722s1.497 5.855-2.026 8.415c-1.489 1.079-1.409 2.42 1.341 2.408 2.75-.012 7.472-.621 9.167 0 1.692.62 3.579 5.063 5.704 4.995 2.122-.071 2.205-3.419 3.646-4.108 1.437-.688 7.431-.027 8.558-.887 1.126-.86-2.468-3.324-2.818-9.672-.354-6.345-.776-7.897-.776-7.897"/><path stroke="#0E141B" stroke-linecap="round" stroke-linejoin="round" stroke-width="1.293" d="M44.894 86.74V75.754"/><path fill="#896625" d="M31.994 88.678s.235.653.231 1.704l-.23-1.704Z"/><path stroke="#0E141B" stroke-linecap="round" stroke-linejoin="round" stroke-width="1.293" d="M31.994 88.678s.235.653.231 1.704"/><path fill="#B38500" d="M62.376 78.5s1.847-.573 2.858-1.365c1.098-.868 2.416-1.043 3.212-.434.915.705.653 1.756.653 1.756 1.106.501 1.178 1.767.505 2.456l-.028.02c.383.298.685.899.538 1.615-.367 1.772-6.174 3.5-8.399 2.178-2.511-1.493-1.493-4.26-1.493-4.26"/><path stroke="#0E141B" stroke-linecap="round" stroke-linejoin="round" stroke-width="1.505" d="M62.376 78.5s1.847-.573 2.858-1.365c1.098-.868 2.416-1.043 3.212-.434.915.705.653 1.756.653 1.756 1.106.501 1.178 1.767.505 2.456l-.028.02c.383.298.685.899.538 1.615-.367 1.772-6.174 3.5-8.399 2.178-2.511-1.493-1.493-4.26-1.493-4.26"/><path stroke="#0E141B" stroke-linecap="round" stroke-linejoin="round" stroke-width="1.505" d="M69.58 80.936c-.58-.453-1.317-.322-1.85.048M69.103 78.46c-.768-.314-1.497-.015-1.914.303"/><path fill="#B6B3AF" d="M49.531 76.622s4.422-1.33 6.508.465c1.377 1.186 2.834 2.822 4.188 4.08.696.649 1.504.991 2.714.61.923-.295 1.927-1.605 1.974-3.074.124-3.753-2.607-9.417-6.348-9.43"/><path stroke="#0E141B" stroke-linecap="round" stroke-linejoin="round" stroke-width="1.505" d="M49.531 76.622s4.422-1.33 6.508.465c1.377 1.186 2.834 2.822 4.188 4.08.696.649 1.504.991 2.714.61.923-.295 1.927-1.605 1.974-3.074.124-3.753-2.607-9.417-6.348-9.43"/><path fill="#B38500" d="M58.455 85.104s2.25 1.098 4.184 1.508c1.962.418 2.44 1.975 2.217 2.93-.334 1.437-2.205 1.616-2.205 1.616-.259 1.302-1.596 1.783-2.767 1.313l-.043-.016c-.16.454-.51.84-1.06 1.011-2.292.721-6.2-.863-6.5-4.589-.142-1.787 1.243-2.643 1.243-2.643"/><path stroke="#0E141B" stroke-linecap="round" stroke-linejoin="round" stroke-width="1.505" d="M58.455 85.104s2.25 1.098 4.184 1.508c1.962.418 2.44 1.975 2.217 2.93-.334 1.437-2.205 1.616-2.205 1.616-.259 1.302-1.596 1.783-2.767 1.313l-.043-.016c-.16.454-.51.84-1.06 1.011-2.292.721-6.2-.863-6.5-4.589-.142-1.787 1.243-2.643 1.243-2.643"/><path stroke="#0E141B" stroke-linecap="round" stroke-linejoin="round" stroke-width="1.505" d="M62.642 91.162c.223-1.115-.254-2.022-1.357-2.484M59.832 92.463a1.893 1.893 0 0 0-.88-2.252"/><path fill="#B6B3AF" d="M45.101 78.544s4.303.538 6.313 2.679c1.158 1.234 1.325 4.008 2.133 5.807.414.928 1.139 1.382 2.488 1.505 1.031.095 2.484-.557 3.14-1.982 1.68-3.638.956-11.15-4.207-11.89"/><path stroke="#0E141B" stroke-linecap="round" stroke-linejoin="round" stroke-width="1.505" d="M45.101 78.544s4.303.538 6.313 2.679c1.158 1.234 1.325 4.008 2.133 5.807.414.928 1.139 1.382 2.488 1.505 1.031.095 2.484-.557 3.14-1.982 1.68-3.638.956-11.15-4.207-11.89"/><path fill="#B6B3AF" d="M41.041 69.222c-1.214 1.258-7.722 3.208-12.586-.987-7.013-6.054-4.641-17.04 1.847-21.383 0 0 30.665.112 33.133 2.508 1.81 1.76 3.988 4.251 1.046 11.105-.62 1.445 3.014 2.787 4.51 2.01l1.214 1.41c.064 1.93-.868 2.877-.868 2.877-.294.207-.62.398-.979.578-2.822 1.404-6.719 1.353-8.446-2.186"/><path stroke="#0E141B" stroke-linecap="round" stroke-linejoin="round" stroke-width="1.505" d="M41.041 69.222c-1.214 1.258-7.722 3.208-12.586-.987-7.013-6.054-4.641-17.04 1.847-21.383 0 0 30.665.112 33.133 2.508 1.81 1.76 3.988 4.251 1.046 11.105-.62 1.445 3.014 2.787 4.51 2.01l1.214 1.41c.064 1.93-.868 2.877-.868 2.877-.294.207-.62.398-.979.578-2.822 1.404-6.719 1.353-8.446-2.186"/><path stroke="#0E141B" stroke-linecap="round" stroke-linejoin="round" stroke-width="1.505" d="M60.927 56.346s-1.863 5.142-4.753 8.876"/><path fill="#0E141B" d="M71.336 53.337c1.01 0 1.01-1.569 0-1.569-1.011 0-1.011 1.569 0 1.569ZM72.936 52.628c1.01 0 1.01-1.568 0-1.568-1.012 0-1.012 1.568 0 1.568ZM74.536 51.947c1.011 0 1.011-1.568 0-1.568-1.01 0-1.01 1.568 0 1.568Z"/><path stroke="#0E141B" stroke-linecap="round" stroke-linejoin="round" stroke-width="1.076" d="m72.08 54.292-.745-1.74M72.936 51.844l.78 1.767M74.536 51.163l.768 1.783"/><path fill="#0E141B" d="M77.724 58.92c1.011 0 1.011-1.567 0-1.567-1.01 0-1.01 1.568 0 1.568ZM76.152 59.69c1.01 0 1.01-1.57 0-1.57-1.011 0-1.011 1.57 0 1.57ZM74.58 60.438c1.01 0 1.01-1.569 0-1.569-1.011 0-1.011 1.569 0 1.569Z"/><path stroke="#0E141B" stroke-linecap="round" stroke-linejoin="round" stroke-width="1.076" d="m76.912 56.425.812 1.708M76.151 58.905l-.847-1.731M74.58 59.65l-.84-1.752"/><path fill="#7C5019" stroke="#0E141B" stroke-linecap="round" stroke-linejoin="round" stroke-width="1.505" d="M59.172 61.42c2.376 5.032 2.77 11.77-1.099 13.848-3.28 1.764-4.63-.08-7.368 1.573-2.738 1.651-3.16 5.508-7.992 7.865-5.56 2.71-12.546 2.121-16.877-8.323-4.33-10.445.203-16.523 6.05-18.54 5.083-1.752 7.826.959 10.93.186 3.105-.768 2.798-2.475 6.273-3.63 4.375-1.456 7.706 1.983 10.083 7.018v.004Z"/><path fill="#000" stroke="#0E141B" stroke-linecap="round" stroke-linejoin="round" stroke-width="1.505" d="M36.67 75.264s-.676-1.162-1.448-3.104c-.84-2.106-.971-2.978-.971-2.978l1.233-.49s.175.459 1.155 2.899c.86 2.137 1.27 3.184 1.27 3.184l-1.234.49h-.005Z"/><path fill="#7C5019" stroke="#0E141B" stroke-linecap="round" stroke-linejoin="round" stroke-width="1.505" d="M83.504 50.654c-1.652-2.962-6.158-2.265-6.38 1.293 0 0-2.684 1.135-6.768 2.85 0 0 1.238 2.464 1.764 3.89 3.435-1.625 6.062-2.863 6.595-3.09 0 0 1.306 4.514 3.519 3.18 1.063-.64.366-2.352-.709-3.466 1.497-.227 3.53-1.883 1.983-4.657h-.004Z"/><path fill="#473C2A" stroke="#0E141B" stroke-linecap="round" stroke-linejoin="round" stroke-width="1.505" d="M70.357 54.797c-2.162.908-4.713 1.975-7.468 3.125-7.964 3.32-12.84 5.174-12.84 5.174l2.09 5.08s11.85-5.637 19.98-9.49c-.525-1.425-1.762-3.889-1.762-3.889Z"/><path fill="#0E141B" d="M80.606 53.615c1.146 0 1.146-1.78 0-1.78s-1.146 1.78 0 1.78Z"/><path fill="#473C2A" stroke="#0E141B" stroke-linecap="round" stroke-linejoin="round" stroke-width="1.505" d="M45.619 72.016a4.036 4.036 0 1 0 0-8.072 4.036 4.036 0 0 0 0 8.072Z"/><path stroke="#0E141B" stroke-linecap="round" stroke-linejoin="round" stroke-width="1.293" d="M35.767 70.934c11.69-4.916 23.345-9.49 35.234-14.811M36.675 73.242c11.48-5.047 23.241-10.806 34.912-15.85"/><path fill="#B6B3AF" d="M65.835 62.893s-1.011-1.413 0-3.383c.776-1.508 3.216-2.24 4.689-1.126 1.775 1.337 2.248 5.986-1.187 8.374"/><path stroke="#0E141B" stroke-linecap="round" stroke-linejoin="round" stroke-width="1.505" d="M65.835 62.893s-1.011-1.413 0-3.383c.776-1.508 3.216-2.24 4.689-1.126 1.926 1.453 2.36 6.699-2.17 8.951"/><path fill="#fff" d="M32.03 55.868s-1.963 3.288 1.21 6.512c2.635 2.675 6.157 1.887 7.284 2.905 1.126 1.02 1.357 2.89 0 4.224-1.242 1.23-7.794 3.025-12.558-1.282-6.87-6.213-5.254-15.699.565-20.905"/><path fill="#B6B3AF" d="M33.24 62.38c-3.173-3.224-1.21-6.512-1.21-6.512l-2.292-5.599c-4.059 4.184-5.807 10.736-2.756 16.706-.41-.482-.772-.828-1.09-1.056a14.6 14.6 0 0 0 2.074 2.308c4.764 4.307 11.316 2.512 12.558 1.282 1.357-1.334 1.126-3.204 0-4.224-.427-.385-1.197-.512-2.133-.666-1.535-.252-3.514-.578-5.151-2.24Z"/><path stroke="#0E141B" stroke-linecap="round" stroke-linejoin="round" stroke-width="1.505" d="M32.03 55.868s-1.963 3.288 1.21 6.512c2.635 2.675 6.157 1.887 7.284 2.905 1.126 1.02 1.357 2.89 0 4.224-1.242 1.23-7.794 3.025-12.558-1.282-6.87-6.213-5.254-15.699.565-20.905"/><path fill="#0E141B" stroke="#0E141B" stroke-linecap="round" stroke-linejoin="round" stroke-width="1.293" d="M84.264 38.597c-.31-.406-1.258-.298-1.851.23-.665.59-.736 1.442-.406 1.832.442.517 1.297.279 1.855-.279.545-.541.712-1.377.402-1.783ZM84.332 74.715c-.343-.454-1.397-.342-2.066.239-.745.649-.832 1.6-.466 2.034.486.581 1.441.322 2.07-.29.613-.598.804-1.525.462-1.983ZM90.294 73.947c-.342-.454-1.397-.343-2.066.239-.744.648-.832 1.6-.465 2.034.485.58 1.44.322 2.07-.29.612-.598.803-1.525.461-1.983Z"/><path stroke="#0E141B" stroke-linecap="round" stroke-linejoin="round" stroke-width="1.293" d="M84.264 38.597s-1.784-2.404-2.958-4.856c0 0 1.441-.816 3.14-.044 1.075.49 2.365.812 3.22.494M84.491 75.177l-1.142-5.545 5.715-1.119 1.23 5.434"/><path fill="#fff" d="M71.579 38.327c.55-4.2 1.775-9.653-.295-16.817C69.087 13.894 60.521 4.886 44.58 7.442c-15.802 2.535-23.926 12.96-22.397 25.82 1.524 12.865 7.809 17.355 12.267 19.078 10.934 4.22 35.58-2.157 37.129-14.014Z"/><path fill="#B6B3AF" d="M73.92 44.377c.907-.717-1.374-2.086-.594-2.691.947-.736 1.21-5.437-1.297-6.572.457-3.43.784-7.546-.454-12.522-2.759-6.325-11.297-12.968-24.356-11.352-14.724 1.82-21.251 11.101-20.292 23.206.314 3.968 1.895 8.088 3.733 10.556 2.389-5.979 12.905-6.385 12.905-6.385s.04-6.707 7.55-7.634c7.117-.88 8.714 3.18 9.072 4.995-.434-.688-2.352-3.315-7.658-2.75-7.428.792-6.99 7.499-6.99 7.499S35 40.619 33.487 47.024c-1.728 7.316 5.341 8.454 8.689 8.904 3.73.505 9.787.083 18.536-1.831 7.44-1.628 11.193-3.698 12.718-6.265.608-1.023.433-1.974.49-3.455Z"/><path stroke="#0E141B" stroke-linecap="round" stroke-linejoin="round" stroke-width="1.505" d="M71.579 38.327c.55-4.2 1.775-9.653-.295-16.817C69.087 13.894 60.521 4.886 44.58 7.442c-15.802 2.535-23.926 12.96-22.397 25.82 1.524 12.865 7.809 17.355 12.267 19.078 10.934 4.22 35.58-2.157 37.129-14.014Z"/><path stroke="#0E141B" stroke-linecap="round" stroke-linejoin="round" stroke-width="1.505" d="M41.439 30.242s.386 3.463-3.129 3.945c-3.514.482-3.737-3.005-3.737-3.005M65.747 27.396s.522 3.543-2.826 4.005c-3.351.457-3.67-3.017-3.67-3.017"/><path fill="#FABE00" d="M37.291 47.505s3.376 1.795 20.117-.72c14.21-2.134 16.021-4.988 16.471-6.488.406-1.35.235-4.486-3.168-4.995-3.742-.562-10.42 1.516-10.42 1.516s-.073-6.958-9.176-5.835c-7.51.927-7.55 7.634-7.55 7.634s-11.384-.115-13.02 6.803c-1.867 7.905 5.8 9.731 9.413 10.221 4.032.545 10.763.47 20.213-1.596 8.036-1.76 12.65-4.191 13.525-7.75.306-1.25.386-3.18-1.29-4"/><path fill="#B38500" d="M73.326 41.686c-.78.605 1.5 1.974.593 2.69-.056 1.481.12 2.433-.49 3.456-1.524 2.567-5.278 4.637-12.717 6.265-8.749 1.914-14.807 2.336-18.536 1.83-3.348-.45-10.417-1.587-8.69-8.903C35 40.619 45.54 40.727 45.54 40.727s-.438-6.707 6.99-7.5c5.305-.564 7.658 2.751 7.658 2.751l11.841-.864S75 39.5 73.326 41.686Z"/><path fill="#000" d="M54.14 37.363c.084.61.642 1.035 1.247.956a1.113 1.113 0 0 0 .947-1.254 1.113 1.113 0 0 0-1.246-.956 1.113 1.113 0 0 0-.947 1.254ZM47.633 38.478c.083.609.628.943 1.233.86.605-.084 1.043-.55.96-1.159a1.113 1.113 0 0 0-1.246-.955 1.113 1.113 0 0 0-.947 1.254Z"/><path stroke="#0E141B" stroke-linecap="round" stroke-linejoin="round" stroke-width="2.369" d="M34.378 25.868s4.299-.987 7.204-3.184M57.994 21.036s3.295.987 6.591.55"/><path stroke="#0E141B" stroke-linecap="round" stroke-linejoin="round" stroke-width="1.505" d="M37.291 47.505s3.376 1.795 20.117-.72c14.21-2.134 16.021-4.988 16.471-6.488.406-1.35.235-4.486-3.168-4.995-3.742-.562-10.42 1.516-10.42 1.516s-.073-6.958-9.176-5.835c-7.51.927-7.55 7.634-7.55 7.634s-11.384-.115-13.02 6.803c-1.867 7.905 5.8 9.731 9.413 10.221 4.032.545 10.763.47 20.213-1.596 8.036-1.76 12.65-4.191 13.525-7.75.306-1.25.386-3.18-1.29-4"/></g><defs><clipPath id="a"><path fill="#fff" d="M21 6h69.823v90H21z"/></clipPath></defs></svg>