<svg xmlns="http://www.w3.org/2000/svg" width="102" height="102" fill="none"><g clip-path="url(#a)"><path fill="#fff" d="m71.285 47.553-2.874-6.641-27.227 18.854-.597 2.17 5.044 14.35 3.98 2.367 5.948 1.068c-2.215 2.481.078 11.476.078 11.476 4.401.921 7.165-.868 7.165-.868-.205-6.297-.102-6.804 5.425-9.163 3.832-1.633 7.677-3.89 7.78-16.684.102-12.794-4.726-16.93-4.726-16.93h.004Z"/><path fill="#fff" d="M54.597 83.312c-1.007.475-1.777.118-1.846-1.859-.07-1.978 1.318-3.386 1.318-3.386l2.694-1.163 1.093 3.632"/><path fill="#0E141B" d="M38.339 94.027s6.858.061 9.953-.324c0 0 3.562 3.325 20.115-.692 16.553-4.016 21.11-7.857 20.647-9.032-.462-1.175-2.505-1.686-7.623-1.457-5.118.229-11.087.962-15.149 1.715 0 0-10.94 2.097-13.126 3.112 0 0-5.278-.397-7.796.737-2.518 1.134-7.021 5.945-7.021 5.945v-.004Z"/><path fill="#fff" d="M53.967 77.752s-3.935-.012-4.357.9c-.421.91 1.405 1.761 3.255 1.675M73.513 38.906a3.034 3.034 0 0 0-.615-5.806 3.64 3.64 0 0 0 1.028-2.539c0-1.38-.765-2.583-1.9-3.201a2.887 2.887 0 0 0 1.143-2.301 2.894 2.894 0 0 0-2.24-2.817c.172-.344.27-.729.27-1.134a2.554 2.554 0 0 0-2.472-2.55 3.651 3.651 0 0 0-3.653-3.657c-.442 0-.864.082-1.26.23a2.633 2.633 0 0 0-4.635-1.602 3.783 3.783 0 0 0-3.66-2.833 3.78 3.78 0 0 0-3.018 1.507 3.31 3.31 0 0 0-3.124-2.223c-1.29 0-2.403.74-2.952 1.817a2.634 2.634 0 0 0-5.134.602 4.096 4.096 0 0 0-7.034 2.837 4.683 4.683 0 0 0-7.599 3.664c0 .075.008.148.012.222a2.635 2.635 0 0 0-3.697 2.416c0 .417.098.814.274 1.163a2.635 2.635 0 0 0-1.978 4.635 4.81 4.81 0 0 0-4.212 4.769c0 1.27.495 2.42 1.298 3.28a4.098 4.098 0 0 0-2.113 3.582 4.085 4.085 0 0 0 2.645 3.824c-1.154.68-1.961 2.096-1.961 3.46 0 1.363.77 2.485 1.883 3.046a4.766 4.766 0 0 0-.65 2.411 4.813 4.813 0 0 0 2.845 4.39 1.943 1.943 0 0 0-.766 1.539c0 1.072.868 1.945 1.94 1.953a2.495 2.495 0 0 0 1.97 4.02c.062 0 .119-.004.18-.008a1.94 1.94 0 0 0-.307 1.044 1.95 1.95 0 0 0 1.896 1.949 1.925 1.925 0 0 0-.311 1.052c0 1.057.84 1.912 1.887 1.95a1.21 1.21 0 0 0 1.13.785c.205 0 .397-.057.565-.147.123.925.786 1.63 1.998 1.63.925 0 1.67-.877 1.67-1.954 0-.45-.04-.794-.114-1.06a1.953 1.953 0 0 0 3.021-1.634c0-.675-.077-1.22-.216-1.662a1.948 1.948 0 0 0 1.801-1.94c0-.688-.356-1.29-.896-1.638a3.158 3.158 0 0 0 1.326-4.336s2.076 1.527 2.436-1.953c.164-1.61-.528-2.46-.86-2.854.942-.397 1.904-1.273 1.904-2.456 0-.438-.147-.836-.389-1.159.045 0 .09.008.135.008 2.227 0 5.81-2.076 6.047-5.92.058-.925-.31-1.875-.925-2.604a2.076 2.076 0 0 0 2.49-2.035c0-.307-.041-.745-.844-1.138 1.961.663 2.833-1.016 2.833-2.313 0-.39 0-.758-.004-1.11a3.307 3.307 0 0 0 2.862 1.654c.942 0 1.79-.393 2.391-1.023a3.297 3.297 0 0 0 4.9.516c.001.036-.003.07-.003.106a3.31 3.31 0 0 0 4.77 2.968 3.31 3.31 0 0 0 3.116 4.418c.032 0 .06 0 .09-.004a3.3 3.3 0 0 0 1.539 2.088s-.131 1.159-.692 2.833a3.037 3.037 0 0 0 3.59-3.86 2.626 2.626 0 0 0 .34-4.877l.009-.02Z"/><path fill="#fff" d="m69.652 47.45.037-.118c.475-1.507.59-2.523.59-2.523a3.3 3.3 0 0 1-1.54-2.087c-.033 0-.062.004-.09.004a3.31 3.31 0 0 1-3.116-4.418 3.31 3.31 0 0 1-4.77-2.968c0-.037.004-.07.004-.107a3.297 3.297 0 0 1-4.9-.516 3.294 3.294 0 0 1-2.392 1.024 3.307 3.307 0 0 1-2.862-1.654c.005.348.005.72.005 1.11 0 1.297-.869 2.98-2.834 2.313.803.393.844.83.844 1.138a2.076 2.076 0 0 1-2.49 2.034c.614.73.983 1.68.926 2.604-.238 3.845-3.82 5.92-6.048 5.92-.045 0-.09-.003-.135-.007.242.323.39.724.39 1.158 0 1.184-.963 2.06-1.905 2.457.332.397 1.028 1.245.86 2.853-.356 3.48-2.436 1.953-2.436 1.953a3.138 3.138 0 0 1 .057 2.928c.954.884 5.597 3.05 11.526 2.088 8.38-1.363 14.83-6.567 16.95-9.11 1.711-2.051 2.698-4.23 3.255-5.896l.061-.184.013.004Z"/><path stroke="#0E141B" stroke-linecap="round" stroke-linejoin="round" stroke-width="1.433" d="M45.455 51.123s.135.868.7 1.502M43.858 51.123s.094 1.33.819 2.252M42.433 52.028s.07.675.495 1.347M65.619 58.44s-1.126 7.73-1.482 11.619c0 0-9.212 4.25-10.285 6.804 0 0-.127 1.634 1.576 3.018"/><path fill="#fff" d="M62.393 57.063s-5.016 9.479-7.403 14.179c0 0-4.68-5.339-6.57-8.475"/><path stroke="#0E141B" stroke-linecap="round" stroke-linejoin="round" stroke-width="1.433" d="m53.672 61.58-2.969 4.442M55.654 60.843l.667.736 2.342 2.576"/><path fill="#0E141B" d="m56.1 61.334-.446-.492h-.009c-.634.258-1.29.5-1.965.725v.013l-.876 1.302.868.92-.454 5.36c1.02 1.224 1.768 2.08 1.768 2.08.266-.524.57-1.114.889-1.74l-1.06-5.843 1.277-2.33.008.005Z"/><path stroke="#0E141B" stroke-linecap="round" stroke-linejoin="round" stroke-width="1.433" d="M44.677 56.572c-1.22-.008-2.858.946-2.244 2.993.614 2.047 4.197 1.794 4.385-.147"/><path stroke="#0E141B" stroke-linecap="round" stroke-linejoin="round" stroke-width="1.433" d="M45.635 57.063s-.127 2.224 1.945 2.633c2.071.41 3.128-1.06 3.128-2.117 0-1.568-1.617-3.132-4.279-1.568"/><path fill="#0E141B" d="M47.064 55.688s-.316 1.412-1.372 2.047c0 0-1.453.197-1.986-.974 0 0-.274-1.159 1.188-1.67 1.462-.513 2.17.597 2.17.597ZM47.588 52.249c-.315-.344-1.044-1.245.83-2.133 1.876-.889 8.48-3.46 9.778-1.773 1.261 1.638.843 3.316-1.81 4.11-1.424.426-2.853.64-3.844.676-3.325.123-4.18-.024-4.954-.88Z"/><path fill="#fff" d="M40.595 75.578c-3.075 2.514-4.815 3.947-3.69 8.094 1.127 4.148 2.482 6.719 2.482 6.719s4.36-.172 6.416-2.805c0 0-1.937-5.412-1.63-7.607"/><path fill="#fff" d="M40.718 90.227s-2.04 3.05-2.38 3.8c0 0 2.867-.48 4.095-1.843l.385.336s1.322.397 2.276-1.06c0 0 .119-1.126-.827-2.518M56.1 91.283s-2.269 3.497-2.027 3.837c.237.34 1.707.278 4.38-1.499 0 0 .177.315.394.54.155.16.761.23 1.191.156.991-.172 1.212-.72 1.003-3.259M68.501 79.996c-.04.585-.094 1.093-.094 1.093s-.057 3.738-.147 5.433c-.029.52-.074 1.052-1.52 1.437-1.15.307-1.874.049-1.858-.823.016-1.056 0-4.348 0-4.348l-.418-2.846-6.055-.077.47 4.086-.216 4.626h-3.57c-1.06-.106-1.417-.356-1.679-.639-.655-.708-.61-5.867-.61-5.867l3.517-2.235-6.109-.078s.098 4.643.205 5.937c.106 1.298.168 4.864 4.778 4.946 4.324.077 12.901.683 15.32-2.527v-8.106l-2.014-.025v.013Z"/><path stroke="#0E141B" stroke-linecap="round" stroke-linejoin="round" stroke-width="1.433" d="M68.41 81.085s-.056 3.738-.147 5.433c-.028.52-.073 1.052-1.518 1.437-1.15.307-1.876.049-1.86-.823.017-1.056 0-4.348 0-4.348M52.804 82.075s-.05 5.163.61 5.867c.262.283.618.533 1.679.64M71.297 45.17s-.614-.135-1.019-.36"/><path stroke="#0E141B" stroke-linecap="round" stroke-linejoin="round" stroke-width="1.433" d="M73.513 38.906a3.034 3.034 0 0 0-.615-5.806 3.64 3.64 0 0 0 1.028-2.539c0-1.38-.765-2.583-1.9-3.201a2.887 2.887 0 0 0 1.143-2.301 2.894 2.894 0 0 0-2.24-2.817c.172-.344.27-.729.27-1.134a2.554 2.554 0 0 0-2.472-2.55 3.651 3.651 0 0 0-3.653-3.657c-.442 0-.864.082-1.26.23a2.633 2.633 0 0 0-4.635-1.602 3.783 3.783 0 0 0-3.66-2.833 3.78 3.78 0 0 0-3.018 1.507 3.31 3.31 0 0 0-3.124-2.223c-1.29 0-2.403.74-2.952 1.817a2.634 2.634 0 0 0-5.134.602 4.096 4.096 0 0 0-7.034 2.837 4.683 4.683 0 0 0-7.599 3.664c0 .075.008.148.012.222a2.635 2.635 0 0 0-3.697 2.416c0 .417.098.814.274 1.163a2.635 2.635 0 0 0-1.978 4.635 4.81 4.81 0 0 0-4.212 4.769c0 1.27.495 2.42 1.298 3.28a4.098 4.098 0 0 0-2.113 3.582 4.085 4.085 0 0 0 2.645 3.824c-1.154.68-1.961 2.096-1.961 3.46 0 1.363.77 2.485 1.883 3.046a4.766 4.766 0 0 0-.65 2.411 4.813 4.813 0 0 0 2.845 4.39 1.943 1.943 0 0 0-.766 1.539c0 1.072.868 1.945 1.94 1.953a2.495 2.495 0 0 0 1.97 4.02c.062 0 .119-.004.18-.008a1.94 1.94 0 0 0-.307 1.044 1.95 1.95 0 0 0 1.896 1.949 1.925 1.925 0 0 0-.311 1.052c0 1.057.84 1.912 1.887 1.95a1.21 1.21 0 0 0 1.13.785c.205 0 .397-.057.565-.147.123.925.786 1.63 1.998 1.63.925 0 1.67-.877 1.67-1.954 0-.45-.04-.794-.114-1.06a1.953 1.953 0 0 0 3.021-1.634c0-.675-.077-1.22-.216-1.662a1.948 1.948 0 0 0 1.801-1.94c0-.688-.356-1.29-.897-1.638a3.158 3.158 0 0 0 1.327-4.336s2.076 1.527 2.436-1.953c.164-1.61-.528-2.46-.86-2.854.942-.397 1.904-1.273 1.904-2.456 0-.438-.147-.836-.389-1.159.045 0 .09.008.135.008 2.227 0 5.81-2.076 6.047-5.92.058-.925-.31-1.875-.925-2.604a2.076 2.076 0 0 0 2.49-2.035c0-.307-.041-.745-.844-1.138 1.961.663 2.833-1.016 2.833-2.313 0-.39 0-.758-.004-1.11a3.307 3.307 0 0 0 2.862 1.654c.942 0 1.79-.393 2.391-1.023a3.297 3.297 0 0 0 4.9.516c.001.036-.003.07-.003.106a3.31 3.31 0 0 0 4.77 2.968 3.31 3.31 0 0 0 3.116 4.418c.032 0 .06 0 .09-.004a3.3 3.3 0 0 0 1.539 2.088s-.131 1.159-.692 2.833a3.037 3.037 0 0 0 3.59-3.86 2.626 2.626 0 0 0 .34-4.877l.009-.02Z"/><path stroke="#0E141B" stroke-linecap="round" stroke-linejoin="round" stroke-width="1.433" d="M37.86 60.556c.954.884 5.597 3.046 11.525 2.084 8.381-1.363 14.83-6.567 16.95-9.11 3.427-4.11 3.943-8.72 3.943-8.72"/><path stroke="#0E141B" stroke-linecap="round" stroke-linejoin="round" stroke-width="1.433" d="M62.393 57.063s-5.016 9.479-7.403 14.179c0 0-4.68-5.339-6.57-8.475M56.1 91.283s-2.269 3.497-2.027 3.837c.237.34 1.707.278 4.38-1.499 0 0 .177.315.394.54.155.16.761.23 1.191.156.991-.172 1.212-.72 1.003-3.259"/><path stroke="#0E141B" stroke-linecap="round" stroke-linejoin="round" stroke-width=".819" d="M32.337 88.02v3.55M30.7 87.791v3.419M35.678 72.872v2.8M34.04 75.193v3.41M31.927 75.193v4.369M24.558 74.853v2.866M23.055 74.853v4.709M20.668 74.272v3.447M15.96 54.791v4.365M14.322 52.265v5.937M12.41 49.194v7.096M30.085 54.517v2.457M31.518 54.038v5.118M33.016 55.234v1.74M25.172 37.117v5.801M26.74 40.322v5.462M28.582 38.89v5.117M41.479 44.007v1.777M42.707 42.918v2.866M44.345 42.165v5.732M15.48 24.834v5.048M17.118 23.265v3.206M18.551 21.149v4.094M25.99 14.463v7.23M28.038 12.96v8.733M30.085 17.738v3.41M34.45 8.322v7.095M36.43 9.755v8.323M50.826 7.707v4.913M52.738 8.866v5.867M55.265 6.41v5.392M67.887 10.573v2.387M69.525 10.164v4.569M70.888 11.392v2.047M56.833 21.149v3.685M58.81 20.81v6.89M60.792 21.693v2.56M78.123 25.243v8.324M80.715 29.063v5.392M83.376 29.407v4.639M69.115 34.046v4.843M70.618 34.455v5.56M71.981 34.864v3.616M54.58 42.918v2.113M56.014 41.448v5.425M57.447 43.053v2.73M70.004 51.377v1.912M67.887 49.649v5.142M66.25 50.492v3.546M77.1 45.784v7.505M78.942 48.376v6.141M81.808 48.855v4.434M78.942 65.297v3.824M81.058 65.981v4.434M82.831 65.981v3.14M62.43 74.853v2.866M63.862 74.272v3.992M65.361 74.579v1.707"/><path stroke="#0E141B" stroke-linecap="round" stroke-linejoin="round" stroke-width="1.433" d="M53.967 77.752s-3.935-.012-4.357.9c-.421.91 1.405 1.761 3.255 1.675"/><path fill="#fff" d="M40.587 61.936s-1.02 6.743-1.122 8.278c-.103 1.536-.356 3.403 1.277 5.577 1.704 2.264 3.93 4.757 3.93 4.757s1.544-2.866 4.41-2.661c0 0-.876-3.57-3.25-6.645 0 0 .25-2.874.319-4.819"/><path fill="#fff" d="M48.992 77.887c-2.322-.11-3.755 1.785-4.18 2.44 0 0 .884 1.044 1.08 1.843.193.773.557 1.142 1.122.966.275-.086.63-.3.574-.913 0 0 .356.7.982.508.442-.136.623-.414.667-.717.439.205.942-.16 1.077-.577.54-1.67-1.285-3.51-1.326-3.55h.004Z"/><path stroke="#0E141B" stroke-linecap="round" stroke-linejoin="round" stroke-width="1.433" d="M40.587 61.936s-1.02 6.743-1.122 8.278c-.103 1.536-.356 3.403 1.277 5.577 1.704 2.264 3.93 4.757 3.93 4.757s1.544-2.866 4.41-2.661c0 0-.876-3.57-3.25-6.645 0 0 .25-2.874.319-4.819"/><path stroke="#0E141B" stroke-linecap="round" stroke-linejoin="round" stroke-width="1.433" d="M48.988 77.883s1.875 1.863 1.33 3.554c-.135.418-.638.782-1.076.577M44.812 80.327s.884 1.04 1.08 1.843c.193.773.557 1.142 1.122.966.373-.119.897-.459.332-1.74"/><path stroke="#0E141B" stroke-linecap="round" stroke-linejoin="round" stroke-width="1.433" d="M47.588 82.223s.356.7.983.507c1.04-.319.655-1.437.348-1.768M40.718 90.227s-2.04 3.05-2.38 3.8c0 0 2.867-.48 4.095-1.843l.385.336s1.322.397 2.276-1.06c0 0 .119-1.126-.827-2.518"/><path stroke="#0E141B" stroke-linecap="round" stroke-linejoin="round" stroke-width="1.433" d="M40.595 75.578c-3.075 2.514-4.815 3.947-3.69 8.094 1.127 4.148 2.482 6.719 2.482 6.719s4.36-.172 6.416-2.805c0 0-1.937-5.412-1.63-7.607M50.212 79.766s.098 4.643.205 5.937c.106 1.298.168 4.864 4.778 4.946 4.324.078 12.901.684 15.32-2.526v-8.107"/><path stroke="#0E141B" stroke-linecap="round" stroke-linejoin="round" stroke-width="1.433" d="M54.069 78.063s-1.384 1.408-1.319 3.386c.07 1.978.84 2.334 1.847 1.859"/><path fill="#fff" d="M63.383 84.237a417.007 417.007 0 0 0-8.74-1.748c-.312 3.582.994 8.704.994 8.704 4.401.922 7.165-.868 7.165-.868-.102-3.173-.127-4.876.581-6.088Z"/><path stroke="#0E141B" stroke-linecap="round" stroke-linejoin="round" stroke-width="1.433" d="M71.285 47.553s4.828 4.135 4.725 16.93c-.102 12.794-3.947 15.05-7.779 16.684-5.527 2.354-5.63 2.866-5.425 9.163 0 0-2.764 1.793-7.165.868 0 0-2.354-9.212 0-11.567 1.892-1.891 4.401-2.505 9.212-3.377 4.811-.873 6.653-3.788 7.165-15.919"/></g><defs><clipPath id="a"><path fill="#fff" d="M12 6h77.087v90H12z"/></clipPath></defs></svg>