<svg xmlns="http://www.w3.org/2000/svg" width="24" height="24" fill="none"><path stroke="#000" stroke-opacity=".4" stroke-width="1.2" d="M12 3a8.972 8.972 0 0 1 6.364 2.636A8.972 8.972 0 0 1 21 12a8.972 8.972 0 0 1-2.636 6.364A8.972 8.972 0 0 1 12 21a8.972 8.972 0 0 1-6.364-2.636A8.972 8.972 0 0 1 3 12a8.972 8.972 0 0 1 2.636-6.364A8.972 8.972 0 0 1 12 3Z"/><path fill="#000" fill-opacity=".4" fill-rule="evenodd" d="M15.242 13.282a.632.632 0 0 1 .435.783c-.43 1.494-1.98 2.537-3.765 2.537-1.784 0-3.332-1.043-3.764-2.536a.635.635 0 0 1 1.221-.35c.272.94 1.341 1.621 2.543 1.621 1.203 0 2.273-.682 2.544-1.622a.635.635 0 0 1 .786-.433Zm-2.873-2.435a.59.59 0 0 1-.405.73c-.119.035-.241.208-.241.44 0 .233.122.406.24.44a.59.59 0 1 1-.327 1.135c-.647-.185-1.1-.833-1.1-1.575 0-.741.452-1.388 1.1-1.574.314-.09.643.09.733.404ZM8.344 8.663c.466 0 .847.38.847.843v.771a.848.848 0 0 1-.847.843h-.029a.848.848 0 0 1-.847-.843v-.771c0-.464.381-.843.847-.843h.029Zm7.117 0c.466 0 .847.38.847.843v.771a.848.848 0 0 1-.847.843h-.029a.848.848 0 0 1-.847-.843v-.771c0-.464.381-.843.847-.843h.029Z" clip-rule="evenodd"/></svg>