<svg xmlns="http://www.w3.org/2000/svg" width="102" height="102" fill="none"><g clip-path="url(#a)"><path fill="#fff" d="M81.107 55.044c-.525-.181-2.849-.293-6.291-.362.654 2.921-.185 6.73-4.14 11.263-9.9 9.498-32.032 7.194-35.687 5.084 0 0-2.833-1.204-3.134-3.712-.148-1.243.47-2.006 1.28-2.451-1.677.417-4.49-.205-4.49-.205s4.414 1.404 2.36 4.165c-2.055 2.76-5.465-1.103-5.465-1.103s3.073 3.964 1.003 5.505c1.914 1.781 4.361 3.19 7.491 3.892 6.821 1.404 5.617 4.883 6.019 11.435 0 0 9.465 5.477 30.726.786 0 0 1.052-5.818 1.405-13.34 0 0 10.384-7.925 11.034-15.65 0 0 .834-4.296-2.107-5.3l-.004-.008Z"/><path fill="#fff" d="M49.746 22.479c-8.952.249-12.972 2.809-12.972 2.809s-13.879 4.915-12.912 21.747c.839-.53 1.697-.634 2.38.268 1.079 1.433-.109 3.094-1.437 4.326.514-.301 1.02-.546 1.509-.734 1.364-.522 2.596-.618 3.563-.41 2.808-2.014 6.965-1.488 9.228-1.3.734.06 2.985.502 3.31-1.906.345-2.54 2.91-4.036 6.597-4.008 3.695.028 6.889-.666 8.225 4.618.365 1.348.87.87 3.278.534 2.408-.333 4.314-.823 7.692-.269 3.406.558 9.232 5.264 5.734 12.912 2.37-2.901 3.84-6.288 3.96-10.035.63-19.649-8.827-29.09-28.155-28.556v.004Z"/><path fill="#fff" d="M65.888 57.792c.438-1.075.057-2.267-1.231-2.548-2.765-.606-4.213 1.589-11.135 2.143-4.694.373-13.26.842-19.01.521 0 0-.851 4.04 3.11 4.141 2.206.2 2.908-.85 2.908-.85s.955 1.452 2.961 1.404c2.007-.049 3.21-1.605 3.21-1.605s.955 1.252 2.961 1.252c2.007 0 3.258-1.505 3.258-1.505s.25 1.252 2.81.754c2.559-.497 2.559-1.805 2.559-1.805s.85.602 2.961.048c1.493-.65 1.906-1.661 1.906-1.661s2.275.842 2.732-.285"/><path stroke="#0E141B" stroke-linecap="round" stroke-linejoin="round" stroke-width="1.464" d="M70.775 89.333s1.051-5.818 1.404-13.341c0 0 10.385-7.925 11.035-15.648 0 0 .834-4.298-2.107-5.3-2.941-1.004-61.458 0-61.458 0s-.268 18.79 14.377 22.067c6.82 1.405 5.617 4.883 6.018 11.436"/><path fill="#C11A20" d="m20.388 26.555 1.673 1.003s.939.474 1.605-.032a16.855 16.855 0 0 0 1.171-.97s1.272-.803-.132-2.14c-1.404-1.335-6.725-8.345-6.725-8.345s-1.039-1.509-2.443-.337c-1.405 1.172-3.27 2.965-3.27 2.965s-1.505 1.035.268 2.408c1.774 1.372 7.857 5.448 7.857 5.448M29.115 22.442s.57.534 1.472.233c.903-.3 1.673-.702 1.673-.702s1.072-.41.502-1.781c-.57-1.373-4.213-11.428-4.213-11.428s-.502-2.359-2.777-1.436c-2.138.867-4.345 1.906-4.345 1.906s-2.03.979-.076 3.133l7.764 10.072v.003ZM33.412 8.66l2.106 9.979s.048 1.26 1.581 1.228c1.228-.024 1.93-.225 2.107-1.328.176-1.104.678-10.208.678-10.208s.2-1.352-1.38-1.553c-1.052-.132-2.344-.084-3.323.064-.762.113-2.042.779-1.765 1.818"/><path fill="#0E141B" d="M62.602 40.201c-.939.02-2.311-.128-2.347-1.709-.02-.939.955-2.179 1.893-2.199.94-.02 1.934.839 1.955 1.778.02.939-.562 2.11-1.501 2.13ZM38.492 40.025c0 .939-.177 2.311-1.758 2.315-.939 0-2.159-.999-2.163-1.938 0-.939.88-1.918 1.818-1.918.939 0 2.099.606 2.099 1.545"/><path stroke="#0E141B" stroke-linecap="round" stroke-linejoin="round" stroke-width="1.464" d="M36.77 25.287s-19.977 7.07-10.332 33.303c8.459 23.003 50.79 13.31 51.46-7.555.63-19.649-8.828-29.09-28.155-28.556-8.952.248-12.973 2.808-12.973 2.808Z"/><path stroke="#0E141B" stroke-linecap="round" stroke-linejoin="round" stroke-width="1.464" d="M65.888 57.792c.438-1.075.057-2.267-1.231-2.548-2.765-.606-4.213 1.589-11.135 2.143-4.694.373-13.26.842-19.01.521 0 0-.851 4.04 3.11 4.141 2.206.2 2.908-.85 2.908-.85s.955 1.452 2.961 1.404c2.007-.049 3.21-1.605 3.21-1.605s.955 1.252 2.961 1.252c2.007 0 3.258-1.505 3.258-1.505s.25 1.252 2.81.754c2.559-.497 2.559-1.805 2.559-1.805s.85.602 2.961.048c1.493-.65 1.906-1.661 1.906-1.661s2.275.842 2.732-.285v-.004Z"/><path stroke="#0E141B" stroke-linecap="round" stroke-linejoin="round" stroke-width="2.091" d="M58.02 32.743s2.524-3.379 6.32-1.004M39.478 34.364s-1.404-2.255-4.165-1.754c-2.576.47-3.11 1.754-3.11 1.754"/><path stroke="#0E141B" stroke-linecap="round" stroke-linejoin="round" stroke-width="1.255" d="M82.247 31.667s4.28-1.063 8.494 2.696M83.715 26.491s5.617-1.135 10.163 3.944M16.644 39.933s-5.084-.27-9.297 4.746M6.011 37.124s2.941-3.31 10.633-2.757"/><path stroke="#0E141B" stroke-linecap="round" stroke-linejoin="round" stroke-width="1.464" d="M63.151 58.08s-.826-1.271-.927-2.676M58.289 59.694l-.546-2.954M52.62 57.443l.3 3.302M46.701 60.998l-.148-3.146M40.602 57.988s-.47 1.505-.068 3.21M20.388 26.555l1.673 1.003s.939.474 1.605-.032a16.855 16.855 0 0 0 1.171-.97s1.272-.803-.132-2.14c-1.404-1.335-6.725-8.345-6.725-8.345s-1.039-1.509-2.443-.337c-1.405 1.172-3.27 2.965-3.27 2.965s-1.505 1.035.268 2.408c1.774 1.372 7.857 5.448 7.857 5.448h-.004ZM29.115 22.442s.57.534 1.472.233c.903-.3 1.673-.702 1.673-.702s1.072-.41.502-1.781c-.57-1.373-4.213-11.428-4.213-11.428s-.502-2.359-2.777-1.436c-2.138.867-4.345 1.906-4.345 1.906s-2.03.979-.076 3.133l7.764 10.072v.003ZM33.412 8.66l2.106 9.979s.048 1.26 1.581 1.228c1.228-.024 1.93-.225 2.107-1.328.176-1.104.678-10.208.678-10.208s.2-1.352-1.38-1.553c-1.052-.132-2.344-.084-3.323.064-.762.113-2.042.779-1.765 1.818h-.004Z"/><path fill="#FABE00" d="M28.946 51.292c2.736-2.958 7.631-2.316 10.155-2.107.734.06 2.985.502 3.31-1.906.345-2.54 2.91-4.036 6.597-4.008 3.695.028 6.889-.666 8.225 4.618.365 1.348.87.87 3.278.534 2.408-.333 4.314-.823 7.692-.269 4.08.67 11.636 7.29 2.476 17.787-9.899 9.497-32.031 7.194-35.687 5.084 0 0-2.832-1.204-3.133-3.712-.301-2.508 2.508-3.057 3.763-3.01 1.256.049 11.383.354 17.502-.152 6.12-.501 11.047-3.667 12.086-5.015 1.019-1.32 1.288-3.495-.554-3.896-2.107-.462-3.447.702-7.026 1.525-1.12.256-2.46.481-4.108.614-6.922.55-22.27 1.303-24.576-.554-2.307-1.854-1.156-4.165 0-5.541"/><path fill="#0E141B" d="M48.017 47.464c0 .517-.1 1.272-.97 1.272-.518 0-1.189-.554-1.189-1.072 0-.517.486-1.05 1.004-1.05.517 0 1.155.336 1.155.85ZM53.357 48.748c-.517.012-1.272-.072-1.292-.94-.012-.517.526-1.199 1.044-1.21.517-.013 1.063.46 1.075.978.012.518-.309 1.16-.827 1.172Z"/><path stroke="#0E141B" stroke-linecap="round" stroke-linejoin="round" stroke-width="1.464" d="M28.946 51.292c2.736-2.958 7.631-2.316 10.155-2.107.734.06 2.985.502 3.31-1.906.345-2.54 2.91-4.036 6.597-4.008 3.695.028 6.889-.666 8.225 4.618.365 1.348.87.87 3.278.534 2.408-.333 4.314-.823 7.692-.269 4.08.67 11.636 7.29 2.476 17.787-9.899 9.497-32.031 7.194-35.687 5.084 0 0-2.832-1.204-3.133-3.712-.301-2.508 2.508-3.057 3.763-3.01 1.256.049 11.383.354 17.502-.152 6.12-.501 11.047-3.667 12.086-5.015 1.019-1.32 1.288-3.495-.554-3.896-2.107-.462-3.447.702-7.026 1.525-1.12.256-2.46.481-4.108.614-6.922.55-22.27 1.303-24.576-.554-2.307-1.854-1.156-4.165 0-5.541v.008Z"/><path fill="#9FA0A0" d="M12.495 55.027s-6.32-.248-6.773 2.76c-.453 3.01 5.618 2.81 5.618 2.81s-6.22 3.009-4.414 6.119 5.369.353 5.369.353-2.56 5.817 1.504 6.572c4.065.754 3.058-4.915 3.058-4.915s-.249 5.569 2.307 5.569 2.857-2.307 2.106-5.016c0 0 2.456 5.517 5.016 4.113s-.754-5.665-.754-5.665 3.41 3.86 5.465 1.103c2.054-2.757-2.36-4.165-2.36-4.165s6.32 1.404 5.666-1.404c-.654-2.809-6.974-2.608-6.974-2.608s6.52.553 6.267-2.36c-.252-2.913-8.072-1.905-8.072-1.905s6.869-1.806 6.42-4.113c-.322-1.633-2.677-2.512-5.646-1.376-1.224.47-2.552 1.284-3.884 2.527 0 0 5.818-3.458 3.812-6.118-2.006-2.657-5.57 3.41-5.57 3.41s.402-4.562-2.206-4.562-1.505 6.167-1.505 6.167-4.06-6.22-6.42-3.51c-2.359 2.708 1.958 6.218 1.958 6.218"/><path stroke="#0E141B" stroke-linecap="round" stroke-linejoin="round" stroke-width="1.464" d="M12.495 55.027s-6.32-.248-6.773 2.76c-.453 3.01 5.618 2.81 5.618 2.81s-6.22 3.009-4.414 6.119 5.369.353 5.369.353-2.56 5.817 1.504 6.572c4.065.754 3.058-4.915 3.058-4.915s-.249 5.569 2.307 5.569 2.857-2.307 2.106-5.016c0 0 2.456 5.517 5.016 4.113s-.754-5.665-.754-5.665 3.41 3.86 5.464 1.103c2.055-2.757-2.359-4.165-2.359-4.165s6.32 1.404 5.666-1.404c-.654-2.809-6.974-2.608-6.974-2.608s6.52.553 6.267-2.36c-.252-2.913-8.072-1.905-8.072-1.905s6.869-1.806 6.42-4.113c-.322-1.633-2.677-2.512-5.646-1.376-1.224.47-2.552 1.284-3.884 2.527 0 0 5.818-3.458 3.812-6.118-2.006-2.657-5.57 3.41-5.57 3.41s.402-4.562-2.206-4.562-1.505 6.167-1.505 6.167-4.06-6.22-6.42-3.51c-2.359 2.708 1.958 6.218 1.958 6.218l.012-.004Z"/><path stroke="#0E141B" stroke-linecap="round" stroke-linejoin="round" stroke-width="1.464" d="M20.17 56.472s-2.507-3.463-4.862-1.04c-2.355 2.424 1.505 4.157 1.505 4.157M15.204 61.046s-3.511 2.407-1.806 4.766c1.705 2.36 5.116-1.05 5.116-1.05M24.083 61.9s2.76 2.91.955 4.166c-1.805 1.255-4.26-1.606-4.26-1.606"/><path fill="#C1AB05" d="M83.25 43.207s2.339-6.352 5.75-4.682c3.41 1.673-.334 6.688-.334 6.688s4.322-4.971 6.753-.802c1.336 2.29-4.08 5.75-4.08 5.75s5.685 1.07 4.883 3.88c-.803 2.808-5.485 1.673-7.423.934 0 0 3.811 4.683 1.135 6.151-2.676 1.473-5.084-4.345-5.084-4.345s.735 6.019-2.607 6.352c-3.343.332-2.207-6.352-2.207-6.352s-4.213 5.015-6.22 2.74c-1.155-1.312-1.272-4.682 2.408-6.688 0 0-6.689 2.074-6.954-1.072-.268-3.141 6.151-3.41 6.151-3.41s-6.086-1.874-4.28-5.617c1.805-3.744 6.752 2.74 6.752 2.74s-3.142-7.355 1.336-7.957c4.482-.601 4.013 5.686 4.013 5.686"/><path stroke="#0E141B" stroke-linecap="round" stroke-linejoin="round" stroke-width="1.464" d="M83.25 43.207s2.339-6.352 5.75-4.682c3.41 1.673-.334 6.688-.334 6.688s4.322-4.971 6.753-.802c1.336 2.29-4.08 5.75-4.08 5.75s5.685 1.07 4.883 3.88c-.803 2.808-5.485 1.673-7.423.934 0 0 3.811 4.683 1.135 6.151-2.676 1.473-5.084-4.345-5.084-4.345s.735 6.019-2.607 6.352c-3.343.332-2.207-6.352-2.207-6.352s-4.213 5.015-6.22 2.74c-1.155-1.312-1.272-4.682 2.408-6.688 0 0-6.689 2.074-6.954-1.072-.268-3.141 6.151-3.41 6.151-3.41s-6.086-1.874-4.28-5.617c1.805-3.744 6.752 2.74 6.752 2.74s-3.142-7.355 1.336-7.957c4.482-.601 4.013 5.686 4.013 5.686l.008.004Z"/><path fill="#C1AB05" d="M85.874 47.958s5.264-1.252 5.718 1.05c.449 2.308-4.964 2.36-4.964 2.36M79.402 52.218s-2.159 3.162.702 4.213c0 0 2.159 1.156 4.16-3.009M79.502 48.808S75.94 45.9 77.65 44.045c1.709-1.853 4.662 2.007 4.662 2.007"/><path stroke="#0E141B" stroke-linecap="round" stroke-linejoin="round" stroke-width="1.464" d="M85.874 47.958s5.264-1.252 5.718 1.05c.449 2.308-4.964 2.36-4.964 2.36M79.402 52.218s-2.159 3.162.702 4.213c0 0 2.159 1.156 4.16-3.009M79.502 48.808S75.94 45.9 77.65 44.045c1.709-1.853 4.662 2.007 4.662 2.007"/><path stroke="#fff" stroke-linecap="round" stroke-linejoin="round" stroke-width="1.255" d="M87.379 40.883s-1.305 1.706-1.706 2.408M91.39 46s.603-.402 1.253-.602M88.028 49.362s.75-.301 1.304-.249M90.536 53.222s1.505.048 2.006.4M86.925 57.033s.35.955.75 1.405M81.544 53.073s-.534.77-.77 1.236M81.476 58.623s-.132 1.203.032 1.837M76.027 56.183s-.935.77-1.171 1.472M74.138 50.461s-1.621.305-2.392.706M74.423 44.88s-.502-.37-1.104-.602M79 45.65s.301.47.702.803M78.968 39.496s.069.77.233 1.171M18.514 48.23s-.14.859 0 .96M11.83 50.365s.533 1.203 1.135 1.673M7.632 58.089s.955.1 1.654 0M8.419 65.544s.469-.734 1.07-1.003M13.534 70.19s-.333 1.003-.068 1.537M18.983 71.394s-.068.702.132 1.103M24.067 70.627s.534.803.935 1.136M28.212 67.217s.533.602.734.602M28.745 62.402s1.003-.068 1.738.2M27.842 58.221s1.674-.269 2.608 0M27.542 52.503s1.103-.268 1.737-.268M24.532 48.56s-.401.332-.67.601"/><path fill="#9FA0A0" d="M21.323 53.575s1.741-1.818 2.475-2.207c.698-.373 2.877-.734 2.608 1.805-.132 1.337-2.006 2.877-2.006 2.877"/><path stroke="#0E141B" stroke-linecap="round" stroke-linejoin="round" stroke-width="1.464" d="M21.323 53.575s1.741-1.818 2.475-2.207c.698-.373 2.877-.734 2.608 1.805-.132 1.337-2.006 2.877-2.006 2.877"/><path stroke="#fff" stroke-linecap="round" stroke-linejoin="round" stroke-width="1.255" d="M16.4 56.91s.132.533.67.87M14.97 64.673l.871-.602M22.663 64.007l.602.501M22.927 54.2s.45-.5.755-.754"/></g><defs><clipPath id="a"><path fill="#fff" d="M5 6h92v85.235H5z"/></clipPath></defs></svg>