<svg xmlns="http://www.w3.org/2000/svg" width="102" height="102" fill="none"><g clip-path="url(#a)"><path fill="#149746" d="M36.036 87.954s-2.892 2.748-5.034 3.95c-2.716 1.522-6.89.959-6.89.959l2.408-6.882"/><path fill="#009A3E" d="M7.687 78.68s-1.253-1.566-1.002-2.725c.25-1.158 1.581-1.319 2.153-.497.446.646.325 1.53.638 2.596"/><path stroke="#0E141B" stroke-linecap="round" stroke-linejoin="round" stroke-width="1.37" d="M7.687 78.68s-1.253-1.566-1.002-2.725c.25-1.158 1.581-1.319 2.153-.497.446.646.325 1.53.638 2.596"/><path fill="#009A3E" d="M10.07 80.414c.514-.5.811-1.628.083-2.513-.845-1.022-2.818-.951-3.437.568-1.08 2.654 2.012 3.754 2.012 3.754 1.46 1.863 3.304 2.47 3.304 2.47l2.04-2.713s-2.38-1.06-3.531-2.435"/><path stroke="#0E141B" stroke-linecap="round" stroke-linejoin="round" stroke-width="1.37" d="M10.07 80.414c.514-.5.811-1.628.083-2.513-.845-1.022-2.818-.951-3.437.568-1.08 2.654 2.012 3.754 2.012 3.754 1.46 1.863 3.304 2.47 3.304 2.47l2.04-2.713s-2.38-1.06-3.531-2.435"/><path fill="#009A3E" d="M36.036 87.954c-6.357-2.095-7.798-3.535-8.64-5.59-.716-1.75-.477-3.093-1.812-5.512-1.902-3.449-6.247-4.216-9.171-2.764-5.626 2.795-3.884 7.888-3.884 7.888S9.261 83.483 9.27 85.3c0 1.3 1.025 2.09 1.914 2.082 0 0-.658.78.043 1.793.931 1.35 3.073.466 5.566-.344 2.885 2.802 7.32 4.028 7.32 4.028"/><path stroke="#0E141B" stroke-linecap="round" stroke-linejoin="round" stroke-width="1.37" d="M36.036 87.954c-6.357-2.095-7.798-3.535-8.64-5.59-.716-1.75-.477-3.093-1.812-5.512-1.902-3.449-6.247-4.216-9.171-2.764-5.626 2.795-3.884 7.888-3.884 7.888S9.261 83.483 9.27 85.3c0 1.3 1.025 2.09 1.914 2.082 0 0-.658.78.043 1.793.931 1.35 3.073.466 5.566-.344 2.885 2.802 7.32 4.028 7.32 4.028"/><path fill="#fff" d="M13.155 86.552s-.802-2.54.388-3.018c1.276-.509 2.325 1.875 2.325 1.875"/><path stroke="#0E141B" stroke-linecap="round" stroke-linejoin="round" stroke-width="1.174" d="M13.155 86.552s-.802-2.54.388-3.018c1.276-.509 2.325 1.875 2.325 1.875M11.182 87.382l5.528-2.321"/><path fill="#FFD900" stroke="#0E141B" stroke-linecap="round" stroke-linejoin="round" stroke-width="1.174" d="M14.929 81.299s-.454-3.05 2.368-4.392c2.854-1.359 4.98.974 4.98.974s.168 2.557-2.71 3.958c-2.571 1.253-4.642-.54-4.642-.54h.004Z"/><path stroke="#0E141B" stroke-linecap="round" stroke-linejoin="round" stroke-width="1.174" d="m17.297 76.907 2.27 4.932"/><path fill="#fff" d="M31.002 91.9c3.344 2.947 29.673 4.995 37.424.399L53.92 88.455M45.075 31.196s-1.06-6.463-4.999-12.186c-3.002-4.361-6.028-5.332-8.31-4.835-2.06.446-3.394 1.836-3.645 3.907-.2 1.656.595 3.214 2.02 5.331 1.425 2.118 3.942 5.039 5.696 11.991"/><path stroke="#0E141B" stroke-linecap="round" stroke-linejoin="round" stroke-width="1.37" d="M45.075 31.196s-1.06-6.463-4.999-12.186c-3.002-4.361-6.028-5.332-8.31-4.835-2.06.446-3.394 1.836-3.645 3.907-.2 1.656.595 3.214 2.02 5.331 1.425 2.118 3.942 5.039 5.696 11.991"/><path fill="#EF8585" d="M42.456 32.057s-1.386-7.328-5.801-12.452c-1.527-1.77-2.756-2.45-3.868-2.333-.712.074-1.3.61-1.41 1.526-.085.732.431 1.836 1.093 2.752 2.49 3.46 4.694 6.299 5.688 11.732"/><path stroke="#0E141B" stroke-linecap="round" stroke-linejoin="round" stroke-width="1.37" d="M42.456 32.057s-1.386-7.328-5.801-12.452c-1.527-1.77-2.756-2.45-3.868-2.333-.712.074-1.3.61-1.41 1.526-.085.732.431 1.836 1.093 2.752 2.49 3.46 4.694 6.299 5.688 11.732"/><path fill="#fff" d="M70.164 32.1s.646-8.82-2.662-16.124c-2.356-5.207-5.136-6.354-7.473-6.287-2.106.059-3.597 1.331-4.102 3.167-.443 1.613.426 3.79 1.793 6.408 1.468 2.807 2.211 6.283 2.188 12.836"/><path stroke="#0E141B" stroke-linecap="round" stroke-linejoin="round" stroke-width="1.37" d="M70.164 32.1s.646-8.82-2.662-16.124c-2.356-5.207-5.136-6.354-7.473-6.287-2.106.059-3.597 1.331-4.102 3.167-.443 1.613.426 3.79 1.793 6.408 1.468 2.807 2.211 6.283 2.188 12.836"/><path fill="#EF8585" d="M66.836 30.417s1.061-6.033-2.61-14.12c-1.097-2.415-2.69-3.516-3.774-3.516-.795 0-1.296.318-1.515 1.053-.22.744.11 1.598.783 2.796 2.301 4.098 3.268 8.62 2.892 12.742"/><path stroke="#0E141B" stroke-linecap="round" stroke-linejoin="round" stroke-width="1.37" d="M66.836 30.417s1.061-6.033-2.61-14.12c-1.097-2.415-2.69-3.516-3.774-3.516-.795 0-1.296.318-1.515 1.053-.22.744.11 1.598.783 2.796 2.301 4.098 3.268 8.62 2.892 12.742"/><path fill="#fff" d="M31.002 91.9c3.179-8.48 2.384-13.58-1.519-21.993-3.863-8.326-5.26-20.03.263-29.21 5.05-8.397 13.266-12.25 22.654-12.915 11.21-.794 20.402 2.83 25.668 10.335 5.48 7.81 6.756 19.04 2.783 29.042-3.974 10.002-8.444 11.094-12.421 25.14"/><path stroke="#0E141B" stroke-linecap="round" stroke-linejoin="round" stroke-width="1.37" d="M31.002 91.9c3.179-8.48 2.384-13.58-1.519-21.993-3.863-8.326-5.26-20.03.263-29.21 5.05-8.397 13.266-12.25 22.654-12.915 11.21-.794 20.402 2.83 25.668 10.335 5.48 7.81 6.756 19.04 2.783 29.042-3.974 10.002-8.444 11.094-12.421 25.14"/><path fill="#FFD900" stroke="#0E141B" stroke-linecap="round" stroke-linejoin="round" stroke-width="1.37" d="M79.849 55.768c0-15.299-9.654-24.686-24.874-24.686-13.141 0-25.672 7.626-25.672 24.686s11.834 24.627 24.975 24.627c6.526 0 13.878-1.61 19.985-7.986 3.847-4.02 5.586-9.908 5.586-16.641Z"/><path fill="#7C0318" fill-rule="evenodd" d="M50.72 61.714c.165 2.545.615 5.63 1.186 7.665 1.88 6.659 7.176 4.936 7.755.552.247-1.871.446-4.905.215-8.984l-4.99-2.776" clip-rule="evenodd"/><path stroke="#0E141B" stroke-linecap="round" stroke-linejoin="round" stroke-width="1.37" d="M50.72 61.714c.165 2.545.615 5.63 1.186 7.665 1.88 6.659 7.176 4.936 7.755.552.247-1.871.446-4.905.215-8.984l-4.99-2.776"/><path fill="#fff" fill-rule="evenodd" stroke="#0E141B" stroke-miterlimit="10" stroke-width="1.37" d="M60.73 39.82c.614-.356 1.69-.81 3.315-.99 1.5-.169 3.105.109 3.794.3 2.067.576 3.91 1.829 5.151 3.641.47.69.818 1.413 1.053 2.173 1.637 5.296-1.973 9.935-7.03 10.573-2.815.357-5.939-.43-7.767-1.914-3.01-2.439-3.527-6.4-2.118-9.743.916-2.177 2.259-3.253 3.602-4.032v-.008ZM37.59 41.554c3.661-1.997 8.582-1.194 11.197 1.135 3.824 3.402 4.04 9.642.375 12.95-.473.426-2.172 1.609-3.292 1.941-3.006.893-6.263.674-8.78-.86a8.915 8.915 0 0 1-1.719-1.355c-2.576-2.384-2.99-5.92-1.793-9.117.9-2.404 2.607-3.927 4.013-4.694Z" clip-rule="evenodd"/><path fill="#FFD900" fill-rule="evenodd" d="M55.19 58.336c-.203 2.11-1.769 3.41-4.106 3.394-1.617-.012-3.128-.724-3.339-2.596" clip-rule="evenodd"/><path stroke="#0E141B" stroke-linecap="round" stroke-linejoin="round" stroke-width="1.37" d="M55.19 58.336c-.203 2.11-1.769 3.41-4.106 3.394-1.617-.012-3.128-.724-3.339-2.596"/><path fill="#FFD900" fill-rule="evenodd" d="M62.006 57.639c.105 3.08-2.654 4.09-5.18 3.198-1.506-.532-2.082-2.055-1.972-3.734" clip-rule="evenodd"/><path stroke="#0E141B" stroke-linecap="round" stroke-linejoin="round" stroke-width="1.37" d="M62.006 57.639c.105 3.08-2.654 4.09-5.18 3.198-1.506-.532-2.082-2.055-1.972-3.734"/><path fill="#0E141B" stroke="#0E141B" stroke-linecap="round" stroke-linejoin="round" stroke-width="1.37" d="M54.8 54.378c-1.026 0-1.888.544-1.802 1.539.15 1.695 3.778 1.526 3.786-.165 0-.967-.681-1.374-1.985-1.374Z"/><path fill="#0E141B" fill-rule="evenodd" d="M43.827 49.2a1.304 1.304 0 0 0-1.276-1.332 1.31 1.31 0 0 0-1.335 1.276 1.31 1.31 0 0 0 1.276 1.335 1.31 1.31 0 0 0 1.335-1.276v-.004ZM66.614 47.222a1.304 1.304 0 0 0-1.277-1.33 1.31 1.31 0 0 0-1.335 1.275 1.31 1.31 0 0 0 1.277 1.335 1.31 1.31 0 0 0 1.335-1.276v-.004Z" clip-rule="evenodd"/><path fill="#FFD900" d="M69.225 78.586s-1.871 3.64 2.05 7.219c3.775 3.444 8.77 2.642 10.598-.2 1.656-2.572 1.12-6.095-1.723-8.741"/><path stroke="#0E141B" stroke-linecap="round" stroke-linejoin="round" stroke-width="1.37" d="M69.225 78.586s-1.871 3.64 2.05 7.219c3.775 3.444 8.77 2.642 10.598-.2 1.656-2.572 1.12-6.095-1.723-8.741"/><path stroke="#0E141B" stroke-linecap="round" stroke-linejoin="round" stroke-width="1.37" d="M74.435 84.415s-1.97-1.511-2.764-4.306"/><path fill="#FFD900" d="M77.829 65.104c1.065-4.279 3.93-7.175 6.659-6.032 2.728 1.143 2.164 3.922.689 5.55-1.476 1.63-3.551 3.426-4.295 5.227"/><path stroke="#0E141B" stroke-linecap="round" stroke-linejoin="round" stroke-width="1.37" d="M77.829 65.104c1.065-4.279 3.93-7.175 6.659-6.032 2.728 1.143 2.164 3.922.689 5.55-1.476 1.63-3.551 3.426-4.295 5.227"/><path fill="#FFD900" d="M68.43 71.853c-.607-1.946.63-4.063 2.556-4.392 0 0-.266-1.316.896-2.682 1.629-1.914 5.825-1.789 8.382 1.323 2.556 3.112 2.76 7.058 1.174 10.014-1.832 3.413-6.009 5.774-9.67 5.12-3.655-.65-6.415-3.284-6.356-5.809.07-3.116 3.578-5.445 6.784-1.515"/><path stroke="#0E141B" stroke-linecap="round" stroke-linejoin="round" stroke-width="1.37" d="M68.43 71.853c-.607-1.946.63-4.063 2.556-4.392 0 0-.266-1.316.896-2.682 1.629-1.914 5.825-1.789 8.382 1.323 2.556 3.112 2.76 7.058 1.174 10.014-1.832 3.413-6.009 5.774-9.67 5.12-3.655-.65-6.415-3.284-6.356-5.809.07-3.116 3.578-5.445 6.784-1.515"/><path stroke="#0E141B" stroke-linecap="round" stroke-linejoin="round" stroke-width="1.37" d="M75.715 70.166c-1.406-2.506-3.12-2.98-4.733-2.705"/><path fill="#FFD900" d="M35.97 77.811s1.143 1.131 1.339 2.466c.317 2.153-1.21 4.6-3.657 6.087-3.01 1.828-6.725 1.5-8.741-1.284-1.922-2.65-.795-6.028 1.194-9.14"/><path stroke="#0E141B" stroke-linecap="round" stroke-linejoin="round" stroke-width="1.37" d="M35.97 77.811s1.143 1.131 1.339 2.466c.317 2.153-1.21 4.6-3.657 6.087-3.01 1.828-6.725 1.5-8.741-1.284-1.922-2.65-.795-6.028 1.194-9.14"/><path stroke="#0E141B" stroke-linecap="round" stroke-linejoin="round" stroke-width="1.37" d="M32.658 83.225c.387-.626.916-2.028 1.143-2.881"/><path fill="#FFD900" d="M28.771 65.186c-.853-4.25-3.53-7.226-6.263-6.228-2.729.998-2.306 3.75-.932 5.422 1.374 1.668 3.331 3.523 3.977 5.328"/><path stroke="#0E141B" stroke-linecap="round" stroke-linejoin="round" stroke-width="1.37" d="M28.771 65.186c-.853-4.25-3.53-7.226-6.263-6.228-2.729.998-2.306 3.75-.932 5.422 1.374 1.668 3.331 3.523 3.977 5.328"/><path fill="#FFD900" d="M36.913 72.13c.583-1.913-.65-3.988-2.544-4.297 0 0 .254-1.296-.9-2.631-1.618-1.867-5.337-1.718-7.826 1.362-2.49 3.081-2.662 6.557-1.08 9.45 1.824 3.343 5.754 5.829 9.344 5.16 3.59-.67 6.079-3.077 6.005-5.555-.094-3.061-3.559-5.324-6.679-1.437"/><path stroke="#0E141B" stroke-linecap="round" stroke-linejoin="round" stroke-width="1.37" d="M36.913 72.13c.583-1.913-.65-3.988-2.544-4.297 0 0 .254-1.296-.9-2.631-1.618-1.867-5.337-1.718-7.826 1.362-2.49 3.081-2.662 6.557-1.08 9.45 1.824 3.343 5.754 5.829 9.344 5.16 3.59-.67 6.079-3.077 6.005-5.555-.094-3.061-3.559-5.324-6.679-1.437"/><path stroke="#0E141B" stroke-linecap="round" stroke-linejoin="round" stroke-width="1.37" d="M29.738 70.53c1.362-2.474 3.041-2.952 4.627-2.697"/></g><defs><clipPath id="a"><path fill="#fff" d="M5.8 9h81.295v86H5.8z"/></clipPath></defs></svg>