<svg xmlns="http://www.w3.org/2000/svg" width="102" height="102" fill="none"><g clip-path="url(#a)"><path fill="#F7A823" stroke="#0D181C" stroke-linecap="round" stroke-linejoin="round" stroke-width="1.524" d="M65.025 79.625c-1.528-3.271 2.784-7.008 2.013-16.242-.776-9.233-1.429-13.662-1.429-13.662H37.304s-3.036-6.015-5.227-8.432c0 0-5.2-6.198-8.057-7.309-3.41-1.328-7.622 2.06-6.098 6.324 1.524 4.264 9.216 12.391 11.733 17.766 2.405 5.135 4.378 14.847 2.636 17.003-1.743 2.156-7.54 3.454-9.582 5.423-2.034 1.96-3.05 6.476 1.742 7.918 4.79 1.442 11.99-1.703 17.761-1.842 8.236-.196 10.631 2.06 13.885 3.65 2.226 1.088 6.023 2.974 9.29 3.013 3.972.048 6.25-3.702 4.682-6.75-1.407-2.736-3.267-3.05-5.048-6.86h.004Z"/><path fill="#fff" d="M54.468 64.28s1.986 2.222 2.069 5.663c.096 3.985-1.246 6.868-2.988 8.475-1.646 1.52-4.216 2.988-8.062 2.27-3.68-.689-6.838-3.071-7.983-5.663-1.085-2.452-.296-6.92.95-9.203 1.145-2.099 3.396-3.597 4.032-3.906l2.387 3.606 3.663-2.474 2.748 3.515s1.21-.745 3.18-2.278l.004-.004Z"/><path fill="#F7A823" d="M66.166 55.235s4.125 1.803 5.105 7.295c1.036 5.823-.236 8.684-2.287 10.562-2.94 2.687-10.618 2.556-13.388 1.633-3.106-1.032-4.482-5.544-.654-7.73 2.287-1.308 5.85-1.199 7.553-.654"/><path stroke="#0D181C" stroke-linecap="round" stroke-linejoin="round" stroke-width="1.524" d="M66.602 55.017s3.501 2.504 4.669 7.295c1.402 5.745-.236 8.903-2.287 10.78-1.72 1.572-5.06 2.182-8.092 2.23"/><path fill="#F7A823" d="M51.67 20.54c.24-2.496-.975-6.734-5.752-6.342-4.747.388-5.152 5.279-4.281 7.081"/><path stroke="#0D181C" stroke-linecap="round" stroke-linejoin="round" stroke-width="1.524" d="M51.67 20.54c.24-2.496-.975-6.734-5.752-6.342-4.747.388-5.152 5.279-4.281 7.081"/><path fill="#F7A823" d="M64.337 23.797c.92-2.334 3.924-5.557 8.005-3.04 4.05 2.5 2.195 7.042.6 8.253"/><path stroke="#0D181C" stroke-linecap="round" stroke-linejoin="round" stroke-width="1.524" d="M64.337 23.797c.92-2.334 3.924-5.557 8.005-3.04 4.05 2.5 2.195 7.042.6 8.253"/><path fill="#F7A823" stroke="#0D181C" stroke-linecap="round" stroke-linejoin="round" stroke-width="1.524" d="M30.482 34.246c3.062-13.327 15.114-18.798 27.078-16.05 11.58 2.662 20.453 12.762 17.352 26.26C71.798 58 59.655 62.128 48.074 59.467 36.676 56.85 27.368 47.791 30.482 34.246Z"/><path fill="#0D181C" d="M59.533 30.457s3.755.823 7.508 2.19l-7.508-2.19Z"/><path stroke="#0D181C" stroke-linecap="round" stroke-linejoin="round" stroke-width="1.96" d="M59.533 30.457s3.755.823 7.508 2.19"/><path fill="#fff" d="M50.156 38.153c-2.705-1.725-5.331-.558-6.002 1.35-.544 1.56.47 3.48 2.126 4.029 1.79.596 3.192-.079 3.898-1.067.096 1.215.819 2.273 2.657 2.691 1.703.383 3.366-.335 3.946-2.26.583-1.938-.954-4.752-4.74-4.216l-1.07.183"/><path stroke="#0D181C" stroke-linecap="round" stroke-linejoin="round" stroke-width="1.524" d="M50.156 38.153c-2.705-1.725-5.331-.558-6.002 1.35-.544 1.56.47 3.48 2.126 4.029 1.79.596 3.192-.079 3.898-1.067.096 1.215.819 2.273 2.657 2.691 1.703.383 3.366-.335 3.946-2.26.583-1.938-.954-4.752-4.74-4.216l-1.07.183"/><path fill="#0D181C" d="M40.866 26.162s3.062.436 7.072 1.538l-7.072-1.538Z"/><path stroke="#0D181C" stroke-linecap="round" stroke-linejoin="round" stroke-width="1.96" d="M40.866 26.162s3.062.436 7.072 1.538"/><path fill="#0D181C" d="M49.211 37.512c-.3.715.414 2.54 1.394 2.766.884.205 2.23-.84 2.6-1.834.43-1.154-3.158-2.913-3.994-.932ZM42.26 31.659a1.536 1.536 0 0 1 1.85-1.141 1.536 1.536 0 0 1 1.142 1.85A1.536 1.536 0 0 1 43.4 33.51a1.536 1.536 0 0 1-1.141-1.851ZM60.065 35.814a1.536 1.536 0 0 1 1.85-1.141 1.536 1.536 0 0 1 1.142 1.85 1.536 1.536 0 0 1-1.851 1.142 1.536 1.536 0 0 1-1.141-1.851Z"/><path fill="#BF7033" stroke="#0D181C" stroke-linecap="round" stroke-linejoin="round" stroke-width="1.524" d="M50.596 80.836s-2.53 10.583 11.808 9.668c14.063-.897 11.62-10.117 10.657-11.585l-10.618 1.982-11.843-.07-.004.005Z"/><path fill="#BF7033" stroke="#0D181C" stroke-linecap="round" stroke-linejoin="round" stroke-width="1.524" d="M53.575 76.52c4.508-1.142 13.759-1.847 17.108-.867 2.487.727 3.467 2.674 2.09 4.303-1.55 1.838-6.228 2.709-10.718 3.005-3.837.253-7.98.362-10.462-.936-2.482-1.298-1.846-4.539 1.978-5.506h.004Z"/><path fill="#BF7033" stroke="#0D181C" stroke-linecap="round" stroke-linejoin="round" stroke-width="1.524" d="M55.731 78.453c2.452-.557 9.13-1.023 11.529-.91 1.385.065 3.354.522 2.6 1.293-.85.871-5.13 1.412-7.57 1.573-2.086.135-6.938.37-8.279-.227-1.342-.597-.357-1.254 1.725-1.725l-.005-.004Z"/><path fill="#BF7033" stroke="#0D181C" stroke-linecap="round" stroke-linejoin="round" stroke-width="1.524" d="M56.358 68.11s2.478-3.193 4.551-1.06c2.078 2.135 2.923 8.973 2.766 11.564-.157 2.587 1.333 3.045 2.308 2.143.976-.901.867-5.94.092-9.133-.876-3.598-1.964-6.655-4.6-7.587-2.299-.815-5.818.27-6.288 2.713-.514 2.661-.384 1.242 1.171 1.36Z"/><path fill="#F7A823" d="M60.895 75.317c-2.15.034-4.145-.214-5.3-.597-3.105-1.032-4.48-5.544-.653-7.73 2.287-1.307 3.584-.701 5.283-.157"/><path stroke="#0D181C" stroke-linecap="round" stroke-linejoin="round" stroke-width="1.524" d="M60.896 75.317c-2.151.034-4.142-.236-5.3-.597-3.484-1.089-4.682-5.605-1.307-7.513 2.095-1.184 4.76-.762 6.463-.217"/><path fill="#BA6E2F" stroke="#0D181C" stroke-linecap="round" stroke-linejoin="round" stroke-width="1.524" d="M63.349 80.1c-.231.243-.423.583-.362 1.384.035.48.192.941.536 1.176.348.24.744.314 1.785.261.802-.039 1.455-.152 1.825-.535.296-.31.335-.636.261-1.455-.056-.623-.296-.95-.649-1.171-.357-.227-.77-.314-1.807-.236-.662.053-1.259.218-1.594.575h.005Z"/><path fill="#BA6E2F" d="M62.138 85.396s.666 0 1.333-.131l-1.333.13Z"/><path stroke="#0D181C" stroke-linecap="round" stroke-linejoin="round" stroke-width="1.307" d="M62.138 85.396s.666 0 1.333-.131"/><path fill="#BA6E2F" d="M65.822 84.93s.653 0 1.311-.231l-1.31.23Z"/><path stroke="#0D181C" stroke-linecap="round" stroke-linejoin="round" stroke-width="1.307" d="M65.822 84.93s.653 0 1.311-.231"/><path fill="#BA6E2F" d="M64.124 87.303s.719 0 1.629-.209l-1.629.21Z"/><path stroke="#0D181C" stroke-linecap="round" stroke-linejoin="round" stroke-width="1.307" d="M64.124 87.303s.719 0 1.629-.209"/><path fill="#BA6E2F" d="M69.259 84.276s.766-.148 1.31-.448l-1.31.448Z"/><path stroke="#0D181C" stroke-linecap="round" stroke-linejoin="round" stroke-width="1.307" d="M69.259 84.276s.766-.148 1.31-.448"/><path fill="#BA6E2F" d="M68.083 86.676s.575-.056 1.241-.348l-1.241.348Z"/><path stroke="#0D181C" stroke-linecap="round" stroke-linejoin="round" stroke-width="1.307" d="M68.083 86.676s.575-.056 1.241-.348"/><path fill="#F08589" d="m84.772 30.81 1.525 3.801h3.266l-1.524-5.23-3.267 1.428Z"/><path fill="#FFE271" d="m85.06 46.776-2.435 3.885 2.661 3.72 3.597-4.717-3.823-2.888Z"/><path fill="#F08589" d="m18.383 51.65-1.093 4.242h-2.874l1.093-5.67 2.874 1.428Z"/><path fill="#FFE271" d="m13.01 19.176 2.643 3.746 3.806-1.455-2.966-4.486-3.484 2.195Z"/><path fill="#84CFED" d="m79.468 70.544 1.058 2.574 2.339-.436-.619-3.005-2.778.867Z"/><path fill="#308D46" d="m25.134 10.23.788 2.98 2.561-.436-.57-3.545-2.779 1.001ZM35.993 64.664l1.223 2.974 2.779-.653-1.006-3.11-2.996.789Z"/><path fill="#84CFED" d="m69.786 10.365-1.059 2.574-2.343-.435.623-3.005 2.779.866Z"/></g><defs><clipPath id="a"><path fill="#fff" d="M0 0h102v102H0z"/></clipPath></defs></svg>