<svg xmlns="http://www.w3.org/2000/svg" width="102" height="102" fill="none"><g clip-path="url(#a)"><path fill="#FFD900" d="M36.303 89.293a44.008 44.008 0 0 0-.548-5.717l-4.195.23v7.331l4.748-1.844h-.005Z"/><path fill="#fff" d="M76.177 91.35s.149-8.853.004-14.166c-.14-5.312 2.623-8.925 4.603-13.387 1.985-4.463 1.415-14.803.99-16.647-.425-1.84-1.313-2.453-1.313-2.453l-1.28-6.52s.158-2.953-7.11-8.24c-6.28-4.569-17.14-5.81-28.262-4.535-11.122 1.275-16.435 8.075-17.353 9.35-.918 1.275-.68 3.273-.68 3.273l-2.09 8.564c-2.053 3.752-1.22 13.88 1.253 18.058 2.967 5.02 6.545 5.525 9.38 13.315 2.835 7.79 1.84 16.788 1.84 16.788s7.136 2.443 21.399 1.487c14.263-.956 18.615-4.887 18.615-4.887h.004Z"/><path stroke="#0E141B" stroke-linecap="round" stroke-linejoin="round" stroke-width="1.488" d="M25.776 38.025s-.242-1.998.68-3.273c.922-1.275 6.235-8.075 17.353-9.35 11.122-1.275 21.981-.034 28.263 4.535 7.267 5.287 7.11 8.24 7.11 8.24M80.465 44.702s.889.607 1.314 2.452c.425 1.84.99 12.185-.99 16.647-1.985 4.463-4.748 8.075-4.603 13.388.14 5.312-.005 14.165-.005 14.165M36.16 94.75s.99-8.998-1.841-16.788c-2.835-7.79-6.413-8.3-9.38-13.315-2.47-4.178-3.306-14.306-1.254-18.058"/><path fill="#FFD900" d="M31.059 36.525s3.825-3.966 13.953-4.323c10.127-.352 15.16 1.488 19.622 4.96s8.36 9.635 6.375 23.163c-1.985 13.527-16.647 15.865-29.185 14.31-12.537-1.56-16.222-14.45-16.715-17.991-.497-3.54-.285-15.16 5.95-20.115v-.005Z"/><path stroke="#0E141B" stroke-linecap="round" stroke-linejoin="round" stroke-width="1.488" d="M31.059 36.525s3.825-3.966 13.953-4.323c10.127-.352 15.16 1.488 19.622 4.96s8.36 9.635 6.375 23.163c-1.985 13.527-16.647 15.865-29.185 14.31-12.537-1.56-16.222-14.45-16.715-17.991-.497-3.54-.285-15.16 5.95-20.115v-.005Z"/><path fill="#C11A20" d="M83.789 42.653a3.81 3.81 0 0 0 .025-.314c.872-.209 6.711-1.879 6.711-1.879-.319-3.153-1.415-5.665-1.415-5.665l-6.329 4.798c-1.105-.786-2.303.106-2.312.11-.161-.556-.36-1.066-.62-1.474 0 0-40.303-2.975-55.16 0 0 0-2.479 3.26-1.7 8.428 0 0 11.134-1.195 37.416-1.31 7.115-.03 20.664-.67 20.664-.67v-.324s.408.132 1.08.043c0 0 2.537 3.043 5.052 4.105 0 0 .885-1.734 2.16-3.294 0 0-4.013-1.623-5.568-2.55l-.004-.004Z"/><path fill="#fff" d="M38.939 50.656c0-.718-2.844-1.53-6.35-1.53s-6.35.918-6.35 1.674c0 .757 2.763 1.67 6.002 1.67 2.92 0 6.693-.888 6.693-1.814h.005ZM62.9 49.755c0-.825-2.869-1.254-6.838-1.224-3.868.03-6.762 1.211-6.762 1.963 0 .982 2.788 1.382 6.639 1.356 4.547-.034 6.957-1.173 6.957-2.1l.004.005Z"/><path fill="#0E141B" d="M56.062 48.531c-.54 0-1.058.034-1.551.077-.12.437-.188.939-.188 1.47 0 .654.102 1.258.277 1.764.433.008.88.013 1.347.008.476 0 .926-.021 1.356-.047a5.502 5.502 0 0 0 .263-1.72c0-.562-.076-1.084-.204-1.544a42.993 42.993 0 0 0-1.296-.008h-.004ZM31.012 49.19a5.535 5.535 0 0 0-.225 1.606c0 .587.085 1.152.234 1.628a16.502 16.502 0 0 0 2.783-.034c.14-.468.226-1.012.226-1.598a5.52 5.52 0 0 0-.238-1.64 20.875 20.875 0 0 0-2.78.03v.008Z"/><path stroke="#0E141B" stroke-linecap="round" stroke-linejoin="round" stroke-width="1.488" d="M41.306 49.406s.204 1.675-.45 2.444M43.376 49.126s-.081 1.691 0 2.966M45.288 49.126s-.161 1.691 1.037 2.405M40.562 62.292s2.814-.535 6.639-.166"/><path fill="#0E141B" d="M47.056 56.784c0-1.708-1.577-2.622-3.527-2.622-2.142 0-3.528.85-3.528 2.622 0 2.02 1.581 2.729 3.528 2.729 1.946 0 3.527-.782 3.527-2.729Z"/><path stroke="#0E141B" stroke-linecap="round" stroke-linejoin="round" stroke-width="1.488" d="M38.939 50.656c0-.718-2.844-1.53-6.35-1.53s-6.35.918-6.35 1.674c0 .757 2.763 1.67 6.002 1.67 2.92 0 6.693-.888 6.693-1.814h.005ZM62.9 49.755c0-.825-2.869-1.254-6.838-1.224-3.868.03-6.762 1.211-6.762 1.963 0 .982 2.788 1.382 6.639 1.356 4.547-.034 6.957-1.173 6.957-2.1l.004.005Z"/><path fill="#fff" d="M57.834 27.884s.922-6.447 1.135-14.31c.076-2.766 2.197-5.81 5.95-5.597 4.25.243 5.363 4.038 5.525 8.11.157 3.91-1.56 14.415-1.56 14.415"/><path stroke="#0E141B" stroke-linecap="round" stroke-linejoin="round" stroke-width="1.488" d="M72.088 40.456s4.807-.162 8.564 0M74.056 42.687s3.591-.161 6.924 0"/><path fill="#BAE3F9" d="M11.369 50.499s4.726.743 4.994 6.48c0 0 .794-6 4.832-7.173 0 0-5.683-.956-6.001-5.738 0 0 .663 5.844-3.825 6.426v.005Z"/><path fill="#FFD900" d="M54.32 78.175s2.452 8.215 6.846 8.5c4.39.284 4.322-4.323 4.815-6.303.498-1.985 1.84-4.815 5.56-3.4 3.718 1.415 1.453 10.697-2.092 14.378-3.166 3.29-7.157 5.308-12.537 3.4-2.597-.923-6.124-4.437-8.003-7.298-2.43-3.697-4.246-6.732-5.385-9.422-.841-1.985-1.912-6.8 4.714-7.862 7.293-1.17 7.152 5.312 6.834 6.587-.247.986-.753 1.415-.753 1.415v.005ZM36.304 89.293s-2.41 4.466-4.816 4.538c-2.41.073-5.665-.352-5.24-6.872.425-6.515 1.203-7.722 1.203-7.722s-2.053-6.022.99-8.568c3.434-2.873 8.997-.638 10.502 1.628 1.173 1.764 2.444 5.78-2.61 9.052 0 0-1.602 6.32-2.303 8.445"/><path stroke="#0E141B" stroke-linecap="round" stroke-linejoin="round" stroke-width="1.488" d="M31.845 72.951s-.008 2.176-1.636 2.461M31.556 77.397s.689-1.415 2.47-.565M35.381 75.91s-1.202-.923-.85-2.55M45.802 75.91s1.947-.85 1.25-2.55M49.831 73.36s-.14 2.197.923 2.834M49.3 78.247s-.655-1.61-2.495-.404"/><path fill="#EF8585" d="M60.881 28.662s.99-7.153 1.275-11.05c.285-3.897.625-5.295 2.55-5.312 2.15-.017 2.215 3.901 2.142 6.166-.072 2.266-1.08 11.114-1.08 11.114"/><path fill="#fff" d="M33.048 28.947c2.605-1.547 6.018-2.928 10.315-3.485h.013s-.204-11.534-1.127-13.872c-.922-2.338-3.54-3.54-6.235-2.763-2.69.778-4.037 2.835-3.93 5.543.105 2.707.743 8.53.96 14.577h.004Z"/><path fill="#EF8585" d="M36.355 27.302a26.583 26.583 0 0 1 3.633-1.198h.013s-.238-10.137-.314-11.463c-.107-1.861-.995-2.77-2.389-2.358-.965.284-1.326 1.24-1.326 3.578s.365 11.45.365 11.45l.026-.009h-.008Z"/><path stroke="#0E141B" stroke-linecap="round" stroke-linejoin="round" stroke-width="1.488" d="M11.369 50.499s4.726.743 4.994 6.48c0 0 .794-6 4.832-7.173 0 0-5.683-.956-6.001-5.738 0 0 .663 5.844-3.825 6.426v.005ZM54.32 78.175s2.452 8.215 6.846 8.5c4.39.284 4.322-4.323 4.815-6.303.498-1.985 1.84-4.815 5.56-3.4 3.718 1.415 1.453 10.697-2.092 14.378-3.166 3.29-7.157 5.308-12.537 3.4-2.597-.923-6.124-4.437-8.003-7.298-2.43-3.697-4.246-6.732-5.385-9.422-.841-1.985-1.912-6.8 4.714-7.862 7.293-1.17 7.152 5.312 6.834 6.587-.247.986-.753 1.415-.753 1.415v.005ZM36.304 89.293s-2.41 4.466-4.816 4.538c-2.41.073-5.665-.352-5.24-6.872.425-6.515 1.203-7.722 1.203-7.722s-2.053-6.022.99-8.568c3.434-2.873 8.997-.638 10.502 1.628 1.173 1.764 2.444 5.78-2.61 9.052 0 0-1.602 6.32-2.303 8.445M24.684 38.225s-2.478 3.26-1.7 8.427c0 0 11.135-1.194 37.417-1.309 7.115-.03 20.664-.671 20.664-.671s.038-4.446-1.22-6.447c0 0-40.303-2.975-55.16 0Z"/><path stroke="#0E141B" stroke-linecap="round" stroke-linejoin="round" stroke-width="1.488" d="M80.465 39.704s1.382-1.033 2.55.08c1.17 1.114 1.008 4.055-.106 4.429-1.113.374-1.844.14-1.844.14"/><path stroke="#0E141B" stroke-linecap="round" stroke-linejoin="round" stroke-width="1.488" d="m82.781 39.589 6.329-4.798s1.096 2.516 1.415 5.665c0 0-5.835 1.67-6.71 1.883M82.144 44.391s2.537 3.043 5.053 4.106c0 0 .884-1.734 2.16-3.294 0 0-4.013-1.623-5.568-2.55M33.048 28.947c2.605-1.547 6.018-2.928 10.315-3.485h.013s-.204-11.534-1.127-13.872c-.922-2.338-3.54-3.54-6.235-2.763-2.69.778-4.037 2.835-3.93 5.543.105 2.707.743 8.53.96 14.577h.004Z"/><path stroke="#0E141B" stroke-linecap="round" stroke-linejoin="round" stroke-width="1.488" d="M36.355 27.302a26.583 26.583 0 0 1 3.633-1.198h.013s-.238-10.137-.314-11.463c-.107-1.861-.995-2.77-2.389-2.358-.965.284-1.326 1.24-1.326 3.578s.365 11.45.365 11.45l.026-.009h-.008ZM57.834 27.884s.922-6.447 1.135-14.31c.076-2.766 2.197-5.81 5.95-5.597 4.25.243 5.363 4.038 5.525 8.11.157 3.91-1.56 14.415-1.56 14.415"/><path stroke="#0E141B" stroke-linecap="round" stroke-linejoin="round" stroke-width="1.488" d="M60.881 28.662s.99-7.153 1.275-11.05c.285-3.897.625-5.295 2.55-5.312 2.15-.017 2.215 3.901 2.142 6.166-.072 2.266-1.08 11.114-1.08 11.114"/></g><defs><clipPath id="a"><path fill="#fff" d="M10.625 7.225h80.644v89.233H10.625z"/></clipPath></defs></svg>