<svg xmlns="http://www.w3.org/2000/svg" width="102" height="102" fill="none"><g clip-path="url(#a)"><path fill="#fff" d="m71.632 70.27-9.63-1.712-33.423-.276-6.877 3.804s9.941 5.227 13.903 5.498c.285 2.036.71 6.51.416 13.99 0 0 12.752 5.442 31.907 0 0 0 .447-10.615.114-15.167l4.597-.307c1.265-3.681-1.003-5.835-1.003-5.835"/><path fill="#F9D2D4" stroke="#0E141B" stroke-linecap="round" stroke-linejoin="round" stroke-width="1.488" d="M73.654 26.933c-6.675-6.23-17.26-11.426-21.498-12.686-1.571-.469-2.223.604-2.223.604-3.467 5.143-10.598 7.542-17.361 12.585-7.105 5.297-12.953 12.1-12.625 22.864.17 5.59 2.01 11.07 6.601 14.98 4.964 4.228 11.758 6.771 25.495 7.02 14.817.263 22.04-1.492 27.39-6.942 4.32-4.404 5.528-10.445 5.563-15.702.057-8.29-3.66-15.549-11.342-22.72v-.003Z"/><path fill="#0E141B" d="M52.874 47.415a.749.749 0 0 0 .329-.534c.048-.43-.28-.81-.74-.858-.035 0-.07-.009-.105-.009.306-.092.543-.337.578-.652a.755.755 0 0 0-.36-.722c.399-.022.736-.307.78-.688.048-.429-.28-.81-.74-.858-5.546-.564-12.892-.306-13.202-.297-.46.017-.819.376-.802.805a.753.753 0 0 0 .36.604c-.451.026-.802.381-.784.806.017.429.403.757.867.748-.36.097-.622.412-.605.775.018.416.386.731.823.744h-.048c-.46.035-.8.412-.761.84a.744.744 0 0 0 .258.495c-.385.084-.661.408-.648.788.018.43.407.766.867.749h.136a.759.759 0 0 0-.39.687.782.782 0 0 0 .442.652c-.38.084-.661.403-.648.784.013.429.398.77.862.753.014 0 .224-.009.578-.013a.76.76 0 0 0-.367.621c-.01.43.354.784.818.797a90.8 90.8 0 0 0 2.276.009c1.817 0 4.562-.009 8.83.096h.022c.45 0 .823-.337.836-.757.009-.346-.228-.644-.56-.749a.746.746 0 0 0 .227-.45.763.763 0 0 0-.385-.74l.394.039c.03 0 .061.004.092.004.42 0 .784-.293.832-.691a.757.757 0 0 0-.381-.736h.017c.425 0 .784-.297.832-.696.044-.367-.201-.705-.565-.818.346-.062.626-.329.67-.67.048-.394-.232-.753-.635-.845M78.579 48.584l-.346-.04a.778.778 0 0 0 .403-.586c.048-.43-.285-.81-.744-.854h-.018c.36-.057.648-.328.687-.683.04-.363-.197-.696-.551-.814.017 0 .03 0 .048.004.03 0 .061.005.096.005.42 0 .784-.294.832-.692.052-.429-.28-.81-.735-.858-5.547-.582-11.785-.355-11.85-.35-.46.017-.819.38-.801.81a.782.782 0 0 0 .586.709c-.407.066-.709.398-.691.792.017.407.376.727.8.744-.424.053-.743.394-.726.797.017.43.412.766.867.749h.004c-.302.135-.503.429-.477.757a.753.753 0 0 0 .302.538h-.337c-.46.01-.827.36-.823.793.009.429.39.77.85.766h.214c-.346.105-.591.411-.578.766a.755.755 0 0 0 .302.565.78.78 0 0 0-.477.678c-.009.35.232.648.569.753-.341.149-.547.49-.482.84.119.653.723.67 1.484.692.434.013 1.06.022 1.817.035 2.04.03 5.122.083 8.041.219h.044c.442 0 .81-.324.832-.74a.748.748 0 0 0-.219-.565c.1.005.206.014.306.018h.057c.438 0 .806-.315.832-.727.03-.429-.32-.796-.78-.827-.1-.004-.21-.013-.314-.017a.785.785 0 0 0 .52-.64.75.75 0 0 0-.332-.7c.411-.022.753-.315.788-.705a.754.754 0 0 0-.355-.7c.048.004.097.008.145.017.035 0 .07.005.105.005.416 0 .775-.29.827-.683.057-.425-.267-.814-.727-.867"/><path fill="#fff" d="M46.225 45.822c-.285-1.104-1.379-1.927-3.152-1.41-1.164.341-1.93 1.436-1.742 2.56.219 1.288 1.2 2.115 2.854 1.743 1.186-.267 2.325-1.786 2.04-2.894ZM45.555 51.341c.245.95 1.187 1.655 2.705 1.213 1.003-.289 1.66-1.235 1.493-2.198-.188-1.103-1.029-1.812-2.447-1.497-1.02.228-1.996 1.532-1.75 2.482ZM73.046 47.06c-.285-1.107-1.383-1.93-3.156-1.414-1.169.342-1.935 1.44-1.747 2.566.219 1.29 1.204 2.118 2.859 1.746 1.19-.267 2.329-1.79 2.044-2.898Z"/><path fill="#EF8585" d="M40.788 56.756c.197 1.095 1.883 1.524 4.64 1.572 2.854.052 4.995-.175 5.017-1.401.017-.823-1.856-1.685-5.192-1.716-2.758-.026-4.224.223-4.47 1.54"/><path fill="#fff" d="M71.798 52.716c.245.95 1.186 1.66 2.71 1.213 1.002-.294 1.663-1.235 1.497-2.202-.188-1.108-1.033-1.817-2.451-1.497-1.02.227-2.001 1.536-1.756 2.486Z"/><path fill="#F9D2D4" d="M34.397 61.326c-1.383-5.611 3.642-7.958 7.197-7.55 3.313.376 6.588 3.34 5.787 8.4-1.209 7.647-11.18 11.517-12.332 11.762-.74.157-1.379.017-2.1-.893-.307-.385-1.196-1.287-1.91-1.856-2.731-2.176-6.413-5.104-6.907-9.766-.425-4.036 1.869-6.987 5.52-7.604 3.86-.657 5.765 1.782 5.765 1.782"/><path stroke="#0E141B" stroke-linecap="round" stroke-linejoin="round" stroke-width="1.488" d="M34.397 61.326c-1.383-5.611 3.642-7.958 7.197-7.55 3.313.376 6.588 3.34 5.787 8.4-1.209 7.647-11.18 11.517-12.332 11.762-.74.157-1.379.017-2.1-.893-.307-.385-1.196-1.287-1.91-1.856-2.731-2.176-6.413-5.104-6.907-9.766-.425-4.036 1.869-6.987 5.52-7.604 3.86-.657 5.765 1.782 5.765 1.782"/><path stroke="#EF8585" stroke-linecap="round" stroke-linejoin="round" stroke-width="1.275" d="m38.674 58.94-.893 1.095M41.16 58.836l-1.133 1.427M43.612 58.766l-1.134 1.431M29.556 59.02l-.977 1.186M27.288 59.02l-.762 1.01M31.644 59.024l-.78 1.09"/><path fill="#fff" d="M27.288 73.185c.092-1.488 1.029-3.108 1.335-4.68.254-1.317-.022-3.226-1.668-4.158-4.058-2.298-7.043.64-8.059 3.808-.875 2.732-.853 7.63 3.844 10.458 4.088 2.46 10.151 1.642 12.87-1.028"/><path stroke="#0E141B" stroke-linecap="round" stroke-linejoin="round" stroke-width="1.488" d="M27.288 73.185c.092-1.488 1.029-3.108 1.335-4.68.254-1.317-.022-3.226-1.668-4.158-4.058-2.298-7.043.64-8.059 3.808-.875 2.732-.853 7.63 3.844 10.458 4.088 2.46 10.151 1.642 12.87-1.028"/><path stroke="#0E141B" stroke-linecap="round" stroke-linejoin="round" stroke-width="1.488" d="M35.378 76.267s1.068 4.535.639 15.312M67.924 91.58s.49-11.684.057-15.795"/><path fill="#EF8585" d="M67.027 57.895c.197 1.098 1.882 1.523 4.64 1.571 2.854.053 4.995-.175 5.017-1.4.017-.824-1.856-1.686-5.192-1.717-2.758-.026-4.224.224-4.47 1.541"/><path fill="#fff" d="M72.634 76.105c-1.47 4.281-13.128 8.742-26.479 2.027-9.232-4.64-6.934-10.296-4.75-12.052 1.655-1.33 5-1.838 8.27.74 4.718 3.721 9.315 5.87 15.255 5.45"/><path stroke="#0E141B" stroke-linecap="round" stroke-linejoin="round" stroke-width="1.488" d="M71.632 70.27s2.272 2.154 1.002 5.835c-1.47 4.281-13.128 8.742-26.479 2.027-9.232-4.64-6.934-10.296-4.75-12.052 1.655-1.326 5-1.838 8.27.74 4.718 3.721 9.341 5.442 15.255 5.45M58.548 57.973s1.335-1.015 2.775-.481c1.615.6 2.049 3.935-1.283 4.482 0 0 1.655 1.069 1.336 2.509-.46 2.075-2.614 2.188-3.734 1.282"/><path fill="#C12C27" d="M19.732 12.579s-3.786-1.454-5.428 1.488c-1.685 3.025.863 5.69 3.984 6.606 2.53.744 6.855.709 6.855.709.85-2.657 1.887-3.804 2.49-6.277.872-3.524-.822-6.698-4.42-6.308-2.925.315-4.33 3.554-2.955 5.717"/><path stroke="#0E141B" stroke-linecap="round" stroke-linejoin="round" stroke-width="1.488" d="M19.732 12.579s-3.786-1.454-5.428 1.488c-1.685 3.025.863 5.69 3.984 6.606 2.53.744 6.855.709 6.855.709.85-2.657 1.887-3.804 2.49-6.277.872-3.524-.822-6.698-4.42-6.308-2.925.315-4.33 3.554-2.955 5.717"/></g><defs><clipPath id="a"><path fill="#fff" d="M13 8h72.763v86H13z"/></clipPath></defs></svg>