<svg xmlns="http://www.w3.org/2000/svg" width="102" height="102" fill="none"><g clip-path="url(#a)"><path fill="#191817" d="m31.603 59.487 1.491 3.052s2.364-1.148 2.925-2.869c.556-1.721-.757-1.9-.757-1.9l-3.655 1.717h-.004Z"/><path fill="#191817" d="m34.459 62.416.99 2.065h-2.478l-.267-1.942 1.755-.123Z"/><path fill="#FFD500" d="M36.18 36.448s-2.46-11.87-9.035-11.806c-6.575.063-10.345 1.385-11.786 3.922-1.44 2.538-1.462 9.784-1.462 9.784l-7.403-7.629s-2.295-2.669.497-3.723c0 0-3.906-3.29.808-4.093 0 0-1.611-4.033 1.428-3.285 0 0-.68-5.087 3.29-3.349 0 0-1.242-4.96 2.974-2.172 0 0 .123-4.403 3.596-1.177 0 0 .374-4.713 4.156-.99 0 0 2.418-4.964 4.344.31v.25s2.541-3.658 3.595.247c0 0 2.882-1.67 3.03.578 0 0 1.076-.136 1.807.502.73.637.28 1.823.28 1.823s1.726-.612 2.236.102c.51.714.93 1.879.658 2.5 0 0 1.666-.145 1.943.781.276.927-.536 2.308-.536 2.308s1.517-.319 1.794.816c.276 1.135.238 2.163-1.037 2.495 0 0 1.763-.094 1.853 1.253.093 1.348-1.458 1.99-1.458 1.99s2.282.072 1.866 1.874c-.417 1.802-7.43 6.69-7.43 6.69h-.008Z"/><path fill="#6A5015" d="M17.803 26.32s5.253-2.83 11.823-1.292c6.575 1.539 11.165 15.925-1.24 19.648C15.98 48.4 7.462 34.268 17.798 26.325"/><path fill="#fff" d="m24.54 45.288-2.287 2.117-1.556-2.483 3.502-.059.34.425ZM25.347 44.99l1.985 2.35 2.163-2.477-4.148.127Z"/><path fill="#fff" d="m24.54 45.288-2.287 2.117 2.596 2.813 2.482-2.877-2.792-2.053Z"/><path fill="#191817" d="m10.574 33.788 3.604 5.3 10.366 10.675 5.397-5.333 5.534-6.078 1.517 5.708s-3.948 3.43-3.885 7.36c.064 3.928-4.713 5.356-4.713 5.356l-10.217.62s-2.376-6.128-3.676-9.358c-1.3-3.23-7.242-11.603-7.242-11.603l3.319-2.639-.004-.008ZM13.315 58.093s-2.665 3.205 2.295 4.446l1.233-3.269-3.528-1.177ZM14.492 62.539l-1.24 1.942 3.191.412-.833-2.354h-1.118Z"/><path fill="#6A5015" d="M9.562 33.979s.12-3.54-2.375-3.073c-2.495.468-2.618 3.447.05 5.121L8.5 34.931l1.062-.952Z"/><path fill="#C1AC6C" d="m7.811 30.375 7.922-8.292s2.108.387.247 3.052c-1.862 2.664-6.078 6.697-6.078 6.697L7.807 30.37l.004.005ZM29.686 47.35s-2.18.879 4.05 4.164l.77-2.962s-3.005-2.053-4.82-1.203ZM38.743 47.404s-3.353 1.798-1.458 4.034c1.891 2.231 4.56.765 5.368-.022.807-.786-3.906-4.011-3.906-4.011h-.004Z"/><path stroke="#191817" stroke-linecap="round" stroke-linejoin="round" stroke-width="1.275" d="M35.513 57.392s.867 1.921.187 3.35c-.684 1.427-2.606 1.797-2.606 1.797M34.459 62.416s.828.743.994 2.07h-2.482"/><path fill="#191817" d="M16.247 30.732s-2.622 4.951.914 4.951 5.73.064 5.347-3.846c-.383-3.906-6.26-1.105-6.26-1.105ZM27.574 30.043c-.12-.068-2.537 4.399 1.062 5.27 3.596.867 4.947-.021 5.232-.629.285-.607.893-5.16-2.325-4.93-3.217.23-3.97.293-3.97.293v-.004Z"/><path stroke="#191817" stroke-linecap="round" stroke-linejoin="round" stroke-width="1.275" d="M36.014 34.63c0 5.72-3.285 10.17-11.352 10.356-7.628.175-11.351-4.636-11.351-10.357 0-5.72 4.28-9.924 11.534-9.987 7.565-.064 11.165 4.267 11.165 9.987h.004Z"/><path stroke="#191817" stroke-linecap="round" stroke-linejoin="round" stroke-width="1.275" d="M15.176 32.147c-.085 1.925-.31 3.846 1.798 3.782 1.862-.055 3.846-.123 3.846-.123s1.611.247 1.739-2.048c.123-2.295-.187-3.413-1.611-3.536-1.428-.123-5.644-.867-5.767 1.92l-.005.005ZM26.651 31.65c-.084 1.925-.31 3.846 1.798 3.782 1.862-.055 3.846-.123 3.846-.123s1.611.246 1.739-2.049c.123-2.295-.187-3.412-1.611-3.536-1.428-.123-5.644-.866-5.767 1.921l-.005.005ZM22.682 31.59s2.295-.497 3.723 0"/><path fill="#fff" stroke="#191817" stroke-linecap="round" stroke-linejoin="round" stroke-width="1.275" d="M24.416 37.48c0 1.063.65 1.922 1.798 1.922 1.147 0 2.172-.863 2.172-1.921s-.961-1.798-2.108-1.798c-1.148 0-1.862.735-1.862 1.798Z"/><path fill="#fff" stroke="#191817" stroke-linecap="round" stroke-linejoin="round" stroke-width="1.275" d="M24.667 37.48c0 1.063-.65 1.922-1.798 1.922-1.148 0-2.172-.863-2.172-1.921s.96-1.798 2.108-1.798c1.148 0 1.862.735 1.862 1.798Z"/><path fill="#191817" stroke="#191817" stroke-linecap="round" stroke-linejoin="round" stroke-width="1.275" d="M25.347 35.776c0 .362-.62.65-.867.65s-.867-.293-.867-.65c0-.357.39-.463.867-.463.476 0 .867.106.867.463Z"/><path stroke="#191817" stroke-linecap="round" stroke-linejoin="round" stroke-width="1.275" d="M13.438 37.417s-2.541-3.595-2.975-3.536c-.433.064-2.915 1.985-3.102 2.482-.187.497 7.255 10.421 8.003 13.52M7.237 35.93s-1.92-.99-1.61-3.163c.31-2.171 2.605-2.605 3.659-1.3 1.054 1.3.684 2.482.684 2.482"/><path stroke="#191817" stroke-linecap="round" stroke-linejoin="round" stroke-width="1.275" d="m7.981 30.285 7.008-7.815s.931-.685 1.552-.064c.62.62.497 1.177-.374 2.231-.867 1.054-6.265 7.195-6.265 7.195M34.31 51.51l-3.906-2.087s-1.576-.675-.969-1.84c.608-1.164 2.006-.238 2.006-.238l3.498 1.823"/><path stroke="#191817" stroke-linecap="round" stroke-linejoin="round" stroke-width="1.275" d="M6.494 30.72s-1.178-.498-1.178-2.109c0-1.61 1.675-1.61 1.675-1.61s-2.261-.608-1.551-2.67c.556-1.61 2.358-1.428 2.358-1.428s-1.24-1.3-.497-2.605c.744-1.3 1.921-.684 1.921-.684s-.557-1.862.557-3.039c1.118-1.177 2.728-.31 2.728-.31s-.684-1.738.498-2.542c1.177-.807 2.482.374 2.482.374s0-1.861 1.177-2.171c1.177-.31 2.418.99 2.418.99s-.136-1.857 1.551-2.295c1.675-.434 2.606 1.3 2.606 1.3s.497-2.418 2.541-2.171c2.049.246 1.798 2.482 1.798 2.482s.62-1.488 2.231-1.178c1.61.31 1.364 1.675 1.364 1.675s.557-1.118 1.921-.434c0 0 1.241.74.655 1.87 0 0 1.139-1.275 2.26-.352 1.123.922.162 1.984.162 1.984s1.717-1.024 2.597.213c.952 1.334.208 2.078.208 2.078s1.62-.45 2.261 1.177c.642 1.628-.777 2.121-.777 2.121s1.772-.382 2.184 1.42c.242 1.058-1.033 1.827-1.033 1.827s1.233-.272 1.59.935c.353 1.203-.965 2.083-.965 2.083s2.618 1.194.62 2.486M20.077 44.553s3.45 4.526 4.866 5.087c0 0 3.264-2.792 4.684-5.21"/><path stroke="#191817" stroke-linecap="round" stroke-linejoin="round" stroke-width="1.275" d="m22.865 47.158 2.422-1.985 1.858 2.168"/><path stroke="#191817" stroke-linecap="round" stroke-linejoin="round" stroke-width="1.275" d="m24.416 46.35.561.621.867-.62h-1.428ZM24.977 47.218l.06 1.427M13.192 57.392s-.867 1.921-.187 3.35c.684 1.427 2.605 1.797 2.605 1.797M14.246 62.416s-.829.743-.995 2.07h2.482"/><path fill="#4A4A49" d="M17.047 30.515s-1.178-.25-1.356 1.105c0 0-.323 1.211.357 1.534 0 0 .43.213.892-.429 0 0 .498-.748.82-.999 0 0 .893-1.07-.713-1.21ZM20.884 34.085s-1.07.43-.57.999c0 0 .498.57.893.144 0 0 .32-.535.285-.854 0 0-.106-.642-.608-.285v-.004ZM27.994 30.281s-.892.145-.82 1.071c0 0-.144 1.178.43 1.14 0 0 .535.033.786-.464 0 0 .463-.57.82-.786 0 0 .82-.57.144-.893 0 0-.497-.195-1.355-.072l-.005.004ZM33.005 33.754s-.786.48-.497.943c0 0 .357.535.91.017 0 0 .586-.497.212-.892 0 0-.285-.34-.625-.073v.005Z"/><path stroke="#191817" stroke-linecap="round" stroke-linejoin="round" stroke-width="1.275" d="M33.35 50.09s0-2.813 3.638-6.039M39.053 46.784s-3.14 2.648-1.985 4.382c1.156 1.738 4.548 1.16 6.12-.663M40.957 49.678l3.392 2.232M41.535 50.09l.166 4.136M41.7 62.743v1.572M38.31 63.16l2.728-1.573"/><path fill="#fff" d="m90.147 48.505.956-1.513 1.785 2.482c2.456.353 3.557-1.904 3.29-2.907-.273-1.003-6.397-4.25-6.397-4.25-7.535 1.433-13.719-.195-13.719-.195-2.1 3.213-.833 12.648-1.05 18.041-.216 5.393 3.417 4.705 3.417 4.705 3.481-1.352 1.781-10.65 1.781-10.65l5.427-1.123s-.331 3.12-.187 5.313l.191 2.64s.158 2.872 3.137 2.655c2.975-.216 2.728-4.36 1.912-5.576-.816-1.215-.85-3.506-.85-3.506l.31-6.111-.004-.005Z"/><path fill="#FAD1D6" d="M79.95 18.092s-1.406-.23-6.357 6.244c-4.824 6.302-12.903 15.61 5.431 18.215C98.55 45.326 96.45 31.178 94.346 28.156 91.31 23.796 79.95 18.092 79.95 18.092Z"/><path fill="#fff" d="M84.617 32.347s-1.39 1.577 2.78 2.027c4.169.455 4.972-1.173 4.046-2.027-.927-.854-5.436-1.31-6.826 0ZM72.526 33.715s.442-2.41 4.335-1.976c3.893.433 4.603 2.235.79 3.094-3.816.858-4.704-.438-5.125-1.118Z"/><path fill="#1961AC" d="M88.085 46.895s-3.077-2.19-5.287.514c-2.205 2.699-4.925 5.589-6.736 6.081-1.81.493-2.388 6.448 2.967 8.165 5.355 1.717 5.533-2.47 5.933-3.498.395-1.028 1.117-1.734 3.026-2.376 1.908-.642 6.443-6.247.102-8.882l-.005-.005Z"/><path fill="#64501A" d="M94.966 40.945s1.628-3.358 3.8-2.533c2.171.824.854 5.146-2.07 4.879-2.924-.268-1.934-2.172-1.934-2.172"/><path fill="#191817" stroke="#191817" stroke-linecap="round" stroke-linejoin="round" stroke-width=".85" d="m79.024 54.66 3.307 3.008 3.306-4.101-2.316-2.92s-4.543 1.972-4.297 4.012Z"/><path fill="#fff" d="M78.034 46.937s3.587 5.287 4.577 5.623c.99.34.667 2.554-3.859.85-4.526-1.704-6.893-6.724-5.656-9.563 1.236-2.843.37-1.606.37-1.606l3.272.31s1.05 2.903 1.296 4.386Z"/><path fill="#F08589" d="M92.42 36.074c0 .408-1.117.744-2.494.744-1.377 0-2.495-.332-2.495-.744s1.118-.744 2.495-.744 2.494.332 2.494.744ZM77.456 36.435c0 .408-1.118.74-2.495.74s-2.495-.332-2.495-.74 1.118-.74 2.495-.74 2.495.332 2.495.74Z"/><path fill="#fff" stroke="#191817" stroke-linecap="round" stroke-linejoin="round" stroke-width="1.275" d="M96.173 46.563c.574.829.221 2.065-.786 2.767-1.012.7-2.29.599-2.869-.23-.574-.829-.22-2.065.786-2.767 1.012-.7 2.291-.599 2.87.23Z"/><path stroke="#191817" stroke-linecap="round" stroke-linejoin="round" stroke-width="1.275" d="M68.663 38.28S65.02 33.4 72.41 25.619c4.607-4.845 5.806-8.649 8.526-7.23 2.72 1.42 12.911 6.24 14.394 13.1 1.484 6.859-2.622 9.693-7.229 10.87-6.753 1.735-13.52.37-15.287-.556"/><path stroke="#191817" stroke-linecap="round" stroke-linejoin="round" stroke-width="1.488" d="M69.203 39.708s.616 1.296 2.346 2.1"/><path stroke="#191817" stroke-linecap="round" stroke-linejoin="round" stroke-width="1.275" d="M73.346 42.67s-.688 2.741 2.41 8.173c1.135 1.989 5.993 3.982 6.694 2.975.99-1.42-.374-2.584-2.287-4.514-1.36-1.373-2.074-3.026-2.074-3.026M80.877 49.479s3.09-5.508 7.106-2.67"/><path stroke="#191817" stroke-linecap="round" stroke-linejoin="round" stroke-width="1.275" d="M77.333 52.454s-3.192 1.279-2.202 4.862c.99 3.582 3.893 4.573 5.683 4.755 1.661.17 4.075-.99 4.262-4.262 0 0 .434-1.67 1.666-1.917 1.237-.247 5.993-2.287 3.77-6.426"/><path stroke="#191817" stroke-linecap="round" stroke-linejoin="round" stroke-width="1.275" d="m79.67 53.622-.646.731 3.15 3.026 3.463-3.77-1.483-1.665"/><path stroke="#191817" stroke-linecap="round" stroke-linejoin="round" stroke-width=".85" d="m84.277 51.14.68-.68M85.45 52.806l1.11-.986"/><path fill="#191817" stroke="#191817" stroke-linecap="round" stroke-linejoin="round" stroke-width=".85" d="m84.894 49.657 2.286 2.41 9.945-9.023-2.159-2.1-10.072 8.713Z"/><path stroke="#191817" stroke-linecap="round" stroke-linejoin="round" stroke-width="1.275" d="M90.147 42.24s1.172.927 1.483 1.484M95.149 41.501s-.247-1.483 1.236-2.346c1.484-.867 2.164-.926 2.903-.246.74.68.557 1.73-.064 2.656-.616.927-1.42 1.853-2.533 1.73M96.509 37.731l1.05 1.36M94.469 39.279l1.67.922M99.106 40.88l1.852.621M98.052 42.181l1.423 1.11M74.948 50.214s0 7.845.064 9.945c.06 2.1.187 4.51 2.597 4.696 2.41.187 2.346-2.78 2.346-2.78M85.212 59.93s.051 3.56 2.457 4.27c1.904.566 3.145-2.01 3.187-4.296.043-2.283-.863-5.236-.863-5.236"/><path stroke="#191817" stroke-linecap="round" stroke-linejoin="round" stroke-width="1.063" d="M91.443 32.853c0 .888-1.11 1.606-3.307 1.606-2.316 0-3.786-.404-3.489-1.666.246-1.05 1.696-1.36 3.523-1.36 1.828 0 3.273.536 3.273 1.42Z"/><path fill="#191817" d="M89.296 32.73a.285.285 0 1 1-.569-.001.285.285 0 0 1 .57 0Z"/><path fill="#191817" d="M89.012 33.226a.498.498 0 0 1 0-.994.5.5 0 0 1 .497.497.5.5 0 0 1-.497.497Zm0-.57a.074.074 0 0 0-.073.073c0 .08.145.08.145 0a.072.072 0 0 0-.072-.072Z"/><path stroke="#191817" stroke-linecap="round" stroke-linejoin="round" stroke-width="1.063" d="M80.206 33.15c0 .96-1.203 1.738-3.575 1.738-2.503 0-4.092-.438-3.774-1.802.268-1.134 1.832-1.47 3.808-1.47 1.977 0 3.54.578 3.54 1.538v-.004Z"/><path fill="#191817" d="M78.03 33.014a.285.285 0 1 1-.57 0 .285.285 0 0 1 .57 0Z"/><path fill="#191817" d="M77.745 33.511a.498.498 0 0 1 0-.994.5.5 0 0 1 .497.497.5.5 0 0 1-.497.497Zm0-.57a.072.072 0 0 0-.072.073c0 .08.144.08.144 0a.072.072 0 0 0-.072-.072Z"/><path stroke="#191817" stroke-linecap="round" stroke-linejoin="round" stroke-width="1.063" d="M81.064 38.845s3.213.434 5.13-1.483"/><path fill="#fff" d="M47.234 28.56s-3.073-9.907-2.38-11.67c.689-1.764-8.215-5.576-8.72 3.476-.51 9.057 3.765 13.37 3.765 13.37l7.335-5.176ZM55.611 28.305s-2.435-11.977 1.063-14.582c3.502-2.605 8.725-3.107 7.637 4.53-1.088 7.642-1.156 9.87-1.156 9.87l-7.548.182h.004Z"/><path fill="#fff" d="M46.571 29.29s-9.91 3.89-11.827 13.784c-1.917 9.894 1.39 15.652 7.79 20.608 6.396 4.955 6.366 5.725 9.116 12.448 2.754 6.724 4.51 6.902 7.085 7.523 2.58.62 12.907-3.439 14.127-4.833 1.22-1.39 3.931-6.451.744-15.52-3.188-9.07-1.11-6.907-.162-11.161.952-4.254 1.73-4.582.735-8.572-.99-3.987-2.711-10.834-8.228-13.367-5.516-2.533-8.495-3.93-19.171-.884l-.217-.03.008.005Z"/><path fill="#FFD500" d="M44.914 32.712s-6.562 3.043-7.425 10.723c-.863 7.68.11 19.835 16.843 18.785 0 0 1.636.178 3.31-.276 1.675-.45 3.545-1.076 3.566-1.666 0 0 8.674-3.83 9.316-12.21.642-8.381-2.55-16.019-12.014-17.982-9.465-1.964-13.6 2.622-13.6 2.622l.004.004ZM69.317 58.132s2.7-3.915 8.577-2.797c5.878 1.118 7.433 10.149 5.389 12.431-2.044 2.287-8.568.472-7.106-1.946 1.466-2.418 2.282-4.684 1.458-4.88-.825-.199-6.987 1.9-7.735.426-.748-1.475-.583-3.234-.583-3.234ZM66.708 77.422c-.447.017-7.255 4.318-4.841 7.705 2.414 3.383 8.024 3.621 8.836 2.563.807-1.058 1.39-4.662-.88-5.202 0 0 .208-1.156.612-2.048.408-.889.166-3.167-3.727-3.022v.004Z"/><path fill="#FFD500" d="m58.102 83.338 7.586 9.32s3.043 1.394 3.74-1.13c.697-2.525-4.348-9.184-4.348-9.184l-6.983.994h.005Z"/><path fill="#802824" d="M52.355 55.67s2.092 2.104 3.588 2.028c1.495-.072 3.4-1.488 1.602-4.518l-3.698.102-1.492 2.389Z"/><path fill="#F08589" d="M57.498 26.809c.005-.319-1.113-9.329.931-11.08 2.048-1.75 3.995.315 2.937 3.268-1.054 2.954-1.173 7.642-.455 8.475l-3.417-.663h.004ZM41.573 31.794S38.2 22.07 39.325 20.081c1.13-1.989 2.418-3.251 3.022-.846.603 2.406 1.139 8.972 2.359 10.252l-3.133 2.307Z"/><path fill="#B2B2B2" d="m42.355 73.988 4.718 15.105s2.541 1.134 3.12-.736L46.1 73.096s-2.304.586-2.602.148l-1.143.749v-.005ZM48.917 66.759l-8.385 8.853s-4.407.234-3.213-2.104c1.19-2.337 8.224-9.766 8.224-9.766s3.238.599 3.379 3.017h-.005Z"/><path fill="#706F6F" d="M47.238 59.598s-2.715 1.823-2.086 3.583c0 0 3.91 1.848 3.935 3.195 0 0 3.553.098 3.876-2.005.319-2.1-1.666-6.354-5.725-4.773Z"/><path fill="#B2B2B2" d="M47.277 89.055s-4.16 2.481-3.421 4.054c.74 1.577 3.808-.391 4.075-.616 0 0 1.45 3.604 2.767 2.78 1.318-.83.162-3.562.162-3.562s3.655.59 4.305-.31c.65-.897.123-3.018-3.85-3.213l-4.047.867h.009Z"/><path fill="#FFD500" d="M39.453 66.066s-4.318 3.4-.689 5.644c3.63 2.244 6.12-2.384 6.396-4.029.277-1.645-3.374-3.527-5.707-1.615Z"/><path fill="#FFD500" d="M46.287 69.147s.807 5.84-2.202 4.174c-3.009-1.67-.68-2.172-.68-2.172l2.882-2.002Z"/><path fill="#575756" d="M47.96 62.879c.957 0 .961-1.488 0-1.488-.96 0-.96 1.488 0 1.488ZM50.388 62.777c.956 0 .96-1.488 0-1.488s-.96 1.488 0 1.488ZM49.66 65.114c.957 0 .961-1.487 0-1.487-.96 0-.96 1.487 0 1.487Z"/><path stroke="#191817" stroke-linecap="round" stroke-linejoin="round" stroke-width="1.488" d="M44.26 63.916s-9.576-4.203-10.082-15.466c-.506-11.263 7.021-18.169 14.756-20.477 7.735-2.307 19.771-1.19 24.136 10.039 4.199 10.812-1.275 18.177-1.275 18.177"/><path stroke="#191817" stroke-linecap="round" stroke-linejoin="round" stroke-width="1.488" d="M46.937 28.16c-2.278-3.162.51-15.61-7.14-13.29-8.194 2.487-.136 18.259-.136 18.259"/><path stroke="#191817" stroke-linecap="round" stroke-linejoin="round" stroke-width="1.063" d="M41.522 31.22s-4.688-11.742-.74-12.907c3.167-.93.413 5.789 3.923 11.17"/><path stroke="#191817" stroke-linecap="round" stroke-linejoin="round" stroke-width="1.488" d="M54.999 26.792S52.687 11.53 60.189 11.7c7.5.17 2.528 11.526 2.966 16.422"/><path stroke="#191817" stroke-linecap="round" stroke-linejoin="round" stroke-width="1.063" d="M57.502 26.847s-1.398-12.465 2.53-11.853c3.425.536-.494 5.848.709 12.453"/><path stroke="#191817" stroke-linecap="round" stroke-linejoin="round" stroke-width="1.275" d="m55.16 38.637-1.708 6.23 7.03.374M59.16 40.949l-5.708 3.918M41.433 45.003l5.01 2.8-3.263 4.417M40.077 49.215l6.367-1.411"/><path fill="#191817" stroke="#191817" stroke-linecap="round" stroke-linejoin="round" stroke-width="1.275" d="M52.976 48.684c.323.633-.174 1.534-1.118 2.014-.94.48-1.963.353-2.286-.28-.323-.633.178-1.534 1.117-2.015.94-.48 1.964-.352 2.287.28Z"/><path stroke="#191817" stroke-linecap="round" stroke-linejoin="round" stroke-width="1.275" d="M51.862 50.702s1.454 4.255 4.735 2.368c2.031-1.17 1.407-3.222 1.407-3.222M48.548 54.349s3.255 3.2 4.964-.97"/><path stroke="#191817" stroke-linecap="round" stroke-linejoin="round" stroke-width="1.275" d="M51.816 55.403s2.367 3.808 5.083 2.189c2.932-1.747.148-4.556.148-4.556M48.803 66.835c2.766.09 3.663-1.16 3.948-2.8.361-2.104-1.126-5.117-4.416-4.607-3.748.582-3.15 4.25-3.15 4.25M37.952 71.064s-1.661-3.395 1.5-5.002c3.167-1.602 5.853-.582 5.662 1.947-.196 2.528-4.008 6.375-7.162 3.055Z"/><path stroke="#191817" stroke-linecap="round" stroke-linejoin="round" stroke-width="1.275" d="M43.125 71.919s-.357 1.7 1.53 1.678c1.882-.025 2.618-4.632.718-4.475M43.936 65.352l1.403-1.832s2.95.744 3.485 3.498l-2.384 2.15M42.938 73.372s-3.065 3.587-4.68 2.214c-1.742-1.487-.335-2.911.506-3.876"/><path stroke="#191817" stroke-linecap="round" stroke-linejoin="round" stroke-width="1.275" d="M42.666 74.413 47.352 89s1.573 1.348 2.84-.637L45.605 73.52"/><path stroke="#191817" stroke-linecap="round" stroke-linejoin="round" stroke-width="1.275" d="M47.073 89.093s-4.306 3.136-3.443 4.254c.863 1.118 2.002 1.135 4.573-1.084 0 0 .527 3.596 2.457 2.805 1.989-.816.284-3.727.284-3.727s4.225 1.024 4.37-1.046c.152-2.197-4.701-2.09-4.701-2.09"/><path stroke="#191817" stroke-linecap="round" stroke-linejoin="round" stroke-width="1.488" d="M48.088 67.86s3.698 5.652 4.344 8.963c.646 3.31 4.343 7.416 9.044 5.878M72.343 55.853s-3.829 2.398-3.068 4.31c.756 1.913 2.558 1.925 3.842 1.513 1.283-.412 4.36-.905 4.5-.446.14.459.876 1.666-.577 3.23-1.454 1.564-.153 4.182 2.397 4.118 2.55-.064 4.692-.892 4.5-4.756-.19-3.863-1.21-10.293-11.13-8.177"/><path stroke="#191817" stroke-linecap="round" stroke-linejoin="round" stroke-width="1.488" d="M73.899 61.523s1.81 6.779 1.496 10.765c-.31 3.923-1.194 6.095-4.811 7.034M67.672 82.569s2.988-.752 2.708-2.741c-.28-1.985-2.784-3.383-5.606-1.335-2.818 2.053-3.982 4.79-2.78 6.894 1.203 2.103 8.092 3.927 9.244.73 1.156-3.208-1.989-3.82-1.989-3.82"/><path stroke="#191817" stroke-linecap="round" stroke-linejoin="round" stroke-width="1.488" d="M58.102 83.338s5.282 8.41 7.586 9.32c2.3.906 5.257-.658 3.493-4.653"/><path stroke="#191817" stroke-linecap="round" stroke-linejoin="round" stroke-width="1.275" d="m52.95 62.526 2.355-.26c2.656-.53 5.903-1.984 5.903-1.984-1.674.51 12.466-2.869 9.108-18.326-2.13-9.792-11.794-13.184-19.002-11.611-5.962 1.3-14.11 5.87-14.199 16.877-.09 11.007 8.292 14.067 8.292 14.067M32.903 76.139l3.422 5.516"/><path fill="#191817" stroke="#191817" stroke-linecap="round" stroke-linejoin="round" stroke-width="1.275" d="M36.15 81.596c.515.42.391 1.42-.272 2.231-.663.812-1.619 1.126-2.133.706-.514-.421-.391-1.42.272-2.232.663-.811 1.62-1.126 2.133-.705Z"/><path stroke="#191817" stroke-linecap="round" stroke-linejoin="round" stroke-width="1.275" d="m97.006 70.189-2.64 3.931"/><path fill="#191817" stroke="#191817" stroke-linecap="round" stroke-linejoin="round" stroke-width="1.275" d="M94.354 73.984c-.123.468-.825.684-1.564.489-.74-.2-1.233-.74-1.11-1.207.124-.468.825-.689 1.565-.489.74.2 1.232.74 1.109 1.207Z"/><path stroke="#191817" stroke-linecap="round" stroke-linejoin="round" stroke-width="1.275" d="m72.828 14.84-3.396-6.378s1.845-2.759 3.868-.655c1.538 1.598 1.772 1.122 3.017 1.241"/><path fill="#191817" stroke="#191817" stroke-linecap="round" stroke-linejoin="round" stroke-width="1.275" d="M72.637 14.76c.54.506.331 1.606-.468 2.457-.799.85-1.882 1.13-2.422.624-.54-.506-.332-1.606.467-2.456.8-.85 1.883-1.13 2.423-.625Z"/><path stroke="#191817" stroke-linecap="round" stroke-linejoin="round" stroke-width="1.275" d="m9.477 77.533-.998-5.045s1.823-1.5 2.77.353c.719 1.402.978 1.13 1.798 1.466"/><path fill="#191817" stroke="#191817" stroke-linecap="round" stroke-linejoin="round" stroke-width="1.275" d="M9.367 77.44c.263.454-.106 1.16-.825 1.576-.718.416-1.513.382-1.776-.072-.264-.455.106-1.16.824-1.577.719-.416 1.513-.383 1.777.072Z"/><path fill="#C83736" d="M36.813 53.423s-4.722-.187-5.27 4.713l-3.472-2.856s.552-5.393 5.023-5.206l3.723 3.349h-.004ZM20.634 55.59l-3.473 2.18s-1.3-4.781-5.27-4.348l3.723-3.348s5.21-.064 5.024 5.52l-.004-.004Z"/><path fill="#fff" d="M20.634 55.59s-7.96 3.778-2.83 12.308c5.125 8.53 16.731.136 14.402-6.953-2.329-7.089-9.4-6.099-11.572-5.355Z"/><path fill="#fff" d="M11.887 53.422s4.645-.19 5.487 4.96c0 0-5.487 1.305-5.487-4.96Z"/><path fill="#B2B2B2" d="M4.075 44.8S.352 46.97 6.366 51.165c6.464 4.513 5.895-9.843-2.29-6.367Z"/><path fill="#fff" d="M36.813 53.792s-4.347-1.385-5.27 4.922c0 0 4.459.544 5.27-4.922Z"/><path stroke="#191817" stroke-linecap="round" stroke-linejoin="round" stroke-width="1.275" d="M20.634 54.846c-.247-5.023-5.024-4.777-5.024-4.777l-3.723 3.35s-.68 4.649 4.713 5.58"/><path stroke="#191817" stroke-linecap="round" stroke-linejoin="round" stroke-width="1.275" d="M32.478 63.066a8.278 8.278 0 0 1-8.279 8.279 8.278 8.278 0 0 1-8.279-8.28 8.278 8.278 0 0 1 8.28-8.278 8.278 8.278 0 0 1 8.278 8.279Z"/><path stroke="#191817" stroke-linecap="round" stroke-linejoin="round" stroke-width="1.275" d="M12.508 53.482s3.846-.31 4.65 4.654M28.07 54.846c.247-5.023 5.024-4.777 5.024-4.777l3.723 3.35s.685 4.649-4.713 5.58M15.984 70.189l1.819-1.572M5.066 50.256S1.92 47.362 4.07 44.8c2.15-2.562 5.126 1.076 5.126 1.076s3.472 3.306.91 5.542c-2.563 2.23-5.045-1.16-5.045-1.16h.004ZM6.97 48.523l-4.633 3.969M6.06 49.763l.247 15.13M3.081 64.069l3.145-2.15 3.056 1.984M31.114 67.707l2.648 1.9"/><path stroke="#191817" stroke-linecap="round" stroke-linejoin="round" stroke-width="1.275" d="M36.69 53.482s-3.846-.31-4.65 4.654"/></g><defs><clipPath id="a"><path fill="#fff" d="M1.7 6.375h99.896V95.82H1.7z"/></clipPath></defs></svg>