<svg xmlns="http://www.w3.org/2000/svg" width="102" height="102" fill="none"><g clip-path="url(#a)"><path fill="#B18542" d="M78.259 66.124c-2.77-.085-4.977-.118-6.732-.158 1.594-4.434 3.54-11.276 4.251-19.694 1.169-13.86-8.125-21.438-8.125-21.438 2.503-5.314 10.261-6.596 10.566-9.407.23-2.133-2.503-4.581-9.65-3.544-7.145 1.037-11.543 8.795-11.543 8.795-9.711-2.224-17.363-.095-19.712.704 0 0-.81-4.834-3.72-6.937-7-5.061-21.58 4.712-17.12 10.76 3.708 5.03 10.81-.671 10.81-.671l1.345 1.586s-5.497 5.985-5.618 18.078c-.121 12.093 6.842 26.385 6.842 26.385v5.618c-7.696 5.864-7.33 12.827-7.33 12.827a56.503 56.503 0 0 0 6.351 2c.008-.036 1.17-4.811 3.115-5.665l.367 6.413c5.687 1.03 11.61 1.198 19.36 1.22 12.339.037 19.423-2.198 19.423-2.198s-.246-4.094 0-5.131c0 0 10.323-.916 14.354-7.084 4.031-6.167-2.243-12.306-7.23-12.46h-.004Z"/><path stroke="#061922" stroke-linecap="round" stroke-linejoin="round" stroke-width="1.283" d="M22.52 89.028s-.367-6.963 7.33-12.827v-5.618s-6.964-14.292-6.843-26.385c.121-12.093 5.618-18.078 5.618-18.078l-1.345-1.587s-7.102 5.703-10.81.671c-4.457-6.047 10.125-15.82 17.128-10.76 2.91 2.104 3.72 6.938 3.72 6.938M28.87 91.032s1.162-4.811 3.115-5.665l.367 6.413"/><path fill="#fff" d="M26.247 39.863c.058-3.786 2.931-7.267 8.183-7.084 5.251.183 7.575 5.068 7.267 8-.304 2.931-2.749 6.046-8 5.742-5.252-.304-7.513-2.81-7.45-6.658ZM51.408 39.005c-.172-3.173 2.29-7.575 8.246-7.575 6.475 0 7.637 5.069 7.575 7.084-.063 2.016-1.283 6.351-7.513 6.413-6.23.063-8.124-2.565-8.308-5.925v.003Z"/><path stroke="#061922" stroke-linecap="round" stroke-linejoin="round" stroke-width="1.283" d="M45.361 65.43s1.529 2.222 4.277 2.038c2.748-.183 3.727-2.382 3.727-2.382"/><path fill="#fff" d="M48.66 50.981c-1.928.312-3.115 2.012-3.053 6.105.063 4.094 1.895 5.618 3.757 5.435 1.861-.183 3.144-1.51 2.902-5.764-.246-4.255-2.078-6.025-3.602-5.78l-.004.004Z"/><path fill="#061922" d="M43.368 44.568c-.03-1.187 1.162-3.122 3.98-3.151 2.814-.03 4.467 1.396 4.467 3.151 0 2.023-1.569 2.683-3.852 2.69-2.407.007-4.533 0-4.595-2.69Z"/><path fill="#C1272D" d="M64.05 76.92s-4.616.88-12.65.872c-19.25-.026-22.53-2.078-22.53-2.078v-5.13s13.398.978 21.743.978H63.27"/><path fill="#939598" d="m55.11 79.65-8.272 3.078c.121.616.374 1.14.73 1.572l8.043-3.31a3.842 3.842 0 0 0-.502-1.337v-.003ZM51.397 77.763c-2.286-.195-4.17 1.128-4.566 3.24l7.11-2.496c-.671-.407-1.521-.657-2.544-.74v-.004ZM49.477 85.52a6.15 6.15 0 0 0 1.752.242c2.301 0 4.05-.938 4.405-2.972l-6.157 2.73Z"/><path fill="#B3B3B3" d="m53.94 78.503-7.109 2.495a4.67 4.67 0 0 0-.08.829c0 .318.029.619.084.901l8.27-3.078c-.289-.47-.677-.85-1.168-1.147h.004ZM55.7 81.999c0-.36-.034-.693-.092-1.008l-8.044 3.31c.473.574 1.125.985 1.91 1.22l6.156-2.73c.044-.25.07-.51.07-.792Z"/><path stroke="#061922" stroke-linecap="round" stroke-linejoin="round" stroke-width="1.283" d="M55.7 81.999c0-2.584-1.525-3.998-4.306-4.236-2.573-.22-4.643 1.484-4.643 4.067 0 2.584 1.89 3.932 4.474 3.932 2.584 0 4.474-1.18 4.474-3.763Z"/><path stroke="#061922" stroke-linecap="round" stroke-linejoin="round" stroke-width="1.283" d="M64.05 76.92s-4.616.88-12.65.872c-19.25-.026-22.53-2.078-22.53-2.078v-5.13s13.398.978 21.743.978H63.27"/><path fill="#061922" d="M34.203 40.273a.825.825 0 1 0 0-1.649.825.825 0 0 0 0 1.65ZM59.316 39.14a.825.825 0 1 0 0-1.648.825.825 0 0 0 0 1.649Z"/><path stroke="#061922" stroke-linecap="round" stroke-linejoin="round" stroke-width="1.283" d="M26.247 39.863c.058-3.786 2.931-7.267 8.183-7.084 5.251.183 7.575 5.068 7.267 8-.304 2.931-2.749 6.046-8 5.742-5.252-.304-7.513-2.81-7.45-6.658ZM51.408 39.005c-.172-3.173 2.29-7.575 8.246-7.575 6.475 0 7.637 5.069 7.575 7.084-.063 2.016-1.283 6.351-7.513 6.413-6.23.063-8.124-2.565-8.308-5.925v.003Z"/><path stroke="#061922" stroke-linecap="round" stroke-linejoin="round" stroke-width="1.283" d="M36.566 21.66s8.733-3.664 20.46-.978c0 0 4.398-7.758 11.544-8.795 7.146-1.037 9.88 1.407 9.649 3.543-.304 2.808-8.063 4.094-10.565 9.407 0 0 9.293 7.579 8.124 21.439-1.283 15.208-6.596 25.286-6.596 25.286"/><path fill="#B18542" d="M85.141 69.271c-1.876-2.382-4.075-2.986-6.878-3.144-10.309-.582-12.863.121-12.925-1.953-.059-1.979 1.143-3.786 1.202-5.31.062-1.528-1.144-2.873-3.16-2.873-2.015 0-4.173 1.25-4.397 4.947-.154 2.565.583 4.497.583 4.497-1.448 0-5.087.322-4.735 3.748.202 1.976 1.385 2.397 3.053 2.412h-.011s-2.302.51-2.188 2.965c.099 2.107 1.744 2.396 2.796 2.363-.117.007-.967.136-1.004 1.913-.048 2.32 2.73 2.932 6.274 2.628 3.544-.305 10.199-1.037 13.621-1.1l2.236-4.756 5.885 2.986c1.939-3.13 1.583-6.86-.352-9.315v-.008Z"/><path stroke="#061922" stroke-linecap="round" stroke-linejoin="round" stroke-width="1.283" d="M60.145 65.453s-5.754-.539-5.314 3.727c.245 2.382 1.91 2.503 4.13 2.382"/><path stroke="#061922" stroke-linecap="round" stroke-linejoin="round" stroke-width="1.283" d="M59.35 76.813s-3.519.854-3.665-2.261c-.114-2.455 2.188-2.961 2.188-2.961"/><path stroke="#061922" stroke-linecap="round" stroke-linejoin="round" stroke-width="1.283" d="M77.368 80.357c-3.419.062-10.077.795-13.621 1.1-3.544.303-6.322-.305-6.274-2.628.04-1.91 1.023-1.913 1.023-1.913"/><path stroke="#061922" stroke-linecap="round" stroke-linejoin="round" stroke-width="1.283" d="M71.139 90.798s-.246-4.094 0-5.13c0 0 10.47-.822 14.354-7.085 1.939-3.13 1.583-6.86-.352-9.315-1.876-2.382-4.075-2.987-6.878-3.144-10.309-.583-12.863.12-12.925-1.954-.06-1.979 1.143-3.785 1.202-5.31.062-1.528-1.144-2.873-3.16-2.873-2.015 0-4.173 1.25-4.397 4.947-.154 2.566.583 4.497.583 4.497"/><path fill="#B18542" d="M44.508 49.208c.487-.854 1.587-2.32 3.727-2.383 2.136-.062 3.166 2.137 3.166 2.137"/><path stroke="#061922" stroke-linecap="round" stroke-linejoin="round" stroke-width="1.283" d="M44.508 49.208c.487-.854 1.587-2.32 3.727-2.383 2.136-.062 3.166 2.137 3.166 2.137M48.66 50.981c-1.928.312-3.115 2.012-3.053 6.105.063 4.094 1.895 5.618 3.757 5.435 1.861-.183 3.144-1.51 2.902-5.764-.246-4.255-2.078-6.025-3.602-5.78l-.004.004Z"/></g><defs><clipPath id="a"><path fill="#fff" d="M15 11h72.421v82H15z"/></clipPath></defs></svg>