<svg xmlns="http://www.w3.org/2000/svg" width="102" height="102" fill="none"><g clip-path="url(#a)"><path fill="#B78B32" d="M85.404 40.395c-.595-2.12-3.051-14.834-17.123-20.937-14.07-6.102-26.444-2.12-26.444-2.12s8.432 19.594 11.35 25.58l-7.185 1.627s-.89 12.266 1.72 23.2c2.608 10.933 3.549 14.915 3.681 15.627.132.712.066 1.602-.63 2.365-.697.763-1.653 1.525-1.211 2.797.443 1.271.824 1.398 1.78 1.271.956-.127 1.271.061 1.84.381.57.32 1.211.51 1.908.062.697-.448.956-.128 1.78 0 .824.127 2.604.381 3.366-1.974.763-2.354.702-8.136.509-9.916-.193-1.78-.315-2.955-.315-2.955s3.305.158 4.988.061c1.684-.096 3.784-.096 3.784-.096s.95 3.717 1.205 6.163c.255 2.446.127 2.736-.224 3.657-.35.92-1.205 1.652-.57 3.112.636 1.465.764 1.175 1.72 1.332.956.158 1.144-.03 1.78.382.635.412 1.113.35 1.907.193.793-.158 1.144-.351 1.907-.158.762.194 2.095.382 3.02-2.003.926-2.386.702-6.388 1.623-10.619.92-4.23 1.78-10.649 2.003-12.774.224-2.126.636-17.006.636-17.006l-1.175-3.606c1.45-1.306 2.634-2.725 2.37-3.661v.015Z"/><path stroke="#0E141B" stroke-linecap="round" stroke-linejoin="round" stroke-width="1.488" d="M45.794 45.903s-1.358 13.222 5.609 37.469c.147.514.356 1.266-.407 1.983-.468.438-1.078 1.058-1.388 1.897-.585 1.577.539 3.463 3.132 2.39M72.675 89.612c-1.724.514-3.188-.107-3.351-1.74a3.096 3.096 0 0 1 .61-2.186c.529-.692.778-1.236.697-2.746-.24-4.267-1.44-7.715-1.44-7.715s-3.391.255-10.384 0"/><path stroke="#0E141B" stroke-linecap="round" stroke-linejoin="round" stroke-width="1.488" d="M57.099 87.486c-1.368.595-.916 2.065-.606 2.396.962 1.032 2.69.549 3.621-1.262.936-1.81 1.104-8.136.432-13.273M73.23 86.87c-1.068.682-.992 1.71-.697 2.483.34.88 2.227 1.754 3.509.315"/><path stroke="#0E141B" stroke-linecap="round" stroke-linejoin="round" stroke-width="1.488" d="M76.718 87.217s-1.368.854-.844 2.14c.524 1.282 3.55 1.592 4.246-2.003.595-3.051.575-5.126 1.271-9.067 1.379-7.817 3.418-19.208 3.642-33.925M53.335 87.37c-.732.436-1.103 1.794-.218 2.593.991.89 2.654.295 3.092-.438"/><path fill="#B78B32" d="M65.078 70.135s.666-.712.64-1.552c-.025-.839-1.093-1.957-1.093-1.957s.905-.789.686-1.851c-.218-1.063-.732-1.46-2.827-1.74-2.034-.27-11.447-1.77-11.57-13.72-1.988-1.399-5.07-3.326-8.09-3.626-2.096 4.13-1.734 9.245-.738 12.012 3.128 8.665 9.754 11.793 16.63 13.827 0 0 3.565 3.051 6.092 1.45 2.095-1.328.264-2.849.264-2.849l.005.006Z"/><path stroke="#0E141B" stroke-linecap="round" stroke-linejoin="round" stroke-width="1.488" d="M64.772 69.987c1.226.87.758 2.426-.162 3.016-1.007.64-2.655.768-4.501-.575-2.548-1.856-13.512-3.087-17.763-13.7-1.297-3.24-1.984-9.286.9-13.782"/><path stroke="#0E141B" stroke-linecap="round" stroke-linejoin="round" stroke-width="1.488" d="M65.078 67.175s1.327 1.195.142 2.395c-.915.926-2.705.56-3.453.071M61.64 66.468c.91.575 2.217.844 3.173-.036.768-.706.865-2.924-.997-3.188-1.423-.203-8.477-.58-11.38-7.028"/><path fill="#B78B32" d="M76.082 50.998c-1.805 10.842-9.275 11.519-11.28 11.783-2.094.275-2.603.671-2.827 1.74-.218 1.062.687 1.85.687 1.85s-1.068 1.124-1.093 1.958c-.026.84.64 1.551.64 1.551s-1.83 1.52.265 2.848c2.532 1.607 6.092-1.45 6.092-1.45 6.87-2.033 13.497-5.16 16.63-13.827.859-2.38 2.985-15.068-1.913-22.141-3.178.6-6.906 12.983-7.2 15.688Z"/><path stroke="#0E141B" stroke-linecap="round" stroke-linejoin="round" stroke-width="1.488" d="M62.52 69.733c-1.226.87-.758 2.426.162 3.016 1.007.64 2.655.767 4.5-.575 2.549-1.856 13.35-3.168 17.546-13.975 1.612-4.155 3.814-15.002-3.306-26.953-3.036-5.095-16.146-19.706-43.099-12.84"/><path stroke="#0E141B" stroke-linecap="round" stroke-linejoin="round" stroke-width="1.488" d="M62.214 66.92s-1.327 1.196-.142 2.396c.915.925 2.705.56 3.453.071M65.652 66.214c-.91.574-2.217.844-3.173-.036-.768-.707-.865-2.924.996-3.188 1.526-.22 9.515-.636 11.936-8.513"/><path fill="#B81D23" d="M70.488 42.917c0 5.818-.95 10.095-2.09 13.436C81.173 38.54 71.292 23.232 55.07 18.58c-17.616-5.05-25.686 4.14-25.686 4.14 6.026-3.322 13.446-2.833 20.316-1.649 5.177.89 20.79 5.315 20.784 21.842l.005.005Z"/><path fill="#174480" d="M39.62 20.19c.732-.02 1.47-.02 2.207 0a88.591 88.591 0 0 0-.86-2.847c-.773.112-1.505.254-2.202.417.23.65.57 1.632.855 2.425v.006ZM44.075 20.328c.864.071 1.729.168 2.588.28a153.902 153.902 0 0 0-1.037-3.54c-.855-.015-1.673 0-2.462.051.26.93.616 2.197.91 3.209ZM50.29 17.5a33.812 33.812 0 0 0-2.523-.315l.976 3.723c.32.05.64.106.961.157.438.076.951.178 1.526.31-.275-1.2-.64-2.75-.936-3.88l-.005.005ZM53.534 22.001c.813.25 1.678.554 2.578.91-.254-1.24-.646-3.066-.94-4.302l-.108-.03a41.102 41.102 0 0 0-2.502-.636c.265 1.114.672 2.802.972 4.058ZM58.03 23.756c.767.37 1.54.783 2.308 1.25-.087-1.367-.214-3.32-.315-4.587a32.584 32.584 0 0 0-2.447-1.017c.123 1.155.326 3.036.458 4.359l-.005-.005ZM62.204 26.253a22.82 22.82 0 0 1 2.014 1.663c.107-1.374.275-3.688.316-4.908a28.644 28.644 0 0 0-2.177-1.378c-.036 1.078-.107 3.377-.153 4.623ZM67.61 32.045c.33-1.322 1.032-4.175 1.246-5.259a25.168 25.168 0 0 0-2.105-2.054c-.133.94-.524 3.651-.768 5.04.584.701 1.134 1.46 1.632 2.273h-.005ZM68.744 34.206c.422.946.778 1.958 1.058 3.041.636-1.454 1.912-4.384 2.395-5.594-.453-.91-.971-1.79-1.561-2.634-.33.92-1.246 3.458-1.892 5.182v.005ZM70.265 39.637c.132.972.208 1.994.218 3.072.86-1.144 2.746-3.677 3.59-4.872a19.308 19.308 0 0 0-.666-3.128c-.676 1.073-2.217 3.525-3.137 4.928h-.005ZM74.19 41.595c-.849.799-2.75 2.589-3.752 3.514a43.56 43.56 0 0 1-.199 2.726c.885-.742 2.61-2.207 3.52-3.046.228-1.083.37-2.151.432-3.199v.005Z"/><path stroke="#0E141B" stroke-linecap="round" stroke-linejoin="round" stroke-width="1.488" d="M70.488 42.917c0 5.818-.95 10.095-2.09 13.436C81.173 38.54 71.292 23.232 55.07 18.58c-17.616-5.05-25.686 4.14-25.686 4.14 6.026-3.322 13.446-2.833 20.316-1.649 5.177.89 20.79 5.315 20.784 21.842l.005.005Z"/><path fill="#B78B32" stroke="#0E141B" stroke-linecap="round" stroke-linejoin="round" stroke-width="1.488" d="M36.874 78.51c-.824 1.089-1.607 2.777-.448 4.796 1.72 2.98 8.422 3.682 11.686 1.607 4.786-3.041 4.14-7.532 6.922-11.224.925-1.225 3.107-3.336 4.5-4.424 2.523-1.968 5.59-4.806 7.898-10.374.325-.783.651-1.628.961-2.538 1.14-3.341 2.09-7.618 2.09-13.436 0-16.532-15.612-20.952-20.784-21.841-6.87-1.185-14.295-1.674-20.316 1.647-2.304 1.272-4.404 3.097-6.189 5.655-6.453 9.256-11.422 21.674-9.093 34.678.727 4.048 3.092 8.03-.254 10.516-2.466 1.831-3.041 5.06-.829 6.728 3.967 2.986 10.837 1.897 13.466-3.005 1.388-2.589 2.278-5.737 1.983-9.256 0 0 5.355 1.857 11.773 2.248 0 0 .778 1.968-.244 4.669-.61 1.607-2.288 2.446-3.122 3.554Z"/></g><defs><clipPath id="a"><path fill="#fff" d="M10.75 10.625h76.5V91.32h-76.5z"/></clipPath></defs></svg>