<svg xmlns="http://www.w3.org/2000/svg" width="102" height="102" fill="none"><g clip-path="url(#a)"><path fill="#fff" d="M16.737 34.698s-.391-3.162-3.978-2.694c-4.463.582-5.993 9.337-3.808 16.745 1.98 6.719 6.268 11.015 13.349 14.598"/><path stroke="#0E141B" stroke-linecap="round" stroke-linejoin="round" stroke-width="1.488" d="M16.737 34.698s-.391-3.162-3.978-2.694c-4.463.582-5.993 9.337-3.808 16.745 1.98 6.719 6.268 11.015 13.349 14.598"/><path fill="#fff" d="M21.947 62.425s-4.318-5.436-2.159-11.441c1.921-5.35 29.92 2.656 30.613 9.698l-8.224 17.723-18.194 1.585-2.257-16.877"/><path fill="#fff" d="M33.805 79.119c-3.502 4.624.153 4.097 1.683 6.434 1.53 2.338 0 5.933-4.136 5.258-4.343-.71-9.422-4.803-7.947-13.32a32.23 32.23 0 0 1-.565-2.503c-1.271-7.276-.842-13.749-.842-13.749"/><path stroke="#0E141B" stroke-linecap="round" stroke-linejoin="round" stroke-width="1.488" d="M33.805 79.119c-3.502 4.624.153 4.097 1.683 6.434 1.53 2.338 0 5.933-4.136 5.258-4.343-.71-9.422-4.803-7.947-13.32a32.23 32.23 0 0 1-.565-2.503c-1.271-7.276-.842-13.749-.842-13.749"/><path fill="#fff" d="M39.797 74.576c-3.65-.867-5.423-2.474-8.113-3.617-4.284-1.828-6.86 2.393-4.39 6.018 2.898 4.258 9.167 6.396 15.057 5.546 4.297-.62 6.928-3.536 7.408-8.287.476-4.748.642-13.554.642-13.554"/><path stroke="#0E141B" stroke-linecap="round" stroke-linejoin="round" stroke-width="1.488" d="M39.797 74.576c-3.65-.867-5.423-2.474-8.113-3.617-4.284-1.828-6.86 2.393-4.39 6.018 2.898 4.258 9.167 6.396 15.057 5.546 4.297-.62 6.928-3.536 7.408-8.287.476-4.748.642-13.554.642-13.554"/><path fill="#F9D2D4" stroke="#0E141B" stroke-linecap="round" stroke-linejoin="round" stroke-width="1.488" d="M51.684 27.256c-4.955-4.624-12.835-8.185-15.988-9.133-1.173-.353-1.662.438-1.662.438-2.61 3.782-7.463 5.525-12.529 9.222-5.32 3.88-9.864 8.564-9.664 16.507.106 4.127 2.146 8.181 5.559 11.084 3.684 3.14 9.367 4.828 18.207 4.96 10.072.153 15.852-2.117 20.149-5.806 3.102-2.664 4.73-7.05 4.777-10.935.072-6.12-3.145-11.02-8.849-16.341v.004Z"/><path fill="#EF8585" d="M18.39 45.654c.174 1.182 1.687 1.637 4.169 1.683 2.567.047 4.492-.204 4.518-1.525.017-.889-1.662-1.815-4.663-1.836-2.477-.017-3.799.25-4.024 1.678ZM42.058 45.659c.17 1.181 1.67 1.636 4.127 1.683 2.541.046 4.445-.204 4.47-1.526.018-.888-1.644-1.815-4.61-1.832-2.453-.017-3.762.255-3.983 1.679"/><path fill="#fff" stroke="#0E141B" stroke-linecap="round" stroke-linejoin="round" stroke-width="1.488" d="M31.403 38.617c.043-2.695-2.044-5.296-7.101-5.322-6.418-.034-7.85 2.759-7.863 5.453-.013 2.695 2.35 5.062 7.71 5.04 4.254-.016 7.195-1.436 7.254-5.176v.005ZM54.115 38.616c.043-2.669-1.98-5.24-7.101-5.27-6.469-.038-7.85 2.729-7.863 5.402-.013 2.67 2.35 5.01 7.71 4.994 4.254-.013 7.195-1.424 7.254-5.126ZM34.672 53.317c-3.022 0-4.841-1.215-5.474-1.912-.855-.944-1.394-2.253-.736-3.35.646-1.07 1.964-1.164 3.12-.641.527.238 1.56.935 3.09.948 2.112.017 3.183-.557 3.948-.855 1.254-.493 2.482-.39 3.073.761.518 1.012.204 2.567-1.067 3.528-1.539 1.156-3.557 1.525-5.959 1.525l.005-.004Z"/><path fill="#0E141B" d="M24.935 38.544a1.29 1.29 0 0 0-1.288-1.288 1.29 1.29 0 0 0-1.288 1.288c0 .71.578 1.288 1.288 1.288a1.29 1.29 0 0 0 1.288-1.288Z"/><path fill="#fff" d="M58.841 56.9c20.757 2.673 32.444-10.476 28.152-28.496-3.022-12.695-14.688-17.719-26.669-16.478-6.039.625-14.246 3.68-18.134 12.39-2.342 5.244-2.593 11.912.216 18.61"/><path stroke="#0E141B" stroke-linecap="round" stroke-linejoin="round" stroke-width="1.488" d="M58.841 56.9c20.757 2.673 32.444-10.476 28.152-28.496-3.022-12.695-14.688-17.719-26.669-16.478-6.039.625-14.246 3.68-18.134 12.39-2.342 5.244-2.593 11.912.216 18.61"/><path fill="#fff" d="m55.9 74.631 13.34 3.621L80.56 62.225l.616-19.724s-27.94 7.965-28.314 7.744c-.374-.221-3.863 11.708-3.863 11.708"/><path fill="#fff" d="M49.39 57.257s-1.463 9.885.033 17.603c.268 1.394.544 2.431.948 3.736-1.08 9.274 4.645 11.81 7.365 12.546 3.32.897 6.345-1.53 5.215-4.28-1.267-3.08-5.797-2.584-2.312-9.592"/><path stroke="#0E141B" stroke-linecap="round" stroke-linejoin="round" stroke-width="1.488" d="M49.39 57.257s-1.463 9.885.033 17.603c.268 1.394.544 2.431.948 3.736-1.08 9.274 4.645 11.81 7.365 12.546 3.32.897 6.345-1.53 5.215-4.28-1.267-3.08-5.797-2.584-2.312-9.592"/><path fill="#fff" d="M80.669 60.9s0 7.713-2.414 12.88c-2.112 4.523-5.397 7.413-10.425 8.059-6.286.803-15.721-1.492-19.453-5.517-3.178-3.43-.208-7.467 4.51-5.924 4.76 1.555 8.925 2.308 13.315 2.911"/><path stroke="#0E141B" stroke-linecap="round" stroke-linejoin="round" stroke-width="1.488" d="M80.669 60.9s0 7.713-2.414 12.88c-2.112 4.523-5.397 7.413-10.425 8.059-6.286.803-15.721-1.492-19.453-5.517-3.178-3.43-.208-7.467 4.51-5.924 4.76 1.555 8.925 2.308 13.315 2.911"/><path fill="#fff" d="M79.777 51.048c1.05-.79 4.352-2.21 6.702-10.88.714-2.64 1.258-5.874 2.078-7.336 1.177-2.104 2.699-2.728 4.514-2.15 2.405.765 3.616 3.63 2.936 9.707-.956 8.504-4.98 16.617-16.473 22.703"/><path stroke="#0E141B" stroke-linecap="round" stroke-linejoin="round" stroke-width="1.488" d="M79.777 51.048c1.05-.79 4.352-2.21 6.702-10.88.714-2.64 1.258-5.874 2.078-7.336 1.177-2.104 2.699-2.728 4.514-2.15 2.405.765 3.616 3.63 2.936 9.707-.956 8.504-4.98 16.617-16.473 22.703"/><path fill="#8E2422" d="M59.903 56.9c-4.496-.578-10.246.637-12.928-1.394-1.173-3.12-1.377-7.548-3.506-12.58 0 0 13.897-2.66 14.271-2.66.374 0 19.346.386 19.525.518.178.132 3.93 9.214 3.93 9.214l-12.124 7.828"/><path stroke="#0E141B" stroke-linecap="round" stroke-linejoin="round" stroke-width="1.488" d="M59.903 56.9c-4.496-.578-10.246.637-12.928-1.394-1.173-3.12-1.377-7.548-3.506-12.58 0 0 13.897-2.66 14.271-2.66.374 0 19.346.386 19.525.518.178.132 3.93 9.214 3.93 9.214l-12.124 7.828"/><path fill="#fff" d="M41.692 42.17s-.531 2.617.604 4.453c.476.774 1.262 1.327 2.388 1.594 2.924.702 4.964-.854 5.075-1.096l.54-5.185"/><path stroke="#0E141B" stroke-linecap="round" stroke-linejoin="round" stroke-width="1.488" d="M41.692 42.17s-.531 2.617.604 4.453c.476.774 1.262 1.327 2.388 1.594 2.924.702 4.964-.854 5.075-1.096l.54-5.185"/><path fill="#fff" d="M48.271 43.062s-.144 2.954.876 4.433c.455.654 1.203 1.117 2.273 1.236 4.212.477 4.994-2.397 4.994-2.397l.48-3.502"/><path stroke="#0E141B" stroke-linecap="round" stroke-linejoin="round" stroke-width="1.488" d="M48.271 43.062s-.144 2.954.876 4.433c.455.654 1.203 1.117 2.273 1.236 4.212.477 4.994-2.397 4.994-2.397l.48-3.502"/><path fill="#fff" d="M55.411 42.667c-.055 1.797-.144 3.532.489 4.611.43.731 1.326 1.275 2.605 1.326 4.637.183 5.257-2.665 5.257-2.665l.272-3.502"/><path stroke="#0E141B" stroke-linecap="round" stroke-linejoin="round" stroke-width="1.488" d="M55.411 42.667c-.055 1.797-.144 3.532.489 4.611.43.731 1.326 1.275 2.605 1.326 4.637.183 5.257-2.665 5.257-2.665l.272-3.502"/><path fill="#fff" d="M62.186 42.535s-.026 3.094.956 4.377c.506.663 1.42.948 2.915.816 3.804-.335 3.885-2.766 3.885-2.766l.234-2.657"/><path stroke="#0E141B" stroke-linecap="round" stroke-linejoin="round" stroke-width="1.488" d="M62.186 42.535s-.026 3.094.956 4.377c.506.663 1.42.948 2.915.816 3.804-.335 3.885-2.766 3.885-2.766l.234-2.657"/><path fill="#fff" d="M69.05 41.634s0 2.21.892 3.328c.514.641 1.509.943 2.44.88 4.41-.315 3.2-4.582 3.2-4.582"/><path stroke="#0E141B" stroke-linecap="round" stroke-linejoin="round" stroke-width="1.488" d="M69.05 41.634s0 2.21.892 3.328c.514.641 1.509.943 2.44.88 4.41-.315 3.2-4.582 3.2-4.582"/><path stroke="#0E141B" stroke-linecap="round" stroke-linejoin="round" stroke-width="2.019" d="M46.78 22.675c1.69-1.483 4.568-1.896 7.122-.12"/><path stroke="#0E141B" stroke-linecap="round" stroke-linejoin="round" stroke-width="2.125" d="M68.17 22.462s3.701-2.83 8.062.208"/><path fill="#0E141B" d="M51.769 29.347c-.128.757-.812 1.428-1.794 1.284-.752-.11-1.232-.782-1.194-1.547.043-.837.62-1.48 1.564-1.445.76.03 1.62.582 1.424 1.708ZM73.899 29.462c-.136.807-.663 1.458-1.713 1.305-.807-.115-1.555-.714-1.453-1.526.102-.812.616-1.364 1.423-1.454.85-.093 1.947.468 1.743 1.67"/><path fill="#FABE00" stroke="#0E141B" stroke-linecap="round" stroke-linejoin="round" stroke-width="1.488" d="M43.754 54.537c-1.747 1.322-1.713 4.484.688 5.716 1.968 1.012 10.204 2.176 20.035.532 7.879-1.322 13.064-4.51 15.401-6.643 3.588-3.269 4.659-6.567 4.42-9.967-.301-4.326-2.97-7.926-7.87-8.75-3.477-.595-7.57.633-9.746.565-.034-3.052-1.912-5.58-5.912-5.878-4.046-.301-6.621 2.712-6.727 5.942-6.256.365-9.537-1.203-12.27-1.224-3.328-.026-4.862 1.738-5.079 3.706-.378 3.413 3.081 4.551 4.505 4.955 4.034 1.144 9.72 1.683 20.328.88 8.504-.642 11.823-2.852 14.272-1.513 2.622 1.428 1.865 5.007-1.96 7.22-4.794 2.759-13.315 4.08-21.101 3.86-3.358-.098-7.047-.863-8.984.603v-.004Z"/><path fill="#0E141B" d="M58.981 35.352c-.085.617-.616 1.17-1.402 1.054a1.17 1.17 0 0 1-.986-1.266c.06-.62.531-1.224 1.215-1.186.608.038 1.305.476 1.178 1.398M64.175 35.54c-.085.628-.625 1.185-1.428 1.07a1.186 1.186 0 0 1-1.003-1.287c.06-.634.446-1.258 1.236-1.203.617.042 1.327.484 1.195 1.42Z"/><path fill="#FABE00" stroke="#0E141B" stroke-linecap="round" stroke-linejoin="round" stroke-width="1.488" d="M85.714 84.491c-1.44-.038-3.315.14-5.07.701-1.292.417-2.202.97-2.554 1.955-.591 1.64 1.02 3.579 3.31 2.435.617.672 1.858 1.008 3.175.013.659.88 2.27 1.127 4.254-.255 1.288-.892 1.68-1.526 1.615-2.422-.157-2.236-2.677-2.376-4.734-2.427h.004Z"/><path stroke="#0E141B" stroke-linecap="round" stroke-linejoin="round" stroke-width="1.488" d="M81.405 89.583s-.96-.995-.022-2.287M84.58 89.595s-.774-.799-.022-1.968"/><path fill="#FABE00" stroke="#0E141B" stroke-linecap="round" stroke-linejoin="round" stroke-width="1.488" d="M95.96 84.903c-1.746-.123-3.743-.09-5.596.506-1.365.438-2.325 1.262-2.695 2.303-.62 1.734 1.075 3.783 3.498 2.572.65.71 1.963 1.062 3.353.017.697.93 2.078 1.062 3.791.212 1.237-.612 1.819-1.853 1.704-2.796-.233-1.947-1.823-2.657-4.054-2.814Z"/><path stroke="#0E141B" stroke-linecap="round" stroke-linejoin="round" stroke-width="1.488" d="M91.167 90.288s-1.016-1.054-.021-2.418M94.52 90.3s-.82-.845-.02-2.082M92.807 84.92c-.23.633 3.91.778 4.9.272M83.623 84.58c.382.82 3.923.863 4.832.2"/></g><defs><clipPath id="a"><path fill="#fff" d="M7.225 11h93.547v81.077H7.225z"/></clipPath></defs></svg>