<svg xmlns="http://www.w3.org/2000/svg" width="16" height="16" fill="none"><g fill="#262626" clip-path="url(#a)"><path d="M8 .69c-1.965 0-3.807.78-5.17 2.14A7.288 7.288 0 0 0 .69 8c0 1.965.779 3.807 2.14 5.17A7.288 7.288 0 0 0 8 15.31c1.965 0 3.807-.779 5.17-2.14A7.287 7.287 0 0 0 15.31 8c0-1.965-.779-3.807-2.14-5.17A7.288 7.288 0 0 0 8 .69Zm0 1.046c1.684 0 3.262.667 4.43 1.835A6.242 6.242 0 0 1 14.263 8a6.242 6.242 0 0 1-1.835 4.43A6.242 6.242 0 0 1 8 14.264a6.242 6.242 0 0 1-4.43-1.834A6.242 6.242 0 0 1 1.737 8c0-1.684.667-3.262 1.835-4.43A6.242 6.242 0 0 1 8 1.737Z"/><path d="M7.948 9.335a.472.472 0 0 0 .13-.926c-.164-.047-.338-.263-.338-.571 0-.308.174-.524.338-.571a.472.472 0 1 0-.262-.908c-.603.173-1.023.781-1.023 1.479 0 .698.42 1.306 1.024 1.479a.473.473 0 0 0 .13.018ZM10.739 5.32a.63.63 0 0 0-.63.627v.787a.63.63 0 0 0 .63.627h.146a.63.63 0 0 0 .63-.627v-.787a.63.63 0 0 0-.63-.626h-.146ZM5.109 7.36a.63.63 0 0 0 .629-.626v-.787a.63.63 0 0 0-.629-.626h-.147a.63.63 0 0 0-.628.626v.787a.63.63 0 0 0 .628.627h.147Z"/><path d="M10.4 9.195c-.258.896-1.268 1.546-2.401 1.546-1.133 0-2.143-.65-2.402-1.545-.07-.242-.45-.383-.693-.313-.243.07-.455.396-.385.639.375 1.298 1.923 2.206 3.48 2.206 1.558 0 3.042-.907 3.417-2.206.07-.243-.088-.5-.332-.64-.267-.132-.614.071-.684.313Z"/></g><defs><clipPath id="a"><path fill="#fff" d="M0 0h16v16H0z"/></clipPath></defs></svg>