<svg xmlns="http://www.w3.org/2000/svg" width="14" height="14"><g fill="none" fill-rule="evenodd" stroke="#999"><rect width="13" height="13" x=".5" y=".5" rx="6.5"/><g fill="#999" fill-rule="nonzero" stroke-width=".5" transform="translate(5.5 3.192)"><circle cx="2.207" cy=".883" r="1"/><path d="M2.26 6.992c-.385.343-1.108.315-1.108.315-.437.003-.75-.395-.624-.79l.947-2.962a.299.299 0 0 0-.123-.337s-.326-.098-.604-.104c.41-.306 1.105-.306 1.105-.306.433 0 .743.395.62.79l-.918 2.876a.293.293 0 0 0 .097.319c-.003.003.317.15.608.199Z"/></g></g></svg>