<svg xmlns="http://www.w3.org/2000/svg" width="24" height="24"><g fill="#FFF" fill-rule="evenodd"><path d="M11.182 11.642V7.527c0-.542.366-.982.818-.982.452 0 .818.44.818.982v4.115c0 .542-.366.981-.818.981-.452 0-.818-.44-.818-.981Zm1.909 4.292a1.092 1.092 0 1 1-2.183 0 1.092 1.092 0 0 1 2.183 0Z"/><path d="M11.182 11.642V7.527c0-.542.366-.982.818-.982.452 0 .818.44.818.982v4.115c0 .542-.366.981-.818.981-.452 0-.818-.44-.818-.981Zm1.909 4.292a1.092 1.092 0 1 1-2.183 0 1.092 1.092 0 0 1 2.183 0Z" opacity=".8"/><path d="M1.09 12c0 6.015 4.895 10.91 10.91 10.91 6.015 0 10.91-4.895 10.91-10.91 0-6.015-4.895-10.91-10.91-10.91C5.985 1.09 1.09 5.986 1.09 12ZM0 12C0 5.382 5.382 0 12 0s12 5.382 12 12-5.382 12-12 12S0 18.618 0 12Z" opacity=".8"/></g></svg>