<svg xmlns="http://www.w3.org/2000/svg" width="28" height="28" fill="none"><circle cx="14" cy="14" r="11.75" fill="#fff" opacity=".3"/><path fill="#fff" fill-rule="evenodd" d="M13.77 9.07a.381.381 0 0 0-.43.06l-2.72 2.32H8.41a.42.42 0 0 0-.41.42v4.09c0 .23.18.42.41.42h2.21l2.72 2.32c.07.06.17.1.26.1.06 0 .12-.01.17-.04.14-.07.23-.22.23-.38V9.45c0-.16-.09-.31-.23-.38M19.92 12l.58.58-1.68 1.67 1.68 1.68-.58.57-1.68-1.67-1.67 1.67-.57-.57 1.67-1.68L16 12.58l.57-.58 1.67 1.68L19.92 12Z" clip-rule="evenodd"/></svg>