<svg xmlns="http://www.w3.org/2000/svg" width="32" height="32"><g fill="#FFF" fill-rule="evenodd"><path d="M24 14v-2.043c0-.529.428-.957.957-.957h.086c.529 0 .957.428.957.957V14h2.043c.529 0 .957.428.957.957v.086a.957.957 0 0 1-.957.957H26v2.043a.957.957 0 0 1-.957.957h-.086a.957.957 0 0 1-.957-.957V16h-2.043a.957.957 0 0 1-.957-.957v-.086c0-.529.428-.957.957-.957H24ZM23.26 25c0-3.782-2.742-6.611-8.1-6.611h-.016C9.786 18.389 7 21.219 7 25h16.26ZM19 12c0-2.205-1.796-4-4-4-2.204 0-4 1.795-4 4 0 2.204 1.796 4 4 4 2.204 0 4-1.796 4-4Z"/></g></svg>