<svg xmlns="http://www.w3.org/2000/svg" width="28" height="28" fill="none"><g stroke="#fff"><path stroke-miterlimit="5" d="M24.5 14c0 5.799-4.701 10.5-10.5 10.5-5.798 0-10.499-4.701-10.499-10.5s4.7-10.5 10.5-10.5C19.798 3.5 24.5 8.202 24.5 14z" opacity=".8"/><g stroke-linejoin="round" stroke-width=".8"><path d="m11.87 11.716-2.542 1.306v4.335l4.763 2.535 4.581-2.534v-4.336L16.21 11.76"/><path d="m9.328 13.153 4.763 2.534 4.581-2.534M14.117 15.454v4.322"/><path d="M14 13.567c.003 0 2.048-1.23 2.953-2.689.558-.898.342-1.992-.336-2.48-1.267-.913-2.444.424-2.616.631-.172-.207-1.35-1.544-2.617-.631-.677.488-.893 1.582-.336 2.48.906 1.459 2.95 2.688 2.953 2.69z" clip-rule="evenodd"/></g></g></svg>