<svg xmlns="http://www.w3.org/2000/svg" xmlns:xlink="http://www.w3.org/1999/xlink" width="40" height="68"><defs><path id="a" d="M0 0h40v68H0z"/></defs><g fill="none" fill-rule="evenodd"><mask id="b" fill="#fff"><use xlink:href="#a"/></mask><g mask="url(#b)"><path fill="#3961E1" d="m37.06 17.126-16.505-6.028a1.617 1.617 0 0 0-1.11 0L2.939 17.126A4.482 4.482 0 0 0 0 21.338v15.368c0 5.83 1.594 10.024 5.744 13.755 2.966 2.665 6.592 5.319 9.894 7.248C17.386 58.73 18.34 59 20 59c1.66 0 2.614-.27 4.362-1.29 3.302-1.93 6.927-4.584 9.893-7.25C38.406 46.73 40 42.538 40 36.707V21.338a4.482 4.482 0 0 0-2.94-4.212"/><path fill="#FAE100" d="M19.86 23.771c-6.12 0-11.08 4.593-11.08 10.26 0 4.183 1.75 6.18 4.147 8.002v4.904c0 .232.264.365.45.227l4.182-3.107c.739.144 1.504.22 2.288.22 6.113 0 11.07-4.583 11.08-10.24l.013-.007c0-5.666-4.96-10.259-11.08-10.259"/></g></g></svg>