<svg xmlns="http://www.w3.org/2000/svg" width="28" height="28" fill="none"><circle cx="14" cy="14" r="11.75" fill="#fff" opacity=".3"/><path fill="#fff" fill-rule="evenodd" d="M13.77 9.044a.381.381 0 0 0-.43.06l-2.72 2.32H8.41a.42.42 0 0 0-.41.42v4.09c0 .23.18.42.41.42h2.21l2.72 2.32c.07.06.17.1.26.1.06 0 .12-.01.17-.04.14-.07.23-.22.23-.38v-8.93c0-.16-.09-.31-.23-.38M18.34 18.593l-.59-.61a5.794 5.794 0 0 0 1.65-4.06c0-1.53-.58-2.98-1.65-4.06l.59-.61a6.646 6.646 0 0 1 1.89 4.67c0 1.76-.67 3.42-1.89 4.67" clip-rule="evenodd"/><path fill="#fff" fill-rule="evenodd" d="m16.47 16.623-.59-.61a3.086 3.086 0 0 0 0-4.28l.59-.61a3.962 3.962 0 0 1 0 5.5Z" clip-rule="evenodd"/></svg>