<svg xmlns="http://www.w3.org/2000/svg" width="32" height="32"><g fill="none" fill-rule="evenodd"><path fill="#FFF" fill-rule="nonzero" d="m22.82 19.534 1.572 1.56-.857.85-1.573-1.56-1.572 1.56-.857-.85 1.572-1.56-1.572-1.56.857-.85 1.572 1.56 1.573-1.56.857.85-1.572 1.56Z"/><path stroke="#FFF" stroke-linejoin="round" stroke-width="2" d="M23.608 14.818c0-3.897-3.656-7.057-8.167-7.057-4.51 0-8.166 3.16-8.166 7.057 0 2.968 1.194 4.212 3.058 5.506l.01 3.62c0 .162.185.255.315.158l3.178-2.363a9.458 9.458 0 0 0 3.703-.098"/><path fill="#FFF" d="m22 18.287 1.787-1.787L25 17.713 23.213 19.5 25 21.287 23.787 22.5 22 20.713 20.213 22.5 19 21.287l1.787-1.787L19 17.713l1.213-1.213L22 18.287Z"/></g></svg>