<svg xmlns="http://www.w3.org/2000/svg" width="32" height="32"><g fill="#FFF" fill-rule="evenodd"><path d="M12.202 10.913c-3.96 0-7.168 2.739-7.168 6.118 0 1.93 1.047 3.652 2.683 4.773v2.56c0 .26.285.423.514.293l2.562-1.626a8.44 8.44 0 0 0 1.409.118c3.958 0 7.167-2.74 7.167-6.118 0-3.379-3.209-6.118-7.167-6.118"/><path d="M18.52 7.398c-2.175 0-4.169.66-5.724 1.758 4.67.272 8.377 3.695 8.377 7.875 0 2.25-1.078 4.278-2.798 5.719.049 0 .097.003.145.003.606 0 1.197-.052 1.769-.149l3.214 2.041a.43.43 0 0 0 .645-.368v-3.212c2.053-1.407 3.368-3.567 3.368-5.99 0-4.24-4.028-7.677-8.996-7.677"/></g></svg>