<svg width="18" height="18" viewBox="0 0 18 18" fill="none" xmlns="http://www.w3.org/2000/svg">
<path fill-rule="evenodd" clip-rule="evenodd" d="M10.0801 5.55298L6.7321 8.89198L3.6541 11.961C3.6361 12.006 3.6181 12.051 3.6001 12.105V14.931C3.6001 15.039 3.6901 15.129 3.7981 15.129H6.6241C6.6691 15.111 6.7141 15.093 6.7681 15.075L9.8461 11.997L13.1851 8.65798L10.0801 5.55298Z" fill="black"/>
<path fill-rule="evenodd" clip-rule="evenodd" d="M13.4191 3.64509C12.6631 3.49209 11.9701 3.73509 11.4841 4.19409L10.6201 5.05809L13.7251 8.16309L14.5891 7.29909C15.0391 6.80409 15.2821 6.10209 15.1291 5.34609C14.9581 4.50009 14.2651 3.81609 13.4191 3.64509V3.64509Z" fill="black"/>
</svg>
