<svg xmlns="http://www.w3.org/2000/svg" width="28" height="28" fill="none"><path stroke="#fff" stroke-miterlimit="5" d="M24.5 14c0 5.799-4.701 10.5-10.5 10.5-5.798 0-10.5-4.701-10.5-10.5C3.5 8.202 8.203 3.501 14 3.501c5.799 0 10.5 4.7 10.5 10.5Z" opacity=".8"/><path stroke="#fff" stroke-linejoin="round" stroke-width="1.1" d="m8.15 16.608 4.091-4.115 4.04 4.063 3.505-3.517"/><path fill="#fff" fill-rule="evenodd" d="M17.667 10.228c0 .55-.442.998-.998.998a.997.997 0 0 1-.999-.998 1 1 0 0 1 .999-.999 1 1 0 0 1 .998.999Z" clip-rule="evenodd"/></svg>