<svg width="20" height="20" viewBox="0 0 20 20" fill="none" xmlns="http://www.w3.org/2000/svg">
<path fill-rule="evenodd" clip-rule="evenodd" d="M11.6902 3.51734C11.6901 3.51738 11.6902 3.5173 11.6902 3.51734L10.4075 4.80001L9.13471 3.52722L10.4175 2.24444C12.3884 0.274224 15.5832 0.274115 17.5541 2.24433C19.525 4.21525 19.5251 7.41132 17.5542 9.38223L14.5587 12.3783C12.5611 14.3759 9.32229 14.3759 7.32471 12.3783L8.5975 11.1056C9.89214 12.4002 11.9912 12.4002 13.2858 11.1056L16.2813 8.1095C17.5493 6.84153 17.5493 4.7852 16.2814 3.51723C15.0134 2.24981 12.9581 2.24992 11.6902 3.51734Z" fill="white"/>
<path fill-rule="evenodd" clip-rule="evenodd" d="M6.51278 8.69426C6.51271 8.69434 6.51286 8.69419 6.51278 8.69426L3.51745 11.6907C2.24948 12.9587 2.24936 15.0145 3.51734 16.2825C4.78467 17.5502 6.8404 17.5505 8.10843 16.2825L9.39121 14.9997L10.664 16.2725L9.38123 17.5553C7.41041 19.5261 4.215 19.5263 2.24454 17.5553C0.273668 15.5844 0.273628 12.3891 2.24443 10.4181C2.24447 10.4181 2.24439 10.4182 2.24443 10.4181L5.23998 7.42148C7.23754 5.4246 10.4763 5.42437 12.4739 7.42126L11.2013 8.69426C9.90673 7.40011 7.80747 7.40026 6.51278 8.69426Z" fill="white"/>
</svg>
