<svg xmlns="http://www.w3.org/2000/svg" width="32" height="32"><path fill="#FFF" fill-rule="evenodd" d="M18.143 15h4.714c.631 0 1.143-.512 1.143-1.143v-3A2.857 2.857 0 0 0 21.143 8h-3C17.512 8 17 8.512 17 9.143v4.714c0 .631.512 1.143 1.143 1.143Zm0 10h3A2.857 2.857 0 0 0 24 22.143v-3c0-.631-.512-1.143-1.143-1.143h-4.714c-.631 0-1.143.512-1.143 1.143v4.714c0 .631.512 1.143 1.143 1.143Zm-8.286 0h3c.631 0 1.143-.512 1.143-1.143V9.143C14 8.512 13.488 8 12.857 8h-3A2.857 2.857 0 0 0 7 10.857v11.286A2.857 2.857 0 0 0 9.857 25Z"/></svg>