<svg xmlns="http://www.w3.org/2000/svg" width="32" height="32"><g fill="#fff" fill-rule="evenodd"><path fill="none" d="M0 0h32v32H0z"/><path d="M9.755 8.729a.629.629 0 0 1 .905.131l2.333 3.346a.629.629 0 0 1-.077.81l-1.342 1.312a.622.622 0 0 0-.123.73c.585 1.12 1.473 2.163 2.355 3.055.891.882 1.934 1.77 3.054 2.355.241.126.54.072.73-.123l1.312-1.343a.63.63 0 0 1 .81-.076l3.346 2.333c.297.207.356.621.131.905-1.369 1.738-2.783 3.042-4.636 2.7-2.864-.528-5.285-2.042-7.276-4.002-.108-.111-.11-.112-.22-.22-1.96-1.991-3.474-4.412-4.002-7.276-.342-1.853.962-3.267 2.7-4.637zm5.98 1.538a5.505 5.505 0 0 1 5.498 5.499c0 .2-.163.362-.363.362h-.725a.362.362 0 0 1-.363-.362 4.053 4.053 0 0 0-4.047-4.049.362.362 0 0 1-.363-.362v-.725c0-.201.163-.363.363-.363zm.412-3.767C21.029 6.5 25 10.471 25 15.353c0 .198-.16.356-.356.356h-.713a.355.355 0 0 1-.356-.356c0-4.095-3.332-7.429-7.428-7.429a.356.356 0 0 1-.356-.356v-.712c0-.197.16-.356.356-.356z"/></g></svg>