<svg xmlns="http://www.w3.org/2000/svg" width="32" height="32"><g fill="none" fill-rule="evenodd"><path d="M0 0h32v32H0z"/><path fill="#444a50" fill-rule="nonzero" d="m16.707 14.462.235 13.461h-1.884l.235-13.461zM16 4.5c5.799 0 10.5 4.701 10.5 10.5a10.5 10.5 0 0 1-5.79 9.387l-.494-1.687a8.777 8.777 0 1 0-8.432 0l-.493 1.687A10.5 10.5 0 0 1 5.5 15C5.5 9.201 10.201 4.5 16 4.5zm0 4.846a5.654 5.654 0 0 1 3.303 10.243l-.528-1.805a3.93 3.93 0 1 0-5.55 0l-.528 1.805A5.654 5.654 0 0 1 16 9.346z"/></g></svg>