<svg xmlns="http://www.w3.org/2000/svg" width="20" height="20"><g fill="#FFF" fill-rule="evenodd" opacity=".5"><path d="M11.2 5.167 7.482 8.879l-3.418 3.413-.065.156v3.142c0 .122.099.221.22.221h3.143l.157-.064 3.415-3.415 3.714-3.715-3.45-3.45ZM14.912 3.05a2.429 2.429 0 0 0-2.154.606l-.958.957 3.45 3.45.957-.958a2.443 2.443 0 0 0 .6-2.166 2.458 2.458 0 0 0-1.895-1.89Z"/><path d="M11.2 5.167 7.482 8.879l-3.418 3.413-.065.156v3.142c0 .122.099.221.22.221h3.143l.157-.064 3.415-3.415 3.714-3.715-3.45-3.45ZM14.912 3.05a2.429 2.429 0 0 0-2.154.606l-.958.957 3.45 3.45.957-.958a2.443 2.443 0 0 0 .6-2.166 2.458 2.458 0 0 0-1.895-1.89Z"/></g></svg>