<svg xmlns="http://www.w3.org/2000/svg" width="37" height="42"><g fill="none" fill-rule="evenodd"><path d="M-1-2h39v44H-1z"/><path fill="#DADADA" d="m18.203.003.31-.003c7.352 0 13.332 5.877 13.496 13.19l.004.31-.001 4.499 1.991.001A2.995 2.995 0 0 1 37 20.991V39.01A2.992 2.992 0 0 1 34.003 42H2.997A2.995 2.995 0 0 1 0 39.009V20.99A2.992 2.992 0 0 1 2.997 18l2.015-.001V13.5C5.013 6.148 10.89.168 18.204.003l.31-.003ZM18.5 25a3.5 3.5 0 0 0-1.5 6.663V34.5a1.5 1.5 0 0 0 3 0l.001-2.837A3.5 3.5 0 0 0 18.5 25Zm.246-17.996L18.513 7a6.5 6.5 0 0 0-6.496 6.267l-.004.233-.001 4.499h13V13.5a6.5 6.5 0 0 0-6.266-6.496L18.513 7Z"/></g></svg>