<svg xmlns="http://www.w3.org/2000/svg" width="48" height="45"><g fill="none" fill-rule="nonzero" transform="translate(-1.335 -2)"><path d="M.335 0h50v50h-50z"/><path stroke="#262626" stroke-linecap="round" stroke-width="7" d="M15.979 39.446a18.42 18.42 0 0 0 11.244 3.808c10.217 0 18.5-8.282 18.5-18.5 0-10.217-8.283-18.5-18.5-18.5s-18.5 8.283-18.5 18.5"/><path fill="#262626" d="m8.276 30.66-6.664-6.988a1 1 0 0 1 .724-1.69h13.328a1 1 0 0 1 .724 1.69l-6.664 6.987a1 1 0 0 1-1.448 0Z"/><rect width="4.5" height="13.63" x="25.335" y="13.594" fill="#262626" rx="2.25"/><path fill="#262626" d="M26.205 24.797a2.226 2.226 0 0 1 3.108-.549l5.585 3.93a2.248 2.248 0 0 1 .552 3.123 2.226 2.226 0 0 1-3.108.549l-5.585-3.93a2.248 2.248 0 0 1-.552-3.123Z"/></g></svg>