<svg xmlns="http://www.w3.org/2000/svg" width="37" height="42"><g fill="none" fill-rule="evenodd"><path d="M-1-2h39v44H-1z"/><path fill="#DADADA" d="M18.513 0c7.456 0 13.5 6.044 13.5 13.5l-.001 4.499 1.991.001A2.995 2.995 0 0 1 37 20.991V39.01A2.992 2.992 0 0 1 34.003 42H2.997A2.995 2.995 0 0 1 0 39.009V20.99A2.992 2.992 0 0 1 2.997 18l2.015-.001V13.5C5.013 6.148 10.89.168 18.204.003Zm5.01 24.801-.118.105-.016.016-6.322 6.402-2.697-2.743-.017-.017a1.645 1.645 0 0 0-2.327.015 1.695 1.695 0 0 0-.11 2.259l.108.12 3.823 3.888a1.646 1.646 0 0 0 .536.364 1.634 1.634 0 0 0 1.821-.325l.008-.008.008-.008 7.494-7.59.107-.119c.535-.656.5-1.622-.106-2.237a1.633 1.633 0 0 0-2.193-.122ZM18.512 7a6.5 6.5 0 0 0-6.5 6.5l-.001 4.499h13V13.5a6.5 6.5 0 0 0-6.266-6.496Z"/></g></svg>