<svg xmlns="http://www.w3.org/2000/svg" xmlns:xlink="http://www.w3.org/1999/xlink" width="141" height="24"><defs><path id="a" d="M0 0h19.95v19.95H0z"/><path id="c" d="M0 0h22.168v23.482H0z"/><path id="e" d="M0 23.482h43.725V0H0z"/></defs><g fill="none" fill-rule="evenodd"><path fill="#191919" fill-rule="nonzero" d="M62.195 12.142v-1.41h-6.001V9.387h4.352v-1.36H52.08V6.974h7.837V5.631H52.08V4.628h8.364V3.234H50.329v6.154h4.131v1.343h-5.95v1.411h13.685Zm-1.785 5.9v-4.795H50.108v1.394h8.568v3.4h1.734Zm15.283-.052V2.843h-1.734v5.22h-2.958v1.461h2.958v8.466h1.734Zm-11.526-3.179c1.632-.986 3.145-2.89 3.672-4.692.544 1.666 2.244 3.604 3.536 4.42l1.054-1.292c-2.227-1.394-3.74-3.808-3.74-6.715V4.135h-1.785v2.5c0 2.89-1.479 5.388-3.825 6.918l1.088 1.258Zm25.517-3.62V7.806h2.21V6.362h-2.21V2.843h-1.751v8.347h1.751Zm-9.282-.307c2.21 0 4.76-.238 6.256-.527l-.221-1.36c-1.428.34-4.369.493-6.222.493V7.705h4.947V3.54h-6.749v1.377h4.998V6.38h-4.93v4.505h1.921Zm9.282 6.902V11.99h-1.751v1.581h-6.205v-1.547h-1.751v5.763h9.707Zm-1.751-1.394h-6.205v-1.445h6.205v1.445ZM109.387 4.51V3.115H98.405V4.51h10.982Zm-.017 4.046V7.161h-2.244l.408-2.074-1.734-.136-.306 2.21h-3.179l-.255-2.21-1.717.153.34 2.057h-2.244v1.394h10.931Zm1.411 2.431v-1.41H97.096v1.41h13.685Zm-1.258 6.902v-1.394h-8.908v-.986h8.347v-3.502H98.796v1.411h8.432v.867h-8.381v3.604h10.676Zm14.739.102V2.843h-1.734v5.73h-2.465v1.461h2.465v7.956h1.734Zm-10.2-3.468c2.55-.017 4.641-.17 6.256-.476l-.17-1.41c-1.921.356-4.471.441-6.035.441V9.728h4.93V4.17h-6.664v1.394h4.913v2.754h-4.913v6.205h1.683Zm24.854-3.264.918-1.36c-2.278-.408-5.559-2.533-5.559-5.134V3.761h-1.819v1.003c0 2.618-3.094 4.675-5.559 5.066l.85 1.428c2.295-.56 4.896-2.278 5.593-4.148.782 1.836 3.349 3.553 5.576 4.148Zm1.275 4.726V14.59h-13.685v1.394h13.685Z"/><g transform="translate(23.774 .156)"><mask id="b" fill="#fff"><use xlink:href="#a"/></mask><path fill="#FF5A5A" d="M9.976 19.95C4.466 19.95 0 15.486 0 9.976 0 4.466 4.466 0 9.976 0c5.509 0 9.975 4.466 9.975 9.975 0 5.51-4.466 9.976-9.975 9.976" mask="url(#b)"/></g><path fill="#FFF" d="M38.034 9.45h-3.58V5.847h-1.408v3.601h-3.58v1.364h3.58v3.602h1.408v-3.602h3.58z"/><mask id="d" fill="#fff"><use xlink:href="#c"/></mask><path fill="#000" d="M11.084 0C4.962 0 0 4.6 0 10.273c0 4.19 1.75 6.19 4.149 8.014v4.912c0 .232.264.365.45.226l4.184-3.11c.738.143 1.503.22 2.288.22 6.115 0 11.073-4.59 11.084-10.256l.013-.006C22.168 4.6 17.206 0 11.084 0" mask="url(#d)"/><mask id="f" fill="#fff"><use xlink:href="#e"/></mask><path fill="#FFF" d="M8.044 5.566h6.08V4.49h-6.08zM15.463 13.689c0 .35-.285.635-.635.635H7.34a.635.635 0 0 1-.634-.635V8.104h8.757v5.585Zm.538-6.661H6.168a.538.538 0 0 0-.538.538v6.123c0 .943.767 1.71 1.71 1.71h7.488c.943 0 1.711-.767 1.711-1.71V7.566a.538.538 0 0 0-.538-.538Z" mask="url(#f)"/><path fill="#FFF" d="M9.465 10.642h3.239V9.566H9.465z" mask="url(#f)"/></g></svg>