<svg xmlns="http://www.w3.org/2000/svg" width="150" height="70" fill="none"><rect width="82.865" height="31.159" x="60.38" fill="#BEDCF0" rx="15.579"/><path fill="#BEDCF0" fill-rule="evenodd" d="M67.285 29.057s-.244.503-.597.891c-2.397 2.635-4.42 2.998-6.45 2.905a1.19 1.19 0 0 1-.101-.008c-.098-.013-.188-.075-.188-.166-.004-.04.028-.09.028-.09l.014-.019c1.456-1.883 2.547-4.824 2.547-7.39v-7.253l4.748 11.13Z" clip-rule="evenodd"/><path stroke="#3961E1" stroke-linecap="round" stroke-width="2" d="M98.4 20.06v-8.962M94.475 13.338l7.85 4.482M102.325 13.338l-7.85 4.482M112.642 20.06v-8.962M108.718 13.338l7.849 4.482M116.567 13.338l-7.849 4.482M126.885 20.06v-8.962M122.96 13.338l7.849 4.482M130.809 13.338l-7.849 4.482"/><path fill="#FFE500" fill-rule="evenodd" d="M31.464 69.146c-17.473 0-23.738-6.194-23.738-23.475 0-16.629 6.265-23.476 23.738-23.476S55.2 28.39 55.2 45.671c0 17.28-6.264 23.475-23.737 23.475Z" clip-rule="evenodd"/><path stroke="#4C4C4C" stroke-linejoin="round" stroke-width="2" d="M23.94 49.67c1.7-1.403 3.833-1.603 6.113-.573 2.882 1.302 5.1 2.467 8.902.574h.032V38.709h-.032c-3.802 1.893-6.02.728-8.902-.574-2.28-1.03-4.413-.83-6.113.574v17.716"/><path fill="#3961E1" fill-rule="evenodd" d="m79.796 6.441-6.59 2.382a1.772 1.772 0 0 0-1.173 1.665v6.073c0 2.304.636 3.961 2.293 5.435a25.295 25.295 0 0 0 3.95 2.865c.698.404 1.079.51 1.741.51.663 0 1.044-.106 1.742-.51a25.29 25.29 0 0 0 3.95-2.865c1.656-1.474 2.293-3.13 2.293-5.435v-6.073c0-.745-.47-1.41-1.174-1.665l-6.59-2.382a.652.652 0 0 0-.442 0Z" clip-rule="evenodd"/><path fill="#FEE500" fill-rule="evenodd" d="M80.017 11.357c-2.52 0-4.563 1.852-4.563 4.136 0 1.687.721 2.493 1.709 3.227l.004.002v1.98c0 .093.109.147.186.091l1.73-1.26.037.016c.29.053.59.08.897.08 2.52 0 4.562-1.852 4.562-4.136s-2.042-4.136-4.562-4.136Z" clip-rule="evenodd"/></svg>