<svg xmlns="http://www.w3.org/2000/svg" width="80" height="80"><g fill="#D3D3D3" fill-rule="evenodd"><path fill-rule="nonzero" d="m34.889 66.323 37.104-37.105 1.697 1.697L36.586 68.02z"/><path fill-rule="nonzero" d="M64 20a2 2 0 0 1 2 2v10.169l-2.601 2.601.001-12.17H16.6v34.8l24.169-.001L38.168 60H16a2 2 0 0 1-2-2V22a2 2 0 0 1 2-2h48Zm2 15.563V58a2 2 0 0 1-2 2H41.562l2.601-2.601L63.4 57.4l-.001-19.236L66 35.563Z"/><path d="M45.517 40.798c.643-.414.644-1.09.002-1.509l-9.356-6.103c-.642-.418-1.163-.108-1.163.697v12.23c0 .803.52 1.12 1.165.704l9.352-6.02Z"/></g></svg>