<svg xmlns="http://www.w3.org/2000/svg" width="80" height="80"><g fill="#D3D3D3" fill-rule="evenodd" transform="translate(14 20)"><path fill-rule="nonzero" d="M20.889 46.323 57.993 9.218l1.697 1.697L22.586 48.02z"/><path fill-rule="nonzero" d="M50 0a2 2 0 0 1 2 2v10.169l-2.601 2.601L49.4 2.6H2.6v34.8l24.169-.001L24.168 40H2a2 2 0 0 1-2-2V2a2 2 0 0 1 2-2h48Zm2 15.563V38a2 2 0 0 1-2 2H27.562l2.601-2.601L49.4 37.4l-.001-19.236L52 15.563Z"/><circle cx="34.5" cy="13.5" r="2.5"/><path fill-rule="nonzero" d="M9.42 27.016 19.988 16.57l9.662 9.551 5.728-5.661 1.828 1.849-7.556 7.469-9.662-9.553-8.74 8.64z"/></g></svg>