<svg xmlns="http://www.w3.org/2000/svg" xmlns:xlink="http://www.w3.org/1999/xlink" width="256" height="64"><defs><circle id="a" cx="32" cy="32" r="32"/><circle id="b" cx="32" cy="32" r="32"/></defs><g fill="none" fill-rule="evenodd"><g><circle cx="32" cy="32" r="32" fill="#424242" fill-opacity=".65"/><path fill="#FFF" fill-rule="nonzero" d="M32.332 18.52c4.878 0 9.254 2.646 11.53 6.728v-3.016h1.95v6.796h-6.8v-1.934h3.54c-1.76-3.947-5.739-6.575-10.22-6.575-6.167 0-11.161 4.93-11.161 11.006 0 6.075 4.994 11.005 11.161 11.005 5.128 0 9.547-3.436 10.807-8.24l.069-.28 1.947.456c-1.37 5.854-6.667 10.064-12.823 10.064-7.266 0-13.161-5.82-13.161-13.005 0-7.186 5.895-13.006 13.161-13.006Z"/></g><g transform="translate(192)"><use xlink:href="#a" fill="#424242" fill-opacity=".65"/><use xlink:href="#a" fill="#000" fill-opacity=".15"/></g><path fill="#FFF" fill-rule="nonzero" d="M224.332 18.52c4.878 0 9.254 2.646 11.53 6.728v-3.016h1.95v6.796h-6.8v-1.934h3.54c-1.76-3.947-5.739-6.575-10.22-6.575-6.167 0-11.161 4.93-11.161 11.006 0 6.075 4.994 11.005 11.161 11.005 5.128 0 9.547-3.436 10.807-8.24l.069-.28 1.947.456c-1.37 5.854-6.667 10.064-12.823 10.064-7.266 0-13.161-5.82-13.161-13.005 0-7.186 5.895-13.006 13.161-13.006Z"/><g transform="translate(64)"><use xlink:href="#b" fill="#424242" fill-opacity=".65"/><use xlink:href="#b" fill="#000" fill-opacity=".15"/><use xlink:href="#b" fill="#000" fill-opacity=".15"/></g><path fill="#FFF" fill-rule="nonzero" d="M96.332 18.52c4.878 0 9.254 2.646 11.53 6.728v-3.016h1.95v6.796h-6.8v-1.934h3.54c-1.76-3.947-5.739-6.575-10.22-6.575-6.167 0-11.161 4.93-11.161 11.006 0 6.075 4.994 11.005 11.161 11.005 5.128 0 9.547-3.436 10.807-8.24l.069-.28 1.947.456c-1.37 5.854-6.667 10.064-12.823 10.064-7.266 0-13.161-5.82-13.161-13.005 0-7.186 5.895-13.006 13.161-13.006Z"/></g></svg>