<svg xmlns="http://www.w3.org/2000/svg" xmlns:xlink="http://www.w3.org/1999/xlink" width="16" height="14"><defs><path id="a" d="M0 0h16v14H0z"/></defs><g fill="none" fill-rule="evenodd"><mask id="b" fill="#fff"><use xlink:href="#a"/></mask><path fill="#262626" fill-opacity=".9" fill-rule="nonzero" d="M12.33 1.916c-2.035.88-3.326.3-4.894-.396l-.227-.1c-1.447-.64-2.844-.545-3.96.263A.591.591 0 0 0 3 2.16v10.713h1.375v-4.47c.794-.268 1.687-.196 2.633.222l.226.1c1.044.464 2.002.89 3.132.89.72 0 1.536-.178 2.407-.6.177-.101.227-.212.227-.389V2.328a.454.454 0 0 0-.236-.395.491.491 0 0 0-.434-.017Z" mask="url(#b)"/></g></svg>