<svg xmlns="http://www.w3.org/2000/svg" width="84" height="84"><g fill="none" fill-rule="nonzero"><path fill="#FFF" d="M84 42c0 31.198-10.802 42-42 42S0 73.198 0 42 10.802 0 42 0s42 10.802 42 42Z"/><g transform="translate(.001 .001)"><path fill="#FF6229" d="M0 0h84v84H0z"/><path fill="#FFF" d="m59.068 35.791 16.638 28.686H42.427z"/><path fill="#FF6229" d="M80.166 67.048 59.068 30.669 37.967 67.048h42.2ZM59.068 35.79l16.638 28.686H42.427l16.64-28.686Z"/><path fill="#FF6229" d="M57.2 45.638h3.888l-.706 8.835h-2.536l-.645-8.835Zm.213 10.918h3.213v3.213h-3.213v-3.213Z"/><circle cx="39.752" cy="31.617" r="12.096" fill="#FFE8E0"/><path fill="#FFE8E0" d="M39.752 48.118c-3.839 0-22.008.496-22.632 16.378h21.36l9.118-15.573a39.816 39.816 0 0 0-7.846-.805Z"/></g></g></svg>